<svg xmlns="http://www.w3.org/2000/svg" xmlns:xlink="http://www.w3.org/1999/xlink" contentStyleType="text/css" data-diagram-type="EBNF" height="153px" preserveAspectRatio="none" style="width:1113px;height:153px;background:#0B58A8;" version="1.1" viewBox="0 0 1113 153" width="1113px" zoomAndPan="magnify"><defs/><g><rect fill="#0B58A8" height="153" style="stroke:none;stroke-width:1;" width="1113" x="0" y="0"/><text fill="#FFFFFF" font-family="Verdana" font-size="14" font-weight="bold" lengthAdjust="spacing" textLength="41.0771" x="5" y="19.0752">Ratio</text><line style="stroke:#FFFFFF;stroke-width:1.5;" x1="35" x2="35" y1="45.522" y2="45.522"/><line style="stroke:#FFFFFF;stroke-width:1.5;" x1="35" x2="152.457" y1="45.522" y2="45.522"/><path d="M79.9828,45.522 L79.9828,42.522 L85.9828,45.522 L79.9828,48.522 L79.9828,45.522" fill="#FFFFFF"/><path d="M35,45.522 C44,45.522 47,48.2756 47,57.2756 C47,66.2756 50,69.0293 59,69.0293" fill="none" style="stroke:#FFFFFF;stroke-width:1.5;"/><path d="M128.457,69.0293 C137.457,69.0293 140.457,66.2756 140.457,57.2756 C140.457,48.2756 143.457,45.522 152.457,45.522" fill="none" style="stroke:#FFFFFF;stroke-width:1.5;"/><rect fill="none" height="27.0146" style="stroke:#FFFFFF;stroke-width:0.5;" width="16.3574" x="83" y="55.522"/><text fill="#FFFFFF" font-family="Verdana" font-size="14" lengthAdjust="spacing" textLength="6.3574" x="88" y="74.5972">-</text><line style="stroke:#FFFFFF;stroke-width:1.5;" x1="59" x2="83" y1="69.0293" y2="69.0293"/><line style="stroke:#FFFFFF;stroke-width:1.5;" x1="99.3574" x2="128.457" y1="69.0293" y2="69.0293"/><rect fill="none" height="27.0146" style="stroke:#FFFFFF;stroke-width:0.5;" width="21.457" x="83" y="92.5366"/><text fill="#FFFFFF" font-family="Verdana" font-size="14" lengthAdjust="spacing" textLength="11.457" x="88" y="111.6118">+</text><line style="stroke:#FFFFFF;stroke-width:1.5;" x1="104.457" x2="104.457" y1="106.0439" y2="106.0439"/><path d="M71,94.0439 C71,103.0439 74,106.0439 83,106.0439" fill="none" style="stroke:#FFFFFF;stroke-width:1.5;"/><line style="stroke:#FFFFFF;stroke-width:1.5;" x1="71" x2="71" y1="81.0293" y2="94.0439"/><path d="M59,69.0293 C68,69.0293 71,72.0293 71,81.0293" fill="none" style="stroke:#FFFFFF;stroke-width:1.5;"/><path d="M116.457,94.0439 C116.457,103.0439 113.457,106.0439 104.457,106.0439" fill="none" style="stroke:#FFFFFF;stroke-width:1.5;"/><line style="stroke:#FFFFFF;stroke-width:1.5;" x1="116.457" x2="116.457" y1="81.0293" y2="94.0439"/><path d="M116.457,81.0293 C116.457,72.0293 119.457,69.0293 128.457,69.0293" fill="none" style="stroke:#FFFFFF;stroke-width:1.5;"/><line style="stroke:#FFFFFF;stroke-width:1.5;" x1="152.457" x2="172.457" y1="45.522" y2="45.522"/><line style="stroke:#FFFFFF;stroke-width:1.5;" x1="196.457" x2="196.457" y1="45.522" y2="45.522"/><rect fill="none" height="27.0146" style="stroke:#FFFFFF;stroke-width:1;stroke-dasharray:5,5;" width="111.541" x="196.457" y="32.0146"/><text fill="#FFFFFF" font-family="Verdana" font-size="14" lengthAdjust="spacing" textLength="91.6973" x="206.3789" y="51.0898">Decimal digit</text><line style="stroke:#FFFFFF;stroke-width:1.5;" x1="307.998" x2="327.998" y1="45.522" y2="45.522"/><text fill="#FFFFFF" font-family="Verdana" font-size="14" lengthAdjust="spacing" textLength="30.1191" x="330.998" y="49.4614">NOT</text><line style="stroke:#FFFFFF;stroke-width:1.5;" x1="366.1172" x2="366.1172" y1="45.522" y2="45.522"/><rect fill="none" height="27.0146" style="stroke:#FFFFFF;stroke-width:0.5;" width="18.9004" x="366.1172" y="32.0146"/><text fill="#FFFFFF" font-family="Verdana" font-size="14" lengthAdjust="spacing" textLength="8.9004" x="371.1172" y="51.0898">0</text><line style="stroke:#FFFFFF;stroke-width:1.5;" x1="385.0176" x2="405.0176" y1="45.522" y2="45.522"/><line style="stroke:#FFFFFF;stroke-width:1.5;" x1="405.0176" x2="594.5586" y1="45.522" y2="45.522"/><path d="M478.834,45.522 L478.834,42.522 L484.834,45.522 L478.834,48.522 L478.834,45.522" fill="#FFFFFF"/><path d="M405.0176,45.522 C414.0176,45.522 417.0176,54.2756 417.0176,63.2756 C417.0176,72.2756 420.0176,81.0293 429.0176,81.0293" fill="none" style="stroke:#FFFFFF;stroke-width:1.5;"/><path d="M570.5586,81.0293 C579.5586,81.0293 582.5586,72.2756 582.5586,63.2756 C582.5586,54.2756 585.5586,45.522 594.5586,45.522" fill="none" style="stroke:#FFFFFF;stroke-width:1.5;"/><path d="M437.0176,73.0293 C437.0176,79.0293 439.0176,81.0293 445.0176,81.0293" fill="none" style="stroke:#FFFFFF;stroke-width:1.5;"/><line style="stroke:#FFFFFF;stroke-width:1.5;" x1="437.0176" x2="437.0176" y1="68.522" y2="73.0293"/><path d="M437.0176,68.522 C437.0176,62.522 439.0176,60.522 445.0176,60.522" fill="none" style="stroke:#FFFFFF;stroke-width:1.5;"/><line style="stroke:#FFFFFF;stroke-width:1.5;" x1="444.0176" x2="555.5586" y1="60.522" y2="60.522"/><path d="M508.9422,60.522 L508.9422,57.522 L502.9422,60.522 L508.9422,63.522 L508.9422,60.522" fill="#FFFFFF"/><path d="M562.5586,73.0293 C562.5586,79.0293 560.5586,81.0293 554.5586,81.0293" fill="none" style="stroke:#FFFFFF;stroke-width:1.5;"/><line style="stroke:#FFFFFF;stroke-width:1.5;" x1="562.5586" x2="562.5586" y1="68.522" y2="73.0293"/><path d="M554.5586,60.522 C560.5586,60.522 562.5586,62.522 562.5586,68.522" fill="none" style="stroke:#FFFFFF;stroke-width:1.5;"/><line style="stroke:#FFFFFF;stroke-width:1.5;" x1="429.0176" x2="444.0176" y1="81.0293" y2="81.0293"/><line style="stroke:#FFFFFF;stroke-width:1.5;" x1="555.5586" x2="570.5586" y1="81.0293" y2="81.0293"/><rect fill="none" height="27.0146" style="stroke:#FFFFFF;stroke-width:1;stroke-dasharray:5,5;" width="111.541" x="444.0176" y="67.522"/><text fill="#FFFFFF" font-family="Verdana" font-size="14" lengthAdjust="spacing" textLength="91.6973" x="453.9395" y="86.5972">Decimal digit</text><line style="stroke:#FFFFFF;stroke-width:1.5;" x1="172.457" x2="196.457" y1="45.522" y2="45.522"/><line style="stroke:#FFFFFF;stroke-width:1.5;" x1="594.5586" x2="618.5586" y1="45.522" y2="45.522"/><rect fill="none" height="27.0146" style="stroke:#FFFFFF;stroke-width:0.5;" width="18.9004" x="196.457" y="104.5366"/><text fill="#FFFFFF" font-family="Verdana" font-size="14" lengthAdjust="spacing" textLength="8.9004" x="201.457" y="123.6118">0</text><line style="stroke:#FFFFFF;stroke-width:1.5;" x1="215.3574" x2="594.5586" y1="118.0439" y2="118.0439"/><path d="M402.958,118.0439 L402.958,115.0439 L408.958,118.0439 L402.958,121.0439 L402.958,118.0439" fill="#FFFFFF"/><path d="M184.457,106.0439 C184.457,115.0439 187.457,118.0439 196.457,118.0439" fill="none" style="stroke:#FFFFFF;stroke-width:1.5;"/><line style="stroke:#FFFFFF;stroke-width:1.5;" x1="184.457" x2="184.457" y1="57.522" y2="106.0439"/><path d="M172.457,45.522 C181.457,45.522 184.457,48.522 184.457,57.522" fill="none" style="stroke:#FFFFFF;stroke-width:1.5;"/><path d="M606.5586,106.0439 C606.5586,115.0439 603.5586,118.0439 594.5586,118.0439" fill="none" style="stroke:#FFFFFF;stroke-width:1.5;"/><line style="stroke:#FFFFFF;stroke-width:1.5;" x1="606.5586" x2="606.5586" y1="57.522" y2="106.0439"/><path d="M606.5586,57.522 C606.5586,48.522 609.5586,45.522 618.5586,45.522" fill="none" style="stroke:#FFFFFF;stroke-width:1.5;"/><line style="stroke:#FFFFFF;stroke-width:1.5;" x1="618.5586" x2="638.5586" y1="45.522" y2="45.522"/><rect fill="none" height="27.0146" style="stroke:#FFFFFF;stroke-width:0.5;" width="16.3574" x="638.5586" y="32.0146"/><text fill="#FFFFFF" font-family="Verdana" font-size="14" lengthAdjust="spacing" textLength="6.3574" x="643.5586" y="51.0898">/</text><line style="stroke:#FFFFFF;stroke-width:1.5;" x1="654.916" x2="674.916" y1="45.522" y2="45.522"/><rect fill="none" height="27.0146" style="stroke:#FFFFFF;stroke-width:1;stroke-dasharray:5,5;" width="111.541" x="674.916" y="32.0146"/><text fill="#FFFFFF" font-family="Verdana" font-size="14" lengthAdjust="spacing" textLength="91.6973" x="684.8379" y="51.0898">Decimal digit</text><line style="stroke:#FFFFFF;stroke-width:1.5;" x1="786.457" x2="806.457" y1="45.522" y2="45.522"/><text fill="#FFFFFF" font-family="Verdana" font-size="14" lengthAdjust="spacing" textLength="30.1191" x="809.457" y="49.4614">NOT</text><line style="stroke:#FFFFFF;stroke-width:1.5;" x1="844.5762" x2="844.5762" y1="45.522" y2="45.522"/><rect fill="none" height="27.0146" style="stroke:#FFFFFF;stroke-width:0.5;" width="18.9004" x="844.5762" y="32.0146"/><text fill="#FFFFFF" font-family="Verdana" font-size="14" lengthAdjust="spacing" textLength="8.9004" x="849.5762" y="51.0898">0</text><line style="stroke:#FFFFFF;stroke-width:1.5;" x1="863.4766" x2="883.4766" y1="45.522" y2="45.522"/><line style="stroke:#FFFFFF;stroke-width:1.5;" x1="883.4766" x2="1073.0176" y1="45.522" y2="45.522"/><path d="M957.293,45.522 L957.293,42.522 L963.293,45.522 L957.293,48.522 L957.293,45.522" fill="#FFFFFF"/><path d="M883.4766,45.522 C892.4766,45.522 895.4766,54.2756 895.4766,63.2756 C895.4766,72.2756 898.4766,81.0293 907.4766,81.0293" fill="none" style="stroke:#FFFFFF;stroke-width:1.5;"/><path d="M1049.0176,81.0293 C1058.0176,81.0293 1061.0176,72.2756 1061.0176,63.2756 C1061.0176,54.2756 1064.0176,45.522 1073.0176,45.522" fill="none" style="stroke:#FFFFFF;stroke-width:1.5;"/><path d="M915.4766,73.0293 C915.4766,79.0293 917.4766,81.0293 923.4766,81.0293" fill="none" style="stroke:#FFFFFF;stroke-width:1.5;"/><line style="stroke:#FFFFFF;stroke-width:1.5;" x1="915.4766" x2="915.4766" y1="68.522" y2="73.0293"/><path d="M915.4766,68.522 C915.4766,62.522 917.4766,60.522 923.4766,60.522" fill="none" style="stroke:#FFFFFF;stroke-width:1.5;"/><line style="stroke:#FFFFFF;stroke-width:1.5;" x1="922.4766" x2="1034.0176" y1="60.522" y2="60.522"/><path d="M987.4012,60.522 L987.4012,57.522 L981.4012,60.522 L987.4012,63.522 L987.4012,60.522" fill="#FFFFFF"/><path d="M1041.0176,73.0293 C1041.0176,79.0293 1039.0176,81.0293 1033.0176,81.0293" fill="none" style="stroke:#FFFFFF;stroke-width:1.5;"/><line style="stroke:#FFFFFF;stroke-width:1.5;" x1="1041.0176" x2="1041.0176" y1="68.522" y2="73.0293"/><path d="M1033.0176,60.522 C1039.0176,60.522 1041.0176,62.522 1041.0176,68.522" fill="none" style="stroke:#FFFFFF;stroke-width:1.5;"/><line style="stroke:#FFFFFF;stroke-width:1.5;" x1="907.4766" x2="922.4766" y1="81.0293" y2="81.0293"/><line style="stroke:#FFFFFF;stroke-width:1.5;" x1="1034.0176" x2="1049.0176" y1="81.0293" y2="81.0293"/><rect fill="none" height="27.0146" style="stroke:#FFFFFF;stroke-width:1;stroke-dasharray:5,5;" width="111.541" x="922.4766" y="67.522"/><text fill="#FFFFFF" font-family="Verdana" font-size="14" lengthAdjust="spacing" textLength="91.6973" x="932.3984" y="86.5972">Decimal digit</text><ellipse cx="9" cy="45.522" fill="none" rx="4" ry="4" style="stroke:#FFFFFF;stroke-width:2;"/><ellipse cx="1103.0176" cy="45.522" fill="#FFFFFF" rx="4" ry="4" style="stroke:#FFFFFF;stroke-width:1;"/><line style="stroke:#FFFFFF;stroke-width:1.5;" x1="13" x2="35" y1="45.522" y2="45.522"/><line style="stroke:#FFFFFF;stroke-width:1.5;" x1="1073.0176" x2="1099.0176" y1="45.522" y2="45.522"/><path d="M1084.0176,45.522 L1084.0176,42.522 L1090.0176,45.522 L1084.0176,48.522 L1084.0176,45.522" fill="#FFFFFF"/><!--SRC=[pLRVSz9047xFNx7YIpjQIsbnAlugqDPQeJ9DMnyS7vRS0YVXBbukA2h_kti12YbWIuipXe4Xkzz-j_bsRoy7iKLZgQbQtYFReHu1zcGRlNEqKiDh-0ovhHpyXjoJ77o1fx31dxTmI87iOGX2jgNb-ot8vNFi_RN0DuHD5y_-JKRajdCfo-eSBxq3KYBDr3kOPZswNiLs4D8R3y1eRU4N_m6eOD1j6vqeKTMXDl0uNodkb_TJtx5MTcmzJgzhwnco25Ta12fCZIU3Y4nDgku4VrZUBHHJ5rjfdiLPBpeow2gAOzX9RNKqRQd0XGtvAtIGz4XDCWqmOhdL-EucGpwr3jFV5ZyUcJi0EuJYJa0hRKZNEAU0BtyI50gtHBglKpSwcLrfJlCRwYwkXE-g1qqTYZ6nqcAIKnr_o5xI-oI5xS1kFZz666gH8HNGlrW-fWWDMhrMsbVRuoRrugvKRe4Ub8tHtsiw36Maeopt5BIiZwU8GsfX4jgvzfr3rBNISOG1YMjiLIT6afd1rcIBGgwwRra3QW-u6h4EfPY1D7ZxoK16g6m3XP2g3Jlv6RzFtn9N74Vb6gYY3HTfsGFw7HJwkoDfOHZJZESofWfP72bfJK8PyG8h-z8EqY8jt-mLD3UhjYYTnJDXJjBXR67SScX62Sn7Pw4_KjH4hMB6MvKc24bKEtmNJFRteiQQgnh0EGgPnF0YInWYRzPRT5cF2EbIPMkDR2QMbaXn5mwV7voqvMbxFvBZwMXSENPcYAmUwyu7tY_TD3nxICpYtWTQDRWQsAOCyhefbrHgZiF8Fjg7Sh1Mt6dYOIn9CvJ1lIdEz7txvMFpAsS_wky5NJpCJAgfuclgUDzEv5zjSsKv9irUNipqrrcrcAcwDgQZjJ6zNnlJsGEP-2YfOamZmeiLfyp__JhS2FaSlgpNe4ycTk-HEyyA-KBnsTw6ZnPE4mM5VTZPBULVb0f5g1xv5-3yczx6kqODOZvA0cBoU3J3cM3JEyK-mdcYhEnH2Jv6f4uFFqmCSAJwqcZbtc2zqwlw5F1yRwl2AVfaE1MugdlZzmwE2BGx-4fmUN6yjU_LKBKJtfSb8ENnOQQi6R3F_mC0]--></g></svg>