<svg xmlns="http://www.w3.org/2000/svg" xmlns:xlink="http://www.w3.org/1999/xlink" contentStyleType="text/css" data-diagram-type="EBNF" height="918px" preserveAspectRatio="none" style="width:609px;height:918px;background:#0B58A8;" version="1.1" viewBox="0 0 609 918" width="609px" zoomAndPan="magnify"><defs/><g><rect fill="#0B58A8" height="918" style="stroke:none;stroke-width:1;" width="609" x="0" y="0"/><text fill="#FFFFFF" font-family="Verdana" font-size="14" font-weight="bold" lengthAdjust="spacing" textLength="59.3359" x="5" y="19.0752">Integer</text><line style="stroke:#FFFFFF;stroke-width:1.5;" x1="35" x2="35" y1="45.522" y2="45.522"/><line style="stroke:#FFFFFF;stroke-width:1.5;" x1="35" x2="152.457" y1="45.522" y2="45.522"/><path d="M79.9828,45.522 L79.9828,42.522 L85.9828,45.522 L79.9828,48.522 L79.9828,45.522" fill="#FFFFFF"/><path d="M35,45.522 C44,45.522 47,48.2756 47,57.2756 C47,66.2756 50,69.0293 59,69.0293" fill="none" style="stroke:#FFFFFF;stroke-width:1.5;"/><path d="M128.457,69.0293 C137.457,69.0293 140.457,66.2756 140.457,57.2756 C140.457,48.2756 143.457,45.522 152.457,45.522" fill="none" style="stroke:#FFFFFF;stroke-width:1.5;"/><rect fill="none" height="27.0146" style="stroke:#FFFFFF;stroke-width:0.5;" width="16.3574" x="83" y="55.522"/><text fill="#FFFFFF" font-family="Verdana" font-size="14" lengthAdjust="spacing" textLength="6.3574" x="88" y="74.5972">-</text><line style="stroke:#FFFFFF;stroke-width:1.5;" x1="59" x2="83" y1="69.0293" y2="69.0293"/><line style="stroke:#FFFFFF;stroke-width:1.5;" x1="99.3574" x2="128.457" y1="69.0293" y2="69.0293"/><rect fill="none" height="27.0146" style="stroke:#FFFFFF;stroke-width:0.5;" width="21.457" x="83" y="92.5366"/><text fill="#FFFFFF" font-family="Verdana" font-size="14" lengthAdjust="spacing" textLength="11.457" x="88" y="111.6118">+</text><line style="stroke:#FFFFFF;stroke-width:1.5;" x1="104.457" x2="104.457" y1="106.0439" y2="106.0439"/><path d="M71,94.0439 C71,103.0439 74,106.0439 83,106.0439" fill="none" style="stroke:#FFFFFF;stroke-width:1.5;"/><line style="stroke:#FFFFFF;stroke-width:1.5;" x1="71" x2="71" y1="81.0293" y2="94.0439"/><path d="M59,69.0293 C68,69.0293 71,72.0293 71,81.0293" fill="none" style="stroke:#FFFFFF;stroke-width:1.5;"/><path d="M116.457,94.0439 C116.457,103.0439 113.457,106.0439 104.457,106.0439" fill="none" style="stroke:#FFFFFF;stroke-width:1.5;"/><line style="stroke:#FFFFFF;stroke-width:1.5;" x1="116.457" x2="116.457" y1="81.0293" y2="94.0439"/><path d="M116.457,81.0293 C116.457,72.0293 119.457,69.0293 128.457,69.0293" fill="none" style="stroke:#FFFFFF;stroke-width:1.5;"/><line style="stroke:#FFFFFF;stroke-width:1.5;" x1="152.457" x2="172.457" y1="45.522" y2="45.522"/><rect fill="#0B58A8" height="27.0146" rx="5" ry="5" style="stroke:#FFFFFF;stroke-width:1.5;" width="97.7256" x="196.457" y="32.0146"/><text fill="#FFFFFF" font-family="Verdana" font-size="14" lengthAdjust="spacing" textLength="87.7256" x="201.457" y="51.0898">OctalInteger</text><line style="stroke:#FFFFFF;stroke-width:1.5;" x1="172.457" x2="196.457" y1="45.522" y2="45.522"/><line style="stroke:#FFFFFF;stroke-width:1.5;" x1="294.1826" x2="371.7217" y1="45.522" y2="45.522"/><rect fill="#0B58A8" height="27.0146" rx="5" ry="5" style="stroke:#FFFFFF;stroke-width:1.5;" width="151.2646" x="196.457" y="69.0293"/><text fill="#FFFFFF" font-family="Verdana" font-size="14" lengthAdjust="spacing" textLength="141.2646" x="201.457" y="88.1045">HexadecimalInteger</text><path d="M184.457,70.5366 C184.457,79.5366 187.457,82.5366 196.457,82.5366" fill="none" style="stroke:#FFFFFF;stroke-width:1.5;"/><line style="stroke:#FFFFFF;stroke-width:1.5;" x1="347.7217" x2="347.7217" y1="82.5366" y2="82.5366"/><path d="M359.7217,70.5366 C359.7217,79.5366 356.7217,82.5366 347.7217,82.5366" fill="none" style="stroke:#FFFFFF;stroke-width:1.5;"/><rect fill="#0B58A8" height="27.0146" rx="5" ry="5" style="stroke:#FFFFFF;stroke-width:1.5;" width="100.6377" x="196.457" y="106.0439"/><text fill="#FFFFFF" font-family="Verdana" font-size="14" lengthAdjust="spacing" textLength="90.6377" x="201.457" y="125.1191">RadixInteger</text><path d="M184.457,107.5513 C184.457,116.5513 187.457,119.5513 196.457,119.5513" fill="none" style="stroke:#FFFFFF;stroke-width:1.5;"/><line style="stroke:#FFFFFF;stroke-width:1.5;" x1="297.0947" x2="347.7217" y1="119.5513" y2="119.5513"/><path d="M320.4082,119.5513 L320.4082,116.5513 L326.4082,119.5513 L320.4082,122.5513 L320.4082,119.5513" fill="#FFFFFF"/><path d="M359.7217,107.5513 C359.7217,116.5513 356.7217,119.5513 347.7217,119.5513" fill="none" style="stroke:#FFFFFF;stroke-width:1.5;"/><rect fill="#0B58A8" height="27.0146" rx="5" ry="5" style="stroke:#FFFFFF;stroke-width:1.5;" width="117.7754" x="196.457" y="143.0586"/><text fill="#FFFFFF" font-family="Verdana" font-size="14" lengthAdjust="spacing" textLength="107.7754" x="201.457" y="162.1338">DecimalInteger</text><line style="stroke:#FFFFFF;stroke-width:1.5;" x1="314.2324" x2="347.7217" y1="156.5659" y2="156.5659"/><path d="M328.9771,156.5659 L328.9771,153.5659 L334.9771,156.5659 L328.9771,159.5659 L328.9771,156.5659" fill="#FFFFFF"/><path d="M184.457,144.5659 C184.457,153.5659 187.457,156.5659 196.457,156.5659" fill="none" style="stroke:#FFFFFF;stroke-width:1.5;"/><line style="stroke:#FFFFFF;stroke-width:1.5;" x1="184.457" x2="184.457" y1="57.522" y2="144.5659"/><path d="M172.457,45.522 C181.457,45.522 184.457,48.522 184.457,57.522" fill="none" style="stroke:#FFFFFF;stroke-width:1.5;"/><path d="M359.7217,144.5659 C359.7217,153.5659 356.7217,156.5659 347.7217,156.5659" fill="none" style="stroke:#FFFFFF;stroke-width:1.5;"/><line style="stroke:#FFFFFF;stroke-width:1.5;" x1="359.7217" x2="359.7217" y1="57.522" y2="144.5659"/><path d="M359.7217,57.522 C359.7217,48.522 362.7217,45.522 371.7217,45.522" fill="none" style="stroke:#FFFFFF;stroke-width:1.5;"/><ellipse cx="9" cy="45.522" fill="none" rx="4" ry="4" style="stroke:#FFFFFF;stroke-width:2;"/><ellipse cx="401.7217" cy="45.522" fill="#FFFFFF" rx="4" ry="4" style="stroke:#FFFFFF;stroke-width:1;"/><line style="stroke:#FFFFFF;stroke-width:1.5;" x1="13" x2="35" y1="45.522" y2="45.522"/><line style="stroke:#FFFFFF;stroke-width:1.5;" x1="371.7217" x2="397.7217" y1="45.522" y2="45.522"/><path d="M382.7217,45.522 L382.7217,42.522 L388.7217,45.522 L382.7217,48.522 L382.7217,45.522" fill="#FFFFFF"/><text fill="#FFFFFF" font-family="Verdana" font-size="14" font-weight="bold" lengthAdjust="spacing" textLength="122.2266" x="5" y="199.1484">DecimalInteger</text><line style="stroke:#FFFFFF;stroke-width:1.5;" x1="35" x2="35" y1="225.5952" y2="225.5952"/><line style="stroke:#FFFFFF;stroke-width:1.5;" x1="59" x2="59" y1="225.5952" y2="225.5952"/><rect fill="none" height="27.0146" style="stroke:#FFFFFF;stroke-width:1;stroke-dasharray:5,5;" width="111.541" x="59" y="212.0879"/><text fill="#FFFFFF" font-family="Verdana" font-size="14" lengthAdjust="spacing" textLength="91.6973" x="68.9219" y="231.1631">Decimal digit</text><line style="stroke:#FFFFFF;stroke-width:1.5;" x1="170.541" x2="190.541" y1="225.5952" y2="225.5952"/><text fill="#FFFFFF" font-family="Verdana" font-size="14" lengthAdjust="spacing" textLength="30.1191" x="193.541" y="229.5347">NOT</text><line style="stroke:#FFFFFF;stroke-width:1.5;" x1="228.6602" x2="228.6602" y1="225.5952" y2="225.5952"/><rect fill="none" height="27.0146" style="stroke:#FFFFFF;stroke-width:0.5;" width="18.9004" x="228.6602" y="212.0879"/><text fill="#FFFFFF" font-family="Verdana" font-size="14" lengthAdjust="spacing" textLength="8.9004" x="233.6602" y="231.1631">0</text><line style="stroke:#FFFFFF;stroke-width:1.5;" x1="247.5605" x2="267.5605" y1="225.5952" y2="225.5952"/><line style="stroke:#FFFFFF;stroke-width:1.5;" x1="267.5605" x2="457.1016" y1="225.5952" y2="225.5952"/><path d="M341.377,225.5952 L341.377,222.5952 L347.377,225.5952 L341.377,228.5952 L341.377,225.5952" fill="#FFFFFF"/><path d="M267.5605,225.5952 C276.5605,225.5952 279.5605,234.3489 279.5605,243.3489 C279.5605,252.3489 282.5605,261.1025 291.5605,261.1025" fill="none" style="stroke:#FFFFFF;stroke-width:1.5;"/><path d="M433.1016,261.1025 C442.1016,261.1025 445.1016,252.3489 445.1016,243.3489 C445.1016,234.3489 448.1016,225.5952 457.1016,225.5952" fill="none" style="stroke:#FFFFFF;stroke-width:1.5;"/><path d="M299.5605,253.1025 C299.5605,259.1025 301.5605,261.1025 307.5605,261.1025" fill="none" style="stroke:#FFFFFF;stroke-width:1.5;"/><line style="stroke:#FFFFFF;stroke-width:1.5;" x1="299.5605" x2="299.5605" y1="248.5952" y2="253.1025"/><path d="M299.5605,248.5952 C299.5605,242.5952 301.5605,240.5952 307.5605,240.5952" fill="none" style="stroke:#FFFFFF;stroke-width:1.5;"/><line style="stroke:#FFFFFF;stroke-width:1.5;" x1="306.5605" x2="418.1016" y1="240.5952" y2="240.5952"/><path d="M371.4852,240.5952 L371.4852,237.5952 L365.4852,240.5952 L371.4852,243.5952 L371.4852,240.5952" fill="#FFFFFF"/><path d="M425.1016,253.1025 C425.1016,259.1025 423.1016,261.1025 417.1016,261.1025" fill="none" style="stroke:#FFFFFF;stroke-width:1.5;"/><line style="stroke:#FFFFFF;stroke-width:1.5;" x1="425.1016" x2="425.1016" y1="248.5952" y2="253.1025"/><path d="M417.1016,240.5952 C423.1016,240.5952 425.1016,242.5952 425.1016,248.5952" fill="none" style="stroke:#FFFFFF;stroke-width:1.5;"/><line style="stroke:#FFFFFF;stroke-width:1.5;" x1="291.5605" x2="306.5605" y1="261.1025" y2="261.1025"/><line style="stroke:#FFFFFF;stroke-width:1.5;" x1="418.1016" x2="433.1016" y1="261.1025" y2="261.1025"/><rect fill="none" height="27.0146" style="stroke:#FFFFFF;stroke-width:1;stroke-dasharray:5,5;" width="111.541" x="306.5605" y="247.5952"/><text fill="#FFFFFF" font-family="Verdana" font-size="14" lengthAdjust="spacing" textLength="91.6973" x="316.4824" y="266.6704">Decimal digit</text><line style="stroke:#FFFFFF;stroke-width:1.5;" x1="35" x2="59" y1="225.5952" y2="225.5952"/><line style="stroke:#FFFFFF;stroke-width:1.5;" x1="457.1016" x2="481.1016" y1="225.5952" y2="225.5952"/><rect fill="none" height="27.0146" style="stroke:#FFFFFF;stroke-width:0.5;" width="18.9004" x="59" y="284.6099"/><text fill="#FFFFFF" font-family="Verdana" font-size="14" lengthAdjust="spacing" textLength="8.9004" x="64" y="303.6851">0</text><line style="stroke:#FFFFFF;stroke-width:1.5;" x1="77.9004" x2="457.1016" y1="298.1172" y2="298.1172"/><path d="M265.501,298.1172 L265.501,295.1172 L271.501,298.1172 L265.501,301.1172 L265.501,298.1172" fill="#FFFFFF"/><path d="M47,286.1172 C47,295.1172 50,298.1172 59,298.1172" fill="none" style="stroke:#FFFFFF;stroke-width:1.5;"/><line style="stroke:#FFFFFF;stroke-width:1.5;" x1="47" x2="47" y1="237.5952" y2="286.1172"/><path d="M35,225.5952 C44,225.5952 47,228.5952 47,237.5952" fill="none" style="stroke:#FFFFFF;stroke-width:1.5;"/><path d="M469.1016,286.1172 C469.1016,295.1172 466.1016,298.1172 457.1016,298.1172" fill="none" style="stroke:#FFFFFF;stroke-width:1.5;"/><line style="stroke:#FFFFFF;stroke-width:1.5;" x1="469.1016" x2="469.1016" y1="237.5952" y2="286.1172"/><path d="M469.1016,237.5952 C469.1016,228.5952 472.1016,225.5952 481.1016,225.5952" fill="none" style="stroke:#FFFFFF;stroke-width:1.5;"/><line style="stroke:#FFFFFF;stroke-width:1.5;" x1="481.1016" x2="501.1016" y1="225.5952" y2="225.5952"/><line style="stroke:#FFFFFF;stroke-width:1.5;" x1="501.1016" x2="569.5742" y1="225.5952" y2="225.5952"/><path d="M526.4906,225.5952 L526.4906,222.5952 L532.4906,225.5952 L526.4906,228.5952 L526.4906,225.5952" fill="#FFFFFF"/><path d="M501.1016,225.5952 C510.1016,225.5952 513.1016,228.3489 513.1016,237.3489 C513.1016,246.3489 516.1016,249.1025 525.1016,249.1025" fill="none" style="stroke:#FFFFFF;stroke-width:1.5;"/><path d="M545.5742,249.1025 C554.5742,249.1025 557.5742,246.3489 557.5742,237.3489 C557.5742,228.3489 560.5742,225.5952 569.5742,225.5952" fill="none" style="stroke:#FFFFFF;stroke-width:1.5;"/><rect fill="none" height="27.0146" style="stroke:#FFFFFF;stroke-width:0.5;" width="20.4727" x="525.1016" y="235.5952"/><text fill="#FFFFFF" font-family="Verdana" font-size="14" lengthAdjust="spacing" textLength="10.4727" x="530.1016" y="254.6704">N</text><ellipse cx="9" cy="225.5952" fill="none" rx="4" ry="4" style="stroke:#FFFFFF;stroke-width:2;"/><ellipse cx="599.5742" cy="225.5952" fill="#FFFFFF" rx="4" ry="4" style="stroke:#FFFFFF;stroke-width:1;"/><line style="stroke:#FFFFFF;stroke-width:1.5;" x1="13" x2="35" y1="225.5952" y2="225.5952"/><line style="stroke:#FFFFFF;stroke-width:1.5;" x1="569.5742" x2="595.5742" y1="225.5952" y2="225.5952"/><path d="M580.5742,225.5952 L580.5742,222.5952 L586.5742,225.5952 L580.5742,228.5952 L580.5742,225.5952" fill="#FFFFFF"/><text fill="#FFFFFF" font-family="Verdana" font-size="14" font-weight="bold" lengthAdjust="spacing" textLength="99.9893" x="5" y="340.6997">OctalInteger</text><line style="stroke:#FFFFFF;stroke-width:1.5;" x1="35" x2="35" y1="379.1465" y2="379.1465"/><rect fill="none" height="27.0146" style="stroke:#FFFFFF;stroke-width:0.5;" width="18.9004" x="35" y="365.6392"/><text fill="#FFFFFF" font-family="Verdana" font-size="14" lengthAdjust="spacing" textLength="8.9004" x="40" y="384.7144">0</text><line style="stroke:#FFFFFF;stroke-width:1.5;" x1="53.9004" x2="73.9004" y1="379.1465" y2="379.1465"/><path d="M81.9004,371.1465 C81.9004,377.1465 83.9004,379.1465 89.9004,379.1465" fill="none" style="stroke:#FFFFFF;stroke-width:1.5;"/><line style="stroke:#FFFFFF;stroke-width:1.5;" x1="81.9004" x2="81.9004" y1="366.6392" y2="371.1465"/><path d="M81.9004,366.6392 C81.9004,360.6392 83.9004,358.6392 89.9004,358.6392" fill="none" style="stroke:#FFFFFF;stroke-width:1.5;"/><line style="stroke:#FFFFFF;stroke-width:1.5;" x1="88.9004" x2="167.6904" y1="358.6392" y2="358.6392"/><path d="M134.1744,358.6392 L134.1744,355.6392 L128.1744,358.6392 L134.1744,361.6392 L134.1744,358.6392" fill="#FFFFFF"/><path d="M174.6904,371.1465 C174.6904,377.1465 172.6904,379.1465 166.6904,379.1465" fill="none" style="stroke:#FFFFFF;stroke-width:1.5;"/><line style="stroke:#FFFFFF;stroke-width:1.5;" x1="174.6904" x2="174.6904" y1="366.6392" y2="371.1465"/><path d="M166.6904,358.6392 C172.6904,358.6392 174.6904,360.6392 174.6904,366.6392" fill="none" style="stroke:#FFFFFF;stroke-width:1.5;"/><line style="stroke:#FFFFFF;stroke-width:1.5;" x1="73.9004" x2="88.9004" y1="379.1465" y2="379.1465"/><line style="stroke:#FFFFFF;stroke-width:1.5;" x1="167.6904" x2="182.6904" y1="379.1465" y2="379.1465"/><rect fill="#0B58A8" height="27.0146" rx="5" ry="5" style="stroke:#FFFFFF;stroke-width:1.5;" width="78.79" x="88.9004" y="365.6392"/><text fill="#FFFFFF" font-family="Verdana" font-size="14" lengthAdjust="spacing" textLength="68.79" x="93.9004" y="384.7144">OctalDigit</text><ellipse cx="9" cy="379.1465" fill="none" rx="4" ry="4" style="stroke:#FFFFFF;stroke-width:2;"/><ellipse cx="212.6904" cy="379.1465" fill="#FFFFFF" rx="4" ry="4" style="stroke:#FFFFFF;stroke-width:1;"/><line style="stroke:#FFFFFF;stroke-width:1.5;" x1="13" x2="35" y1="379.1465" y2="379.1465"/><line style="stroke:#FFFFFF;stroke-width:1.5;" x1="182.6904" x2="208.6904" y1="379.1465" y2="379.1465"/><path d="M193.6904,379.1465 L193.6904,376.1465 L199.6904,379.1465 L193.6904,382.1465 L193.6904,379.1465" fill="#FFFFFF"/><text fill="#FFFFFF" font-family="Verdana" font-size="14" font-weight="bold" lengthAdjust="spacing" textLength="160.1318" x="5" y="421.729">HexadecimalInteger</text><line style="stroke:#FFFFFF;stroke-width:1.5;" x1="35" x2="35" y1="460.1758" y2="460.1758"/><rect fill="none" height="27.0146" style="stroke:#FFFFFF;stroke-width:0.5;" width="27.1855" x="35" y="446.6685"/><text fill="#FFFFFF" font-family="Verdana" font-size="14" lengthAdjust="spacing" textLength="17.1855" x="40" y="465.7437">0x</text><line style="stroke:#FFFFFF;stroke-width:1.5;" x1="62.1855" x2="82.1855" y1="460.1758" y2="460.1758"/><path d="M90.1855,452.1758 C90.1855,458.1758 92.1855,460.1758 98.1855,460.1758" fill="none" style="stroke:#FFFFFF;stroke-width:1.5;"/><line style="stroke:#FFFFFF;stroke-width:1.5;" x1="90.1855" x2="90.1855" y1="447.6685" y2="452.1758"/><path d="M90.1855,447.6685 C90.1855,441.6685 92.1855,439.6685 98.1855,439.6685" fill="none" style="stroke:#FFFFFF;stroke-width:1.5;"/><line style="stroke:#FFFFFF;stroke-width:1.5;" x1="97.1855" x2="167.041" y1="439.6685" y2="439.6685"/><path d="M137.0988,439.6685 L137.0988,436.6685 L131.0988,439.6685 L137.0988,442.6685 L137.0988,439.6685" fill="#FFFFFF"/><path d="M174.041,452.1758 C174.041,458.1758 172.041,460.1758 166.041,460.1758" fill="none" style="stroke:#FFFFFF;stroke-width:1.5;"/><line style="stroke:#FFFFFF;stroke-width:1.5;" x1="174.041" x2="174.041" y1="447.6685" y2="452.1758"/><path d="M166.041,439.6685 C172.041,439.6685 174.041,441.6685 174.041,447.6685" fill="none" style="stroke:#FFFFFF;stroke-width:1.5;"/><line style="stroke:#FFFFFF;stroke-width:1.5;" x1="82.1855" x2="97.1855" y1="460.1758" y2="460.1758"/><line style="stroke:#FFFFFF;stroke-width:1.5;" x1="167.041" x2="182.041" y1="460.1758" y2="460.1758"/><rect fill="#0B58A8" height="27.0146" rx="5" ry="5" style="stroke:#FFFFFF;stroke-width:1.5;" width="69.8555" x="97.1855" y="446.6685"/><text fill="#FFFFFF" font-family="Verdana" font-size="14" lengthAdjust="spacing" textLength="59.8555" x="102.1855" y="465.7437">HexDigit</text><line style="stroke:#FFFFFF;stroke-width:1.5;" x1="182.041" x2="202.041" y1="460.1758" y2="460.1758"/><line style="stroke:#FFFFFF;stroke-width:1.5;" x1="202.041" x2="270.5137" y1="460.1758" y2="460.1758"/><path d="M227.4301,460.1758 L227.4301,457.1758 L233.4301,460.1758 L227.4301,463.1758 L227.4301,460.1758" fill="#FFFFFF"/><path d="M202.041,460.1758 C211.041,460.1758 214.041,462.9294 214.041,471.9294 C214.041,480.9294 217.041,483.6831 226.041,483.6831" fill="none" style="stroke:#FFFFFF;stroke-width:1.5;"/><path d="M246.5137,483.6831 C255.5137,483.6831 258.5137,480.9294 258.5137,471.9294 C258.5137,462.9294 261.5137,460.1758 270.5137,460.1758" fill="none" style="stroke:#FFFFFF;stroke-width:1.5;"/><rect fill="none" height="27.0146" style="stroke:#FFFFFF;stroke-width:0.5;" width="20.4727" x="226.041" y="470.1758"/><text fill="#FFFFFF" font-family="Verdana" font-size="14" lengthAdjust="spacing" textLength="10.4727" x="231.041" y="489.251">N</text><ellipse cx="9" cy="460.1758" fill="none" rx="4" ry="4" style="stroke:#FFFFFF;stroke-width:2;"/><ellipse cx="300.5137" cy="460.1758" fill="#FFFFFF" rx="4" ry="4" style="stroke:#FFFFFF;stroke-width:1;"/><line style="stroke:#FFFFFF;stroke-width:1.5;" x1="13" x2="35" y1="460.1758" y2="460.1758"/><line style="stroke:#FFFFFF;stroke-width:1.5;" x1="270.5137" x2="296.5137" y1="460.1758" y2="460.1758"/><path d="M281.5137,460.1758 L281.5137,457.1758 L287.5137,460.1758 L281.5137,463.1758 L281.5137,460.1758" fill="#FFFFFF"/><text fill="#FFFFFF" font-family="Verdana" font-size="14" font-weight="bold" lengthAdjust="spacing" textLength="103.5781" x="5" y="526.2656">RadixInteger</text><line style="stroke:#FFFFFF;stroke-width:1.5;" x1="35" x2="35" y1="564.7124" y2="564.7124"/><rect fill="#0B58A8" height="27.0146" rx="5" ry="5" style="stroke:#FFFFFF;stroke-width:1.5;" width="48.9922" x="35" y="551.2051"/><text fill="#FFFFFF" font-family="Verdana" font-size="14" lengthAdjust="spacing" textLength="38.9922" x="40" y="570.2803">Radix</text><line style="stroke:#FFFFFF;stroke-width:1.5;" x1="83.9922" x2="103.9922" y1="564.7124" y2="564.7124"/><rect fill="none" height="27.0146" style="stroke:#FFFFFF;stroke-width:0.5;" width="15.9746" x="103.9922" y="551.2051"/><text fill="#FFFFFF" font-family="Verdana" font-size="14" lengthAdjust="spacing" textLength="5.9746" x="108.9922" y="570.2803">r</text><line style="stroke:#FFFFFF;stroke-width:1.5;" x1="119.9668" x2="139.9668" y1="564.7124" y2="564.7124"/><path d="M147.9668,556.7124 C147.9668,562.7124 149.9668,564.7124 155.9668,564.7124" fill="none" style="stroke:#FFFFFF;stroke-width:1.5;"/><line style="stroke:#FFFFFF;stroke-width:1.5;" x1="147.9668" x2="147.9668" y1="552.2051" y2="556.7124"/><path d="M147.9668,552.2051 C147.9668,546.2051 149.9668,544.2051 155.9668,544.2051" fill="none" style="stroke:#FFFFFF;stroke-width:1.5;"/><line style="stroke:#FFFFFF;stroke-width:1.5;" x1="154.9668" x2="236.6689" y1="544.2051" y2="544.2051"/><path d="M201.9881,544.2051 L201.9881,541.2051 L195.9881,544.2051 L201.9881,547.2051 L201.9881,544.2051" fill="#FFFFFF"/><path d="M243.6689,556.7124 C243.6689,562.7124 241.6689,564.7124 235.6689,564.7124" fill="none" style="stroke:#FFFFFF;stroke-width:1.5;"/><line style="stroke:#FFFFFF;stroke-width:1.5;" x1="243.6689" x2="243.6689" y1="552.2051" y2="556.7124"/><path d="M235.6689,544.2051 C241.6689,544.2051 243.6689,546.2051 243.6689,552.2051" fill="none" style="stroke:#FFFFFF;stroke-width:1.5;"/><line style="stroke:#FFFFFF;stroke-width:1.5;" x1="139.9668" x2="154.9668" y1="564.7124" y2="564.7124"/><line style="stroke:#FFFFFF;stroke-width:1.5;" x1="236.6689" x2="251.6689" y1="564.7124" y2="564.7124"/><rect fill="#0B58A8" height="27.0146" rx="5" ry="5" style="stroke:#FFFFFF;stroke-width:1.5;" width="81.7021" x="154.9668" y="551.2051"/><text fill="#FFFFFF" font-family="Verdana" font-size="14" lengthAdjust="spacing" textLength="71.7021" x="159.9668" y="570.2803">RadixDigit</text><ellipse cx="9" cy="564.7124" fill="none" rx="4" ry="4" style="stroke:#FFFFFF;stroke-width:2;"/><ellipse cx="281.6689" cy="564.7124" fill="#FFFFFF" rx="4" ry="4" style="stroke:#FFFFFF;stroke-width:1;"/><line style="stroke:#FFFFFF;stroke-width:1.5;" x1="13" x2="35" y1="564.7124" y2="564.7124"/><line style="stroke:#FFFFFF;stroke-width:1.5;" x1="251.6689" x2="277.6689" y1="564.7124" y2="564.7124"/><path d="M262.6689,564.7124 L262.6689,561.7124 L268.6689,564.7124 L262.6689,567.7124 L262.6689,564.7124" fill="#FFFFFF"/><text fill="#FFFFFF" font-family="Verdana" font-size="14" font-weight="bold" lengthAdjust="spacing" textLength="44.2422" x="5" y="607.2949">Radix</text><line style="stroke:#FFFFFF;stroke-width:1.5;" x1="59" x2="59" y1="633.7417" y2="633.7417"/><rect fill="none" height="27.0146" style="stroke:#FFFFFF;stroke-width:1;stroke-dasharray:5,5;" width="111.541" x="59" y="620.2344"/><text fill="#FFFFFF" font-family="Verdana" font-size="14" lengthAdjust="spacing" textLength="91.6973" x="68.9219" y="639.3096">Decimal digit</text><line style="stroke:#FFFFFF;stroke-width:1.5;" x1="170.541" x2="190.541" y1="633.7417" y2="633.7417"/><text fill="#FFFFFF" font-family="Verdana" font-size="14" lengthAdjust="spacing" textLength="30.1191" x="193.541" y="637.6812">NOT</text><rect fill="none" height="27.0146" style="stroke:#FFFFFF;stroke-width:0.5;" width="18.9004" x="252.6602" y="620.2344"/><text fill="#FFFFFF" font-family="Verdana" font-size="14" lengthAdjust="spacing" textLength="8.9004" x="257.6602" y="639.3096">0</text><line style="stroke:#FFFFFF;stroke-width:1.5;" x1="228.6602" x2="252.6602" y1="633.7417" y2="633.7417"/><line style="stroke:#FFFFFF;stroke-width:1.5;" x1="271.5605" x2="295.5605" y1="633.7417" y2="633.7417"/><rect fill="none" height="27.0146" style="stroke:#FFFFFF;stroke-width:0.5;" width="18.9004" x="252.6602" y="657.249"/><text fill="#FFFFFF" font-family="Verdana" font-size="14" lengthAdjust="spacing" textLength="8.9004" x="257.6602" y="676.3242">1</text><line style="stroke:#FFFFFF;stroke-width:1.5;" x1="271.5605" x2="271.5605" y1="670.7563" y2="670.7563"/><path d="M240.6602,658.7563 C240.6602,667.7563 243.6602,670.7563 252.6602,670.7563" fill="none" style="stroke:#FFFFFF;stroke-width:1.5;"/><line style="stroke:#FFFFFF;stroke-width:1.5;" x1="240.6602" x2="240.6602" y1="645.7417" y2="658.7563"/><path d="M228.6602,633.7417 C237.6602,633.7417 240.6602,636.7417 240.6602,645.7417" fill="none" style="stroke:#FFFFFF;stroke-width:1.5;"/><path d="M283.5605,658.7563 C283.5605,667.7563 280.5605,670.7563 271.5605,670.7563" fill="none" style="stroke:#FFFFFF;stroke-width:1.5;"/><line style="stroke:#FFFFFF;stroke-width:1.5;" x1="283.5605" x2="283.5605" y1="645.7417" y2="658.7563"/><path d="M283.5605,645.7417 C283.5605,636.7417 286.5605,633.7417 295.5605,633.7417" fill="none" style="stroke:#FFFFFF;stroke-width:1.5;"/><line style="stroke:#FFFFFF;stroke-width:1.5;" x1="35" x2="59" y1="633.7417" y2="633.7417"/><line style="stroke:#FFFFFF;stroke-width:1.5;" x1="295.5605" x2="319.5605" y1="633.7417" y2="633.7417"/><line style="stroke:#FFFFFF;stroke-width:1.5;" x1="59" x2="59" y1="707.771" y2="707.771"/><rect fill="none" height="27.0146" style="stroke:#FFFFFF;stroke-width:0.5;" width="18.9004" x="59" y="694.2637"/><text fill="#FFFFFF" font-family="Verdana" font-size="14" lengthAdjust="spacing" textLength="8.9004" x="64" y="713.3389">2</text><line style="stroke:#FFFFFF;stroke-width:1.5;" x1="77.9004" x2="97.9004" y1="707.771" y2="707.771"/><rect fill="none" height="27.0146" style="stroke:#FFFFFF;stroke-width:1;stroke-dasharray:5,5;" width="111.541" x="97.9004" y="694.2637"/><text fill="#FFFFFF" font-family="Verdana" font-size="14" lengthAdjust="spacing" textLength="91.6973" x="107.8223" y="713.3389">Decimal digit</text><path d="M47,695.771 C47,704.771 50,707.771 59,707.771" fill="none" style="stroke:#FFFFFF;stroke-width:1.5;"/><line style="stroke:#FFFFFF;stroke-width:1.5;" x1="209.4414" x2="295.5605" y1="707.771" y2="707.771"/><path d="M250.501,707.771 L250.501,704.771 L256.501,707.771 L250.501,710.771 L250.501,707.771" fill="#FFFFFF"/><path d="M307.5605,695.771 C307.5605,704.771 304.5605,707.771 295.5605,707.771" fill="none" style="stroke:#FFFFFF;stroke-width:1.5;"/><line style="stroke:#FFFFFF;stroke-width:1.5;" x1="59" x2="59" y1="744.7856" y2="744.7856"/><rect fill="none" height="27.0146" style="stroke:#FFFFFF;stroke-width:0.5;" width="18.9004" x="59" y="731.2783"/><text fill="#FFFFFF" font-family="Verdana" font-size="14" lengthAdjust="spacing" textLength="8.9004" x="64" y="750.3535">3</text><line style="stroke:#FFFFFF;stroke-width:1.5;" x1="77.9004" x2="97.9004" y1="744.7856" y2="744.7856"/><rect fill="#0B58A8" height="27.0146" rx="5" ry="5" style="stroke:#FFFFFF;stroke-width:1.5;" width="81.2236" x="97.9004" y="731.2783"/><text fill="#FFFFFF" font-family="Verdana" font-size="14" lengthAdjust="spacing" textLength="71.2236" x="102.9004" y="750.3535">ZeroToSix</text><line style="stroke:#FFFFFF;stroke-width:1.5;" x1="179.124" x2="295.5605" y1="744.7856" y2="744.7856"/><path d="M235.3423,744.7856 L235.3423,741.7856 L241.3423,744.7856 L235.3423,747.7856 L235.3423,744.7856" fill="#FFFFFF"/><path d="M47,732.7856 C47,741.7856 50,744.7856 59,744.7856" fill="none" style="stroke:#FFFFFF;stroke-width:1.5;"/><line style="stroke:#FFFFFF;stroke-width:1.5;" x1="47" x2="47" y1="645.7417" y2="732.7856"/><path d="M35,633.7417 C44,633.7417 47,636.7417 47,645.7417" fill="none" style="stroke:#FFFFFF;stroke-width:1.5;"/><path d="M307.5605,732.7856 C307.5605,741.7856 304.5605,744.7856 295.5605,744.7856" fill="none" style="stroke:#FFFFFF;stroke-width:1.5;"/><line style="stroke:#FFFFFF;stroke-width:1.5;" x1="307.5605" x2="307.5605" y1="645.7417" y2="732.7856"/><path d="M307.5605,645.7417 C307.5605,636.7417 310.5605,633.7417 319.5605,633.7417" fill="none" style="stroke:#FFFFFF;stroke-width:1.5;"/><ellipse cx="9" cy="633.7417" fill="none" rx="4" ry="4" style="stroke:#FFFFFF;stroke-width:2;"/><ellipse cx="349.5605" cy="633.7417" fill="#FFFFFF" rx="4" ry="4" style="stroke:#FFFFFF;stroke-width:1;"/><line style="stroke:#FFFFFF;stroke-width:1.5;" x1="13" x2="35" y1="633.7417" y2="633.7417"/><line style="stroke:#FFFFFF;stroke-width:1.5;" x1="319.5605" x2="345.5605" y1="633.7417" y2="633.7417"/><path d="M330.5605,633.7417 L330.5605,630.7417 L336.5605,633.7417 L330.5605,636.7417 L330.5605,633.7417" fill="#FFFFFF"/><text fill="#FFFFFF" font-family="Verdana" font-size="14" font-weight="bold" lengthAdjust="spacing" textLength="81.6006" x="5" y="787.3682">RadixDigit</text><rect fill="none" height="27.0146" style="stroke:#FFFFFF;stroke-width:1;stroke-dasharray:5,5;" width="111.6709" x="35" y="800.3076"/><text fill="#FFFFFF" font-family="Verdana" font-size="14" lengthAdjust="spacing" textLength="91.8271" x="44.9219" y="819.3828">0-9, a-z, A-Z</text><ellipse cx="9" cy="813.8149" fill="none" rx="4" ry="4" style="stroke:#FFFFFF;stroke-width:2;"/><ellipse cx="176.6709" cy="813.8149" fill="#FFFFFF" rx="4" ry="4" style="stroke:#FFFFFF;stroke-width:1;"/><line style="stroke:#FFFFFF;stroke-width:1.5;" x1="13" x2="35" y1="813.8149" y2="813.8149"/><line style="stroke:#FFFFFF;stroke-width:1.5;" x1="146.6709" x2="172.6709" y1="813.8149" y2="813.8149"/><path d="M157.6709,813.8149 L157.6709,810.8149 L163.6709,813.8149 L157.6709,816.8149 L157.6709,813.8149" fill="#FFFFFF"/><text fill="#FFFFFF" font-family="Verdana" font-size="14" font-weight="bold" lengthAdjust="spacing" textLength="78.8047" x="5" y="856.3975">ZeroToSix</text><rect fill="none" height="27.0146" style="stroke:#FFFFFF;stroke-width:1;stroke-dasharray:5,5;" width="44.002" x="35" y="869.3369"/><text fill="#FFFFFF" font-family="Verdana" font-size="14" lengthAdjust="spacing" textLength="24.1582" x="44.9219" y="888.4121">0-6</text><ellipse cx="9" cy="882.8442" fill="none" rx="4" ry="4" style="stroke:#FFFFFF;stroke-width:2;"/><ellipse cx="109.002" cy="882.8442" fill="#FFFFFF" rx="4" ry="4" style="stroke:#FFFFFF;stroke-width:1;"/><line style="stroke:#FFFFFF;stroke-width:1.5;" x1="13" x2="35" y1="882.8442" y2="882.8442"/><line style="stroke:#FFFFFF;stroke-width:1.5;" x1="79.002" x2="105.002" y1="882.8442" y2="882.8442"/><path d="M90.002,882.8442 L90.002,879.8442 L96.002,882.8442 L90.002,885.8442 L90.002,882.8442" fill="#FFFFFF"/><!--SRC=[xLTjSzf64FwkNx4bNs1gKi0XOvEuDIzsRHTi9iBkJ3hzS4WBN15tz7GYa9Z_dhqJ0cIWVgFVeXcOkTrddzktsvDEGysKngxeEJ_f0OuGs8ZtcNCfDFPHmGdy1Pby1kuXytC6_eO3oCADfrcm03Ymyxc72vmo7pq-UXhy4_Fvz2d0HeeJSl31SHx8JiZFBFoMGC7dVQvfdOTC8KDHVDkYcnFJlTNd245nNvk8YNizO69E6AouOOtdUOFRZDUYfp6Sj4jmYduzRZAmIq9aL6ndr-lRn82J7V5bhNyKHz74aNEIf96yP0WtRLAOGuFvZ4fsf4kxv9ORnXwS4BwGFpu0blzw0DNyPrf_S5RuMF_UIazH-BQpdDDLbyNFnr3F0loLDbPIQlXcFQWnRzXNCX9-NGPImPj2hNnKFRAwSodqGdfkdwNqcb7Jtg7ocM1MU34ResfoCKpmZUfXgMnL9CLD5YFj3BWt51Y6KBIo5bDzBi2OpUddIoyQeKWyzTXOSoaMguSC1IkTs_yUXKTLVHmuG6gTfm0rrm4kSIO3Bl-AK2ezOcb-9hlZY_MTDdB-8BlRA-6Qwa5N1lw2M4W_yQd5fdmKZVxalXx0OQ6mG2ZieKBXuV-nVOXZffYMUwNz-CkYIPrmo8NPO0HLfUINfWm2FfRZDFSAjAkFLuW6zbWKw8tstK2qf93Xc7deBx5r6IbE0tA5RV8U1bHrLrCEi3-ZQeGouFuQf4t7Ztjyp8HkCz_deW_5mfhUnNyZKnn3PHge9XKLQLU0xe3vyeiXwR4Wn3NDROWrr2pEf5OHffBdQJxXUcQBjFkmrvXwMBLjxcoV2HifdQyNncp7LEp0fdKQEhMe95lbbBREbHUWNn_GoalEzxR6sgWQs74UXN2S9WmO7TP7yhAV9DYjgbehteqqxaZ5KpXS2XobfcdxCfBprMXyjktQ47c-hRaVwBmChNdwabZ7NNfIjAaQh8yfvB8fTrHgWqFn2TElvQ1SKQVvhsE9kW7tNannBL_QBpVTVyZxkB-tTF4yDQbM6TzJnxiwIV_p3bUQ8sdswdQc_vnLsvdgUsCwsnlJvTwOhb_9H5T9dOKO4tQUEML-VBxy-7pPt-TBEw3tfjjM4oQeGlFUNtnRAfJARzzbNQRXAX9GEeBYOQLmN2cLeNxcTi3eSqxsztOJGhhwFIHtm_ZE9OASSyKc33v5GlCHLk1cZEAgyKSYW3CnuKeAyyNXNDsrLe3tx_8r2iD5HQx0NSjPl2UIXIVDYqe5RZld-IEdoKG_eZbQ0HGElNm8hMQaSxy3]--></g></svg>