<svg xmlns="http://www.w3.org/2000/svg" xmlns:xlink="http://www.w3.org/1999/xlink" contentStyleType="text/css" data-diagram-type="EBNF" height="1085px" preserveAspectRatio="none" style="width:452px;height:1085px;background:#0B58A8;" version="1.1" viewBox="0 0 452 1085" width="452px" zoomAndPan="magnify"><defs/><g><rect fill="#0B58A8" height="1085" style="stroke:none;stroke-width:1;" width="452" x="0" y="0"/><text fill="#FFFFFF" font-family="Verdana" font-size="14" font-weight="bold" lengthAdjust="spacing" textLength="93.4336" x="5" y="19.0752">EdnElement</text><rect fill="#0B58A8" height="27.0146" rx="5" ry="5" style="stroke:#FFFFFF;stroke-width:1.5;" width="78.5508" x="177.9346" y="32.0146"/><text fill="#FFFFFF" font-family="Verdana" font-size="14" lengthAdjust="spacing" textLength="68.5508" x="182.9346" y="51.0898">Character</text><path d="M59,79.0293 L59,104.8286 A0,0 0 0 0 59,104.8286 L375.4199,104.8286 A0,0 0 0 0 375.4199,104.8286 L375.4199,89.0293 L365.4199,79.0293 L221.21,79.0293 L217.21,59.0293 L213.21,79.0293 L59,79.0293 A0,0 0 0 0 59,79.0293" fill="#0B58A8" style="stroke:#FFFFFF;stroke-width:1;"/><path d="M365.4199,79.0293 L365.4199,89.0293 L375.4199,89.0293 L365.4199,79.0293" fill="#0B58A8" style="stroke:#FFFFFF;stroke-width:1;"/><text fill="#FFFFFF" font-family="Verdana" font-size="13" lengthAdjust="spacing" textLength="286.2793" x="69.5703" y="97.0991">Additional named characters and octal form</text><line style="stroke:#FFFFFF;stroke-width:1.5;" x1="59" x2="177.9346" y1="45.522" y2="45.522"/><path d="M116.4673,45.522 L116.4673,42.522 L122.4673,45.522 L116.4673,48.522 L116.4673,45.522" fill="#FFFFFF"/><line style="stroke:#FFFFFF;stroke-width:1.5;" x1="256.4854" x2="375.4199" y1="45.522" y2="45.522"/><path d="M313.9526,45.522 L313.9526,42.522 L319.9526,45.522 L313.9526,48.522 L313.9526,45.522" fill="#FFFFFF"/><line style="stroke:#FFFFFF;stroke-width:1.5;" x1="35" x2="59" y1="45.522" y2="45.522"/><line style="stroke:#FFFFFF;stroke-width:1.5;" x1="375.4199" x2="412.8071" y1="45.522" y2="45.522"/><rect fill="#0B58A8" height="27.0146" rx="5" ry="5" style="stroke:#FFFFFF;stroke-width:1.5;" width="52.4854" x="155.8171" y="114.8286"/><text fill="#FFFFFF" font-family="Verdana" font-size="14" lengthAdjust="spacing" textLength="42.4854" x="160.8171" y="133.9038">String</text><path d="M59,161.8433 L59,187.6426 A0,0 0 0 0 59,187.6426 L305.1196,187.6426 A0,0 0 0 0 305.1196,187.6426 L305.1196,171.8433 L295.1196,161.8433 L186.0598,161.8433 L182.0598,141.8433 L178.0598,161.8433 L59,161.8433 A0,0 0 0 0 59,161.8433" fill="#0B58A8" style="stroke:#FFFFFF;stroke-width:1;"/><path d="M295.1196,161.8433 L295.1196,171.8433 L305.1196,171.8433 L295.1196,161.8433" fill="#0B58A8" style="stroke:#FFFFFF;stroke-width:1;"/><text fill="#FFFFFF" font-family="Verdana" font-size="13" lengthAdjust="spacing" textLength="215.979" x="69.5703" y="179.9131">Additional octal escape sequence</text><line style="stroke:#FFFFFF;stroke-width:1.5;" x1="59" x2="155.8171" y1="128.3359" y2="128.3359"/><path d="M105.4086,128.3359 L105.4086,125.3359 L111.4086,128.3359 L105.4086,131.3359 L105.4086,128.3359" fill="#FFFFFF"/><line style="stroke:#FFFFFF;stroke-width:1.5;" x1="208.3025" x2="305.1196" y1="128.3359" y2="128.3359"/><path d="M254.7111,128.3359 L254.7111,125.3359 L260.7111,128.3359 L254.7111,131.3359 L254.7111,128.3359" fill="#FFFFFF"/><path d="M47,116.3359 C47,125.3359 50,128.3359 59,128.3359" fill="none" style="stroke:#FFFFFF;stroke-width:1.5;"/><line style="stroke:#FFFFFF;stroke-width:1.5;" x1="305.1196" x2="388.8071" y1="128.3359" y2="128.3359"/><path d="M344.9634,128.3359 L344.9634,125.3359 L350.9634,128.3359 L344.9634,131.3359 L344.9634,128.3359" fill="#FFFFFF"/><path d="M400.8071,116.3359 C400.8071,125.3359 397.8071,128.3359 388.8071,128.3359" fill="none" style="stroke:#FFFFFF;stroke-width:1.5;"/><rect fill="#0B58A8" height="27.0146" rx="5" ry="5" style="stroke:#FFFFFF;stroke-width:1.5;" width="44.3096" x="59" y="197.6426"/><text fill="#FFFFFF" font-family="Verdana" font-size="14" lengthAdjust="spacing" textLength="34.3096" x="64" y="216.7178">Float</text><path d="M47,199.1499 C47,208.1499 50,211.1499 59,211.1499" fill="none" style="stroke:#FFFFFF;stroke-width:1.5;"/><line style="stroke:#FFFFFF;stroke-width:1.5;" x1="103.3096" x2="388.8071" y1="211.1499" y2="211.1499"/><path d="M244.0583,211.1499 L244.0583,208.1499 L250.0583,211.1499 L244.0583,214.1499 L244.0583,211.1499" fill="#FFFFFF"/><path d="M400.8071,199.1499 C400.8071,208.1499 397.8071,211.1499 388.8071,211.1499" fill="none" style="stroke:#FFFFFF;stroke-width:1.5;"/><rect fill="#0B58A8" height="27.0146" rx="5" ry="5" style="stroke:#FFFFFF;stroke-width:1.5;" width="45.998" x="98.2249" y="234.6572"/><text fill="#FFFFFF" font-family="Verdana" font-size="14" lengthAdjust="spacing" textLength="35.998" x="103.2249" y="253.7324">Ratio</text><path d="M59,281.6719 L59,307.4712 A0,0 0 0 0 59,307.4712 L183.4478,307.4712 A0,0 0 0 0 183.4478,307.4712 L183.4478,291.6719 L173.4478,281.6719 L125.2239,281.6719 L121.2239,261.6719 L117.2239,281.6719 L59,281.6719 A0,0 0 0 0 59,281.6719" fill="#0B58A8" style="stroke:#FFFFFF;stroke-width:1;"/><path d="M173.4478,281.6719 L173.4478,291.6719 L183.4478,291.6719 L173.4478,281.6719" fill="#0B58A8" style="stroke:#FFFFFF;stroke-width:1;"/><text fill="#FFFFFF" font-family="Verdana" font-size="13" lengthAdjust="spacing" textLength="94.3071" x="69.5703" y="299.7417">Rational ratios</text><line style="stroke:#FFFFFF;stroke-width:1.5;" x1="59" x2="98.2249" y1="248.1646" y2="248.1646"/><path d="M76.6124,248.1646 L76.6124,245.1646 L82.6124,248.1646 L76.6124,251.1646 L76.6124,248.1646" fill="#FFFFFF"/><line style="stroke:#FFFFFF;stroke-width:1.5;" x1="144.2229" x2="183.4478" y1="248.1646" y2="248.1646"/><path d="M161.8353,248.1646 L161.8353,245.1646 L167.8353,248.1646 L161.8353,251.1646 L161.8353,248.1646" fill="#FFFFFF"/><path d="M47,236.1646 C47,245.1646 50,248.1646 59,248.1646" fill="none" style="stroke:#FFFFFF;stroke-width:1.5;"/><line style="stroke:#FFFFFF;stroke-width:1.5;" x1="183.4478" x2="388.8071" y1="248.1646" y2="248.1646"/><path d="M284.1274,248.1646 L284.1274,245.1646 L290.1274,248.1646 L284.1274,251.1646 L284.1274,248.1646" fill="#FFFFFF"/><path d="M400.8071,236.1646 C400.8071,245.1646 397.8071,248.1646 388.8071,248.1646" fill="none" style="stroke:#FFFFFF;stroke-width:1.5;"/><rect fill="#0B58A8" height="27.0146" rx="5" ry="5" style="stroke:#FFFFFF;stroke-width:1.5;" width="61.6455" x="193.0808" y="317.4712"/><text fill="#FFFFFF" font-family="Verdana" font-size="14" lengthAdjust="spacing" textLength="51.6455" x="198.0808" y="336.5464">Integer</text><path d="M59,364.4858 L59,390.2852 A0,0 0 0 0 59,390.2852 L388.8071,390.2852 A0,0 0 0 0 388.8071,390.2852 L388.8071,374.4858 L378.8071,364.4858 L227.9036,364.4858 L223.9036,344.4858 L219.9036,364.4858 L59,364.4858 A0,0 0 0 0 59,364.4858" fill="#0B58A8" style="stroke:#FFFFFF;stroke-width:1;"/><path d="M378.8071,364.4858 L378.8071,374.4858 L388.8071,374.4858 L378.8071,364.4858" fill="#0B58A8" style="stroke:#FFFFFF;stroke-width:1;"/><text fill="#FFFFFF" font-family="Verdana" font-size="13" lengthAdjust="spacing" textLength="299.6665" x="69.5703" y="382.5557">Additional integer forms and minor deviations</text><line style="stroke:#FFFFFF;stroke-width:1.5;" x1="59" x2="193.0808" y1="330.9785" y2="330.9785"/><path d="M124.0404,330.9785 L124.0404,327.9785 L130.0404,330.9785 L124.0404,333.9785 L124.0404,330.9785" fill="#FFFFFF"/><line style="stroke:#FFFFFF;stroke-width:1.5;" x1="254.7263" x2="388.8071" y1="330.9785" y2="330.9785"/><path d="M319.7667,330.9785 L319.7667,327.9785 L325.7667,330.9785 L319.7667,333.9785 L319.7667,330.9785" fill="#FFFFFF"/><path d="M47,318.9785 C47,327.9785 50,330.9785 59,330.9785" fill="none" style="stroke:#FFFFFF;stroke-width:1.5;"/><line style="stroke:#FFFFFF;stroke-width:1.5;" x1="388.8071" x2="388.8071" y1="330.9785" y2="330.9785"/><path d="M400.8071,318.9785 C400.8071,327.9785 397.8071,330.9785 388.8071,330.9785" fill="none" style="stroke:#FFFFFF;stroke-width:1.5;"/><rect fill="#0B58A8" height="27.0146" rx="5" ry="5" style="stroke:#FFFFFF;stroke-width:1.5;" width="34.4453" x="59" y="400.2852"/><text fill="#FFFFFF" font-family="Verdana" font-size="14" lengthAdjust="spacing" textLength="24.4453" x="64" y="419.3604">List</text><path d="M47,401.7925 C47,410.7925 50,413.7925 59,413.7925" fill="none" style="stroke:#FFFFFF;stroke-width:1.5;"/><line style="stroke:#FFFFFF;stroke-width:1.5;" x1="93.4453" x2="388.8071" y1="413.7925" y2="413.7925"/><path d="M239.1262,413.7925 L239.1262,410.7925 L245.1262,413.7925 L239.1262,416.7925 L239.1262,413.7925" fill="#FFFFFF"/><path d="M400.8071,401.7925 C400.8071,410.7925 397.8071,413.7925 388.8071,413.7925" fill="none" style="stroke:#FFFFFF;stroke-width:1.5;"/><rect fill="#0B58A8" height="27.0146" rx="5" ry="5" style="stroke:#FFFFFF;stroke-width:1.5;" width="55.1924" x="59" y="437.2998"/><text fill="#FFFFFF" font-family="Verdana" font-size="14" lengthAdjust="spacing" textLength="45.1924" x="64" y="456.375">Vector</text><path d="M47,438.8071 C47,447.8071 50,450.8071 59,450.8071" fill="none" style="stroke:#FFFFFF;stroke-width:1.5;"/><line style="stroke:#FFFFFF;stroke-width:1.5;" x1="114.1924" x2="388.8071" y1="450.8071" y2="450.8071"/><path d="M249.4998,450.8071 L249.4998,447.8071 L255.4998,450.8071 L249.4998,453.8071 L249.4998,450.8071" fill="#FFFFFF"/><path d="M400.8071,438.8071 C400.8071,447.8071 397.8071,450.8071 388.8071,450.8071" fill="none" style="stroke:#FFFFFF;stroke-width:1.5;"/><rect fill="#0B58A8" height="27.0146" rx="5" ry="5" style="stroke:#FFFFFF;stroke-width:1.5;" width="38.9297" x="185.3481" y="474.3145"/><text fill="#FFFFFF" font-family="Verdana" font-size="14" lengthAdjust="spacing" textLength="28.9297" x="190.3481" y="493.3896">Map</text><path d="M59,521.3291 L59,547.1284 A0,0 0 0 0 59,547.1284 L350.626,547.1284 A0,0 0 0 0 350.626,547.1284 L350.626,531.3291 L340.626,521.3291 L208.813,521.3291 L204.813,501.3291 L200.813,521.3291 L59,521.3291 A0,0 0 0 0 59,521.3291" fill="#0B58A8" style="stroke:#FFFFFF;stroke-width:1;"/><path d="M340.626,521.3291 L340.626,531.3291 L350.626,531.3291 L340.626,521.3291" fill="#0B58A8" style="stroke:#FFFFFF;stroke-width:1;"/><text fill="#FFFFFF" font-family="Verdana" font-size="13" lengthAdjust="spacing" textLength="261.4854" x="69.5703" y="539.3989">Additional syntax for namespaced maps</text><line style="stroke:#FFFFFF;stroke-width:1.5;" x1="59" x2="185.3481" y1="487.8218" y2="487.8218"/><path d="M120.1741,487.8218 L120.1741,484.8218 L126.1741,487.8218 L120.1741,490.8218 L120.1741,487.8218" fill="#FFFFFF"/><line style="stroke:#FFFFFF;stroke-width:1.5;" x1="224.2778" x2="350.626" y1="487.8218" y2="487.8218"/><path d="M285.4519,487.8218 L285.4519,484.8218 L291.4519,487.8218 L285.4519,490.8218 L285.4519,487.8218" fill="#FFFFFF"/><path d="M47,475.8218 C47,484.8218 50,487.8218 59,487.8218" fill="none" style="stroke:#FFFFFF;stroke-width:1.5;"/><line style="stroke:#FFFFFF;stroke-width:1.5;" x1="350.626" x2="388.8071" y1="487.8218" y2="487.8218"/><path d="M367.7166,487.8218 L367.7166,484.8218 L373.7166,487.8218 L367.7166,490.8218 L367.7166,487.8218" fill="#FFFFFF"/><path d="M400.8071,475.8218 C400.8071,484.8218 397.8071,487.8218 388.8071,487.8218" fill="none" style="stroke:#FFFFFF;stroke-width:1.5;"/><rect fill="#0B58A8" height="27.0146" rx="5" ry="5" style="stroke:#FFFFFF;stroke-width:1.5;" width="33.4268" x="59" y="557.1284"/><text fill="#FFFFFF" font-family="Verdana" font-size="14" lengthAdjust="spacing" textLength="23.4268" x="64" y="576.2036">Set</text><path d="M47,558.6357 C47,567.6357 50,570.6357 59,570.6357" fill="none" style="stroke:#FFFFFF;stroke-width:1.5;"/><line style="stroke:#FFFFFF;stroke-width:1.5;" x1="92.4268" x2="388.8071" y1="570.6357" y2="570.6357"/><path d="M238.6169,570.6357 L238.6169,567.6357 L244.6169,570.6357 L238.6169,573.6357 L238.6169,570.6357" fill="#FFFFFF"/><path d="M400.8071,558.6357 C400.8071,567.6357 397.8071,570.6357 388.8071,570.6357" fill="none" style="stroke:#FFFFFF;stroke-width:1.5;"/><rect fill="#0B58A8" height="27.0146" rx="5" ry="5" style="stroke:#FFFFFF;stroke-width:1.5;" width="73.6699" x="127.6514" y="594.1431"/><text fill="#FFFFFF" font-family="Verdana" font-size="14" lengthAdjust="spacing" textLength="63.6699" x="132.6514" y="613.2183">Symbolic</text><path d="M59,641.1577 L59,666.957 A0,0 0 0 0 59,666.957 L269.9727,666.957 A0,0 0 0 0 269.9727,666.957 L269.9727,651.1577 L259.9727,641.1577 L168.4863,641.1577 L164.4863,621.1577 L160.4863,641.1577 L59,641.1577 A0,0 0 0 0 59,641.1577" fill="#0B58A8" style="stroke:#FFFFFF;stroke-width:1;"/><path d="M259.9727,641.1577 L259.9727,651.1577 L269.9727,651.1577 L259.9727,641.1577" fill="#0B58A8" style="stroke:#FFFFFF;stroke-width:1;"/><text fill="#FFFFFF" font-family="Verdana" font-size="13" lengthAdjust="spacing" textLength="180.832" x="69.5703" y="659.2275">##Inf, ##-Inf, and ##NaN</text><line style="stroke:#FFFFFF;stroke-width:1.5;" x1="59" x2="127.6514" y1="607.6504" y2="607.6504"/><path d="M91.3257,607.6504 L91.3257,604.6504 L97.3257,607.6504 L91.3257,610.6504 L91.3257,607.6504" fill="#FFFFFF"/><line style="stroke:#FFFFFF;stroke-width:1.5;" x1="201.3213" x2="269.9727" y1="607.6504" y2="607.6504"/><path d="M233.647,607.6504 L233.647,604.6504 L239.647,607.6504 L233.647,610.6504 L233.647,607.6504" fill="#FFFFFF"/><path d="M47,595.6504 C47,604.6504 50,607.6504 59,607.6504" fill="none" style="stroke:#FFFFFF;stroke-width:1.5;"/><line style="stroke:#FFFFFF;stroke-width:1.5;" x1="269.9727" x2="388.8071" y1="607.6504" y2="607.6504"/><path d="M327.3899,607.6504 L327.3899,604.6504 L333.3899,607.6504 L327.3899,610.6504 L327.3899,607.6504" fill="#FFFFFF"/><path d="M400.8071,595.6504 C400.8071,604.6504 397.8071,607.6504 388.8071,607.6504" fill="none" style="stroke:#FFFFFF;stroke-width:1.5;"/><rect fill="#0B58A8" height="27.0146" rx="5" ry="5" style="stroke:#FFFFFF;stroke-width:1.5;" width="118.9102" x="59" y="676.957"/><text fill="#FFFFFF" font-family="Verdana" font-size="14" lengthAdjust="spacing" textLength="108.9102" x="64" y="696.0322">TaggedElement</text><path d="M47,678.4644 C47,687.4644 50,690.4644 59,690.4644" fill="none" style="stroke:#FFFFFF;stroke-width:1.5;"/><line style="stroke:#FFFFFF;stroke-width:1.5;" x1="177.9102" x2="388.8071" y1="690.4644" y2="690.4644"/><path d="M281.3586,690.4644 L281.3586,687.4644 L287.3586,690.4644 L281.3586,693.4644 L281.3586,690.4644" fill="#FFFFFF"/><path d="M400.8071,678.4644 C400.8071,687.4644 397.8071,690.4644 388.8071,690.4644" fill="none" style="stroke:#FFFFFF;stroke-width:1.5;"/><rect fill="#0B58A8" height="27.0146" rx="5" ry="5" style="stroke:#FFFFFF;stroke-width:1.5;" width="130.6475" x="59" y="713.9717"/><text fill="#FFFFFF" font-family="Verdana" font-size="14" lengthAdjust="spacing" textLength="120.6475" x="64" y="733.0469">DiscardSequence</text><path d="M47,715.479 C47,724.479 50,727.479 59,727.479" fill="none" style="stroke:#FFFFFF;stroke-width:1.5;"/><line style="stroke:#FFFFFF;stroke-width:1.5;" x1="189.6475" x2="388.8071" y1="727.479" y2="727.479"/><path d="M287.2273,727.479 L287.2273,724.479 L293.2273,727.479 L287.2273,730.479 L287.2273,727.479" fill="#FFFFFF"/><path d="M400.8071,715.479 C400.8071,724.479 397.8071,727.479 388.8071,727.479" fill="none" style="stroke:#FFFFFF;stroke-width:1.5;"/><rect fill="#0B58A8" height="27.0146" rx="5" ry="5" style="stroke:#FFFFFF;stroke-width:1.5;" width="143.4443" x="129.0093" y="750.9863"/><text fill="#FFFFFF" font-family="Verdana" font-size="14" lengthAdjust="spacing" textLength="133.4443" x="134.0093" y="770.0615">MetadataSequence</text><path d="M59,798.001 L59,823.8003 A0,0 0 0 0 59,823.8003 L342.4629,823.8003 A0,0 0 0 0 342.4629,823.8003 L342.4629,808.001 L332.4629,798.001 L204.7314,798.001 L200.7314,778.001 L196.7314,798.001 L59,798.001 A0,0 0 0 0 59,798.001" fill="#0B58A8" style="stroke:#FFFFFF;stroke-width:1;"/><path d="M332.4629,798.001 L332.4629,808.001 L342.4629,808.001 L332.4629,798.001" fill="#0B58A8" style="stroke:#FFFFFF;stroke-width:1;"/><text fill="#FFFFFF" font-family="Verdana" font-size="13" lengthAdjust="spacing" textLength="253.3223" x="69.5703" y="816.0708">Metadata literal for some EdnElements</text><line style="stroke:#FFFFFF;stroke-width:1.5;" x1="59" x2="129.0093" y1="764.4937" y2="764.4937"/><path d="M92.0046,764.4937 L92.0046,761.4937 L98.0046,764.4937 L92.0046,767.4937 L92.0046,764.4937" fill="#FFFFFF"/><line style="stroke:#FFFFFF;stroke-width:1.5;" x1="272.4536" x2="342.4629" y1="764.4937" y2="764.4937"/><path d="M305.4583,764.4937 L305.4583,761.4937 L311.4583,764.4937 L305.4583,767.4937 L305.4583,764.4937" fill="#FFFFFF"/><path d="M47,752.4937 C47,761.4937 50,764.4937 59,764.4937" fill="none" style="stroke:#FFFFFF;stroke-width:1.5;"/><line style="stroke:#FFFFFF;stroke-width:1.5;" x1="342.4629" x2="388.8071" y1="764.4937" y2="764.4937"/><path d="M363.635,764.4937 L363.635,761.4937 L369.635,764.4937 L363.635,767.4937 L363.635,764.4937" fill="#FFFFFF"/><path d="M400.8071,752.4937 C400.8071,761.4937 397.8071,764.4937 388.8071,764.4937" fill="none" style="stroke:#FFFFFF;stroke-width:1.5;"/><rect fill="#0B58A8" height="27.0146" rx="5" ry="5" style="stroke:#FFFFFF;stroke-width:1.5;" width="62.5342" x="161.3552" y="833.8003"/><text fill="#FFFFFF" font-family="Verdana" font-size="14" lengthAdjust="spacing" textLength="52.5342" x="166.3552" y="852.8755">Symbol</text><path d="M59,880.8149 L59,906.6143 A0,0 0 0 0 59,906.6143 L326.2446,906.6143 A0,0 0 0 0 326.2446,906.6143 L326.2446,890.8149 L316.2446,880.8149 L196.6223,880.8149 L192.6223,860.8149 L188.6223,880.8149 L59,880.8149 A0,0 0 0 0 59,880.8149" fill="#0B58A8" style="stroke:#FFFFFF;stroke-width:1;"/><path d="M316.2446,880.8149 L316.2446,890.8149 L326.2446,890.8149 L316.2446,880.8149" fill="#0B58A8" style="stroke:#FFFFFF;stroke-width:1;"/><text fill="#FFFFFF" font-family="Verdana" font-size="13" lengthAdjust="spacing" textLength="237.104" x="69.5703" y="898.8848">Many small additions and deviations</text><line style="stroke:#FFFFFF;stroke-width:1.5;" x1="59" x2="161.3552" y1="847.3076" y2="847.3076"/><path d="M108.1776,847.3076 L108.1776,844.3076 L114.1776,847.3076 L108.1776,850.3076 L108.1776,847.3076" fill="#FFFFFF"/><line style="stroke:#FFFFFF;stroke-width:1.5;" x1="223.8894" x2="326.2446" y1="847.3076" y2="847.3076"/><path d="M273.067,847.3076 L273.067,844.3076 L279.067,847.3076 L273.067,850.3076 L273.067,847.3076" fill="#FFFFFF"/><path d="M47,835.3076 C47,844.3076 50,847.3076 59,847.3076" fill="none" style="stroke:#FFFFFF;stroke-width:1.5;"/><line style="stroke:#FFFFFF;stroke-width:1.5;" x1="326.2446" x2="388.8071" y1="847.3076" y2="847.3076"/><path d="M355.5259,847.3076 L355.5259,844.3076 L361.5259,847.3076 L355.5259,850.3076 L355.5259,847.3076" fill="#FFFFFF"/><path d="M400.8071,835.3076 C400.8071,844.3076 397.8071,847.3076 388.8071,847.3076" fill="none" style="stroke:#FFFFFF;stroke-width:1.5;"/><rect fill="#0B58A8" height="27.0146" rx="5" ry="5" style="stroke:#FFFFFF;stroke-width:1.5;" width="28.1563" x="59" y="916.6143"/><text fill="#FFFFFF" font-family="Verdana" font-size="14" lengthAdjust="spacing" textLength="18.1563" x="64" y="935.6895">Nil</text><path d="M47,918.1216 C47,927.1216 50,930.1216 59,930.1216" fill="none" style="stroke:#FFFFFF;stroke-width:1.5;"/><line style="stroke:#FFFFFF;stroke-width:1.5;" x1="87.1563" x2="388.8071" y1="930.1216" y2="930.1216"/><path d="M235.9817,930.1216 L235.9817,927.1216 L241.9817,930.1216 L235.9817,933.1216 L235.9817,930.1216" fill="#FFFFFF"/><path d="M400.8071,918.1216 C400.8071,927.1216 397.8071,930.1216 388.8071,930.1216" fill="none" style="stroke:#FFFFFF;stroke-width:1.5;"/><rect fill="#0B58A8" height="27.0146" rx="5" ry="5" style="stroke:#FFFFFF;stroke-width:1.5;" width="66.041" x="59" y="953.6289"/><text fill="#FFFFFF" font-family="Verdana" font-size="14" lengthAdjust="spacing" textLength="56.041" x="64" y="972.7041">Boolean</text><path d="M47,955.1362 C47,964.1362 50,967.1362 59,967.1362" fill="none" style="stroke:#FFFFFF;stroke-width:1.5;"/><line style="stroke:#FFFFFF;stroke-width:1.5;" x1="125.041" x2="388.8071" y1="967.1362" y2="967.1362"/><path d="M254.9241,967.1362 L254.9241,964.1362 L260.9241,967.1362 L254.9241,970.1362 L254.9241,967.1362" fill="#FFFFFF"/><path d="M400.8071,955.1362 C400.8071,964.1362 397.8071,967.1362 388.8071,967.1362" fill="none" style="stroke:#FFFFFF;stroke-width:1.5;"/><rect fill="#0B58A8" height="27.0146" rx="5" ry="5" style="stroke:#FFFFFF;stroke-width:1.5;" width="70.9766" x="96.7615" y="990.6436"/><text fill="#FFFFFF" font-family="Verdana" font-size="14" lengthAdjust="spacing" textLength="60.9766" x="101.7615" y="1009.7188">Keyword</text><path d="M59,1037.6582 L59,1063.4575 A0,0 0 0 0 59,1063.4575 L205.4995,1063.4575 A0,0 0 0 0 205.4995,1063.4575 L205.4995,1047.6582 L195.4995,1037.6582 L136.2498,1037.6582 L132.2498,1017.6582 L128.2498,1037.6582 L59,1037.6582 A0,0 0 0 0 59,1037.6582" fill="#0B58A8" style="stroke:#FFFFFF;stroke-width:1;"/><path d="M195.4995,1037.6582 L195.4995,1047.6582 L205.4995,1047.6582 L195.4995,1037.6582" fill="#0B58A8" style="stroke:#FFFFFF;stroke-width:1;"/><text fill="#FFFFFF" font-family="Verdana" font-size="13" lengthAdjust="spacing" textLength="116.3589" x="69.5703" y="1055.728">Same as Symbols</text><line style="stroke:#FFFFFF;stroke-width:1.5;" x1="59" x2="96.7615" y1="1004.1509" y2="1004.1509"/><path d="M75.8807,1004.1509 L75.8807,1001.1509 L81.8807,1004.1509 L75.8807,1007.1509 L75.8807,1004.1509" fill="#FFFFFF"/><line style="stroke:#FFFFFF;stroke-width:1.5;" x1="167.738" x2="205.4995" y1="1004.1509" y2="1004.1509"/><path d="M184.6188,1004.1509 L184.6188,1001.1509 L190.6188,1004.1509 L184.6188,1007.1509 L184.6188,1004.1509" fill="#FFFFFF"/><line style="stroke:#FFFFFF;stroke-width:1.5;" x1="205.4995" x2="388.8071" y1="1004.1509" y2="1004.1509"/><path d="M295.1533,1004.1509 L295.1533,1001.1509 L301.1533,1004.1509 L295.1533,1007.1509 L295.1533,1004.1509" fill="#FFFFFF"/><path d="M47,992.1509 C47,1001.1509 50,1004.1509 59,1004.1509" fill="none" style="stroke:#FFFFFF;stroke-width:1.5;"/><line style="stroke:#FFFFFF;stroke-width:1.5;" x1="47" x2="47" y1="57.522" y2="992.1509"/><path d="M35,45.522 C44,45.522 47,48.522 47,57.522" fill="none" style="stroke:#FFFFFF;stroke-width:1.5;"/><path d="M400.8071,992.1509 C400.8071,1001.1509 397.8071,1004.1509 388.8071,1004.1509" fill="none" style="stroke:#FFFFFF;stroke-width:1.5;"/><line style="stroke:#FFFFFF;stroke-width:1.5;" x1="400.8071" x2="400.8071" y1="57.522" y2="992.1509"/><path d="M400.8071,57.522 C400.8071,48.522 403.8071,45.522 412.8071,45.522" fill="none" style="stroke:#FFFFFF;stroke-width:1.5;"/><ellipse cx="9" cy="45.522" fill="none" rx="4" ry="4" style="stroke:#FFFFFF;stroke-width:2;"/><ellipse cx="442.8071" cy="45.522" fill="#FFFFFF" rx="4" ry="4" style="stroke:#FFFFFF;stroke-width:1;"/><line style="stroke:#FFFFFF;stroke-width:1.5;" x1="13" x2="35" y1="45.522" y2="45.522"/><line style="stroke:#FFFFFF;stroke-width:1.5;" x1="412.8071" x2="438.8071" y1="45.522" y2="45.522"/><path d="M423.8071,45.522 L423.8071,42.522 L429.8071,45.522 L423.8071,48.522 L423.8071,45.522" fill="#FFFFFF"/><!--SRC=[xLVVKzj647xNNx4TNY1JKcD2Xj2qWssWWTWE4m5zNdHh-ufqfzwT36xA_zuzISQMPOS0xXkQCSQxUz_kVVlZJeVMeN5qhGR1Jsv42G4cSeZ1iL37CVzK3dw3pWWDHeuCbC_c6sW98PtK2cDGc920Q6fa0PK07JbM3RH9uCrM0BFdNmYTaMeu9wh25Il9HfWIMFex8nLH3UGarkYgeg_82535pMKUrVX_R0tcL3aQpZQs68iirNuVnRuIgRG1GMEP8zSHkz8kn7L5aTEcAkjX2W0hER0JvV3EkytPjIb6J762QTrVI0lkmabohMCPpKDlR9ogmS_yjPr_-uriRFInNqExmE6GH9dwgkf8SagC2CkCBEo770fqEDLwfrCPn9BBegW6i9fhR5PTI_QJXrzbfeTg0ZR1E0OiIIgoyPqyz6LS5RIrZWbLLVYP9hVQY8gt47qRs3AIHUHVWqDI8k-Ou73MFSNpqRf9JB-plT7QmRTyOHkZcw7HcH8T7JC56utstdvhFzUTQELAwKd-F4ZxFeehCW8Lvi9FavHCLwgRgVrHQxUvbwjOIdKKBxqOoUX6aRMmayjwQ8PIWLzspn-XeonlyY9IRZbFPlbh4Q6HI-_plmFU7lV5uuOZGl53Xawwc1xiF0EX_8UWsNnafVzuTjDFyvvgd2-mkpmJeSyUSD952QoqcCRKmpkPPCcVKhWHx3OQfOMX0HbVyV-7Uqif3rKU7kk4_VXBMQI1lP7AEqYWPOo-xUeubgbEgzWperLrFBCueW5ciQkLRysYfvKkXjg3RKTdHfAPi-tA0SMSTJulaCVmXBDXUR29EPDpRZyPoHILE_UJWO-LdSQSVZgEF9Gle3RtEfbL6mn7AFIj1nbWR6bESscfpTEiODAPZ2haHKwEfPlaILhTx6qqYrbR5ixocL2Zz7u-CTuTcYA0-kggwLrkDMLhhwBjI1F596Rd_GBWmrvgMGC-QONCB7oe0iR8pVe8B-iX8NVLSdotkCuShQ3YHp12tZXfnzFsUI0diz7uvBLpG-JfQ_tvmFroao-l7XBpTgUHLkUS3HnInVAXA5TagePXv1ZTIp6OAwuqyJAKxDhVTvuBqTVFhPSlrtznz4LzBwdY-ygacZ6-feeFtPJ-fpLN5MDQxAtbID-TLSkHEcj3EbuRqkdQaFelHEAZf8EM2i2B9qwPrzUorzUorzUonrxBpcE-3rxskZ3cilVlCpjlcutctjjtco4wECiKDFTXP_UWyU6WkGUTu_02l7uhsFpZlCjKP8QP4bmm-Ls20RQ2CnmZVCsKamaTm9UKrDdHvwa0ZjLO6gtov9nTzMO6xzzjjwNZOZ0S2bprWlB-ooiYxIzW1t1vSRAz7tHH3JC-7mw0LC2NAkNCX7NXVm00]--></g></svg>