<svg xmlns="http://www.w3.org/2000/svg" xmlns:xlink="http://www.w3.org/1999/xlink" contentStyleType="text/css" data-diagram-type="EBNF" height="335px" preserveAspectRatio="none" style="width:562px;height:335px;background:#0B58A8;" version="1.1" viewBox="0 0 562 335" width="562px" zoomAndPan="magnify"><defs/><g><rect fill="#0B58A8" height="335" style="stroke:none;stroke-width:1;" width="562" x="0" y="0"/><text fill="#FFFFFF" font-family="Verdana" font-size="14" font-weight="bold" lengthAdjust="spacing" textLength="121.666" x="5" y="19.0752">TaggedElement</text><line style="stroke:#FFFFFF;stroke-width:1.5;" x1="35" x2="35" y1="45.522" y2="45.522"/><rect fill="none" height="27.0146" style="stroke:#FFFFFF;stroke-width:0.5;" width="21.457" x="35" y="32.0146"/><text fill="#FFFFFF" font-family="Verdana" font-size="14" lengthAdjust="spacing" textLength="11.457" x="40" y="51.0898">#</text><line style="stroke:#FFFFFF;stroke-width:1.5;" x1="56.457" x2="76.457" y1="45.522" y2="45.522"/><rect fill="#0B58A8" height="27.0146" rx="5" ry="5" style="stroke:#FFFFFF;stroke-width:1.5;" width="62.5342" x="76.457" y="32.0146"/><text fill="#FFFFFF" font-family="Verdana" font-size="14" lengthAdjust="spacing" textLength="52.5342" x="81.457" y="51.0898">Symbol</text><line style="stroke:#FFFFFF;stroke-width:1.5;" x1="138.9912" x2="158.9912" y1="45.522" y2="45.522"/><line style="stroke:#FFFFFF;stroke-width:1.5;" x1="158.9912" x2="272.4102" y1="45.522" y2="45.522"/><path d="M202.3588,45.522 L202.3588,42.522 L208.3588,45.522 L202.3588,48.522 L202.3588,45.522" fill="#FFFFFF"/><path d="M158.9912,45.522 C167.9912,45.522 170.9912,48.2756 170.9912,57.2756 C170.9912,66.2756 173.9912,69.0293 182.9912,69.0293" fill="none" style="stroke:#FFFFFF;stroke-width:1.5;"/><path d="M248.4102,69.0293 C257.4102,69.0293 260.4102,66.2756 260.4102,57.2756 C260.4102,48.2756 263.4102,45.522 272.4102,45.522" fill="none" style="stroke:#FFFFFF;stroke-width:1.5;"/><rect fill="#0B58A8" height="27.0146" rx="5" ry="5" style="stroke:#FFFFFF;stroke-width:1.5;" width="65.4189" x="182.9912" y="55.522"/><text fill="#FFFFFF" font-family="Verdana" font-size="14" lengthAdjust="spacing" textLength="55.4189" x="187.9912" y="74.5972">Spacing</text><line style="stroke:#FFFFFF;stroke-width:1.5;" x1="272.4102" x2="292.4102" y1="45.522" y2="45.522"/><rect fill="#0B58A8" height="27.0146" rx="5" ry="5" style="stroke:#FFFFFF;stroke-width:1.5;" width="158.3193" x="292.4102" y="32.0146"/><text fill="#FFFFFF" font-family="Verdana" font-size="14" lengthAdjust="spacing" textLength="148.3193" x="297.4102" y="51.0898">ReadableEdnElement</text><ellipse cx="9" cy="45.522" fill="none" rx="4" ry="4" style="stroke:#FFFFFF;stroke-width:2;"/><ellipse cx="480.7295" cy="45.522" fill="#FFFFFF" rx="4" ry="4" style="stroke:#FFFFFF;stroke-width:1;"/><line style="stroke:#FFFFFF;stroke-width:1.5;" x1="13" x2="35" y1="45.522" y2="45.522"/><line style="stroke:#FFFFFF;stroke-width:1.5;" x1="450.7295" x2="476.7295" y1="45.522" y2="45.522"/><path d="M461.7295,45.522 L461.7295,42.522 L467.7295,45.522 L461.7295,48.522 L461.7295,45.522" fill="#FFFFFF"/><path d="M5,102.5366 L5,128.3359 L195.1016,128.3359 L195.1016,112.5366 L185.1016,102.5366 L5,102.5366" fill="#0B58A8" style="stroke:#FFFFFF;stroke-width:1;"/><path d="M185.1016,102.5366 L185.1016,112.5366 L195.1016,112.5366 L185.1016,102.5366" fill="#0B58A8" style="stroke:#FFFFFF;stroke-width:1;"/><text fill="#FFFFFF" font-family="Verdana" font-size="13" lengthAdjust="spacing" textLength="159.9609" x="15.5703" y="120.6064">built-in tagged elements</text><text fill="#FFFFFF" font-family="Verdana" font-size="14" font-weight="bold" lengthAdjust="spacing" textLength="58.0029" x="5" y="157.4111">Instant</text><line style="stroke:#FFFFFF;stroke-width:1.5;" x1="35" x2="35" y1="183.8579" y2="183.8579"/><rect fill="none" height="27.0146" style="stroke:#FFFFFF;stroke-width:0.5;" width="46.9688" x="35" y="170.3506"/><text fill="#FFFFFF" font-family="Verdana" font-size="14" lengthAdjust="spacing" textLength="36.9688" x="40" y="189.4258">#inst</text><line style="stroke:#FFFFFF;stroke-width:1.5;" x1="81.9688" x2="101.9688" y1="183.8579" y2="183.8579"/><line style="stroke:#FFFFFF;stroke-width:1.5;" x1="101.9688" x2="215.3877" y1="183.8579" y2="183.8579"/><path d="M145.3363,183.8579 L145.3363,180.8579 L151.3363,183.8579 L145.3363,186.8579 L145.3363,183.8579" fill="#FFFFFF"/><path d="M101.9688,183.8579 C110.9688,183.8579 113.9688,186.6116 113.9688,195.6116 C113.9688,204.6116 116.9688,207.3652 125.9688,207.3652" fill="none" style="stroke:#FFFFFF;stroke-width:1.5;"/><path d="M191.3877,207.3652 C200.3877,207.3652 203.3877,204.6116 203.3877,195.6116 C203.3877,186.6116 206.3877,183.8579 215.3877,183.8579" fill="none" style="stroke:#FFFFFF;stroke-width:1.5;"/><rect fill="#0B58A8" height="27.0146" rx="5" ry="5" style="stroke:#FFFFFF;stroke-width:1.5;" width="65.4189" x="125.9688" y="193.8579"/><text fill="#FFFFFF" font-family="Verdana" font-size="14" lengthAdjust="spacing" textLength="55.4189" x="130.9688" y="212.9331">Spacing</text><line style="stroke:#FFFFFF;stroke-width:1.5;" x1="215.3877" x2="235.3877" y1="183.8579" y2="183.8579"/><rect fill="none" height="27.0146" style="stroke:#FFFFFF;stroke-width:1;stroke-dasharray:5,5;" width="208.9258" x="235.3877" y="170.3506"/><text fill="#FFFFFF" font-family="Verdana" font-size="14" lengthAdjust="spacing" textLength="189.082" x="245.3096" y="189.4258">RFC-3339 formatted string</text><ellipse cx="9" cy="183.8579" fill="none" rx="4" ry="4" style="stroke:#FFFFFF;stroke-width:2;"/><ellipse cx="474.3135" cy="183.8579" fill="#FFFFFF" rx="4" ry="4" style="stroke:#FFFFFF;stroke-width:1;"/><line style="stroke:#FFFFFF;stroke-width:1.5;" x1="13" x2="35" y1="183.8579" y2="183.8579"/><line style="stroke:#FFFFFF;stroke-width:1.5;" x1="444.3135" x2="470.3135" y1="183.8579" y2="183.8579"/><path d="M455.3135,183.8579 L455.3135,180.8579 L461.3135,183.8579 L455.3135,186.8579 L455.3135,183.8579" fill="#FFFFFF"/><text fill="#FFFFFF" font-family="Verdana" font-size="14" font-weight="bold" lengthAdjust="spacing" textLength="42" x="5" y="249.9478">UUID</text><line style="stroke:#FFFFFF;stroke-width:1.5;" x1="35" x2="35" y1="276.3945" y2="276.3945"/><rect fill="none" height="27.0146" style="stroke:#FFFFFF;stroke-width:0.5;" width="51.7402" x="35" y="262.8872"/><text fill="#FFFFFF" font-family="Verdana" font-size="14" lengthAdjust="spacing" textLength="41.7402" x="40" y="281.9624">#uuid</text><line style="stroke:#FFFFFF;stroke-width:1.5;" x1="86.7402" x2="106.7402" y1="276.3945" y2="276.3945"/><line style="stroke:#FFFFFF;stroke-width:1.5;" x1="106.7402" x2="220.1592" y1="276.3945" y2="276.3945"/><path d="M150.1078,276.3945 L150.1078,273.3945 L156.1078,276.3945 L150.1078,279.3945 L150.1078,276.3945" fill="#FFFFFF"/><path d="M106.7402,276.3945 C115.7402,276.3945 118.7402,279.1482 118.7402,288.1482 C118.7402,297.1482 121.7402,299.9019 130.7402,299.9019" fill="none" style="stroke:#FFFFFF;stroke-width:1.5;"/><path d="M196.1592,299.9019 C205.1592,299.9019 208.1592,297.1482 208.1592,288.1482 C208.1592,279.1482 211.1592,276.3945 220.1592,276.3945" fill="none" style="stroke:#FFFFFF;stroke-width:1.5;"/><rect fill="#0B58A8" height="27.0146" rx="5" ry="5" style="stroke:#FFFFFF;stroke-width:1.5;" width="65.4189" x="130.7402" y="286.3945"/><text fill="#FFFFFF" font-family="Verdana" font-size="14" lengthAdjust="spacing" textLength="55.4189" x="135.7402" y="305.4697">Spacing</text><line style="stroke:#FFFFFF;stroke-width:1.5;" x1="220.1592" x2="240.1592" y1="276.3945" y2="276.3945"/><rect fill="none" height="27.0146" style="stroke:#FFFFFF;stroke-width:1;stroke-dasharray:5,5;" width="282.2617" x="240.1592" y="262.8872"/><text fill="#FFFFFF" font-family="Verdana" font-size="14" lengthAdjust="spacing" textLength="262.418" x="250.0811" y="281.9624">Canonical UUID string representation</text><ellipse cx="9" cy="276.3945" fill="none" rx="4" ry="4" style="stroke:#FFFFFF;stroke-width:2;"/><ellipse cx="552.4209" cy="276.3945" fill="#FFFFFF" rx="4" ry="4" style="stroke:#FFFFFF;stroke-width:1;"/><line style="stroke:#FFFFFF;stroke-width:1.5;" x1="13" x2="35" y1="276.3945" y2="276.3945"/><line style="stroke:#FFFFFF;stroke-width:1.5;" x1="522.4209" x2="548.4209" y1="276.3945" y2="276.3945"/><path d="M533.4209,276.3945 L533.4209,273.3945 L539.4209,276.3945 L533.4209,279.3945 L533.4209,276.3945" fill="#FFFFFF"/><!--SRC=[vLPTSzf657tNhxXrNknCdM886PkcZK66nWuuZ0NkGwSFY_OYjeXTTNT5GZl-xxqhWK4MDFwWJsL6Z7JlkMTNvtwiperbsk98Zhtlx0Hd26mc8kODM1GXRyTaaHP-WeDN1_0z18lPICLqyni42Gk5ZE1tUhf1njaenZQNguWVFU_mDOnI4TjZ8S5cT82vry3h8y-xbBJsabpG_K69zmFSTFpZMgrs1cEbPynQuZ1ME_y7jyHmU7cHnQUfuDlYVIQL526B8OCkOpKc6WrjX5cXP4PrZf9dAdZdQqNottjZ5p7-x05efIpyJJS0BHPE8wrIoNqLAmslAgtwQVCqytMKj4jh9_lTMwyP2NoBcZF9CkF7HOAwA-HqXRzerghrp4LMBBCuws0Ymgb4O-0ai_MOZaXZ5tP75rTXckKWtsd8akmjywU739NCUfVzZ-drK3y2EA5yFmfeXOtn7kSK2CHV2DNgDoBTvTHDFcwkLDByWRhRCn6ux06LBLyIIyLNU-gnhsAMpduLt4wWLgai4Hh7g566-5yiRp1XcbcrLzhtFooBr3DJ8Tq2CsXghRvqLHoBH2L5xZLeLnsl4HSuPcbiI-LRGlIKL8Qw3_azrbUf5gWti5qnnfYo7bZI0AC5PSEeMF0DI9_QJuGYeTdGPvoxXZsfRFW3_3DroN5Khe1QIbEIThrWC65SVN4aOnORtF0C3RRGibn9grCiY1TQCHTsaILfTxEtc7wOjMtRsJuJIfBURIR6BSTqle5oT17wDKEjrAeNlBxGOOpSdz1JkEhlROLLoXh03UCYDN1M98mPDUitTDcF2DbIJKjJUvHQt275OpW2Ud5KbgRjyqWwwz7uvDYD8VBqM7S-KBzCi_3Y8R69kmoLx5CsM8G5v7rHxiXKYKEBERClvI2jGdTKluWb7SKYV3R5jNfklNmU_K6xp-jxInNV5IRLMl4zLNnWL_8_hRcA7AjYRsvd-jTPjPt9tnjJUszCbtjZkduX4nqbFZEO4mwUE6N-lv_Q_PWsDUnrOOxQEFV9csgbMd_pzZ1W5gvI2TLJEAarAcUDQXtyTZ00vp_o3d_fTy7GCHKYS67oyu48ZhmhDcTmaqehPjY0pmdAgujFAmEqvLne9PqmtjLjRmruz_Qu9InzMcZQ2jpslEKt3KM4oXsg3HWEEiUdNfV9AAMURm1AZmvAQVM2VC4_]--></g></svg>