<svg xmlns="http://www.w3.org/2000/svg" xmlns:xlink="http://www.w3.org/1999/xlink" contentStyleType="text/css" data-diagram-type="EBNF" height="1016px" preserveAspectRatio="none" style="width:453px;height:1016px;background:#0B58A8;" version="1.1" viewBox="0 0 453 1016" width="453px" zoomAndPan="magnify"><defs/><g><rect fill="#0B58A8" height="1016" style="stroke:none;stroke-width:1;" width="453" x="0" y="0"/><text fill="#FFFFFF" font-family="Verdana" font-size="14" font-weight="bold" lengthAdjust="spacing" textLength="76.6377" x="5" y="19.0752">Character</text><line style="stroke:#FFFFFF;stroke-width:1.5;" x1="35" x2="35" y1="45.522" y2="45.522"/><rect fill="none" height="27.0146" style="stroke:#FFFFFF;stroke-width:0.5;" width="16.3574" x="35" y="32.0146"/><text fill="#FFFFFF" font-family="Verdana" font-size="14" lengthAdjust="spacing" textLength="6.3574" x="40" y="51.0898">\</text><line style="stroke:#FFFFFF;stroke-width:1.5;" x1="51.3574" x2="71.3574" y1="45.522" y2="45.522"/><rect fill="#0B58A8" height="27.0146" rx="5" ry="5" style="stroke:#FFFFFF;stroke-width:1.5;" width="86.7334" x="95.3574" y="32.0146"/><text fill="#FFFFFF" font-family="Verdana" font-size="14" lengthAdjust="spacing" textLength="76.7334" x="100.3574" y="51.0898">CharLiteral</text><line style="stroke:#FFFFFF;stroke-width:1.5;" x1="71.3574" x2="95.3574" y1="45.522" y2="45.522"/><line style="stroke:#FFFFFF;stroke-width:1.5;" x1="182.0908" x2="234.0703" y1="45.522" y2="45.522"/><rect fill="#0B58A8" height="27.0146" rx="5" ry="5" style="stroke:#FFFFFF;stroke-width:1.5;" width="83.8555" x="95.3574" y="69.0293"/><text fill="#FFFFFF" font-family="Verdana" font-size="14" lengthAdjust="spacing" textLength="73.8555" x="100.3574" y="88.1045">CharName</text><path d="M83.3574,70.5366 C83.3574,79.5366 86.3574,82.5366 95.3574,82.5366" fill="none" style="stroke:#FFFFFF;stroke-width:1.5;"/><line style="stroke:#FFFFFF;stroke-width:1.5;" x1="179.2129" x2="210.0703" y1="82.5366" y2="82.5366"/><path d="M192.6416,82.5366 L192.6416,79.5366 L198.6416,82.5366 L192.6416,85.5366 L192.6416,82.5366" fill="#FFFFFF"/><path d="M222.0703,70.5366 C222.0703,79.5366 219.0703,82.5366 210.0703,82.5366" fill="none" style="stroke:#FFFFFF;stroke-width:1.5;"/><rect fill="#0B58A8" height="27.0146" rx="5" ry="5" style="stroke:#FFFFFF;stroke-width:1.5;" width="114.7129" x="95.3574" y="106.0439"/><text fill="#FFFFFF" font-family="Verdana" font-size="14" lengthAdjust="spacing" textLength="104.7129" x="100.3574" y="125.1191">UnicodeEscape</text><path d="M83.3574,107.5513 C83.3574,116.5513 86.3574,119.5513 95.3574,119.5513" fill="none" style="stroke:#FFFFFF;stroke-width:1.5;"/><line style="stroke:#FFFFFF;stroke-width:1.5;" x1="210.0703" x2="210.0703" y1="119.5513" y2="119.5513"/><path d="M222.0703,107.5513 C222.0703,116.5513 219.0703,119.5513 210.0703,119.5513" fill="none" style="stroke:#FFFFFF;stroke-width:1.5;"/><rect fill="#0B58A8" height="27.0146" rx="5" ry="5" style="stroke:#FFFFFF;stroke-width:1.5;" width="94.9912" x="95.3574" y="143.0586"/><text fill="#FFFFFF" font-family="Verdana" font-size="14" lengthAdjust="spacing" textLength="84.9912" x="100.3574" y="162.1338">OctalEscape</text><line style="stroke:#FFFFFF;stroke-width:1.5;" x1="190.3486" x2="210.0703" y1="156.5659" y2="156.5659"/><path d="M83.3574,144.5659 C83.3574,153.5659 86.3574,156.5659 95.3574,156.5659" fill="none" style="stroke:#FFFFFF;stroke-width:1.5;"/><line style="stroke:#FFFFFF;stroke-width:1.5;" x1="83.3574" x2="83.3574" y1="57.522" y2="144.5659"/><path d="M71.3574,45.522 C80.3574,45.522 83.3574,48.522 83.3574,57.522" fill="none" style="stroke:#FFFFFF;stroke-width:1.5;"/><path d="M222.0703,144.5659 C222.0703,153.5659 219.0703,156.5659 210.0703,156.5659" fill="none" style="stroke:#FFFFFF;stroke-width:1.5;"/><line style="stroke:#FFFFFF;stroke-width:1.5;" x1="222.0703" x2="222.0703" y1="57.522" y2="144.5659"/><path d="M222.0703,57.522 C222.0703,48.522 225.0703,45.522 234.0703,45.522" fill="none" style="stroke:#FFFFFF;stroke-width:1.5;"/><ellipse cx="9" cy="45.522" fill="none" rx="4" ry="4" style="stroke:#FFFFFF;stroke-width:2;"/><ellipse cx="264.0703" cy="45.522" fill="#FFFFFF" rx="4" ry="4" style="stroke:#FFFFFF;stroke-width:1;"/><line style="stroke:#FFFFFF;stroke-width:1.5;" x1="13" x2="35" y1="45.522" y2="45.522"/><line style="stroke:#FFFFFF;stroke-width:1.5;" x1="234.0703" x2="260.0703" y1="45.522" y2="45.522"/><path d="M245.0703,45.522 L245.0703,42.522 L251.0703,45.522 L245.0703,48.522 L245.0703,45.522" fill="#FFFFFF"/><text fill="#FFFFFF" font-family="Verdana" font-size="14" font-weight="bold" lengthAdjust="spacing" textLength="86.8916" x="5" y="199.1484">CharLiteral</text><rect fill="none" height="27.0146" style="stroke:#FFFFFF;stroke-width:1;stroke-dasharray:5,5;" width="233.1182" x="35" y="212.0879"/><text fill="#FFFFFF" font-family="Verdana" font-size="14" lengthAdjust="spacing" textLength="213.2744" x="44.9219" y="231.1631">Any non-whitespace character</text><ellipse cx="9" cy="225.5952" fill="none" rx="4" ry="4" style="stroke:#FFFFFF;stroke-width:2;"/><ellipse cx="298.1182" cy="225.5952" fill="#FFFFFF" rx="4" ry="4" style="stroke:#FFFFFF;stroke-width:1;"/><line style="stroke:#FFFFFF;stroke-width:1.5;" x1="13" x2="35" y1="225.5952" y2="225.5952"/><line style="stroke:#FFFFFF;stroke-width:1.5;" x1="268.1182" x2="294.1182" y1="225.5952" y2="225.5952"/><path d="M279.1182,225.5952 L279.1182,222.5952 L285.1182,225.5952 L279.1182,228.5952 L279.1182,225.5952" fill="#FFFFFF"/><text fill="#FFFFFF" font-family="Verdana" font-size="14" font-weight="bold" lengthAdjust="spacing" textLength="81.7305" x="5" y="268.1777">CharName</text><rect fill="none" height="27.0146" style="stroke:#FFFFFF;stroke-width:0.5;" width="63.5391" x="59" y="281.1172"/><text fill="#FFFFFF" font-family="Verdana" font-size="14" lengthAdjust="spacing" textLength="53.5391" x="64" y="300.1924">newline</text><line style="stroke:#FFFFFF;stroke-width:1.5;" x1="35" x2="59" y1="294.6245" y2="294.6245"/><line style="stroke:#FFFFFF;stroke-width:1.5;" x1="122.5391" x2="165.7686" y1="294.6245" y2="294.6245"/><rect fill="none" height="27.0146" style="stroke:#FFFFFF;stroke-width:0.5;" width="50.0586" x="59" y="318.1318"/><text fill="#FFFFFF" font-family="Verdana" font-size="14" lengthAdjust="spacing" textLength="40.0586" x="64" y="337.207">space</text><path d="M47,319.6392 C47,328.6392 50,331.6392 59,331.6392" fill="none" style="stroke:#FFFFFF;stroke-width:1.5;"/><line style="stroke:#FFFFFF;stroke-width:1.5;" x1="109.0586" x2="141.7686" y1="331.6392" y2="331.6392"/><path d="M123.4136,331.6392 L123.4136,328.6392 L129.4136,331.6392 L123.4136,334.6392 L123.4136,331.6392" fill="#FFFFFF"/><path d="M153.7686,319.6392 C153.7686,328.6392 150.7686,331.6392 141.7686,331.6392" fill="none" style="stroke:#FFFFFF;stroke-width:1.5;"/><rect fill="none" height="27.0146" style="stroke:#FFFFFF;stroke-width:0.5;" width="32.6475" x="59" y="355.1465"/><text fill="#FFFFFF" font-family="Verdana" font-size="14" lengthAdjust="spacing" textLength="22.6475" x="64" y="374.2217">tab</text><path d="M47,356.6538 C47,365.6538 50,368.6538 59,368.6538" fill="none" style="stroke:#FFFFFF;stroke-width:1.5;"/><line style="stroke:#FFFFFF;stroke-width:1.5;" x1="91.6475" x2="141.7686" y1="368.6538" y2="368.6538"/><path d="M114.708,368.6538 L114.708,365.6538 L120.708,368.6538 L114.708,371.6538 L114.708,368.6538" fill="#FFFFFF"/><path d="M153.7686,356.6538 C153.7686,365.6538 150.7686,368.6538 141.7686,368.6538" fill="none" style="stroke:#FFFFFF;stroke-width:1.5;"/><rect fill="none" height="27.0146" style="stroke:#FFFFFF;stroke-width:0.5;" width="53.5244" x="59" y="392.1611"/><text fill="#FFFFFF" font-family="Verdana" font-size="14" lengthAdjust="spacing" textLength="43.5244" x="64" y="411.2363">return</text><path d="M47,393.6685 C47,402.6685 50,405.6685 59,405.6685" fill="none" style="stroke:#FFFFFF;stroke-width:1.5;"/><line style="stroke:#FFFFFF;stroke-width:1.5;" x1="112.5244" x2="141.7686" y1="405.6685" y2="405.6685"/><path d="M125.1465,405.6685 L125.1465,402.6685 L131.1465,405.6685 L125.1465,408.6685 L125.1465,405.6685" fill="#FFFFFF"/><path d="M153.7686,393.6685 C153.7686,402.6685 150.7686,405.6685 141.7686,405.6685" fill="none" style="stroke:#FFFFFF;stroke-width:1.5;"/><rect fill="none" height="27.0146" style="stroke:#FFFFFF;stroke-width:0.5;" width="82.7686" x="59" y="429.1758"/><text fill="#FFFFFF" font-family="Verdana" font-size="14" lengthAdjust="spacing" textLength="72.7686" x="64" y="448.251">backspace</text><path d="M47,430.6831 C47,439.6831 50,442.6831 59,442.6831" fill="none" style="stroke:#FFFFFF;stroke-width:1.5;"/><line style="stroke:#FFFFFF;stroke-width:1.5;" x1="141.7686" x2="141.7686" y1="442.6831" y2="442.6831"/><path d="M153.7686,430.6831 C153.7686,439.6831 150.7686,442.6831 141.7686,442.6831" fill="none" style="stroke:#FFFFFF;stroke-width:1.5;"/><rect fill="none" height="27.0146" style="stroke:#FFFFFF;stroke-width:0.5;" width="73.335" x="59" y="466.1904"/><text fill="#FFFFFF" font-family="Verdana" font-size="14" lengthAdjust="spacing" textLength="63.335" x="64" y="485.2656">formfeed</text><line style="stroke:#FFFFFF;stroke-width:1.5;" x1="132.335" x2="141.7686" y1="479.6978" y2="479.6978"/><path d="M47,467.6978 C47,476.6978 50,479.6978 59,479.6978" fill="none" style="stroke:#FFFFFF;stroke-width:1.5;"/><line style="stroke:#FFFFFF;stroke-width:1.5;" x1="47" x2="47" y1="306.6245" y2="467.6978"/><path d="M35,294.6245 C44,294.6245 47,297.6245 47,306.6245" fill="none" style="stroke:#FFFFFF;stroke-width:1.5;"/><path d="M153.7686,467.6978 C153.7686,476.6978 150.7686,479.6978 141.7686,479.6978" fill="none" style="stroke:#FFFFFF;stroke-width:1.5;"/><line style="stroke:#FFFFFF;stroke-width:1.5;" x1="153.7686" x2="153.7686" y1="306.6245" y2="467.6978"/><path d="M153.7686,306.6245 C153.7686,297.6245 156.7686,294.6245 165.7686,294.6245" fill="none" style="stroke:#FFFFFF;stroke-width:1.5;"/><ellipse cx="9" cy="294.6245" fill="none" rx="4" ry="4" style="stroke:#FFFFFF;stroke-width:2;"/><ellipse cx="195.7686" cy="294.6245" fill="#FFFFFF" rx="4" ry="4" style="stroke:#FFFFFF;stroke-width:1;"/><line style="stroke:#FFFFFF;stroke-width:1.5;" x1="13" x2="35" y1="294.6245" y2="294.6245"/><line style="stroke:#FFFFFF;stroke-width:1.5;" x1="165.7686" x2="191.7686" y1="294.6245" y2="294.6245"/><path d="M176.7686,294.6245 L176.7686,291.6245 L182.7686,294.6245 L176.7686,297.6245 L176.7686,294.6245" fill="#FFFFFF"/><text fill="#FFFFFF" font-family="Verdana" font-size="14" font-weight="bold" lengthAdjust="spacing" textLength="117.6055" x="5" y="522.2803">UnicodeEscape</text><line style="stroke:#FFFFFF;stroke-width:1.5;" x1="35" x2="35" y1="548.7271" y2="548.7271"/><rect fill="none" height="27.0146" style="stroke:#FFFFFF;stroke-width:0.5;" width="18.8594" x="35" y="535.2197"/><text fill="#FFFFFF" font-family="Verdana" font-size="14" lengthAdjust="spacing" textLength="8.8594" x="40" y="554.2949">u</text><line style="stroke:#FFFFFF;stroke-width:1.5;" x1="53.8594" x2="73.8594" y1="548.7271" y2="548.7271"/><rect fill="#0B58A8" height="27.0146" rx="5" ry="5" style="stroke:#FFFFFF;stroke-width:1.5;" width="69.8555" x="73.8594" y="535.2197"/><text fill="#FFFFFF" font-family="Verdana" font-size="14" lengthAdjust="spacing" textLength="59.8555" x="78.8594" y="554.2949">HexDigit</text><line style="stroke:#FFFFFF;stroke-width:1.5;" x1="143.7148" x2="163.7148" y1="548.7271" y2="548.7271"/><rect fill="#0B58A8" height="27.0146" rx="5" ry="5" style="stroke:#FFFFFF;stroke-width:1.5;" width="69.8555" x="163.7148" y="535.2197"/><text fill="#FFFFFF" font-family="Verdana" font-size="14" lengthAdjust="spacing" textLength="59.8555" x="168.7148" y="554.2949">HexDigit</text><line style="stroke:#FFFFFF;stroke-width:1.5;" x1="233.5703" x2="253.5703" y1="548.7271" y2="548.7271"/><rect fill="#0B58A8" height="27.0146" rx="5" ry="5" style="stroke:#FFFFFF;stroke-width:1.5;" width="69.8555" x="253.5703" y="535.2197"/><text fill="#FFFFFF" font-family="Verdana" font-size="14" lengthAdjust="spacing" textLength="59.8555" x="258.5703" y="554.2949">HexDigit</text><line style="stroke:#FFFFFF;stroke-width:1.5;" x1="323.4258" x2="343.4258" y1="548.7271" y2="548.7271"/><rect fill="#0B58A8" height="27.0146" rx="5" ry="5" style="stroke:#FFFFFF;stroke-width:1.5;" width="69.8555" x="343.4258" y="535.2197"/><text fill="#FFFFFF" font-family="Verdana" font-size="14" lengthAdjust="spacing" textLength="59.8555" x="348.4258" y="554.2949">HexDigit</text><ellipse cx="9" cy="548.7271" fill="none" rx="4" ry="4" style="stroke:#FFFFFF;stroke-width:2;"/><ellipse cx="443.2813" cy="548.7271" fill="#FFFFFF" rx="4" ry="4" style="stroke:#FFFFFF;stroke-width:1;"/><line style="stroke:#FFFFFF;stroke-width:1.5;" x1="13" x2="35" y1="548.7271" y2="548.7271"/><line style="stroke:#FFFFFF;stroke-width:1.5;" x1="413.2813" x2="439.2813" y1="548.7271" y2="548.7271"/><path d="M424.2813,548.7271 L424.2813,545.7271 L430.2813,548.7271 L424.2813,551.7271 L424.2813,548.7271" fill="#FFFFFF"/><text fill="#FFFFFF" font-family="Verdana" font-size="14" font-weight="bold" lengthAdjust="spacing" textLength="95.1973" x="5" y="591.3096">OctalEscape</text><line style="stroke:#FFFFFF;stroke-width:1.5;" x1="35" x2="35" y1="617.7563" y2="617.7563"/><rect fill="none" height="27.0146" style="stroke:#FFFFFF;stroke-width:0.5;" width="18.4971" x="35" y="604.249"/><text fill="#FFFFFF" font-family="Verdana" font-size="14" lengthAdjust="spacing" textLength="8.4971" x="40" y="623.3242">o</text><line style="stroke:#FFFFFF;stroke-width:1.5;" x1="53.4971" x2="73.4971" y1="617.7563" y2="617.7563"/><rect fill="#0B58A8" height="27.0146" rx="5" ry="5" style="stroke:#FFFFFF;stroke-width:1.5;" width="46.0801" x="73.4971" y="604.249"/><text fill="#FFFFFF" font-family="Verdana" font-size="14" lengthAdjust="spacing" textLength="36.0801" x="78.4971" y="623.3242">Octal</text><ellipse cx="9" cy="617.7563" fill="none" rx="4" ry="4" style="stroke:#FFFFFF;stroke-width:2;"/><ellipse cx="149.5771" cy="617.7563" fill="#FFFFFF" rx="4" ry="4" style="stroke:#FFFFFF;stroke-width:1;"/><line style="stroke:#FFFFFF;stroke-width:1.5;" x1="13" x2="35" y1="617.7563" y2="617.7563"/><line style="stroke:#FFFFFF;stroke-width:1.5;" x1="119.5771" x2="145.5771" y1="617.7563" y2="617.7563"/><path d="M130.5771,617.7563 L130.5771,614.7563 L136.5771,617.7563 L130.5771,620.7563 L130.5771,617.7563" fill="#FFFFFF"/><text fill="#FFFFFF" font-family="Verdana" font-size="14" font-weight="bold" lengthAdjust="spacing" textLength="40.6533" x="5" y="660.3389">Octal</text><line style="stroke:#FFFFFF;stroke-width:1.5;" x1="59" x2="59" y1="686.7856" y2="686.7856"/><rect fill="#0B58A8" height="27.0146" rx="5" ry="5" style="stroke:#FFFFFF;stroke-width:1.5;" width="78.79" x="59" y="673.2783"/><text fill="#FFFFFF" font-family="Verdana" font-size="14" lengthAdjust="spacing" textLength="68.79" x="64" y="692.3535">OctalDigit</text><line style="stroke:#FFFFFF;stroke-width:1.5;" x1="137.79" x2="157.79" y1="686.7856" y2="686.7856"/><line style="stroke:#FFFFFF;stroke-width:1.5;" x1="157.79" x2="284.5801" y1="686.7856" y2="686.7856"/><path d="M206.5061,686.7856 L206.5061,683.7856 L212.5061,686.7856 L206.5061,689.7856 L206.5061,686.7856" fill="#FFFFFF"/><path d="M157.79,686.7856 C166.79,686.7856 169.79,689.5393 169.79,698.5393 C169.79,707.5393 172.79,710.293 181.79,710.293" fill="none" style="stroke:#FFFFFF;stroke-width:1.5;"/><path d="M260.5801,710.293 C269.5801,710.293 272.5801,707.5393 272.5801,698.5393 C272.5801,689.5393 275.5801,686.7856 284.5801,686.7856" fill="none" style="stroke:#FFFFFF;stroke-width:1.5;"/><rect fill="#0B58A8" height="27.0146" rx="5" ry="5" style="stroke:#FFFFFF;stroke-width:1.5;" width="78.79" x="181.79" y="696.7856"/><text fill="#FFFFFF" font-family="Verdana" font-size="14" lengthAdjust="spacing" textLength="68.79" x="186.79" y="715.8608">OctalDigit</text><line style="stroke:#FFFFFF;stroke-width:1.5;" x1="35" x2="59" y1="686.7856" y2="686.7856"/><line style="stroke:#FFFFFF;stroke-width:1.5;" x1="284.5801" x2="311.457" y1="686.7856" y2="686.7856"/><line style="stroke:#FFFFFF;stroke-width:1.5;" x1="59" x2="59" y1="774.3076" y2="774.3076"/><rect fill="#0B58A8" height="27.0146" rx="5" ry="5" style="stroke:#FFFFFF;stroke-width:1.5;" width="99.667" x="59" y="760.8003"/><text fill="#FFFFFF" font-family="Verdana" font-size="14" lengthAdjust="spacing" textLength="89.667" x="64" y="779.8755">ZeroToThree</text><line style="stroke:#FFFFFF;stroke-width:1.5;" x1="158.667" x2="178.667" y1="774.3076" y2="774.3076"/><path d="M186.667,766.3076 C186.667,772.3076 188.667,774.3076 194.667,774.3076" fill="none" style="stroke:#FFFFFF;stroke-width:1.5;"/><line style="stroke:#FFFFFF;stroke-width:1.5;" x1="186.667" x2="186.667" y1="761.8003" y2="766.3076"/><path d="M186.667,761.8003 C186.667,755.8003 188.667,753.8003 194.667,753.8003" fill="none" style="stroke:#FFFFFF;stroke-width:1.5;"/><line style="stroke:#FFFFFF;stroke-width:1.5;" x1="193.667" x2="272.457" y1="753.8003" y2="753.8003"/><path d="M238.941,753.8003 L238.941,750.8003 L232.941,753.8003 L238.941,756.8003 L238.941,753.8003" fill="#FFFFFF"/><path d="M279.457,766.3076 C279.457,772.3076 277.457,774.3076 271.457,774.3076" fill="none" style="stroke:#FFFFFF;stroke-width:1.5;"/><line style="stroke:#FFFFFF;stroke-width:1.5;" x1="279.457" x2="279.457" y1="761.8003" y2="766.3076"/><path d="M271.457,753.8003 C277.457,753.8003 279.457,755.8003 279.457,761.8003" fill="none" style="stroke:#FFFFFF;stroke-width:1.5;"/><line style="stroke:#FFFFFF;stroke-width:1.5;" x1="178.667" x2="193.667" y1="774.3076" y2="774.3076"/><line style="stroke:#FFFFFF;stroke-width:1.5;" x1="272.457" x2="287.457" y1="774.3076" y2="774.3076"/><rect fill="#0B58A8" height="27.0146" rx="5" ry="5" style="stroke:#FFFFFF;stroke-width:1.5;" width="78.79" x="193.667" y="760.8003"/><text fill="#FFFFFF" font-family="Verdana" font-size="14" lengthAdjust="spacing" textLength="68.79" x="198.667" y="779.8755">OctalDigit</text><path d="M178.667,748.8003 C178.667,745.0503 179.917,743.8003 183.667,743.8003" fill="none" style="stroke:#FFFFFF;stroke-width:0.5;"/><path d="M233.062,738.8003 C233.062,742.5503 231.812,743.8003 228.062,743.8003" fill="none" style="stroke:#FFFFFF;stroke-width:0.5;"/><path d="M233.062,738.8003 C233.062,742.5503 234.312,743.8003 238.062,743.8003" fill="none" style="stroke:#FFFFFF;stroke-width:0.5;"/><path d="M282.457,743.8003 C286.207,743.8003 287.457,745.0503 287.457,748.8003" fill="none" style="stroke:#FFFFFF;stroke-width:0.5;"/><line style="stroke:#FFFFFF;stroke-width:0.5;" x1="183.667" x2="228.062" y1="743.8003" y2="743.8003"/><line style="stroke:#FFFFFF;stroke-width:0.5;" x1="238.062" x2="282.457" y1="743.8003" y2="743.8003"/><text fill="#FFFFFF" font-family="Verdana" font-size="12" lengthAdjust="spacing" textLength="17.4492" x="224.3374" y="736.3198">2&#215;</text><line style="stroke:#FFFFFF;stroke-width:1.5;" x1="287.457" x2="287.457" y1="774.3076" y2="774.3076"/><path d="M47,762.3076 C47,771.3076 50,774.3076 59,774.3076" fill="none" style="stroke:#FFFFFF;stroke-width:1.5;"/><line style="stroke:#FFFFFF;stroke-width:1.5;" x1="47" x2="47" y1="698.7856" y2="762.3076"/><path d="M35,686.7856 C44,686.7856 47,689.7856 47,698.7856" fill="none" style="stroke:#FFFFFF;stroke-width:1.5;"/><path d="M299.457,762.3076 C299.457,771.3076 296.457,774.3076 287.457,774.3076" fill="none" style="stroke:#FFFFFF;stroke-width:1.5;"/><line style="stroke:#FFFFFF;stroke-width:1.5;" x1="299.457" x2="299.457" y1="698.7856" y2="762.3076"/><path d="M299.457,698.7856 C299.457,689.7856 302.457,686.7856 311.457,686.7856" fill="none" style="stroke:#FFFFFF;stroke-width:1.5;"/><ellipse cx="9" cy="686.7856" fill="none" rx="4" ry="4" style="stroke:#FFFFFF;stroke-width:2;"/><ellipse cx="341.457" cy="686.7856" fill="#FFFFFF" rx="4" ry="4" style="stroke:#FFFFFF;stroke-width:1;"/><line style="stroke:#FFFFFF;stroke-width:1.5;" x1="13" x2="35" y1="686.7856" y2="686.7856"/><line style="stroke:#FFFFFF;stroke-width:1.5;" x1="311.457" x2="337.457" y1="686.7856" y2="686.7856"/><path d="M322.457,686.7856 L322.457,683.7856 L328.457,686.7856 L322.457,689.7856 L322.457,686.7856" fill="#FFFFFF"/><text fill="#FFFFFF" font-family="Verdana" font-size="14" font-weight="bold" lengthAdjust="spacing" textLength="78.0117" x="5" y="816.8901">OctalDigit</text><rect fill="none" height="27.0146" style="stroke:#FFFFFF;stroke-width:1;stroke-dasharray:5,5;" width="44.002" x="35" y="829.8296"/><text fill="#FFFFFF" font-family="Verdana" font-size="14" lengthAdjust="spacing" textLength="24.1582" x="44.9219" y="848.9048">0-7</text><ellipse cx="9" cy="843.3369" fill="none" rx="4" ry="4" style="stroke:#FFFFFF;stroke-width:2;"/><ellipse cx="109.002" cy="843.3369" fill="#FFFFFF" rx="4" ry="4" style="stroke:#FFFFFF;stroke-width:1;"/><line style="stroke:#FFFFFF;stroke-width:1.5;" x1="13" x2="35" y1="843.3369" y2="843.3369"/><line style="stroke:#FFFFFF;stroke-width:1.5;" x1="79.002" x2="105.002" y1="843.3369" y2="843.3369"/><path d="M90.002,843.3369 L90.002,840.3369 L96.002,843.3369 L90.002,846.3369 L90.002,843.3369" fill="#FFFFFF"/><text fill="#FFFFFF" font-family="Verdana" font-size="14" font-weight="bold" lengthAdjust="spacing" textLength="99.7773" x="5" y="885.9194">ZeroToThree</text><rect fill="none" height="27.0146" style="stroke:#FFFFFF;stroke-width:1;stroke-dasharray:5,5;" width="44.002" x="35" y="898.8589"/><text fill="#FFFFFF" font-family="Verdana" font-size="14" lengthAdjust="spacing" textLength="24.1582" x="44.9219" y="917.9341">0-3</text><ellipse cx="9" cy="912.3662" fill="none" rx="4" ry="4" style="stroke:#FFFFFF;stroke-width:2;"/><ellipse cx="109.002" cy="912.3662" fill="#FFFFFF" rx="4" ry="4" style="stroke:#FFFFFF;stroke-width:1;"/><line style="stroke:#FFFFFF;stroke-width:1.5;" x1="13" x2="35" y1="912.3662" y2="912.3662"/><line style="stroke:#FFFFFF;stroke-width:1.5;" x1="79.002" x2="105.002" y1="912.3662" y2="912.3662"/><path d="M90.002,912.3662 L90.002,909.3662 L96.002,912.3662 L90.002,915.3662 L90.002,912.3662" fill="#FFFFFF"/><text fill="#FFFFFF" font-family="Verdana" font-size="14" font-weight="bold" lengthAdjust="spacing" textLength="67.7441" x="5" y="954.9487">HexDigit</text><rect fill="none" height="27.0146" style="stroke:#FFFFFF;stroke-width:1;stroke-dasharray:5,5;" width="111.6709" x="35" y="967.8882"/><text fill="#FFFFFF" font-family="Verdana" font-size="14" lengthAdjust="spacing" textLength="91.8271" x="44.9219" y="986.9634">0-9, a-z, A-Z</text><ellipse cx="9" cy="981.3955" fill="none" rx="4" ry="4" style="stroke:#FFFFFF;stroke-width:2;"/><ellipse cx="176.6709" cy="981.3955" fill="#FFFFFF" rx="4" ry="4" style="stroke:#FFFFFF;stroke-width:1;"/><line style="stroke:#FFFFFF;stroke-width:1.5;" x1="13" x2="35" y1="981.3955" y2="981.3955"/><line style="stroke:#FFFFFF;stroke-width:1.5;" x1="146.6709" x2="172.6709" y1="981.3955" y2="981.3955"/><path d="M157.6709,981.3955 L157.6709,978.3955 L163.6709,981.3955 L157.6709,984.3955 L157.6709,981.3955" fill="#FFFFFF"/><!--SRC=[xLVVS-8s47xtNx6bBqadN0r9seIxwuLVkLmA2NEGTERQFWXx0HKZ-MIPX6loltSbOx03N2u9VUcK6S1QVVj9-dQraayYpPJ6lXWut-aHJX3OX0-PuzH7J35FeuAtKFYZ07km0yRMucHZ0TpPrWKZZpku4joJFZOZZuMcVUbf5inRk_0wOKizty8xg8eP22cADoCoHY7p4Bp5WEzI3yjEmmky2RZ00Z4NBDW-QTQt_mfrh8Hzx3Dll0GCf9eC4Fs2uSjFaKXZiwOpl6tm8TUFFn95TbL480jxoK8NVMGbbNOIQyhmUxRv9ybnHuXFg6HFzaOAaI1b-24BsaqqorYCP6xnvqIPh6_IiPzqBEQQM8_tW1M_x46r-Cdsdw3mRQ2TasNGay-RICy2_CK1K59g-9iU06eavb39MFXr6KW5txkrmwFgaUqxbKBFhQVsix3Qc5sZyfbWrdWs2v5YByOflb7TBn_QBhBYAeknzaRS6mkC8YXPMvkf8HTWtExfwqildg18PqeHqLoAUUiXWskjz_PtGCkZ37iSE4BcVnDGSntW0cSKwF8l2ENo8vxcQzGDpx8ZhMZ-GDtraUYQw45V1lwSM52cpndRx9PFuibltDSZs7VTEKBX01KA3_-DuICCQIzhkLNQDp_EazI9nboO0IPGLKhUj6GGy526UUubQ5CUBn4D7B0uq2lfku9eIo5jVV4NsBgC5KULmRRu04svwchI08Ucq4Kou7u6qg7jnpqUCg4xpFUv64B9pVHtyNDiWcEeJ0BLfA8WRLfWTyHyUMD81Yo8CDDp5M4DDKkKr2h6d7YUvbEkPpP8cpTxZQc7KLitdVKrOKNI-snWp71C9HDOzSv3RoqgLUimrrldoWlGNnvP3mWNQrc96i17vlCuWkCyOS1eipwYotP4i4DLjLQy7slS8CMtS7HfuIWrLTldaPmkI-EJVJD5vEc-vdoW_JAsxlb38elxu4dHeMYm8UQGYwJS4AaL3iMdJB-KWxIYJFDVnXBt0-uzc-92FZTVBlj_qUoJ_5wJnVUvIhLKV4iPtzMf_4_RN7cEDDchwvc-MglMCzMtnjJS6jE7hJ5Tl929Zf8wYp0Xx3snolp_Dl4VVfle17IDkMgtO8egCjVmqgkoMpvyLN9tUZ5IcPg2Um2beqhPhHmSGxtP0zE_w-oyxxGWefEOukNpA3a2YM3NEMTJ1XzZeVa4At0PeZXl_9eQe2ccN4bXNW2Sy-ls4l3JGR564-wYegd0TTkPNzl8Ww95zuOANFLEYqTEYubXJ6Mj0YWSkWi8hMOLQ3J_0G00]--></g></svg>