<svg xmlns="http://www.w3.org/2000/svg" xmlns:xlink="http://www.w3.org/1999/xlink" contentStyleType="text/css" data-diagram-type="EBNF" height="1354px" preserveAspectRatio="none" style="width:609px;height:1354px;background:#0B58A8;" version="1.1" viewBox="0 0 609 1354" width="609px" zoomAndPan="magnify"><defs/><g><rect fill="#0B58A8" height="1354" style="stroke:none;stroke-width:1;" width="609" x="0" y="0"/><text fill="#FFFFFF" font-family="Verdana" font-size="14" font-weight="bold" lengthAdjust="spacing" textLength="59.3359" x="5" y="19.0752">Integer</text><line style="stroke:#FFFFFF;stroke-width:1.5;" x1="35" x2="35" y1="45.522" y2="45.522"/><line style="stroke:#FFFFFF;stroke-width:1.5;" x1="35" x2="152.457" y1="45.522" y2="45.522"/><path d="M79.9828,45.522 L79.9828,42.522 L85.9828,45.522 L79.9828,48.522 L79.9828,45.522" fill="#FFFFFF"/><path d="M35,45.522 C44,45.522 47,48.2756 47,57.2756 C47,66.2756 50,69.0293 59,69.0293" fill="none" style="stroke:#FFFFFF;stroke-width:1.5;"/><path d="M128.457,69.0293 C137.457,69.0293 140.457,66.2756 140.457,57.2756 C140.457,48.2756 143.457,45.522 152.457,45.522" fill="none" style="stroke:#FFFFFF;stroke-width:1.5;"/><rect fill="none" height="27.0146" style="stroke:#FFFFFF;stroke-width:0.5;" width="16.3574" x="83" y="55.522"/><text fill="#FFFFFF" font-family="Verdana" font-size="14" lengthAdjust="spacing" textLength="6.3574" x="88" y="74.5972">-</text><line style="stroke:#FFFFFF;stroke-width:1.5;" x1="59" x2="83" y1="69.0293" y2="69.0293"/><line style="stroke:#FFFFFF;stroke-width:1.5;" x1="99.3574" x2="128.457" y1="69.0293" y2="69.0293"/><rect fill="none" height="27.0146" style="stroke:#FFFFFF;stroke-width:0.5;" width="21.457" x="83" y="92.5366"/><text fill="#FFFFFF" font-family="Verdana" font-size="14" lengthAdjust="spacing" textLength="11.457" x="88" y="111.6118">+</text><line style="stroke:#FFFFFF;stroke-width:1.5;" x1="104.457" x2="104.457" y1="106.0439" y2="106.0439"/><path d="M71,94.0439 C71,103.0439 74,106.0439 83,106.0439" fill="none" style="stroke:#FFFFFF;stroke-width:1.5;"/><line style="stroke:#FFFFFF;stroke-width:1.5;" x1="71" x2="71" y1="81.0293" y2="94.0439"/><path d="M59,69.0293 C68,69.0293 71,72.0293 71,81.0293" fill="none" style="stroke:#FFFFFF;stroke-width:1.5;"/><path d="M116.457,94.0439 C116.457,103.0439 113.457,106.0439 104.457,106.0439" fill="none" style="stroke:#FFFFFF;stroke-width:1.5;"/><line style="stroke:#FFFFFF;stroke-width:1.5;" x1="116.457" x2="116.457" y1="81.0293" y2="94.0439"/><path d="M116.457,81.0293 C116.457,72.0293 119.457,69.0293 128.457,69.0293" fill="none" style="stroke:#FFFFFF;stroke-width:1.5;"/><line style="stroke:#FFFFFF;stroke-width:1.5;" x1="152.457" x2="172.457" y1="45.522" y2="45.522"/><rect fill="#0B58A8" height="27.0146" rx="5" ry="5" style="stroke:#FFFFFF;stroke-width:1.5;" width="97.7803" x="172.457" y="32.0146"/><text fill="#FFFFFF" font-family="Verdana" font-size="14" lengthAdjust="spacing" textLength="87.7803" x="177.457" y="51.0898">IntegerForm</text><ellipse cx="9" cy="45.522" fill="none" rx="4" ry="4" style="stroke:#FFFFFF;stroke-width:2;"/><ellipse cx="300.2373" cy="45.522" fill="#FFFFFF" rx="4" ry="4" style="stroke:#FFFFFF;stroke-width:1;"/><line style="stroke:#FFFFFF;stroke-width:1.5;" x1="13" x2="35" y1="45.522" y2="45.522"/><line style="stroke:#FFFFFF;stroke-width:1.5;" x1="270.2373" x2="296.2373" y1="45.522" y2="45.522"/><path d="M281.2373,45.522 L281.2373,42.522 L287.2373,45.522 L281.2373,48.522 L281.2373,45.522" fill="#FFFFFF"/><text fill="#FFFFFF" font-family="Verdana" font-size="14" font-weight="bold" lengthAdjust="spacing" textLength="99.8252" x="5" y="148.6265">IntegerForm</text><rect fill="#0B58A8" height="27.0146" rx="5" ry="5" style="stroke:#FFFFFF;stroke-width:1.5;" width="117.7754" x="59" y="161.5659"/><text fill="#FFFFFF" font-family="Verdana" font-size="14" lengthAdjust="spacing" textLength="107.7754" x="64" y="180.6411">DecimalInteger</text><line style="stroke:#FFFFFF;stroke-width:1.5;" x1="35" x2="59" y1="175.0732" y2="175.0732"/><line style="stroke:#FFFFFF;stroke-width:1.5;" x1="176.7754" x2="234.2646" y1="175.0732" y2="175.0732"/><rect fill="#0B58A8" height="27.0146" rx="5" ry="5" style="stroke:#FFFFFF;stroke-width:1.5;" width="97.7256" x="59" y="198.5806"/><text fill="#FFFFFF" font-family="Verdana" font-size="14" lengthAdjust="spacing" textLength="87.7256" x="64" y="217.6558">OctalInteger</text><path d="M47,200.0879 C47,209.0879 50,212.0879 59,212.0879" fill="none" style="stroke:#FFFFFF;stroke-width:1.5;"/><line style="stroke:#FFFFFF;stroke-width:1.5;" x1="156.7256" x2="210.2646" y1="212.0879" y2="212.0879"/><path d="M181.4951,212.0879 L181.4951,209.0879 L187.4951,212.0879 L181.4951,215.0879 L181.4951,212.0879" fill="#FFFFFF"/><path d="M222.2646,200.0879 C222.2646,209.0879 219.2646,212.0879 210.2646,212.0879" fill="none" style="stroke:#FFFFFF;stroke-width:1.5;"/><rect fill="#0B58A8" height="27.0146" rx="5" ry="5" style="stroke:#FFFFFF;stroke-width:1.5;" width="151.2646" x="59" y="235.5952"/><text fill="#FFFFFF" font-family="Verdana" font-size="14" lengthAdjust="spacing" textLength="141.2646" x="64" y="254.6704">HexadecimalInteger</text><path d="M47,237.1025 C47,246.1025 50,249.1025 59,249.1025" fill="none" style="stroke:#FFFFFF;stroke-width:1.5;"/><line style="stroke:#FFFFFF;stroke-width:1.5;" x1="210.2646" x2="210.2646" y1="249.1025" y2="249.1025"/><path d="M222.2646,237.1025 C222.2646,246.1025 219.2646,249.1025 210.2646,249.1025" fill="none" style="stroke:#FFFFFF;stroke-width:1.5;"/><rect fill="#0B58A8" height="27.0146" rx="5" ry="5" style="stroke:#FFFFFF;stroke-width:1.5;" width="100.6377" x="59" y="272.6099"/><text fill="#FFFFFF" font-family="Verdana" font-size="14" lengthAdjust="spacing" textLength="90.6377" x="64" y="291.6851">RadixInteger</text><line style="stroke:#FFFFFF;stroke-width:1.5;" x1="159.6377" x2="210.2646" y1="286.1172" y2="286.1172"/><path d="M182.9512,286.1172 L182.9512,283.1172 L188.9512,286.1172 L182.9512,289.1172 L182.9512,286.1172" fill="#FFFFFF"/><path d="M47,274.1172 C47,283.1172 50,286.1172 59,286.1172" fill="none" style="stroke:#FFFFFF;stroke-width:1.5;"/><line style="stroke:#FFFFFF;stroke-width:1.5;" x1="47" x2="47" y1="187.0732" y2="274.1172"/><path d="M35,175.0732 C44,175.0732 47,178.0732 47,187.0732" fill="none" style="stroke:#FFFFFF;stroke-width:1.5;"/><path d="M222.2646,274.1172 C222.2646,283.1172 219.2646,286.1172 210.2646,286.1172" fill="none" style="stroke:#FFFFFF;stroke-width:1.5;"/><line style="stroke:#FFFFFF;stroke-width:1.5;" x1="222.2646" x2="222.2646" y1="187.0732" y2="274.1172"/><path d="M222.2646,187.0732 C222.2646,178.0732 225.2646,175.0732 234.2646,175.0732" fill="none" style="stroke:#FFFFFF;stroke-width:1.5;"/><ellipse cx="9" cy="175.0732" fill="none" rx="4" ry="4" style="stroke:#FFFFFF;stroke-width:2;"/><ellipse cx="264.2646" cy="175.0732" fill="#FFFFFF" rx="4" ry="4" style="stroke:#FFFFFF;stroke-width:1;"/><line style="stroke:#FFFFFF;stroke-width:1.5;" x1="13" x2="35" y1="175.0732" y2="175.0732"/><line style="stroke:#FFFFFF;stroke-width:1.5;" x1="234.2646" x2="260.2646" y1="175.0732" y2="175.0732"/><path d="M245.2646,175.0732 L245.2646,172.0732 L251.2646,175.0732 L245.2646,178.0732 L245.2646,175.0732" fill="#FFFFFF"/><text fill="#FFFFFF" font-family="Verdana" font-size="14" font-weight="bold" lengthAdjust="spacing" textLength="122.2266" x="5" y="328.6997">DecimalInteger</text><line style="stroke:#FFFFFF;stroke-width:1.5;" x1="35" x2="35" y1="355.1465" y2="355.1465"/><line style="stroke:#FFFFFF;stroke-width:1.5;" x1="59" x2="59" y1="355.1465" y2="355.1465"/><rect fill="none" height="27.0146" style="stroke:#FFFFFF;stroke-width:1;stroke-dasharray:5,5;" width="111.541" x="59" y="341.6392"/><text fill="#FFFFFF" font-family="Verdana" font-size="14" lengthAdjust="spacing" textLength="91.6973" x="68.9219" y="360.7144">Decimal digit</text><line style="stroke:#FFFFFF;stroke-width:1.5;" x1="170.541" x2="190.541" y1="355.1465" y2="355.1465"/><text fill="#FFFFFF" font-family="Verdana" font-size="14" lengthAdjust="spacing" textLength="30.1191" x="193.541" y="359.0859">NOT</text><line style="stroke:#FFFFFF;stroke-width:1.5;" x1="228.6602" x2="228.6602" y1="355.1465" y2="355.1465"/><rect fill="none" height="27.0146" style="stroke:#FFFFFF;stroke-width:0.5;" width="18.9004" x="228.6602" y="341.6392"/><text fill="#FFFFFF" font-family="Verdana" font-size="14" lengthAdjust="spacing" textLength="8.9004" x="233.6602" y="360.7144">0</text><line style="stroke:#FFFFFF;stroke-width:1.5;" x1="247.5605" x2="267.5605" y1="355.1465" y2="355.1465"/><line style="stroke:#FFFFFF;stroke-width:1.5;" x1="267.5605" x2="457.1016" y1="355.1465" y2="355.1465"/><path d="M341.377,355.1465 L341.377,352.1465 L347.377,355.1465 L341.377,358.1465 L341.377,355.1465" fill="#FFFFFF"/><path d="M267.5605,355.1465 C276.5605,355.1465 279.5605,363.9001 279.5605,372.9001 C279.5605,381.9001 282.5605,390.6538 291.5605,390.6538" fill="none" style="stroke:#FFFFFF;stroke-width:1.5;"/><path d="M433.1016,390.6538 C442.1016,390.6538 445.1016,381.9001 445.1016,372.9001 C445.1016,363.9001 448.1016,355.1465 457.1016,355.1465" fill="none" style="stroke:#FFFFFF;stroke-width:1.5;"/><path d="M299.5605,382.6538 C299.5605,388.6538 301.5605,390.6538 307.5605,390.6538" fill="none" style="stroke:#FFFFFF;stroke-width:1.5;"/><line style="stroke:#FFFFFF;stroke-width:1.5;" x1="299.5605" x2="299.5605" y1="378.1465" y2="382.6538"/><path d="M299.5605,378.1465 C299.5605,372.1465 301.5605,370.1465 307.5605,370.1465" fill="none" style="stroke:#FFFFFF;stroke-width:1.5;"/><line style="stroke:#FFFFFF;stroke-width:1.5;" x1="306.5605" x2="418.1016" y1="370.1465" y2="370.1465"/><path d="M371.4852,370.1465 L371.4852,367.1465 L365.4852,370.1465 L371.4852,373.1465 L371.4852,370.1465" fill="#FFFFFF"/><path d="M425.1016,382.6538 C425.1016,388.6538 423.1016,390.6538 417.1016,390.6538" fill="none" style="stroke:#FFFFFF;stroke-width:1.5;"/><line style="stroke:#FFFFFF;stroke-width:1.5;" x1="425.1016" x2="425.1016" y1="378.1465" y2="382.6538"/><path d="M417.1016,370.1465 C423.1016,370.1465 425.1016,372.1465 425.1016,378.1465" fill="none" style="stroke:#FFFFFF;stroke-width:1.5;"/><line style="stroke:#FFFFFF;stroke-width:1.5;" x1="291.5605" x2="306.5605" y1="390.6538" y2="390.6538"/><line style="stroke:#FFFFFF;stroke-width:1.5;" x1="418.1016" x2="433.1016" y1="390.6538" y2="390.6538"/><rect fill="none" height="27.0146" style="stroke:#FFFFFF;stroke-width:1;stroke-dasharray:5,5;" width="111.541" x="306.5605" y="377.1465"/><text fill="#FFFFFF" font-family="Verdana" font-size="14" lengthAdjust="spacing" textLength="91.6973" x="316.4824" y="396.2217">Decimal digit</text><line style="stroke:#FFFFFF;stroke-width:1.5;" x1="35" x2="59" y1="355.1465" y2="355.1465"/><line style="stroke:#FFFFFF;stroke-width:1.5;" x1="457.1016" x2="481.1016" y1="355.1465" y2="355.1465"/><rect fill="none" height="27.0146" style="stroke:#FFFFFF;stroke-width:0.5;" width="18.9004" x="59" y="414.1611"/><text fill="#FFFFFF" font-family="Verdana" font-size="14" lengthAdjust="spacing" textLength="8.9004" x="64" y="433.2363">0</text><line style="stroke:#FFFFFF;stroke-width:1.5;" x1="77.9004" x2="457.1016" y1="427.6685" y2="427.6685"/><path d="M265.501,427.6685 L265.501,424.6685 L271.501,427.6685 L265.501,430.6685 L265.501,427.6685" fill="#FFFFFF"/><path d="M47,415.6685 C47,424.6685 50,427.6685 59,427.6685" fill="none" style="stroke:#FFFFFF;stroke-width:1.5;"/><line style="stroke:#FFFFFF;stroke-width:1.5;" x1="47" x2="47" y1="367.1465" y2="415.6685"/><path d="M35,355.1465 C44,355.1465 47,358.1465 47,367.1465" fill="none" style="stroke:#FFFFFF;stroke-width:1.5;"/><path d="M469.1016,415.6685 C469.1016,424.6685 466.1016,427.6685 457.1016,427.6685" fill="none" style="stroke:#FFFFFF;stroke-width:1.5;"/><line style="stroke:#FFFFFF;stroke-width:1.5;" x1="469.1016" x2="469.1016" y1="367.1465" y2="415.6685"/><path d="M469.1016,367.1465 C469.1016,358.1465 472.1016,355.1465 481.1016,355.1465" fill="none" style="stroke:#FFFFFF;stroke-width:1.5;"/><line style="stroke:#FFFFFF;stroke-width:1.5;" x1="481.1016" x2="501.1016" y1="355.1465" y2="355.1465"/><line style="stroke:#FFFFFF;stroke-width:1.5;" x1="501.1016" x2="569.5742" y1="355.1465" y2="355.1465"/><path d="M526.4906,355.1465 L526.4906,352.1465 L532.4906,355.1465 L526.4906,358.1465 L526.4906,355.1465" fill="#FFFFFF"/><path d="M501.1016,355.1465 C510.1016,355.1465 513.1016,357.9001 513.1016,366.9001 C513.1016,375.9001 516.1016,378.6538 525.1016,378.6538" fill="none" style="stroke:#FFFFFF;stroke-width:1.5;"/><path d="M545.5742,378.6538 C554.5742,378.6538 557.5742,375.9001 557.5742,366.9001 C557.5742,357.9001 560.5742,355.1465 569.5742,355.1465" fill="none" style="stroke:#FFFFFF;stroke-width:1.5;"/><rect fill="none" height="27.0146" style="stroke:#FFFFFF;stroke-width:0.5;" width="20.4727" x="525.1016" y="365.1465"/><text fill="#FFFFFF" font-family="Verdana" font-size="14" lengthAdjust="spacing" textLength="10.4727" x="530.1016" y="384.2217">N</text><ellipse cx="9" cy="355.1465" fill="none" rx="4" ry="4" style="stroke:#FFFFFF;stroke-width:2;"/><ellipse cx="599.5742" cy="355.1465" fill="#FFFFFF" rx="4" ry="4" style="stroke:#FFFFFF;stroke-width:1;"/><line style="stroke:#FFFFFF;stroke-width:1.5;" x1="13" x2="35" y1="355.1465" y2="355.1465"/><line style="stroke:#FFFFFF;stroke-width:1.5;" x1="569.5742" x2="595.5742" y1="355.1465" y2="355.1465"/><path d="M580.5742,355.1465 L580.5742,352.1465 L586.5742,355.1465 L580.5742,358.1465 L580.5742,355.1465" fill="#FFFFFF"/><text fill="#FFFFFF" font-family="Verdana" font-size="14" font-weight="bold" lengthAdjust="spacing" textLength="99.9893" x="5" y="470.251">OctalInteger</text><line style="stroke:#FFFFFF;stroke-width:1.5;" x1="35" x2="35" y1="496.6978" y2="496.6978"/><rect fill="none" height="27.0146" style="stroke:#FFFFFF;stroke-width:0.5;" width="18.9004" x="35" y="483.1904"/><text fill="#FFFFFF" font-family="Verdana" font-size="14" lengthAdjust="spacing" textLength="8.9004" x="40" y="502.2656">0</text><line style="stroke:#FFFFFF;stroke-width:1.5;" x1="53.9004" x2="73.9004" y1="496.6978" y2="496.6978"/><rect fill="#0B58A8" height="27.0146" rx="5" ry="5" style="stroke:#FFFFFF;stroke-width:1.5;" width="46.0801" x="73.9004" y="483.1904"/><text fill="#FFFFFF" font-family="Verdana" font-size="14" lengthAdjust="spacing" textLength="36.0801" x="78.9004" y="502.2656">Octal</text><line style="stroke:#FFFFFF;stroke-width:1.5;" x1="119.9805" x2="139.9805" y1="496.6978" y2="496.6978"/><line style="stroke:#FFFFFF;stroke-width:1.5;" x1="139.9805" x2="257.7793" y1="496.6978" y2="496.6978"/><path d="M185.1,496.6978 L185.1,493.6978 L191.1,496.6978 L185.1,499.6978 L185.1,496.6978" fill="#FFFFFF"/><path d="M139.9805,496.6978 C148.9805,496.6978 151.9805,499.4514 151.9805,508.4514 C151.9805,517.4514 154.9805,520.2051 163.9805,520.2051" fill="none" style="stroke:#FFFFFF;stroke-width:1.5;"/><path d="M233.7793,520.2051 C242.7793,520.2051 245.7793,517.4514 245.7793,508.4514 C245.7793,499.4514 248.7793,496.6978 257.7793,496.6978" fill="none" style="stroke:#FFFFFF;stroke-width:1.5;"/><rect fill="none" height="27.0146" style="stroke:#FFFFFF;stroke-width:0.5;" width="20.4727" x="187.9805" y="506.6978"/><text fill="#FFFFFF" font-family="Verdana" font-size="14" lengthAdjust="spacing" textLength="10.4727" x="192.9805" y="525.7729">N</text><line style="stroke:#FFFFFF;stroke-width:1.5;" x1="163.9805" x2="187.9805" y1="520.2051" y2="520.2051"/><line style="stroke:#FFFFFF;stroke-width:1.5;" x1="208.4531" x2="233.7793" y1="520.2051" y2="520.2051"/><rect fill="none" height="27.0146" style="stroke:#FFFFFF;stroke-width:0.5;" width="21.7988" x="187.9805" y="543.7124"/><text fill="#FFFFFF" font-family="Verdana" font-size="14" lengthAdjust="spacing" textLength="11.7988" x="192.9805" y="562.7876">M</text><line style="stroke:#FFFFFF;stroke-width:1.5;" x1="209.7793" x2="209.7793" y1="557.2197" y2="557.2197"/><path d="M175.9805,545.2197 C175.9805,554.2197 178.9805,557.2197 187.9805,557.2197" fill="none" style="stroke:#FFFFFF;stroke-width:1.5;"/><line style="stroke:#FFFFFF;stroke-width:1.5;" x1="175.9805" x2="175.9805" y1="532.2051" y2="545.2197"/><path d="M163.9805,520.2051 C172.9805,520.2051 175.9805,523.2051 175.9805,532.2051" fill="none" style="stroke:#FFFFFF;stroke-width:1.5;"/><path d="M221.7793,545.2197 C221.7793,554.2197 218.7793,557.2197 209.7793,557.2197" fill="none" style="stroke:#FFFFFF;stroke-width:1.5;"/><line style="stroke:#FFFFFF;stroke-width:1.5;" x1="221.7793" x2="221.7793" y1="532.2051" y2="545.2197"/><path d="M221.7793,532.2051 C221.7793,523.2051 224.7793,520.2051 233.7793,520.2051" fill="none" style="stroke:#FFFFFF;stroke-width:1.5;"/><ellipse cx="9" cy="496.6978" fill="none" rx="4" ry="4" style="stroke:#FFFFFF;stroke-width:2;"/><ellipse cx="287.7793" cy="496.6978" fill="#FFFFFF" rx="4" ry="4" style="stroke:#FFFFFF;stroke-width:1;"/><line style="stroke:#FFFFFF;stroke-width:1.5;" x1="13" x2="35" y1="496.6978" y2="496.6978"/><line style="stroke:#FFFFFF;stroke-width:1.5;" x1="257.7793" x2="283.7793" y1="496.6978" y2="496.6978"/><path d="M268.7793,496.6978 L268.7793,493.6978 L274.7793,496.6978 L268.7793,499.6978 L268.7793,496.6978" fill="#FFFFFF"/><text fill="#FFFFFF" font-family="Verdana" font-size="14" font-weight="bold" lengthAdjust="spacing" textLength="160.1318" x="5" y="599.8022">HexadecimalInteger</text><line style="stroke:#FFFFFF;stroke-width:1.5;" x1="35" x2="35" y1="638.249" y2="638.249"/><rect fill="none" height="27.0146" style="stroke:#FFFFFF;stroke-width:0.5;" width="27.1855" x="35" y="624.7417"/><text fill="#FFFFFF" font-family="Verdana" font-size="14" lengthAdjust="spacing" textLength="17.1855" x="40" y="643.8169">0x</text><line style="stroke:#FFFFFF;stroke-width:1.5;" x1="62.1855" x2="82.1855" y1="638.249" y2="638.249"/><path d="M90.1855,630.249 C90.1855,636.249 92.1855,638.249 98.1855,638.249" fill="none" style="stroke:#FFFFFF;stroke-width:1.5;"/><line style="stroke:#FFFFFF;stroke-width:1.5;" x1="90.1855" x2="90.1855" y1="625.7417" y2="630.249"/><path d="M90.1855,625.7417 C90.1855,619.7417 92.1855,617.7417 98.1855,617.7417" fill="none" style="stroke:#FFFFFF;stroke-width:1.5;"/><line style="stroke:#FFFFFF;stroke-width:1.5;" x1="97.1855" x2="167.041" y1="617.7417" y2="617.7417"/><path d="M137.0988,617.7417 L137.0988,614.7417 L131.0988,617.7417 L137.0988,620.7417 L137.0988,617.7417" fill="#FFFFFF"/><path d="M174.041,630.249 C174.041,636.249 172.041,638.249 166.041,638.249" fill="none" style="stroke:#FFFFFF;stroke-width:1.5;"/><line style="stroke:#FFFFFF;stroke-width:1.5;" x1="174.041" x2="174.041" y1="625.7417" y2="630.249"/><path d="M166.041,617.7417 C172.041,617.7417 174.041,619.7417 174.041,625.7417" fill="none" style="stroke:#FFFFFF;stroke-width:1.5;"/><line style="stroke:#FFFFFF;stroke-width:1.5;" x1="82.1855" x2="97.1855" y1="638.249" y2="638.249"/><line style="stroke:#FFFFFF;stroke-width:1.5;" x1="167.041" x2="182.041" y1="638.249" y2="638.249"/><rect fill="#0B58A8" height="27.0146" rx="5" ry="5" style="stroke:#FFFFFF;stroke-width:1.5;" width="69.8555" x="97.1855" y="624.7417"/><text fill="#FFFFFF" font-family="Verdana" font-size="14" lengthAdjust="spacing" textLength="59.8555" x="102.1855" y="643.8169">HexDigit</text><line style="stroke:#FFFFFF;stroke-width:1.5;" x1="182.041" x2="202.041" y1="638.249" y2="638.249"/><line style="stroke:#FFFFFF;stroke-width:1.5;" x1="202.041" x2="270.5137" y1="638.249" y2="638.249"/><path d="M227.4301,638.249 L227.4301,635.249 L233.4301,638.249 L227.4301,641.249 L227.4301,638.249" fill="#FFFFFF"/><path d="M202.041,638.249 C211.041,638.249 214.041,641.0027 214.041,650.0027 C214.041,659.0027 217.041,661.7563 226.041,661.7563" fill="none" style="stroke:#FFFFFF;stroke-width:1.5;"/><path d="M246.5137,661.7563 C255.5137,661.7563 258.5137,659.0027 258.5137,650.0027 C258.5137,641.0027 261.5137,638.249 270.5137,638.249" fill="none" style="stroke:#FFFFFF;stroke-width:1.5;"/><rect fill="none" height="27.0146" style="stroke:#FFFFFF;stroke-width:0.5;" width="20.4727" x="226.041" y="648.249"/><text fill="#FFFFFF" font-family="Verdana" font-size="14" lengthAdjust="spacing" textLength="10.4727" x="231.041" y="667.3242">N</text><ellipse cx="9" cy="638.249" fill="none" rx="4" ry="4" style="stroke:#FFFFFF;stroke-width:2;"/><ellipse cx="300.5137" cy="638.249" fill="#FFFFFF" rx="4" ry="4" style="stroke:#FFFFFF;stroke-width:1;"/><line style="stroke:#FFFFFF;stroke-width:1.5;" x1="13" x2="35" y1="638.249" y2="638.249"/><line style="stroke:#FFFFFF;stroke-width:1.5;" x1="270.5137" x2="296.5137" y1="638.249" y2="638.249"/><path d="M281.5137,638.249 L281.5137,635.249 L287.5137,638.249 L281.5137,641.249 L281.5137,638.249" fill="#FFFFFF"/><text fill="#FFFFFF" font-family="Verdana" font-size="14" font-weight="bold" lengthAdjust="spacing" textLength="103.5781" x="5" y="704.3389">RadixInteger</text><line style="stroke:#FFFFFF;stroke-width:1.5;" x1="35" x2="35" y1="742.7856" y2="742.7856"/><rect fill="#0B58A8" height="27.0146" rx="5" ry="5" style="stroke:#FFFFFF;stroke-width:1.5;" width="48.9922" x="35" y="729.2783"/><text fill="#FFFFFF" font-family="Verdana" font-size="14" lengthAdjust="spacing" textLength="38.9922" x="40" y="748.3535">Radix</text><line style="stroke:#FFFFFF;stroke-width:1.5;" x1="83.9922" x2="103.9922" y1="742.7856" y2="742.7856"/><rect fill="none" height="27.0146" style="stroke:#FFFFFF;stroke-width:0.5;" width="15.9746" x="103.9922" y="729.2783"/><text fill="#FFFFFF" font-family="Verdana" font-size="14" lengthAdjust="spacing" textLength="5.9746" x="108.9922" y="748.3535">r</text><line style="stroke:#FFFFFF;stroke-width:1.5;" x1="119.9668" x2="139.9668" y1="742.7856" y2="742.7856"/><path d="M147.9668,734.7856 C147.9668,740.7856 149.9668,742.7856 155.9668,742.7856" fill="none" style="stroke:#FFFFFF;stroke-width:1.5;"/><line style="stroke:#FFFFFF;stroke-width:1.5;" x1="147.9668" x2="147.9668" y1="730.2783" y2="734.7856"/><path d="M147.9668,730.2783 C147.9668,724.2783 149.9668,722.2783 155.9668,722.2783" fill="none" style="stroke:#FFFFFF;stroke-width:1.5;"/><line style="stroke:#FFFFFF;stroke-width:1.5;" x1="154.9668" x2="446.4722" y1="722.2783" y2="722.2783"/><path d="M327.87,722.2783 L327.87,719.2783 L321.87,722.2783 L327.87,725.2783 L327.87,722.2783" fill="#FFFFFF"/><path d="M453.4722,734.7856 C453.4722,740.7856 451.4722,742.7856 445.4722,742.7856" fill="none" style="stroke:#FFFFFF;stroke-width:1.5;"/><line style="stroke:#FFFFFF;stroke-width:1.5;" x1="453.4722" x2="453.4722" y1="730.2783" y2="734.7856"/><path d="M445.4722,722.2783 C451.4722,722.2783 453.4722,724.2783 453.4722,730.2783" fill="none" style="stroke:#FFFFFF;stroke-width:1.5;"/><line style="stroke:#FFFFFF;stroke-width:1.5;" x1="139.9668" x2="154.9668" y1="742.7856" y2="742.7856"/><line style="stroke:#FFFFFF;stroke-width:1.5;" x1="446.4722" x2="461.4722" y1="742.7856" y2="742.7856"/><rect fill="#0B58A8" height="27.0146" rx="5" ry="5" style="stroke:#FFFFFF;stroke-width:1.5;" width="81.7021" x="259.8684" y="729.2783"/><text fill="#FFFFFF" font-family="Verdana" font-size="14" lengthAdjust="spacing" textLength="71.7021" x="264.8684" y="748.3535">RadixDigit</text><path d="M154.9668,776.293 L154.9668,802.0923 A0,0 0 0 0 154.9668,802.0923 L446.4722,802.0923 A0,0 0 0 0 446.4722,802.0923 L446.4722,786.293 L436.4722,776.293 L304.7195,776.293 L300.7195,756.293 L296.7195,776.293 L154.9668,776.293 A0,0 0 0 0 154.9668,776.293" fill="#0B58A8" style="stroke:#FFFFFF;stroke-width:1;"/><path d="M436.4722,776.293 L436.4722,786.293 L446.4722,786.293 L436.4722,776.293" fill="#0B58A8" style="stroke:#FFFFFF;stroke-width:1;"/><text fill="#FFFFFF" font-family="Verdana" font-size="13" lengthAdjust="spacing" textLength="261.3647" x="165.5371" y="794.3628">must be consistent with the radix basis.</text><line style="stroke:#FFFFFF;stroke-width:1.5;" x1="154.9668" x2="259.8684" y1="742.7856" y2="742.7856"/><path d="M205.4176,742.7856 L205.4176,739.7856 L211.4176,742.7856 L205.4176,745.7856 L205.4176,742.7856" fill="#FFFFFF"/><line style="stroke:#FFFFFF;stroke-width:1.5;" x1="341.5706" x2="446.4722" y1="742.7856" y2="742.7856"/><path d="M392.0214,742.7856 L392.0214,739.7856 L398.0214,742.7856 L392.0214,745.7856 L392.0214,742.7856" fill="#FFFFFF"/><ellipse cx="9" cy="742.7856" fill="none" rx="4" ry="4" style="stroke:#FFFFFF;stroke-width:2;"/><ellipse cx="491.4722" cy="742.7856" fill="#FFFFFF" rx="4" ry="4" style="stroke:#FFFFFF;stroke-width:1;"/><line style="stroke:#FFFFFF;stroke-width:1.5;" x1="13" x2="35" y1="742.7856" y2="742.7856"/><line style="stroke:#FFFFFF;stroke-width:1.5;" x1="461.4722" x2="487.4722" y1="742.7856" y2="742.7856"/><path d="M472.4722,742.7856 L472.4722,739.7856 L478.4722,742.7856 L472.4722,745.7856 L472.4722,742.7856" fill="#FFFFFF"/><text fill="#FFFFFF" font-family="Verdana" font-size="14" font-weight="bold" lengthAdjust="spacing" textLength="44.2422" x="5" y="831.1675">Radix</text><rect fill="#0B58A8" height="27.0146" rx="5" ry="5" style="stroke:#FFFFFF;stroke-width:1.5;" width="86.8564" x="59" y="844.1069"/><text fill="#FFFFFF" font-family="Verdana" font-size="14" lengthAdjust="spacing" textLength="76.8564" x="64" y="863.1821">OneToNine</text><line style="stroke:#FFFFFF;stroke-width:1.5;" x1="35" x2="59" y1="857.6143" y2="857.6143"/><line style="stroke:#FFFFFF;stroke-width:1.5;" x1="145.8564" x2="218.5488" y1="857.6143" y2="857.6143"/><rect fill="#0B58A8" height="27.0146" rx="5" ry="5" style="stroke:#FFFFFF;stroke-width:1.5;" width="135.5488" x="59" y="881.1216"/><text fill="#FFFFFF" font-family="Verdana" font-size="14" lengthAdjust="spacing" textLength="125.5488" x="64" y="900.1968">TenToTwentyNine</text><path d="M47,882.6289 C47,891.6289 50,894.6289 59,894.6289" fill="none" style="stroke:#FFFFFF;stroke-width:1.5;"/><line style="stroke:#FFFFFF;stroke-width:1.5;" x1="194.5488" x2="194.5488" y1="894.6289" y2="894.6289"/><path d="M206.5488,882.6289 C206.5488,891.6289 203.5488,894.6289 194.5488,894.6289" fill="none" style="stroke:#FFFFFF;stroke-width:1.5;"/><rect fill="#0B58A8" height="27.0146" rx="5" ry="5" style="stroke:#FFFFFF;stroke-width:1.5;" width="131.0303" x="59" y="918.1362"/><text fill="#FFFFFF" font-family="Verdana" font-size="14" lengthAdjust="spacing" textLength="121.0303" x="64" y="937.2114">ThirtyToThirtySix</text><line style="stroke:#FFFFFF;stroke-width:1.5;" x1="190.0303" x2="194.5488" y1="931.6436" y2="931.6436"/><path d="M47,919.6436 C47,928.6436 50,931.6436 59,931.6436" fill="none" style="stroke:#FFFFFF;stroke-width:1.5;"/><line style="stroke:#FFFFFF;stroke-width:1.5;" x1="47" x2="47" y1="869.6143" y2="919.6436"/><path d="M35,857.6143 C44,857.6143 47,860.6143 47,869.6143" fill="none" style="stroke:#FFFFFF;stroke-width:1.5;"/><path d="M206.5488,919.6436 C206.5488,928.6436 203.5488,931.6436 194.5488,931.6436" fill="none" style="stroke:#FFFFFF;stroke-width:1.5;"/><line style="stroke:#FFFFFF;stroke-width:1.5;" x1="206.5488" x2="206.5488" y1="869.6143" y2="919.6436"/><path d="M206.5488,869.6143 C206.5488,860.6143 209.5488,857.6143 218.5488,857.6143" fill="none" style="stroke:#FFFFFF;stroke-width:1.5;"/><ellipse cx="9" cy="857.6143" fill="none" rx="4" ry="4" style="stroke:#FFFFFF;stroke-width:2;"/><ellipse cx="248.5488" cy="857.6143" fill="#FFFFFF" rx="4" ry="4" style="stroke:#FFFFFF;stroke-width:1;"/><line style="stroke:#FFFFFF;stroke-width:1.5;" x1="13" x2="35" y1="857.6143" y2="857.6143"/><line style="stroke:#FFFFFF;stroke-width:1.5;" x1="218.5488" x2="244.5488" y1="857.6143" y2="857.6143"/><path d="M229.5488,857.6143 L229.5488,854.6143 L235.5488,857.6143 L229.5488,860.6143 L229.5488,857.6143" fill="#FFFFFF"/><text fill="#FFFFFF" font-family="Verdana" font-size="14" font-weight="bold" lengthAdjust="spacing" textLength="86.2354" x="5" y="974.2261">OneToNine</text><line style="stroke:#FFFFFF;stroke-width:1.5;" x1="35" x2="35" y1="1000.6729" y2="1000.6729"/><rect fill="none" height="27.0146" style="stroke:#FFFFFF;stroke-width:1;stroke-dasharray:5,5;" width="111.541" x="35" y="987.1655"/><text fill="#FFFFFF" font-family="Verdana" font-size="14" lengthAdjust="spacing" textLength="91.6973" x="44.9219" y="1006.2407">Decimal digit</text><line style="stroke:#FFFFFF;stroke-width:1.5;" x1="146.541" x2="166.541" y1="1000.6729" y2="1000.6729"/><text fill="#FFFFFF" font-family="Verdana" font-size="14" lengthAdjust="spacing" textLength="30.1191" x="169.541" y="1004.6123">NOT</text><rect fill="none" height="27.0146" style="stroke:#FFFFFF;stroke-width:0.5;" width="18.9004" x="204.6602" y="987.1655"/><text fill="#FFFFFF" font-family="Verdana" font-size="14" lengthAdjust="spacing" textLength="8.9004" x="209.6602" y="1006.2407">0</text><ellipse cx="9" cy="1000.6729" fill="none" rx="4" ry="4" style="stroke:#FFFFFF;stroke-width:2;"/><ellipse cx="253.5605" cy="1000.6729" fill="#FFFFFF" rx="4" ry="4" style="stroke:#FFFFFF;stroke-width:1;"/><line style="stroke:#FFFFFF;stroke-width:1.5;" x1="13" x2="35" y1="1000.6729" y2="1000.6729"/><line style="stroke:#FFFFFF;stroke-width:1.5;" x1="223.5605" x2="249.5605" y1="1000.6729" y2="1000.6729"/><path d="M234.5605,1000.6729 L234.5605,997.6729 L240.5605,1000.6729 L234.5605,1003.6729 L234.5605,1000.6729" fill="#FFFFFF"/><text fill="#FFFFFF" font-family="Verdana" font-size="14" font-weight="bold" lengthAdjust="spacing" textLength="141.8936" x="5" y="1043.2554">TenToTwentyNine</text><line style="stroke:#FFFFFF;stroke-width:1.5;" x1="35" x2="35" y1="1069.7021" y2="1069.7021"/><rect fill="none" height="27.0146" style="stroke:#FFFFFF;stroke-width:0.5;" width="18.9004" x="59" y="1056.1948"/><text fill="#FFFFFF" font-family="Verdana" font-size="14" lengthAdjust="spacing" textLength="8.9004" x="64" y="1075.27">1</text><line style="stroke:#FFFFFF;stroke-width:1.5;" x1="35" x2="59" y1="1069.7021" y2="1069.7021"/><line style="stroke:#FFFFFF;stroke-width:1.5;" x1="77.9004" x2="101.9004" y1="1069.7021" y2="1069.7021"/><rect fill="none" height="27.0146" style="stroke:#FFFFFF;stroke-width:0.5;" width="18.9004" x="59" y="1093.2095"/><text fill="#FFFFFF" font-family="Verdana" font-size="14" lengthAdjust="spacing" textLength="8.9004" x="64" y="1112.2847">2</text><line style="stroke:#FFFFFF;stroke-width:1.5;" x1="77.9004" x2="77.9004" y1="1106.7168" y2="1106.7168"/><path d="M47,1094.7168 C47,1103.7168 50,1106.7168 59,1106.7168" fill="none" style="stroke:#FFFFFF;stroke-width:1.5;"/><line style="stroke:#FFFFFF;stroke-width:1.5;" x1="47" x2="47" y1="1081.7021" y2="1094.7168"/><path d="M35,1069.7021 C44,1069.7021 47,1072.7021 47,1081.7021" fill="none" style="stroke:#FFFFFF;stroke-width:1.5;"/><path d="M89.9004,1094.7168 C89.9004,1103.7168 86.9004,1106.7168 77.9004,1106.7168" fill="none" style="stroke:#FFFFFF;stroke-width:1.5;"/><line style="stroke:#FFFFFF;stroke-width:1.5;" x1="89.9004" x2="89.9004" y1="1081.7021" y2="1094.7168"/><path d="M89.9004,1081.7021 C89.9004,1072.7021 92.9004,1069.7021 101.9004,1069.7021" fill="none" style="stroke:#FFFFFF;stroke-width:1.5;"/><line style="stroke:#FFFFFF;stroke-width:1.5;" x1="101.9004" x2="121.9004" y1="1069.7021" y2="1069.7021"/><rect fill="none" height="27.0146" style="stroke:#FFFFFF;stroke-width:1;stroke-dasharray:5,5;" width="111.541" x="121.9004" y="1056.1948"/><text fill="#FFFFFF" font-family="Verdana" font-size="14" lengthAdjust="spacing" textLength="91.6973" x="131.8223" y="1075.27">Decimal digit</text><ellipse cx="9" cy="1069.7021" fill="none" rx="4" ry="4" style="stroke:#FFFFFF;stroke-width:2;"/><ellipse cx="263.4414" cy="1069.7021" fill="#FFFFFF" rx="4" ry="4" style="stroke:#FFFFFF;stroke-width:1;"/><line style="stroke:#FFFFFF;stroke-width:1.5;" x1="13" x2="35" y1="1069.7021" y2="1069.7021"/><line style="stroke:#FFFFFF;stroke-width:1.5;" x1="233.4414" x2="259.4414" y1="1069.7021" y2="1069.7021"/><path d="M244.4414,1069.7021 L244.4414,1066.7021 L250.4414,1069.7021 L244.4414,1072.7021 L244.4414,1069.7021" fill="#FFFFFF"/><text fill="#FFFFFF" font-family="Verdana" font-size="14" font-weight="bold" lengthAdjust="spacing" textLength="136.7529" x="5" y="1149.2993">ThirtyToThritySix</text><line style="stroke:#FFFFFF;stroke-width:1.5;" x1="35" x2="35" y1="1175.7461" y2="1175.7461"/><rect fill="none" height="27.0146" style="stroke:#FFFFFF;stroke-width:0.5;" width="18.9004" x="35" y="1162.2388"/><text fill="#FFFFFF" font-family="Verdana" font-size="14" lengthAdjust="spacing" textLength="8.9004" x="40" y="1181.314">3</text><line style="stroke:#FFFFFF;stroke-width:1.5;" x1="53.9004" x2="73.9004" y1="1175.7461" y2="1175.7461"/><rect fill="none" height="27.0146" style="stroke:#FFFFFF;stroke-width:1;stroke-dasharray:5,5;" width="111.541" x="73.9004" y="1162.2388"/><text fill="#FFFFFF" font-family="Verdana" font-size="14" lengthAdjust="spacing" textLength="91.6973" x="83.8223" y="1181.314">Decimal digit</text><line style="stroke:#FFFFFF;stroke-width:1.5;" x1="185.4414" x2="205.4414" y1="1175.7461" y2="1175.7461"/><text fill="#FFFFFF" font-family="Verdana" font-size="14" lengthAdjust="spacing" textLength="30.1191" x="208.4414" y="1179.6855">NOT</text><rect fill="none" height="27.0146" style="stroke:#FFFFFF;stroke-width:0.5;" width="18.9004" x="267.5605" y="1162.2388"/><text fill="#FFFFFF" font-family="Verdana" font-size="14" lengthAdjust="spacing" textLength="8.9004" x="272.5605" y="1181.314">7</text><line style="stroke:#FFFFFF;stroke-width:1.5;" x1="243.5605" x2="267.5605" y1="1175.7461" y2="1175.7461"/><line style="stroke:#FFFFFF;stroke-width:1.5;" x1="286.4609" x2="310.4609" y1="1175.7461" y2="1175.7461"/><rect fill="none" height="27.0146" style="stroke:#FFFFFF;stroke-width:0.5;" width="18.9004" x="267.5605" y="1199.2534"/><text fill="#FFFFFF" font-family="Verdana" font-size="14" lengthAdjust="spacing" textLength="8.9004" x="272.5605" y="1218.3286">8</text><path d="M255.5605,1200.7607 C255.5605,1209.7607 258.5605,1212.7607 267.5605,1212.7607" fill="none" style="stroke:#FFFFFF;stroke-width:1.5;"/><line style="stroke:#FFFFFF;stroke-width:1.5;" x1="286.4609" x2="286.4609" y1="1212.7607" y2="1212.7607"/><path d="M298.4609,1200.7607 C298.4609,1209.7607 295.4609,1212.7607 286.4609,1212.7607" fill="none" style="stroke:#FFFFFF;stroke-width:1.5;"/><rect fill="none" height="27.0146" style="stroke:#FFFFFF;stroke-width:0.5;" width="18.9004" x="267.5605" y="1236.2681"/><text fill="#FFFFFF" font-family="Verdana" font-size="14" lengthAdjust="spacing" textLength="8.9004" x="272.5605" y="1255.3433">9</text><line style="stroke:#FFFFFF;stroke-width:1.5;" x1="286.4609" x2="286.4609" y1="1249.7754" y2="1249.7754"/><path d="M255.5605,1237.7754 C255.5605,1246.7754 258.5605,1249.7754 267.5605,1249.7754" fill="none" style="stroke:#FFFFFF;stroke-width:1.5;"/><line style="stroke:#FFFFFF;stroke-width:1.5;" x1="255.5605" x2="255.5605" y1="1187.7461" y2="1237.7754"/><path d="M243.5605,1175.7461 C252.5605,1175.7461 255.5605,1178.7461 255.5605,1187.7461" fill="none" style="stroke:#FFFFFF;stroke-width:1.5;"/><path d="M298.4609,1237.7754 C298.4609,1246.7754 295.4609,1249.7754 286.4609,1249.7754" fill="none" style="stroke:#FFFFFF;stroke-width:1.5;"/><line style="stroke:#FFFFFF;stroke-width:1.5;" x1="298.4609" x2="298.4609" y1="1187.7461" y2="1237.7754"/><path d="M298.4609,1187.7461 C298.4609,1178.7461 301.4609,1175.7461 310.4609,1175.7461" fill="none" style="stroke:#FFFFFF;stroke-width:1.5;"/><ellipse cx="9" cy="1175.7461" fill="none" rx="4" ry="4" style="stroke:#FFFFFF;stroke-width:2;"/><ellipse cx="340.4609" cy="1175.7461" fill="#FFFFFF" rx="4" ry="4" style="stroke:#FFFFFF;stroke-width:1;"/><line style="stroke:#FFFFFF;stroke-width:1.5;" x1="13" x2="35" y1="1175.7461" y2="1175.7461"/><line style="stroke:#FFFFFF;stroke-width:1.5;" x1="310.4609" x2="336.4609" y1="1175.7461" y2="1175.7461"/><path d="M321.4609,1175.7461 L321.4609,1172.7461 L327.4609,1175.7461 L321.4609,1178.7461 L321.4609,1175.7461" fill="#FFFFFF"/><text fill="#FFFFFF" font-family="Verdana" font-size="14" font-weight="bold" lengthAdjust="spacing" textLength="81.6006" x="5" y="1292.3579">RadixDigit</text><rect fill="none" height="27.0146" style="stroke:#FFFFFF;stroke-width:1;stroke-dasharray:5,5;" width="111.6709" x="35" y="1305.2974"/><text fill="#FFFFFF" font-family="Verdana" font-size="14" lengthAdjust="spacing" textLength="91.8271" x="44.9219" y="1324.3726">0-9, a-z, A-Z</text><ellipse cx="9" cy="1318.8047" fill="none" rx="4" ry="4" style="stroke:#FFFFFF;stroke-width:2;"/><ellipse cx="176.6709" cy="1318.8047" fill="#FFFFFF" rx="4" ry="4" style="stroke:#FFFFFF;stroke-width:1;"/><line style="stroke:#FFFFFF;stroke-width:1.5;" x1="13" x2="35" y1="1318.8047" y2="1318.8047"/><line style="stroke:#FFFFFF;stroke-width:1.5;" x1="146.6709" x2="172.6709" y1="1318.8047" y2="1318.8047"/><path d="M157.6709,1318.8047 L157.6709,1315.8047 L163.6709,1318.8047 L157.6709,1321.8047 L157.6709,1318.8047" fill="#FFFFFF"/><!--SRC=[xLVVS-8s47xtNx6bB-4QKY17cz1B6tuaJL98c3D9PzhfWx0NKB4bAii9t1t_UrSo1XpWSadeI-VC06Fjjz-klbr9zccacTBO4ttd6pt44865VC0Svr9e7A224_WJSeKSV8BSTpdu2_PXRZcNAeIV5a1xUm9Dz7Z8WlcW0olN9xZnz3RJ1KwO_pdVzypdapGf2fiDH97twFDB6XzyFk2QxWkGA-OewOyRR3F8cscHFKy8ckQrcI1nh-P9p0c37LpWoAyzHw-dRdqcILYoDcsyMI4R93EXasH-XCYfnC_U9vvxRo2C8mqz14-AY4SQXOO7heT09GDbFNkC30Vm9cy2fVJ4UoEmAw-vG2TLiekYAxiFn37DZW-vqbCosN-Nl8qKgJjHRLENO8yuRJbo9IjJEP5ttTcuBK8gdeGavGvp6-45G_cZfJoolyU6E9rfefJ9iLWutWTM-B0FjS8VIPXJ5BvjSUTqsUx9zIxIqm1_9X6Kb1e-MZNgp1iDb8o5tv21LF1jiLuvgXrPsxaKUZvwRg_5w3MZrNE7ocU2sS6BwHXLYujHYc_M3iiLQw9HN6SneoI9Dn8OHL2oOssc1bo0SPlHrvTU79ho9vbwRAov5FExnmn5EpgpltsQ7ZNQqy0XKZT_2L1p7U02PnHm-GU4Sla9J_CrweulLYEjQVv8tSsLS4tre2S3Vquif9_cr6OJ7iRXxzodXN9OBCuH2lkeK7ZuNuIFSCmKqtAdjE- -dpUf4usuC052g2ab7reo2FXOZhFSIz2sFbuYcjXdSQ3NsdSDqPP2HcFceR_0DcIiEEtJIsoBzp6WghkQDC31bAeHoO3xAv0EBJ_kyJ4JkiDydui1b8ehTXV_YKrn39LfeBfKLAHj4tI7p9SFXgJFWWXNBBSHrb6pH4cjOio8vsb-JnkEBTBsnLvdwd7LDgMpUKzOatIsMXWJZgaaWNNlB7HYKQbQbOormPKNeDyOqfsNhkzDZRLMDR0dJ1p1SPOmOBHOdz1bDoBOK3Mj5U_56hT8yIKSBaqSfQRTzcKavykjyTc-Avl8yttD-K3hPMJTiuV4AkwIJlqELOCDC8DSDEMMIgrnA7xFz6ivI2lgDFzrB74luDwBAQxbI_lbflStPP_qzuOkdcLsggNYE-fuLwVoFsznPJdIPgzjPlhiNhMPgR4pfhETCLtkZEdwbKnqb3HOX0bXzvcxpDVtgA_lKV_3zwXEG0zmj-qMtAEAp0j8wQ1SB5SEtkwvJCDLBA1y1AN3Ql6uMgv0uypjWh7ddRrVEos8w1d4GyeeIWv_8iWxL-oUmVjOQ1vY5Mx6AAwQlwK3S2RkkPB2lFeuLtVj9U27juKwPUoYebJWhktC7rZ9mvFcYQaAjztpmf7JOc8GquPU1HGEFGK9hQPaS_y5]--></g></svg>