<svg xmlns="http://www.w3.org/2000/svg" xmlns:xlink="http://www.w3.org/1999/xlink" contentStyleType="text/css" data-diagram-type="EBNF" height="669px" preserveAspectRatio="none" style="width:716px;height:669px;background:#0B58A8;" version="1.1" viewBox="0 0 716 669" width="716px" zoomAndPan="magnify"><defs/><g><rect fill="#0B58A8" height="669" style="stroke:none;stroke-width:1;" width="716" x="0" y="0"/><text fill="#FFFFFF" font-family="Verdana" font-size="14" font-weight="bold" lengthAdjust="spacing" textLength="148.9756" x="5" y="19.0752">MetadataSequence</text><line style="stroke:#FFFFFF;stroke-width:1.5;" x1="35" x2="35" y1="45.522" y2="45.522"/><rect fill="none" height="27.0146" style="stroke:#FFFFFF;stroke-width:0.5;" width="21.457" x="35" y="32.0146"/><text fill="#FFFFFF" font-family="Verdana" font-size="14" lengthAdjust="spacing" textLength="11.457" x="40" y="51.0898">^</text><line style="stroke:#FFFFFF;stroke-width:1.5;" x1="56.457" x2="76.457" y1="45.522" y2="45.522"/><line style="stroke:#FFFFFF;stroke-width:1.5;" x1="76.457" x2="247.1924" y1="45.522" y2="45.522"/><path d="M142.7512,45.522 L142.7512,42.522 L148.7512,45.522 L142.7512,48.522 L142.7512,45.522" fill="#FFFFFF"/><path d="M76.457,45.522 C85.457,45.522 88.457,54.2756 88.457,63.2756 C88.457,72.2756 91.457,81.0293 100.457,81.0293" fill="none" style="stroke:#FFFFFF;stroke-width:1.5;"/><path d="M223.1924,81.0293 C232.1924,81.0293 235.1924,72.2756 235.1924,63.2756 C235.1924,54.2756 238.1924,45.522 247.1924,45.522" fill="none" style="stroke:#FFFFFF;stroke-width:1.5;"/><path d="M108.457,73.0293 C108.457,79.0293 110.457,81.0293 116.457,81.0293" fill="none" style="stroke:#FFFFFF;stroke-width:1.5;"/><line style="stroke:#FFFFFF;stroke-width:1.5;" x1="108.457" x2="108.457" y1="68.522" y2="73.0293"/><path d="M108.457,68.522 C108.457,62.522 110.457,60.522 116.457,60.522" fill="none" style="stroke:#FFFFFF;stroke-width:1.5;"/><line style="stroke:#FFFFFF;stroke-width:1.5;" x1="115.457" x2="208.1924" y1="60.522" y2="60.522"/><path d="M169.0982,60.522 L169.0982,57.522 L163.0982,60.522 L169.0982,63.522 L169.0982,60.522" fill="#FFFFFF"/><path d="M215.1924,73.0293 C215.1924,79.0293 213.1924,81.0293 207.1924,81.0293" fill="none" style="stroke:#FFFFFF;stroke-width:1.5;"/><line style="stroke:#FFFFFF;stroke-width:1.5;" x1="215.1924" x2="215.1924" y1="68.522" y2="73.0293"/><path d="M207.1924,60.522 C213.1924,60.522 215.1924,62.522 215.1924,68.522" fill="none" style="stroke:#FFFFFF;stroke-width:1.5;"/><line style="stroke:#FFFFFF;stroke-width:1.5;" x1="100.457" x2="115.457" y1="81.0293" y2="81.0293"/><line style="stroke:#FFFFFF;stroke-width:1.5;" x1="208.1924" x2="223.1924" y1="81.0293" y2="81.0293"/><rect fill="#0B58A8" height="27.0146" rx="5" ry="5" style="stroke:#FFFFFF;stroke-width:1.5;" width="92.7354" x="115.457" y="67.522"/><text fill="#FFFFFF" font-family="Verdana" font-size="14" lengthAdjust="spacing" textLength="82.7354" x="120.457" y="86.5972">WhiteSpace</text><line style="stroke:#FFFFFF;stroke-width:1.5;" x1="247.1924" x2="267.1924" y1="45.522" y2="45.522"/><rect fill="#0B58A8" height="27.0146" rx="5" ry="5" style="stroke:#FFFFFF;stroke-width:1.5;" width="75.1191" x="267.1924" y="32.0146"/><text fill="#FFFFFF" font-family="Verdana" font-size="14" lengthAdjust="spacing" textLength="65.1191" x="272.1924" y="51.0898">Metadata</text><line style="stroke:#FFFFFF;stroke-width:1.5;" x1="342.3115" x2="362.3115" y1="45.522" y2="45.522"/><line style="stroke:#FFFFFF;stroke-width:1.5;" x1="362.3115" x2="533.0469" y1="45.522" y2="45.522"/><path d="M428.6057,45.522 L428.6057,42.522 L434.6057,45.522 L428.6057,48.522 L428.6057,45.522" fill="#FFFFFF"/><path d="M362.3115,45.522 C371.3115,45.522 374.3115,54.2756 374.3115,63.2756 C374.3115,72.2756 377.3115,81.0293 386.3115,81.0293" fill="none" style="stroke:#FFFFFF;stroke-width:1.5;"/><path d="M509.0469,81.0293 C518.0469,81.0293 521.0469,72.2756 521.0469,63.2756 C521.0469,54.2756 524.0469,45.522 533.0469,45.522" fill="none" style="stroke:#FFFFFF;stroke-width:1.5;"/><path d="M394.3115,73.0293 C394.3115,79.0293 396.3115,81.0293 402.3115,81.0293" fill="none" style="stroke:#FFFFFF;stroke-width:1.5;"/><line style="stroke:#FFFFFF;stroke-width:1.5;" x1="394.3115" x2="394.3115" y1="68.522" y2="73.0293"/><path d="M394.3115,68.522 C394.3115,62.522 396.3115,60.522 402.3115,60.522" fill="none" style="stroke:#FFFFFF;stroke-width:1.5;"/><line style="stroke:#FFFFFF;stroke-width:1.5;" x1="401.3115" x2="494.0469" y1="60.522" y2="60.522"/><path d="M454.9527,60.522 L454.9527,57.522 L448.9527,60.522 L454.9527,63.522 L454.9527,60.522" fill="#FFFFFF"/><path d="M501.0469,73.0293 C501.0469,79.0293 499.0469,81.0293 493.0469,81.0293" fill="none" style="stroke:#FFFFFF;stroke-width:1.5;"/><line style="stroke:#FFFFFF;stroke-width:1.5;" x1="501.0469" x2="501.0469" y1="68.522" y2="73.0293"/><path d="M493.0469,60.522 C499.0469,60.522 501.0469,62.522 501.0469,68.522" fill="none" style="stroke:#FFFFFF;stroke-width:1.5;"/><line style="stroke:#FFFFFF;stroke-width:1.5;" x1="386.3115" x2="401.3115" y1="81.0293" y2="81.0293"/><line style="stroke:#FFFFFF;stroke-width:1.5;" x1="494.0469" x2="509.0469" y1="81.0293" y2="81.0293"/><rect fill="#0B58A8" height="27.0146" rx="5" ry="5" style="stroke:#FFFFFF;stroke-width:1.5;" width="92.7354" x="401.3115" y="67.522"/><text fill="#FFFFFF" font-family="Verdana" font-size="14" lengthAdjust="spacing" textLength="82.7354" x="406.3115" y="86.5972">WhiteSpace</text><line style="stroke:#FFFFFF;stroke-width:1.5;" x1="533.0469" x2="553.0469" y1="45.522" y2="45.522"/><rect fill="#0B58A8" height="27.0146" rx="5" ry="5" style="stroke:#FFFFFF;stroke-width:1.5;" width="123.4082" x="553.0469" y="32.0146"/><text fill="#FFFFFF" font-family="Verdana" font-size="14" lengthAdjust="spacing" textLength="113.4082" x="558.0469" y="51.0898">MetadataCarrier</text><ellipse cx="9" cy="45.522" fill="none" rx="4" ry="4" style="stroke:#FFFFFF;stroke-width:2;"/><ellipse cx="706.4551" cy="45.522" fill="#FFFFFF" rx="4" ry="4" style="stroke:#FFFFFF;stroke-width:1;"/><line style="stroke:#FFFFFF;stroke-width:1.5;" x1="13" x2="35" y1="45.522" y2="45.522"/><line style="stroke:#FFFFFF;stroke-width:1.5;" x1="676.4551" x2="702.4551" y1="45.522" y2="45.522"/><path d="M687.4551,45.522 L687.4551,42.522 L693.4551,45.522 L687.4551,48.522 L687.4551,45.522" fill="#FFFFFF"/><text fill="#FFFFFF" font-family="Verdana" font-size="14" font-weight="bold" lengthAdjust="spacing" textLength="73.165" x="5" y="123.6118">Metadata</text><rect fill="#0B58A8" height="27.0146" rx="5" ry="5" style="stroke:#FFFFFF;stroke-width:1.5;" width="38.9297" x="59" y="136.5513"/><text fill="#FFFFFF" font-family="Verdana" font-size="14" lengthAdjust="spacing" textLength="28.9297" x="64" y="155.6265">Map</text><line style="stroke:#FFFFFF;stroke-width:1.5;" x1="35" x2="59" y1="150.0586" y2="150.0586"/><line style="stroke:#FFFFFF;stroke-width:1.5;" x1="97.9297" x2="392.1826" y1="150.0586" y2="150.0586"/><rect fill="#0B58A8" height="27.0146" rx="5" ry="5" style="stroke:#FFFFFF;stroke-width:1.5;" width="52.4854" x="59" y="173.5659"/><text fill="#FFFFFF" font-family="Verdana" font-size="14" lengthAdjust="spacing" textLength="42.4854" x="64" y="192.6411">String</text><path d="M47,175.0732 C47,184.0732 50,187.0732 59,187.0732" fill="none" style="stroke:#FFFFFF;stroke-width:1.5;"/><line style="stroke:#FFFFFF;stroke-width:1.5;" x1="111.4854" x2="368.1826" y1="187.0732" y2="187.0732"/><path d="M237.834,187.0732 L237.834,184.0732 L243.834,187.0732 L237.834,190.0732 L237.834,187.0732" fill="#FFFFFF"/><path d="M380.1826,175.0732 C380.1826,184.0732 377.1826,187.0732 368.1826,187.0732" fill="none" style="stroke:#FFFFFF;stroke-width:1.5;"/><rect fill="#0B58A8" height="27.0146" rx="5" ry="5" style="stroke:#FFFFFF;stroke-width:1.5;" width="110.4678" x="59" y="210.5806"/><text fill="#FFFFFF" font-family="Verdana" font-size="14" lengthAdjust="spacing" textLength="100.4678" x="64" y="229.6558">SimpleSymbol</text><path d="M47,212.0879 C47,221.0879 50,224.0879 59,224.0879" fill="none" style="stroke:#FFFFFF;stroke-width:1.5;"/><line style="stroke:#FFFFFF;stroke-width:1.5;" x1="169.4678" x2="368.1826" y1="224.0879" y2="224.0879"/><path d="M266.8252,224.0879 L266.8252,221.0879 L272.8252,224.0879 L266.8252,227.0879 L266.8252,224.0879" fill="#FFFFFF"/><path d="M380.1826,212.0879 C380.1826,221.0879 377.1826,224.0879 368.1826,224.0879" fill="none" style="stroke:#FFFFFF;stroke-width:1.5;"/><line style="stroke:#FFFFFF;stroke-width:1.5;" x1="59" x2="59" y1="261.1025" y2="261.1025"/><rect fill="none" height="27.0146" style="stroke:#FFFFFF;stroke-width:0.5;" width="16.3574" x="59" y="247.5952"/><text fill="#FFFFFF" font-family="Verdana" font-size="14" lengthAdjust="spacing" textLength="6.3574" x="64" y="266.6704">[</text><line style="stroke:#FFFFFF;stroke-width:1.5;" x1="75.3574" x2="95.3574" y1="261.1025" y2="261.1025"/><line style="stroke:#FFFFFF;stroke-width:1.5;" x1="95.3574" x2="331.8252" y1="261.1025" y2="261.1025"/><path d="M187.9445,261.1025 L187.9445,258.1025 L193.9445,261.1025 L187.9445,264.1025 L187.9445,261.1025" fill="#FFFFFF"/><path d="M95.3574,261.1025 C104.3574,261.1025 107.3574,269.8562 107.3574,278.8562 C107.3574,287.8562 110.3574,296.6099 119.3574,296.6099" fill="none" style="stroke:#FFFFFF;stroke-width:1.5;"/><path d="M307.8252,296.6099 C316.8252,296.6099 319.8252,287.8562 319.8252,278.8562 C319.8252,269.8562 322.8252,261.1025 331.8252,261.1025" fill="none" style="stroke:#FFFFFF;stroke-width:1.5;"/><path d="M127.3574,288.6099 C127.3574,294.6099 129.3574,296.6099 135.3574,296.6099" fill="none" style="stroke:#FFFFFF;stroke-width:1.5;"/><line style="stroke:#FFFFFF;stroke-width:1.5;" x1="127.3574" x2="127.3574" y1="284.1025" y2="288.6099"/><path d="M127.3574,284.1025 C127.3574,278.1025 129.3574,276.1025 135.3574,276.1025" fill="none" style="stroke:#FFFFFF;stroke-width:1.5;"/><line style="stroke:#FFFFFF;stroke-width:1.5;" x1="134.3574" x2="292.8252" y1="276.1025" y2="276.1025"/><path d="M227.4381,276.1025 L227.4381,273.1025 L221.4381,276.1025 L227.4381,279.1025 L227.4381,276.1025" fill="#FFFFFF"/><path d="M299.8252,288.6099 C299.8252,294.6099 297.8252,296.6099 291.8252,296.6099" fill="none" style="stroke:#FFFFFF;stroke-width:1.5;"/><line style="stroke:#FFFFFF;stroke-width:1.5;" x1="299.8252" x2="299.8252" y1="284.1025" y2="288.6099"/><path d="M291.8252,276.1025 C297.8252,276.1025 299.8252,278.1025 299.8252,284.1025" fill="none" style="stroke:#FFFFFF;stroke-width:1.5;"/><line style="stroke:#FFFFFF;stroke-width:1.5;" x1="119.3574" x2="134.3574" y1="296.6099" y2="296.6099"/><line style="stroke:#FFFFFF;stroke-width:1.5;" x1="292.8252" x2="307.8252" y1="296.6099" y2="296.6099"/><rect fill="#0B58A8" height="27.0146" rx="5" ry="5" style="stroke:#FFFFFF;stroke-width:1.5;" width="92.7354" x="158.3574" y="283.1025"/><text fill="#FFFFFF" font-family="Verdana" font-size="14" lengthAdjust="spacing" textLength="82.7354" x="163.3574" y="302.1777">WhiteSpace</text><line style="stroke:#FFFFFF;stroke-width:1.5;" x1="134.3574" x2="158.3574" y1="296.6099" y2="296.6099"/><line style="stroke:#FFFFFF;stroke-width:1.5;" x1="251.0928" x2="292.8252" y1="296.6099" y2="296.6099"/><rect fill="#0B58A8" height="27.0146" rx="5" ry="5" style="stroke:#FFFFFF;stroke-width:1.5;" width="110.4678" x="158.3574" y="320.1172"/><text fill="#FFFFFF" font-family="Verdana" font-size="14" lengthAdjust="spacing" textLength="100.4678" x="163.3574" y="339.1924">SimpleSymbol</text><line style="stroke:#FFFFFF;stroke-width:1.5;" x1="268.8252" x2="268.8252" y1="333.6245" y2="333.6245"/><path d="M146.3574,321.6245 C146.3574,330.6245 149.3574,333.6245 158.3574,333.6245" fill="none" style="stroke:#FFFFFF;stroke-width:1.5;"/><line style="stroke:#FFFFFF;stroke-width:1.5;" x1="146.3574" x2="146.3574" y1="308.6099" y2="321.6245"/><path d="M134.3574,296.6099 C143.3574,296.6099 146.3574,299.6099 146.3574,308.6099" fill="none" style="stroke:#FFFFFF;stroke-width:1.5;"/><path d="M280.8252,321.6245 C280.8252,330.6245 277.8252,333.6245 268.8252,333.6245" fill="none" style="stroke:#FFFFFF;stroke-width:1.5;"/><line style="stroke:#FFFFFF;stroke-width:1.5;" x1="280.8252" x2="280.8252" y1="308.6099" y2="321.6245"/><path d="M280.8252,308.6099 C280.8252,299.6099 283.8252,296.6099 292.8252,296.6099" fill="none" style="stroke:#FFFFFF;stroke-width:1.5;"/><line style="stroke:#FFFFFF;stroke-width:1.5;" x1="331.8252" x2="351.8252" y1="261.1025" y2="261.1025"/><rect fill="none" height="27.0146" style="stroke:#FFFFFF;stroke-width:0.5;" width="16.3574" x="351.8252" y="247.5952"/><text fill="#FFFFFF" font-family="Verdana" font-size="14" lengthAdjust="spacing" textLength="6.3574" x="356.8252" y="266.6704">]</text><line style="stroke:#FFFFFF;stroke-width:1.5;" x1="368.1826" x2="368.1826" y1="261.1025" y2="261.1025"/><path d="M47,249.1025 C47,258.1025 50,261.1025 59,261.1025" fill="none" style="stroke:#FFFFFF;stroke-width:1.5;"/><line style="stroke:#FFFFFF;stroke-width:1.5;" x1="47" x2="47" y1="162.0586" y2="249.1025"/><path d="M35,150.0586 C44,150.0586 47,153.0586 47,162.0586" fill="none" style="stroke:#FFFFFF;stroke-width:1.5;"/><path d="M380.1826,249.1025 C380.1826,258.1025 377.1826,261.1025 368.1826,261.1025" fill="none" style="stroke:#FFFFFF;stroke-width:1.5;"/><line style="stroke:#FFFFFF;stroke-width:1.5;" x1="380.1826" x2="380.1826" y1="162.0586" y2="249.1025"/><path d="M380.1826,162.0586 C380.1826,153.0586 383.1826,150.0586 392.1826,150.0586" fill="none" style="stroke:#FFFFFF;stroke-width:1.5;"/><ellipse cx="9" cy="150.0586" fill="none" rx="4" ry="4" style="stroke:#FFFFFF;stroke-width:2;"/><ellipse cx="422.1826" cy="150.0586" fill="#FFFFFF" rx="4" ry="4" style="stroke:#FFFFFF;stroke-width:1;"/><line style="stroke:#FFFFFF;stroke-width:1.5;" x1="13" x2="35" y1="150.0586" y2="150.0586"/><line style="stroke:#FFFFFF;stroke-width:1.5;" x1="392.1826" x2="418.1826" y1="150.0586" y2="150.0586"/><path d="M403.1826,150.0586 L403.1826,147.0586 L409.1826,150.0586 L403.1826,153.0586 L403.1826,150.0586" fill="#FFFFFF"/><text fill="#FFFFFF" font-family="Verdana" font-size="14" font-weight="bold" lengthAdjust="spacing" textLength="127.6064" x="5" y="376.207">MetadataCarrier</text><rect fill="#0B58A8" height="27.0146" rx="5" ry="5" style="stroke:#FFFFFF;stroke-width:1.5;" width="62.5342" x="59" y="389.1465"/><text fill="#FFFFFF" font-family="Verdana" font-size="14" lengthAdjust="spacing" textLength="52.5342" x="64" y="408.2217">Symbol</text><line style="stroke:#FFFFFF;stroke-width:1.5;" x1="35" x2="59" y1="402.6538" y2="402.6538"/><line style="stroke:#FFFFFF;stroke-width:1.5;" x1="121.5342" x2="432.5483" y1="402.6538" y2="402.6538"/><rect fill="#0B58A8" height="27.0146" rx="5" ry="5" style="stroke:#FFFFFF;stroke-width:1.5;" width="34.4453" x="59" y="426.1611"/><text fill="#FFFFFF" font-family="Verdana" font-size="14" lengthAdjust="spacing" textLength="24.4453" x="64" y="445.2363">List</text><path d="M47,427.6685 C47,436.6685 50,439.6685 59,439.6685" fill="none" style="stroke:#FFFFFF;stroke-width:1.5;"/><line style="stroke:#FFFFFF;stroke-width:1.5;" x1="93.4453" x2="408.5483" y1="439.6685" y2="439.6685"/><path d="M248.9968,439.6685 L248.9968,436.6685 L254.9968,439.6685 L248.9968,442.6685 L248.9968,439.6685" fill="#FFFFFF"/><path d="M420.5483,427.6685 C420.5483,436.6685 417.5483,439.6685 408.5483,439.6685" fill="none" style="stroke:#FFFFFF;stroke-width:1.5;"/><rect fill="#0B58A8" height="27.0146" rx="5" ry="5" style="stroke:#FFFFFF;stroke-width:1.5;" width="55.1924" x="59" y="463.1758"/><text fill="#FFFFFF" font-family="Verdana" font-size="14" lengthAdjust="spacing" textLength="45.1924" x="64" y="482.251">Vector</text><path d="M47,464.6831 C47,473.6831 50,476.6831 59,476.6831" fill="none" style="stroke:#FFFFFF;stroke-width:1.5;"/><line style="stroke:#FFFFFF;stroke-width:1.5;" x1="114.1924" x2="408.5483" y1="476.6831" y2="476.6831"/><path d="M259.3704,476.6831 L259.3704,473.6831 L265.3704,476.6831 L259.3704,479.6831 L259.3704,476.6831" fill="#FFFFFF"/><path d="M420.5483,464.6831 C420.5483,473.6831 417.5483,476.6831 408.5483,476.6831" fill="none" style="stroke:#FFFFFF;stroke-width:1.5;"/><rect fill="#0B58A8" height="27.0146" rx="5" ry="5" style="stroke:#FFFFFF;stroke-width:1.5;" width="33.4268" x="59" y="500.1904"/><text fill="#FFFFFF" font-family="Verdana" font-size="14" lengthAdjust="spacing" textLength="23.4268" x="64" y="519.2656">Set</text><path d="M47,501.6978 C47,510.6978 50,513.6978 59,513.6978" fill="none" style="stroke:#FFFFFF;stroke-width:1.5;"/><line style="stroke:#FFFFFF;stroke-width:1.5;" x1="92.4268" x2="408.5483" y1="513.6978" y2="513.6978"/><path d="M248.4875,513.6978 L248.4875,510.6978 L254.4875,513.6978 L248.4875,516.6978 L248.4875,513.6978" fill="#FFFFFF"/><path d="M420.5483,501.6978 C420.5483,510.6978 417.5483,513.6978 408.5483,513.6978" fill="none" style="stroke:#FFFFFF;stroke-width:1.5;"/><rect fill="#0B58A8" height="27.0146" rx="5" ry="5" style="stroke:#FFFFFF;stroke-width:1.5;" width="38.9297" x="59" y="537.2051"/><text fill="#FFFFFF" font-family="Verdana" font-size="14" lengthAdjust="spacing" textLength="28.9297" x="64" y="556.2803">Map</text><path d="M47,538.7124 C47,547.7124 50,550.7124 59,550.7124" fill="none" style="stroke:#FFFFFF;stroke-width:1.5;"/><line style="stroke:#FFFFFF;stroke-width:1.5;" x1="97.9297" x2="408.5483" y1="550.7124" y2="550.7124"/><path d="M251.239,550.7124 L251.239,547.7124 L257.239,550.7124 L251.239,553.7124 L251.239,550.7124" fill="#FFFFFF"/><path d="M420.5483,538.7124 C420.5483,547.7124 417.5483,550.7124 408.5483,550.7124" fill="none" style="stroke:#FFFFFF;stroke-width:1.5;"/><rect fill="#0B58A8" height="27.0146" rx="5" ry="5" style="stroke:#FFFFFF;stroke-width:1.5;" width="118.9102" x="174.3191" y="574.2197"/><text fill="#FFFFFF" font-family="Verdana" font-size="14" lengthAdjust="spacing" textLength="108.9102" x="179.3191" y="593.2949">TaggedElement</text><path d="M59,621.2344 L59,647.0337 A0,0 0 0 0 59,647.0337 L408.5483,647.0337 A0,0 0 0 0 408.5483,647.0337 L408.5483,631.2344 L398.5483,621.2344 L237.7742,621.2344 L233.7742,601.2344 L229.7742,621.2344 L59,621.2344 A0,0 0 0 0 59,621.2344" fill="#0B58A8" style="stroke:#FFFFFF;stroke-width:1;"/><path d="M398.5483,621.2344 L398.5483,631.2344 L408.5483,631.2344 L398.5483,621.2344" fill="#0B58A8" style="stroke:#FFFFFF;stroke-width:1;"/><text fill="#FFFFFF" font-family="Verdana" font-size="13" lengthAdjust="spacing" textLength="319.4077" x="69.5703" y="639.3042">when it resolve to another metadata carrier type</text><line style="stroke:#FFFFFF;stroke-width:1.5;" x1="59" x2="174.3191" y1="587.7271" y2="587.7271"/><path d="M114.6595,587.7271 L114.6595,584.7271 L120.6595,587.7271 L114.6595,590.7271 L114.6595,587.7271" fill="#FFFFFF"/><line style="stroke:#FFFFFF;stroke-width:1.5;" x1="293.2292" x2="408.5483" y1="587.7271" y2="587.7271"/><path d="M348.8888,587.7271 L348.8888,584.7271 L354.8888,587.7271 L348.8888,590.7271 L348.8888,587.7271" fill="#FFFFFF"/><line style="stroke:#FFFFFF;stroke-width:1.5;" x1="408.5483" x2="408.5483" y1="587.7271" y2="587.7271"/><path d="M47,575.7271 C47,584.7271 50,587.7271 59,587.7271" fill="none" style="stroke:#FFFFFF;stroke-width:1.5;"/><line style="stroke:#FFFFFF;stroke-width:1.5;" x1="47" x2="47" y1="414.6538" y2="575.7271"/><path d="M35,402.6538 C44,402.6538 47,405.6538 47,414.6538" fill="none" style="stroke:#FFFFFF;stroke-width:1.5;"/><path d="M420.5483,575.7271 C420.5483,584.7271 417.5483,587.7271 408.5483,587.7271" fill="none" style="stroke:#FFFFFF;stroke-width:1.5;"/><line style="stroke:#FFFFFF;stroke-width:1.5;" x1="420.5483" x2="420.5483" y1="414.6538" y2="575.7271"/><path d="M420.5483,414.6538 C420.5483,405.6538 423.5483,402.6538 432.5483,402.6538" fill="none" style="stroke:#FFFFFF;stroke-width:1.5;"/><ellipse cx="9" cy="402.6538" fill="none" rx="4" ry="4" style="stroke:#FFFFFF;stroke-width:2;"/><ellipse cx="462.5483" cy="402.6538" fill="#FFFFFF" rx="4" ry="4" style="stroke:#FFFFFF;stroke-width:1;"/><line style="stroke:#FFFFFF;stroke-width:1.5;" x1="13" x2="35" y1="402.6538" y2="402.6538"/><line style="stroke:#FFFFFF;stroke-width:1.5;" x1="432.5483" x2="458.5483" y1="402.6538" y2="402.6538"/><path d="M443.5483,402.6538 L443.5483,399.6538 L449.5483,402.6538 L443.5483,405.6538 L443.5483,402.6538" fill="#FFFFFF"/><!--SRC=[xLVVSzf647xNNx6bBtQcIO7O7OSc7GF6JLnmc0Wx3vrsPj4jSBMuKqyd79holtTF892CY6ERFdIcce4PxNtttTwtF-vq6biqbePgv7rZ9pGbmAaSe-VroA90YpxzcP0A2Dv0vVSAV0UVuUD4Ml8ZPEE23HdoIsDjD4QIWHytn4pOmyY3xFaRV6ka6XSiSXg5vC-dGntcxGTG-NNBbo8yNRxoMmKEyujcVho1kwHhxgwCROdvcWAhJSc0JsNmmjRMrW6EnoGw8UkiB1myWzi9AP0M3CKwd15O3QWq1yB0DDCfMFbivn71itGxfwH46ZFlT1E_vVCwjlEGVkB5ZTOMFgTUj32u6HkTAD7MeJRmRRLrVD8yISVEjR8hwtdwhAsNoEbmJKQWmjJubZqmNQbkClnPysNzE1rYAsspEEjW8eCRHN4CjTJMGpEM2joq1V-43f9KZQMd0KPMQhLwkyjGJQsBz7_4ssDLxWTE2CLN0Qsq8QrnJW5V_aLGhzypq_sSkj7R_4fRcjzHjpmIleiUS6QA5R7I8lEfXv_aD9b-bC9Eu6Mrka8O6f5n9VflB1zJX0Ovy_T9-_hxLP9wyOrKRe4fD8tHjrqTXZBIKP5x0zgLnnl46Oqm2UrM-cuXUbhfsFKDiSQsTU8ABOVjoX6577NkJ6XfFETeS9rAaOFqkVna82DKjez2S0E3MZKtdlLFH-KIgAKD1sdN1lq92dthI4OOnfGRkOgfnHrXgQGr2HN42woSIJjFWxIxs5jexaQjp9todh0bwI8V6BSScgK3sxEBq4yfAbFhk33QbYO8IRGd_1PazLsMM5jH0_Y0GYOnl2eIXiZ5Ueyk-n4XNQff-HGR9fPsIF4r73vld7JQxnz5ShvfZG-UcsiY3v_hpWUkbvjqUl6GoEFU1LhrEHeufW9odPGx8hN5OUGCxLCvM2lEDF4qbcGOok3H59VwiVdoVlW7Ux_Cxv8iNXGwrKRnFMMyRpFv7rPSHOuisPlbJ5_iLULCxRqnTVR6z6vlJ9TFPEAZf8qnBGa73-mo_tyO_3S-3FeXtqYkUbsOaOdTZRhsebwj7x-eLGy62N77cK7r26edZNgrSVGAsfq1kF53x-3dVXTYFbHPES5RJayp9ZZqBd26y25HLawf0UyZKXTdlsG6wAYPD5gv3NWNrxqDu8UZvotUYK-6NO7hdhUwWV6CGBihG0Ek1kVFJxmkgd727Qe1f3m-rfKrymQSTVu1]--></g></svg>