<svg xmlns="http://www.w3.org/2000/svg" xmlns:xlink="http://www.w3.org/1999/xlink" contentStyleType="text/css" data-diagram-type="EBNF" height="179px" preserveAspectRatio="none" style="width:812px;height:179px;background:#0B58A8;" version="1.1" viewBox="0 0 812 179" width="812px" zoomAndPan="magnify"><defs/><g><rect fill="#0B58A8" height="179" style="stroke:none;stroke-width:1;" width="812" x="0" y="0"/><text fill="#FFFFFF" font-family="Verdana" font-size="14" font-weight="bold" lengthAdjust="spacing" textLength="32.4092" x="5" y="19.0752">Map</text><line style="stroke:#FFFFFF;stroke-width:1.5;" x1="35" x2="35" y1="45.522" y2="45.522"/><line style="stroke:#FFFFFF;stroke-width:1.5;" x1="35" x2="282.6875" y1="45.522" y2="45.522"/><path d="M132.075,45.522 L132.075,42.522 L138.075,45.522 L132.075,48.522 L132.075,45.522" fill="#FFFFFF"/><path d="M35,45.522 C44,45.522 47,48.2756 47,57.2756 C47,66.2756 50,69.0293 59,69.0293" fill="none" style="stroke:#FFFFFF;stroke-width:1.5;"/><path d="M258.6875,69.0293 C267.6875,69.0293 270.6875,66.2756 270.6875,57.2756 C270.6875,48.2756 273.6875,45.522 282.6875,45.522" fill="none" style="stroke:#FFFFFF;stroke-width:1.5;"/><line style="stroke:#FFFFFF;stroke-width:1.5;" x1="59" x2="59" y1="69.0293" y2="69.0293"/><rect fill="none" height="27.0146" style="stroke:#FFFFFF;stroke-width:0.5;" width="27.8145" x="59" y="55.522"/><text fill="#FFFFFF" font-family="Verdana" font-size="14" lengthAdjust="spacing" textLength="17.8145" x="64" y="74.5972">#:</text><line style="stroke:#FFFFFF;stroke-width:1.5;" x1="86.8145" x2="106.8145" y1="69.0293" y2="69.0293"/><rect fill="#0B58A8" height="27.0146" rx="5" ry="5" style="stroke:#FFFFFF;stroke-width:1.5;" width="151.873" x="106.8145" y="55.522"/><text fill="#FFFFFF" font-family="Verdana" font-size="14" lengthAdjust="spacing" textLength="141.873" x="111.8145" y="74.5972">KeywordNamespace</text><line style="stroke:#FFFFFF;stroke-width:1.5;" x1="282.6875" x2="302.6875" y1="45.522" y2="45.522"/><rect fill="none" height="27.0146" style="stroke:#FFFFFF;stroke-width:0.5;" width="18.8867" x="302.6875" y="32.0146"/><text fill="#FFFFFF" font-family="Verdana" font-size="14" lengthAdjust="spacing" textLength="8.8867" x="307.6875" y="51.0898">{</text><line style="stroke:#FFFFFF;stroke-width:1.5;" x1="321.5742" x2="341.5742" y1="45.522" y2="45.522"/><line style="stroke:#FFFFFF;stroke-width:1.5;" x1="341.5742" x2="734.1113" y1="45.522" y2="45.522"/><path d="M496.5891,45.522 L496.5891,42.522 L502.5891,45.522 L496.5891,48.522 L496.5891,45.522" fill="#FFFFFF"/><path d="M341.5742,45.522 C350.5742,45.522 353.5742,67.7756 353.5742,76.7756 C353.5742,85.7756 356.5742,108.0293 365.5742,108.0293" fill="none" style="stroke:#FFFFFF;stroke-width:1.5;"/><path d="M710.1113,108.0293 C719.1113,108.0293 722.1113,85.7756 722.1113,76.7756 C722.1113,67.7756 725.1113,45.522 734.1113,45.522" fill="none" style="stroke:#FFFFFF;stroke-width:1.5;"/><path d="M373.5742,100.0293 C373.5742,106.0293 375.5742,108.0293 381.5742,108.0293" fill="none" style="stroke:#FFFFFF;stroke-width:1.5;"/><line style="stroke:#FFFFFF;stroke-width:1.5;" x1="373.5742" x2="373.5742" y1="68.522" y2="100.0293"/><path d="M373.5742,68.522 C373.5742,62.522 375.5742,60.522 381.5742,60.522" fill="none" style="stroke:#FFFFFF;stroke-width:1.5;"/><line style="stroke:#FFFFFF;stroke-width:1.5;" x1="380.5742" x2="695.1113" y1="60.522" y2="60.522"/><path d="M567.2965,60.522 L567.2965,57.522 L561.2965,60.522 L567.2965,63.522 L567.2965,60.522" fill="#FFFFFF"/><path d="M702.1113,100.0293 C702.1113,106.0293 700.1113,108.0293 694.1113,108.0293" fill="none" style="stroke:#FFFFFF;stroke-width:1.5;"/><line style="stroke:#FFFFFF;stroke-width:1.5;" x1="702.1113" x2="702.1113" y1="68.522" y2="100.0293"/><path d="M694.1113,60.522 C700.1113,60.522 702.1113,62.522 702.1113,68.522" fill="none" style="stroke:#FFFFFF;stroke-width:1.5;"/><line style="stroke:#FFFFFF;stroke-width:1.5;" x1="365.5742" x2="380.5742" y1="108.0293" y2="108.0293"/><line style="stroke:#FFFFFF;stroke-width:1.5;" x1="695.1113" x2="710.1113" y1="108.0293" y2="108.0293"/><path d="M388.5742,100.0293 C388.5742,106.0293 390.5742,108.0293 396.5742,108.0293" fill="none" style="stroke:#FFFFFF;stroke-width:1.5;"/><line style="stroke:#FFFFFF;stroke-width:1.5;" x1="388.5742" x2="388.5742" y1="95.522" y2="100.0293"/><path d="M388.5742,95.522 C388.5742,89.522 390.5742,87.522 396.5742,87.522" fill="none" style="stroke:#FFFFFF;stroke-width:1.5;"/><line style="stroke:#FFFFFF;stroke-width:1.5;" x1="395.5742" x2="680.1113" y1="87.522" y2="87.522"/><path d="M564.2965,87.522 L564.2965,84.522 L558.2965,87.522 L564.2965,90.522 L564.2965,87.522" fill="#FFFFFF"/><path d="M687.1113,100.0293 C687.1113,106.0293 685.1113,108.0293 679.1113,108.0293" fill="none" style="stroke:#FFFFFF;stroke-width:1.5;"/><line style="stroke:#FFFFFF;stroke-width:1.5;" x1="687.1113" x2="687.1113" y1="95.522" y2="100.0293"/><path d="M679.1113,87.522 C685.1113,87.522 687.1113,89.522 687.1113,95.522" fill="none" style="stroke:#FFFFFF;stroke-width:1.5;"/><line style="stroke:#FFFFFF;stroke-width:1.5;" x1="380.5742" x2="395.5742" y1="108.0293" y2="108.0293"/><line style="stroke:#FFFFFF;stroke-width:1.5;" x1="680.1113" x2="695.1113" y1="108.0293" y2="108.0293"/><line style="stroke:#FFFFFF;stroke-width:1.5;" x1="395.5742" x2="395.5742" y1="108.0293" y2="108.0293"/><line style="stroke:#FFFFFF;stroke-width:1.5;" x1="395.5742" x2="566.3096" y1="108.0293" y2="108.0293"/><path d="M461.8684,108.0293 L461.8684,105.0293 L467.8684,108.0293 L461.8684,111.0293 L461.8684,108.0293" fill="#FFFFFF"/><path d="M395.5742,108.0293 C404.5742,108.0293 407.5742,116.783 407.5742,125.783 C407.5742,134.783 410.5742,143.5366 419.5742,143.5366" fill="none" style="stroke:#FFFFFF;stroke-width:1.5;"/><path d="M542.3096,143.5366 C551.3096,143.5366 554.3096,134.783 554.3096,125.783 C554.3096,116.783 557.3096,108.0293 566.3096,108.0293" fill="none" style="stroke:#FFFFFF;stroke-width:1.5;"/><path d="M427.5742,135.5366 C427.5742,141.5366 429.5742,143.5366 435.5742,143.5366" fill="none" style="stroke:#FFFFFF;stroke-width:1.5;"/><line style="stroke:#FFFFFF;stroke-width:1.5;" x1="427.5742" x2="427.5742" y1="131.0293" y2="135.5366"/><path d="M427.5742,131.0293 C427.5742,125.0293 429.5742,123.0293 435.5742,123.0293" fill="none" style="stroke:#FFFFFF;stroke-width:1.5;"/><line style="stroke:#FFFFFF;stroke-width:1.5;" x1="434.5742" x2="527.3096" y1="123.0293" y2="123.0293"/><path d="M488.2154,123.0293 L488.2154,120.0293 L482.2154,123.0293 L488.2154,126.0293 L488.2154,123.0293" fill="#FFFFFF"/><path d="M534.3096,135.5366 C534.3096,141.5366 532.3096,143.5366 526.3096,143.5366" fill="none" style="stroke:#FFFFFF;stroke-width:1.5;"/><line style="stroke:#FFFFFF;stroke-width:1.5;" x1="534.3096" x2="534.3096" y1="131.0293" y2="135.5366"/><path d="M526.3096,123.0293 C532.3096,123.0293 534.3096,125.0293 534.3096,131.0293" fill="none" style="stroke:#FFFFFF;stroke-width:1.5;"/><line style="stroke:#FFFFFF;stroke-width:1.5;" x1="419.5742" x2="434.5742" y1="143.5366" y2="143.5366"/><line style="stroke:#FFFFFF;stroke-width:1.5;" x1="527.3096" x2="542.3096" y1="143.5366" y2="143.5366"/><rect fill="#0B58A8" height="27.0146" rx="5" ry="5" style="stroke:#FFFFFF;stroke-width:1.5;" width="92.7354" x="434.5742" y="130.0293"/><text fill="#FFFFFF" font-family="Verdana" font-size="14" lengthAdjust="spacing" textLength="82.7354" x="439.5742" y="149.1045">WhiteSpace</text><line style="stroke:#FFFFFF;stroke-width:1.5;" x1="566.3096" x2="586.3096" y1="108.0293" y2="108.0293"/><rect fill="#0B58A8" height="27.0146" rx="5" ry="5" style="stroke:#FFFFFF;stroke-width:1.5;" width="93.8018" x="586.3096" y="94.522"/><text fill="#FFFFFF" font-family="Verdana" font-size="14" lengthAdjust="spacing" textLength="83.8018" x="591.3096" y="113.5972">EdnElement</text><path d="M380.5742,82.522 C380.5742,78.772 381.8242,77.522 385.5742,77.522" fill="none" style="stroke:#FFFFFF;stroke-width:0.5;"/><path d="M537.8428,72.522 C537.8428,76.272 536.5928,77.522 532.8428,77.522" fill="none" style="stroke:#FFFFFF;stroke-width:0.5;"/><path d="M537.8428,72.522 C537.8428,76.272 539.0928,77.522 542.8428,77.522" fill="none" style="stroke:#FFFFFF;stroke-width:0.5;"/><path d="M690.1113,77.522 C693.8613,77.522 695.1113,78.772 695.1113,82.522" fill="none" style="stroke:#FFFFFF;stroke-width:0.5;"/><line style="stroke:#FFFFFF;stroke-width:0.5;" x1="385.5742" x2="532.8428" y1="77.522" y2="77.522"/><line style="stroke:#FFFFFF;stroke-width:0.5;" x1="542.8428" x2="690.1113" y1="77.522" y2="77.522"/><text fill="#FFFFFF" font-family="Verdana" font-size="12" lengthAdjust="spacing" textLength="17.4492" x="529.1182" y="70.0415">2&#215;</text><line style="stroke:#FFFFFF;stroke-width:1.5;" x1="734.1113" x2="754.1113" y1="45.522" y2="45.522"/><rect fill="none" height="27.0146" style="stroke:#FFFFFF;stroke-width:0.5;" width="18.8867" x="754.1113" y="32.0146"/><text fill="#FFFFFF" font-family="Verdana" font-size="14" lengthAdjust="spacing" textLength="8.8867" x="759.1113" y="51.0898">}</text><ellipse cx="9" cy="45.522" fill="none" rx="4" ry="4" style="stroke:#FFFFFF;stroke-width:2;"/><ellipse cx="802.998" cy="45.522" fill="#FFFFFF" rx="4" ry="4" style="stroke:#FFFFFF;stroke-width:1;"/><line style="stroke:#FFFFFF;stroke-width:1.5;" x1="13" x2="35" y1="45.522" y2="45.522"/><line style="stroke:#FFFFFF;stroke-width:1.5;" x1="772.998" x2="798.998" y1="45.522" y2="45.522"/><path d="M783.998,45.522 L783.998,42.522 L789.998,45.522 L783.998,48.522 L783.998,45.522" fill="#FFFFFF"/><!--SRC=[lLPjKzf04FwUNx75Bzgf5b4wIcr7GAWYA6Dy-T3fXoEtm9LmbrukA7NuxzqB88b0VQDb9a1sdtjsiwyv30tJ1bkoxRmpNUmZiBxeCCTfi02-m7V8h1Koy05ESNYhD3zZVGm3vY7y867ctghk8GVlOPr-Rxh2e1khHwIeS5dnYL8Qs8W5cL46FZlE8KeUMtGEPzR7duFG37tywW1efGpSqn-04lDw7QqYoSlALnhMigNyNd4lrbMLD1DfDVuyIAshS8sQCybYuV4mG5qNiZV57nLtSlbOHLASPx7IowxmUXB34BPZMOFfZf1WZuteuigBuWSSU-gnm0Wb9tUF6RAnT1H_j-dnK3y3s4N6dmKqmlZuWBCHSCLlX5pkYPFsij4DZfEMvcB-ABgBC-7Qx45B-Nn2B1MV-jHWTw8VzMy4DrtOoMOd28rjr2Wz_1VcGmoOPaQjbFRWuwH8dR0df3NGXwBMwhQkV5y4AaXppq3BwdY6EC8sYtmpLxvpY8QIAkv3_e0jgqWBr0biNRJHfwoxXcA0dI5b8rI-u0b8azfFU29WqZGPvq9sO3kRqBluAxB9iLIsW4eq0r0lUq2toxYwjIHjveUOq5o5M4B3nf4qEi9Ky3mZ1i8CuoGjR_OIqu-pjiYTnJDXBgIZP6AiEQR73ioVJaFlOjGqMlcKjYoqvoClT-dEc_RteiAQonh01UCY2c4_JUWpQjOduhAQ8CIcYiPeqOeCBWd5SpXSUd1KXgRjwqYgiz7uuhE98VBoitO_KB_qukFf9P74dNXADYaRh8Cfv4DHBidK78SM0sRUoa6neahZRsE9MhxmNarnfbvRB-Ujd-JzkBuNLF4eDQbc4LzHnRjc6lwNDLUQOrhinSLCVvrLYvdAAsEgh8pfP6LCPszaebLIPY6E2IzVE6N-psjjqwTzUjMemm1rQDy7jxTosLn-QtVTPGPgaOJS7cpl5BBxXLmUoXNt4gn-mrd_rgn3I2k1J74HZcSn4MmuDJPWS1598_fOWFC0PUteT2g0YXm8hQJroQbTDsQ0JxkR9M5eZMjo1QuRpkJzWKvuoYwm0bnTLZVtd3gJdOZwgm0e7LfAqkWXwTm_]--></g></svg>