<svg xmlns="http://www.w3.org/2000/svg" xmlns:xlink="http://www.w3.org/1999/xlink" contentStyleType="text/css" data-diagram-type="EBNF" height="1450px" preserveAspectRatio="none" style="width:746px;height:1450px;background:#0B58A8;" version="1.1" viewBox="0 0 746 1450" width="746px" zoomAndPan="magnify"><defs/><g><rect fill="#0B58A8" height="1450" style="stroke:none;stroke-width:1;" width="746" x="0" y="0"/><path d="M5,10 L5,35.7993 L149.5825,35.7993 L149.5825,20 L139.5825,10 L5,10" fill="#0B58A8" style="stroke:#FFFFFF;stroke-width:1;"/><path d="M139.5825,10 L139.5825,20 L149.5825,20 L139.5825,10" fill="#0B58A8" style="stroke:#FFFFFF;stroke-width:1;"/><text fill="#FFFFFF" font-family="Verdana" font-size="13" lengthAdjust="spacing" textLength="114.4419" x="15.5703" y="28.0698">TODO incomplete</text><text fill="#FFFFFF" font-family="Verdana" font-size="14" font-weight="bold" lengthAdjust="spacing" textLength="58.0576" x="5" y="64.8745">Symbol</text><line style="stroke:#FFFFFF;stroke-width:1.5;" x1="35" x2="35" y1="91.3213" y2="91.3213"/><rect fill="#0B58A8" height="27.0146" rx="5" ry="5" style="stroke:#FFFFFF;stroke-width:1.5;" width="74.251" x="35" y="77.814"/><text fill="#FFFFFF" font-family="Verdana" font-size="14" lengthAdjust="spacing" textLength="64.251" x="40" y="96.8892">Identifier</text><line style="stroke:#FFFFFF;stroke-width:1.5;" x1="109.251" x2="129.251" y1="91.3213" y2="91.3213"/><text fill="#FFFFFF" font-family="Verdana" font-size="14" lengthAdjust="spacing" textLength="30.1191" x="132.251" y="95.2607">NOT</text><rect fill="#0B58A8" height="27.0146" rx="5" ry="5" style="stroke:#FFFFFF;stroke-width:1.5;" width="28.1563" x="191.3701" y="77.814"/><text fill="#FFFFFF" font-family="Verdana" font-size="14" lengthAdjust="spacing" textLength="18.1563" x="196.3701" y="96.8892">Nil</text><line style="stroke:#FFFFFF;stroke-width:1.5;" x1="167.3701" x2="191.3701" y1="91.3213" y2="91.3213"/><line style="stroke:#FFFFFF;stroke-width:1.5;" x1="219.5264" x2="281.4111" y1="91.3213" y2="91.3213"/><rect fill="#0B58A8" height="27.0146" rx="5" ry="5" style="stroke:#FFFFFF;stroke-width:1.5;" width="66.041" x="191.3701" y="114.8286"/><text fill="#FFFFFF" font-family="Verdana" font-size="14" lengthAdjust="spacing" textLength="56.041" x="196.3701" y="133.9038">Boolean</text><line style="stroke:#FFFFFF;stroke-width:1.5;" x1="257.4111" x2="257.4111" y1="128.3359" y2="128.3359"/><path d="M179.3701,116.3359 C179.3701,125.3359 182.3701,128.3359 191.3701,128.3359" fill="none" style="stroke:#FFFFFF;stroke-width:1.5;"/><line style="stroke:#FFFFFF;stroke-width:1.5;" x1="179.3701" x2="179.3701" y1="103.3213" y2="116.3359"/><path d="M167.3701,91.3213 C176.3701,91.3213 179.3701,94.3213 179.3701,103.3213" fill="none" style="stroke:#FFFFFF;stroke-width:1.5;"/><path d="M269.4111,116.3359 C269.4111,125.3359 266.4111,128.3359 257.4111,128.3359" fill="none" style="stroke:#FFFFFF;stroke-width:1.5;"/><line style="stroke:#FFFFFF;stroke-width:1.5;" x1="269.4111" x2="269.4111" y1="103.3213" y2="116.3359"/><path d="M269.4111,103.3213 C269.4111,94.3213 272.4111,91.3213 281.4111,91.3213" fill="none" style="stroke:#FFFFFF;stroke-width:1.5;"/><ellipse cx="9" cy="91.3213" fill="none" rx="4" ry="4" style="stroke:#FFFFFF;stroke-width:2;"/><ellipse cx="311.4111" cy="91.3213" fill="#FFFFFF" rx="4" ry="4" style="stroke:#FFFFFF;stroke-width:1;"/><line style="stroke:#FFFFFF;stroke-width:1.5;" x1="13" x2="35" y1="91.3213" y2="91.3213"/><line style="stroke:#FFFFFF;stroke-width:1.5;" x1="281.4111" x2="307.4111" y1="91.3213" y2="91.3213"/><path d="M292.4111,91.3213 L292.4111,88.3213 L298.4111,91.3213 L292.4111,94.3213 L292.4111,91.3213" fill="#FFFFFF"/><text fill="#FFFFFF" font-family="Verdana" font-size="14" font-weight="bold" lengthAdjust="spacing" textLength="74.8193" x="5" y="170.9185">Identifier</text><line style="stroke:#FFFFFF;stroke-width:1.5;" x1="59" x2="59" y1="197.3652" y2="197.3652"/><rect fill="#0B58A8" height="27.0146" rx="5" ry="5" style="stroke:#FFFFFF;stroke-width:1.5;" width="114.0566" x="59" y="183.8579"/><text fill="#FFFFFF" font-family="Verdana" font-size="14" lengthAdjust="spacing" textLength="104.0566" x="64" y="202.9331">IdentifierPrefix</text><line style="stroke:#FFFFFF;stroke-width:1.5;" x1="173.0566" x2="193.0566" y1="197.3652" y2="197.3652"/><rect fill="none" height="27.0146" style="stroke:#FFFFFF;stroke-width:0.5;" width="16.3574" x="193.0566" y="183.8579"/><text fill="#FFFFFF" font-family="Verdana" font-size="14" lengthAdjust="spacing" textLength="6.3574" x="198.0566" y="202.9331">/</text><line style="stroke:#FFFFFF;stroke-width:1.5;" x1="209.4141" x2="229.4141" y1="197.3652" y2="197.3652"/><rect fill="#0B58A8" height="27.0146" rx="5" ry="5" style="stroke:#FFFFFF;stroke-width:1.5;" width="115.0889" x="229.4141" y="183.8579"/><text fill="#FFFFFF" font-family="Verdana" font-size="14" lengthAdjust="spacing" textLength="105.0889" x="234.4141" y="202.9331">IdentifierName</text><line style="stroke:#FFFFFF;stroke-width:1.5;" x1="35" x2="59" y1="197.3652" y2="197.3652"/><line style="stroke:#FFFFFF;stroke-width:1.5;" x1="344.5029" x2="368.5029" y1="197.3652" y2="197.3652"/><rect fill="#0B58A8" height="27.0146" rx="5" ry="5" style="stroke:#FFFFFF;stroke-width:1.5;" width="114.0566" x="59" y="220.8726"/><text fill="#FFFFFF" font-family="Verdana" font-size="14" lengthAdjust="spacing" textLength="104.0566" x="64" y="239.9478">IdentifierPrefix</text><path d="M47,222.3799 C47,231.3799 50,234.3799 59,234.3799" fill="none" style="stroke:#FFFFFF;stroke-width:1.5;"/><line style="stroke:#FFFFFF;stroke-width:1.5;" x1="173.0566" x2="344.5029" y1="234.3799" y2="234.3799"/><path d="M256.7798,234.3799 L256.7798,231.3799 L262.7798,234.3799 L256.7798,237.3799 L256.7798,234.3799" fill="#FFFFFF"/><path d="M356.5029,222.3799 C356.5029,231.3799 353.5029,234.3799 344.5029,234.3799" fill="none" style="stroke:#FFFFFF;stroke-width:1.5;"/><rect fill="none" height="27.0146" style="stroke:#FFFFFF;stroke-width:0.5;" width="16.3574" x="59" y="257.8872"/><text fill="#FFFFFF" font-family="Verdana" font-size="14" lengthAdjust="spacing" textLength="6.3574" x="64" y="276.9624">/</text><line style="stroke:#FFFFFF;stroke-width:1.5;" x1="75.3574" x2="344.5029" y1="271.3945" y2="271.3945"/><path d="M207.9302,271.3945 L207.9302,268.3945 L213.9302,271.3945 L207.9302,274.3945 L207.9302,271.3945" fill="#FFFFFF"/><path d="M47,259.3945 C47,268.3945 50,271.3945 59,271.3945" fill="none" style="stroke:#FFFFFF;stroke-width:1.5;"/><line style="stroke:#FFFFFF;stroke-width:1.5;" x1="47" x2="47" y1="209.3652" y2="259.3945"/><path d="M35,197.3652 C44,197.3652 47,200.3652 47,209.3652" fill="none" style="stroke:#FFFFFF;stroke-width:1.5;"/><path d="M356.5029,259.3945 C356.5029,268.3945 353.5029,271.3945 344.5029,271.3945" fill="none" style="stroke:#FFFFFF;stroke-width:1.5;"/><line style="stroke:#FFFFFF;stroke-width:1.5;" x1="356.5029" x2="356.5029" y1="209.3652" y2="259.3945"/><path d="M356.5029,209.3652 C356.5029,200.3652 359.5029,197.3652 368.5029,197.3652" fill="none" style="stroke:#FFFFFF;stroke-width:1.5;"/><ellipse cx="9" cy="197.3652" fill="none" rx="4" ry="4" style="stroke:#FFFFFF;stroke-width:2;"/><ellipse cx="398.5029" cy="197.3652" fill="#FFFFFF" rx="4" ry="4" style="stroke:#FFFFFF;stroke-width:1;"/><line style="stroke:#FFFFFF;stroke-width:1.5;" x1="13" x2="35" y1="197.3652" y2="197.3652"/><line style="stroke:#FFFFFF;stroke-width:1.5;" x1="368.5029" x2="394.5029" y1="197.3652" y2="197.3652"/><path d="M379.5029,197.3652 L379.5029,194.3652 L385.5029,197.3652 L379.5029,200.3652 L379.5029,197.3652" fill="#FFFFFF"/><text fill="#FFFFFF" font-family="Verdana" font-size="14" font-weight="bold" lengthAdjust="spacing" textLength="121.3994" x="5" y="313.9771">IdentifierPrefix</text><line style="stroke:#FFFFFF;stroke-width:1.5;" x1="59" x2="59" y1="340.4238" y2="340.4238"/><rect fill="#0B58A8" height="27.0146" rx="5" ry="5" style="stroke:#FFFFFF;stroke-width:1.5;" width="109.2373" x="59" y="326.9165"/><text fill="#FFFFFF" font-family="Verdana" font-size="14" lengthAdjust="spacing" textLength="99.2373" x="64" y="345.9917">IdentifierStart</text><line style="stroke:#FFFFFF;stroke-width:1.5;" x1="168.2373" x2="188.2373" y1="340.4238" y2="340.4238"/><text fill="#FFFFFF" font-family="Verdana" font-size="14" lengthAdjust="spacing" textLength="30.1191" x="191.2373" y="344.3633">NOT</text><rect fill="none" height="27.0146" style="stroke:#FFFFFF;stroke-width:0.5;" width="21.457" x="250.3564" y="326.9165"/><text fill="#FFFFFF" font-family="Verdana" font-size="14" lengthAdjust="spacing" textLength="11.457" x="255.3564" y="345.9917">+</text><line style="stroke:#FFFFFF;stroke-width:1.5;" x1="226.3564" x2="250.3564" y1="340.4238" y2="340.4238"/><line style="stroke:#FFFFFF;stroke-width:1.5;" x1="271.8135" x2="295.8135" y1="340.4238" y2="340.4238"/><rect fill="none" height="27.0146" style="stroke:#FFFFFF;stroke-width:0.5;" width="16.3574" x="250.3564" y="363.9312"/><text fill="#FFFFFF" font-family="Verdana" font-size="14" lengthAdjust="spacing" textLength="6.3574" x="255.3564" y="383.0063">-</text><path d="M238.3564,365.4385 C238.3564,374.4385 241.3564,377.4385 250.3564,377.4385" fill="none" style="stroke:#FFFFFF;stroke-width:1.5;"/><line style="stroke:#FFFFFF;stroke-width:1.5;" x1="266.7139" x2="271.8135" y1="377.4385" y2="377.4385"/><path d="M283.8135,365.4385 C283.8135,374.4385 280.8135,377.4385 271.8135,377.4385" fill="none" style="stroke:#FFFFFF;stroke-width:1.5;"/><rect fill="none" height="27.0146" style="stroke:#FFFFFF;stroke-width:0.5;" width="15.0928" x="250.3564" y="400.9458"/><text fill="#FFFFFF" font-family="Verdana" font-size="14" lengthAdjust="spacing" textLength="5.0928" x="255.3564" y="420.021">.</text><line style="stroke:#FFFFFF;stroke-width:1.5;" x1="265.4492" x2="271.8135" y1="414.4531" y2="414.4531"/><path d="M238.3564,402.4531 C238.3564,411.4531 241.3564,414.4531 250.3564,414.4531" fill="none" style="stroke:#FFFFFF;stroke-width:1.5;"/><line style="stroke:#FFFFFF;stroke-width:1.5;" x1="238.3564" x2="238.3564" y1="352.4238" y2="402.4531"/><path d="M226.3564,340.4238 C235.3564,340.4238 238.3564,343.4238 238.3564,352.4238" fill="none" style="stroke:#FFFFFF;stroke-width:1.5;"/><path d="M283.8135,402.4531 C283.8135,411.4531 280.8135,414.4531 271.8135,414.4531" fill="none" style="stroke:#FFFFFF;stroke-width:1.5;"/><line style="stroke:#FFFFFF;stroke-width:1.5;" x1="283.8135" x2="283.8135" y1="352.4238" y2="402.4531"/><path d="M283.8135,352.4238 C283.8135,343.4238 286.8135,340.4238 295.8135,340.4238" fill="none" style="stroke:#FFFFFF;stroke-width:1.5;"/><line style="stroke:#FFFFFF;stroke-width:1.5;" x1="295.8135" x2="315.8135" y1="340.4238" y2="340.4238"/><line style="stroke:#FFFFFF;stroke-width:1.5;" x1="315.8135" x2="503.167" y1="340.4238" y2="340.4238"/><path d="M388.7549,340.4238 L388.7549,337.4238 L394.7549,340.4238 L388.7549,343.4238 L388.7549,340.4238" fill="#FFFFFF"/><path d="M315.8135,340.4238 C324.8135,340.4238 327.8135,349.1775 327.8135,358.1775 C327.8135,367.1775 330.8135,375.9312 339.8135,375.9312" fill="none" style="stroke:#FFFFFF;stroke-width:1.5;"/><path d="M479.167,375.9312 C488.167,375.9312 491.167,367.1775 491.167,358.1775 C491.167,349.1775 494.167,340.4238 503.167,340.4238" fill="none" style="stroke:#FFFFFF;stroke-width:1.5;"/><path d="M347.8135,367.9312 C347.8135,373.9312 349.8135,375.9312 355.8135,375.9312" fill="none" style="stroke:#FFFFFF;stroke-width:1.5;"/><line style="stroke:#FFFFFF;stroke-width:1.5;" x1="347.8135" x2="347.8135" y1="363.4238" y2="367.9312"/><path d="M347.8135,363.4238 C347.8135,357.4238 349.8135,355.4238 355.8135,355.4238" fill="none" style="stroke:#FFFFFF;stroke-width:1.5;"/><line style="stroke:#FFFFFF;stroke-width:1.5;" x1="354.8135" x2="464.167" y1="355.4238" y2="355.4238"/><path d="M418.4256,355.4238 L418.4256,352.4238 L412.4256,355.4238 L418.4256,358.4238 L418.4256,355.4238" fill="#FFFFFF"/><path d="M471.167,367.9312 C471.167,373.9312 469.167,375.9312 463.167,375.9312" fill="none" style="stroke:#FFFFFF;stroke-width:1.5;"/><line style="stroke:#FFFFFF;stroke-width:1.5;" x1="471.167" x2="471.167" y1="363.4238" y2="367.9312"/><path d="M463.167,355.4238 C469.167,355.4238 471.167,357.4238 471.167,363.4238" fill="none" style="stroke:#FFFFFF;stroke-width:1.5;"/><line style="stroke:#FFFFFF;stroke-width:1.5;" x1="339.8135" x2="354.8135" y1="375.9312" y2="375.9312"/><line style="stroke:#FFFFFF;stroke-width:1.5;" x1="464.167" x2="479.167" y1="375.9312" y2="375.9312"/><rect fill="#0B58A8" height="27.0146" rx="5" ry="5" style="stroke:#FFFFFF;stroke-width:1.5;" width="109.3535" x="354.8135" y="362.4238"/><text fill="#FFFFFF" font-family="Verdana" font-size="14" lengthAdjust="spacing" textLength="99.3535" x="359.8135" y="381.499">IdentifierBody</text><line style="stroke:#FFFFFF;stroke-width:1.5;" x1="35" x2="59" y1="340.4238" y2="340.4238"/><line style="stroke:#FFFFFF;stroke-width:1.5;" x1="503.167" x2="706.8242" y1="340.4238" y2="340.4238"/><line style="stroke:#FFFFFF;stroke-width:1.5;" x1="59" x2="59" y1="451.4678" y2="451.4678"/><rect fill="none" height="27.0146" style="stroke:#FFFFFF;stroke-width:0.5;" width="21.457" x="83" y="437.9604"/><text fill="#FFFFFF" font-family="Verdana" font-size="14" lengthAdjust="spacing" textLength="11.457" x="88" y="457.0356">+</text><line style="stroke:#FFFFFF;stroke-width:1.5;" x1="59" x2="83" y1="451.4678" y2="451.4678"/><line style="stroke:#FFFFFF;stroke-width:1.5;" x1="104.457" x2="128.457" y1="451.4678" y2="451.4678"/><rect fill="none" height="27.0146" style="stroke:#FFFFFF;stroke-width:0.5;" width="16.3574" x="83" y="474.9751"/><text fill="#FFFFFF" font-family="Verdana" font-size="14" lengthAdjust="spacing" textLength="6.3574" x="88" y="494.0503">-</text><path d="M71,476.4824 C71,485.4824 74,488.4824 83,488.4824" fill="none" style="stroke:#FFFFFF;stroke-width:1.5;"/><line style="stroke:#FFFFFF;stroke-width:1.5;" x1="99.3574" x2="104.457" y1="488.4824" y2="488.4824"/><path d="M116.457,476.4824 C116.457,485.4824 113.457,488.4824 104.457,488.4824" fill="none" style="stroke:#FFFFFF;stroke-width:1.5;"/><rect fill="none" height="27.0146" style="stroke:#FFFFFF;stroke-width:0.5;" width="15.0928" x="83" y="511.9897"/><text fill="#FFFFFF" font-family="Verdana" font-size="14" lengthAdjust="spacing" textLength="5.0928" x="88" y="531.0649">.</text><line style="stroke:#FFFFFF;stroke-width:1.5;" x1="98.0928" x2="104.457" y1="525.4971" y2="525.4971"/><path d="M71,513.4971 C71,522.4971 74,525.4971 83,525.4971" fill="none" style="stroke:#FFFFFF;stroke-width:1.5;"/><line style="stroke:#FFFFFF;stroke-width:1.5;" x1="71" x2="71" y1="463.4678" y2="513.4971"/><path d="M59,451.4678 C68,451.4678 71,454.4678 71,463.4678" fill="none" style="stroke:#FFFFFF;stroke-width:1.5;"/><path d="M116.457,513.4971 C116.457,522.4971 113.457,525.4971 104.457,525.4971" fill="none" style="stroke:#FFFFFF;stroke-width:1.5;"/><line style="stroke:#FFFFFF;stroke-width:1.5;" x1="116.457" x2="116.457" y1="463.4678" y2="513.4971"/><path d="M116.457,463.4678 C116.457,454.4678 119.457,451.4678 128.457,451.4678" fill="none" style="stroke:#FFFFFF;stroke-width:1.5;"/><line style="stroke:#FFFFFF;stroke-width:1.5;" x1="128.457" x2="148.457" y1="451.4678" y2="451.4678"/><line style="stroke:#FFFFFF;stroke-width:1.5;" x1="148.457" x2="682.8242" y1="451.4678" y2="451.4678"/><path d="M360.2039,451.4678 L360.2039,448.4678 L366.2039,451.4678 L360.2039,454.4678 L360.2039,451.4678" fill="#FFFFFF"/><path d="M148.457,451.4678 C157.457,451.4678 160.457,454.2214 160.457,463.2214 C160.457,472.2214 163.457,474.9751 172.457,474.9751" fill="none" style="stroke:#FFFFFF;stroke-width:1.5;"/><path d="M658.8242,474.9751 C667.8242,474.9751 670.8242,472.2214 670.8242,463.2214 C670.8242,454.2214 673.8242,451.4678 682.8242,451.4678" fill="none" style="stroke:#FFFFFF;stroke-width:1.5;"/><line style="stroke:#FFFFFF;stroke-width:1.5;" x1="172.457" x2="172.457" y1="474.9751" y2="474.9751"/><rect fill="#0B58A8" height="27.0146" rx="5" ry="5" style="stroke:#FFFFFF;stroke-width:1.5;" width="109.3535" x="172.457" y="461.4678"/><text fill="#FFFFFF" font-family="Verdana" font-size="14" lengthAdjust="spacing" textLength="99.3535" x="177.457" y="480.543">IdentifierBody</text><line style="stroke:#FFFFFF;stroke-width:1.5;" x1="281.8105" x2="301.8105" y1="474.9751" y2="474.9751"/><text fill="#FFFFFF" font-family="Verdana" font-size="14" lengthAdjust="spacing" textLength="30.1191" x="304.8105" y="478.9146">NOT</text><rect fill="none" height="27.0146" style="stroke:#FFFFFF;stroke-width:1;stroke-dasharray:5,5;" width="111.541" x="339.9297" y="461.4678"/><text fill="#FFFFFF" font-family="Verdana" font-size="14" lengthAdjust="spacing" textLength="91.6973" x="349.8516" y="480.543">Decimal digit</text><line style="stroke:#FFFFFF;stroke-width:1.5;" x1="451.4707" x2="471.4707" y1="474.9751" y2="474.9751"/><line style="stroke:#FFFFFF;stroke-width:1.5;" x1="471.4707" x2="658.8242" y1="474.9751" y2="474.9751"/><path d="M544.4121,474.9751 L544.4121,471.9751 L550.4121,474.9751 L544.4121,477.9751 L544.4121,474.9751" fill="#FFFFFF"/><path d="M471.4707,474.9751 C480.4707,474.9751 483.4707,483.7288 483.4707,492.7288 C483.4707,501.7288 486.4707,510.4824 495.4707,510.4824" fill="none" style="stroke:#FFFFFF;stroke-width:1.5;"/><path d="M634.8242,510.4824 C643.8242,510.4824 646.8242,501.7288 646.8242,492.7288 C646.8242,483.7288 649.8242,474.9751 658.8242,474.9751" fill="none" style="stroke:#FFFFFF;stroke-width:1.5;"/><path d="M503.4707,502.4824 C503.4707,508.4824 505.4707,510.4824 511.4707,510.4824" fill="none" style="stroke:#FFFFFF;stroke-width:1.5;"/><line style="stroke:#FFFFFF;stroke-width:1.5;" x1="503.4707" x2="503.4707" y1="497.9751" y2="502.4824"/><path d="M503.4707,497.9751 C503.4707,491.9751 505.4707,489.9751 511.4707,489.9751" fill="none" style="stroke:#FFFFFF;stroke-width:1.5;"/><line style="stroke:#FFFFFF;stroke-width:1.5;" x1="510.4707" x2="619.8242" y1="489.9751" y2="489.9751"/><path d="M574.0828,489.9751 L574.0828,486.9751 L568.0828,489.9751 L574.0828,492.9751 L574.0828,489.9751" fill="#FFFFFF"/><path d="M626.8242,502.4824 C626.8242,508.4824 624.8242,510.4824 618.8242,510.4824" fill="none" style="stroke:#FFFFFF;stroke-width:1.5;"/><line style="stroke:#FFFFFF;stroke-width:1.5;" x1="626.8242" x2="626.8242" y1="497.9751" y2="502.4824"/><path d="M618.8242,489.9751 C624.8242,489.9751 626.8242,491.9751 626.8242,497.9751" fill="none" style="stroke:#FFFFFF;stroke-width:1.5;"/><line style="stroke:#FFFFFF;stroke-width:1.5;" x1="495.4707" x2="510.4707" y1="510.4824" y2="510.4824"/><line style="stroke:#FFFFFF;stroke-width:1.5;" x1="619.8242" x2="634.8242" y1="510.4824" y2="510.4824"/><rect fill="#0B58A8" height="27.0146" rx="5" ry="5" style="stroke:#FFFFFF;stroke-width:1.5;" width="109.3535" x="510.4707" y="496.9751"/><text fill="#FFFFFF" font-family="Verdana" font-size="14" lengthAdjust="spacing" textLength="99.3535" x="515.4707" y="516.0503">IdentifierBody</text><line style="stroke:#FFFFFF;stroke-width:1.5;" x1="682.8242" x2="682.8242" y1="451.4678" y2="451.4678"/><path d="M47,439.4678 C47,448.4678 50,451.4678 59,451.4678" fill="none" style="stroke:#FFFFFF;stroke-width:1.5;"/><line style="stroke:#FFFFFF;stroke-width:1.5;" x1="47" x2="47" y1="352.4238" y2="439.4678"/><path d="M35,340.4238 C44,340.4238 47,343.4238 47,352.4238" fill="none" style="stroke:#FFFFFF;stroke-width:1.5;"/><path d="M694.8242,439.4678 C694.8242,448.4678 691.8242,451.4678 682.8242,451.4678" fill="none" style="stroke:#FFFFFF;stroke-width:1.5;"/><line style="stroke:#FFFFFF;stroke-width:1.5;" x1="694.8242" x2="694.8242" y1="352.4238" y2="439.4678"/><path d="M694.8242,352.4238 C694.8242,343.4238 697.8242,340.4238 706.8242,340.4238" fill="none" style="stroke:#FFFFFF;stroke-width:1.5;"/><ellipse cx="9" cy="340.4238" fill="none" rx="4" ry="4" style="stroke:#FFFFFF;stroke-width:2;"/><ellipse cx="736.8242" cy="340.4238" fill="#FFFFFF" rx="4" ry="4" style="stroke:#FFFFFF;stroke-width:1;"/><line style="stroke:#FFFFFF;stroke-width:1.5;" x1="13" x2="35" y1="340.4238" y2="340.4238"/><line style="stroke:#FFFFFF;stroke-width:1.5;" x1="706.8242" x2="732.8242" y1="340.4238" y2="340.4238"/><path d="M717.8242,340.4238 L717.8242,337.4238 L723.8242,340.4238 L717.8242,343.4238 L717.8242,340.4238" fill="#FFFFFF"/><text fill="#FFFFFF" font-family="Verdana" font-size="14" font-weight="bold" lengthAdjust="spacing" textLength="120.1348" x="5" y="568.0796">IdentifierName</text><path d="M43,598.5264 C43,604.5264 45,606.5264 51,606.5264" fill="none" style="stroke:#FFFFFF;stroke-width:1.5;"/><line style="stroke:#FFFFFF;stroke-width:1.5;" x1="43" x2="43" y1="594.019" y2="598.5264"/><path d="M43,594.019 C43,588.019 45,586.019 51,586.019" fill="none" style="stroke:#FFFFFF;stroke-width:1.5;"/><line style="stroke:#FFFFFF;stroke-width:1.5;" x1="50" x2="159.2373" y1="586.019" y2="586.019"/><path d="M113.5424,586.019 L113.5424,583.019 L107.5424,586.019 L113.5424,589.019 L113.5424,586.019" fill="#FFFFFF"/><path d="M166.2373,598.5264 C166.2373,604.5264 164.2373,606.5264 158.2373,606.5264" fill="none" style="stroke:#FFFFFF;stroke-width:1.5;"/><line style="stroke:#FFFFFF;stroke-width:1.5;" x1="166.2373" x2="166.2373" y1="594.019" y2="598.5264"/><path d="M158.2373,586.019 C164.2373,586.019 166.2373,588.019 166.2373,594.019" fill="none" style="stroke:#FFFFFF;stroke-width:1.5;"/><line style="stroke:#FFFFFF;stroke-width:1.5;" x1="35" x2="50" y1="606.5264" y2="606.5264"/><line style="stroke:#FFFFFF;stroke-width:1.5;" x1="159.2373" x2="174.2373" y1="606.5264" y2="606.5264"/><rect fill="#0B58A8" height="27.0146" rx="5" ry="5" style="stroke:#FFFFFF;stroke-width:1.5;" width="109.2373" x="50" y="593.019"/><text fill="#FFFFFF" font-family="Verdana" font-size="14" lengthAdjust="spacing" textLength="99.2373" x="55" y="612.0942">IdentifierStart</text><ellipse cx="9" cy="606.5264" fill="none" rx="4" ry="4" style="stroke:#FFFFFF;stroke-width:2;"/><ellipse cx="204.2373" cy="606.5264" fill="#FFFFFF" rx="4" ry="4" style="stroke:#FFFFFF;stroke-width:1;"/><line style="stroke:#FFFFFF;stroke-width:1.5;" x1="13" x2="35" y1="606.5264" y2="606.5264"/><line style="stroke:#FFFFFF;stroke-width:1.5;" x1="174.2373" x2="200.2373" y1="606.5264" y2="606.5264"/><path d="M185.2373,606.5264 L185.2373,603.5264 L191.2373,606.5264 L185.2373,609.5264 L185.2373,606.5264" fill="#FFFFFF"/><text fill="#FFFFFF" font-family="Verdana" font-size="14" font-weight="bold" lengthAdjust="spacing" textLength="113.832" x="5" y="649.1089">IdentifierStart</text><line style="stroke:#FFFFFF;stroke-width:1.5;" x1="35" x2="35" y1="675.5557" y2="675.5557"/><rect fill="#0B58A8" height="27.0146" rx="5" ry="5" style="stroke:#FFFFFF;stroke-width:1.5;" width="155.127" x="35" y="662.0483"/><text fill="#FFFFFF" font-family="Verdana" font-size="14" lengthAdjust="spacing" textLength="145.127" x="40" y="681.1235">IdentifierConstituent</text><line style="stroke:#FFFFFF;stroke-width:1.5;" x1="190.127" x2="210.127" y1="675.5557" y2="675.5557"/><text fill="#FFFFFF" font-family="Verdana" font-size="14" lengthAdjust="spacing" textLength="30.1191" x="213.127" y="679.4951">NOT</text><rect fill="none" height="27.0146" style="stroke:#FFFFFF;stroke-width:1;stroke-dasharray:5,5;" width="111.541" x="248.2461" y="662.0483"/><text fill="#FFFFFF" font-family="Verdana" font-size="14" lengthAdjust="spacing" textLength="91.6973" x="258.168" y="681.1235">Decimal digit</text><ellipse cx="9" cy="675.5557" fill="none" rx="4" ry="4" style="stroke:#FFFFFF;stroke-width:2;"/><ellipse cx="389.7871" cy="675.5557" fill="#FFFFFF" rx="4" ry="4" style="stroke:#FFFFFF;stroke-width:1;"/><line style="stroke:#FFFFFF;stroke-width:1.5;" x1="13" x2="35" y1="675.5557" y2="675.5557"/><line style="stroke:#FFFFFF;stroke-width:1.5;" x1="359.7871" x2="385.7871" y1="675.5557" y2="675.5557"/><path d="M370.7871,675.5557 L370.7871,672.5557 L376.7871,675.5557 L370.7871,678.5557 L370.7871,675.5557" fill="#FFFFFF"/><text fill="#FFFFFF" font-family="Verdana" font-size="14" font-weight="bold" lengthAdjust="spacing" textLength="113.9961" x="5" y="718.1382">IdentifierBody</text><rect fill="#0B58A8" height="27.0146" rx="5" ry="5" style="stroke:#FFFFFF;stroke-width:1.5;" width="155.127" x="59" y="731.0776"/><text fill="#FFFFFF" font-family="Verdana" font-size="14" lengthAdjust="spacing" textLength="145.127" x="64" y="750.1528">IdentifierConstituent</text><line style="stroke:#FFFFFF;stroke-width:1.5;" x1="35" x2="59" y1="744.585" y2="744.585"/><line style="stroke:#FFFFFF;stroke-width:1.5;" x1="214.127" x2="238.127" y1="744.585" y2="744.585"/><rect fill="none" height="27.0146" style="stroke:#FFFFFF;stroke-width:0.5;" width="21.457" x="59" y="768.0923"/><text fill="#FFFFFF" font-family="Verdana" font-size="14" lengthAdjust="spacing" textLength="11.457" x="64" y="787.1675">#</text><path d="M47,769.5996 C47,778.5996 50,781.5996 59,781.5996" fill="none" style="stroke:#FFFFFF;stroke-width:1.5;"/><line style="stroke:#FFFFFF;stroke-width:1.5;" x1="80.457" x2="214.127" y1="781.5996" y2="781.5996"/><path d="M145.292,781.5996 L145.292,778.5996 L151.292,781.5996 L145.292,784.5996 L145.292,781.5996" fill="#FFFFFF"/><path d="M226.127,769.5996 C226.127,778.5996 223.127,781.5996 214.127,781.5996" fill="none" style="stroke:#FFFFFF;stroke-width:1.5;"/><rect fill="none" height="27.0146" style="stroke:#FFFFFF;stroke-width:0.5;" width="16.3574" x="59" y="805.1069"/><text fill="#FFFFFF" font-family="Verdana" font-size="14" lengthAdjust="spacing" textLength="6.3574" x="64" y="824.1821">:</text><line style="stroke:#FFFFFF;stroke-width:1.5;" x1="75.3574" x2="214.127" y1="818.6143" y2="818.6143"/><path d="M142.7422,818.6143 L142.7422,815.6143 L148.7422,818.6143 L142.7422,821.6143 L142.7422,818.6143" fill="#FFFFFF"/><path d="M47,806.6143 C47,815.6143 50,818.6143 59,818.6143" fill="none" style="stroke:#FFFFFF;stroke-width:1.5;"/><line style="stroke:#FFFFFF;stroke-width:1.5;" x1="47" x2="47" y1="756.585" y2="806.6143"/><path d="M35,744.585 C44,744.585 47,747.585 47,756.585" fill="none" style="stroke:#FFFFFF;stroke-width:1.5;"/><path d="M226.127,806.6143 C226.127,815.6143 223.127,818.6143 214.127,818.6143" fill="none" style="stroke:#FFFFFF;stroke-width:1.5;"/><line style="stroke:#FFFFFF;stroke-width:1.5;" x1="226.127" x2="226.127" y1="756.585" y2="806.6143"/><path d="M226.127,756.585 C226.127,747.585 229.127,744.585 238.127,744.585" fill="none" style="stroke:#FFFFFF;stroke-width:1.5;"/><ellipse cx="9" cy="744.585" fill="none" rx="4" ry="4" style="stroke:#FFFFFF;stroke-width:2;"/><ellipse cx="268.127" cy="744.585" fill="#FFFFFF" rx="4" ry="4" style="stroke:#FFFFFF;stroke-width:1;"/><line style="stroke:#FFFFFF;stroke-width:1.5;" x1="13" x2="35" y1="744.585" y2="744.585"/><line style="stroke:#FFFFFF;stroke-width:1.5;" x1="238.127" x2="264.127" y1="744.585" y2="744.585"/><path d="M249.127,744.585 L249.127,741.585 L255.127,744.585 L249.127,747.585 L249.127,744.585" fill="#FFFFFF"/><text fill="#FFFFFF" font-family="Verdana" font-size="14" font-weight="bold" lengthAdjust="spacing" textLength="166.0039" x="5" y="861.1968">IdentifierConstituent</text><rect fill="none" height="27.0146" style="stroke:#FFFFFF;stroke-width:1;stroke-dasharray:5,5;" width="116.0322" x="59" y="874.1362"/><text fill="#FFFFFF" font-family="Verdana" font-size="14" lengthAdjust="spacing" textLength="96.1885" x="68.9219" y="893.2114">Alphanumeric</text><line style="stroke:#FFFFFF;stroke-width:1.5;" x1="35" x2="59" y1="887.6436" y2="887.6436"/><line style="stroke:#FFFFFF;stroke-width:1.5;" x1="175.0322" x2="199.0322" y1="887.6436" y2="887.6436"/><rect fill="none" height="27.0146" style="stroke:#FFFFFF;stroke-width:0.5;" width="15.0928" x="59" y="911.1509"/><text fill="#FFFFFF" font-family="Verdana" font-size="14" lengthAdjust="spacing" textLength="5.0928" x="64" y="930.2261">.</text><path d="M47,912.6582 C47,921.6582 50,924.6582 59,924.6582" fill="none" style="stroke:#FFFFFF;stroke-width:1.5;"/><line style="stroke:#FFFFFF;stroke-width:1.5;" x1="74.0928" x2="175.0322" y1="924.6582" y2="924.6582"/><path d="M122.5625,924.6582 L122.5625,921.6582 L128.5625,924.6582 L122.5625,927.6582 L122.5625,924.6582" fill="#FFFFFF"/><path d="M187.0322,912.6582 C187.0322,921.6582 184.0322,924.6582 175.0322,924.6582" fill="none" style="stroke:#FFFFFF;stroke-width:1.5;"/><rect fill="none" height="27.0146" style="stroke:#FFFFFF;stroke-width:0.5;" width="18.9004" x="59" y="948.1655"/><text fill="#FFFFFF" font-family="Verdana" font-size="14" lengthAdjust="spacing" textLength="8.9004" x="64" y="967.2407">*</text><path d="M47,949.6729 C47,958.6729 50,961.6729 59,961.6729" fill="none" style="stroke:#FFFFFF;stroke-width:1.5;"/><line style="stroke:#FFFFFF;stroke-width:1.5;" x1="77.9004" x2="175.0322" y1="961.6729" y2="961.6729"/><path d="M124.4663,961.6729 L124.4663,958.6729 L130.4663,961.6729 L124.4663,964.6729 L124.4663,961.6729" fill="#FFFFFF"/><path d="M187.0322,949.6729 C187.0322,958.6729 184.0322,961.6729 175.0322,961.6729" fill="none" style="stroke:#FFFFFF;stroke-width:1.5;"/><rect fill="none" height="27.0146" style="stroke:#FFFFFF;stroke-width:0.5;" width="21.457" x="59" y="985.1802"/><text fill="#FFFFFF" font-family="Verdana" font-size="14" lengthAdjust="spacing" textLength="11.457" x="64" y="1004.2554">+</text><path d="M47,986.6875 C47,995.6875 50,998.6875 59,998.6875" fill="none" style="stroke:#FFFFFF;stroke-width:1.5;"/><line style="stroke:#FFFFFF;stroke-width:1.5;" x1="80.457" x2="175.0322" y1="998.6875" y2="998.6875"/><path d="M125.7446,998.6875 L125.7446,995.6875 L131.7446,998.6875 L125.7446,1001.6875 L125.7446,998.6875" fill="#FFFFFF"/><path d="M187.0322,986.6875 C187.0322,995.6875 184.0322,998.6875 175.0322,998.6875" fill="none" style="stroke:#FFFFFF;stroke-width:1.5;"/><rect fill="none" height="27.0146" style="stroke:#FFFFFF;stroke-width:0.5;" width="15.5098" x="59" y="1022.1948"/><text fill="#FFFFFF" font-family="Verdana" font-size="14" lengthAdjust="spacing" textLength="5.5098" x="64" y="1041.27">!</text><path d="M47,1023.7021 C47,1032.7021 50,1035.7021 59,1035.7021" fill="none" style="stroke:#FFFFFF;stroke-width:1.5;"/><line style="stroke:#FFFFFF;stroke-width:1.5;" x1="74.5098" x2="175.0322" y1="1035.7021" y2="1035.7021"/><path d="M122.771,1035.7021 L122.771,1032.7021 L128.771,1035.7021 L122.771,1038.7021 L122.771,1035.7021" fill="#FFFFFF"/><path d="M187.0322,1023.7021 C187.0322,1032.7021 184.0322,1035.7021 175.0322,1035.7021" fill="none" style="stroke:#FFFFFF;stroke-width:1.5;"/><rect fill="none" height="27.0146" style="stroke:#FFFFFF;stroke-width:0.5;" width="16.3574" x="59" y="1059.2095"/><text fill="#FFFFFF" font-family="Verdana" font-size="14" lengthAdjust="spacing" textLength="6.3574" x="64" y="1078.2847">-</text><path d="M47,1060.7168 C47,1069.7168 50,1072.7168 59,1072.7168" fill="none" style="stroke:#FFFFFF;stroke-width:1.5;"/><line style="stroke:#FFFFFF;stroke-width:1.5;" x1="75.3574" x2="175.0322" y1="1072.7168" y2="1072.7168"/><path d="M123.1948,1072.7168 L123.1948,1069.7168 L129.1948,1072.7168 L123.1948,1075.7168 L123.1948,1072.7168" fill="#FFFFFF"/><path d="M187.0322,1060.7168 C187.0322,1069.7168 184.0322,1072.7168 175.0322,1072.7168" fill="none" style="stroke:#FFFFFF;stroke-width:1.5;"/><rect fill="none" height="27.0146" style="stroke:#FFFFFF;stroke-width:0.5;" width="18.9004" x="59" y="1096.2241"/><text fill="#FFFFFF" font-family="Verdana" font-size="14" lengthAdjust="spacing" textLength="8.9004" x="64" y="1115.2993">_</text><path d="M47,1097.7314 C47,1106.7314 50,1109.7314 59,1109.7314" fill="none" style="stroke:#FFFFFF;stroke-width:1.5;"/><line style="stroke:#FFFFFF;stroke-width:1.5;" x1="77.9004" x2="175.0322" y1="1109.7314" y2="1109.7314"/><path d="M124.4663,1109.7314 L124.4663,1106.7314 L130.4663,1109.7314 L124.4663,1112.7314 L124.4663,1109.7314" fill="#FFFFFF"/><path d="M187.0322,1097.7314 C187.0322,1106.7314 184.0322,1109.7314 175.0322,1109.7314" fill="none" style="stroke:#FFFFFF;stroke-width:1.5;"/><rect fill="none" height="27.0146" style="stroke:#FFFFFF;stroke-width:0.5;" width="17.6357" x="59" y="1133.2388"/><text fill="#FFFFFF" font-family="Verdana" font-size="14" lengthAdjust="spacing" textLength="7.6357" x="64" y="1152.314">?</text><path d="M47,1134.7461 C47,1143.7461 50,1146.7461 59,1146.7461" fill="none" style="stroke:#FFFFFF;stroke-width:1.5;"/><line style="stroke:#FFFFFF;stroke-width:1.5;" x1="76.6357" x2="175.0322" y1="1146.7461" y2="1146.7461"/><path d="M123.834,1146.7461 L123.834,1143.7461 L129.834,1146.7461 L123.834,1149.7461 L123.834,1146.7461" fill="#FFFFFF"/><path d="M187.0322,1134.7461 C187.0322,1143.7461 184.0322,1146.7461 175.0322,1146.7461" fill="none" style="stroke:#FFFFFF;stroke-width:1.5;"/><rect fill="none" height="27.0146" style="stroke:#FFFFFF;stroke-width:0.5;" width="18.9004" x="59" y="1170.2534"/><text fill="#FFFFFF" font-family="Verdana" font-size="14" lengthAdjust="spacing" textLength="8.9004" x="64" y="1189.3286">$</text><path d="M47,1171.7607 C47,1180.7607 50,1183.7607 59,1183.7607" fill="none" style="stroke:#FFFFFF;stroke-width:1.5;"/><line style="stroke:#FFFFFF;stroke-width:1.5;" x1="77.9004" x2="175.0322" y1="1183.7607" y2="1183.7607"/><path d="M124.4663,1183.7607 L124.4663,1180.7607 L130.4663,1183.7607 L124.4663,1186.7607 L124.4663,1183.7607" fill="#FFFFFF"/><path d="M187.0322,1171.7607 C187.0322,1180.7607 184.0322,1183.7607 175.0322,1183.7607" fill="none" style="stroke:#FFFFFF;stroke-width:1.5;"/><rect fill="none" height="27.0146" style="stroke:#FFFFFF;stroke-width:0.5;" width="25.0664" x="59" y="1207.2681"/><text fill="#FFFFFF" font-family="Verdana" font-size="14" lengthAdjust="spacing" textLength="15.0664" x="64" y="1226.3433">%</text><path d="M47,1208.7754 C47,1217.7754 50,1220.7754 59,1220.7754" fill="none" style="stroke:#FFFFFF;stroke-width:1.5;"/><line style="stroke:#FFFFFF;stroke-width:1.5;" x1="84.0664" x2="175.0322" y1="1220.7754" y2="1220.7754"/><path d="M127.5493,1220.7754 L127.5493,1217.7754 L133.5493,1220.7754 L127.5493,1223.7754 L127.5493,1220.7754" fill="#FFFFFF"/><path d="M187.0322,1208.7754 C187.0322,1217.7754 184.0322,1220.7754 175.0322,1220.7754" fill="none" style="stroke:#FFFFFF;stroke-width:1.5;"/><rect fill="none" height="27.0146" style="stroke:#FFFFFF;stroke-width:0.5;" width="20.1719" x="59" y="1244.2827"/><text fill="#FFFFFF" font-family="Verdana" font-size="14" lengthAdjust="spacing" textLength="10.1719" x="64" y="1263.3579">&amp;</text><path d="M47,1245.79 C47,1254.79 50,1257.79 59,1257.79" fill="none" style="stroke:#FFFFFF;stroke-width:1.5;"/><line style="stroke:#FFFFFF;stroke-width:1.5;" x1="79.1719" x2="175.0322" y1="1257.79" y2="1257.79"/><path d="M125.1021,1257.79 L125.1021,1254.79 L131.1021,1257.79 L125.1021,1260.79 L125.1021,1257.79" fill="#FFFFFF"/><path d="M187.0322,1245.79 C187.0322,1254.79 184.0322,1257.79 175.0322,1257.79" fill="none" style="stroke:#FFFFFF;stroke-width:1.5;"/><rect fill="none" height="27.0146" style="stroke:#FFFFFF;stroke-width:0.5;" width="21.457" x="59" y="1281.2974"/><text fill="#FFFFFF" font-family="Verdana" font-size="14" lengthAdjust="spacing" textLength="11.457" x="64" y="1300.3726">=</text><path d="M47,1282.8047 C47,1291.8047 50,1294.8047 59,1294.8047" fill="none" style="stroke:#FFFFFF;stroke-width:1.5;"/><line style="stroke:#FFFFFF;stroke-width:1.5;" x1="80.457" x2="175.0322" y1="1294.8047" y2="1294.8047"/><path d="M125.7446,1294.8047 L125.7446,1291.8047 L131.7446,1294.8047 L125.7446,1297.8047 L125.7446,1294.8047" fill="#FFFFFF"/><path d="M187.0322,1282.8047 C187.0322,1291.8047 184.0322,1294.8047 175.0322,1294.8047" fill="none" style="stroke:#FFFFFF;stroke-width:1.5;"/><rect fill="none" height="27.0146" style="stroke:#FFFFFF;stroke-width:0.5;" width="21.457" x="59" y="1318.312"/><text fill="#FFFFFF" font-family="Verdana" font-size="14" lengthAdjust="spacing" textLength="11.457" x="64" y="1337.3872">&lt;</text><path d="M47,1319.8193 C47,1328.8193 50,1331.8193 59,1331.8193" fill="none" style="stroke:#FFFFFF;stroke-width:1.5;"/><line style="stroke:#FFFFFF;stroke-width:1.5;" x1="80.457" x2="175.0322" y1="1331.8193" y2="1331.8193"/><path d="M125.7446,1331.8193 L125.7446,1328.8193 L131.7446,1331.8193 L125.7446,1334.8193 L125.7446,1331.8193" fill="#FFFFFF"/><path d="M187.0322,1319.8193 C187.0322,1328.8193 184.0322,1331.8193 175.0322,1331.8193" fill="none" style="stroke:#FFFFFF;stroke-width:1.5;"/><rect fill="none" height="27.0146" style="stroke:#FFFFFF;stroke-width:0.5;" width="21.457" x="59" y="1355.3267"/><text fill="#FFFFFF" font-family="Verdana" font-size="14" lengthAdjust="spacing" textLength="11.457" x="64" y="1374.4019">&gt;</text><line style="stroke:#FFFFFF;stroke-width:1.5;" x1="80.457" x2="175.0322" y1="1368.834" y2="1368.834"/><path d="M125.7446,1368.834 L125.7446,1365.834 L131.7446,1368.834 L125.7446,1371.834 L125.7446,1368.834" fill="#FFFFFF"/><path d="M47,1356.834 C47,1365.834 50,1368.834 59,1368.834" fill="none" style="stroke:#FFFFFF;stroke-width:1.5;"/><line style="stroke:#FFFFFF;stroke-width:1.5;" x1="47" x2="47" y1="899.6436" y2="1356.834"/><path d="M35,887.6436 C44,887.6436 47,890.6436 47,899.6436" fill="none" style="stroke:#FFFFFF;stroke-width:1.5;"/><path d="M187.0322,1356.834 C187.0322,1365.834 184.0322,1368.834 175.0322,1368.834" fill="none" style="stroke:#FFFFFF;stroke-width:1.5;"/><line style="stroke:#FFFFFF;stroke-width:1.5;" x1="187.0322" x2="187.0322" y1="899.6436" y2="1356.834"/><path d="M187.0322,899.6436 C187.0322,890.6436 190.0322,887.6436 199.0322,887.6436" fill="none" style="stroke:#FFFFFF;stroke-width:1.5;"/><ellipse cx="9" cy="887.6436" fill="none" rx="4" ry="4" style="stroke:#FFFFFF;stroke-width:2;"/><ellipse cx="229.0322" cy="887.6436" fill="#FFFFFF" rx="4" ry="4" style="stroke:#FFFFFF;stroke-width:1;"/><line style="stroke:#FFFFFF;stroke-width:1.5;" x1="13" x2="35" y1="887.6436" y2="887.6436"/><line style="stroke:#FFFFFF;stroke-width:1.5;" x1="199.0322" x2="225.0322" y1="887.6436" y2="887.6436"/><path d="M210.0322,887.6436 L210.0322,884.6436 L216.0322,887.6436 L210.0322,890.6436 L210.0322,887.6436" fill="#FFFFFF"/><path d="M5,1402.3413 L5,1428.1406 L102.2734,1428.1406 L102.2734,1412.3413 L92.2734,1402.3413 L5,1402.3413" fill="#0B58A8" style="stroke:#FFFFFF;stroke-width:1;"/><path d="M92.2734,1402.3413 L92.2734,1412.3413 L102.2734,1412.3413 L92.2734,1402.3413" fill="#0B58A8" style="stroke:#FFFFFF;stroke-width:1;"/><text fill="#FFFFFF" font-family="Verdana" font-size="13" lengthAdjust="spacing" textLength="67.1328" x="15.5703" y="1420.4111">TODO end</text><!--SRC=[xLTjKzj64FwkNx5nsWucCJ4cxX0N0hQ11cg39pBqGwVJEQIrVK6wKqyd1vVmtxidsrX2iWZWVkcW6Spedjrdz_PDT_kXPahZfHXOh_G8VGJcyo6prjQXVtPm1bmuqWyyr0ZhPSkU-9VIWrquTb5eFk2ee09hSCez-0OjAJra0ihmYsKb99BYFOK3VWrleVIkHByBu9JvQC7Y-PPHIgD6FsLcnhnBxYmMRRExsCNIcvBHgiI_6oLoiapsRnAoBUbEu3PfPMuhJ_ij_96o56jNO0yEqE4-yy3bGwxfFTyC_9botkoUNB_9k7vRIUzokfgCQ5kAK7CTqNkyqJmFKXIn0qiOhCpUIwzBEOkDUy5FEh5B9fjUC68Yyb5n1_QoCPtpR9IMO-i5s9i2x5K1LYd0_Yh0zWgm7mgm7mkmdmgmtG9ifm3xQF8oxrqKhcdQVVeVDxYrlsZswRCJwec77ubFIQdX9YPkCUTgg6GatBRqf8BNrLPzkxaTOqTIwDdgKVpShSOLV87APOB5Yvyc0QeE5rTp-OFcLgqUGxIAMHQpsXznvqfW6C9clDPbQiW563NJcQvqgAR4t5E71PfBCNkxpr2DLwSDFQ3jqIHwM724pFqkGQfs3-_aJ0Hi_Wz2hVQ0flapqGq-9IrbOdulklcPi4tsW2QoEoCMqftxr6NNt8_ytxchHx1LhSuaQ4YYGk7WVs4-n80ffkLAQNVUpOhK2g-uC0PyQ2ebltQav_501cdkXT2oEbv87E20HPxEb6z6eYk530Fce7idsvQHei6NaEtm0NgKTLjJ370ueMo4qkDkGgH7xSST7Z2XUynrkHZ2PZM1s_XtP99Zg4m1jQHopN3Dtw0zOgxyQaW6p0inWPo7s4BDff7KAi9Ky1pDnrnFuYGjR_OMK_UpbkTE_ap8XFGscHXZZgcf0rdjjEXrB3MFLZs5jhboF7JR8tfpvlsTLrYPh05yPYwFGlYG9lGODUi3SLbD469JJQqLlumqBWd5zt3Oj76KcgRjqqYE5gFnqRg98V9uNVDze7wvYjNJ7ucatB4ZHO-omOQOahmhoYMPod0eFcRwkHmKAweqztaiqQL7nwAdKfpAfzRBsUKNydvQtpbLV9kQL8k8hwZYwUWwS_nnpPNcc1TxCv-fS5RbCxLNndIuCgRZbJ6TFfE9FYLj5kAKiF_8AVDoYtovHRxS8lzdjyYUHyVNysu7ngX2S_tQtAXLQ_MDzsisqt0I2QXjm-PMe_gXKQj3-z3kWy7BrjgllGw4T09paAegd1vzYA1idR0nWyyHbO6F3JWBK9mS_3PVW4CnvaeAS_6pJYww2u6VtrTQL9isAd85BhhMxBXE6euqvyK6dFUFAjjMXubXH9-p1kt6eZEWq6f2cFql]--></g></svg>