<svg xmlns="http://www.w3.org/2000/svg" xmlns:xlink="http://www.w3.org/1999/xlink" contentStyleType="text/css" data-diagram-type="EBNF" height="397px" preserveAspectRatio="none" style="width:726px;height:397px;background:#0B58A8;" version="1.1" viewBox="0 0 726 397" width="726px" zoomAndPan="magnify"><defs/><g><rect fill="#0B58A8" height="397" style="stroke:none;stroke-width:1;" width="726" x="0" y="0"/><text fill="#FFFFFF" font-family="Verdana" font-size="14" font-weight="bold" lengthAdjust="spacing" textLength="69.2754" x="5" y="19.0752">Keyword</text><line style="stroke:#FFFFFF;stroke-width:1.5;" x1="35" x2="35" y1="45.522" y2="45.522"/><rect fill="none" height="27.0146" style="stroke:#FFFFFF;stroke-width:0.5;" width="16.3574" x="35" y="32.0146"/><text fill="#FFFFFF" font-family="Verdana" font-size="14" lengthAdjust="spacing" textLength="6.3574" x="40" y="51.0898">:</text><line style="stroke:#FFFFFF;stroke-width:1.5;" x1="51.3574" x2="71.3574" y1="45.522" y2="45.522"/><rect fill="#0B58A8" height="27.0146" rx="5" ry="5" style="stroke:#FFFFFF;stroke-width:1.5;" width="135.2275" x="71.3574" y="32.0146"/><text fill="#FFFFFF" font-family="Verdana" font-size="14" lengthAdjust="spacing" textLength="125.2275" x="76.3574" y="51.0898">KeywordIdentifier</text><ellipse cx="9" cy="45.522" fill="none" rx="4" ry="4" style="stroke:#FFFFFF;stroke-width:2;"/><ellipse cx="236.585" cy="45.522" fill="#FFFFFF" rx="4" ry="4" style="stroke:#FFFFFF;stroke-width:1;"/><line style="stroke:#FFFFFF;stroke-width:1.5;" x1="13" x2="35" y1="45.522" y2="45.522"/><line style="stroke:#FFFFFF;stroke-width:1.5;" x1="206.585" x2="232.585" y1="45.522" y2="45.522"/><path d="M217.585,45.522 L217.585,42.522 L223.585,45.522 L217.585,48.522 L217.585,45.522" fill="#FFFFFF"/><text fill="#FFFFFF" font-family="Verdana" font-size="14" font-weight="bold" lengthAdjust="spacing" textLength="144.0947" x="5" y="88.1045">KeywordIdentifier</text><line style="stroke:#FFFFFF;stroke-width:1.5;" x1="59" x2="59" y1="114.5513" y2="114.5513"/><rect fill="#0B58A8" height="27.0146" rx="5" ry="5" style="stroke:#FFFFFF;stroke-width:1.5;" width="110.7822" x="59" y="101.0439"/><text fill="#FFFFFF" font-family="Verdana" font-size="14" lengthAdjust="spacing" textLength="100.7822" x="64" y="120.1191">KeywordPrefix</text><line style="stroke:#FFFFFF;stroke-width:1.5;" x1="169.7822" x2="189.7822" y1="114.5513" y2="114.5513"/><rect fill="none" height="27.0146" style="stroke:#FFFFFF;stroke-width:0.5;" width="16.3574" x="189.7822" y="101.0439"/><text fill="#FFFFFF" font-family="Verdana" font-size="14" lengthAdjust="spacing" textLength="6.3574" x="194.7822" y="120.1191">/</text><line style="stroke:#FFFFFF;stroke-width:1.5;" x1="206.1396" x2="226.1396" y1="114.5513" y2="114.5513"/><rect fill="#0B58A8" height="27.0146" rx="5" ry="5" style="stroke:#FFFFFF;stroke-width:1.5;" width="115.0889" x="226.1396" y="101.0439"/><text fill="#FFFFFF" font-family="Verdana" font-size="14" lengthAdjust="spacing" textLength="105.0889" x="231.1396" y="120.1191">IdentifierName</text><line style="stroke:#FFFFFF;stroke-width:1.5;" x1="35" x2="59" y1="114.5513" y2="114.5513"/><line style="stroke:#FFFFFF;stroke-width:1.5;" x1="341.2285" x2="365.2285" y1="114.5513" y2="114.5513"/><rect fill="#0B58A8" height="27.0146" rx="5" ry="5" style="stroke:#FFFFFF;stroke-width:1.5;" width="110.7822" x="59" y="138.0586"/><text fill="#FFFFFF" font-family="Verdana" font-size="14" lengthAdjust="spacing" textLength="100.7822" x="64" y="157.1338">KeywordPrefix</text><path d="M47,139.5659 C47,148.5659 50,151.5659 59,151.5659" fill="none" style="stroke:#FFFFFF;stroke-width:1.5;"/><line style="stroke:#FFFFFF;stroke-width:1.5;" x1="169.7822" x2="341.2285" y1="151.5659" y2="151.5659"/><path d="M253.5054,151.5659 L253.5054,148.5659 L259.5054,151.5659 L253.5054,154.5659 L253.5054,151.5659" fill="#FFFFFF"/><path d="M353.2285,139.5659 C353.2285,148.5659 350.2285,151.5659 341.2285,151.5659" fill="none" style="stroke:#FFFFFF;stroke-width:1.5;"/><rect fill="none" height="27.0146" style="stroke:#FFFFFF;stroke-width:0.5;" width="16.3574" x="59" y="175.0732"/><text fill="#FFFFFF" font-family="Verdana" font-size="14" lengthAdjust="spacing" textLength="6.3574" x="64" y="194.1484">/</text><line style="stroke:#FFFFFF;stroke-width:1.5;" x1="75.3574" x2="341.2285" y1="188.5806" y2="188.5806"/><path d="M206.293,188.5806 L206.293,185.5806 L212.293,188.5806 L206.293,191.5806 L206.293,188.5806" fill="#FFFFFF"/><path d="M47,176.5806 C47,185.5806 50,188.5806 59,188.5806" fill="none" style="stroke:#FFFFFF;stroke-width:1.5;"/><line style="stroke:#FFFFFF;stroke-width:1.5;" x1="47" x2="47" y1="126.5513" y2="176.5806"/><path d="M35,114.5513 C44,114.5513 47,117.5513 47,126.5513" fill="none" style="stroke:#FFFFFF;stroke-width:1.5;"/><path d="M353.2285,176.5806 C353.2285,185.5806 350.2285,188.5806 341.2285,188.5806" fill="none" style="stroke:#FFFFFF;stroke-width:1.5;"/><line style="stroke:#FFFFFF;stroke-width:1.5;" x1="353.2285" x2="353.2285" y1="126.5513" y2="176.5806"/><path d="M353.2285,126.5513 C353.2285,117.5513 356.2285,114.5513 365.2285,114.5513" fill="none" style="stroke:#FFFFFF;stroke-width:1.5;"/><ellipse cx="9" cy="114.5513" fill="none" rx="4" ry="4" style="stroke:#FFFFFF;stroke-width:2;"/><ellipse cx="395.2285" cy="114.5513" fill="#FFFFFF" rx="4" ry="4" style="stroke:#FFFFFF;stroke-width:1;"/><line style="stroke:#FFFFFF;stroke-width:1.5;" x1="13" x2="35" y1="114.5513" y2="114.5513"/><line style="stroke:#FFFFFF;stroke-width:1.5;" x1="365.2285" x2="391.2285" y1="114.5513" y2="114.5513"/><path d="M376.2285,114.5513 L376.2285,111.5513 L382.2285,114.5513 L376.2285,117.5513 L376.2285,114.5513" fill="#FFFFFF"/><path d="M5,222.0879 L5,247.8872 L305.8364,247.8872 L305.8364,232.0879 L295.8364,222.0879 L5,222.0879" fill="#0B58A8" style="stroke:#FFFFFF;stroke-width:1;"/><path d="M295.8364,222.0879 L295.8364,232.0879 L305.8364,232.0879 L295.8364,222.0879" fill="#0B58A8" style="stroke:#FFFFFF;stroke-width:1;"/><text fill="#FFFFFF" font-family="Verdana" font-size="13" lengthAdjust="spacing" textLength="270.6958" x="15.5703" y="240.1577">KeywordPrefix can't contain repeating ":"</text><text fill="#FFFFFF" font-family="Verdana" font-size="14" font-weight="bold" lengthAdjust="spacing" textLength="115.8555" x="5" y="276.9624">KeywordPrefix</text><line style="stroke:#FFFFFF;stroke-width:1.5;" x1="35" x2="35" y1="303.4092" y2="303.4092"/><rect fill="#0B58A8" height="27.0146" rx="5" ry="5" style="stroke:#FFFFFF;stroke-width:1.5;" width="155.127" x="35" y="289.9019"/><text fill="#FFFFFF" font-family="Verdana" font-size="14" lengthAdjust="spacing" textLength="145.127" x="40" y="308.9771">IdentifierConstituent</text><line style="stroke:#FFFFFF;stroke-width:1.5;" x1="190.127" x2="210.127" y1="303.4092" y2="303.4092"/><text fill="#FFFFFF" font-family="Verdana" font-size="14" lengthAdjust="spacing" textLength="30.1191" x="213.127" y="307.3486">NOT</text><line style="stroke:#FFFFFF;stroke-width:1.5;" x1="248.2461" x2="248.2461" y1="303.4092" y2="303.4092"/><rect fill="none" height="27.0146" style="stroke:#FFFFFF;stroke-width:0.5;" width="16.3574" x="248.2461" y="289.9019"/><text fill="#FFFFFF" font-family="Verdana" font-size="14" lengthAdjust="spacing" textLength="6.3574" x="253.2461" y="308.9771">/</text><line style="stroke:#FFFFFF;stroke-width:1.5;" x1="264.6035" x2="284.6035" y1="303.4092" y2="303.4092"/><line style="stroke:#FFFFFF;stroke-width:1.5;" x1="284.6035" x2="686.416" y1="303.4092" y2="303.4092"/><path d="M443.3285,303.4092 L443.3285,300.4092 L449.3285,303.4092 L443.3285,306.4092 L443.3285,303.4092" fill="#FFFFFF"/><path d="M284.6035,303.4092 C293.6035,303.4092 296.6035,306.1628 296.6035,315.1628 C296.6035,324.1628 299.6035,326.9165 308.6035,326.9165" fill="none" style="stroke:#FFFFFF;stroke-width:1.5;"/><path d="M662.416,326.9165 C671.416,326.9165 674.416,324.1628 674.416,315.1628 C674.416,306.1628 677.416,303.4092 686.416,303.4092" fill="none" style="stroke:#FFFFFF;stroke-width:1.5;"/><line style="stroke:#FFFFFF;stroke-width:1.5;" x1="308.6035" x2="308.6035" y1="326.9165" y2="326.9165"/><line style="stroke:#FFFFFF;stroke-width:1.5;" x1="308.6035" x2="541.7305" y1="326.9165" y2="326.9165"/><path d="M399.8543,326.9165 L399.8543,323.9165 L405.8543,326.9165 L399.8543,329.9165 L399.8543,326.9165" fill="#FFFFFF"/><path d="M308.6035,326.9165 C317.6035,326.9165 320.6035,335.6702 320.6035,344.6702 C320.6035,353.6702 323.6035,362.4238 332.6035,362.4238" fill="none" style="stroke:#FFFFFF;stroke-width:1.5;"/><path d="M517.7305,362.4238 C526.7305,362.4238 529.7305,353.6702 529.7305,344.6702 C529.7305,335.6702 532.7305,326.9165 541.7305,326.9165" fill="none" style="stroke:#FFFFFF;stroke-width:1.5;"/><path d="M340.6035,354.4238 C340.6035,360.4238 342.6035,362.4238 348.6035,362.4238" fill="none" style="stroke:#FFFFFF;stroke-width:1.5;"/><line style="stroke:#FFFFFF;stroke-width:1.5;" x1="340.6035" x2="340.6035" y1="349.9165" y2="354.4238"/><path d="M340.6035,349.9165 C340.6035,343.9165 342.6035,341.9165 348.6035,341.9165" fill="none" style="stroke:#FFFFFF;stroke-width:1.5;"/><line style="stroke:#FFFFFF;stroke-width:1.5;" x1="347.6035" x2="502.7305" y1="341.9165" y2="341.9165"/><path d="M438.6797,341.9165 L438.6797,338.9165 L432.6797,341.9165 L438.6797,344.9165 L438.6797,341.9165" fill="#FFFFFF"/><path d="M509.7305,354.4238 C509.7305,360.4238 507.7305,362.4238 501.7305,362.4238" fill="none" style="stroke:#FFFFFF;stroke-width:1.5;"/><line style="stroke:#FFFFFF;stroke-width:1.5;" x1="509.7305" x2="509.7305" y1="349.9165" y2="354.4238"/><path d="M501.7305,341.9165 C507.7305,341.9165 509.7305,343.9165 509.7305,349.9165" fill="none" style="stroke:#FFFFFF;stroke-width:1.5;"/><line style="stroke:#FFFFFF;stroke-width:1.5;" x1="332.6035" x2="347.6035" y1="362.4238" y2="362.4238"/><line style="stroke:#FFFFFF;stroke-width:1.5;" x1="502.7305" x2="517.7305" y1="362.4238" y2="362.4238"/><rect fill="#0B58A8" height="27.0146" rx="5" ry="5" style="stroke:#FFFFFF;stroke-width:1.5;" width="155.127" x="347.6035" y="348.9165"/><text fill="#FFFFFF" font-family="Verdana" font-size="14" lengthAdjust="spacing" textLength="145.127" x="352.6035" y="367.9917">IdentifierConstituent</text><line style="stroke:#FFFFFF;stroke-width:1.5;" x1="541.7305" x2="561.7305" y1="326.9165" y2="326.9165"/><rect fill="#0B58A8" height="27.0146" rx="5" ry="5" style="stroke:#FFFFFF;stroke-width:1.5;" width="100.6855" x="561.7305" y="313.4092"/><text fill="#FFFFFF" font-family="Verdana" font-size="14" lengthAdjust="spacing" textLength="90.6855" x="566.7305" y="332.4844">IdentifierEnd</text><ellipse cx="9" cy="303.4092" fill="none" rx="4" ry="4" style="stroke:#FFFFFF;stroke-width:2;"/><ellipse cx="716.416" cy="303.4092" fill="#FFFFFF" rx="4" ry="4" style="stroke:#FFFFFF;stroke-width:1;"/><line style="stroke:#FFFFFF;stroke-width:1.5;" x1="13" x2="35" y1="303.4092" y2="303.4092"/><line style="stroke:#FFFFFF;stroke-width:1.5;" x1="686.416" x2="712.416" y1="303.4092" y2="303.4092"/><path d="M697.416,303.4092 L697.416,300.4092 L703.416,303.4092 L697.416,306.4092 L697.416,303.4092" fill="#FFFFFF"/><!--SRC=[xLPHSnet47w_Nx5r7sfdwWJZq75et35Wkx433fEptOTE7vRJ0Yg7TD7fi6dAV-_g07FdE-fWqxVU3CnezUsdrRUhbKvYYyPIJ_Mzx-oGnWGubWFqFjBqJXi1nx1Jtu4VOJ6-4AIix4ioyBFd5Ot7Is3NK5_Ui-FE6-U-WbpXc3meV7_d7KiHZefNtNtrQ940rGyM0gqiIWM68a8hrI2D_DMUbmSVPs9fQHLRQHCUm_uYqj_Xwnh4BBUFCoNW3mxdX9H8vVDELbBEl_UndORq2-_5Q6tXQxgf9WQZWT694YqTQWFVLvgreyPHEdVEMrXOpzFlmUfKWrio0XMcnW_JY4nRgj4IVzeuhDRIARPIaSLPhuSo62cAOpX8RHqq0rRCkStu9tIGZDrEvv4665cfrMBqcA6IMcVfVv-tnyb_6ZWa5Dy4PCr3Ui0v1Npv5q6r-eId-pbrem_PbGgQFrAtF1E-onxqT2WMn4gBPKmTl9VZPFoR57O8XvNA0i4bHePKGF_5yZ55QD3ghTA-VxCeKYyUIUKM64F367tNrc4e8ntbkLUWTNMyGfnI7vFG5igtWEXefUC80n8Fs9PE31-o3BOj-nHordtB6j1Wojc8TIX51jBbuoS36Q6oNHJ2jO23IcRUfo-9IuwZSWNKvAxWZdZv1lqX2dtdIFeOnfIPkOcfIHRdIbgJK4wymCg9jDCqIUiFUnFDuwoLXLFU4mgIphA9SSkXcGTGzCv3xrFKKgrQRhObJH2IQ0rv52pFTrbX5R86y1c5J69uboSCaG_h4xfiHuHqgOQrHlOIIska-1OEdpTEsdAtVHx9-QerRkoRQIAR-xhxWS_BA7NFNn9Pt0LVcrtE1WueXtmeoZMPAd0OEK7xKWxMYYjDl8mbwOKoU3R5bNvklNpg_SdHp-kxf8fdkKwrKdnB5U_RfVoR7QuynxBO6-LC_zghofbQMsCwsnhJnTQOhbx8n5T92sEQ4rvls6N-VwDl_4RlXlmukEcqOK8cTe_RWzVLIhNs-kskZnOk4mNL8pWuh5VUrQirQ9tvr-3czxpTNxjjYFb-2mY4ZESN2nFiUPSuGVYSy99ZgiEdYDJbwSUb0SxKH1gjtBFQkxpjh00_lTrlIijl4iEXm6t7Mpo6s2FGxZQkmytr-VwHrqOrIBXPr86KnpUiicRAS_u_]--></g></svg>