<svg xmlns="http://www.w3.org/2000/svg" xmlns:xlink="http://www.w3.org/1999/xlink" contentStyleType="text/css" data-diagram-type="EBNF" height="284px" preserveAspectRatio="none" style="width:719px;height:284px;background:#0B58A8;" version="1.1" viewBox="0 0 719 284" width="719px" zoomAndPan="magnify"><defs/><g><rect fill="#0B58A8" height="284" style="stroke:none;stroke-width:1;" width="719" x="0" y="0"/><text fill="#FFFFFF" font-family="Verdana" font-size="14" font-weight="bold" lengthAdjust="spacing" textLength="148.9756" x="5" y="19.0752">MetadataSequence</text><line style="stroke:#FFFFFF;stroke-width:1.5;" x1="35" x2="35" y1="45.522" y2="45.522"/><rect fill="none" height="27.0146" style="stroke:#FFFFFF;stroke-width:0.5;" width="21.457" x="35" y="32.0146"/><text fill="#FFFFFF" font-family="Verdana" font-size="14" lengthAdjust="spacing" textLength="11.457" x="40" y="51.0898">^</text><line style="stroke:#FFFFFF;stroke-width:1.5;" x1="56.457" x2="76.457" y1="45.522" y2="45.522"/><line style="stroke:#FFFFFF;stroke-width:1.5;" x1="76.457" x2="189.876" y1="45.522" y2="45.522"/><path d="M119.8246,45.522 L119.8246,42.522 L125.8246,45.522 L119.8246,48.522 L119.8246,45.522" fill="#FFFFFF"/><path d="M76.457,45.522 C85.457,45.522 88.457,48.2756 88.457,57.2756 C88.457,66.2756 91.457,69.0293 100.457,69.0293" fill="none" style="stroke:#FFFFFF;stroke-width:1.5;"/><path d="M165.876,69.0293 C174.876,69.0293 177.876,66.2756 177.876,57.2756 C177.876,48.2756 180.876,45.522 189.876,45.522" fill="none" style="stroke:#FFFFFF;stroke-width:1.5;"/><rect fill="#0B58A8" height="27.0146" rx="5" ry="5" style="stroke:#FFFFFF;stroke-width:1.5;" width="65.4189" x="100.457" y="55.522"/><text fill="#FFFFFF" font-family="Verdana" font-size="14" lengthAdjust="spacing" textLength="55.4189" x="105.457" y="74.5972">Spacing</text><line style="stroke:#FFFFFF;stroke-width:1.5;" x1="189.876" x2="209.876" y1="45.522" y2="45.522"/><rect fill="#0B58A8" height="27.0146" rx="5" ry="5" style="stroke:#FFFFFF;stroke-width:1.5;" width="158.3193" x="209.876" y="32.0146"/><text fill="#FFFFFF" font-family="Verdana" font-size="14" lengthAdjust="spacing" textLength="148.3193" x="214.876" y="51.0898">ReadableEdnElement</text><line style="stroke:#FFFFFF;stroke-width:1.5;" x1="368.1953" x2="388.1953" y1="45.522" y2="45.522"/><line style="stroke:#FFFFFF;stroke-width:1.5;" x1="388.1953" x2="501.6143" y1="45.522" y2="45.522"/><path d="M431.5629,45.522 L431.5629,42.522 L437.5629,45.522 L431.5629,48.522 L431.5629,45.522" fill="#FFFFFF"/><path d="M388.1953,45.522 C397.1953,45.522 400.1953,48.2756 400.1953,57.2756 C400.1953,66.2756 403.1953,69.0293 412.1953,69.0293" fill="none" style="stroke:#FFFFFF;stroke-width:1.5;"/><path d="M477.6143,69.0293 C486.6143,69.0293 489.6143,66.2756 489.6143,57.2756 C489.6143,48.2756 492.6143,45.522 501.6143,45.522" fill="none" style="stroke:#FFFFFF;stroke-width:1.5;"/><rect fill="#0B58A8" height="27.0146" rx="5" ry="5" style="stroke:#FFFFFF;stroke-width:1.5;" width="65.4189" x="412.1953" y="55.522"/><text fill="#FFFFFF" font-family="Verdana" font-size="14" lengthAdjust="spacing" textLength="55.4189" x="417.1953" y="74.5972">Spacing</text><line style="stroke:#FFFFFF;stroke-width:1.5;" x1="501.6143" x2="521.6143" y1="45.522" y2="45.522"/><rect fill="#0B58A8" height="27.0146" rx="5" ry="5" style="stroke:#FFFFFF;stroke-width:1.5;" width="158.3193" x="521.6143" y="32.0146"/><text fill="#FFFFFF" font-family="Verdana" font-size="14" lengthAdjust="spacing" textLength="148.3193" x="526.6143" y="51.0898">ReadableEdnElement</text><ellipse cx="9" cy="45.522" fill="none" rx="4" ry="4" style="stroke:#FFFFFF;stroke-width:2;"/><ellipse cx="709.9336" cy="45.522" fill="#FFFFFF" rx="4" ry="4" style="stroke:#FFFFFF;stroke-width:1;"/><line style="stroke:#FFFFFF;stroke-width:1.5;" x1="13" x2="35" y1="45.522" y2="45.522"/><line style="stroke:#FFFFFF;stroke-width:1.5;" x1="679.9336" x2="705.9336" y1="45.522" y2="45.522"/><path d="M690.9336,45.522 L690.9336,42.522 L696.9336,45.522 L690.9336,48.522 L690.9336,45.522" fill="#FFFFFF"/><text fill="#FFFFFF" font-family="Verdana" font-size="14" font-weight="bold" lengthAdjust="spacing" textLength="73.165" x="5" y="111.6118">Metadata</text><rect fill="#0B58A8" height="27.0146" rx="5" ry="5" style="stroke:#FFFFFF;stroke-width:1.5;" width="52.4854" x="59" y="124.5513"/><text fill="#FFFFFF" font-family="Verdana" font-size="14" lengthAdjust="spacing" textLength="42.4854" x="64" y="143.6265">String</text><line style="stroke:#FFFFFF;stroke-width:1.5;" x1="35" x2="59" y1="138.0586" y2="138.0586"/><line style="stroke:#FFFFFF;stroke-width:1.5;" x1="111.4854" x2="153.9766" y1="138.0586" y2="138.0586"/><rect fill="#0B58A8" height="27.0146" rx="5" ry="5" style="stroke:#FFFFFF;stroke-width:1.5;" width="70.9766" x="59" y="161.5659"/><text fill="#FFFFFF" font-family="Verdana" font-size="14" lengthAdjust="spacing" textLength="60.9766" x="64" y="180.6411">Keyword</text><path d="M47,163.0732 C47,172.0732 50,175.0732 59,175.0732" fill="none" style="stroke:#FFFFFF;stroke-width:1.5;"/><line style="stroke:#FFFFFF;stroke-width:1.5;" x1="129.9766" x2="129.9766" y1="175.0732" y2="175.0732"/><path d="M141.9766,163.0732 C141.9766,172.0732 138.9766,175.0732 129.9766,175.0732" fill="none" style="stroke:#FFFFFF;stroke-width:1.5;"/><rect fill="#0B58A8" height="27.0146" rx="5" ry="5" style="stroke:#FFFFFF;stroke-width:1.5;" width="62.5342" x="59" y="198.5806"/><text fill="#FFFFFF" font-family="Verdana" font-size="14" lengthAdjust="spacing" textLength="52.5342" x="64" y="217.6558">Symbol</text><path d="M47,200.0879 C47,209.0879 50,212.0879 59,212.0879" fill="none" style="stroke:#FFFFFF;stroke-width:1.5;"/><line style="stroke:#FFFFFF;stroke-width:1.5;" x1="121.5342" x2="129.9766" y1="212.0879" y2="212.0879"/><path d="M141.9766,200.0879 C141.9766,209.0879 138.9766,212.0879 129.9766,212.0879" fill="none" style="stroke:#FFFFFF;stroke-width:1.5;"/><rect fill="#0B58A8" height="27.0146" rx="5" ry="5" style="stroke:#FFFFFF;stroke-width:1.5;" width="38.9297" x="59" y="235.5952"/><text fill="#FFFFFF" font-family="Verdana" font-size="14" lengthAdjust="spacing" textLength="28.9297" x="64" y="254.6704">Map</text><line style="stroke:#FFFFFF;stroke-width:1.5;" x1="97.9297" x2="129.9766" y1="249.1025" y2="249.1025"/><path d="M111.9531,249.1025 L111.9531,246.1025 L117.9531,249.1025 L111.9531,252.1025 L111.9531,249.1025" fill="#FFFFFF"/><path d="M47,237.1025 C47,246.1025 50,249.1025 59,249.1025" fill="none" style="stroke:#FFFFFF;stroke-width:1.5;"/><line style="stroke:#FFFFFF;stroke-width:1.5;" x1="47" x2="47" y1="150.0586" y2="237.1025"/><path d="M35,138.0586 C44,138.0586 47,141.0586 47,150.0586" fill="none" style="stroke:#FFFFFF;stroke-width:1.5;"/><path d="M141.9766,237.1025 C141.9766,246.1025 138.9766,249.1025 129.9766,249.1025" fill="none" style="stroke:#FFFFFF;stroke-width:1.5;"/><line style="stroke:#FFFFFF;stroke-width:1.5;" x1="141.9766" x2="141.9766" y1="150.0586" y2="237.1025"/><path d="M141.9766,150.0586 C141.9766,141.0586 144.9766,138.0586 153.9766,138.0586" fill="none" style="stroke:#FFFFFF;stroke-width:1.5;"/><ellipse cx="9" cy="138.0586" fill="none" rx="4" ry="4" style="stroke:#FFFFFF;stroke-width:2;"/><ellipse cx="183.9766" cy="138.0586" fill="#FFFFFF" rx="4" ry="4" style="stroke:#FFFFFF;stroke-width:1;"/><line style="stroke:#FFFFFF;stroke-width:1.5;" x1="13" x2="35" y1="138.0586" y2="138.0586"/><line style="stroke:#FFFFFF;stroke-width:1.5;" x1="153.9766" x2="179.9766" y1="138.0586" y2="138.0586"/><path d="M164.9766,138.0586 L164.9766,135.0586 L170.9766,138.0586 L164.9766,141.0586 L164.9766,138.0586" fill="#FFFFFF"/><!--SRC=[rLPRSz9057xFhpZM5vtnGgau5IzJe5HjeJ9DMnySdJba3x0ITkDcGqNjV_Ti890Kq5xmmSmaCpdxdMztltFPtOij6ajTrVFksG6D270a- -YroQ90YpvzIqW51AzXwyiMF89Fu4SOIDM7p_ntGepgXjGKgXcojxBNWRpqvlpCwrl3M0-ovnSSqUH26v4t-PDHLuTvIniZ9jeZ9TBLUtkBdKoVLx6TXFI6VOpM5dwcpdKCXdsZ4oKQEjG6xfVgbTtQRZfse9MTMG_IPsuzHXRcd8n0XQdntIGYqv9gcE7tQplbIZh4LbfcSTRJWGo6Yk8OjbDR6qrVAd1kb_mA7IIfFDEL1XXPgTNixof3ARLUfjyURu_CDO033iMrW5RQaEOufu0lVn2Kot_nTAzJDtgNdsb9yolghew4xw8777Gn8rPQP6jgutSvIaOVfR03s2cLPWX3FJ8kM__5z355QD3gZTA-UZfBKYyUIkKc647D67tHqc4e8nqLkHUWTNcyGEnJ3vFGBgNl4gAjbOwvO4dCiGsT64acXst97eKSTIvMjDIVS3HY7KgHWtIu_6GW8rIsWqAu-jykvSQpLkAeN0BLkSJ9hDkWFq2XBnn93yEOSYDdCTMvUqoLj2QXWdY1bMDf9scGrXTx7StLgArQpkgUi2JfPJumRZeqqmKiUnUXtrDKfbQbCDgG9WX9D0Ry5sJrlIgnbg86S8929Z6yA1A6oCNw5rqs8q8wLSroO-ycbjP8SHqEdpTEsdAtlHt9mQ8rtjWtrqHkxklE1wwNOUfUF2JokFU1LXsE1lQfW9mdvPf8BN4OEKPxLmxMYZDDt8qbwOOok3N5iRvjldpeVkNLJ_DxHHPV5ZhLGl4DPRnlC_blLbn5ZYpPQwkP_jYhLZCrDiRKt1ZJ-uqn7T-HYO-I1iOq9JozOPVv_wx8dP3FvhDs2yPaOdUtt7vIBfKhJvuzyD72OQAWl0lREzNIYsgv0escVmfk_A7tu6sd1J4VBxnB8UDfNsU2XzuXZX5E4cNbYAhm8I9rk7-K6Q2fnj9evNRa7Pwt5u3dpnxNfUKhWU6bm7dRczr5s2FGxZ2imjdfmUDThuMgdt2jLe6KnmUSicR2O_vl]--></g></svg>