<svg xmlns="http://www.w3.org/2000/svg" xmlns:xlink="http://www.w3.org/1999/xlink" contentStyleType="text/css" data-diagram-type="EBNF" height="1429px" preserveAspectRatio="none" style="width:515px;height:1429px;background:#0B58A8;" version="1.1" viewBox="0 0 515 1429" width="515px" zoomAndPan="magnify"><defs/><g><rect fill="#0B58A8" height="1429" style="stroke:none;stroke-width:1;" width="515" x="0" y="0"/><text fill="#FFFFFF" font-family="Verdana" font-size="14" font-weight="bold" lengthAdjust="spacing" textLength="29.3262" x="5" y="19.0752">Edn</text><path d="M43,49.522 C43,55.522 45,57.522 51,57.522" fill="none" style="stroke:#FFFFFF;stroke-width:1.5;"/><line style="stroke:#FFFFFF;stroke-width:1.5;" x1="43" x2="43" y1="45.0146" y2="49.522"/><path d="M43,45.0146 C43,39.0146 45,37.0146 51,37.0146" fill="none" style="stroke:#FFFFFF;stroke-width:1.5;"/><line style="stroke:#FFFFFF;stroke-width:1.5;" x1="50" x2="203.3408" y1="37.0146" y2="37.0146"/><path d="M140.0045,37.0146 L140.0045,34.0146 L134.0045,37.0146 L140.0045,40.0146 L140.0045,37.0146" fill="#FFFFFF"/><path d="M210.3408,49.522 C210.3408,55.522 208.3408,57.522 202.3408,57.522" fill="none" style="stroke:#FFFFFF;stroke-width:1.5;"/><line style="stroke:#FFFFFF;stroke-width:1.5;" x1="210.3408" x2="210.3408" y1="45.0146" y2="49.522"/><path d="M202.3408,37.0146 C208.3408,37.0146 210.3408,39.0146 210.3408,45.0146" fill="none" style="stroke:#FFFFFF;stroke-width:1.5;"/><line style="stroke:#FFFFFF;stroke-width:1.5;" x1="35" x2="50" y1="57.522" y2="57.522"/><line style="stroke:#FFFFFF;stroke-width:1.5;" x1="203.3408" x2="218.3408" y1="57.522" y2="57.522"/><rect fill="#0B58A8" height="27.0146" rx="5" ry="5" style="stroke:#FFFFFF;stroke-width:1.5;" width="65.4189" x="74" y="44.0146"/><text fill="#FFFFFF" font-family="Verdana" font-size="14" lengthAdjust="spacing" textLength="55.4189" x="79" y="63.0898">Spacing</text><line style="stroke:#FFFFFF;stroke-width:1.5;" x1="50" x2="74" y1="57.522" y2="57.522"/><line style="stroke:#FFFFFF;stroke-width:1.5;" x1="139.4189" x2="203.3408" y1="57.522" y2="57.522"/><rect fill="#0B58A8" height="27.0146" rx="5" ry="5" style="stroke:#FFFFFF;stroke-width:1.5;" width="93.8018" x="74" y="81.0293"/><text fill="#FFFFFF" font-family="Verdana" font-size="14" lengthAdjust="spacing" textLength="83.8018" x="79" y="100.1045">EdnElement</text><path d="M62,82.5366 C62,91.5366 65,94.5366 74,94.5366" fill="none" style="stroke:#FFFFFF;stroke-width:1.5;"/><line style="stroke:#FFFFFF;stroke-width:1.5;" x1="167.8018" x2="179.3408" y1="94.5366" y2="94.5366"/><path d="M191.3408,82.5366 C191.3408,91.5366 188.3408,94.5366 179.3408,94.5366" fill="none" style="stroke:#FFFFFF;stroke-width:1.5;"/><rect fill="none" height="27.0146" style="stroke:#FFFFFF;stroke-width:1;stroke-dasharray:5,5;" width="105.3408" x="74" y="118.0439"/><text fill="#FFFFFF" font-family="Verdana" font-size="14" lengthAdjust="spacing" textLength="85.4971" x="83.9219" y="137.1191">End of input</text><line style="stroke:#FFFFFF;stroke-width:1.5;" x1="179.3408" x2="179.3408" y1="131.5513" y2="131.5513"/><path d="M62,119.5513 C62,128.5513 65,131.5513 74,131.5513" fill="none" style="stroke:#FFFFFF;stroke-width:1.5;"/><line style="stroke:#FFFFFF;stroke-width:1.5;" x1="62" x2="62" y1="69.522" y2="119.5513"/><path d="M50,57.522 C59,57.522 62,60.522 62,69.522" fill="none" style="stroke:#FFFFFF;stroke-width:1.5;"/><path d="M191.3408,119.5513 C191.3408,128.5513 188.3408,131.5513 179.3408,131.5513" fill="none" style="stroke:#FFFFFF;stroke-width:1.5;"/><line style="stroke:#FFFFFF;stroke-width:1.5;" x1="191.3408" x2="191.3408" y1="69.522" y2="119.5513"/><path d="M191.3408,69.522 C191.3408,60.522 194.3408,57.522 203.3408,57.522" fill="none" style="stroke:#FFFFFF;stroke-width:1.5;"/><ellipse cx="9" cy="57.522" fill="none" rx="4" ry="4" style="stroke:#FFFFFF;stroke-width:2;"/><ellipse cx="248.3408" cy="57.522" fill="#FFFFFF" rx="4" ry="4" style="stroke:#FFFFFF;stroke-width:1;"/><line style="stroke:#FFFFFF;stroke-width:1.5;" x1="13" x2="35" y1="57.522" y2="57.522"/><line style="stroke:#FFFFFF;stroke-width:1.5;" x1="218.3408" x2="244.3408" y1="57.522" y2="57.522"/><path d="M229.3408,57.522 L229.3408,54.522 L235.3408,57.522 L229.3408,60.522 L229.3408,57.522" fill="#FFFFFF"/><text fill="#FFFFFF" font-family="Verdana" font-size="14" font-weight="bold" lengthAdjust="spacing" textLength="61.8721" x="5" y="174.1338">Spacing</text><path d="M43,204.5806 C43,210.5806 45,212.5806 51,212.5806" fill="none" style="stroke:#FFFFFF;stroke-width:1.5;"/><line style="stroke:#FFFFFF;stroke-width:1.5;" x1="43" x2="43" y1="200.0732" y2="204.5806"/><path d="M43,200.0732 C43,194.0732 45,192.0732 51,192.0732" fill="none" style="stroke:#FFFFFF;stroke-width:1.5;"/><line style="stroke:#FFFFFF;stroke-width:1.5;" x1="50" x2="190.7354" y1="192.0732" y2="192.0732"/><path d="M132.4412,192.0732 L132.4412,189.0732 L126.4412,192.0732 L132.4412,195.0732 L132.4412,192.0732" fill="#FFFFFF"/><path d="M197.7354,204.5806 C197.7354,210.5806 195.7354,212.5806 189.7354,212.5806" fill="none" style="stroke:#FFFFFF;stroke-width:1.5;"/><line style="stroke:#FFFFFF;stroke-width:1.5;" x1="197.7354" x2="197.7354" y1="200.0732" y2="204.5806"/><path d="M189.7354,192.0732 C195.7354,192.0732 197.7354,194.0732 197.7354,200.0732" fill="none" style="stroke:#FFFFFF;stroke-width:1.5;"/><line style="stroke:#FFFFFF;stroke-width:1.5;" x1="35" x2="50" y1="212.5806" y2="212.5806"/><line style="stroke:#FFFFFF;stroke-width:1.5;" x1="190.7354" x2="205.7354" y1="212.5806" y2="212.5806"/><rect fill="#0B58A8" height="27.0146" rx="5" ry="5" style="stroke:#FFFFFF;stroke-width:1.5;" width="92.7354" x="74" y="199.0732"/><text fill="#FFFFFF" font-family="Verdana" font-size="14" lengthAdjust="spacing" textLength="82.7354" x="79" y="218.1484">WhiteSpace</text><line style="stroke:#FFFFFF;stroke-width:1.5;" x1="50" x2="74" y1="212.5806" y2="212.5806"/><line style="stroke:#FFFFFF;stroke-width:1.5;" x1="166.7354" x2="190.7354" y1="212.5806" y2="212.5806"/><rect fill="#0B58A8" height="27.0146" rx="5" ry="5" style="stroke:#FFFFFF;stroke-width:1.5;" width="78.2227" x="74" y="236.0879"/><text fill="#FFFFFF" font-family="Verdana" font-size="14" lengthAdjust="spacing" textLength="68.2227" x="79" y="255.1631">Comment</text><path d="M62,237.5952 C62,246.5952 65,249.5952 74,249.5952" fill="none" style="stroke:#FFFFFF;stroke-width:1.5;"/><line style="stroke:#FFFFFF;stroke-width:1.5;" x1="152.2227" x2="166.7354" y1="249.5952" y2="249.5952"/><path d="M178.7354,237.5952 C178.7354,246.5952 175.7354,249.5952 166.7354,249.5952" fill="none" style="stroke:#FFFFFF;stroke-width:1.5;"/><rect fill="none" height="27.0146" style="stroke:#FFFFFF;stroke-width:0.5;" width="15.0928" x="74" y="273.1025"/><text fill="#FFFFFF" font-family="Verdana" font-size="14" lengthAdjust="spacing" textLength="5.0928" x="79" y="292.1777">,</text><line style="stroke:#FFFFFF;stroke-width:1.5;" x1="89.0928" x2="166.7354" y1="286.6099" y2="286.6099"/><path d="M125.9141,286.6099 L125.9141,283.6099 L131.9141,286.6099 L125.9141,289.6099 L125.9141,286.6099" fill="#FFFFFF"/><path d="M62,274.6099 C62,283.6099 65,286.6099 74,286.6099" fill="none" style="stroke:#FFFFFF;stroke-width:1.5;"/><line style="stroke:#FFFFFF;stroke-width:1.5;" x1="62" x2="62" y1="224.5806" y2="274.6099"/><path d="M50,212.5806 C59,212.5806 62,215.5806 62,224.5806" fill="none" style="stroke:#FFFFFF;stroke-width:1.5;"/><path d="M178.7354,274.6099 C178.7354,283.6099 175.7354,286.6099 166.7354,286.6099" fill="none" style="stroke:#FFFFFF;stroke-width:1.5;"/><line style="stroke:#FFFFFF;stroke-width:1.5;" x1="178.7354" x2="178.7354" y1="224.5806" y2="274.6099"/><path d="M178.7354,224.5806 C178.7354,215.5806 181.7354,212.5806 190.7354,212.5806" fill="none" style="stroke:#FFFFFF;stroke-width:1.5;"/><ellipse cx="9" cy="212.5806" fill="none" rx="4" ry="4" style="stroke:#FFFFFF;stroke-width:2;"/><ellipse cx="235.7354" cy="212.5806" fill="#FFFFFF" rx="4" ry="4" style="stroke:#FFFFFF;stroke-width:1;"/><line style="stroke:#FFFFFF;stroke-width:1.5;" x1="13" x2="35" y1="212.5806" y2="212.5806"/><line style="stroke:#FFFFFF;stroke-width:1.5;" x1="205.7354" x2="231.7354" y1="212.5806" y2="212.5806"/><path d="M216.7354,212.5806 L216.7354,209.5806 L222.7354,212.5806 L216.7354,215.5806 L216.7354,212.5806" fill="#FFFFFF"/><text fill="#FFFFFF" font-family="Verdana" font-size="14" font-weight="bold" lengthAdjust="spacing" textLength="92.8525" x="5" y="329.1924">WhiteSpace</text><rect fill="none" height="27.0146" style="stroke:#FFFFFF;stroke-width:0.5;" width="14.9219" x="116.9558" y="342.1318"/><text fill="#FFFFFF" font-family="Verdana" font-size="14" lengthAdjust="spacing" textLength="4.9219" x="121.9558" y="361.207">&#160;</text><path d="M59,389.1465 L59,414.9458 A0,0 0 0 0 59,414.9458 L189.8335,414.9458 A0,0 0 0 0 189.8335,414.9458 L189.8335,399.1465 L179.8335,389.1465 L128.4167,389.1465 L124.4167,369.1465 L120.4167,389.1465 L59,389.1465 A0,0 0 0 0 59,389.1465" fill="#0B58A8" style="stroke:#FFFFFF;stroke-width:1;"/><path d="M179.8335,389.1465 L179.8335,399.1465 L189.8335,399.1465 L179.8335,389.1465" fill="#0B58A8" style="stroke:#FFFFFF;stroke-width:1;"/><text fill="#FFFFFF" font-family="Verdana" font-size="13" lengthAdjust="spacing" textLength="100.6929" x="69.5703" y="407.2163">U+0020 SPACE</text><line style="stroke:#FFFFFF;stroke-width:1.5;" x1="59" x2="116.9558" y1="355.6392" y2="355.6392"/><path d="M85.9779,355.6392 L85.9779,352.6392 L91.9779,355.6392 L85.9779,358.6392 L85.9779,355.6392" fill="#FFFFFF"/><line style="stroke:#FFFFFF;stroke-width:1.5;" x1="131.8777" x2="189.8335" y1="355.6392" y2="355.6392"/><path d="M158.8556,355.6392 L158.8556,352.6392 L164.8556,355.6392 L158.8556,358.6392 L158.8556,355.6392" fill="#FFFFFF"/><line style="stroke:#FFFFFF;stroke-width:1.5;" x1="35" x2="59" y1="355.6392" y2="355.6392"/><line style="stroke:#FFFFFF;stroke-width:1.5;" x1="189.8335" x2="347.8896" y1="355.6392" y2="355.6392"/><rect fill="none" height="27.0146" style="stroke:#FFFFFF;stroke-width:0.5;" width="21.874" x="180.5078" y="424.9458"/><text fill="#FFFFFF" font-family="Verdana" font-size="14" lengthAdjust="spacing" textLength="11.874" x="185.5078" y="444.021">\t</text><path d="M59,471.9604 L59,497.7598 A0,0 0 0 0 59,497.7598 L323.8896,497.7598 A0,0 0 0 0 323.8896,497.7598 L323.8896,481.9604 L313.8896,471.9604 L195.4448,471.9604 L191.4448,451.9604 L187.4448,471.9604 L59,471.9604 A0,0 0 0 0 59,471.9604" fill="#0B58A8" style="stroke:#FFFFFF;stroke-width:1;"/><path d="M313.8896,471.9604 L313.8896,481.9604 L323.8896,481.9604 L313.8896,471.9604" fill="#0B58A8" style="stroke:#FFFFFF;stroke-width:1;"/><text fill="#FFFFFF" font-family="Verdana" font-size="13" lengthAdjust="spacing" textLength="234.749" x="69.5703" y="490.0303">U+0009 HORIZONTAL TABULATION</text><line style="stroke:#FFFFFF;stroke-width:1.5;" x1="59" x2="180.5078" y1="438.4531" y2="438.4531"/><path d="M117.7539,438.4531 L117.7539,435.4531 L123.7539,438.4531 L117.7539,441.4531 L117.7539,438.4531" fill="#FFFFFF"/><line style="stroke:#FFFFFF;stroke-width:1.5;" x1="202.3818" x2="323.8896" y1="438.4531" y2="438.4531"/><path d="M261.1357,438.4531 L261.1357,435.4531 L267.1357,438.4531 L261.1357,441.4531 L261.1357,438.4531" fill="#FFFFFF"/><path d="M47,426.4531 C47,435.4531 50,438.4531 59,438.4531" fill="none" style="stroke:#FFFFFF;stroke-width:1.5;"/><line style="stroke:#FFFFFF;stroke-width:1.5;" x1="323.8896" x2="323.8896" y1="438.4531" y2="438.4531"/><path d="M335.8896,426.4531 C335.8896,435.4531 332.8896,438.4531 323.8896,438.4531" fill="none" style="stroke:#FFFFFF;stroke-width:1.5;"/><rect fill="none" height="27.0146" style="stroke:#FFFFFF;stroke-width:0.5;" width="25.2168" x="125.24" y="507.7598"/><text fill="#FFFFFF" font-family="Verdana" font-size="14" lengthAdjust="spacing" textLength="15.2168" x="130.24" y="526.835">\n</text><path d="M59,554.7744 L59,580.5737 A0,0 0 0 0 59,580.5737 L216.6968,580.5737 A0,0 0 0 0 216.6968,580.5737 L216.6968,564.7744 L206.6968,554.7744 L141.8484,554.7744 L137.8484,534.7744 L133.8484,554.7744 L59,554.7744 A0,0 0 0 0 59,554.7744" fill="#0B58A8" style="stroke:#FFFFFF;stroke-width:1;"/><path d="M206.6968,554.7744 L206.6968,564.7744 L216.6968,564.7744 L206.6968,554.7744" fill="#0B58A8" style="stroke:#FFFFFF;stroke-width:1;"/><text fill="#FFFFFF" font-family="Verdana" font-size="13" lengthAdjust="spacing" textLength="127.5562" x="69.5703" y="572.8442">U+000A LINE FEED</text><line style="stroke:#FFFFFF;stroke-width:1.5;" x1="59" x2="125.24" y1="521.2671" y2="521.2671"/><path d="M90.12,521.2671 L90.12,518.2671 L96.12,521.2671 L90.12,524.2671 L90.12,521.2671" fill="#FFFFFF"/><line style="stroke:#FFFFFF;stroke-width:1.5;" x1="150.4568" x2="216.6968" y1="521.2671" y2="521.2671"/><path d="M181.5768,521.2671 L181.5768,518.2671 L187.5768,521.2671 L181.5768,524.2671 L181.5768,521.2671" fill="#FFFFFF"/><path d="M47,509.2671 C47,518.2671 50,521.2671 59,521.2671" fill="none" style="stroke:#FFFFFF;stroke-width:1.5;"/><line style="stroke:#FFFFFF;stroke-width:1.5;" x1="216.6968" x2="323.8896" y1="521.2671" y2="521.2671"/><path d="M268.2932,521.2671 L268.2932,518.2671 L274.2932,521.2671 L268.2932,524.2671 L268.2932,521.2671" fill="#FFFFFF"/><path d="M335.8896,509.2671 C335.8896,518.2671 332.8896,521.2671 323.8896,521.2671" fill="none" style="stroke:#FFFFFF;stroke-width:1.5;"/><rect fill="none" height="27.0146" style="stroke:#FFFFFF;stroke-width:0.5;" width="61.5156" x="149.6707" y="590.5737"/><text fill="#FFFFFF" font-family="Verdana" font-size="14" lengthAdjust="spacing" textLength="51.5156" x="154.6707" y="609.6489">\u000B</text><path d="M59,637.5884 L59,663.3877 A0,0 0 0 0 59,663.3877 L301.8569,663.3877 A0,0 0 0 0 301.8569,663.3877 L301.8569,647.5884 L291.8569,637.5884 L184.4285,637.5884 L180.4285,617.5884 L176.4285,637.5884 L59,637.5884 A0,0 0 0 0 59,637.5884" fill="#0B58A8" style="stroke:#FFFFFF;stroke-width:1;"/><path d="M291.8569,637.5884 L291.8569,647.5884 L301.8569,647.5884 L291.8569,637.5884" fill="#0B58A8" style="stroke:#FFFFFF;stroke-width:1;"/><text fill="#FFFFFF" font-family="Verdana" font-size="13" lengthAdjust="spacing" textLength="212.7163" x="69.5703" y="655.6582">U+000B VERTICAL TABULATION</text><line style="stroke:#FFFFFF;stroke-width:1.5;" x1="59" x2="149.6707" y1="604.0811" y2="604.0811"/><path d="M102.3353,604.0811 L102.3353,601.0811 L108.3353,604.0811 L102.3353,607.0811 L102.3353,604.0811" fill="#FFFFFF"/><line style="stroke:#FFFFFF;stroke-width:1.5;" x1="211.1863" x2="301.8569" y1="604.0811" y2="604.0811"/><path d="M254.5216,604.0811 L254.5216,601.0811 L260.5216,604.0811 L254.5216,607.0811 L254.5216,604.0811" fill="#FFFFFF"/><path d="M47,592.0811 C47,601.0811 50,604.0811 59,604.0811" fill="none" style="stroke:#FFFFFF;stroke-width:1.5;"/><line style="stroke:#FFFFFF;stroke-width:1.5;" x1="301.8569" x2="323.8896" y1="604.0811" y2="604.0811"/><path d="M335.8896,592.0811 C335.8896,601.0811 332.8896,604.0811 323.8896,604.0811" fill="none" style="stroke:#FFFFFF;stroke-width:1.5;"/><rect fill="none" height="27.0146" style="stroke:#FFFFFF;stroke-width:0.5;" width="21.2793" x="130.8269" y="673.3877"/><text fill="#FFFFFF" font-family="Verdana" font-size="14" lengthAdjust="spacing" textLength="11.2793" x="135.8269" y="692.4629">\f</text><path d="M59,720.4023 L59,746.2017 A0,0 0 0 0 59,746.2017 L223.9331,746.2017 A0,0 0 0 0 223.9331,746.2017 L223.9331,730.4023 L213.9331,720.4023 L145.4666,720.4023 L141.4666,700.4023 L137.4666,720.4023 L59,720.4023 A0,0 0 0 0 59,720.4023" fill="#0B58A8" style="stroke:#FFFFFF;stroke-width:1;"/><path d="M213.9331,720.4023 L213.9331,730.4023 L223.9331,730.4023 L213.9331,720.4023" fill="#0B58A8" style="stroke:#FFFFFF;stroke-width:1;"/><text fill="#FFFFFF" font-family="Verdana" font-size="13" lengthAdjust="spacing" textLength="134.7925" x="69.5703" y="738.4722">U+000C FORM FEED</text><line style="stroke:#FFFFFF;stroke-width:1.5;" x1="59" x2="130.8269" y1="686.895" y2="686.895"/><path d="M92.9135,686.895 L92.9135,683.895 L98.9135,686.895 L92.9135,689.895 L92.9135,686.895" fill="#FFFFFF"/><line style="stroke:#FFFFFF;stroke-width:1.5;" x1="152.1062" x2="223.9331" y1="686.895" y2="686.895"/><path d="M186.0197,686.895 L186.0197,683.895 L192.0197,686.895 L186.0197,689.895 L186.0197,686.895" fill="#FFFFFF"/><path d="M47,674.895 C47,683.895 50,686.895 59,686.895" fill="none" style="stroke:#FFFFFF;stroke-width:1.5;"/><line style="stroke:#FFFFFF;stroke-width:1.5;" x1="223.9331" x2="323.8896" y1="686.895" y2="686.895"/><path d="M271.9114,686.895 L271.9114,683.895 L277.9114,686.895 L271.9114,689.895 L271.9114,686.895" fill="#FFFFFF"/><path d="M335.8896,674.895 C335.8896,683.895 332.8896,686.895 323.8896,686.895" fill="none" style="stroke:#FFFFFF;stroke-width:1.5;"/><rect fill="none" height="27.0146" style="stroke:#FFFFFF;stroke-width:0.5;" width="22.332" x="156.0815" y="756.2017"/><text fill="#FFFFFF" font-family="Verdana" font-size="14" lengthAdjust="spacing" textLength="12.332" x="161.0815" y="775.2769">\r</text><path d="M59,803.2163 L59,829.0156 A0,0 0 0 0 59,829.0156 L275.4951,829.0156 A0,0 0 0 0 275.4951,829.0156 L275.4951,813.2163 L265.4951,803.2163 L171.2476,803.2163 L167.2476,783.2163 L163.2476,803.2163 L59,803.2163 A0,0 0 0 0 59,803.2163" fill="#0B58A8" style="stroke:#FFFFFF;stroke-width:1;"/><path d="M265.4951,803.2163 L265.4951,813.2163 L275.4951,813.2163 L265.4951,803.2163" fill="#0B58A8" style="stroke:#FFFFFF;stroke-width:1;"/><text fill="#FFFFFF" font-family="Verdana" font-size="13" lengthAdjust="spacing" textLength="186.3545" x="69.5703" y="821.2861">U+000D CARRIAGE RETURN</text><line style="stroke:#FFFFFF;stroke-width:1.5;" x1="59" x2="156.0815" y1="769.709" y2="769.709"/><path d="M105.5408,769.709 L105.5408,766.709 L111.5408,769.709 L105.5408,772.709 L105.5408,769.709" fill="#FFFFFF"/><line style="stroke:#FFFFFF;stroke-width:1.5;" x1="178.4136" x2="275.4951" y1="769.709" y2="769.709"/><path d="M224.9543,769.709 L224.9543,766.709 L230.9543,769.709 L224.9543,772.709 L224.9543,769.709" fill="#FFFFFF"/><path d="M47,757.709 C47,766.709 50,769.709 59,769.709" fill="none" style="stroke:#FFFFFF;stroke-width:1.5;"/><line style="stroke:#FFFFFF;stroke-width:1.5;" x1="275.4951" x2="323.8896" y1="769.709" y2="769.709"/><path d="M297.6924,769.709 L297.6924,766.709 L303.6924,769.709 L297.6924,772.709 L297.6924,769.709" fill="#FFFFFF"/><path d="M335.8896,757.709 C335.8896,766.709 332.8896,769.709 323.8896,769.709" fill="none" style="stroke:#FFFFFF;stroke-width:1.5;"/><rect fill="none" height="27.0146" style="stroke:#FFFFFF;stroke-width:0.5;" width="61.6934" x="128.5266" y="839.0156"/><text fill="#FFFFFF" font-family="Verdana" font-size="14" lengthAdjust="spacing" textLength="51.6934" x="133.5266" y="858.0908">\u001C</text><path d="M59,886.0303 L59,911.8296 A0,0 0 0 0 59,911.8296 L259.7466,911.8296 A0,0 0 0 0 259.7466,911.8296 L259.7466,896.0303 L249.7466,886.0303 L163.3733,886.0303 L159.3733,866.0303 L155.3733,886.0303 L59,886.0303 A0,0 0 0 0 59,886.0303" fill="#0B58A8" style="stroke:#FFFFFF;stroke-width:1;"/><path d="M249.7466,886.0303 L249.7466,896.0303 L259.7466,896.0303 L249.7466,886.0303" fill="#0B58A8" style="stroke:#FFFFFF;stroke-width:1;"/><text fill="#FFFFFF" font-family="Verdana" font-size="13" lengthAdjust="spacing" textLength="170.606" x="69.5703" y="904.1001">U+001C FILE SEPARATOR</text><line style="stroke:#FFFFFF;stroke-width:1.5;" x1="59" x2="128.5266" y1="852.5229" y2="852.5229"/><path d="M91.7633,852.5229 L91.7633,849.5229 L97.7633,852.5229 L91.7633,855.5229 L91.7633,852.5229" fill="#FFFFFF"/><line style="stroke:#FFFFFF;stroke-width:1.5;" x1="190.22" x2="259.7466" y1="852.5229" y2="852.5229"/><path d="M222.9833,852.5229 L222.9833,849.5229 L228.9833,852.5229 L222.9833,855.5229 L222.9833,852.5229" fill="#FFFFFF"/><path d="M47,840.5229 C47,849.5229 50,852.5229 59,852.5229" fill="none" style="stroke:#FFFFFF;stroke-width:1.5;"/><line style="stroke:#FFFFFF;stroke-width:1.5;" x1="259.7466" x2="323.8896" y1="852.5229" y2="852.5229"/><path d="M289.8181,852.5229 L289.8181,849.5229 L295.8181,852.5229 L289.8181,855.5229 L289.8181,852.5229" fill="#FFFFFF"/><path d="M335.8896,840.5229 C335.8896,849.5229 332.8896,852.5229 323.8896,852.5229" fill="none" style="stroke:#FFFFFF;stroke-width:1.5;"/><rect fill="none" height="27.0146" style="stroke:#FFFFFF;stroke-width:0.5;" width="62.7051" x="137.6438" y="921.8296"/><text fill="#FFFFFF" font-family="Verdana" font-size="14" lengthAdjust="spacing" textLength="52.7051" x="142.6438" y="940.9048">\u001D</text><path d="M59,968.8442 L59,994.6436 A0,0 0 0 0 59,994.6436 L278.9927,994.6436 A0,0 0 0 0 278.9927,994.6436 L278.9927,978.8442 L268.9927,968.8442 L172.9963,968.8442 L168.9963,948.8442 L164.9963,968.8442 L59,968.8442 A0,0 0 0 0 59,968.8442" fill="#0B58A8" style="stroke:#FFFFFF;stroke-width:1;"/><path d="M268.9927,968.8442 L268.9927,978.8442 L278.9927,978.8442 L268.9927,968.8442" fill="#0B58A8" style="stroke:#FFFFFF;stroke-width:1;"/><text fill="#FFFFFF" font-family="Verdana" font-size="13" lengthAdjust="spacing" textLength="189.8521" x="69.5703" y="986.9141">U+001D GROUP SEPARATOR</text><line style="stroke:#FFFFFF;stroke-width:1.5;" x1="59" x2="137.6438" y1="935.3369" y2="935.3369"/><path d="M96.3219,935.3369 L96.3219,932.3369 L102.3219,935.3369 L96.3219,938.3369 L96.3219,935.3369" fill="#FFFFFF"/><line style="stroke:#FFFFFF;stroke-width:1.5;" x1="200.3489" x2="278.9927" y1="935.3369" y2="935.3369"/><path d="M237.6708,935.3369 L237.6708,932.3369 L243.6708,935.3369 L237.6708,938.3369 L237.6708,935.3369" fill="#FFFFFF"/><path d="M47,923.3369 C47,932.3369 50,935.3369 59,935.3369" fill="none" style="stroke:#FFFFFF;stroke-width:1.5;"/><line style="stroke:#FFFFFF;stroke-width:1.5;" x1="278.9927" x2="323.8896" y1="935.3369" y2="935.3369"/><path d="M299.4412,935.3369 L299.4412,932.3369 L305.4412,935.3369 L299.4412,938.3369 L299.4412,935.3369" fill="#FFFFFF"/><path d="M335.8896,923.3369 C335.8896,932.3369 332.8896,935.3369 323.8896,935.3369" fill="none" style="stroke:#FFFFFF;stroke-width:1.5;"/><rect fill="none" height="27.0146" style="stroke:#FFFFFF;stroke-width:0.5;" width="60.7705" x="142.1721" y="1004.6436"/><text fill="#FFFFFF" font-family="Verdana" font-size="14" lengthAdjust="spacing" textLength="50.7705" x="147.1721" y="1023.7188">\u001E</text><path d="M59,1051.6582 L59,1077.4575 A0,0 0 0 0 59,1077.4575 L286.1147,1077.4575 A0,0 0 0 0 286.1147,1077.4575 L286.1147,1061.6582 L276.1147,1051.6582 L176.5574,1051.6582 L172.5574,1031.6582 L168.5574,1051.6582 L59,1051.6582 A0,0 0 0 0 59,1051.6582" fill="#0B58A8" style="stroke:#FFFFFF;stroke-width:1;"/><path d="M276.1147,1051.6582 L276.1147,1061.6582 L286.1147,1061.6582 L276.1147,1051.6582" fill="#0B58A8" style="stroke:#FFFFFF;stroke-width:1;"/><text fill="#FFFFFF" font-family="Verdana" font-size="13" lengthAdjust="spacing" textLength="196.9741" x="69.5703" y="1069.728">U+001E RECORD SEPARATOR</text><line style="stroke:#FFFFFF;stroke-width:1.5;" x1="59" x2="142.1721" y1="1018.1509" y2="1018.1509"/><path d="M98.5861,1018.1509 L98.5861,1015.1509 L104.5861,1018.1509 L98.5861,1021.1509 L98.5861,1018.1509" fill="#FFFFFF"/><line style="stroke:#FFFFFF;stroke-width:1.5;" x1="202.9426" x2="286.1147" y1="1018.1509" y2="1018.1509"/><path d="M242.5287,1018.1509 L242.5287,1015.1509 L248.5287,1018.1509 L242.5287,1021.1509 L242.5287,1018.1509" fill="#FFFFFF"/><path d="M47,1006.1509 C47,1015.1509 50,1018.1509 59,1018.1509" fill="none" style="stroke:#FFFFFF;stroke-width:1.5;"/><line style="stroke:#FFFFFF;stroke-width:1.5;" x1="286.1147" x2="323.8896" y1="1018.1509" y2="1018.1509"/><path d="M303.0022,1018.1509 L303.0022,1015.1509 L309.0022,1018.1509 L303.0022,1021.1509 L303.0022,1018.1509" fill="#FFFFFF"/><path d="M335.8896,1006.1509 C335.8896,1015.1509 332.8896,1018.1509 323.8896,1018.1509" fill="none" style="stroke:#FFFFFF;stroke-width:1.5;"/><rect fill="none" height="27.0146" style="stroke:#FFFFFF;stroke-width:0.5;" width="59.9639" x="130.7498" y="1087.4575"/><text fill="#FFFFFF" font-family="Verdana" font-size="14" lengthAdjust="spacing" textLength="49.9639" x="135.7498" y="1106.5327">\u001F</text><path d="M59,1134.4722 L59,1160.2715 A0,0 0 0 0 59,1160.2715 L262.4634,1160.2715 A0,0 0 0 0 262.4634,1160.2715 L262.4634,1144.4722 L252.4634,1134.4722 L164.7317,1134.4722 L160.7317,1114.4722 L156.7317,1134.4722 L59,1134.4722 A0,0 0 0 0 59,1134.4722" fill="#0B58A8" style="stroke:#FFFFFF;stroke-width:1;"/><path d="M252.4634,1134.4722 L252.4634,1144.4722 L262.4634,1144.4722 L252.4634,1134.4722" fill="#0B58A8" style="stroke:#FFFFFF;stroke-width:1;"/><text fill="#FFFFFF" font-family="Verdana" font-size="13" lengthAdjust="spacing" textLength="173.3228" x="69.5703" y="1152.542">U+001F UNIT SEPARATOR</text><line style="stroke:#FFFFFF;stroke-width:1.5;" x1="59" x2="130.7498" y1="1100.9648" y2="1100.9648"/><path d="M92.8749,1100.9648 L92.8749,1097.9648 L98.8749,1100.9648 L92.8749,1103.9648 L92.8749,1100.9648" fill="#FFFFFF"/><line style="stroke:#FFFFFF;stroke-width:1.5;" x1="190.7136" x2="262.4634" y1="1100.9648" y2="1100.9648"/><path d="M224.5885,1100.9648 L224.5885,1097.9648 L230.5885,1100.9648 L224.5885,1103.9648 L224.5885,1100.9648" fill="#FFFFFF"/><line style="stroke:#FFFFFF;stroke-width:1.5;" x1="262.4634" x2="323.8896" y1="1100.9648" y2="1100.9648"/><path d="M291.1765,1100.9648 L291.1765,1097.9648 L297.1765,1100.9648 L291.1765,1103.9648 L291.1765,1100.9648" fill="#FFFFFF"/><path d="M47,1088.9648 C47,1097.9648 50,1100.9648 59,1100.9648" fill="none" style="stroke:#FFFFFF;stroke-width:1.5;"/><line style="stroke:#FFFFFF;stroke-width:1.5;" x1="47" x2="47" y1="367.6392" y2="1088.9648"/><path d="M35,355.6392 C44,355.6392 47,358.6392 47,367.6392" fill="none" style="stroke:#FFFFFF;stroke-width:1.5;"/><path d="M335.8896,1088.9648 C335.8896,1097.9648 332.8896,1100.9648 323.8896,1100.9648" fill="none" style="stroke:#FFFFFF;stroke-width:1.5;"/><line style="stroke:#FFFFFF;stroke-width:1.5;" x1="335.8896" x2="335.8896" y1="367.6392" y2="1088.9648"/><path d="M335.8896,367.6392 C335.8896,358.6392 338.8896,355.6392 347.8896,355.6392" fill="none" style="stroke:#FFFFFF;stroke-width:1.5;"/><ellipse cx="9" cy="355.6392" fill="none" rx="4" ry="4" style="stroke:#FFFFFF;stroke-width:2;"/><ellipse cx="377.8896" cy="355.6392" fill="#FFFFFF" rx="4" ry="4" style="stroke:#FFFFFF;stroke-width:1;"/><line style="stroke:#FFFFFF;stroke-width:1.5;" x1="13" x2="35" y1="355.6392" y2="355.6392"/><line style="stroke:#FFFFFF;stroke-width:1.5;" x1="347.8896" x2="373.8896" y1="355.6392" y2="355.6392"/><path d="M358.8896,355.6392 L358.8896,352.6392 L364.8896,355.6392 L358.8896,358.6392 L358.8896,355.6392" fill="#FFFFFF"/><text fill="#FFFFFF" font-family="Verdana" font-size="14" font-weight="bold" lengthAdjust="spacing" textLength="75.0176" x="5" y="1189.3467">Comment</text><line style="stroke:#FFFFFF;stroke-width:1.5;" x1="35" x2="35" y1="1215.7935" y2="1215.7935"/><rect fill="none" height="27.0146" style="stroke:#FFFFFF;stroke-width:0.5;" width="16.3574" x="35" y="1202.2861"/><text fill="#FFFFFF" font-family="Verdana" font-size="14" lengthAdjust="spacing" textLength="6.3574" x="40" y="1221.3613">;</text><line style="stroke:#FFFFFF;stroke-width:1.5;" x1="51.3574" x2="71.3574" y1="1215.7935" y2="1215.7935"/><line style="stroke:#FFFFFF;stroke-width:1.5;" x1="71.3574" x2="390.2949" y1="1215.7935" y2="1215.7935"/><path d="M196.9324,1215.7935 L196.9324,1212.7935 L202.9324,1215.7935 L196.9324,1218.7935 L196.9324,1215.7935" fill="#FFFFFF"/><path d="M71.3574,1215.7935 C80.3574,1215.7935 83.3574,1224.5471 83.3574,1233.5471 C83.3574,1242.5471 86.3574,1251.3008 95.3574,1251.3008" fill="none" style="stroke:#FFFFFF;stroke-width:1.5;"/><path d="M366.2949,1251.3008 C375.2949,1251.3008 378.2949,1242.5471 378.2949,1233.5471 C378.2949,1224.5471 381.2949,1215.7935 390.2949,1215.7935" fill="none" style="stroke:#FFFFFF;stroke-width:1.5;"/><path d="M103.3574,1243.3008 C103.3574,1249.3008 105.3574,1251.3008 111.3574,1251.3008" fill="none" style="stroke:#FFFFFF;stroke-width:1.5;"/><line style="stroke:#FFFFFF;stroke-width:1.5;" x1="103.3574" x2="103.3574" y1="1238.7935" y2="1243.3008"/><path d="M103.3574,1238.7935 C103.3574,1232.7935 105.3574,1230.7935 111.3574,1230.7935" fill="none" style="stroke:#FFFFFF;stroke-width:1.5;"/><line style="stroke:#FFFFFF;stroke-width:1.5;" x1="110.3574" x2="351.2949" y1="1230.7935" y2="1230.7935"/><path d="M252.9199,1230.7935 L252.9199,1227.7935 L246.9199,1230.7935 L252.9199,1233.7935 L252.9199,1230.7935" fill="#FFFFFF"/><path d="M358.2949,1243.3008 C358.2949,1249.3008 356.2949,1251.3008 350.2949,1251.3008" fill="none" style="stroke:#FFFFFF;stroke-width:1.5;"/><line style="stroke:#FFFFFF;stroke-width:1.5;" x1="358.2949" x2="358.2949" y1="1238.7935" y2="1243.3008"/><path d="M350.2949,1230.7935 C356.2949,1230.7935 358.2949,1232.7935 358.2949,1238.7935" fill="none" style="stroke:#FFFFFF;stroke-width:1.5;"/><line style="stroke:#FFFFFF;stroke-width:1.5;" x1="95.3574" x2="110.3574" y1="1251.3008" y2="1251.3008"/><line style="stroke:#FFFFFF;stroke-width:1.5;" x1="351.2949" x2="366.2949" y1="1251.3008" y2="1251.3008"/><line style="stroke:#FFFFFF;stroke-width:1.5;" x1="110.3574" x2="110.3574" y1="1251.3008" y2="1251.3008"/><rect fill="none" height="27.0146" style="stroke:#FFFFFF;stroke-width:1;stroke-dasharray:5,5;" width="117.5498" x="110.3574" y="1237.7935"/><text fill="#FFFFFF" font-family="Verdana" font-size="14" lengthAdjust="spacing" textLength="97.7061" x="120.2793" y="1256.8687">Any character</text><line style="stroke:#FFFFFF;stroke-width:1.5;" x1="227.9072" x2="247.9072" y1="1251.3008" y2="1251.3008"/><text fill="#FFFFFF" font-family="Verdana" font-size="14" lengthAdjust="spacing" textLength="30.1191" x="250.9072" y="1255.2402">NOT</text><rect fill="#0B58A8" height="27.0146" rx="5" ry="5" style="stroke:#FFFFFF;stroke-width:1.5;" width="65.2686" x="286.0264" y="1237.7935"/><text fill="#FFFFFF" font-family="Verdana" font-size="14" lengthAdjust="spacing" textLength="55.2686" x="291.0264" y="1256.8687">LineEnd</text><line style="stroke:#FFFFFF;stroke-width:1.5;" x1="390.2949" x2="410.2949" y1="1215.7935" y2="1215.7935"/><rect fill="#0B58A8" height="27.0146" rx="5" ry="5" style="stroke:#FFFFFF;stroke-width:1.5;" width="65.2686" x="410.2949" y="1202.2861"/><text fill="#FFFFFF" font-family="Verdana" font-size="14" lengthAdjust="spacing" textLength="55.2686" x="415.2949" y="1221.3613">LineEnd</text><ellipse cx="9" cy="1215.7935" fill="none" rx="4" ry="4" style="stroke:#FFFFFF;stroke-width:2;"/><ellipse cx="505.5635" cy="1215.7935" fill="#FFFFFF" rx="4" ry="4" style="stroke:#FFFFFF;stroke-width:1;"/><line style="stroke:#FFFFFF;stroke-width:1.5;" x1="13" x2="35" y1="1215.7935" y2="1215.7935"/><line style="stroke:#FFFFFF;stroke-width:1.5;" x1="475.5635" x2="501.5635" y1="1215.7935" y2="1215.7935"/><path d="M486.5635,1215.7935 L486.5635,1212.7935 L492.5635,1215.7935 L486.5635,1218.7935 L486.5635,1215.7935" fill="#FFFFFF"/><text fill="#FFFFFF" font-family="Verdana" font-size="14" font-weight="bold" lengthAdjust="spacing" textLength="62.3027" x="5" y="1293.8833">LineEnd</text><rect fill="none" height="27.0146" style="stroke:#FFFFFF;stroke-width:0.5;" width="25.2168" x="59" y="1306.8228"/><text fill="#FFFFFF" font-family="Verdana" font-size="14" lengthAdjust="spacing" textLength="15.2168" x="64" y="1325.8979">\n</text><line style="stroke:#FFFFFF;stroke-width:1.5;" x1="35" x2="59" y1="1320.3301" y2="1320.3301"/><line style="stroke:#FFFFFF;stroke-width:1.5;" x1="84.2168" x2="188.3408" y1="1320.3301" y2="1320.3301"/><rect fill="none" height="27.0146" style="stroke:#FFFFFF;stroke-width:0.5;" width="22.332" x="59" y="1343.8374"/><text fill="#FFFFFF" font-family="Verdana" font-size="14" lengthAdjust="spacing" textLength="12.332" x="64" y="1362.9126">\r</text><path d="M47,1345.3447 C47,1354.3447 50,1357.3447 59,1357.3447" fill="none" style="stroke:#FFFFFF;stroke-width:1.5;"/><line style="stroke:#FFFFFF;stroke-width:1.5;" x1="81.332" x2="164.3408" y1="1357.3447" y2="1357.3447"/><path d="M120.8364,1357.3447 L120.8364,1354.3447 L126.8364,1357.3447 L120.8364,1360.3447 L120.8364,1357.3447" fill="#FFFFFF"/><path d="M176.3408,1345.3447 C176.3408,1354.3447 173.3408,1357.3447 164.3408,1357.3447" fill="none" style="stroke:#FFFFFF;stroke-width:1.5;"/><rect fill="none" height="27.0146" style="stroke:#FFFFFF;stroke-width:1;stroke-dasharray:5,5;" width="105.3408" x="59" y="1380.8521"/><text fill="#FFFFFF" font-family="Verdana" font-size="14" lengthAdjust="spacing" textLength="85.4971" x="68.9219" y="1399.9272">End of input</text><line style="stroke:#FFFFFF;stroke-width:1.5;" x1="164.3408" x2="164.3408" y1="1394.3594" y2="1394.3594"/><path d="M47,1382.3594 C47,1391.3594 50,1394.3594 59,1394.3594" fill="none" style="stroke:#FFFFFF;stroke-width:1.5;"/><line style="stroke:#FFFFFF;stroke-width:1.5;" x1="47" x2="47" y1="1332.3301" y2="1382.3594"/><path d="M35,1320.3301 C44,1320.3301 47,1323.3301 47,1332.3301" fill="none" style="stroke:#FFFFFF;stroke-width:1.5;"/><path d="M176.3408,1382.3594 C176.3408,1391.3594 173.3408,1394.3594 164.3408,1394.3594" fill="none" style="stroke:#FFFFFF;stroke-width:1.5;"/><line style="stroke:#FFFFFF;stroke-width:1.5;" x1="176.3408" x2="176.3408" y1="1332.3301" y2="1382.3594"/><path d="M176.3408,1332.3301 C176.3408,1323.3301 179.3408,1320.3301 188.3408,1320.3301" fill="none" style="stroke:#FFFFFF;stroke-width:1.5;"/><ellipse cx="9" cy="1320.3301" fill="none" rx="4" ry="4" style="stroke:#FFFFFF;stroke-width:2;"/><ellipse cx="218.3408" cy="1320.3301" fill="#FFFFFF" rx="4" ry="4" style="stroke:#FFFFFF;stroke-width:1;"/><line style="stroke:#FFFFFF;stroke-width:1.5;" x1="13" x2="35" y1="1320.3301" y2="1320.3301"/><line style="stroke:#FFFFFF;stroke-width:1.5;" x1="188.3408" x2="214.3408" y1="1320.3301" y2="1320.3301"/><path d="M199.3408,1320.3301 L199.3408,1317.3301 L205.3408,1320.3301 L199.3408,1323.3301 L199.3408,1320.3301" fill="#FFFFFF"/><!--SRC=[xLTTS-8s57tthxYbBybsipLawIHaqyOOav3oDRR9pdJwejW2L8paoZAxTCj_xvNvT82oIUXBPyt08EdSewjxZwxacqGHgUWZxnlVgI4TKo1ZDY264tAuXY_WnIHWV01_0_Ou4GAumiOluF0GH1yOZrE5pTaPN1d64gqjFmwPehg38juMuuLbuMrX0Tu0N4C1FzbpyWPwFvXcoGIlQzaEl3arOFsW_U-gi0aqB-6kupP-wxHzgmc-LUqrBR_HQUymv7b32vgDjWDrnwdj0AU8g1PMu2eyEAxVi0_DqS_FOKEzuxRspI7pu1hObkish5i7NCVlkUtTRXNjbLj5v6yq7V2ShkLQViVTOr5RMzJWrktqkWTDdBM9TiVkkBM3DlMrJHrwxOQ_rmBJlvG4vlwg06zHCIUe8ujF8HWIIG959RRFeCaurM8xXHcYbYqaMFwzdgTs4T0TshmoRYWFCuqRDskzpvyFYPf6z6TqJWgXu4lcPPK4eu4KAGzj4Ga9tvlLyeLraOtL1LUBtdhsh7hR1BVF0vKXuIJhl9l6LAAReoM-PfsNojcGTdwRHVVwGnQCE4qIA6PzBI87Z8Csc-4t546QnMtkQK1YnGHVj9uoc5dlBFlju_8mf8U1Gqh2hm8gfYAwmka8UEml2gNI0KlzrT6DxpPdsehva-ZkpeIdimUF8WeNn5o4IvzQv3CRf-EFB5H3E3VD1KBIFfMK1_I_c3wXCOfNYQFIVlXn8L8Z6Q6eSO8nM5AAJqqHHImMSPvx3TgdupMYHliaZTIMVBSGBS55eejrkCBQ8fMCoWria_LfX5dt5CQ03gQOZKH4BDo0T77xiO35XAik2KDzMXJDZN6F_fdgv6WgBQ2ga9YaVGlqXYGKdpH9dqG9tHZf9RHA5Pb7KicKve8NA3PXQfebQVzchnBvD6kxtDbT4xP2EjjCZ9wEoBa3szPvwESCjOnMEJTgCnb4DBHN9VC9uMejMra3S4d8qWGkyuGHmSrw82x72K8sbQMKP8-fedj2yJKS7YwS2eNLzcKazNLfVBRjHX5vlgq-7t2_Z3Bp_26nYMi4WdSn6sH0SyYLAFTaQej3iWbHh-N0MA7ImjUnf8yH2rvCqHOlrKldyG_qVgxl7IgUvIhLEk97Khodbk5_tkRASop5Rkrc-jTQjPl9FXgJSpIcnj6OsgzamgF49WcT4_hFh3BVNgI-lKZz7r-akX7Uu7gj9aoeJFGRIF5ToIoLtxq_yOY2-vH3wGAAvnNpib8gW-ruFkZnK-Fajjk412yXADUG9VFJ7mbEZNio8U2cNB4nhK0dflo-zkko0tsPC2cuNgfn_z1Q0tvwVrPb2Y-E4bs1XvQnkB6YHI3qbQa2FRz-Tc4q2H-aMD4hG3b63Ndb5CUyVm00]--></g></svg>