<svg xmlns="http://www.w3.org/2000/svg" xmlns:xlink="http://www.w3.org/1999/xlink" contentStyleType="text/css" data-diagram-type="EBNF" height="1131px" preserveAspectRatio="none" style="width:475px;height:1131px;background:#0B58A8;" version="1.1" viewBox="0 0 475 1131" width="475px" zoomAndPan="magnify"><defs/><g><rect fill="#0B58A8" height="1131" style="stroke:none;stroke-width:1;" width="475" x="0" y="0"/><text fill="#FFFFFF" font-family="Verdana" font-size="14" font-weight="bold" lengthAdjust="spacing" textLength="93.4336" x="5" y="19.0752">EdnElement</text><rect fill="#0B58A8" height="27.0146" rx="5" ry="5" style="stroke:#FFFFFF;stroke-width:1.5;" width="78.5508" x="177.9346" y="32.0146"/><text fill="#FFFFFF" font-family="Verdana" font-size="14" lengthAdjust="spacing" textLength="68.5508" x="182.9346" y="51.0898">Character</text><path d="M59,79.0293 L59,104.8286 A0,0 0 0 0 59,104.8286 L375.4199,104.8286 A0,0 0 0 0 375.4199,104.8286 L375.4199,89.0293 L365.4199,79.0293 L221.21,79.0293 L217.21,59.0293 L213.21,79.0293 L59,79.0293 A0,0 0 0 0 59,79.0293" fill="#0B58A8" style="stroke:#FFFFFF;stroke-width:1;"/><path d="M365.4199,79.0293 L365.4199,89.0293 L375.4199,89.0293 L365.4199,79.0293" fill="#0B58A8" style="stroke:#FFFFFF;stroke-width:1;"/><text fill="#FFFFFF" font-family="Verdana" font-size="13" lengthAdjust="spacing" textLength="286.2793" x="69.5703" y="97.0991">Additional named characters and octal form</text><line style="stroke:#FFFFFF;stroke-width:1.5;" x1="59" x2="177.9346" y1="45.522" y2="45.522"/><path d="M116.4673,45.522 L116.4673,42.522 L122.4673,45.522 L116.4673,48.522 L116.4673,45.522" fill="#FFFFFF"/><line style="stroke:#FFFFFF;stroke-width:1.5;" x1="256.4854" x2="375.4199" y1="45.522" y2="45.522"/><path d="M313.9526,45.522 L313.9526,42.522 L319.9526,45.522 L313.9526,48.522 L313.9526,45.522" fill="#FFFFFF"/><line style="stroke:#FFFFFF;stroke-width:1.5;" x1="35" x2="59" y1="45.522" y2="45.522"/><line style="stroke:#FFFFFF;stroke-width:1.5;" x1="375.4199" x2="435.5762" y1="45.522" y2="45.522"/><rect fill="#0B58A8" height="27.0146" rx="5" ry="5" style="stroke:#FFFFFF;stroke-width:1.5;" width="52.4854" x="155.8171" y="114.8286"/><text fill="#FFFFFF" font-family="Verdana" font-size="14" lengthAdjust="spacing" textLength="42.4854" x="160.8171" y="133.9038">String</text><path d="M59,161.8433 L59,187.6426 A0,0 0 0 0 59,187.6426 L305.1196,187.6426 A0,0 0 0 0 305.1196,187.6426 L305.1196,171.8433 L295.1196,161.8433 L186.0598,161.8433 L182.0598,141.8433 L178.0598,161.8433 L59,161.8433 A0,0 0 0 0 59,161.8433" fill="#0B58A8" style="stroke:#FFFFFF;stroke-width:1;"/><path d="M295.1196,161.8433 L295.1196,171.8433 L305.1196,171.8433 L295.1196,161.8433" fill="#0B58A8" style="stroke:#FFFFFF;stroke-width:1;"/><text fill="#FFFFFF" font-family="Verdana" font-size="13" lengthAdjust="spacing" textLength="215.979" x="69.5703" y="179.9131">Additional octal escape sequence</text><line style="stroke:#FFFFFF;stroke-width:1.5;" x1="59" x2="155.8171" y1="128.3359" y2="128.3359"/><path d="M105.4086,128.3359 L105.4086,125.3359 L111.4086,128.3359 L105.4086,131.3359 L105.4086,128.3359" fill="#FFFFFF"/><line style="stroke:#FFFFFF;stroke-width:1.5;" x1="208.3025" x2="305.1196" y1="128.3359" y2="128.3359"/><path d="M254.7111,128.3359 L254.7111,125.3359 L260.7111,128.3359 L254.7111,131.3359 L254.7111,128.3359" fill="#FFFFFF"/><path d="M47,116.3359 C47,125.3359 50,128.3359 59,128.3359" fill="none" style="stroke:#FFFFFF;stroke-width:1.5;"/><line style="stroke:#FFFFFF;stroke-width:1.5;" x1="305.1196" x2="411.5762" y1="128.3359" y2="128.3359"/><path d="M356.3479,128.3359 L356.3479,125.3359 L362.3479,128.3359 L356.3479,131.3359 L356.3479,128.3359" fill="#FFFFFF"/><path d="M423.5762,116.3359 C423.5762,125.3359 420.5762,128.3359 411.5762,128.3359" fill="none" style="stroke:#FFFFFF;stroke-width:1.5;"/><rect fill="#0B58A8" height="27.0146" rx="5" ry="5" style="stroke:#FFFFFF;stroke-width:1.5;" width="44.3096" x="213.1333" y="197.6426"/><text fill="#FFFFFF" font-family="Verdana" font-size="14" lengthAdjust="spacing" textLength="34.3096" x="218.1333" y="216.7178">Float</text><path d="M59,244.6572 L59,270.4565 A0,0 0 0 0 59,270.4565 L411.5762,270.4565 A0,0 0 0 0 411.5762,270.4565 L411.5762,254.6572 L401.5762,244.6572 L239.2881,244.6572 L235.2881,224.6572 L231.2881,244.6572 L59,244.6572 A0,0 0 0 0 59,244.6572" fill="#0B58A8" style="stroke:#FFFFFF;stroke-width:1;"/><path d="M401.5762,244.6572 L401.5762,254.6572 L411.5762,254.6572 L401.5762,244.6572" fill="#0B58A8" style="stroke:#FFFFFF;stroke-width:1;"/><text fill="#FFFFFF" font-family="Verdana" font-size="13" lengthAdjust="spacing" textLength="322.4355" x="69.5703" y="262.7271">Allow zero digits after literal dot in fractional part</text><line style="stroke:#FFFFFF;stroke-width:1.5;" x1="59" x2="213.1333" y1="211.1499" y2="211.1499"/><path d="M134.0667,211.1499 L134.0667,208.1499 L140.0667,211.1499 L134.0667,214.1499 L134.0667,211.1499" fill="#FFFFFF"/><line style="stroke:#FFFFFF;stroke-width:1.5;" x1="257.4429" x2="411.5762" y1="211.1499" y2="211.1499"/><path d="M332.5095,211.1499 L332.5095,208.1499 L338.5095,211.1499 L332.5095,214.1499 L332.5095,211.1499" fill="#FFFFFF"/><path d="M47,199.1499 C47,208.1499 50,211.1499 59,211.1499" fill="none" style="stroke:#FFFFFF;stroke-width:1.5;"/><line style="stroke:#FFFFFF;stroke-width:1.5;" x1="411.5762" x2="411.5762" y1="211.1499" y2="211.1499"/><path d="M423.5762,199.1499 C423.5762,208.1499 420.5762,211.1499 411.5762,211.1499" fill="none" style="stroke:#FFFFFF;stroke-width:1.5;"/><rect fill="#0B58A8" height="27.0146" rx="5" ry="5" style="stroke:#FFFFFF;stroke-width:1.5;" width="45.998" x="98.2249" y="280.4565"/><text fill="#FFFFFF" font-family="Verdana" font-size="14" lengthAdjust="spacing" textLength="35.998" x="103.2249" y="299.5317">Ratio</text><path d="M59,327.4712 L59,353.2705 A0,0 0 0 0 59,353.2705 L183.4478,353.2705 A0,0 0 0 0 183.4478,353.2705 L183.4478,337.4712 L173.4478,327.4712 L125.2239,327.4712 L121.2239,307.4712 L117.2239,327.4712 L59,327.4712 A0,0 0 0 0 59,327.4712" fill="#0B58A8" style="stroke:#FFFFFF;stroke-width:1;"/><path d="M173.4478,327.4712 L173.4478,337.4712 L183.4478,337.4712 L173.4478,327.4712" fill="#0B58A8" style="stroke:#FFFFFF;stroke-width:1;"/><text fill="#FFFFFF" font-family="Verdana" font-size="13" lengthAdjust="spacing" textLength="94.3071" x="69.5703" y="345.541">Rational ratios</text><line style="stroke:#FFFFFF;stroke-width:1.5;" x1="59" x2="98.2249" y1="293.9639" y2="293.9639"/><path d="M76.6124,293.9639 L76.6124,290.9639 L82.6124,293.9639 L76.6124,296.9639 L76.6124,293.9639" fill="#FFFFFF"/><line style="stroke:#FFFFFF;stroke-width:1.5;" x1="144.2229" x2="183.4478" y1="293.9639" y2="293.9639"/><path d="M161.8353,293.9639 L161.8353,290.9639 L167.8353,293.9639 L161.8353,296.9639 L161.8353,293.9639" fill="#FFFFFF"/><path d="M47,281.9639 C47,290.9639 50,293.9639 59,293.9639" fill="none" style="stroke:#FFFFFF;stroke-width:1.5;"/><line style="stroke:#FFFFFF;stroke-width:1.5;" x1="183.4478" x2="411.5762" y1="293.9639" y2="293.9639"/><path d="M295.512,293.9639 L295.512,290.9639 L301.512,293.9639 L295.512,296.9639 L295.512,293.9639" fill="#FFFFFF"/><path d="M423.5762,281.9639 C423.5762,290.9639 420.5762,293.9639 411.5762,293.9639" fill="none" style="stroke:#FFFFFF;stroke-width:1.5;"/><rect fill="#0B58A8" height="27.0146" rx="5" ry="5" style="stroke:#FFFFFF;stroke-width:1.5;" width="61.6455" x="193.0808" y="363.2705"/><text fill="#FFFFFF" font-family="Verdana" font-size="14" lengthAdjust="spacing" textLength="51.6455" x="198.0808" y="382.3457">Integer</text><path d="M59,410.2852 L59,436.0845 A0,0 0 0 0 59,436.0845 L388.8071,436.0845 A0,0 0 0 0 388.8071,436.0845 L388.8071,420.2852 L378.8071,410.2852 L227.9036,410.2852 L223.9036,390.2852 L219.9036,410.2852 L59,410.2852 A0,0 0 0 0 59,410.2852" fill="#0B58A8" style="stroke:#FFFFFF;stroke-width:1;"/><path d="M378.8071,410.2852 L378.8071,420.2852 L388.8071,420.2852 L378.8071,410.2852" fill="#0B58A8" style="stroke:#FFFFFF;stroke-width:1;"/><text fill="#FFFFFF" font-family="Verdana" font-size="13" lengthAdjust="spacing" textLength="299.6665" x="69.5703" y="428.355">Additional integer forms and minor deviations</text><line style="stroke:#FFFFFF;stroke-width:1.5;" x1="59" x2="193.0808" y1="376.7778" y2="376.7778"/><path d="M124.0404,376.7778 L124.0404,373.7778 L130.0404,376.7778 L124.0404,379.7778 L124.0404,376.7778" fill="#FFFFFF"/><line style="stroke:#FFFFFF;stroke-width:1.5;" x1="254.7263" x2="388.8071" y1="376.7778" y2="376.7778"/><path d="M319.7667,376.7778 L319.7667,373.7778 L325.7667,376.7778 L319.7667,379.7778 L319.7667,376.7778" fill="#FFFFFF"/><path d="M47,364.7778 C47,373.7778 50,376.7778 59,376.7778" fill="none" style="stroke:#FFFFFF;stroke-width:1.5;"/><line style="stroke:#FFFFFF;stroke-width:1.5;" x1="388.8071" x2="411.5762" y1="376.7778" y2="376.7778"/><path d="M423.5762,364.7778 C423.5762,373.7778 420.5762,376.7778 411.5762,376.7778" fill="none" style="stroke:#FFFFFF;stroke-width:1.5;"/><rect fill="#0B58A8" height="27.0146" rx="5" ry="5" style="stroke:#FFFFFF;stroke-width:1.5;" width="34.4453" x="59" y="446.0845"/><text fill="#FFFFFF" font-family="Verdana" font-size="14" lengthAdjust="spacing" textLength="24.4453" x="64" y="465.1597">List</text><path d="M47,447.5918 C47,456.5918 50,459.5918 59,459.5918" fill="none" style="stroke:#FFFFFF;stroke-width:1.5;"/><line style="stroke:#FFFFFF;stroke-width:1.5;" x1="93.4453" x2="411.5762" y1="459.5918" y2="459.5918"/><path d="M250.5107,459.5918 L250.5107,456.5918 L256.5107,459.5918 L250.5107,462.5918 L250.5107,459.5918" fill="#FFFFFF"/><path d="M423.5762,447.5918 C423.5762,456.5918 420.5762,459.5918 411.5762,459.5918" fill="none" style="stroke:#FFFFFF;stroke-width:1.5;"/><rect fill="#0B58A8" height="27.0146" rx="5" ry="5" style="stroke:#FFFFFF;stroke-width:1.5;" width="55.1924" x="59" y="483.0991"/><text fill="#FFFFFF" font-family="Verdana" font-size="14" lengthAdjust="spacing" textLength="45.1924" x="64" y="502.1743">Vector</text><path d="M47,484.6064 C47,493.6064 50,496.6064 59,496.6064" fill="none" style="stroke:#FFFFFF;stroke-width:1.5;"/><line style="stroke:#FFFFFF;stroke-width:1.5;" x1="114.1924" x2="411.5762" y1="496.6064" y2="496.6064"/><path d="M260.8843,496.6064 L260.8843,493.6064 L266.8843,496.6064 L260.8843,499.6064 L260.8843,496.6064" fill="#FFFFFF"/><path d="M423.5762,484.6064 C423.5762,493.6064 420.5762,496.6064 411.5762,496.6064" fill="none" style="stroke:#FFFFFF;stroke-width:1.5;"/><rect fill="#0B58A8" height="27.0146" rx="5" ry="5" style="stroke:#FFFFFF;stroke-width:1.5;" width="38.9297" x="185.3481" y="520.1138"/><text fill="#FFFFFF" font-family="Verdana" font-size="14" lengthAdjust="spacing" textLength="28.9297" x="190.3481" y="539.189">Map</text><path d="M59,567.1284 L59,592.9277 A0,0 0 0 0 59,592.9277 L350.626,592.9277 A0,0 0 0 0 350.626,592.9277 L350.626,577.1284 L340.626,567.1284 L208.813,567.1284 L204.813,547.1284 L200.813,567.1284 L59,567.1284 A0,0 0 0 0 59,567.1284" fill="#0B58A8" style="stroke:#FFFFFF;stroke-width:1;"/><path d="M340.626,567.1284 L340.626,577.1284 L350.626,577.1284 L340.626,567.1284" fill="#0B58A8" style="stroke:#FFFFFF;stroke-width:1;"/><text fill="#FFFFFF" font-family="Verdana" font-size="13" lengthAdjust="spacing" textLength="261.4854" x="69.5703" y="585.1982">Additional syntax for namespaced maps</text><line style="stroke:#FFFFFF;stroke-width:1.5;" x1="59" x2="185.3481" y1="533.6211" y2="533.6211"/><path d="M120.1741,533.6211 L120.1741,530.6211 L126.1741,533.6211 L120.1741,536.6211 L120.1741,533.6211" fill="#FFFFFF"/><line style="stroke:#FFFFFF;stroke-width:1.5;" x1="224.2778" x2="350.626" y1="533.6211" y2="533.6211"/><path d="M285.4519,533.6211 L285.4519,530.6211 L291.4519,533.6211 L285.4519,536.6211 L285.4519,533.6211" fill="#FFFFFF"/><path d="M47,521.6211 C47,530.6211 50,533.6211 59,533.6211" fill="none" style="stroke:#FFFFFF;stroke-width:1.5;"/><line style="stroke:#FFFFFF;stroke-width:1.5;" x1="350.626" x2="411.5762" y1="533.6211" y2="533.6211"/><path d="M379.1011,533.6211 L379.1011,530.6211 L385.1011,533.6211 L379.1011,536.6211 L379.1011,533.6211" fill="#FFFFFF"/><path d="M423.5762,521.6211 C423.5762,530.6211 420.5762,533.6211 411.5762,533.6211" fill="none" style="stroke:#FFFFFF;stroke-width:1.5;"/><rect fill="#0B58A8" height="27.0146" rx="5" ry="5" style="stroke:#FFFFFF;stroke-width:1.5;" width="33.4268" x="59" y="602.9277"/><text fill="#FFFFFF" font-family="Verdana" font-size="14" lengthAdjust="spacing" textLength="23.4268" x="64" y="622.0029">Set</text><path d="M47,604.4351 C47,613.4351 50,616.4351 59,616.4351" fill="none" style="stroke:#FFFFFF;stroke-width:1.5;"/><line style="stroke:#FFFFFF;stroke-width:1.5;" x1="92.4268" x2="411.5762" y1="616.4351" y2="616.4351"/><path d="M250.0015,616.4351 L250.0015,613.4351 L256.0015,616.4351 L250.0015,619.4351 L250.0015,616.4351" fill="#FFFFFF"/><path d="M423.5762,604.4351 C423.5762,613.4351 420.5762,616.4351 411.5762,616.4351" fill="none" style="stroke:#FFFFFF;stroke-width:1.5;"/><rect fill="#0B58A8" height="27.0146" rx="5" ry="5" style="stroke:#FFFFFF;stroke-width:1.5;" width="73.6699" x="127.6514" y="639.9424"/><text fill="#FFFFFF" font-family="Verdana" font-size="14" lengthAdjust="spacing" textLength="63.6699" x="132.6514" y="659.0176">Symbolic</text><path d="M59,686.957 L59,712.7563 A0,0 0 0 0 59,712.7563 L269.9727,712.7563 A0,0 0 0 0 269.9727,712.7563 L269.9727,696.957 L259.9727,686.957 L168.4863,686.957 L164.4863,666.957 L160.4863,686.957 L59,686.957 A0,0 0 0 0 59,686.957" fill="#0B58A8" style="stroke:#FFFFFF;stroke-width:1;"/><path d="M259.9727,686.957 L259.9727,696.957 L269.9727,696.957 L259.9727,686.957" fill="#0B58A8" style="stroke:#FFFFFF;stroke-width:1;"/><text fill="#FFFFFF" font-family="Verdana" font-size="13" lengthAdjust="spacing" textLength="180.832" x="69.5703" y="705.0269">##Inf, ##-Inf, and ##NaN</text><line style="stroke:#FFFFFF;stroke-width:1.5;" x1="59" x2="127.6514" y1="653.4497" y2="653.4497"/><path d="M91.3257,653.4497 L91.3257,650.4497 L97.3257,653.4497 L91.3257,656.4497 L91.3257,653.4497" fill="#FFFFFF"/><line style="stroke:#FFFFFF;stroke-width:1.5;" x1="201.3213" x2="269.9727" y1="653.4497" y2="653.4497"/><path d="M233.647,653.4497 L233.647,650.4497 L239.647,653.4497 L233.647,656.4497 L233.647,653.4497" fill="#FFFFFF"/><path d="M47,641.4497 C47,650.4497 50,653.4497 59,653.4497" fill="none" style="stroke:#FFFFFF;stroke-width:1.5;"/><line style="stroke:#FFFFFF;stroke-width:1.5;" x1="269.9727" x2="411.5762" y1="653.4497" y2="653.4497"/><path d="M338.7744,653.4497 L338.7744,650.4497 L344.7744,653.4497 L338.7744,656.4497 L338.7744,653.4497" fill="#FFFFFF"/><path d="M423.5762,641.4497 C423.5762,650.4497 420.5762,653.4497 411.5762,653.4497" fill="none" style="stroke:#FFFFFF;stroke-width:1.5;"/><rect fill="#0B58A8" height="27.0146" rx="5" ry="5" style="stroke:#FFFFFF;stroke-width:1.5;" width="118.9102" x="59" y="722.7563"/><text fill="#FFFFFF" font-family="Verdana" font-size="14" lengthAdjust="spacing" textLength="108.9102" x="64" y="741.8315">TaggedElement</text><path d="M47,724.2637 C47,733.2637 50,736.2637 59,736.2637" fill="none" style="stroke:#FFFFFF;stroke-width:1.5;"/><line style="stroke:#FFFFFF;stroke-width:1.5;" x1="177.9102" x2="411.5762" y1="736.2637" y2="736.2637"/><path d="M292.7432,736.2637 L292.7432,733.2637 L298.7432,736.2637 L292.7432,739.2637 L292.7432,736.2637" fill="#FFFFFF"/><path d="M423.5762,724.2637 C423.5762,733.2637 420.5762,736.2637 411.5762,736.2637" fill="none" style="stroke:#FFFFFF;stroke-width:1.5;"/><rect fill="#0B58A8" height="27.0146" rx="5" ry="5" style="stroke:#FFFFFF;stroke-width:1.5;" width="130.6475" x="59" y="759.771"/><text fill="#FFFFFF" font-family="Verdana" font-size="14" lengthAdjust="spacing" textLength="120.6475" x="64" y="778.8462">DiscardSequence</text><path d="M47,761.2783 C47,770.2783 50,773.2783 59,773.2783" fill="none" style="stroke:#FFFFFF;stroke-width:1.5;"/><line style="stroke:#FFFFFF;stroke-width:1.5;" x1="189.6475" x2="411.5762" y1="773.2783" y2="773.2783"/><path d="M298.6118,773.2783 L298.6118,770.2783 L304.6118,773.2783 L298.6118,776.2783 L298.6118,773.2783" fill="#FFFFFF"/><path d="M423.5762,761.2783 C423.5762,770.2783 420.5762,773.2783 411.5762,773.2783" fill="none" style="stroke:#FFFFFF;stroke-width:1.5;"/><rect fill="#0B58A8" height="27.0146" rx="5" ry="5" style="stroke:#FFFFFF;stroke-width:1.5;" width="143.4443" x="129.0093" y="796.7856"/><text fill="#FFFFFF" font-family="Verdana" font-size="14" lengthAdjust="spacing" textLength="133.4443" x="134.0093" y="815.8608">MetadataSequence</text><path d="M59,843.8003 L59,869.5996 A0,0 0 0 0 59,869.5996 L342.4629,869.5996 A0,0 0 0 0 342.4629,869.5996 L342.4629,853.8003 L332.4629,843.8003 L204.7314,843.8003 L200.7314,823.8003 L196.7314,843.8003 L59,843.8003 A0,0 0 0 0 59,843.8003" fill="#0B58A8" style="stroke:#FFFFFF;stroke-width:1;"/><path d="M332.4629,843.8003 L332.4629,853.8003 L342.4629,853.8003 L332.4629,843.8003" fill="#0B58A8" style="stroke:#FFFFFF;stroke-width:1;"/><text fill="#FFFFFF" font-family="Verdana" font-size="13" lengthAdjust="spacing" textLength="253.3223" x="69.5703" y="861.8701">Metadata literal for some EdnElements</text><line style="stroke:#FFFFFF;stroke-width:1.5;" x1="59" x2="129.0093" y1="810.293" y2="810.293"/><path d="M92.0046,810.293 L92.0046,807.293 L98.0046,810.293 L92.0046,813.293 L92.0046,810.293" fill="#FFFFFF"/><line style="stroke:#FFFFFF;stroke-width:1.5;" x1="272.4536" x2="342.4629" y1="810.293" y2="810.293"/><path d="M305.4583,810.293 L305.4583,807.293 L311.4583,810.293 L305.4583,813.293 L305.4583,810.293" fill="#FFFFFF"/><path d="M47,798.293 C47,807.293 50,810.293 59,810.293" fill="none" style="stroke:#FFFFFF;stroke-width:1.5;"/><line style="stroke:#FFFFFF;stroke-width:1.5;" x1="342.4629" x2="411.5762" y1="810.293" y2="810.293"/><path d="M375.0195,810.293 L375.0195,807.293 L381.0195,810.293 L375.0195,813.293 L375.0195,810.293" fill="#FFFFFF"/><path d="M423.5762,798.293 C423.5762,807.293 420.5762,810.293 411.5762,810.293" fill="none" style="stroke:#FFFFFF;stroke-width:1.5;"/><rect fill="#0B58A8" height="27.0146" rx="5" ry="5" style="stroke:#FFFFFF;stroke-width:1.5;" width="62.5342" x="161.3552" y="879.5996"/><text fill="#FFFFFF" font-family="Verdana" font-size="14" lengthAdjust="spacing" textLength="52.5342" x="166.3552" y="898.6748">Symbol</text><path d="M59,926.6143 L59,952.4136 A0,0 0 0 0 59,952.4136 L326.2446,952.4136 A0,0 0 0 0 326.2446,952.4136 L326.2446,936.6143 L316.2446,926.6143 L196.6223,926.6143 L192.6223,906.6143 L188.6223,926.6143 L59,926.6143 A0,0 0 0 0 59,926.6143" fill="#0B58A8" style="stroke:#FFFFFF;stroke-width:1;"/><path d="M316.2446,926.6143 L316.2446,936.6143 L326.2446,936.6143 L316.2446,926.6143" fill="#0B58A8" style="stroke:#FFFFFF;stroke-width:1;"/><text fill="#FFFFFF" font-family="Verdana" font-size="13" lengthAdjust="spacing" textLength="237.104" x="69.5703" y="944.6841">Many small additions and deviations</text><line style="stroke:#FFFFFF;stroke-width:1.5;" x1="59" x2="161.3552" y1="893.1069" y2="893.1069"/><path d="M108.1776,893.1069 L108.1776,890.1069 L114.1776,893.1069 L108.1776,896.1069 L108.1776,893.1069" fill="#FFFFFF"/><line style="stroke:#FFFFFF;stroke-width:1.5;" x1="223.8894" x2="326.2446" y1="893.1069" y2="893.1069"/><path d="M273.067,893.1069 L273.067,890.1069 L279.067,893.1069 L273.067,896.1069 L273.067,893.1069" fill="#FFFFFF"/><path d="M47,881.1069 C47,890.1069 50,893.1069 59,893.1069" fill="none" style="stroke:#FFFFFF;stroke-width:1.5;"/><line style="stroke:#FFFFFF;stroke-width:1.5;" x1="326.2446" x2="411.5762" y1="893.1069" y2="893.1069"/><path d="M366.9104,893.1069 L366.9104,890.1069 L372.9104,893.1069 L366.9104,896.1069 L366.9104,893.1069" fill="#FFFFFF"/><path d="M423.5762,881.1069 C423.5762,890.1069 420.5762,893.1069 411.5762,893.1069" fill="none" style="stroke:#FFFFFF;stroke-width:1.5;"/><rect fill="#0B58A8" height="27.0146" rx="5" ry="5" style="stroke:#FFFFFF;stroke-width:1.5;" width="28.1563" x="59" y="962.4136"/><text fill="#FFFFFF" font-family="Verdana" font-size="14" lengthAdjust="spacing" textLength="18.1563" x="64" y="981.4888">Nil</text><path d="M47,963.9209 C47,972.9209 50,975.9209 59,975.9209" fill="none" style="stroke:#FFFFFF;stroke-width:1.5;"/><line style="stroke:#FFFFFF;stroke-width:1.5;" x1="87.1563" x2="411.5762" y1="975.9209" y2="975.9209"/><path d="M247.3662,975.9209 L247.3662,972.9209 L253.3662,975.9209 L247.3662,978.9209 L247.3662,975.9209" fill="#FFFFFF"/><path d="M423.5762,963.9209 C423.5762,972.9209 420.5762,975.9209 411.5762,975.9209" fill="none" style="stroke:#FFFFFF;stroke-width:1.5;"/><rect fill="#0B58A8" height="27.0146" rx="5" ry="5" style="stroke:#FFFFFF;stroke-width:1.5;" width="66.041" x="59" y="999.4282"/><text fill="#FFFFFF" font-family="Verdana" font-size="14" lengthAdjust="spacing" textLength="56.041" x="64" y="1018.5034">Boolean</text><path d="M47,1000.9355 C47,1009.9355 50,1012.9355 59,1012.9355" fill="none" style="stroke:#FFFFFF;stroke-width:1.5;"/><line style="stroke:#FFFFFF;stroke-width:1.5;" x1="125.041" x2="411.5762" y1="1012.9355" y2="1012.9355"/><path d="M266.3086,1012.9355 L266.3086,1009.9355 L272.3086,1012.9355 L266.3086,1015.9355 L266.3086,1012.9355" fill="#FFFFFF"/><path d="M423.5762,1000.9355 C423.5762,1009.9355 420.5762,1012.9355 411.5762,1012.9355" fill="none" style="stroke:#FFFFFF;stroke-width:1.5;"/><rect fill="#0B58A8" height="27.0146" rx="5" ry="5" style="stroke:#FFFFFF;stroke-width:1.5;" width="70.9766" x="96.7615" y="1036.4429"/><text fill="#FFFFFF" font-family="Verdana" font-size="14" lengthAdjust="spacing" textLength="60.9766" x="101.7615" y="1055.5181">Keyword</text><path d="M59,1083.4575 L59,1109.2568 A0,0 0 0 0 59,1109.2568 L205.4995,1109.2568 A0,0 0 0 0 205.4995,1109.2568 L205.4995,1093.4575 L195.4995,1083.4575 L136.2498,1083.4575 L132.2498,1063.4575 L128.2498,1083.4575 L59,1083.4575 A0,0 0 0 0 59,1083.4575" fill="#0B58A8" style="stroke:#FFFFFF;stroke-width:1;"/><path d="M195.4995,1083.4575 L195.4995,1093.4575 L205.4995,1093.4575 L195.4995,1083.4575" fill="#0B58A8" style="stroke:#FFFFFF;stroke-width:1;"/><text fill="#FFFFFF" font-family="Verdana" font-size="13" lengthAdjust="spacing" textLength="116.3589" x="69.5703" y="1101.5273">Same as Symbols</text><line style="stroke:#FFFFFF;stroke-width:1.5;" x1="59" x2="96.7615" y1="1049.9502" y2="1049.9502"/><path d="M75.8807,1049.9502 L75.8807,1046.9502 L81.8807,1049.9502 L75.8807,1052.9502 L75.8807,1049.9502" fill="#FFFFFF"/><line style="stroke:#FFFFFF;stroke-width:1.5;" x1="167.738" x2="205.4995" y1="1049.9502" y2="1049.9502"/><path d="M184.6188,1049.9502 L184.6188,1046.9502 L190.6188,1049.9502 L184.6188,1052.9502 L184.6188,1049.9502" fill="#FFFFFF"/><line style="stroke:#FFFFFF;stroke-width:1.5;" x1="205.4995" x2="411.5762" y1="1049.9502" y2="1049.9502"/><path d="M306.5378,1049.9502 L306.5378,1046.9502 L312.5378,1049.9502 L306.5378,1052.9502 L306.5378,1049.9502" fill="#FFFFFF"/><path d="M47,1037.9502 C47,1046.9502 50,1049.9502 59,1049.9502" fill="none" style="stroke:#FFFFFF;stroke-width:1.5;"/><line style="stroke:#FFFFFF;stroke-width:1.5;" x1="47" x2="47" y1="57.522" y2="1037.9502"/><path d="M35,45.522 C44,45.522 47,48.522 47,57.522" fill="none" style="stroke:#FFFFFF;stroke-width:1.5;"/><path d="M423.5762,1037.9502 C423.5762,1046.9502 420.5762,1049.9502 411.5762,1049.9502" fill="none" style="stroke:#FFFFFF;stroke-width:1.5;"/><line style="stroke:#FFFFFF;stroke-width:1.5;" x1="423.5762" x2="423.5762" y1="57.522" y2="1037.9502"/><path d="M423.5762,57.522 C423.5762,48.522 426.5762,45.522 435.5762,45.522" fill="none" style="stroke:#FFFFFF;stroke-width:1.5;"/><ellipse cx="9" cy="45.522" fill="none" rx="4" ry="4" style="stroke:#FFFFFF;stroke-width:2;"/><ellipse cx="465.5762" cy="45.522" fill="#FFFFFF" rx="4" ry="4" style="stroke:#FFFFFF;stroke-width:1;"/><line style="stroke:#FFFFFF;stroke-width:1.5;" x1="13" x2="35" y1="45.522" y2="45.522"/><line style="stroke:#FFFFFF;stroke-width:1.5;" x1="435.5762" x2="461.5762" y1="45.522" y2="45.522"/><path d="M446.5762,45.522 L446.5762,42.522 L452.5762,45.522 L446.5762,48.522 L446.5762,45.522" fill="#FFFFFF"/><!--SRC=[xLTRK-Cs57xthr275zWfsn2M3fjkEoI1T66JBBCEzFbWdIGgikJASY3Ryjzx93iNnycoGDedF1D2pkNJqNSkaazI2yRYZHe6FzWnniWW5YC8phWwa_HJMVOhQu_1G6JHiEBPVSEQd0ihj0B95CJ8MJGpIXaepdHaIJNK9cPlzWAsUFvXeJL2ZPP4PRZS4zC84cGf_fMXYh02qf4QB5i1aLBViQzeDEDY92n5CdHHIq5_2PDhouHYGnTdlbP2cwz0Vm7Iha1xcVCmxf-qudEkB8uM1AtkIHHgnqVEJooKDepZH7ZaAc9NfBOikSR8QbEMzI1XZ6taCfqg2_TkMP-bD868KXL3Kbqln9NbmcbyewM8bg5tTixLy4VwslVVRYCxEtteLz06C1eXBqgeh3eLb5h3moApA_j12nmipBHkqPbidaUtdLHJhIwgTCr-VFXbPdgWfYoDGKe61KbvDhwHXxwGPK5BQucWoi9FEBtJXfTM2y6rKrf4iehyIt22YllE2quMNPW_7r8xbVWRsHjDHVktTsn1T3ioEbEyhILHi5Dh7HqtZxskevKjf1t_pALz5yKr6WuAlF3ZD47J5UfsPd_QFAmVUHL9iOhYf8EnY6uLfYaxyB8Uc16radDxe0_NKUQ7HHufjQuZi_YrYb3pqWV_TqZRexvut72CmB_Bq0ehSMxd60Z5LsJr-YEUxkFOJJukhrJXV8NTzPa8NVOO9PqNm4hpMKmzk1Tn5lyXk1spmrgji30uHECg_hzOFaKQT433Ovkm7tugYZH8RuLo2yIiQOo-wsefHQAJClR2Q5CTBonESGYPj9NohLZqjDBvK9lRjdLc19ebswuOegIiqxa3D8Qdb8sK1XjVChcazXEHI43PIpSPw7Wwg2tfP-F8GRa2Qb6lezcqmN0CNDyva27859SqLocsQ9hbJ5gJOOayEfKcmavzaZOtUmlCQjRMXRD-9bGeVLXEZ5iEJ1v0rRjiUk-jPcmTbRHjOIA9V75lM06SxwMIDKOdBHTPojwN0ILGipx2otP8y4irBTrHRZAB6wZu7eoGDexQqhHz7aXdCHgVxBiqH9xkwyu7wfTRxru-99RjpYEjBYaRCCAIvRmeDsIgWc741EnBCOWhgZJ-CfJinjrtdWlHry-jbyytVrBqUNslgUA7qgHQCBwbYW_jZFwdDLSPOrRipVL8tvnLwv7QMqCwsnhI-TQG-Yz4egEa3IdcW8CdJfdNrxlNrxlNrxl_w_NkKjAzyghNPHDg7_TUTF2sNgiVlNst6rAHNsIArO_PmM6ZzhvHFsBjit30d7ulsFtziajKP8QOubGm_av207l11Ko0VScK5J4ssES4rSNffvc0dQc9C5hvv5nSznO6Fx_RRmbBnM0e57RT2ufxD7b4sbta6kngqDa_3hgWHXcTCms6Ag3BcR9cIhhmNm00]--></g></svg>