<svg xmlns="http://www.w3.org/2000/svg" xmlns:xlink="http://www.w3.org/1999/xlink" contentStyleType="text/css" data-diagram-type="EBNF" height="762px" preserveAspectRatio="none" style="width:376px;height:762px;background:#0B58A8;" version="1.1" viewBox="0 0 376 762" width="376px" zoomAndPan="magnify"><defs/><g><rect fill="#0B58A8" height="762" style="stroke:none;stroke-width:1;" width="376" x="0" y="0"/><text fill="#FFFFFF" font-family="Verdana" font-size="14" font-weight="bold" lengthAdjust="spacing" textLength="47.8311" x="5" y="19.0752">String</text><line style="stroke:#FFFFFF;stroke-width:1.5;" x1="35" x2="35" y1="45.522" y2="45.522"/><rect fill="none" height="27.0146" style="stroke:#FFFFFF;stroke-width:0.5;" width="16.4258" x="35" y="32.0146"/><text fill="#FFFFFF" font-family="Verdana" font-size="14" lengthAdjust="spacing" textLength="6.4258" x="40" y="51.0898">"</text><line style="stroke:#FFFFFF;stroke-width:1.5;" x1="51.4258" x2="71.4258" y1="45.522" y2="45.522"/><line style="stroke:#FFFFFF;stroke-width:1.5;" x1="71.4258" x2="270.4619" y1="45.522" y2="45.522"/><path d="M149.0402,45.522 L149.0402,42.522 L155.0402,45.522 L149.0402,48.522 L149.0402,45.522" fill="#FFFFFF"/><path d="M71.4258,45.522 C80.4258,45.522 83.4258,54.2756 83.4258,63.2756 C83.4258,72.2756 86.4258,81.0293 95.4258,81.0293" fill="none" style="stroke:#FFFFFF;stroke-width:1.5;"/><path d="M246.4619,81.0293 C255.4619,81.0293 258.4619,72.2756 258.4619,63.2756 C258.4619,54.2756 261.4619,45.522 270.4619,45.522" fill="none" style="stroke:#FFFFFF;stroke-width:1.5;"/><path d="M103.4258,73.0293 C103.4258,79.0293 105.4258,81.0293 111.4258,81.0293" fill="none" style="stroke:#FFFFFF;stroke-width:1.5;"/><line style="stroke:#FFFFFF;stroke-width:1.5;" x1="103.4258" x2="103.4258" y1="68.522" y2="73.0293"/><path d="M103.4258,68.522 C103.4258,62.522 105.4258,60.522 111.4258,60.522" fill="none" style="stroke:#FFFFFF;stroke-width:1.5;"/><line style="stroke:#FFFFFF;stroke-width:1.5;" x1="110.4258" x2="231.4619" y1="60.522" y2="60.522"/><path d="M181.0475,60.522 L181.0475,57.522 L175.0475,60.522 L181.0475,63.522 L181.0475,60.522" fill="#FFFFFF"/><path d="M238.4619,73.0293 C238.4619,79.0293 236.4619,81.0293 230.4619,81.0293" fill="none" style="stroke:#FFFFFF;stroke-width:1.5;"/><line style="stroke:#FFFFFF;stroke-width:1.5;" x1="238.4619" x2="238.4619" y1="68.522" y2="73.0293"/><path d="M230.4619,60.522 C236.4619,60.522 238.4619,62.522 238.4619,68.522" fill="none" style="stroke:#FFFFFF;stroke-width:1.5;"/><line style="stroke:#FFFFFF;stroke-width:1.5;" x1="95.4258" x2="110.4258" y1="81.0293" y2="81.0293"/><line style="stroke:#FFFFFF;stroke-width:1.5;" x1="231.4619" x2="246.4619" y1="81.0293" y2="81.0293"/><rect fill="#0B58A8" height="27.0146" rx="5" ry="5" style="stroke:#FFFFFF;stroke-width:1.5;" width="121.0361" x="110.4258" y="67.522"/><text fill="#FFFFFF" font-family="Verdana" font-size="14" lengthAdjust="spacing" textLength="111.0361" x="115.4258" y="86.5972">StringCharacter</text><line style="stroke:#FFFFFF;stroke-width:1.5;" x1="270.4619" x2="290.4619" y1="45.522" y2="45.522"/><rect fill="none" height="27.0146" style="stroke:#FFFFFF;stroke-width:0.5;" width="16.4258" x="290.4619" y="32.0146"/><text fill="#FFFFFF" font-family="Verdana" font-size="14" lengthAdjust="spacing" textLength="6.4258" x="295.4619" y="51.0898">"</text><ellipse cx="9" cy="45.522" fill="none" rx="4" ry="4" style="stroke:#FFFFFF;stroke-width:2;"/><ellipse cx="336.8877" cy="45.522" fill="#FFFFFF" rx="4" ry="4" style="stroke:#FFFFFF;stroke-width:1;"/><line style="stroke:#FFFFFF;stroke-width:1.5;" x1="13" x2="35" y1="45.522" y2="45.522"/><line style="stroke:#FFFFFF;stroke-width:1.5;" x1="306.8877" x2="332.8877" y1="45.522" y2="45.522"/><path d="M317.8877,45.522 L317.8877,42.522 L323.8877,45.522 L317.8877,48.522 L317.8877,45.522" fill="#FFFFFF"/><text fill="#FFFFFF" font-family="Verdana" font-size="14" font-weight="bold" lengthAdjust="spacing" textLength="124.4688" x="5" y="123.6118">StringCharacter</text><rect fill="#0B58A8" height="27.0146" rx="5" ry="5" style="stroke:#FFFFFF;stroke-width:1.5;" width="116.4014" x="59" y="136.5513"/><text fill="#FFFFFF" font-family="Verdana" font-size="14" lengthAdjust="spacing" textLength="106.4014" x="64" y="155.6265">InputCharacter</text><line style="stroke:#FFFFFF;stroke-width:1.5;" x1="35" x2="59" y1="150.0586" y2="150.0586"/><line style="stroke:#FFFFFF;stroke-width:1.5;" x1="175.4014" x2="210.2363" y1="150.0586" y2="150.0586"/><rect fill="#0B58A8" height="27.0146" rx="5" ry="5" style="stroke:#FFFFFF;stroke-width:1.5;" width="127.2363" x="59" y="173.5659"/><text fill="#FFFFFF" font-family="Verdana" font-size="14" lengthAdjust="spacing" textLength="117.2363" x="64" y="192.6411">EscapeSequence</text><line style="stroke:#FFFFFF;stroke-width:1.5;" x1="186.2363" x2="186.2363" y1="187.0732" y2="187.0732"/><path d="M47,175.0732 C47,184.0732 50,187.0732 59,187.0732" fill="none" style="stroke:#FFFFFF;stroke-width:1.5;"/><line style="stroke:#FFFFFF;stroke-width:1.5;" x1="47" x2="47" y1="162.0586" y2="175.0732"/><path d="M35,150.0586 C44,150.0586 47,153.0586 47,162.0586" fill="none" style="stroke:#FFFFFF;stroke-width:1.5;"/><path d="M198.2363,175.0732 C198.2363,184.0732 195.2363,187.0732 186.2363,187.0732" fill="none" style="stroke:#FFFFFF;stroke-width:1.5;"/><line style="stroke:#FFFFFF;stroke-width:1.5;" x1="198.2363" x2="198.2363" y1="162.0586" y2="175.0732"/><path d="M198.2363,162.0586 C198.2363,153.0586 201.2363,150.0586 210.2363,150.0586" fill="none" style="stroke:#FFFFFF;stroke-width:1.5;"/><ellipse cx="9" cy="150.0586" fill="none" rx="4" ry="4" style="stroke:#FFFFFF;stroke-width:2;"/><ellipse cx="240.2363" cy="150.0586" fill="#FFFFFF" rx="4" ry="4" style="stroke:#FFFFFF;stroke-width:1;"/><line style="stroke:#FFFFFF;stroke-width:1.5;" x1="13" x2="35" y1="150.0586" y2="150.0586"/><line style="stroke:#FFFFFF;stroke-width:1.5;" x1="210.2363" x2="236.2363" y1="150.0586" y2="150.0586"/><path d="M221.2363,150.0586 L221.2363,147.0586 L227.2363,150.0586 L221.2363,153.0586 L221.2363,150.0586" fill="#FFFFFF"/><text fill="#FFFFFF" font-family="Verdana" font-size="14" font-weight="bold" lengthAdjust="spacing" textLength="120.3945" x="5" y="229.6558">InputCharacter</text><line style="stroke:#FFFFFF;stroke-width:1.5;" x1="35" x2="35" y1="256.1025" y2="256.1025"/><rect fill="none" height="27.0146" style="stroke:#FFFFFF;stroke-width:1;stroke-dasharray:5,5;" width="178.5879" x="35" y="242.5952"/><text fill="#FFFFFF" font-family="Verdana" font-size="14" lengthAdjust="spacing" textLength="158.7441" x="44.9219" y="261.6704">All Unicode Characters</text><line style="stroke:#FFFFFF;stroke-width:1.5;" x1="213.5879" x2="233.5879" y1="256.1025" y2="256.1025"/><text fill="#FFFFFF" font-family="Verdana" font-size="14" lengthAdjust="spacing" textLength="30.1191" x="236.5879" y="260.042">NOT</text><rect fill="none" height="27.0146" style="stroke:#FFFFFF;stroke-width:0.5;" width="16.3574" x="295.707" y="242.5952"/><text fill="#FFFFFF" font-family="Verdana" font-size="14" lengthAdjust="spacing" textLength="6.3574" x="300.707" y="261.6704">\</text><line style="stroke:#FFFFFF;stroke-width:1.5;" x1="271.707" x2="295.707" y1="256.1025" y2="256.1025"/><line style="stroke:#FFFFFF;stroke-width:1.5;" x1="312.0645" x2="336.1328" y1="256.1025" y2="256.1025"/><rect fill="none" height="27.0146" style="stroke:#FFFFFF;stroke-width:0.5;" width="16.4258" x="295.707" y="279.6099"/><text fill="#FFFFFF" font-family="Verdana" font-size="14" lengthAdjust="spacing" textLength="6.4258" x="300.707" y="298.6851">"</text><line style="stroke:#FFFFFF;stroke-width:1.5;" x1="312.1328" x2="312.1328" y1="293.1172" y2="293.1172"/><path d="M283.707,281.1172 C283.707,290.1172 286.707,293.1172 295.707,293.1172" fill="none" style="stroke:#FFFFFF;stroke-width:1.5;"/><line style="stroke:#FFFFFF;stroke-width:1.5;" x1="283.707" x2="283.707" y1="268.1025" y2="281.1172"/><path d="M271.707,256.1025 C280.707,256.1025 283.707,259.1025 283.707,268.1025" fill="none" style="stroke:#FFFFFF;stroke-width:1.5;"/><path d="M324.1328,281.1172 C324.1328,290.1172 321.1328,293.1172 312.1328,293.1172" fill="none" style="stroke:#FFFFFF;stroke-width:1.5;"/><line style="stroke:#FFFFFF;stroke-width:1.5;" x1="324.1328" x2="324.1328" y1="268.1025" y2="281.1172"/><path d="M324.1328,268.1025 C324.1328,259.1025 327.1328,256.1025 336.1328,256.1025" fill="none" style="stroke:#FFFFFF;stroke-width:1.5;"/><ellipse cx="9" cy="256.1025" fill="none" rx="4" ry="4" style="stroke:#FFFFFF;stroke-width:2;"/><ellipse cx="366.1328" cy="256.1025" fill="#FFFFFF" rx="4" ry="4" style="stroke:#FFFFFF;stroke-width:1;"/><line style="stroke:#FFFFFF;stroke-width:1.5;" x1="13" x2="35" y1="256.1025" y2="256.1025"/><line style="stroke:#FFFFFF;stroke-width:1.5;" x1="336.1328" x2="362.1328" y1="256.1025" y2="256.1025"/><path d="M347.1328,256.1025 L347.1328,253.1025 L353.1328,256.1025 L347.1328,259.1025 L347.1328,256.1025" fill="#FFFFFF"/><text fill="#FFFFFF" font-family="Verdana" font-size="14" font-weight="bold" lengthAdjust="spacing" textLength="130.3545" x="5" y="335.6997">EscapeSequence</text><line style="stroke:#FFFFFF;stroke-width:1.5;" x1="35" x2="35" y1="362.1465" y2="362.1465"/><rect fill="none" height="27.0146" style="stroke:#FFFFFF;stroke-width:0.5;" width="16.3574" x="35" y="348.6392"/><text fill="#FFFFFF" font-family="Verdana" font-size="14" lengthAdjust="spacing" textLength="6.3574" x="40" y="367.7144">\</text><line style="stroke:#FFFFFF;stroke-width:1.5;" x1="51.3574" x2="71.3574" y1="362.1465" y2="362.1465"/><rect fill="#0B58A8" height="27.0146" rx="5" ry="5" style="stroke:#FFFFFF;stroke-width:1.5;" width="121.1592" x="95.3574" y="348.6392"/><text fill="#FFFFFF" font-family="Verdana" font-size="14" lengthAdjust="spacing" textLength="111.1592" x="100.3574" y="367.7144">EssentialEscape</text><line style="stroke:#FFFFFF;stroke-width:1.5;" x1="71.3574" x2="95.3574" y1="362.1465" y2="362.1465"/><line style="stroke:#FFFFFF;stroke-width:1.5;" x1="216.5166" x2="240.5166" y1="362.1465" y2="362.1465"/><rect fill="#0B58A8" height="27.0146" rx="5" ry="5" style="stroke:#FFFFFF;stroke-width:1.5;" width="46.0801" x="95.3574" y="385.6538"/><text fill="#FFFFFF" font-family="Verdana" font-size="14" lengthAdjust="spacing" textLength="36.0801" x="100.3574" y="404.729">Octal</text><path d="M83.3574,387.1611 C83.3574,396.1611 86.3574,399.1611 95.3574,399.1611" fill="none" style="stroke:#FFFFFF;stroke-width:1.5;"/><line style="stroke:#FFFFFF;stroke-width:1.5;" x1="141.4375" x2="216.5166" y1="399.1611" y2="399.1611"/><path d="M176.9771,399.1611 L176.9771,396.1611 L182.9771,399.1611 L176.9771,402.1611 L176.9771,399.1611" fill="#FFFFFF"/><path d="M228.5166,387.1611 C228.5166,396.1611 225.5166,399.1611 216.5166,399.1611" fill="none" style="stroke:#FFFFFF;stroke-width:1.5;"/><rect fill="#0B58A8" height="27.0146" rx="5" ry="5" style="stroke:#FFFFFF;stroke-width:1.5;" width="114.7129" x="95.3574" y="422.6685"/><text fill="#FFFFFF" font-family="Verdana" font-size="14" lengthAdjust="spacing" textLength="104.7129" x="100.3574" y="441.7437">UnicodeEscape</text><line style="stroke:#FFFFFF;stroke-width:1.5;" x1="210.0703" x2="216.5166" y1="436.1758" y2="436.1758"/><path d="M83.3574,424.1758 C83.3574,433.1758 86.3574,436.1758 95.3574,436.1758" fill="none" style="stroke:#FFFFFF;stroke-width:1.5;"/><line style="stroke:#FFFFFF;stroke-width:1.5;" x1="83.3574" x2="83.3574" y1="374.1465" y2="424.1758"/><path d="M71.3574,362.1465 C80.3574,362.1465 83.3574,365.1465 83.3574,374.1465" fill="none" style="stroke:#FFFFFF;stroke-width:1.5;"/><path d="M228.5166,424.1758 C228.5166,433.1758 225.5166,436.1758 216.5166,436.1758" fill="none" style="stroke:#FFFFFF;stroke-width:1.5;"/><line style="stroke:#FFFFFF;stroke-width:1.5;" x1="228.5166" x2="228.5166" y1="374.1465" y2="424.1758"/><path d="M228.5166,374.1465 C228.5166,365.1465 231.5166,362.1465 240.5166,362.1465" fill="none" style="stroke:#FFFFFF;stroke-width:1.5;"/><ellipse cx="9" cy="362.1465" fill="none" rx="4" ry="4" style="stroke:#FFFFFF;stroke-width:2;"/><ellipse cx="270.5166" cy="362.1465" fill="#FFFFFF" rx="4" ry="4" style="stroke:#FFFFFF;stroke-width:1;"/><line style="stroke:#FFFFFF;stroke-width:1.5;" x1="13" x2="35" y1="362.1465" y2="362.1465"/><line style="stroke:#FFFFFF;stroke-width:1.5;" x1="240.5166" x2="266.5166" y1="362.1465" y2="362.1465"/><path d="M251.5166,362.1465 L251.5166,359.1465 L257.5166,362.1465 L251.5166,365.1465 L251.5166,362.1465" fill="#FFFFFF"/><text fill="#FFFFFF" font-family="Verdana" font-size="14" font-weight="bold" lengthAdjust="spacing" textLength="125.2891" x="5" y="478.7583">EssentialEscape</text><rect fill="none" height="27.0146" style="stroke:#FFFFFF;stroke-width:0.5;" width="15.5166" x="59" y="491.6978"/><text fill="#FFFFFF" font-family="Verdana" font-size="14" lengthAdjust="spacing" textLength="5.5166" x="64" y="510.7729">t</text><line style="stroke:#FFFFFF;stroke-width:1.5;" x1="35" x2="59" y1="505.2051" y2="505.2051"/><line style="stroke:#FFFFFF;stroke-width:1.5;" x1="74.5166" x2="101.8594" y1="505.2051" y2="505.2051"/><rect fill="none" height="27.0146" style="stroke:#FFFFFF;stroke-width:0.5;" width="15.9746" x="59" y="528.7124"/><text fill="#FFFFFF" font-family="Verdana" font-size="14" lengthAdjust="spacing" textLength="5.9746" x="64" y="547.7876">r</text><path d="M47,530.2197 C47,539.2197 50,542.2197 59,542.2197" fill="none" style="stroke:#FFFFFF;stroke-width:1.5;"/><line style="stroke:#FFFFFF;stroke-width:1.5;" x1="74.9746" x2="77.8594" y1="542.2197" y2="542.2197"/><path d="M89.8594,530.2197 C89.8594,539.2197 86.8594,542.2197 77.8594,542.2197" fill="none" style="stroke:#FFFFFF;stroke-width:1.5;"/><rect fill="none" height="27.0146" style="stroke:#FFFFFF;stroke-width:0.5;" width="18.8594" x="59" y="565.7271"/><text fill="#FFFFFF" font-family="Verdana" font-size="14" lengthAdjust="spacing" textLength="8.8594" x="64" y="584.8022">n</text><path d="M47,567.2344 C47,576.2344 50,579.2344 59,579.2344" fill="none" style="stroke:#FFFFFF;stroke-width:1.5;"/><line style="stroke:#FFFFFF;stroke-width:1.5;" x1="77.8594" x2="77.8594" y1="579.2344" y2="579.2344"/><path d="M89.8594,567.2344 C89.8594,576.2344 86.8594,579.2344 77.8594,579.2344" fill="none" style="stroke:#FFFFFF;stroke-width:1.5;"/><rect fill="none" height="27.0146" style="stroke:#FFFFFF;stroke-width:0.5;" width="18.7227" x="59" y="602.7417"/><text fill="#FFFFFF" font-family="Verdana" font-size="14" lengthAdjust="spacing" textLength="8.7227" x="64" y="621.8169">b</text><path d="M47,604.249 C47,613.249 50,616.249 59,616.249" fill="none" style="stroke:#FFFFFF;stroke-width:1.5;"/><line style="stroke:#FFFFFF;stroke-width:1.5;" x1="77.7227" x2="77.8594" y1="616.249" y2="616.249"/><path d="M89.8594,604.249 C89.8594,613.249 86.8594,616.249 77.8594,616.249" fill="none" style="stroke:#FFFFFF;stroke-width:1.5;"/><rect fill="none" height="27.0146" style="stroke:#FFFFFF;stroke-width:0.5;" width="14.9219" x="59" y="639.7563"/><text fill="#FFFFFF" font-family="Verdana" font-size="14" lengthAdjust="spacing" textLength="4.9219" x="64" y="658.8315">f</text><path d="M47,641.2637 C47,650.2637 50,653.2637 59,653.2637" fill="none" style="stroke:#FFFFFF;stroke-width:1.5;"/><line style="stroke:#FFFFFF;stroke-width:1.5;" x1="73.9219" x2="77.8594" y1="653.2637" y2="653.2637"/><path d="M89.8594,641.2637 C89.8594,650.2637 86.8594,653.2637 77.8594,653.2637" fill="none" style="stroke:#FFFFFF;stroke-width:1.5;"/><rect fill="none" height="27.0146" style="stroke:#FFFFFF;stroke-width:0.5;" width="16.3574" x="59" y="676.771"/><text fill="#FFFFFF" font-family="Verdana" font-size="14" lengthAdjust="spacing" textLength="6.3574" x="64" y="695.8462">\</text><path d="M47,678.2783 C47,687.2783 50,690.2783 59,690.2783" fill="none" style="stroke:#FFFFFF;stroke-width:1.5;"/><line style="stroke:#FFFFFF;stroke-width:1.5;" x1="75.3574" x2="77.8594" y1="690.2783" y2="690.2783"/><path d="M89.8594,678.2783 C89.8594,687.2783 86.8594,690.2783 77.8594,690.2783" fill="none" style="stroke:#FFFFFF;stroke-width:1.5;"/><rect fill="none" height="27.0146" style="stroke:#FFFFFF;stroke-width:0.5;" width="16.4258" x="59" y="713.7856"/><text fill="#FFFFFF" font-family="Verdana" font-size="14" lengthAdjust="spacing" textLength="6.4258" x="64" y="732.8608">"</text><line style="stroke:#FFFFFF;stroke-width:1.5;" x1="75.4258" x2="77.8594" y1="727.293" y2="727.293"/><path d="M47,715.293 C47,724.293 50,727.293 59,727.293" fill="none" style="stroke:#FFFFFF;stroke-width:1.5;"/><line style="stroke:#FFFFFF;stroke-width:1.5;" x1="47" x2="47" y1="517.2051" y2="715.293"/><path d="M35,505.2051 C44,505.2051 47,508.2051 47,517.2051" fill="none" style="stroke:#FFFFFF;stroke-width:1.5;"/><path d="M89.8594,715.293 C89.8594,724.293 86.8594,727.293 77.8594,727.293" fill="none" style="stroke:#FFFFFF;stroke-width:1.5;"/><line style="stroke:#FFFFFF;stroke-width:1.5;" x1="89.8594" x2="89.8594" y1="517.2051" y2="715.293"/><path d="M89.8594,517.2051 C89.8594,508.2051 92.8594,505.2051 101.8594,505.2051" fill="none" style="stroke:#FFFFFF;stroke-width:1.5;"/><ellipse cx="9" cy="505.2051" fill="none" rx="4" ry="4" style="stroke:#FFFFFF;stroke-width:2;"/><ellipse cx="131.8594" cy="505.2051" fill="#FFFFFF" rx="4" ry="4" style="stroke:#FFFFFF;stroke-width:1;"/><line style="stroke:#FFFFFF;stroke-width:1.5;" x1="13" x2="35" y1="505.2051" y2="505.2051"/><line style="stroke:#FFFFFF;stroke-width:1.5;" x1="101.8594" x2="127.8594" y1="505.2051" y2="505.2051"/><path d="M112.8594,505.2051 L112.8594,502.2051 L118.8594,505.2051 L112.8594,508.2051 L112.8594,505.2051" fill="#FFFFFF"/><!--SRC=[xLPDSo8t4BtFh-Wa1zjLwyt0sYalMIS6ZBDsmAOMx5no4JCDA0Xf8cdO9Gx_FIqnC0mVyTecjqmLShdxzPFqkjNIXR5CM-p9Vl2D7U8OWOtvW0L1nsek1t0E1zyUm1juXBcXFcIQHHOrpCZgV3ykiBdh7Avbajgb8O2rxszec8WbsC4_KvGHEf9Y277y35KXu5xoICK8IuyXnp4Smi7l1yJZLd3amjS8pxt_3U4Qng2qd8avWcBk8ii4_SseCtl6KWIVkucidqZxKVgnvyU-7mlBk40PUp63YrpO-VV1sAd0dqWBhPI5HozAZKMZWLQfZEjAA0tVXRNJi-gPzrqfQJFhbV-Mrbj6UNf07JF9lF7ZD47Tv7Aqm5zMtvLFlOkikCdYhDqXZqOIZO6IjxMO7d09Bcn6lrX5wPZ4o5PASbYkPFRVEaFehJC_zcbxbC2dWKDayLS1BRS2bpYdG8V_XL0kFn7fVaxTvEFgJ1kQhwcxFHCTbpteAH5dnD9LvMEct1S-JiU_yTWEuLqOPWYDVTIk6l-BwGqcT22isYljX- -p8WtCY4itmHYgMglFJIK4JrHIvCv1k-euHrnYdwN2RfJl1gAbf389Yp1UOkigrPpQI8vjyZuAoZfr7cPnCALi62Lul09fq_7Z4K-Oj6qMnwwPbS8L_w9LE2fNG3MbAKcxDjWPibXzTYHz9WokUEuDrj2okP9MfrWGBx9ymktK9sdtOQynlPwrRSlPtXCs99sj9iPDn_Hy0PlHHUWNZrgeTLhmrhcE1CPvWruZNEvb8si0drZCKmFlYuI2qM5zGfVzYE2dgbgwfNgfnHrIV0r7XpQEobAtVHd9LTuQdnsxqaIU7-lk1pel8nzUl2HMSTUHactA1XjW0RaioXsPsk3GVCBiQpb8Awgq-7KiQK_mwCKKj-gbzNBN-uDMFw_lBLKyAtIgNF4zLNp7BkH_tk4gSYoAlRgTwLzxrNQc-jwO6djZkjuRq-qhcUWggJE3SyBkCxlC_o_sLxxOsuAU2lUj9aneoUwfMtfR3ikdRqlXOJT5QWKJ24-WT5OfXvMJzr1lTC7vZuB3NzfDC7JRqIvYRkRN314S1JTimk1JIkiROmNk4fGtbxyk3D2G4wwLT8_iuEQXbGD-E3ckSKil54rBWOTMa3sDA8AsJuchm7ttwlWiQ38vIAbrL01bGFUjj7fQWSl6Fm00]--></g></svg>