<svg xmlns="http://www.w3.org/2000/svg" xmlns:xlink="http://www.w3.org/1999/xlink" contentStyleType="text/css" data-diagram-type="EBNF" height="693px" preserveAspectRatio="none" style="width:456px;height:693px;background:#0B58A8;" version="1.1" viewBox="0 0 456 693" width="456px" zoomAndPan="magnify"><defs/><g><rect fill="#0B58A8" height="693" style="stroke:none;stroke-width:1;" width="456" x="0" y="0"/><text fill="#FFFFFF" font-family="Verdana" font-size="14" font-weight="bold" lengthAdjust="spacing" textLength="47.8311" x="5" y="19.0752">String</text><line style="stroke:#FFFFFF;stroke-width:1.5;" x1="35" x2="35" y1="45.522" y2="45.522"/><rect fill="none" height="27.0146" style="stroke:#FFFFFF;stroke-width:0.5;" width="16.4258" x="35" y="32.0146"/><text fill="#FFFFFF" font-family="Verdana" font-size="14" lengthAdjust="spacing" textLength="6.4258" x="40" y="51.0898">"</text><line style="stroke:#FFFFFF;stroke-width:1.5;" x1="51.4258" x2="71.4258" y1="45.522" y2="45.522"/><line style="stroke:#FFFFFF;stroke-width:1.5;" x1="71.4258" x2="270.4619" y1="45.522" y2="45.522"/><path d="M149.0402,45.522 L149.0402,42.522 L155.0402,45.522 L149.0402,48.522 L149.0402,45.522" fill="#FFFFFF"/><path d="M71.4258,45.522 C80.4258,45.522 83.4258,54.2756 83.4258,63.2756 C83.4258,72.2756 86.4258,81.0293 95.4258,81.0293" fill="none" style="stroke:#FFFFFF;stroke-width:1.5;"/><path d="M246.4619,81.0293 C255.4619,81.0293 258.4619,72.2756 258.4619,63.2756 C258.4619,54.2756 261.4619,45.522 270.4619,45.522" fill="none" style="stroke:#FFFFFF;stroke-width:1.5;"/><path d="M103.4258,73.0293 C103.4258,79.0293 105.4258,81.0293 111.4258,81.0293" fill="none" style="stroke:#FFFFFF;stroke-width:1.5;"/><line style="stroke:#FFFFFF;stroke-width:1.5;" x1="103.4258" x2="103.4258" y1="68.522" y2="73.0293"/><path d="M103.4258,68.522 C103.4258,62.522 105.4258,60.522 111.4258,60.522" fill="none" style="stroke:#FFFFFF;stroke-width:1.5;"/><line style="stroke:#FFFFFF;stroke-width:1.5;" x1="110.4258" x2="231.4619" y1="60.522" y2="60.522"/><path d="M181.0475,60.522 L181.0475,57.522 L175.0475,60.522 L181.0475,63.522 L181.0475,60.522" fill="#FFFFFF"/><path d="M238.4619,73.0293 C238.4619,79.0293 236.4619,81.0293 230.4619,81.0293" fill="none" style="stroke:#FFFFFF;stroke-width:1.5;"/><line style="stroke:#FFFFFF;stroke-width:1.5;" x1="238.4619" x2="238.4619" y1="68.522" y2="73.0293"/><path d="M230.4619,60.522 C236.4619,60.522 238.4619,62.522 238.4619,68.522" fill="none" style="stroke:#FFFFFF;stroke-width:1.5;"/><line style="stroke:#FFFFFF;stroke-width:1.5;" x1="95.4258" x2="110.4258" y1="81.0293" y2="81.0293"/><line style="stroke:#FFFFFF;stroke-width:1.5;" x1="231.4619" x2="246.4619" y1="81.0293" y2="81.0293"/><rect fill="#0B58A8" height="27.0146" rx="5" ry="5" style="stroke:#FFFFFF;stroke-width:1.5;" width="121.0361" x="110.4258" y="67.522"/><text fill="#FFFFFF" font-family="Verdana" font-size="14" lengthAdjust="spacing" textLength="111.0361" x="115.4258" y="86.5972">StringCharacter</text><line style="stroke:#FFFFFF;stroke-width:1.5;" x1="270.4619" x2="290.4619" y1="45.522" y2="45.522"/><rect fill="none" height="27.0146" style="stroke:#FFFFFF;stroke-width:0.5;" width="16.4258" x="290.4619" y="32.0146"/><text fill="#FFFFFF" font-family="Verdana" font-size="14" lengthAdjust="spacing" textLength="6.4258" x="295.4619" y="51.0898">"</text><ellipse cx="9" cy="45.522" fill="none" rx="4" ry="4" style="stroke:#FFFFFF;stroke-width:2;"/><ellipse cx="336.8877" cy="45.522" fill="#FFFFFF" rx="4" ry="4" style="stroke:#FFFFFF;stroke-width:1;"/><line style="stroke:#FFFFFF;stroke-width:1.5;" x1="13" x2="35" y1="45.522" y2="45.522"/><line style="stroke:#FFFFFF;stroke-width:1.5;" x1="306.8877" x2="332.8877" y1="45.522" y2="45.522"/><path d="M317.8877,45.522 L317.8877,42.522 L323.8877,45.522 L317.8877,48.522 L317.8877,45.522" fill="#FFFFFF"/><text fill="#FFFFFF" font-family="Verdana" font-size="14" font-weight="bold" lengthAdjust="spacing" textLength="124.4688" x="5" y="123.6118">StringCharacter</text><rect fill="#0B58A8" height="27.0146" rx="5" ry="5" style="stroke:#FFFFFF;stroke-width:1.5;" width="116.4014" x="59" y="136.5513"/><text fill="#FFFFFF" font-family="Verdana" font-size="14" lengthAdjust="spacing" textLength="106.4014" x="64" y="155.6265">InputCharacter</text><line style="stroke:#FFFFFF;stroke-width:1.5;" x1="35" x2="59" y1="150.0586" y2="150.0586"/><line style="stroke:#FFFFFF;stroke-width:1.5;" x1="175.4014" x2="210.2363" y1="150.0586" y2="150.0586"/><rect fill="#0B58A8" height="27.0146" rx="5" ry="5" style="stroke:#FFFFFF;stroke-width:1.5;" width="127.2363" x="59" y="173.5659"/><text fill="#FFFFFF" font-family="Verdana" font-size="14" lengthAdjust="spacing" textLength="117.2363" x="64" y="192.6411">EscapeSequence</text><line style="stroke:#FFFFFF;stroke-width:1.5;" x1="186.2363" x2="186.2363" y1="187.0732" y2="187.0732"/><path d="M47,175.0732 C47,184.0732 50,187.0732 59,187.0732" fill="none" style="stroke:#FFFFFF;stroke-width:1.5;"/><line style="stroke:#FFFFFF;stroke-width:1.5;" x1="47" x2="47" y1="162.0586" y2="175.0732"/><path d="M35,150.0586 C44,150.0586 47,153.0586 47,162.0586" fill="none" style="stroke:#FFFFFF;stroke-width:1.5;"/><path d="M198.2363,175.0732 C198.2363,184.0732 195.2363,187.0732 186.2363,187.0732" fill="none" style="stroke:#FFFFFF;stroke-width:1.5;"/><line style="stroke:#FFFFFF;stroke-width:1.5;" x1="198.2363" x2="198.2363" y1="162.0586" y2="175.0732"/><path d="M198.2363,162.0586 C198.2363,153.0586 201.2363,150.0586 210.2363,150.0586" fill="none" style="stroke:#FFFFFF;stroke-width:1.5;"/><ellipse cx="9" cy="150.0586" fill="none" rx="4" ry="4" style="stroke:#FFFFFF;stroke-width:2;"/><ellipse cx="240.2363" cy="150.0586" fill="#FFFFFF" rx="4" ry="4" style="stroke:#FFFFFF;stroke-width:1;"/><line style="stroke:#FFFFFF;stroke-width:1.5;" x1="13" x2="35" y1="150.0586" y2="150.0586"/><line style="stroke:#FFFFFF;stroke-width:1.5;" x1="210.2363" x2="236.2363" y1="150.0586" y2="150.0586"/><path d="M221.2363,150.0586 L221.2363,147.0586 L227.2363,150.0586 L221.2363,153.0586 L221.2363,150.0586" fill="#FFFFFF"/><text fill="#FFFFFF" font-family="Verdana" font-size="14" font-weight="bold" lengthAdjust="spacing" textLength="120.3945" x="5" y="229.6558">InputCharacter</text><line style="stroke:#FFFFFF;stroke-width:1.5;" x1="35" x2="35" y1="256.1025" y2="256.1025"/><rect fill="none" height="27.0146" style="stroke:#FFFFFF;stroke-width:1;stroke-dasharray:5,5;" width="117.5498" x="35" y="242.5952"/><text fill="#FFFFFF" font-family="Verdana" font-size="14" lengthAdjust="spacing" textLength="97.7061" x="44.9219" y="261.6704">Any character</text><line style="stroke:#FFFFFF;stroke-width:1.5;" x1="152.5498" x2="172.5498" y1="256.1025" y2="256.1025"/><text fill="#FFFFFF" font-family="Verdana" font-size="14" lengthAdjust="spacing" textLength="30.1191" x="175.5498" y="260.042">NOT</text><rect fill="none" height="27.0146" style="stroke:#FFFFFF;stroke-width:0.5;" width="16.3574" x="234.6689" y="242.5952"/><text fill="#FFFFFF" font-family="Verdana" font-size="14" lengthAdjust="spacing" textLength="6.3574" x="239.6689" y="261.6704">\</text><line style="stroke:#FFFFFF;stroke-width:1.5;" x1="210.6689" x2="234.6689" y1="256.1025" y2="256.1025"/><line style="stroke:#FFFFFF;stroke-width:1.5;" x1="251.0264" x2="275.0947" y1="256.1025" y2="256.1025"/><rect fill="none" height="27.0146" style="stroke:#FFFFFF;stroke-width:0.5;" width="16.4258" x="234.6689" y="279.6099"/><text fill="#FFFFFF" font-family="Verdana" font-size="14" lengthAdjust="spacing" textLength="6.4258" x="239.6689" y="298.6851">"</text><line style="stroke:#FFFFFF;stroke-width:1.5;" x1="251.0947" x2="251.0947" y1="293.1172" y2="293.1172"/><path d="M222.6689,281.1172 C222.6689,290.1172 225.6689,293.1172 234.6689,293.1172" fill="none" style="stroke:#FFFFFF;stroke-width:1.5;"/><line style="stroke:#FFFFFF;stroke-width:1.5;" x1="222.6689" x2="222.6689" y1="268.1025" y2="281.1172"/><path d="M210.6689,256.1025 C219.6689,256.1025 222.6689,259.1025 222.6689,268.1025" fill="none" style="stroke:#FFFFFF;stroke-width:1.5;"/><path d="M263.0947,281.1172 C263.0947,290.1172 260.0947,293.1172 251.0947,293.1172" fill="none" style="stroke:#FFFFFF;stroke-width:1.5;"/><line style="stroke:#FFFFFF;stroke-width:1.5;" x1="263.0947" x2="263.0947" y1="268.1025" y2="281.1172"/><path d="M263.0947,268.1025 C263.0947,259.1025 266.0947,256.1025 275.0947,256.1025" fill="none" style="stroke:#FFFFFF;stroke-width:1.5;"/><ellipse cx="9" cy="256.1025" fill="none" rx="4" ry="4" style="stroke:#FFFFFF;stroke-width:2;"/><ellipse cx="305.0947" cy="256.1025" fill="#FFFFFF" rx="4" ry="4" style="stroke:#FFFFFF;stroke-width:1;"/><line style="stroke:#FFFFFF;stroke-width:1.5;" x1="13" x2="35" y1="256.1025" y2="256.1025"/><line style="stroke:#FFFFFF;stroke-width:1.5;" x1="275.0947" x2="301.0947" y1="256.1025" y2="256.1025"/><path d="M286.0947,256.1025 L286.0947,253.1025 L292.0947,256.1025 L286.0947,259.1025 L286.0947,256.1025" fill="#FFFFFF"/><text fill="#FFFFFF" font-family="Verdana" font-size="14" font-weight="bold" lengthAdjust="spacing" textLength="130.3545" x="5" y="335.6997">EscapeSequence</text><line style="stroke:#FFFFFF;stroke-width:1.5;" x1="35" x2="35" y1="362.1465" y2="362.1465"/><rect fill="none" height="27.0146" style="stroke:#FFFFFF;stroke-width:0.5;" width="16.3574" x="35" y="348.6392"/><text fill="#FFFFFF" font-family="Verdana" font-size="14" lengthAdjust="spacing" textLength="6.3574" x="40" y="367.7144">\</text><line style="stroke:#FFFFFF;stroke-width:1.5;" x1="51.3574" x2="71.3574" y1="362.1465" y2="362.1465"/><rect fill="none" height="27.0146" style="stroke:#FFFFFF;stroke-width:0.5;" width="16.3574" x="119.3574" y="348.6392"/><text fill="#FFFFFF" font-family="Verdana" font-size="14" lengthAdjust="spacing" textLength="6.3574" x="124.3574" y="367.7144">\</text><line style="stroke:#FFFFFF;stroke-width:1.5;" x1="95.3574" x2="119.3574" y1="362.1465" y2="362.1465"/><line style="stroke:#FFFFFF;stroke-width:1.5;" x1="135.7148" x2="162.2168" y1="362.1465" y2="362.1465"/><rect fill="none" height="27.0146" style="stroke:#FFFFFF;stroke-width:0.5;" width="16.4258" x="119.3574" y="385.6538"/><text fill="#FFFFFF" font-family="Verdana" font-size="14" lengthAdjust="spacing" textLength="6.4258" x="124.3574" y="404.729">"</text><path d="M107.3574,387.1611 C107.3574,396.1611 110.3574,399.1611 119.3574,399.1611" fill="none" style="stroke:#FFFFFF;stroke-width:1.5;"/><line style="stroke:#FFFFFF;stroke-width:1.5;" x1="135.7832" x2="138.2168" y1="399.1611" y2="399.1611"/><path d="M150.2168,387.1611 C150.2168,396.1611 147.2168,399.1611 138.2168,399.1611" fill="none" style="stroke:#FFFFFF;stroke-width:1.5;"/><rect fill="none" height="27.0146" style="stroke:#FFFFFF;stroke-width:0.5;" width="18.8594" x="119.3574" y="422.6685"/><text fill="#FFFFFF" font-family="Verdana" font-size="14" lengthAdjust="spacing" textLength="8.8594" x="124.3574" y="441.7437">n</text><path d="M107.3574,424.1758 C107.3574,433.1758 110.3574,436.1758 119.3574,436.1758" fill="none" style="stroke:#FFFFFF;stroke-width:1.5;"/><line style="stroke:#FFFFFF;stroke-width:1.5;" x1="138.2168" x2="138.2168" y1="436.1758" y2="436.1758"/><path d="M150.2168,424.1758 C150.2168,433.1758 147.2168,436.1758 138.2168,436.1758" fill="none" style="stroke:#FFFFFF;stroke-width:1.5;"/><rect fill="none" height="27.0146" style="stroke:#FFFFFF;stroke-width:0.5;" width="15.9746" x="119.3574" y="459.6831"/><text fill="#FFFFFF" font-family="Verdana" font-size="14" lengthAdjust="spacing" textLength="5.9746" x="124.3574" y="478.7583">r</text><path d="M107.3574,461.1904 C107.3574,470.1904 110.3574,473.1904 119.3574,473.1904" fill="none" style="stroke:#FFFFFF;stroke-width:1.5;"/><line style="stroke:#FFFFFF;stroke-width:1.5;" x1="135.332" x2="138.2168" y1="473.1904" y2="473.1904"/><path d="M150.2168,461.1904 C150.2168,470.1904 147.2168,473.1904 138.2168,473.1904" fill="none" style="stroke:#FFFFFF;stroke-width:1.5;"/><rect fill="none" height="27.0146" style="stroke:#FFFFFF;stroke-width:0.5;" width="15.5166" x="119.3574" y="496.6978"/><text fill="#FFFFFF" font-family="Verdana" font-size="14" lengthAdjust="spacing" textLength="5.5166" x="124.3574" y="515.7729">t</text><path d="M107.3574,498.2051 C107.3574,507.2051 110.3574,510.2051 119.3574,510.2051" fill="none" style="stroke:#FFFFFF;stroke-width:1.5;"/><line style="stroke:#FFFFFF;stroke-width:1.5;" x1="134.874" x2="138.2168" y1="510.2051" y2="510.2051"/><path d="M150.2168,498.2051 C150.2168,507.2051 147.2168,510.2051 138.2168,510.2051" fill="none" style="stroke:#FFFFFF;stroke-width:1.5;"/><rect fill="none" height="27.0146" style="stroke:#FFFFFF;stroke-width:0.5;" width="18.7227" x="119.3574" y="533.7124"/><text fill="#FFFFFF" font-family="Verdana" font-size="14" lengthAdjust="spacing" textLength="8.7227" x="124.3574" y="552.7876">b</text><path d="M107.3574,535.2197 C107.3574,544.2197 110.3574,547.2197 119.3574,547.2197" fill="none" style="stroke:#FFFFFF;stroke-width:1.5;"/><line style="stroke:#FFFFFF;stroke-width:1.5;" x1="138.0801" x2="138.2168" y1="547.2197" y2="547.2197"/><path d="M150.2168,535.2197 C150.2168,544.2197 147.2168,547.2197 138.2168,547.2197" fill="none" style="stroke:#FFFFFF;stroke-width:1.5;"/><rect fill="none" height="27.0146" style="stroke:#FFFFFF;stroke-width:0.5;" width="14.9219" x="119.3574" y="570.7271"/><text fill="#FFFFFF" font-family="Verdana" font-size="14" lengthAdjust="spacing" textLength="4.9219" x="124.3574" y="589.8022">f</text><line style="stroke:#FFFFFF;stroke-width:1.5;" x1="134.2793" x2="138.2168" y1="584.2344" y2="584.2344"/><path d="M107.3574,572.2344 C107.3574,581.2344 110.3574,584.2344 119.3574,584.2344" fill="none" style="stroke:#FFFFFF;stroke-width:1.5;"/><line style="stroke:#FFFFFF;stroke-width:1.5;" x1="107.3574" x2="107.3574" y1="374.1465" y2="572.2344"/><path d="M95.3574,362.1465 C104.3574,362.1465 107.3574,365.1465 107.3574,374.1465" fill="none" style="stroke:#FFFFFF;stroke-width:1.5;"/><path d="M150.2168,572.2344 C150.2168,581.2344 147.2168,584.2344 138.2168,584.2344" fill="none" style="stroke:#FFFFFF;stroke-width:1.5;"/><line style="stroke:#FFFFFF;stroke-width:1.5;" x1="150.2168" x2="150.2168" y1="374.1465" y2="572.2344"/><path d="M150.2168,374.1465 C150.2168,365.1465 153.2168,362.1465 162.2168,362.1465" fill="none" style="stroke:#FFFFFF;stroke-width:1.5;"/><line style="stroke:#FFFFFF;stroke-width:1.5;" x1="71.3574" x2="95.3574" y1="362.1465" y2="362.1465"/><line style="stroke:#FFFFFF;stroke-width:1.5;" x1="162.2168" x2="416.6045" y1="362.1465" y2="362.1465"/><rect fill="#0B58A8" height="27.0146" rx="5" ry="5" style="stroke:#FFFFFF;stroke-width:1.5;" width="114.7129" x="95.3574" y="607.7417"/><text fill="#FFFFFF" font-family="Verdana" font-size="14" lengthAdjust="spacing" textLength="104.7129" x="100.3574" y="626.8169">UnicodeEscape</text><path d="M83.3574,609.249 C83.3574,618.249 86.3574,621.249 95.3574,621.249" fill="none" style="stroke:#FFFFFF;stroke-width:1.5;"/><line style="stroke:#FFFFFF;stroke-width:1.5;" x1="210.0703" x2="392.6045" y1="621.249" y2="621.249"/><path d="M299.3374,621.249 L299.3374,618.249 L305.3374,621.249 L299.3374,624.249 L299.3374,621.249" fill="#FFFFFF"/><path d="M404.6045,609.249 C404.6045,618.249 401.6045,621.249 392.6045,621.249" fill="none" style="stroke:#FFFFFF;stroke-width:1.5;"/><line style="stroke:#FFFFFF;stroke-width:1.5;" x1="95.3574" x2="95.3574" y1="658.2637" y2="658.2637"/><rect fill="#0B58A8" height="27.0146" rx="5" ry="5" style="stroke:#FFFFFF;stroke-width:1.5;" width="99.667" x="95.3574" y="644.7563"/><text fill="#FFFFFF" font-family="Verdana" font-size="14" lengthAdjust="spacing" textLength="89.667" x="100.3574" y="663.8315">ZeroToThree</text><line style="stroke:#FFFFFF;stroke-width:1.5;" x1="195.0244" x2="215.0244" y1="658.2637" y2="658.2637"/><rect fill="#0B58A8" height="27.0146" rx="5" ry="5" style="stroke:#FFFFFF;stroke-width:1.5;" width="78.79" x="215.0244" y="644.7563"/><text fill="#FFFFFF" font-family="Verdana" font-size="14" lengthAdjust="spacing" textLength="68.79" x="220.0244" y="663.8315">OctalDigit</text><line style="stroke:#FFFFFF;stroke-width:1.5;" x1="293.8145" x2="313.8145" y1="658.2637" y2="658.2637"/><rect fill="#0B58A8" height="27.0146" rx="5" ry="5" style="stroke:#FFFFFF;stroke-width:1.5;" width="78.79" x="313.8145" y="644.7563"/><text fill="#FFFFFF" font-family="Verdana" font-size="14" lengthAdjust="spacing" textLength="68.79" x="318.8145" y="663.8315">OctalDigit</text><line style="stroke:#FFFFFF;stroke-width:1.5;" x1="392.6045" x2="392.6045" y1="658.2637" y2="658.2637"/><path d="M83.3574,646.2637 C83.3574,655.2637 86.3574,658.2637 95.3574,658.2637" fill="none" style="stroke:#FFFFFF;stroke-width:1.5;"/><line style="stroke:#FFFFFF;stroke-width:1.5;" x1="83.3574" x2="83.3574" y1="374.1465" y2="646.2637"/><path d="M71.3574,362.1465 C80.3574,362.1465 83.3574,365.1465 83.3574,374.1465" fill="none" style="stroke:#FFFFFF;stroke-width:1.5;"/><path d="M404.6045,646.2637 C404.6045,655.2637 401.6045,658.2637 392.6045,658.2637" fill="none" style="stroke:#FFFFFF;stroke-width:1.5;"/><line style="stroke:#FFFFFF;stroke-width:1.5;" x1="404.6045" x2="404.6045" y1="374.1465" y2="646.2637"/><path d="M404.6045,374.1465 C404.6045,365.1465 407.6045,362.1465 416.6045,362.1465" fill="none" style="stroke:#FFFFFF;stroke-width:1.5;"/><ellipse cx="9" cy="362.1465" fill="none" rx="4" ry="4" style="stroke:#FFFFFF;stroke-width:2;"/><ellipse cx="446.6045" cy="362.1465" fill="#FFFFFF" rx="4" ry="4" style="stroke:#FFFFFF;stroke-width:1;"/><line style="stroke:#FFFFFF;stroke-width:1.5;" x1="13" x2="35" y1="362.1465" y2="362.1465"/><line style="stroke:#FFFFFF;stroke-width:1.5;" x1="416.6045" x2="442.6045" y1="362.1465" y2="362.1465"/><path d="M427.6045,362.1465 L427.6045,359.1465 L433.6045,362.1465 L427.6045,365.1465 L427.6045,362.1465" fill="#FFFFFF"/><!--SRC=[xLRVSn8n47w_lsAj3oqpLYajJaMh1TfgAxICH-kCuqkuB10vaZENGr7vtzs4dyU1jIs-UJDaXjrllztiRZOvZWtJ1bkoxJqoNUmZiBxeCCytMiWE7C7srZOyWPym5bIxJBF0e8OHIQtkfUSjguxWN4Q9cGayMFf-mMaSi0Xz_9gW3D2If4s8umsKvH22cUGDxC8ER7_U9dFhE6UjbdYEdFu9uHQHls1BRjbLkzMujUNMzXRaCk7DehoM8b0SnqxMmtRW4shLLCskHYJlLu5XuOde29F-atCn7wFaBj_UyJptu-zLR8OXlYPFMYa3FvtB2Wjw7QqIoQigL1eUvol5m_AXqvqfQIRIC_VDf9UCIdc3cZF9dF3TC49T4x8tnP-Kzmj5fo8fPbcijDaLGKzY7CEUazMPxWW9rcn4Fww2f8zo6YbboGWb9_-M6V9EEd9hcxP79RqTs4N6_mfeX0bnXhCPyCKFX4BX5alxizcDtYrwokHyARkhA-7Rwa5BXNn2BAbv9enrzbtqa_v7mKqNzlFv2K9Z6xLjtN_XFiQ83ezH6wLzzMpIf5xS4z8ww4DPQ_Mjfi9GH2fASyz1w_fuZZZ1Daj2asdV3AAkf8eZ5Y2VOQigqO96pHnR4sqCgUeqdPZ1pf2g4QjGy0L8WuwV24J4f6ampkt0syilwATpnLBP1geeJKLQjq6_oxZwPadQB8nnGNCTOmKD6sVIw0HJoGkC60WpT4LQVzWhJ2zNRLKugsT29gMZnS9OTqoF0yXQfw7V7MgQhM9AMnKw297FX_WIuMmlcQe1V61S936yI1E6Z0xhBNdPJ1ASgxAXcwoL65oJYh_Xy6dZg0nDs_kHdCr7uvrj5uR8tMtj_K3dfUVCqvV48kuyKB91rM0TJ25dJRccKXaEBGRCF9I3SaMTnX_6ahH24ToRubBTjr-kMbye-d5_h-ZYKMfIpJE-eOxtpJJzTpjSQOvfivTNC_rnLgrcgcwCwNHZJESROxfy81DT9LKMuvYmUSSfy_zH_-yVzOsGNXFNzHeCKCVsDRptj90l59yUxFZCm4KYeN08U_kb_8jIeGZLKxy9Lf_pTjusQX3JXKXRvY8UtqH4aFCks831XqGQqSSIN4KeBqxUJmLmAWT2AsdVuTx5JNqEU7wmMw40VTGK2jpKlSdhYIme0LJS4bmtptOFlHgJdOIcImbGUdGbIwE7fFD_0m00]--></g></svg>