<svg xmlns="http://www.w3.org/2000/svg" xmlns:xlink="http://www.w3.org/1999/xlink" contentStyleType="text/css" data-diagram-type="EBNF" height="1085px" preserveAspectRatio="none" style="width:452px;height:1085px;background:#0B58A8;" version="1.1" viewBox="0 0 452 1085" width="452px" zoomAndPan="magnify"><defs/><g><rect fill="#0B58A8" height="1085" style="stroke:none;stroke-width:1;" width="452" x="0" y="0"/><text fill="#FFFFFF" font-family="Verdana" font-size="14" font-weight="bold" lengthAdjust="spacing" textLength="93.4336" x="5" y="19.0752">EdnElement</text><rect fill="#0B58A8" height="27.0146" rx="5" ry="5" style="stroke:#FFFFFF;stroke-width:1.5;" width="28.1563" x="59" y="32.0146"/><text fill="#FFFFFF" font-family="Verdana" font-size="14" lengthAdjust="spacing" textLength="18.1563" x="64" y="51.0898">Nil</text><line style="stroke:#FFFFFF;stroke-width:1.5;" x1="35" x2="59" y1="45.522" y2="45.522"/><line style="stroke:#FFFFFF;stroke-width:1.5;" x1="87.1563" x2="412.8071" y1="45.522" y2="45.522"/><rect fill="#0B58A8" height="27.0146" rx="5" ry="5" style="stroke:#FFFFFF;stroke-width:1.5;" width="66.041" x="59" y="69.0293"/><text fill="#FFFFFF" font-family="Verdana" font-size="14" lengthAdjust="spacing" textLength="56.041" x="64" y="88.1045">Boolean</text><path d="M47,70.5366 C47,79.5366 50,82.5366 59,82.5366" fill="none" style="stroke:#FFFFFF;stroke-width:1.5;"/><line style="stroke:#FFFFFF;stroke-width:1.5;" x1="125.041" x2="388.8071" y1="82.5366" y2="82.5366"/><path d="M254.9241,82.5366 L254.9241,79.5366 L260.9241,82.5366 L254.9241,85.5366 L254.9241,82.5366" fill="#FFFFFF"/><path d="M400.8071,70.5366 C400.8071,79.5366 397.8071,82.5366 388.8071,82.5366" fill="none" style="stroke:#FFFFFF;stroke-width:1.5;"/><rect fill="#0B58A8" height="27.0146" rx="5" ry="5" style="stroke:#FFFFFF;stroke-width:1.5;" width="73.6699" x="127.6514" y="106.0439"/><text fill="#FFFFFF" font-family="Verdana" font-size="14" lengthAdjust="spacing" textLength="63.6699" x="132.6514" y="125.1191">Symbolic</text><path d="M59,153.0586 L59,178.8579 A0,0 0 0 0 59,178.8579 L269.9727,178.8579 A0,0 0 0 0 269.9727,178.8579 L269.9727,163.0586 L259.9727,153.0586 L168.4863,153.0586 L164.4863,133.0586 L160.4863,153.0586 L59,153.0586 A0,0 0 0 0 59,153.0586" fill="#0B58A8" style="stroke:#FFFFFF;stroke-width:1;"/><path d="M259.9727,153.0586 L259.9727,163.0586 L269.9727,163.0586 L259.9727,153.0586" fill="#0B58A8" style="stroke:#FFFFFF;stroke-width:1;"/><text fill="#FFFFFF" font-family="Verdana" font-size="13" lengthAdjust="spacing" textLength="180.832" x="69.5703" y="171.1284">##Inf, ##-Inf, and ##NaN</text><line style="stroke:#FFFFFF;stroke-width:1.5;" x1="59" x2="127.6514" y1="119.5513" y2="119.5513"/><path d="M91.3257,119.5513 L91.3257,116.5513 L97.3257,119.5513 L91.3257,122.5513 L91.3257,119.5513" fill="#FFFFFF"/><line style="stroke:#FFFFFF;stroke-width:1.5;" x1="201.3213" x2="269.9727" y1="119.5513" y2="119.5513"/><path d="M233.647,119.5513 L233.647,116.5513 L239.647,119.5513 L233.647,122.5513 L233.647,119.5513" fill="#FFFFFF"/><path d="M47,107.5513 C47,116.5513 50,119.5513 59,119.5513" fill="none" style="stroke:#FFFFFF;stroke-width:1.5;"/><line style="stroke:#FFFFFF;stroke-width:1.5;" x1="269.9727" x2="388.8071" y1="119.5513" y2="119.5513"/><path d="M327.3899,119.5513 L327.3899,116.5513 L333.3899,119.5513 L327.3899,122.5513 L327.3899,119.5513" fill="#FFFFFF"/><path d="M400.8071,107.5513 C400.8071,116.5513 397.8071,119.5513 388.8071,119.5513" fill="none" style="stroke:#FFFFFF;stroke-width:1.5;"/><rect fill="#0B58A8" height="27.0146" rx="5" ry="5" style="stroke:#FFFFFF;stroke-width:1.5;" width="78.5508" x="177.9346" y="188.8579"/><text fill="#FFFFFF" font-family="Verdana" font-size="14" lengthAdjust="spacing" textLength="68.5508" x="182.9346" y="207.9331">Character</text><path d="M59,235.8726 L59,261.6719 A0,0 0 0 0 59,261.6719 L375.4199,261.6719 A0,0 0 0 0 375.4199,261.6719 L375.4199,245.8726 L365.4199,235.8726 L221.21,235.8726 L217.21,215.8726 L213.21,235.8726 L59,235.8726 A0,0 0 0 0 59,235.8726" fill="#0B58A8" style="stroke:#FFFFFF;stroke-width:1;"/><path d="M365.4199,235.8726 L365.4199,245.8726 L375.4199,245.8726 L365.4199,235.8726" fill="#0B58A8" style="stroke:#FFFFFF;stroke-width:1;"/><text fill="#FFFFFF" font-family="Verdana" font-size="13" lengthAdjust="spacing" textLength="286.2793" x="69.5703" y="253.9424">Additional named characters and octal form</text><line style="stroke:#FFFFFF;stroke-width:1.5;" x1="59" x2="177.9346" y1="202.3652" y2="202.3652"/><path d="M116.4673,202.3652 L116.4673,199.3652 L122.4673,202.3652 L116.4673,205.3652 L116.4673,202.3652" fill="#FFFFFF"/><line style="stroke:#FFFFFF;stroke-width:1.5;" x1="256.4854" x2="375.4199" y1="202.3652" y2="202.3652"/><path d="M313.9526,202.3652 L313.9526,199.3652 L319.9526,202.3652 L313.9526,205.3652 L313.9526,202.3652" fill="#FFFFFF"/><path d="M47,190.3652 C47,199.3652 50,202.3652 59,202.3652" fill="none" style="stroke:#FFFFFF;stroke-width:1.5;"/><line style="stroke:#FFFFFF;stroke-width:1.5;" x1="375.4199" x2="388.8071" y1="202.3652" y2="202.3652"/><path d="M400.8071,190.3652 C400.8071,199.3652 397.8071,202.3652 388.8071,202.3652" fill="none" style="stroke:#FFFFFF;stroke-width:1.5;"/><rect fill="#0B58A8" height="27.0146" rx="5" ry="5" style="stroke:#FFFFFF;stroke-width:1.5;" width="52.4854" x="155.8171" y="271.6719"/><text fill="#FFFFFF" font-family="Verdana" font-size="14" lengthAdjust="spacing" textLength="42.4854" x="160.8171" y="290.7471">String</text><path d="M59,318.6865 L59,344.4858 A0,0 0 0 0 59,344.4858 L305.1196,344.4858 A0,0 0 0 0 305.1196,344.4858 L305.1196,328.6865 L295.1196,318.6865 L186.0598,318.6865 L182.0598,298.6865 L178.0598,318.6865 L59,318.6865 A0,0 0 0 0 59,318.6865" fill="#0B58A8" style="stroke:#FFFFFF;stroke-width:1;"/><path d="M295.1196,318.6865 L295.1196,328.6865 L305.1196,328.6865 L295.1196,318.6865" fill="#0B58A8" style="stroke:#FFFFFF;stroke-width:1;"/><text fill="#FFFFFF" font-family="Verdana" font-size="13" lengthAdjust="spacing" textLength="215.979" x="69.5703" y="336.7563">Additional octal escape sequence</text><line style="stroke:#FFFFFF;stroke-width:1.5;" x1="59" x2="155.8171" y1="285.1792" y2="285.1792"/><path d="M105.4086,285.1792 L105.4086,282.1792 L111.4086,285.1792 L105.4086,288.1792 L105.4086,285.1792" fill="#FFFFFF"/><line style="stroke:#FFFFFF;stroke-width:1.5;" x1="208.3025" x2="305.1196" y1="285.1792" y2="285.1792"/><path d="M254.7111,285.1792 L254.7111,282.1792 L260.7111,285.1792 L254.7111,288.1792 L254.7111,285.1792" fill="#FFFFFF"/><path d="M47,273.1792 C47,282.1792 50,285.1792 59,285.1792" fill="none" style="stroke:#FFFFFF;stroke-width:1.5;"/><line style="stroke:#FFFFFF;stroke-width:1.5;" x1="305.1196" x2="388.8071" y1="285.1792" y2="285.1792"/><path d="M344.9634,285.1792 L344.9634,282.1792 L350.9634,285.1792 L344.9634,288.1792 L344.9634,285.1792" fill="#FFFFFF"/><path d="M400.8071,273.1792 C400.8071,282.1792 397.8071,285.1792 388.8071,285.1792" fill="none" style="stroke:#FFFFFF;stroke-width:1.5;"/><rect fill="#0B58A8" height="27.0146" rx="5" ry="5" style="stroke:#FFFFFF;stroke-width:1.5;" width="61.6455" x="193.0808" y="354.4858"/><text fill="#FFFFFF" font-family="Verdana" font-size="14" lengthAdjust="spacing" textLength="51.6455" x="198.0808" y="373.561">Integer</text><path d="M59,401.5005 L59,427.2998 A0,0 0 0 0 59,427.2998 L388.8071,427.2998 A0,0 0 0 0 388.8071,427.2998 L388.8071,411.5005 L378.8071,401.5005 L227.9036,401.5005 L223.9036,381.5005 L219.9036,401.5005 L59,401.5005 A0,0 0 0 0 59,401.5005" fill="#0B58A8" style="stroke:#FFFFFF;stroke-width:1;"/><path d="M378.8071,401.5005 L378.8071,411.5005 L388.8071,411.5005 L378.8071,401.5005" fill="#0B58A8" style="stroke:#FFFFFF;stroke-width:1;"/><text fill="#FFFFFF" font-family="Verdana" font-size="13" lengthAdjust="spacing" textLength="299.6665" x="69.5703" y="419.5703">Additional integer forms and minor deviations</text><line style="stroke:#FFFFFF;stroke-width:1.5;" x1="59" x2="193.0808" y1="367.9932" y2="367.9932"/><path d="M124.0404,367.9932 L124.0404,364.9932 L130.0404,367.9932 L124.0404,370.9932 L124.0404,367.9932" fill="#FFFFFF"/><line style="stroke:#FFFFFF;stroke-width:1.5;" x1="254.7263" x2="388.8071" y1="367.9932" y2="367.9932"/><path d="M319.7667,367.9932 L319.7667,364.9932 L325.7667,367.9932 L319.7667,370.9932 L319.7667,367.9932" fill="#FFFFFF"/><path d="M47,355.9932 C47,364.9932 50,367.9932 59,367.9932" fill="none" style="stroke:#FFFFFF;stroke-width:1.5;"/><line style="stroke:#FFFFFF;stroke-width:1.5;" x1="388.8071" x2="388.8071" y1="367.9932" y2="367.9932"/><path d="M400.8071,355.9932 C400.8071,364.9932 397.8071,367.9932 388.8071,367.9932" fill="none" style="stroke:#FFFFFF;stroke-width:1.5;"/><rect fill="#0B58A8" height="27.0146" rx="5" ry="5" style="stroke:#FFFFFF;stroke-width:1.5;" width="44.3096" x="59" y="437.2998"/><text fill="#FFFFFF" font-family="Verdana" font-size="14" lengthAdjust="spacing" textLength="34.3096" x="64" y="456.375">Float</text><path d="M47,438.8071 C47,447.8071 50,450.8071 59,450.8071" fill="none" style="stroke:#FFFFFF;stroke-width:1.5;"/><line style="stroke:#FFFFFF;stroke-width:1.5;" x1="103.3096" x2="388.8071" y1="450.8071" y2="450.8071"/><path d="M244.0583,450.8071 L244.0583,447.8071 L250.0583,450.8071 L244.0583,453.8071 L244.0583,450.8071" fill="#FFFFFF"/><path d="M400.8071,438.8071 C400.8071,447.8071 397.8071,450.8071 388.8071,450.8071" fill="none" style="stroke:#FFFFFF;stroke-width:1.5;"/><rect fill="#0B58A8" height="27.0146" rx="5" ry="5" style="stroke:#FFFFFF;stroke-width:1.5;" width="45.998" x="98.2249" y="474.3145"/><text fill="#FFFFFF" font-family="Verdana" font-size="14" lengthAdjust="spacing" textLength="35.998" x="103.2249" y="493.3896">Ratio</text><path d="M59,521.3291 L59,547.1284 A0,0 0 0 0 59,547.1284 L183.4478,547.1284 A0,0 0 0 0 183.4478,547.1284 L183.4478,531.3291 L173.4478,521.3291 L125.2239,521.3291 L121.2239,501.3291 L117.2239,521.3291 L59,521.3291 A0,0 0 0 0 59,521.3291" fill="#0B58A8" style="stroke:#FFFFFF;stroke-width:1;"/><path d="M173.4478,521.3291 L173.4478,531.3291 L183.4478,531.3291 L173.4478,521.3291" fill="#0B58A8" style="stroke:#FFFFFF;stroke-width:1;"/><text fill="#FFFFFF" font-family="Verdana" font-size="13" lengthAdjust="spacing" textLength="94.3071" x="69.5703" y="539.3989">Rational ratios</text><line style="stroke:#FFFFFF;stroke-width:1.5;" x1="59" x2="98.2249" y1="487.8218" y2="487.8218"/><path d="M76.6124,487.8218 L76.6124,484.8218 L82.6124,487.8218 L76.6124,490.8218 L76.6124,487.8218" fill="#FFFFFF"/><line style="stroke:#FFFFFF;stroke-width:1.5;" x1="144.2229" x2="183.4478" y1="487.8218" y2="487.8218"/><path d="M161.8353,487.8218 L161.8353,484.8218 L167.8353,487.8218 L161.8353,490.8218 L161.8353,487.8218" fill="#FFFFFF"/><path d="M47,475.8218 C47,484.8218 50,487.8218 59,487.8218" fill="none" style="stroke:#FFFFFF;stroke-width:1.5;"/><line style="stroke:#FFFFFF;stroke-width:1.5;" x1="183.4478" x2="388.8071" y1="487.8218" y2="487.8218"/><path d="M284.1274,487.8218 L284.1274,484.8218 L290.1274,487.8218 L284.1274,490.8218 L284.1274,487.8218" fill="#FFFFFF"/><path d="M400.8071,475.8218 C400.8071,484.8218 397.8071,487.8218 388.8071,487.8218" fill="none" style="stroke:#FFFFFF;stroke-width:1.5;"/><rect fill="#0B58A8" height="27.0146" rx="5" ry="5" style="stroke:#FFFFFF;stroke-width:1.5;" width="62.5342" x="161.3552" y="557.1284"/><text fill="#FFFFFF" font-family="Verdana" font-size="14" lengthAdjust="spacing" textLength="52.5342" x="166.3552" y="576.2036">Symbol</text><path d="M59,604.1431 L59,629.9424 A0,0 0 0 0 59,629.9424 L326.2446,629.9424 A0,0 0 0 0 326.2446,629.9424 L326.2446,614.1431 L316.2446,604.1431 L196.6223,604.1431 L192.6223,584.1431 L188.6223,604.1431 L59,604.1431 A0,0 0 0 0 59,604.1431" fill="#0B58A8" style="stroke:#FFFFFF;stroke-width:1;"/><path d="M316.2446,604.1431 L316.2446,614.1431 L326.2446,614.1431 L316.2446,604.1431" fill="#0B58A8" style="stroke:#FFFFFF;stroke-width:1;"/><text fill="#FFFFFF" font-family="Verdana" font-size="13" lengthAdjust="spacing" textLength="237.104" x="69.5703" y="622.2129">Many small additions and deviations</text><line style="stroke:#FFFFFF;stroke-width:1.5;" x1="59" x2="161.3552" y1="570.6357" y2="570.6357"/><path d="M108.1776,570.6357 L108.1776,567.6357 L114.1776,570.6357 L108.1776,573.6357 L108.1776,570.6357" fill="#FFFFFF"/><line style="stroke:#FFFFFF;stroke-width:1.5;" x1="223.8894" x2="326.2446" y1="570.6357" y2="570.6357"/><path d="M273.067,570.6357 L273.067,567.6357 L279.067,570.6357 L273.067,573.6357 L273.067,570.6357" fill="#FFFFFF"/><path d="M47,558.6357 C47,567.6357 50,570.6357 59,570.6357" fill="none" style="stroke:#FFFFFF;stroke-width:1.5;"/><line style="stroke:#FFFFFF;stroke-width:1.5;" x1="326.2446" x2="388.8071" y1="570.6357" y2="570.6357"/><path d="M355.5259,570.6357 L355.5259,567.6357 L361.5259,570.6357 L355.5259,573.6357 L355.5259,570.6357" fill="#FFFFFF"/><path d="M400.8071,558.6357 C400.8071,567.6357 397.8071,570.6357 388.8071,570.6357" fill="none" style="stroke:#FFFFFF;stroke-width:1.5;"/><rect fill="#0B58A8" height="27.0146" rx="5" ry="5" style="stroke:#FFFFFF;stroke-width:1.5;" width="70.9766" x="96.7615" y="639.9424"/><text fill="#FFFFFF" font-family="Verdana" font-size="14" lengthAdjust="spacing" textLength="60.9766" x="101.7615" y="659.0176">Keyword</text><path d="M59,686.957 L59,712.7563 A0,0 0 0 0 59,712.7563 L205.4995,712.7563 A0,0 0 0 0 205.4995,712.7563 L205.4995,696.957 L195.4995,686.957 L136.2498,686.957 L132.2498,666.957 L128.2498,686.957 L59,686.957 A0,0 0 0 0 59,686.957" fill="#0B58A8" style="stroke:#FFFFFF;stroke-width:1;"/><path d="M195.4995,686.957 L195.4995,696.957 L205.4995,696.957 L195.4995,686.957" fill="#0B58A8" style="stroke:#FFFFFF;stroke-width:1;"/><text fill="#FFFFFF" font-family="Verdana" font-size="13" lengthAdjust="spacing" textLength="116.3589" x="69.5703" y="705.0269">Same as Symbols</text><line style="stroke:#FFFFFF;stroke-width:1.5;" x1="59" x2="96.7615" y1="653.4497" y2="653.4497"/><path d="M75.8807,653.4497 L75.8807,650.4497 L81.8807,653.4497 L75.8807,656.4497 L75.8807,653.4497" fill="#FFFFFF"/><line style="stroke:#FFFFFF;stroke-width:1.5;" x1="167.738" x2="205.4995" y1="653.4497" y2="653.4497"/><path d="M184.6188,653.4497 L184.6188,650.4497 L190.6188,653.4497 L184.6188,656.4497 L184.6188,653.4497" fill="#FFFFFF"/><path d="M47,641.4497 C47,650.4497 50,653.4497 59,653.4497" fill="none" style="stroke:#FFFFFF;stroke-width:1.5;"/><line style="stroke:#FFFFFF;stroke-width:1.5;" x1="205.4995" x2="388.8071" y1="653.4497" y2="653.4497"/><path d="M295.1533,653.4497 L295.1533,650.4497 L301.1533,653.4497 L295.1533,656.4497 L295.1533,653.4497" fill="#FFFFFF"/><path d="M400.8071,641.4497 C400.8071,650.4497 397.8071,653.4497 388.8071,653.4497" fill="none" style="stroke:#FFFFFF;stroke-width:1.5;"/><rect fill="#0B58A8" height="27.0146" rx="5" ry="5" style="stroke:#FFFFFF;stroke-width:1.5;" width="34.4453" x="59" y="722.7563"/><text fill="#FFFFFF" font-family="Verdana" font-size="14" lengthAdjust="spacing" textLength="24.4453" x="64" y="741.8315">List</text><path d="M47,724.2637 C47,733.2637 50,736.2637 59,736.2637" fill="none" style="stroke:#FFFFFF;stroke-width:1.5;"/><line style="stroke:#FFFFFF;stroke-width:1.5;" x1="93.4453" x2="388.8071" y1="736.2637" y2="736.2637"/><path d="M239.1262,736.2637 L239.1262,733.2637 L245.1262,736.2637 L239.1262,739.2637 L239.1262,736.2637" fill="#FFFFFF"/><path d="M400.8071,724.2637 C400.8071,733.2637 397.8071,736.2637 388.8071,736.2637" fill="none" style="stroke:#FFFFFF;stroke-width:1.5;"/><rect fill="#0B58A8" height="27.0146" rx="5" ry="5" style="stroke:#FFFFFF;stroke-width:1.5;" width="55.1924" x="59" y="759.771"/><text fill="#FFFFFF" font-family="Verdana" font-size="14" lengthAdjust="spacing" textLength="45.1924" x="64" y="778.8462">Vector</text><path d="M47,761.2783 C47,770.2783 50,773.2783 59,773.2783" fill="none" style="stroke:#FFFFFF;stroke-width:1.5;"/><line style="stroke:#FFFFFF;stroke-width:1.5;" x1="114.1924" x2="388.8071" y1="773.2783" y2="773.2783"/><path d="M249.4998,773.2783 L249.4998,770.2783 L255.4998,773.2783 L249.4998,776.2783 L249.4998,773.2783" fill="#FFFFFF"/><path d="M400.8071,761.2783 C400.8071,770.2783 397.8071,773.2783 388.8071,773.2783" fill="none" style="stroke:#FFFFFF;stroke-width:1.5;"/><rect fill="#0B58A8" height="27.0146" rx="5" ry="5" style="stroke:#FFFFFF;stroke-width:1.5;" width="38.9297" x="185.3481" y="796.7856"/><text fill="#FFFFFF" font-family="Verdana" font-size="14" lengthAdjust="spacing" textLength="28.9297" x="190.3481" y="815.8608">Map</text><path d="M59,843.8003 L59,869.5996 A0,0 0 0 0 59,869.5996 L350.626,869.5996 A0,0 0 0 0 350.626,869.5996 L350.626,853.8003 L340.626,843.8003 L208.813,843.8003 L204.813,823.8003 L200.813,843.8003 L59,843.8003 A0,0 0 0 0 59,843.8003" fill="#0B58A8" style="stroke:#FFFFFF;stroke-width:1;"/><path d="M340.626,843.8003 L340.626,853.8003 L350.626,853.8003 L340.626,843.8003" fill="#0B58A8" style="stroke:#FFFFFF;stroke-width:1;"/><text fill="#FFFFFF" font-family="Verdana" font-size="13" lengthAdjust="spacing" textLength="261.4854" x="69.5703" y="861.8701">Additional syntax for namespaced maps</text><line style="stroke:#FFFFFF;stroke-width:1.5;" x1="59" x2="185.3481" y1="810.293" y2="810.293"/><path d="M120.1741,810.293 L120.1741,807.293 L126.1741,810.293 L120.1741,813.293 L120.1741,810.293" fill="#FFFFFF"/><line style="stroke:#FFFFFF;stroke-width:1.5;" x1="224.2778" x2="350.626" y1="810.293" y2="810.293"/><path d="M285.4519,810.293 L285.4519,807.293 L291.4519,810.293 L285.4519,813.293 L285.4519,810.293" fill="#FFFFFF"/><path d="M47,798.293 C47,807.293 50,810.293 59,810.293" fill="none" style="stroke:#FFFFFF;stroke-width:1.5;"/><line style="stroke:#FFFFFF;stroke-width:1.5;" x1="350.626" x2="388.8071" y1="810.293" y2="810.293"/><path d="M367.7166,810.293 L367.7166,807.293 L373.7166,810.293 L367.7166,813.293 L367.7166,810.293" fill="#FFFFFF"/><path d="M400.8071,798.293 C400.8071,807.293 397.8071,810.293 388.8071,810.293" fill="none" style="stroke:#FFFFFF;stroke-width:1.5;"/><rect fill="#0B58A8" height="27.0146" rx="5" ry="5" style="stroke:#FFFFFF;stroke-width:1.5;" width="33.4268" x="59" y="879.5996"/><text fill="#FFFFFF" font-family="Verdana" font-size="14" lengthAdjust="spacing" textLength="23.4268" x="64" y="898.6748">Set</text><path d="M47,881.1069 C47,890.1069 50,893.1069 59,893.1069" fill="none" style="stroke:#FFFFFF;stroke-width:1.5;"/><line style="stroke:#FFFFFF;stroke-width:1.5;" x1="92.4268" x2="388.8071" y1="893.1069" y2="893.1069"/><path d="M238.6169,893.1069 L238.6169,890.1069 L244.6169,893.1069 L238.6169,896.1069 L238.6169,893.1069" fill="#FFFFFF"/><path d="M400.8071,881.1069 C400.8071,890.1069 397.8071,893.1069 388.8071,893.1069" fill="none" style="stroke:#FFFFFF;stroke-width:1.5;"/><rect fill="#0B58A8" height="27.0146" rx="5" ry="5" style="stroke:#FFFFFF;stroke-width:1.5;" width="118.9102" x="59" y="916.6143"/><text fill="#FFFFFF" font-family="Verdana" font-size="14" lengthAdjust="spacing" textLength="108.9102" x="64" y="935.6895">TaggedElement</text><path d="M47,918.1216 C47,927.1216 50,930.1216 59,930.1216" fill="none" style="stroke:#FFFFFF;stroke-width:1.5;"/><line style="stroke:#FFFFFF;stroke-width:1.5;" x1="177.9102" x2="388.8071" y1="930.1216" y2="930.1216"/><path d="M281.3586,930.1216 L281.3586,927.1216 L287.3586,930.1216 L281.3586,933.1216 L281.3586,930.1216" fill="#FFFFFF"/><path d="M400.8071,918.1216 C400.8071,927.1216 397.8071,930.1216 388.8071,930.1216" fill="none" style="stroke:#FFFFFF;stroke-width:1.5;"/><rect fill="#0B58A8" height="27.0146" rx="5" ry="5" style="stroke:#FFFFFF;stroke-width:1.5;" width="130.6475" x="59" y="953.6289"/><text fill="#FFFFFF" font-family="Verdana" font-size="14" lengthAdjust="spacing" textLength="120.6475" x="64" y="972.7041">DiscardSequence</text><path d="M47,955.1362 C47,964.1362 50,967.1362 59,967.1362" fill="none" style="stroke:#FFFFFF;stroke-width:1.5;"/><line style="stroke:#FFFFFF;stroke-width:1.5;" x1="189.6475" x2="388.8071" y1="967.1362" y2="967.1362"/><path d="M287.2273,967.1362 L287.2273,964.1362 L293.2273,967.1362 L287.2273,970.1362 L287.2273,967.1362" fill="#FFFFFF"/><path d="M400.8071,955.1362 C400.8071,964.1362 397.8071,967.1362 388.8071,967.1362" fill="none" style="stroke:#FFFFFF;stroke-width:1.5;"/><rect fill="#0B58A8" height="27.0146" rx="5" ry="5" style="stroke:#FFFFFF;stroke-width:1.5;" width="143.4443" x="116.7361" y="990.6436"/><text fill="#FFFFFF" font-family="Verdana" font-size="14" lengthAdjust="spacing" textLength="133.4443" x="121.7361" y="1009.7188">MetadataSequence</text><path d="M59,1037.6582 L59,1063.4575 A0,0 0 0 0 59,1063.4575 L317.9165,1063.4575 A0,0 0 0 0 317.9165,1063.4575 L317.9165,1047.6582 L307.9165,1037.6582 L192.4583,1037.6582 L188.4583,1017.6582 L184.4583,1037.6582 L59,1037.6582 A0,0 0 0 0 59,1037.6582" fill="#0B58A8" style="stroke:#FFFFFF;stroke-width:1;"/><path d="M307.9165,1037.6582 L307.9165,1047.6582 L317.9165,1047.6582 L307.9165,1037.6582" fill="#0B58A8" style="stroke:#FFFFFF;stroke-width:1;"/><text fill="#FFFFFF" font-family="Verdana" font-size="13" lengthAdjust="spacing" textLength="228.7759" x="69.5703" y="1055.728">Metadata literal for some Elements</text><line style="stroke:#FFFFFF;stroke-width:1.5;" x1="59" x2="116.7361" y1="1004.1509" y2="1004.1509"/><path d="M85.868,1004.1509 L85.868,1001.1509 L91.868,1004.1509 L85.868,1007.1509 L85.868,1004.1509" fill="#FFFFFF"/><line style="stroke:#FFFFFF;stroke-width:1.5;" x1="260.1804" x2="317.9165" y1="1004.1509" y2="1004.1509"/><path d="M287.0485,1004.1509 L287.0485,1001.1509 L293.0485,1004.1509 L287.0485,1007.1509 L287.0485,1004.1509" fill="#FFFFFF"/><line style="stroke:#FFFFFF;stroke-width:1.5;" x1="317.9165" x2="388.8071" y1="1004.1509" y2="1004.1509"/><path d="M351.3618,1004.1509 L351.3618,1001.1509 L357.3618,1004.1509 L351.3618,1007.1509 L351.3618,1004.1509" fill="#FFFFFF"/><path d="M47,992.1509 C47,1001.1509 50,1004.1509 59,1004.1509" fill="none" style="stroke:#FFFFFF;stroke-width:1.5;"/><line style="stroke:#FFFFFF;stroke-width:1.5;" x1="47" x2="47" y1="57.522" y2="992.1509"/><path d="M35,45.522 C44,45.522 47,48.522 47,57.522" fill="none" style="stroke:#FFFFFF;stroke-width:1.5;"/><path d="M400.8071,992.1509 C400.8071,1001.1509 397.8071,1004.1509 388.8071,1004.1509" fill="none" style="stroke:#FFFFFF;stroke-width:1.5;"/><line style="stroke:#FFFFFF;stroke-width:1.5;" x1="400.8071" x2="400.8071" y1="57.522" y2="992.1509"/><path d="M400.8071,57.522 C400.8071,48.522 403.8071,45.522 412.8071,45.522" fill="none" style="stroke:#FFFFFF;stroke-width:1.5;"/><ellipse cx="9" cy="45.522" fill="none" rx="4" ry="4" style="stroke:#FFFFFF;stroke-width:2;"/><ellipse cx="442.8071" cy="45.522" fill="#FFFFFF" rx="4" ry="4" style="stroke:#FFFFFF;stroke-width:1;"/><line style="stroke:#FFFFFF;stroke-width:1.5;" x1="13" x2="35" y1="45.522" y2="45.522"/><line style="stroke:#FFFFFF;stroke-width:1.5;" x1="412.8071" x2="438.8071" y1="45.522" y2="45.522"/><path d="M423.8071,45.522 L423.8071,42.522 L429.8071,45.522 L423.8071,48.522 L423.8071,45.522" fill="#FFFFFF"/><!--SRC=[xLTRK-Cs57xthr275zWfsn2M3fjkEoI1T66JBBCEzFbWdIGgjkHASY1j-UyzafsBumGMID_8J6xdykdeEnV99yQ2jdWZXy4FTem9CaZ428BWZCkpcFvBotvbVH47RF7wbxMKYX5aMHXEaniLYsWksdt7TdREvV17-jhtto0v_Uv3dxtRApktnw0XigYNd9kS2okKX9X9I92pQ6PaF9AABAc6IYSLkD1g8KTBeZ9SxeacWXIPmRyob15MGCwbnT4YebKGKQXT07b0YP1ACuuJ0Sx6L10xiG9R5drpfgmSgPUv9RJxKON9cIxxz41EcKaWZXaKCUP1FHBE5vpUASrBE26u8Z356bMVhZ0hExZ6o2fTblKWPOnjvDzCfOLxnvpFh4aXelGcaAxPAwuiDu3H27bHd6NLgQ2CQXuM2Lq92Irmi33JUj8A6Oi5LLLUJCmeOg30Nutdb-049VVz4fmiUYT_VJ9s6kDlPA-LikmVxzY2w7QaLIPvMyM4lbDh7HqtZxskewGjf1t_calxBWlNg3b8yCBFqnHrLyZRcVrfyx1-v5KanIgAamx68hgLQ0mxyB8Uw96GpBazq9khAFCTdaTApU3IK_nRHQXvwOF_7DBsgF2VDXmZyEyojCB6EBTp38JYRsJr-XEUxktOJJylhrJXV8NTzPa8NVOO5JqlWANYivXwS2-IBFb3S3jcXxLQOQ5nYDeLq_-nlC6KnXsrrZPXF_rK56bWReLq2oIigRMwwweu5gbAozWBeqrrlB0unI5aiQsKRyMYfwJAMtvksrQP5gYNRBjYY35bdIOvq9oTKZOCdIvyoUIIsaz48WLfBztCeu5_K5lIpphTGRa2Qj6iGxrfW-4OkBfp84E83IvfhWosQ53aJ5gTOOcyo8g9i5EVfCtDtWAzchLruQoV2HLA7vOJuvO3dGTGzIwRtdkh6Lj79MrRw2X6lZY9Lm3dUwbaZT69nKLcsCSoO0pKh4_miXqI_59DIwV-JMPn0nNVWn7Inb5PchOl0-aiHkEpVPU6oFDztVb0_NBhtSk7nBBTUQJa9MK3HbYod1VbXanLCBIOW7qj1d55bSPVXvBTk4ldIo7wwgNrylNcJue-h-yrLVnGcbGBnhTKyQ6TqV-yvYfZp8gzkHxfqLcr7gczDQIphI6TRmsf_qeaEahQO30773npohmzbBqzbBqzb3t-K7OPqstmgjTb4of8zpHpyBvUgn-z_x0RWcKNcMJrOtPmsAXzRDIFMFii732dtmjsVx_iqYgPfY0uqUbl4WIm5rp01DYtJ5gHO8DzJL5Ud7wP2TYPd0YjfD_tnNLlOV3pX_sMi4ILfb3OTIyeRh_a4Ibt_Mgmgq5d_pZeWXnbT3eq6Cg0hbJIwYdfmly0]--></g></svg>