<svg xmlns="http://www.w3.org/2000/svg" xmlns:xlink="http://www.w3.org/1999/xlink" contentStyleType="text/css" data-diagram-type="EBNF" height="375px" preserveAspectRatio="none" style="width:581px;height:375px;background:#0B58A8;" version="1.1" viewBox="0 0 581 375" width="581px" zoomAndPan="magnify"><defs/><g><rect fill="#0B58A8" height="375" style="stroke:none;stroke-width:1;" width="581" x="0" y="0"/><text fill="#FFFFFF" font-family="Verdana" font-size="14" font-weight="bold" lengthAdjust="spacing" textLength="32.4092" x="5" y="19.0752">Map</text><line style="stroke:#FFFFFF;stroke-width:1.5;" x1="35" x2="35" y1="45.522" y2="45.522"/><line style="stroke:#FFFFFF;stroke-width:1.5;" x1="35" x2="241.2822" y1="45.522" y2="45.522"/><path d="M115.5129,45.522 L115.5129,42.522 L121.5129,45.522 L115.5129,48.522 L115.5129,45.522" fill="#FFFFFF"/><path d="M35,45.522 C44,45.522 47,48.2756 47,57.2756 C47,66.2756 50,69.0293 59,69.0293" fill="none" style="stroke:#FFFFFF;stroke-width:1.5;"/><path d="M217.2822,69.0293 C226.2822,69.0293 229.2822,66.2756 229.2822,57.2756 C229.2822,48.2756 232.2822,45.522 241.2822,45.522" fill="none" style="stroke:#FFFFFF;stroke-width:1.5;"/><line style="stroke:#FFFFFF;stroke-width:1.5;" x1="59" x2="59" y1="69.0293" y2="69.0293"/><rect fill="none" height="27.0146" style="stroke:#FFFFFF;stroke-width:0.5;" width="27.8145" x="59" y="55.522"/><text fill="#FFFFFF" font-family="Verdana" font-size="14" lengthAdjust="spacing" textLength="17.8145" x="64" y="74.5972">#:</text><line style="stroke:#FFFFFF;stroke-width:1.5;" x1="86.8145" x2="106.8145" y1="69.0293" y2="69.0293"/><rect fill="#0B58A8" height="27.0146" rx="5" ry="5" style="stroke:#FFFFFF;stroke-width:1.5;" width="110.4678" x="106.8145" y="55.522"/><text fill="#FFFFFF" font-family="Verdana" font-size="14" lengthAdjust="spacing" textLength="100.4678" x="111.8145" y="74.5972">SimpleSymbol</text><line style="stroke:#FFFFFF;stroke-width:1.5;" x1="241.2822" x2="261.2822" y1="45.522" y2="45.522"/><rect fill="none" height="27.0146" style="stroke:#FFFFFF;stroke-width:0.5;" width="18.8867" x="261.2822" y="32.0146"/><text fill="#FFFFFF" font-family="Verdana" font-size="14" lengthAdjust="spacing" textLength="8.8867" x="266.2822" y="51.0898">{</text><line style="stroke:#FFFFFF;stroke-width:1.5;" x1="280.1689" x2="300.1689" y1="45.522" y2="45.522"/><line style="stroke:#FFFFFF;stroke-width:1.5;" x1="300.1689" x2="502.5869" y1="45.522" y2="45.522"/><path d="M379.1361,45.522 L379.1361,42.522 L385.1361,45.522 L379.1361,48.522 L379.1361,45.522" fill="#FFFFFF"/><path d="M300.1689,45.522 C309.1689,45.522 312.1689,54.2756 312.1689,63.2756 C312.1689,72.2756 315.1689,81.0293 324.1689,81.0293" fill="none" style="stroke:#FFFFFF;stroke-width:1.5;"/><path d="M478.5869,81.0293 C487.5869,81.0293 490.5869,72.2756 490.5869,63.2756 C490.5869,54.2756 493.5869,45.522 502.5869,45.522" fill="none" style="stroke:#FFFFFF;stroke-width:1.5;"/><path d="M332.1689,73.0293 C332.1689,79.0293 334.1689,81.0293 340.1689,81.0293" fill="none" style="stroke:#FFFFFF;stroke-width:1.5;"/><line style="stroke:#FFFFFF;stroke-width:1.5;" x1="332.1689" x2="332.1689" y1="68.522" y2="73.0293"/><path d="M332.1689,68.522 C332.1689,62.522 334.1689,60.522 340.1689,60.522" fill="none" style="stroke:#FFFFFF;stroke-width:1.5;"/><line style="stroke:#FFFFFF;stroke-width:1.5;" x1="339.1689" x2="463.5869" y1="60.522" y2="60.522"/><path d="M411.8197,60.522 L411.8197,57.522 L405.8197,60.522 L411.8197,63.522 L411.8197,60.522" fill="#FFFFFF"/><path d="M470.5869,73.0293 C470.5869,79.0293 468.5869,81.0293 462.5869,81.0293" fill="none" style="stroke:#FFFFFF;stroke-width:1.5;"/><line style="stroke:#FFFFFF;stroke-width:1.5;" x1="470.5869" x2="470.5869" y1="68.522" y2="73.0293"/><path d="M462.5869,60.522 C468.5869,60.522 470.5869,62.522 470.5869,68.522" fill="none" style="stroke:#FFFFFF;stroke-width:1.5;"/><line style="stroke:#FFFFFF;stroke-width:1.5;" x1="324.1689" x2="339.1689" y1="81.0293" y2="81.0293"/><line style="stroke:#FFFFFF;stroke-width:1.5;" x1="463.5869" x2="478.5869" y1="81.0293" y2="81.0293"/><rect fill="#0B58A8" height="27.0146" rx="5" ry="5" style="stroke:#FFFFFF;stroke-width:1.5;" width="65.4189" x="363.1689" y="67.522"/><text fill="#FFFFFF" font-family="Verdana" font-size="14" lengthAdjust="spacing" textLength="55.4189" x="368.1689" y="86.5972">Spacing</text><line style="stroke:#FFFFFF;stroke-width:1.5;" x1="339.1689" x2="363.1689" y1="81.0293" y2="81.0293"/><line style="stroke:#FFFFFF;stroke-width:1.5;" x1="428.5879" x2="463.5869" y1="81.0293" y2="81.0293"/><rect fill="#0B58A8" height="27.0146" rx="5" ry="5" style="stroke:#FFFFFF;stroke-width:1.5;" width="76.418" x="363.1689" y="104.5366"/><text fill="#FFFFFF" font-family="Verdana" font-size="14" lengthAdjust="spacing" textLength="66.418" x="368.1689" y="123.6118">MapEntry</text><line style="stroke:#FFFFFF;stroke-width:1.5;" x1="439.5869" x2="439.5869" y1="118.0439" y2="118.0439"/><path d="M351.1689,106.0439 C351.1689,115.0439 354.1689,118.0439 363.1689,118.0439" fill="none" style="stroke:#FFFFFF;stroke-width:1.5;"/><line style="stroke:#FFFFFF;stroke-width:1.5;" x1="351.1689" x2="351.1689" y1="93.0293" y2="106.0439"/><path d="M339.1689,81.0293 C348.1689,81.0293 351.1689,84.0293 351.1689,93.0293" fill="none" style="stroke:#FFFFFF;stroke-width:1.5;"/><path d="M451.5869,106.0439 C451.5869,115.0439 448.5869,118.0439 439.5869,118.0439" fill="none" style="stroke:#FFFFFF;stroke-width:1.5;"/><line style="stroke:#FFFFFF;stroke-width:1.5;" x1="451.5869" x2="451.5869" y1="93.0293" y2="106.0439"/><path d="M451.5869,93.0293 C451.5869,84.0293 454.5869,81.0293 463.5869,81.0293" fill="none" style="stroke:#FFFFFF;stroke-width:1.5;"/><line style="stroke:#FFFFFF;stroke-width:1.5;" x1="502.5869" x2="522.5869" y1="45.522" y2="45.522"/><rect fill="none" height="27.0146" style="stroke:#FFFFFF;stroke-width:0.5;" width="18.8867" x="522.5869" y="32.0146"/><text fill="#FFFFFF" font-family="Verdana" font-size="14" lengthAdjust="spacing" textLength="8.8867" x="527.5869" y="51.0898">}</text><ellipse cx="9" cy="45.522" fill="none" rx="4" ry="4" style="stroke:#FFFFFF;stroke-width:2;"/><ellipse cx="571.4736" cy="45.522" fill="#FFFFFF" rx="4" ry="4" style="stroke:#FFFFFF;stroke-width:1;"/><line style="stroke:#FFFFFF;stroke-width:1.5;" x1="13" x2="35" y1="45.522" y2="45.522"/><line style="stroke:#FFFFFF;stroke-width:1.5;" x1="541.4736" x2="567.4736" y1="45.522" y2="45.522"/><path d="M552.4736,45.522 L552.4736,42.522 L558.4736,45.522 L552.4736,48.522 L552.4736,45.522" fill="#FFFFFF"/><text fill="#FFFFFF" font-family="Verdana" font-size="14" font-weight="bold" lengthAdjust="spacing" textLength="74.3955" x="5" y="160.6265">MapEntry</text><line style="stroke:#FFFFFF;stroke-width:1.5;" x1="35" x2="35" y1="187.0732" y2="187.0732"/><rect fill="#0B58A8" height="27.0146" rx="5" ry="5" style="stroke:#FFFFFF;stroke-width:1.5;" width="158.3193" x="35" y="173.5659"/><text fill="#FFFFFF" font-family="Verdana" font-size="14" lengthAdjust="spacing" textLength="148.3193" x="40" y="192.6411">ReadableEdnElement</text><line style="stroke:#FFFFFF;stroke-width:1.5;" x1="193.3193" x2="213.3193" y1="187.0732" y2="187.0732"/><line style="stroke:#FFFFFF;stroke-width:1.5;" x1="213.3193" x2="326.7383" y1="187.0732" y2="187.0732"/><path d="M256.6869,187.0732 L256.6869,184.0732 L262.6869,187.0732 L256.6869,190.0732 L256.6869,187.0732" fill="#FFFFFF"/><path d="M213.3193,187.0732 C222.3193,187.0732 225.3193,189.8269 225.3193,198.8269 C225.3193,207.8269 228.3193,210.5806 237.3193,210.5806" fill="none" style="stroke:#FFFFFF;stroke-width:1.5;"/><path d="M302.7383,210.5806 C311.7383,210.5806 314.7383,207.8269 314.7383,198.8269 C314.7383,189.8269 317.7383,187.0732 326.7383,187.0732" fill="none" style="stroke:#FFFFFF;stroke-width:1.5;"/><rect fill="#0B58A8" height="27.0146" rx="5" ry="5" style="stroke:#FFFFFF;stroke-width:1.5;" width="65.4189" x="237.3193" y="197.0732"/><text fill="#FFFFFF" font-family="Verdana" font-size="14" lengthAdjust="spacing" textLength="55.4189" x="242.3193" y="216.1484">Spacing</text><line style="stroke:#FFFFFF;stroke-width:1.5;" x1="326.7383" x2="346.7383" y1="187.0732" y2="187.0732"/><rect fill="#0B58A8" height="27.0146" rx="5" ry="5" style="stroke:#FFFFFF;stroke-width:1.5;" width="158.3193" x="346.7383" y="173.5659"/><text fill="#FFFFFF" font-family="Verdana" font-size="14" lengthAdjust="spacing" textLength="148.3193" x="351.7383" y="192.6411">ReadableEdnElement</text><ellipse cx="9" cy="187.0732" fill="none" rx="4" ry="4" style="stroke:#FFFFFF;stroke-width:2;"/><ellipse cx="535.0576" cy="187.0732" fill="#FFFFFF" rx="4" ry="4" style="stroke:#FFFFFF;stroke-width:1;"/><line style="stroke:#FFFFFF;stroke-width:1.5;" x1="13" x2="35" y1="187.0732" y2="187.0732"/><line style="stroke:#FFFFFF;stroke-width:1.5;" x1="505.0576" x2="531.0576" y1="187.0732" y2="187.0732"/><path d="M516.0576,187.0732 L516.0576,184.0732 L522.0576,187.0732 L516.0576,190.0732 L516.0576,187.0732" fill="#FFFFFF"/><text fill="#FFFFFF" font-family="Verdana" font-size="14" font-weight="bold" lengthAdjust="spacing" textLength="166.0449" x="5" y="253.1631">ReadableEdnElement</text><line style="stroke:#FFFFFF;stroke-width:1.5;" x1="59" x2="59" y1="279.6099" y2="279.6099"/><rect fill="#0B58A8" height="27.0146" rx="5" ry="5" style="stroke:#FFFFFF;stroke-width:1.5;" width="93.8018" x="59" y="266.1025"/><text fill="#FFFFFF" font-family="Verdana" font-size="14" lengthAdjust="spacing" textLength="83.8018" x="64" y="285.1777">EdnElement</text><line style="stroke:#FFFFFF;stroke-width:1.5;" x1="152.8018" x2="172.8018" y1="279.6099" y2="279.6099"/><text fill="#FFFFFF" font-family="Verdana" font-size="14" lengthAdjust="spacing" textLength="30.1191" x="175.8018" y="283.5493">NOT</text><rect fill="#0B58A8" height="27.0146" rx="5" ry="5" style="stroke:#FFFFFF;stroke-width:1.5;" width="130.6475" x="210.9209" y="266.1025"/><text fill="#FFFFFF" font-family="Verdana" font-size="14" lengthAdjust="spacing" textLength="120.6475" x="215.9209" y="285.1777">DiscardSequence</text><line style="stroke:#FFFFFF;stroke-width:1.5;" x1="35" x2="59" y1="279.6099" y2="279.6099"/><line style="stroke:#FFFFFF;stroke-width:1.5;" x1="341.5684" x2="525.3857" y1="279.6099" y2="279.6099"/><line style="stroke:#FFFFFF;stroke-width:1.5;" x1="59" x2="59" y1="316.6245" y2="316.6245"/><rect fill="#0B58A8" height="27.0146" rx="5" ry="5" style="stroke:#FFFFFF;stroke-width:1.5;" width="130.6475" x="59" y="303.1172"/><text fill="#FFFFFF" font-family="Verdana" font-size="14" lengthAdjust="spacing" textLength="120.6475" x="64" y="322.1924">DiscardSequence</text><line style="stroke:#FFFFFF;stroke-width:1.5;" x1="189.6475" x2="209.6475" y1="316.6245" y2="316.6245"/><line style="stroke:#FFFFFF;stroke-width:1.5;" x1="209.6475" x2="323.0664" y1="316.6245" y2="316.6245"/><path d="M253.015,316.6245 L253.015,313.6245 L259.015,316.6245 L253.015,319.6245 L253.015,316.6245" fill="#FFFFFF"/><path d="M209.6475,316.6245 C218.6475,316.6245 221.6475,319.3782 221.6475,328.3782 C221.6475,337.3782 224.6475,340.1318 233.6475,340.1318" fill="none" style="stroke:#FFFFFF;stroke-width:1.5;"/><path d="M299.0664,340.1318 C308.0664,340.1318 311.0664,337.3782 311.0664,328.3782 C311.0664,319.3782 314.0664,316.6245 323.0664,316.6245" fill="none" style="stroke:#FFFFFF;stroke-width:1.5;"/><rect fill="#0B58A8" height="27.0146" rx="5" ry="5" style="stroke:#FFFFFF;stroke-width:1.5;" width="65.4189" x="233.6475" y="326.6245"/><text fill="#FFFFFF" font-family="Verdana" font-size="14" lengthAdjust="spacing" textLength="55.4189" x="238.6475" y="345.6997">Spacing</text><line style="stroke:#FFFFFF;stroke-width:1.5;" x1="323.0664" x2="343.0664" y1="316.6245" y2="316.6245"/><rect fill="#0B58A8" height="27.0146" rx="5" ry="5" style="stroke:#FFFFFF;stroke-width:1.5;" width="158.3193" x="343.0664" y="303.1172"/><text fill="#FFFFFF" font-family="Verdana" font-size="14" lengthAdjust="spacing" textLength="148.3193" x="348.0664" y="322.1924">ReadableEdnElement</text><line style="stroke:#FFFFFF;stroke-width:1.5;" x1="501.3857" x2="501.3857" y1="316.6245" y2="316.6245"/><path d="M47,304.6245 C47,313.6245 50,316.6245 59,316.6245" fill="none" style="stroke:#FFFFFF;stroke-width:1.5;"/><line style="stroke:#FFFFFF;stroke-width:1.5;" x1="47" x2="47" y1="291.6099" y2="304.6245"/><path d="M35,279.6099 C44,279.6099 47,282.6099 47,291.6099" fill="none" style="stroke:#FFFFFF;stroke-width:1.5;"/><path d="M513.3857,304.6245 C513.3857,313.6245 510.3857,316.6245 501.3857,316.6245" fill="none" style="stroke:#FFFFFF;stroke-width:1.5;"/><line style="stroke:#FFFFFF;stroke-width:1.5;" x1="513.3857" x2="513.3857" y1="291.6099" y2="304.6245"/><path d="M513.3857,291.6099 C513.3857,282.6099 516.3857,279.6099 525.3857,279.6099" fill="none" style="stroke:#FFFFFF;stroke-width:1.5;"/><ellipse cx="9" cy="279.6099" fill="none" rx="4" ry="4" style="stroke:#FFFFFF;stroke-width:2;"/><ellipse cx="555.3857" cy="279.6099" fill="#FFFFFF" rx="4" ry="4" style="stroke:#FFFFFF;stroke-width:1;"/><line style="stroke:#FFFFFF;stroke-width:1.5;" x1="13" x2="35" y1="279.6099" y2="279.6099"/><line style="stroke:#FFFFFF;stroke-width:1.5;" x1="525.3857" x2="551.3857" y1="279.6099" y2="279.6099"/><path d="M536.3857,279.6099 L536.3857,276.6099 L542.3857,279.6099 L536.3857,282.6099 L536.3857,279.6099" fill="#FFFFFF"/><!--SRC=[xLPRSzf657xNhpXrNkoPEiKuT1mQTmmODt71OIpRVSZquQ0zm1QngwnM9DJXl_Uik4cMQ7oXRzKCpEZiTxwp-ivbzoosQ2prrS3xmOveGe0JEKIlYn6SmYVOUrNVWn_1bvCe97yswUiG_cJ3thqptuCVOI3L4Bu1UxILDJEOk-Nv7lpYUMlRALmJ2ko7r1Qg7N8SPHdsQUtlE4iWp55YFOLzoBmUmhcC0pJ2fyy9gO3Wm8FYywq0UzG6paY9L1_lRAFLudaNsrb8lt8mexM5-pHg4uFnqEX4YPOEjO5NbMRjf76IhbrePPVMY_HPMw-GfRyZ8r1XQdm_YyXqf1glyEUDusejNM8h5LcSzMOaWx6YE8QZrDP5CvGAdDkSVq87IVfLYvq665cfrVBj8KCbjSxJ_m5_7fb704UiuAE0LjgGrZYdW2__9gXMl-FfVaxTw7qsKa7p1-gMPy9tsGEkQB4aLbgizjJ5htAIJFwGmexWk59P8WmDoBZQ-I_2nnIXGQjtIllkfsMHUl5OAXTW0WrZz9UE3aCPwIZFlG5jg-CDufm6c8IsKBu5H5Sh7NEVaLXZMpenaam6sv432ZdhlcKDQ3ZZRCGwb283wN7xoK16g6mFXN1jUrJ9hAyQsr6v0cfgmqdQze7-28N-uaW66CQKMRcDgKaM5qfQar1ElC3AgRIpD4dRcxs9vc7MohPJFXCAaiwpYN7Xq2msKFJEGx-cg9LQjTngIveW9D4QyLkmwk-omYfa3U0QXKnYU9id396RzJkwx4Q4D5J3MYFxYQKjKZo6m-SF9srvsZwFv68p6f_icnaYJ_TrvmFtopXrpnyIMTo7GAiUPmE7b4EkYt9BfWeSHaxHlfI3jU9A4ozZIVgX39vDSQMVMoyV-t_nxXVrNLB5yzoasYY-euhtxKh-fpLNdcDLx8rofd-TLULChPqnjNV6z65dJ5SlPEAZf8KnBGXldZXb_h-45o_XlP1F_zjk1wPaOdTxFNfThLHhhz_i-sZXCb5GFO6ZuthbRRrQWrRRlm6tVk3j_zRhGCm76CSKCbwS74nmu5tY5E4wKLPEg0uV8rANvx-l3D1MKscqSXlnBk-w6y3FRmwRqlAbm_1MuAxhBMyxx15eTzpMuVRcul34ww0Q9ZmDwa3AuoFK9OFN_7y0]--></g></svg>