<svg xmlns="http://www.w3.org/2000/svg" xmlns:xlink="http://www.w3.org/1999/xlink" contentStyleType="text/css" data-diagram-type="EBNF" height="991px" preserveAspectRatio="none" style="width:387px;height:991px;background:#0B58A8;" version="1.1" viewBox="0 0 387 991" width="387px" zoomAndPan="magnify"><defs/><g><rect fill="#0B58A8" height="991" style="stroke:none;stroke-width:1;" width="387" x="0" y="0"/><text fill="#FFFFFF" font-family="Verdana" font-size="14" font-weight="bold" lengthAdjust="spacing" textLength="92.8525" x="5" y="19.0752">WhiteSpace</text><rect fill="none" height="27.0146" style="stroke:#FFFFFF;stroke-width:0.5;" width="14.9219" x="116.9558" y="32.0146"/><text fill="#FFFFFF" font-family="Verdana" font-size="14" lengthAdjust="spacing" textLength="4.9219" x="121.9558" y="51.0898">&#160;</text><path d="M59,79.0293 L59,104.8286 A0,0 0 0 0 59,104.8286 L189.8335,104.8286 A0,0 0 0 0 189.8335,104.8286 L189.8335,89.0293 L179.8335,79.0293 L128.4167,79.0293 L124.4167,59.0293 L120.4167,79.0293 L59,79.0293 A0,0 0 0 0 59,79.0293" fill="#0B58A8" style="stroke:#FFFFFF;stroke-width:1;"/><path d="M179.8335,79.0293 L179.8335,89.0293 L189.8335,89.0293 L179.8335,79.0293" fill="#0B58A8" style="stroke:#FFFFFF;stroke-width:1;"/><text fill="#FFFFFF" font-family="Verdana" font-size="13" lengthAdjust="spacing" textLength="100.6929" x="69.5703" y="97.0991">U+0020 SPACE</text><line style="stroke:#FFFFFF;stroke-width:1.5;" x1="59" x2="116.9558" y1="45.522" y2="45.522"/><path d="M85.9779,45.522 L85.9779,42.522 L91.9779,45.522 L85.9779,48.522 L85.9779,45.522" fill="#FFFFFF"/><line style="stroke:#FFFFFF;stroke-width:1.5;" x1="131.8777" x2="189.8335" y1="45.522" y2="45.522"/><path d="M158.8556,45.522 L158.8556,42.522 L164.8556,45.522 L158.8556,48.522 L158.8556,45.522" fill="#FFFFFF"/><line style="stroke:#FFFFFF;stroke-width:1.5;" x1="35" x2="59" y1="45.522" y2="45.522"/><line style="stroke:#FFFFFF;stroke-width:1.5;" x1="189.8335" x2="347.8896" y1="45.522" y2="45.522"/><rect fill="none" height="27.0146" style="stroke:#FFFFFF;stroke-width:0.5;" width="21.874" x="180.5078" y="114.8286"/><text fill="#FFFFFF" font-family="Verdana" font-size="14" lengthAdjust="spacing" textLength="11.874" x="185.5078" y="133.9038">\t</text><path d="M59,161.8433 L59,187.6426 A0,0 0 0 0 59,187.6426 L323.8896,187.6426 A0,0 0 0 0 323.8896,187.6426 L323.8896,171.8433 L313.8896,161.8433 L195.4448,161.8433 L191.4448,141.8433 L187.4448,161.8433 L59,161.8433 A0,0 0 0 0 59,161.8433" fill="#0B58A8" style="stroke:#FFFFFF;stroke-width:1;"/><path d="M313.8896,161.8433 L313.8896,171.8433 L323.8896,171.8433 L313.8896,161.8433" fill="#0B58A8" style="stroke:#FFFFFF;stroke-width:1;"/><text fill="#FFFFFF" font-family="Verdana" font-size="13" lengthAdjust="spacing" textLength="234.749" x="69.5703" y="179.9131">U+0009 HORIZONTAL TABULATION</text><line style="stroke:#FFFFFF;stroke-width:1.5;" x1="59" x2="180.5078" y1="128.3359" y2="128.3359"/><path d="M117.7539,128.3359 L117.7539,125.3359 L123.7539,128.3359 L117.7539,131.3359 L117.7539,128.3359" fill="#FFFFFF"/><line style="stroke:#FFFFFF;stroke-width:1.5;" x1="202.3818" x2="323.8896" y1="128.3359" y2="128.3359"/><path d="M261.1357,128.3359 L261.1357,125.3359 L267.1357,128.3359 L261.1357,131.3359 L261.1357,128.3359" fill="#FFFFFF"/><path d="M47,116.3359 C47,125.3359 50,128.3359 59,128.3359" fill="none" style="stroke:#FFFFFF;stroke-width:1.5;"/><line style="stroke:#FFFFFF;stroke-width:1.5;" x1="323.8896" x2="323.8896" y1="128.3359" y2="128.3359"/><path d="M335.8896,116.3359 C335.8896,125.3359 332.8896,128.3359 323.8896,128.3359" fill="none" style="stroke:#FFFFFF;stroke-width:1.5;"/><rect fill="none" height="27.0146" style="stroke:#FFFFFF;stroke-width:0.5;" width="25.2168" x="125.24" y="197.6426"/><text fill="#FFFFFF" font-family="Verdana" font-size="14" lengthAdjust="spacing" textLength="15.2168" x="130.24" y="216.7178">\n</text><path d="M59,244.6572 L59,270.4565 A0,0 0 0 0 59,270.4565 L216.6968,270.4565 A0,0 0 0 0 216.6968,270.4565 L216.6968,254.6572 L206.6968,244.6572 L141.8484,244.6572 L137.8484,224.6572 L133.8484,244.6572 L59,244.6572 A0,0 0 0 0 59,244.6572" fill="#0B58A8" style="stroke:#FFFFFF;stroke-width:1;"/><path d="M206.6968,244.6572 L206.6968,254.6572 L216.6968,254.6572 L206.6968,244.6572" fill="#0B58A8" style="stroke:#FFFFFF;stroke-width:1;"/><text fill="#FFFFFF" font-family="Verdana" font-size="13" lengthAdjust="spacing" textLength="127.5562" x="69.5703" y="262.7271">U+000A LINE FEED</text><line style="stroke:#FFFFFF;stroke-width:1.5;" x1="59" x2="125.24" y1="211.1499" y2="211.1499"/><path d="M90.12,211.1499 L90.12,208.1499 L96.12,211.1499 L90.12,214.1499 L90.12,211.1499" fill="#FFFFFF"/><line style="stroke:#FFFFFF;stroke-width:1.5;" x1="150.4568" x2="216.6968" y1="211.1499" y2="211.1499"/><path d="M181.5768,211.1499 L181.5768,208.1499 L187.5768,211.1499 L181.5768,214.1499 L181.5768,211.1499" fill="#FFFFFF"/><path d="M47,199.1499 C47,208.1499 50,211.1499 59,211.1499" fill="none" style="stroke:#FFFFFF;stroke-width:1.5;"/><line style="stroke:#FFFFFF;stroke-width:1.5;" x1="216.6968" x2="323.8896" y1="211.1499" y2="211.1499"/><path d="M268.2932,211.1499 L268.2932,208.1499 L274.2932,211.1499 L268.2932,214.1499 L268.2932,211.1499" fill="#FFFFFF"/><path d="M335.8896,199.1499 C335.8896,208.1499 332.8896,211.1499 323.8896,211.1499" fill="none" style="stroke:#FFFFFF;stroke-width:1.5;"/><rect fill="none" height="27.0146" style="stroke:#FFFFFF;stroke-width:0.5;" width="61.5156" x="149.6707" y="280.4565"/><text fill="#FFFFFF" font-family="Verdana" font-size="14" lengthAdjust="spacing" textLength="51.5156" x="154.6707" y="299.5317">\u000B</text><path d="M59,327.4712 L59,353.2705 A0,0 0 0 0 59,353.2705 L301.8569,353.2705 A0,0 0 0 0 301.8569,353.2705 L301.8569,337.4712 L291.8569,327.4712 L184.4285,327.4712 L180.4285,307.4712 L176.4285,327.4712 L59,327.4712 A0,0 0 0 0 59,327.4712" fill="#0B58A8" style="stroke:#FFFFFF;stroke-width:1;"/><path d="M291.8569,327.4712 L291.8569,337.4712 L301.8569,337.4712 L291.8569,327.4712" fill="#0B58A8" style="stroke:#FFFFFF;stroke-width:1;"/><text fill="#FFFFFF" font-family="Verdana" font-size="13" lengthAdjust="spacing" textLength="212.7163" x="69.5703" y="345.541">U+000B VERTICAL TABULATION</text><line style="stroke:#FFFFFF;stroke-width:1.5;" x1="59" x2="149.6707" y1="293.9639" y2="293.9639"/><path d="M102.3353,293.9639 L102.3353,290.9639 L108.3353,293.9639 L102.3353,296.9639 L102.3353,293.9639" fill="#FFFFFF"/><line style="stroke:#FFFFFF;stroke-width:1.5;" x1="211.1863" x2="301.8569" y1="293.9639" y2="293.9639"/><path d="M254.5216,293.9639 L254.5216,290.9639 L260.5216,293.9639 L254.5216,296.9639 L254.5216,293.9639" fill="#FFFFFF"/><path d="M47,281.9639 C47,290.9639 50,293.9639 59,293.9639" fill="none" style="stroke:#FFFFFF;stroke-width:1.5;"/><line style="stroke:#FFFFFF;stroke-width:1.5;" x1="301.8569" x2="323.8896" y1="293.9639" y2="293.9639"/><path d="M335.8896,281.9639 C335.8896,290.9639 332.8896,293.9639 323.8896,293.9639" fill="none" style="stroke:#FFFFFF;stroke-width:1.5;"/><rect fill="none" height="27.0146" style="stroke:#FFFFFF;stroke-width:0.5;" width="21.2793" x="130.8269" y="363.2705"/><text fill="#FFFFFF" font-family="Verdana" font-size="14" lengthAdjust="spacing" textLength="11.2793" x="135.8269" y="382.3457">\f</text><path d="M59,410.2852 L59,436.0845 A0,0 0 0 0 59,436.0845 L223.9331,436.0845 A0,0 0 0 0 223.9331,436.0845 L223.9331,420.2852 L213.9331,410.2852 L145.4666,410.2852 L141.4666,390.2852 L137.4666,410.2852 L59,410.2852 A0,0 0 0 0 59,410.2852" fill="#0B58A8" style="stroke:#FFFFFF;stroke-width:1;"/><path d="M213.9331,410.2852 L213.9331,420.2852 L223.9331,420.2852 L213.9331,410.2852" fill="#0B58A8" style="stroke:#FFFFFF;stroke-width:1;"/><text fill="#FFFFFF" font-family="Verdana" font-size="13" lengthAdjust="spacing" textLength="134.7925" x="69.5703" y="428.355">U+000C FORM FEED</text><line style="stroke:#FFFFFF;stroke-width:1.5;" x1="59" x2="130.8269" y1="376.7778" y2="376.7778"/><path d="M92.9135,376.7778 L92.9135,373.7778 L98.9135,376.7778 L92.9135,379.7778 L92.9135,376.7778" fill="#FFFFFF"/><line style="stroke:#FFFFFF;stroke-width:1.5;" x1="152.1062" x2="223.9331" y1="376.7778" y2="376.7778"/><path d="M186.0197,376.7778 L186.0197,373.7778 L192.0197,376.7778 L186.0197,379.7778 L186.0197,376.7778" fill="#FFFFFF"/><path d="M47,364.7778 C47,373.7778 50,376.7778 59,376.7778" fill="none" style="stroke:#FFFFFF;stroke-width:1.5;"/><line style="stroke:#FFFFFF;stroke-width:1.5;" x1="223.9331" x2="323.8896" y1="376.7778" y2="376.7778"/><path d="M271.9114,376.7778 L271.9114,373.7778 L277.9114,376.7778 L271.9114,379.7778 L271.9114,376.7778" fill="#FFFFFF"/><path d="M335.8896,364.7778 C335.8896,373.7778 332.8896,376.7778 323.8896,376.7778" fill="none" style="stroke:#FFFFFF;stroke-width:1.5;"/><rect fill="none" height="27.0146" style="stroke:#FFFFFF;stroke-width:0.5;" width="22.332" x="156.0815" y="446.0845"/><text fill="#FFFFFF" font-family="Verdana" font-size="14" lengthAdjust="spacing" textLength="12.332" x="161.0815" y="465.1597">\r</text><path d="M59,493.0991 L59,518.8984 A0,0 0 0 0 59,518.8984 L275.4951,518.8984 A0,0 0 0 0 275.4951,518.8984 L275.4951,503.0991 L265.4951,493.0991 L171.2476,493.0991 L167.2476,473.0991 L163.2476,493.0991 L59,493.0991 A0,0 0 0 0 59,493.0991" fill="#0B58A8" style="stroke:#FFFFFF;stroke-width:1;"/><path d="M265.4951,493.0991 L265.4951,503.0991 L275.4951,503.0991 L265.4951,493.0991" fill="#0B58A8" style="stroke:#FFFFFF;stroke-width:1;"/><text fill="#FFFFFF" font-family="Verdana" font-size="13" lengthAdjust="spacing" textLength="186.3545" x="69.5703" y="511.1689">U+000D CARRIAGE RETURN</text><line style="stroke:#FFFFFF;stroke-width:1.5;" x1="59" x2="156.0815" y1="459.5918" y2="459.5918"/><path d="M105.5408,459.5918 L105.5408,456.5918 L111.5408,459.5918 L105.5408,462.5918 L105.5408,459.5918" fill="#FFFFFF"/><line style="stroke:#FFFFFF;stroke-width:1.5;" x1="178.4136" x2="275.4951" y1="459.5918" y2="459.5918"/><path d="M224.9543,459.5918 L224.9543,456.5918 L230.9543,459.5918 L224.9543,462.5918 L224.9543,459.5918" fill="#FFFFFF"/><path d="M47,447.5918 C47,456.5918 50,459.5918 59,459.5918" fill="none" style="stroke:#FFFFFF;stroke-width:1.5;"/><line style="stroke:#FFFFFF;stroke-width:1.5;" x1="275.4951" x2="323.8896" y1="459.5918" y2="459.5918"/><path d="M297.6924,459.5918 L297.6924,456.5918 L303.6924,459.5918 L297.6924,462.5918 L297.6924,459.5918" fill="#FFFFFF"/><path d="M335.8896,447.5918 C335.8896,456.5918 332.8896,459.5918 323.8896,459.5918" fill="none" style="stroke:#FFFFFF;stroke-width:1.5;"/><rect fill="none" height="27.0146" style="stroke:#FFFFFF;stroke-width:0.5;" width="61.6934" x="128.5266" y="528.8984"/><text fill="#FFFFFF" font-family="Verdana" font-size="14" lengthAdjust="spacing" textLength="51.6934" x="133.5266" y="547.9736">\u001C</text><path d="M59,575.9131 L59,601.7124 A0,0 0 0 0 59,601.7124 L259.7466,601.7124 A0,0 0 0 0 259.7466,601.7124 L259.7466,585.9131 L249.7466,575.9131 L163.3733,575.9131 L159.3733,555.9131 L155.3733,575.9131 L59,575.9131 A0,0 0 0 0 59,575.9131" fill="#0B58A8" style="stroke:#FFFFFF;stroke-width:1;"/><path d="M249.7466,575.9131 L249.7466,585.9131 L259.7466,585.9131 L249.7466,575.9131" fill="#0B58A8" style="stroke:#FFFFFF;stroke-width:1;"/><text fill="#FFFFFF" font-family="Verdana" font-size="13" lengthAdjust="spacing" textLength="170.606" x="69.5703" y="593.9829">U+001C FILE SEPARATOR</text><line style="stroke:#FFFFFF;stroke-width:1.5;" x1="59" x2="128.5266" y1="542.4058" y2="542.4058"/><path d="M91.7633,542.4058 L91.7633,539.4058 L97.7633,542.4058 L91.7633,545.4058 L91.7633,542.4058" fill="#FFFFFF"/><line style="stroke:#FFFFFF;stroke-width:1.5;" x1="190.22" x2="259.7466" y1="542.4058" y2="542.4058"/><path d="M222.9833,542.4058 L222.9833,539.4058 L228.9833,542.4058 L222.9833,545.4058 L222.9833,542.4058" fill="#FFFFFF"/><path d="M47,530.4058 C47,539.4058 50,542.4058 59,542.4058" fill="none" style="stroke:#FFFFFF;stroke-width:1.5;"/><line style="stroke:#FFFFFF;stroke-width:1.5;" x1="259.7466" x2="323.8896" y1="542.4058" y2="542.4058"/><path d="M289.8181,542.4058 L289.8181,539.4058 L295.8181,542.4058 L289.8181,545.4058 L289.8181,542.4058" fill="#FFFFFF"/><path d="M335.8896,530.4058 C335.8896,539.4058 332.8896,542.4058 323.8896,542.4058" fill="none" style="stroke:#FFFFFF;stroke-width:1.5;"/><rect fill="none" height="27.0146" style="stroke:#FFFFFF;stroke-width:0.5;" width="62.7051" x="137.6438" y="611.7124"/><text fill="#FFFFFF" font-family="Verdana" font-size="14" lengthAdjust="spacing" textLength="52.7051" x="142.6438" y="630.7876">\u001D</text><path d="M59,658.7271 L59,684.5264 A0,0 0 0 0 59,684.5264 L278.9927,684.5264 A0,0 0 0 0 278.9927,684.5264 L278.9927,668.7271 L268.9927,658.7271 L172.9963,658.7271 L168.9963,638.7271 L164.9963,658.7271 L59,658.7271 A0,0 0 0 0 59,658.7271" fill="#0B58A8" style="stroke:#FFFFFF;stroke-width:1;"/><path d="M268.9927,658.7271 L268.9927,668.7271 L278.9927,668.7271 L268.9927,658.7271" fill="#0B58A8" style="stroke:#FFFFFF;stroke-width:1;"/><text fill="#FFFFFF" font-family="Verdana" font-size="13" lengthAdjust="spacing" textLength="189.8521" x="69.5703" y="676.7969">U+001D GROUP SEPARATOR</text><line style="stroke:#FFFFFF;stroke-width:1.5;" x1="59" x2="137.6438" y1="625.2197" y2="625.2197"/><path d="M96.3219,625.2197 L96.3219,622.2197 L102.3219,625.2197 L96.3219,628.2197 L96.3219,625.2197" fill="#FFFFFF"/><line style="stroke:#FFFFFF;stroke-width:1.5;" x1="200.3489" x2="278.9927" y1="625.2197" y2="625.2197"/><path d="M237.6708,625.2197 L237.6708,622.2197 L243.6708,625.2197 L237.6708,628.2197 L237.6708,625.2197" fill="#FFFFFF"/><path d="M47,613.2197 C47,622.2197 50,625.2197 59,625.2197" fill="none" style="stroke:#FFFFFF;stroke-width:1.5;"/><line style="stroke:#FFFFFF;stroke-width:1.5;" x1="278.9927" x2="323.8896" y1="625.2197" y2="625.2197"/><path d="M299.4412,625.2197 L299.4412,622.2197 L305.4412,625.2197 L299.4412,628.2197 L299.4412,625.2197" fill="#FFFFFF"/><path d="M335.8896,613.2197 C335.8896,622.2197 332.8896,625.2197 323.8896,625.2197" fill="none" style="stroke:#FFFFFF;stroke-width:1.5;"/><rect fill="none" height="27.0146" style="stroke:#FFFFFF;stroke-width:0.5;" width="60.7705" x="142.1721" y="694.5264"/><text fill="#FFFFFF" font-family="Verdana" font-size="14" lengthAdjust="spacing" textLength="50.7705" x="147.1721" y="713.6016">\u001E</text><path d="M59,741.541 L59,767.3403 A0,0 0 0 0 59,767.3403 L286.1147,767.3403 A0,0 0 0 0 286.1147,767.3403 L286.1147,751.541 L276.1147,741.541 L176.5574,741.541 L172.5574,721.541 L168.5574,741.541 L59,741.541 A0,0 0 0 0 59,741.541" fill="#0B58A8" style="stroke:#FFFFFF;stroke-width:1;"/><path d="M276.1147,741.541 L276.1147,751.541 L286.1147,751.541 L276.1147,741.541" fill="#0B58A8" style="stroke:#FFFFFF;stroke-width:1;"/><text fill="#FFFFFF" font-family="Verdana" font-size="13" lengthAdjust="spacing" textLength="196.9741" x="69.5703" y="759.6108">U+001E RECORD SEPARATOR</text><line style="stroke:#FFFFFF;stroke-width:1.5;" x1="59" x2="142.1721" y1="708.0337" y2="708.0337"/><path d="M98.5861,708.0337 L98.5861,705.0337 L104.5861,708.0337 L98.5861,711.0337 L98.5861,708.0337" fill="#FFFFFF"/><line style="stroke:#FFFFFF;stroke-width:1.5;" x1="202.9426" x2="286.1147" y1="708.0337" y2="708.0337"/><path d="M242.5287,708.0337 L242.5287,705.0337 L248.5287,708.0337 L242.5287,711.0337 L242.5287,708.0337" fill="#FFFFFF"/><path d="M47,696.0337 C47,705.0337 50,708.0337 59,708.0337" fill="none" style="stroke:#FFFFFF;stroke-width:1.5;"/><line style="stroke:#FFFFFF;stroke-width:1.5;" x1="286.1147" x2="323.8896" y1="708.0337" y2="708.0337"/><path d="M303.0022,708.0337 L303.0022,705.0337 L309.0022,708.0337 L303.0022,711.0337 L303.0022,708.0337" fill="#FFFFFF"/><path d="M335.8896,696.0337 C335.8896,705.0337 332.8896,708.0337 323.8896,708.0337" fill="none" style="stroke:#FFFFFF;stroke-width:1.5;"/><rect fill="none" height="27.0146" style="stroke:#FFFFFF;stroke-width:0.5;" width="59.9639" x="130.7498" y="777.3403"/><text fill="#FFFFFF" font-family="Verdana" font-size="14" lengthAdjust="spacing" textLength="49.9639" x="135.7498" y="796.4155">\u001F</text><path d="M59,824.355 L59,850.1543 A0,0 0 0 0 59,850.1543 L262.4634,850.1543 A0,0 0 0 0 262.4634,850.1543 L262.4634,834.355 L252.4634,824.355 L164.7317,824.355 L160.7317,804.355 L156.7317,824.355 L59,824.355 A0,0 0 0 0 59,824.355" fill="#0B58A8" style="stroke:#FFFFFF;stroke-width:1;"/><path d="M252.4634,824.355 L252.4634,834.355 L262.4634,834.355 L252.4634,824.355" fill="#0B58A8" style="stroke:#FFFFFF;stroke-width:1;"/><text fill="#FFFFFF" font-family="Verdana" font-size="13" lengthAdjust="spacing" textLength="173.3228" x="69.5703" y="842.4248">U+001F UNIT SEPARATOR</text><line style="stroke:#FFFFFF;stroke-width:1.5;" x1="59" x2="130.7498" y1="790.8477" y2="790.8477"/><path d="M92.8749,790.8477 L92.8749,787.8477 L98.8749,790.8477 L92.8749,793.8477 L92.8749,790.8477" fill="#FFFFFF"/><line style="stroke:#FFFFFF;stroke-width:1.5;" x1="190.7136" x2="262.4634" y1="790.8477" y2="790.8477"/><path d="M224.5885,790.8477 L224.5885,787.8477 L230.5885,790.8477 L224.5885,793.8477 L224.5885,790.8477" fill="#FFFFFF"/><path d="M47,778.8477 C47,787.8477 50,790.8477 59,790.8477" fill="none" style="stroke:#FFFFFF;stroke-width:1.5;"/><line style="stroke:#FFFFFF;stroke-width:1.5;" x1="262.4634" x2="323.8896" y1="790.8477" y2="790.8477"/><path d="M291.1765,790.8477 L291.1765,787.8477 L297.1765,790.8477 L291.1765,793.8477 L291.1765,790.8477" fill="#FFFFFF"/><path d="M335.8896,778.8477 C335.8896,787.8477 332.8896,790.8477 323.8896,790.8477" fill="none" style="stroke:#FFFFFF;stroke-width:1.5;"/><rect fill="none" height="27.0146" style="stroke:#FFFFFF;stroke-width:0.5;" width="15.0928" x="120.8757" y="860.1543"/><text fill="#FFFFFF" font-family="Verdana" font-size="14" lengthAdjust="spacing" textLength="5.0928" x="125.8757" y="879.2295">,</text><path d="M59,907.1689 L59,932.9683 A0,0 0 0 0 59,932.9683 L197.8442,932.9683 A0,0 0 0 0 197.8442,932.9683 L197.8442,917.1689 L187.8442,907.1689 L132.4221,907.1689 L128.4221,887.1689 L124.4221,907.1689 L59,907.1689 A0,0 0 0 0 59,907.1689" fill="#0B58A8" style="stroke:#FFFFFF;stroke-width:1;"/><path d="M187.8442,907.1689 L187.8442,917.1689 L197.8442,917.1689 L187.8442,907.1689" fill="#0B58A8" style="stroke:#FFFFFF;stroke-width:1;"/><text fill="#FFFFFF" font-family="Verdana" font-size="13" lengthAdjust="spacing" textLength="108.7036" x="69.5703" y="925.2388">U+002C COMMA</text><line style="stroke:#FFFFFF;stroke-width:1.5;" x1="59" x2="120.8757" y1="873.6616" y2="873.6616"/><path d="M87.9379,873.6616 L87.9379,870.6616 L93.9379,873.6616 L87.9379,876.6616 L87.9379,873.6616" fill="#FFFFFF"/><line style="stroke:#FFFFFF;stroke-width:1.5;" x1="135.9685" x2="197.8442" y1="873.6616" y2="873.6616"/><path d="M164.9064,873.6616 L164.9064,870.6616 L170.9064,873.6616 L164.9064,876.6616 L164.9064,873.6616" fill="#FFFFFF"/><path d="M47,861.6616 C47,870.6616 50,873.6616 59,873.6616" fill="none" style="stroke:#FFFFFF;stroke-width:1.5;"/><line style="stroke:#FFFFFF;stroke-width:1.5;" x1="197.8442" x2="323.8896" y1="873.6616" y2="873.6616"/><path d="M258.8669,873.6616 L258.8669,870.6616 L264.8669,873.6616 L258.8669,876.6616 L258.8669,873.6616" fill="#FFFFFF"/><path d="M335.8896,861.6616 C335.8896,870.6616 332.8896,873.6616 323.8896,873.6616" fill="none" style="stroke:#FFFFFF;stroke-width:1.5;"/><rect fill="#0B58A8" height="27.0146" rx="5" ry="5" style="stroke:#FFFFFF;stroke-width:1.5;" width="78.2227" x="59" y="942.9683"/><text fill="#FFFFFF" font-family="Verdana" font-size="14" lengthAdjust="spacing" textLength="68.2227" x="64" y="962.0435">Comment</text><line style="stroke:#FFFFFF;stroke-width:1.5;" x1="137.2227" x2="323.8896" y1="956.4756" y2="956.4756"/><path d="M228.5562,956.4756 L228.5562,953.4756 L234.5562,956.4756 L228.5562,959.4756 L228.5562,956.4756" fill="#FFFFFF"/><path d="M47,944.4756 C47,953.4756 50,956.4756 59,956.4756" fill="none" style="stroke:#FFFFFF;stroke-width:1.5;"/><line style="stroke:#FFFFFF;stroke-width:1.5;" x1="47" x2="47" y1="57.522" y2="944.4756"/><path d="M35,45.522 C44,45.522 47,48.522 47,57.522" fill="none" style="stroke:#FFFFFF;stroke-width:1.5;"/><path d="M335.8896,944.4756 C335.8896,953.4756 332.8896,956.4756 323.8896,956.4756" fill="none" style="stroke:#FFFFFF;stroke-width:1.5;"/><line style="stroke:#FFFFFF;stroke-width:1.5;" x1="335.8896" x2="335.8896" y1="57.522" y2="944.4756"/><path d="M335.8896,57.522 C335.8896,48.522 338.8896,45.522 347.8896,45.522" fill="none" style="stroke:#FFFFFF;stroke-width:1.5;"/><ellipse cx="9" cy="45.522" fill="none" rx="4" ry="4" style="stroke:#FFFFFF;stroke-width:2;"/><ellipse cx="377.8896" cy="45.522" fill="#FFFFFF" rx="4" ry="4" style="stroke:#FFFFFF;stroke-width:1;"/><line style="stroke:#FFFFFF;stroke-width:1.5;" x1="13" x2="35" y1="45.522" y2="45.522"/><line style="stroke:#FFFFFF;stroke-width:1.5;" x1="347.8896" x2="373.8896" y1="45.522" y2="45.522"/><path d="M358.8896,45.522 L358.8896,42.522 L364.8896,45.522 L358.8896,48.522 L358.8896,45.522" fill="#FFFFFF"/><!--SRC=[xLTjS-8s4FxkNx5DloJNtjMGevFGQoV6c8JKOCOskPbElmXx0JL6ucIPEzhclrSsBxQ3EV92lvqPC-FLypnQxwvMybKiYP0uOcFjEpd56GAPqGdHj8zJAj6Ram3XLpXHl-mwVGF37tIzheCtC4mBtfnfa5__micVygG8r2_Xnd6xVpXztx31Drf3s_2xJh-2oCf40-nktuAEPRKhm8b2j4wsu1RSMQxVDG_DCIxFOKB7SNlxvX1bS1jCmtMxnhK5hkKFtNwrMpLpwrPDwNTj2pnhOBY6xxXx6EsSqOPhrnaE3bAid9AwOpfk-o2datCwCEnt_QynVdoKS1DCfzSpTe0cdysGoQBn5-qAMPYLb7QLbzVg-X3BPOI_ARpWNC8_6R55Wlk9u0aBJHvn0T_hhSQ5SP6DTJYJQsidkxRMFb7LUeSY98nanflb78LDsVq6tpREwuriI5bnLoMr-bCQt3ECOwXbjXuH4yeWfJseE-H1ahxWsjE0p2NbRFtqM47Fh0_P_rYz7eed0AT8mYS19PKHRd5f13pwDqAzVe2PtcbqvpV5cNPY_YYwrPdmqkp1Y4VXMfZnSEDJZtoXisJsaOPo2kUwlaO87AD05k3_CNsCSoA8v4UL_V3JkaYr-9woT88P64BmppQF8Zhdyx9s3jfNnpcYZMEIH7AdV7SGFSvud7RVS8irUI8eYWBMfcECLDOzgMA0awNAHimZ6XOW0xNyQ43dXCa12KFA9b3J2-CUVahIvAHIQG6rk519slU2tfI4_7CgCYPHZ8MHOOmjb6GLIIaIB0Kla7H1vJ9Bqlx5tYBYSTQgtAdk2JiXVIWc9fsEY9K3k-moz4k6saIhKHergGWY3CsfUWeswxkgi7Qo1k2Ia2OnN9O58w8Mwu6u72S8sLI6b8AE4ebxGl4K3K-zE7AfkktBH3fvQtmsjz14dizDzmUrNkupUdcJAEAw0MS3bGqomH9oMvHxChMZ8UY2oDTgg5YfIWjVfvAC8XgyMABFNrelpkWlvVsglYkg-A7KgVA87wdYFRa9__CMLrbZK-n6jT9NUrMradaq9UjeIjsZAVLVgQIs4fF4k1BqdzbbldstVFjkES9too1I1wPXpuO5YZWzyDVUrVLwuztxKuz8k4qOr2-WTjxKBvlr1fYMvqCwVgQTNWziYDMUh-elfF5girK2PzejMH1m4oRf39lWp97Tjd_V6C1Y2oeuotowlUlbW9_VlsrHgSvfGha2TprjVK1KZ82d9vGc3FtEsmlD9coIg0RQ16IQEdKmAPPgpFiF]--></g></svg>