<svg xmlns="http://www.w3.org/2000/svg" xmlns:xlink="http://www.w3.org/1999/xlink" contentStyleType="text/css" data-diagram-type="EBNF" height="375px" preserveAspectRatio="none" style="width:581px;height:375px;background:#0B58A8;" version="1.1" viewBox="0 0 581 375" width="581px" zoomAndPan="magnify"><defs/><g><rect fill="#0B58A8" height="375" style="stroke:none;stroke-width:1;" width="581" x="0" y="0"/><text fill="#FFFFFF" font-family="Verdana" font-size="14" font-weight="bold" lengthAdjust="spacing" textLength="32.4092" x="5" y="19.0752">Map</text><line style="stroke:#FFFFFF;stroke-width:1.5;" x1="35" x2="35" y1="45.522" y2="45.522"/><line style="stroke:#FFFFFF;stroke-width:1.5;" x1="35" x2="241.5967" y1="45.522" y2="45.522"/><path d="M115.6387,45.522 L115.6387,42.522 L121.6387,45.522 L115.6387,48.522 L115.6387,45.522" fill="#FFFFFF"/><path d="M35,45.522 C44,45.522 47,48.2756 47,57.2756 C47,66.2756 50,69.0293 59,69.0293" fill="none" style="stroke:#FFFFFF;stroke-width:1.5;"/><path d="M217.5967,69.0293 C226.5967,69.0293 229.5967,66.2756 229.5967,57.2756 C229.5967,48.2756 232.5967,45.522 241.5967,45.522" fill="none" style="stroke:#FFFFFF;stroke-width:1.5;"/><line style="stroke:#FFFFFF;stroke-width:1.5;" x1="59" x2="59" y1="69.0293" y2="69.0293"/><rect fill="none" height="27.0146" style="stroke:#FFFFFF;stroke-width:0.5;" width="27.8145" x="59" y="55.522"/><text fill="#FFFFFF" font-family="Verdana" font-size="14" lengthAdjust="spacing" textLength="17.8145" x="64" y="74.5972">#:</text><line style="stroke:#FFFFFF;stroke-width:1.5;" x1="86.8145" x2="106.8145" y1="69.0293" y2="69.0293"/><rect fill="#0B58A8" height="27.0146" rx="5" ry="5" style="stroke:#FFFFFF;stroke-width:1.5;" width="110.7822" x="106.8145" y="55.522"/><text fill="#FFFFFF" font-family="Verdana" font-size="14" lengthAdjust="spacing" textLength="100.7822" x="111.8145" y="74.5972">KeywordPrefix</text><line style="stroke:#FFFFFF;stroke-width:1.5;" x1="241.5967" x2="261.5967" y1="45.522" y2="45.522"/><rect fill="none" height="27.0146" style="stroke:#FFFFFF;stroke-width:0.5;" width="18.8867" x="261.5967" y="32.0146"/><text fill="#FFFFFF" font-family="Verdana" font-size="14" lengthAdjust="spacing" textLength="8.8867" x="266.5967" y="51.0898">{</text><line style="stroke:#FFFFFF;stroke-width:1.5;" x1="280.4834" x2="300.4834" y1="45.522" y2="45.522"/><line style="stroke:#FFFFFF;stroke-width:1.5;" x1="300.4834" x2="502.9014" y1="45.522" y2="45.522"/><path d="M379.4506,45.522 L379.4506,42.522 L385.4506,45.522 L379.4506,48.522 L379.4506,45.522" fill="#FFFFFF"/><path d="M300.4834,45.522 C309.4834,45.522 312.4834,54.2756 312.4834,63.2756 C312.4834,72.2756 315.4834,81.0293 324.4834,81.0293" fill="none" style="stroke:#FFFFFF;stroke-width:1.5;"/><path d="M478.9014,81.0293 C487.9014,81.0293 490.9014,72.2756 490.9014,63.2756 C490.9014,54.2756 493.9014,45.522 502.9014,45.522" fill="none" style="stroke:#FFFFFF;stroke-width:1.5;"/><path d="M332.4834,73.0293 C332.4834,79.0293 334.4834,81.0293 340.4834,81.0293" fill="none" style="stroke:#FFFFFF;stroke-width:1.5;"/><line style="stroke:#FFFFFF;stroke-width:1.5;" x1="332.4834" x2="332.4834" y1="68.522" y2="73.0293"/><path d="M332.4834,68.522 C332.4834,62.522 334.4834,60.522 340.4834,60.522" fill="none" style="stroke:#FFFFFF;stroke-width:1.5;"/><line style="stroke:#FFFFFF;stroke-width:1.5;" x1="339.4834" x2="463.9014" y1="60.522" y2="60.522"/><path d="M412.1342,60.522 L412.1342,57.522 L406.1342,60.522 L412.1342,63.522 L412.1342,60.522" fill="#FFFFFF"/><path d="M470.9014,73.0293 C470.9014,79.0293 468.9014,81.0293 462.9014,81.0293" fill="none" style="stroke:#FFFFFF;stroke-width:1.5;"/><line style="stroke:#FFFFFF;stroke-width:1.5;" x1="470.9014" x2="470.9014" y1="68.522" y2="73.0293"/><path d="M462.9014,60.522 C468.9014,60.522 470.9014,62.522 470.9014,68.522" fill="none" style="stroke:#FFFFFF;stroke-width:1.5;"/><line style="stroke:#FFFFFF;stroke-width:1.5;" x1="324.4834" x2="339.4834" y1="81.0293" y2="81.0293"/><line style="stroke:#FFFFFF;stroke-width:1.5;" x1="463.9014" x2="478.9014" y1="81.0293" y2="81.0293"/><rect fill="#0B58A8" height="27.0146" rx="5" ry="5" style="stroke:#FFFFFF;stroke-width:1.5;" width="65.4189" x="363.4834" y="67.522"/><text fill="#FFFFFF" font-family="Verdana" font-size="14" lengthAdjust="spacing" textLength="55.4189" x="368.4834" y="86.5972">Spacing</text><line style="stroke:#FFFFFF;stroke-width:1.5;" x1="339.4834" x2="363.4834" y1="81.0293" y2="81.0293"/><line style="stroke:#FFFFFF;stroke-width:1.5;" x1="428.9023" x2="463.9014" y1="81.0293" y2="81.0293"/><rect fill="#0B58A8" height="27.0146" rx="5" ry="5" style="stroke:#FFFFFF;stroke-width:1.5;" width="76.418" x="363.4834" y="104.5366"/><text fill="#FFFFFF" font-family="Verdana" font-size="14" lengthAdjust="spacing" textLength="66.418" x="368.4834" y="123.6118">MapEntry</text><line style="stroke:#FFFFFF;stroke-width:1.5;" x1="439.9014" x2="439.9014" y1="118.0439" y2="118.0439"/><path d="M351.4834,106.0439 C351.4834,115.0439 354.4834,118.0439 363.4834,118.0439" fill="none" style="stroke:#FFFFFF;stroke-width:1.5;"/><line style="stroke:#FFFFFF;stroke-width:1.5;" x1="351.4834" x2="351.4834" y1="93.0293" y2="106.0439"/><path d="M339.4834,81.0293 C348.4834,81.0293 351.4834,84.0293 351.4834,93.0293" fill="none" style="stroke:#FFFFFF;stroke-width:1.5;"/><path d="M451.9014,106.0439 C451.9014,115.0439 448.9014,118.0439 439.9014,118.0439" fill="none" style="stroke:#FFFFFF;stroke-width:1.5;"/><line style="stroke:#FFFFFF;stroke-width:1.5;" x1="451.9014" x2="451.9014" y1="93.0293" y2="106.0439"/><path d="M451.9014,93.0293 C451.9014,84.0293 454.9014,81.0293 463.9014,81.0293" fill="none" style="stroke:#FFFFFF;stroke-width:1.5;"/><line style="stroke:#FFFFFF;stroke-width:1.5;" x1="502.9014" x2="522.9014" y1="45.522" y2="45.522"/><rect fill="none" height="27.0146" style="stroke:#FFFFFF;stroke-width:0.5;" width="18.8867" x="522.9014" y="32.0146"/><text fill="#FFFFFF" font-family="Verdana" font-size="14" lengthAdjust="spacing" textLength="8.8867" x="527.9014" y="51.0898">}</text><ellipse cx="9" cy="45.522" fill="none" rx="4" ry="4" style="stroke:#FFFFFF;stroke-width:2;"/><ellipse cx="571.7881" cy="45.522" fill="#FFFFFF" rx="4" ry="4" style="stroke:#FFFFFF;stroke-width:1;"/><line style="stroke:#FFFFFF;stroke-width:1.5;" x1="13" x2="35" y1="45.522" y2="45.522"/><line style="stroke:#FFFFFF;stroke-width:1.5;" x1="541.7881" x2="567.7881" y1="45.522" y2="45.522"/><path d="M552.7881,45.522 L552.7881,42.522 L558.7881,45.522 L552.7881,48.522 L552.7881,45.522" fill="#FFFFFF"/><text fill="#FFFFFF" font-family="Verdana" font-size="14" font-weight="bold" lengthAdjust="spacing" textLength="74.3955" x="5" y="160.6265">MapEntry</text><line style="stroke:#FFFFFF;stroke-width:1.5;" x1="35" x2="35" y1="187.0732" y2="187.0732"/><rect fill="#0B58A8" height="27.0146" rx="5" ry="5" style="stroke:#FFFFFF;stroke-width:1.5;" width="158.3193" x="35" y="173.5659"/><text fill="#FFFFFF" font-family="Verdana" font-size="14" lengthAdjust="spacing" textLength="148.3193" x="40" y="192.6411">ReadableEdnElement</text><line style="stroke:#FFFFFF;stroke-width:1.5;" x1="193.3193" x2="213.3193" y1="187.0732" y2="187.0732"/><line style="stroke:#FFFFFF;stroke-width:1.5;" x1="213.3193" x2="326.7383" y1="187.0732" y2="187.0732"/><path d="M256.6869,187.0732 L256.6869,184.0732 L262.6869,187.0732 L256.6869,190.0732 L256.6869,187.0732" fill="#FFFFFF"/><path d="M213.3193,187.0732 C222.3193,187.0732 225.3193,189.8269 225.3193,198.8269 C225.3193,207.8269 228.3193,210.5806 237.3193,210.5806" fill="none" style="stroke:#FFFFFF;stroke-width:1.5;"/><path d="M302.7383,210.5806 C311.7383,210.5806 314.7383,207.8269 314.7383,198.8269 C314.7383,189.8269 317.7383,187.0732 326.7383,187.0732" fill="none" style="stroke:#FFFFFF;stroke-width:1.5;"/><rect fill="#0B58A8" height="27.0146" rx="5" ry="5" style="stroke:#FFFFFF;stroke-width:1.5;" width="65.4189" x="237.3193" y="197.0732"/><text fill="#FFFFFF" font-family="Verdana" font-size="14" lengthAdjust="spacing" textLength="55.4189" x="242.3193" y="216.1484">Spacing</text><line style="stroke:#FFFFFF;stroke-width:1.5;" x1="326.7383" x2="346.7383" y1="187.0732" y2="187.0732"/><rect fill="#0B58A8" height="27.0146" rx="5" ry="5" style="stroke:#FFFFFF;stroke-width:1.5;" width="158.3193" x="346.7383" y="173.5659"/><text fill="#FFFFFF" font-family="Verdana" font-size="14" lengthAdjust="spacing" textLength="148.3193" x="351.7383" y="192.6411">ReadableEdnElement</text><ellipse cx="9" cy="187.0732" fill="none" rx="4" ry="4" style="stroke:#FFFFFF;stroke-width:2;"/><ellipse cx="535.0576" cy="187.0732" fill="#FFFFFF" rx="4" ry="4" style="stroke:#FFFFFF;stroke-width:1;"/><line style="stroke:#FFFFFF;stroke-width:1.5;" x1="13" x2="35" y1="187.0732" y2="187.0732"/><line style="stroke:#FFFFFF;stroke-width:1.5;" x1="505.0576" x2="531.0576" y1="187.0732" y2="187.0732"/><path d="M516.0576,187.0732 L516.0576,184.0732 L522.0576,187.0732 L516.0576,190.0732 L516.0576,187.0732" fill="#FFFFFF"/><text fill="#FFFFFF" font-family="Verdana" font-size="14" font-weight="bold" lengthAdjust="spacing" textLength="166.0449" x="5" y="253.1631">ReadableEdnElement</text><line style="stroke:#FFFFFF;stroke-width:1.5;" x1="59" x2="59" y1="279.6099" y2="279.6099"/><rect fill="#0B58A8" height="27.0146" rx="5" ry="5" style="stroke:#FFFFFF;stroke-width:1.5;" width="93.8018" x="59" y="266.1025"/><text fill="#FFFFFF" font-family="Verdana" font-size="14" lengthAdjust="spacing" textLength="83.8018" x="64" y="285.1777">EdnElement</text><line style="stroke:#FFFFFF;stroke-width:1.5;" x1="152.8018" x2="172.8018" y1="279.6099" y2="279.6099"/><text fill="#FFFFFF" font-family="Verdana" font-size="14" lengthAdjust="spacing" textLength="30.1191" x="175.8018" y="283.5493">NOT</text><rect fill="#0B58A8" height="27.0146" rx="5" ry="5" style="stroke:#FFFFFF;stroke-width:1.5;" width="130.6475" x="210.9209" y="266.1025"/><text fill="#FFFFFF" font-family="Verdana" font-size="14" lengthAdjust="spacing" textLength="120.6475" x="215.9209" y="285.1777">DiscardSequence</text><line style="stroke:#FFFFFF;stroke-width:1.5;" x1="35" x2="59" y1="279.6099" y2="279.6099"/><line style="stroke:#FFFFFF;stroke-width:1.5;" x1="341.5684" x2="525.3857" y1="279.6099" y2="279.6099"/><line style="stroke:#FFFFFF;stroke-width:1.5;" x1="59" x2="59" y1="316.6245" y2="316.6245"/><rect fill="#0B58A8" height="27.0146" rx="5" ry="5" style="stroke:#FFFFFF;stroke-width:1.5;" width="130.6475" x="59" y="303.1172"/><text fill="#FFFFFF" font-family="Verdana" font-size="14" lengthAdjust="spacing" textLength="120.6475" x="64" y="322.1924">DiscardSequence</text><line style="stroke:#FFFFFF;stroke-width:1.5;" x1="189.6475" x2="209.6475" y1="316.6245" y2="316.6245"/><line style="stroke:#FFFFFF;stroke-width:1.5;" x1="209.6475" x2="323.0664" y1="316.6245" y2="316.6245"/><path d="M253.015,316.6245 L253.015,313.6245 L259.015,316.6245 L253.015,319.6245 L253.015,316.6245" fill="#FFFFFF"/><path d="M209.6475,316.6245 C218.6475,316.6245 221.6475,319.3782 221.6475,328.3782 C221.6475,337.3782 224.6475,340.1318 233.6475,340.1318" fill="none" style="stroke:#FFFFFF;stroke-width:1.5;"/><path d="M299.0664,340.1318 C308.0664,340.1318 311.0664,337.3782 311.0664,328.3782 C311.0664,319.3782 314.0664,316.6245 323.0664,316.6245" fill="none" style="stroke:#FFFFFF;stroke-width:1.5;"/><rect fill="#0B58A8" height="27.0146" rx="5" ry="5" style="stroke:#FFFFFF;stroke-width:1.5;" width="65.4189" x="233.6475" y="326.6245"/><text fill="#FFFFFF" font-family="Verdana" font-size="14" lengthAdjust="spacing" textLength="55.4189" x="238.6475" y="345.6997">Spacing</text><line style="stroke:#FFFFFF;stroke-width:1.5;" x1="323.0664" x2="343.0664" y1="316.6245" y2="316.6245"/><rect fill="#0B58A8" height="27.0146" rx="5" ry="5" style="stroke:#FFFFFF;stroke-width:1.5;" width="158.3193" x="343.0664" y="303.1172"/><text fill="#FFFFFF" font-family="Verdana" font-size="14" lengthAdjust="spacing" textLength="148.3193" x="348.0664" y="322.1924">ReadableEdnElement</text><line style="stroke:#FFFFFF;stroke-width:1.5;" x1="501.3857" x2="501.3857" y1="316.6245" y2="316.6245"/><path d="M47,304.6245 C47,313.6245 50,316.6245 59,316.6245" fill="none" style="stroke:#FFFFFF;stroke-width:1.5;"/><line style="stroke:#FFFFFF;stroke-width:1.5;" x1="47" x2="47" y1="291.6099" y2="304.6245"/><path d="M35,279.6099 C44,279.6099 47,282.6099 47,291.6099" fill="none" style="stroke:#FFFFFF;stroke-width:1.5;"/><path d="M513.3857,304.6245 C513.3857,313.6245 510.3857,316.6245 501.3857,316.6245" fill="none" style="stroke:#FFFFFF;stroke-width:1.5;"/><line style="stroke:#FFFFFF;stroke-width:1.5;" x1="513.3857" x2="513.3857" y1="291.6099" y2="304.6245"/><path d="M513.3857,291.6099 C513.3857,282.6099 516.3857,279.6099 525.3857,279.6099" fill="none" style="stroke:#FFFFFF;stroke-width:1.5;"/><ellipse cx="9" cy="279.6099" fill="none" rx="4" ry="4" style="stroke:#FFFFFF;stroke-width:2;"/><ellipse cx="555.3857" cy="279.6099" fill="#FFFFFF" rx="4" ry="4" style="stroke:#FFFFFF;stroke-width:1;"/><line style="stroke:#FFFFFF;stroke-width:1.5;" x1="13" x2="35" y1="279.6099" y2="279.6099"/><line style="stroke:#FFFFFF;stroke-width:1.5;" x1="525.3857" x2="551.3857" y1="279.6099" y2="279.6099"/><path d="M536.3857,279.6099 L536.3857,276.6099 L542.3857,279.6099 L536.3857,282.6099 L536.3857,279.6099" fill="#FFFFFF"/><!--SRC=[xLRRSjf847tNL_GwBtRLEi4uR3aatZ9Wl8a33cNPpaDg7nfD0xE86UreXCqw_FlsYAiiaVZ2lgsge4ezfq-FJbzcJcABnb9NzRnVx81613YIVVJQ6C4nV8ETLzKT-1K-q-HM6z4nr9Dty2TRTkwT_Hxy20Ef-l0TsAMfh9d0r2rFT-2zvorjnt19AB0RKbEePiY1b6NOjwM_uoo0C4U1zHXsOUrr7qvb7A0HFlsTa0e8zZp8Fzzpi4Tju8IKI0NoJbPYpPuFiPs4z3i7CrfRk4-ZrZ4OzerEb6ZeK1juLQfNZcf7wTgPLdPkFKkVfVK2MViRCW8LfiQFauXCIwhX0dzQEonNqYMsKfx5MQy6CXWgYcCuI6rjD7sfmBbD-ITqaAHVDTjfW96LMitV7ZAKKkiq_U_nvv5v17302ZuAQAKDQObp2lZo7u9o-IUUxkVKZJwkHyff_a3TuapuBdlGrQ6O4oij5djguvqS9QElKjW179PASmGt01bNE_z5-9WYD6ZrLca_l9aNgHSFfN81Hb0pHj-sT1ZAI4TPxXLeKnsl4AVKmoIqkVBD8TfQwPZxZCGIsz29aMJMi2tPev2pxblMWFeJpaQiGodM81rkFnd829Nje12kRGzAQ-kBndPKhe3gFBF8RFf0Vu12tpgI7eOnhQrSnrGdYpCbhKae8rvWvLZQIPgapSrUH_CmQqNRAPu9EKcdwubnuT3CDf3tpaBlKjH2hKfcjI5D499e3FWjMFHtKM7biWPmYK8cCRpB4eR8pVeJNROZGXggPgsHtSJI1YaUm-7pXvEsF6sVHtAs6erFzbqR8a_tTUS3zyimTSyU4kkuJu5M7Su6zYc3N1RbXapbE8mSetqf1sl5bIPUnf9qGnayc-92FxTUldJ_ujtFwhkWYgUPIRLIV4iLxzk5_4zhhYp7ejXhnKm_d5N5J8sjCJMtnlHfQqmNBsJYewI1CSq8hvuuPVw_XHVSmZiX7__NxHQCoSJk-dhmkbmgLrw_tVNHmdcYe7m41uVLqhjgkGADfdy5RdtFs_sZquAOJp2EAMGyEpgOOCyxnp72PQAi754LlaIapay_BmpGL6Dfj78RySvlsYl0Rs_twzBohSFmLk2cxSslE-mHQ7VULk7wwcp_o6kXwYSy3gf0okCpr2M3r_n_0G00]--></g></svg>