<svg xmlns="http://www.w3.org/2000/svg" xmlns:xlink="http://www.w3.org/1999/xlink" contentStyleType="text/css" data-diagram-type="EBNF" height="179px" preserveAspectRatio="none" style="width:1003px;height:179px;background:#0B58A8;" version="1.1" viewBox="0 0 1003 179" width="1003px" zoomAndPan="magnify"><defs/><g><rect fill="#0B58A8" height="179" style="stroke:none;stroke-width:1;" width="1003" x="0" y="0"/><text fill="#FFFFFF" font-family="Verdana" font-size="14" font-weight="bold" lengthAdjust="spacing" textLength="32.4092" x="5" y="19.0752">Map</text><line style="stroke:#FFFFFF;stroke-width:1.5;" x1="35" x2="35" y1="45.522" y2="45.522"/><line style="stroke:#FFFFFF;stroke-width:1.5;" x1="35" x2="282.6875" y1="45.522" y2="45.522"/><path d="M132.075,45.522 L132.075,42.522 L138.075,45.522 L132.075,48.522 L132.075,45.522" fill="#FFFFFF"/><path d="M35,45.522 C44,45.522 47,48.2756 47,57.2756 C47,66.2756 50,69.0293 59,69.0293" fill="none" style="stroke:#FFFFFF;stroke-width:1.5;"/><path d="M258.6875,69.0293 C267.6875,69.0293 270.6875,66.2756 270.6875,57.2756 C270.6875,48.2756 273.6875,45.522 282.6875,45.522" fill="none" style="stroke:#FFFFFF;stroke-width:1.5;"/><line style="stroke:#FFFFFF;stroke-width:1.5;" x1="59" x2="59" y1="69.0293" y2="69.0293"/><rect fill="none" height="27.0146" style="stroke:#FFFFFF;stroke-width:0.5;" width="27.8145" x="59" y="55.522"/><text fill="#FFFFFF" font-family="Verdana" font-size="14" lengthAdjust="spacing" textLength="17.8145" x="64" y="74.5972">#:</text><line style="stroke:#FFFFFF;stroke-width:1.5;" x1="86.8145" x2="106.8145" y1="69.0293" y2="69.0293"/><rect fill="#0B58A8" height="27.0146" rx="5" ry="5" style="stroke:#FFFFFF;stroke-width:1.5;" width="151.873" x="106.8145" y="55.522"/><text fill="#FFFFFF" font-family="Verdana" font-size="14" lengthAdjust="spacing" textLength="141.873" x="111.8145" y="74.5972">KeywordNamespace</text><line style="stroke:#FFFFFF;stroke-width:1.5;" x1="282.6875" x2="302.6875" y1="45.522" y2="45.522"/><rect fill="none" height="27.0146" style="stroke:#FFFFFF;stroke-width:0.5;" width="18.8867" x="302.6875" y="32.0146"/><text fill="#FFFFFF" font-family="Verdana" font-size="14" lengthAdjust="spacing" textLength="8.8867" x="307.6875" y="51.0898">{</text><line style="stroke:#FFFFFF;stroke-width:1.5;" x1="321.5742" x2="341.5742" y1="45.522" y2="45.522"/><line style="stroke:#FFFFFF;stroke-width:1.5;" x1="341.5742" x2="512.3096" y1="45.522" y2="45.522"/><path d="M407.8684,45.522 L407.8684,42.522 L413.8684,45.522 L407.8684,48.522 L407.8684,45.522" fill="#FFFFFF"/><path d="M341.5742,45.522 C350.5742,45.522 353.5742,54.2756 353.5742,63.2756 C353.5742,72.2756 356.5742,81.0293 365.5742,81.0293" fill="none" style="stroke:#FFFFFF;stroke-width:1.5;"/><path d="M488.3096,81.0293 C497.3096,81.0293 500.3096,72.2756 500.3096,63.2756 C500.3096,54.2756 503.3096,45.522 512.3096,45.522" fill="none" style="stroke:#FFFFFF;stroke-width:1.5;"/><path d="M373.5742,73.0293 C373.5742,79.0293 375.5742,81.0293 381.5742,81.0293" fill="none" style="stroke:#FFFFFF;stroke-width:1.5;"/><line style="stroke:#FFFFFF;stroke-width:1.5;" x1="373.5742" x2="373.5742" y1="68.522" y2="73.0293"/><path d="M373.5742,68.522 C373.5742,62.522 375.5742,60.522 381.5742,60.522" fill="none" style="stroke:#FFFFFF;stroke-width:1.5;"/><line style="stroke:#FFFFFF;stroke-width:1.5;" x1="380.5742" x2="473.3096" y1="60.522" y2="60.522"/><path d="M434.2154,60.522 L434.2154,57.522 L428.2154,60.522 L434.2154,63.522 L434.2154,60.522" fill="#FFFFFF"/><path d="M480.3096,73.0293 C480.3096,79.0293 478.3096,81.0293 472.3096,81.0293" fill="none" style="stroke:#FFFFFF;stroke-width:1.5;"/><line style="stroke:#FFFFFF;stroke-width:1.5;" x1="480.3096" x2="480.3096" y1="68.522" y2="73.0293"/><path d="M472.3096,60.522 C478.3096,60.522 480.3096,62.522 480.3096,68.522" fill="none" style="stroke:#FFFFFF;stroke-width:1.5;"/><line style="stroke:#FFFFFF;stroke-width:1.5;" x1="365.5742" x2="380.5742" y1="81.0293" y2="81.0293"/><line style="stroke:#FFFFFF;stroke-width:1.5;" x1="473.3096" x2="488.3096" y1="81.0293" y2="81.0293"/><rect fill="#0B58A8" height="27.0146" rx="5" ry="5" style="stroke:#FFFFFF;stroke-width:1.5;" width="92.7354" x="380.5742" y="67.522"/><text fill="#FFFFFF" font-family="Verdana" font-size="14" lengthAdjust="spacing" textLength="82.7354" x="385.5742" y="86.5972">WhiteSpace</text><line style="stroke:#FFFFFF;stroke-width:1.5;" x1="512.3096" x2="532.3096" y1="45.522" y2="45.522"/><line style="stroke:#FFFFFF;stroke-width:1.5;" x1="532.3096" x2="924.8467" y1="45.522" y2="45.522"/><path d="M687.3244,45.522 L687.3244,42.522 L693.3244,45.522 L687.3244,48.522 L687.3244,45.522" fill="#FFFFFF"/><path d="M532.3096,45.522 C541.3096,45.522 544.3096,67.7756 544.3096,76.7756 C544.3096,85.7756 547.3096,108.0293 556.3096,108.0293" fill="none" style="stroke:#FFFFFF;stroke-width:1.5;"/><path d="M900.8467,108.0293 C909.8467,108.0293 912.8467,85.7756 912.8467,76.7756 C912.8467,67.7756 915.8467,45.522 924.8467,45.522" fill="none" style="stroke:#FFFFFF;stroke-width:1.5;"/><path d="M564.3096,100.0293 C564.3096,106.0293 566.3096,108.0293 572.3096,108.0293" fill="none" style="stroke:#FFFFFF;stroke-width:1.5;"/><line style="stroke:#FFFFFF;stroke-width:1.5;" x1="564.3096" x2="564.3096" y1="68.522" y2="100.0293"/><path d="M564.3096,68.522 C564.3096,62.522 566.3096,60.522 572.3096,60.522" fill="none" style="stroke:#FFFFFF;stroke-width:1.5;"/><line style="stroke:#FFFFFF;stroke-width:1.5;" x1="571.3096" x2="885.8467" y1="60.522" y2="60.522"/><path d="M758.0318,60.522 L758.0318,57.522 L752.0318,60.522 L758.0318,63.522 L758.0318,60.522" fill="#FFFFFF"/><path d="M892.8467,100.0293 C892.8467,106.0293 890.8467,108.0293 884.8467,108.0293" fill="none" style="stroke:#FFFFFF;stroke-width:1.5;"/><line style="stroke:#FFFFFF;stroke-width:1.5;" x1="892.8467" x2="892.8467" y1="68.522" y2="100.0293"/><path d="M884.8467,60.522 C890.8467,60.522 892.8467,62.522 892.8467,68.522" fill="none" style="stroke:#FFFFFF;stroke-width:1.5;"/><line style="stroke:#FFFFFF;stroke-width:1.5;" x1="556.3096" x2="571.3096" y1="108.0293" y2="108.0293"/><line style="stroke:#FFFFFF;stroke-width:1.5;" x1="885.8467" x2="900.8467" y1="108.0293" y2="108.0293"/><path d="M579.3096,100.0293 C579.3096,106.0293 581.3096,108.0293 587.3096,108.0293" fill="none" style="stroke:#FFFFFF;stroke-width:1.5;"/><line style="stroke:#FFFFFF;stroke-width:1.5;" x1="579.3096" x2="579.3096" y1="95.522" y2="100.0293"/><path d="M579.3096,95.522 C579.3096,89.522 581.3096,87.522 587.3096,87.522" fill="none" style="stroke:#FFFFFF;stroke-width:1.5;"/><line style="stroke:#FFFFFF;stroke-width:1.5;" x1="586.3096" x2="870.8467" y1="87.522" y2="87.522"/><path d="M755.0318,87.522 L755.0318,84.522 L749.0318,87.522 L755.0318,90.522 L755.0318,87.522" fill="#FFFFFF"/><path d="M877.8467,100.0293 C877.8467,106.0293 875.8467,108.0293 869.8467,108.0293" fill="none" style="stroke:#FFFFFF;stroke-width:1.5;"/><line style="stroke:#FFFFFF;stroke-width:1.5;" x1="877.8467" x2="877.8467" y1="95.522" y2="100.0293"/><path d="M869.8467,87.522 C875.8467,87.522 877.8467,89.522 877.8467,95.522" fill="none" style="stroke:#FFFFFF;stroke-width:1.5;"/><line style="stroke:#FFFFFF;stroke-width:1.5;" x1="571.3096" x2="586.3096" y1="108.0293" y2="108.0293"/><line style="stroke:#FFFFFF;stroke-width:1.5;" x1="870.8467" x2="885.8467" y1="108.0293" y2="108.0293"/><line style="stroke:#FFFFFF;stroke-width:1.5;" x1="586.3096" x2="586.3096" y1="108.0293" y2="108.0293"/><rect fill="#0B58A8" height="27.0146" rx="5" ry="5" style="stroke:#FFFFFF;stroke-width:1.5;" width="93.8018" x="586.3096" y="94.522"/><text fill="#FFFFFF" font-family="Verdana" font-size="14" lengthAdjust="spacing" textLength="83.8018" x="591.3096" y="113.5972">EdnElement</text><line style="stroke:#FFFFFF;stroke-width:1.5;" x1="680.1113" x2="700.1113" y1="108.0293" y2="108.0293"/><line style="stroke:#FFFFFF;stroke-width:1.5;" x1="700.1113" x2="870.8467" y1="108.0293" y2="108.0293"/><path d="M766.4055,108.0293 L766.4055,105.0293 L772.4055,108.0293 L766.4055,111.0293 L766.4055,108.0293" fill="#FFFFFF"/><path d="M700.1113,108.0293 C709.1113,108.0293 712.1113,116.783 712.1113,125.783 C712.1113,134.783 715.1113,143.5366 724.1113,143.5366" fill="none" style="stroke:#FFFFFF;stroke-width:1.5;"/><path d="M846.8467,143.5366 C855.8467,143.5366 858.8467,134.783 858.8467,125.783 C858.8467,116.783 861.8467,108.0293 870.8467,108.0293" fill="none" style="stroke:#FFFFFF;stroke-width:1.5;"/><path d="M732.1113,135.5366 C732.1113,141.5366 734.1113,143.5366 740.1113,143.5366" fill="none" style="stroke:#FFFFFF;stroke-width:1.5;"/><line style="stroke:#FFFFFF;stroke-width:1.5;" x1="732.1113" x2="732.1113" y1="131.0293" y2="135.5366"/><path d="M732.1113,131.0293 C732.1113,125.0293 734.1113,123.0293 740.1113,123.0293" fill="none" style="stroke:#FFFFFF;stroke-width:1.5;"/><line style="stroke:#FFFFFF;stroke-width:1.5;" x1="739.1113" x2="831.8467" y1="123.0293" y2="123.0293"/><path d="M792.7525,123.0293 L792.7525,120.0293 L786.7525,123.0293 L792.7525,126.0293 L792.7525,123.0293" fill="#FFFFFF"/><path d="M838.8467,135.5366 C838.8467,141.5366 836.8467,143.5366 830.8467,143.5366" fill="none" style="stroke:#FFFFFF;stroke-width:1.5;"/><line style="stroke:#FFFFFF;stroke-width:1.5;" x1="838.8467" x2="838.8467" y1="131.0293" y2="135.5366"/><path d="M830.8467,123.0293 C836.8467,123.0293 838.8467,125.0293 838.8467,131.0293" fill="none" style="stroke:#FFFFFF;stroke-width:1.5;"/><line style="stroke:#FFFFFF;stroke-width:1.5;" x1="724.1113" x2="739.1113" y1="143.5366" y2="143.5366"/><line style="stroke:#FFFFFF;stroke-width:1.5;" x1="831.8467" x2="846.8467" y1="143.5366" y2="143.5366"/><rect fill="#0B58A8" height="27.0146" rx="5" ry="5" style="stroke:#FFFFFF;stroke-width:1.5;" width="92.7354" x="739.1113" y="130.0293"/><text fill="#FFFFFF" font-family="Verdana" font-size="14" lengthAdjust="spacing" textLength="82.7354" x="744.1113" y="149.1045">WhiteSpace</text><path d="M571.3096,82.522 C571.3096,78.772 572.5596,77.522 576.3096,77.522" fill="none" style="stroke:#FFFFFF;stroke-width:0.5;"/><path d="M728.5781,72.522 C728.5781,76.272 727.3281,77.522 723.5781,77.522" fill="none" style="stroke:#FFFFFF;stroke-width:0.5;"/><path d="M728.5781,72.522 C728.5781,76.272 729.8281,77.522 733.5781,77.522" fill="none" style="stroke:#FFFFFF;stroke-width:0.5;"/><path d="M880.8467,77.522 C884.5967,77.522 885.8467,78.772 885.8467,82.522" fill="none" style="stroke:#FFFFFF;stroke-width:0.5;"/><line style="stroke:#FFFFFF;stroke-width:0.5;" x1="576.3096" x2="723.5781" y1="77.522" y2="77.522"/><line style="stroke:#FFFFFF;stroke-width:0.5;" x1="733.5781" x2="880.8467" y1="77.522" y2="77.522"/><text fill="#FFFFFF" font-family="Verdana" font-size="12" lengthAdjust="spacing" textLength="17.4492" x="719.8535" y="70.0415">2&#215;</text><line style="stroke:#FFFFFF;stroke-width:1.5;" x1="924.8467" x2="944.8467" y1="45.522" y2="45.522"/><rect fill="none" height="27.0146" style="stroke:#FFFFFF;stroke-width:0.5;" width="18.8867" x="944.8467" y="32.0146"/><text fill="#FFFFFF" font-family="Verdana" font-size="14" lengthAdjust="spacing" textLength="8.8867" x="949.8467" y="51.0898">}</text><ellipse cx="9" cy="45.522" fill="none" rx="4" ry="4" style="stroke:#FFFFFF;stroke-width:2;"/><ellipse cx="993.7334" cy="45.522" fill="#FFFFFF" rx="4" ry="4" style="stroke:#FFFFFF;stroke-width:1;"/><line style="stroke:#FFFFFF;stroke-width:1.5;" x1="13" x2="35" y1="45.522" y2="45.522"/><line style="stroke:#FFFFFF;stroke-width:1.5;" x1="963.7334" x2="989.7334" y1="45.522" y2="45.522"/><path d="M974.7334,45.522 L974.7334,42.522 L980.7334,45.522 L974.7334,48.522 L974.7334,45.522" fill="#FFFFFF"/><!--SRC=[nLPRKzf057xFhpZ55-rK6r0wI6r7GAWNK4PG7pfzMB87s19sqyq6fGx_lRlBDGQgA9rc9Wmv- -st9z-vvJXKH2fiyRRpJdMnZq3wh4CSfqO2-0BV8RMLJy47kC3XlP3qalGn38Y7y4CRKuzcwH7kkanXmvf7rf21zx0DPShBlgRaAedQiSZKA0MV7USOERKkECTpTyRNKQY6Fdvr0AGG2Xxr7u0YyNeTAI9EIy8N4hRSOZPNoDcrYk1gOgtOQsOrliCjIaeuiSRJOO2oodXlYZyfx6UoTabRCSbYhCqkyteSmn3IrbOZiiCuc6qZVLFXHVQDnvvw951CyCdJKmRNMaVsjwrV3-KBW5qaz4L0nPIFCvnHeC5-8sGop-mqjr4tE5qyAQ7v4tMNHw9XeWSjuTC9CHTqwbEDFB1-rBzZL7LXttKd28bjbCWz_1V7XnWGIPJOAEtHnqcIEc6FSND07mfIYlkgy7qMY23EFGUjokCvuWJR9F9L8dqJY9hWmXOcdM5B8f8CvGAsojhewwWtbDO0EqCTZL3uZ2v0whhycCS2mbMTKCfu1zBkmde3VqKcE8RA951HDmMKgrwmqILKt1kIDl53N5Yv2R68YeoLL3B2c7YUOWEcXZP8gukzIEJJg2rpPtbFI4WwMWoCEOx8iGF9tN7eWqLDrSh6LajCUZxIKbS_UTFwNfPOYQW1N1FAeX0EuuG-qSNwZ2wR4S4ULL1AibQaS8KKB-5ew1T7eNItVHr9PTuQrzwxq4JMtslcWwwNdjqU7nABk3DFyBgE1kbW33bBoXMHId18DY3ghHnQAvrfz6qiKSjdtgifBiLhy-MgzLDxFyxl9LayYdMgkU8RolY6cig_Nd75EQR9NbZEzDTUjPofj36cyiQOpZR6TFb69ZrAIYJ4CM5ppIxpdxvpwxuUi3UrAWnGXkO3CRsNSJFPlRIxtOnG5z00t0D8v_8PDtzm2ALo4ypwZhFzhLw5KCy8pKvPE6xEcc37EIS30jSHLwoFURWAa9-VN4mDKEO39WKtJZhdjxKvuDF1Rf4fFTUbTWLkQyxaWqBly8IPQ7cuQLPsSqwLy4wa2ouFo1qzfRYImpoSbFy0]--></g></svg>