<svg xmlns="http://www.w3.org/2000/svg" xmlns:xlink="http://www.w3.org/1999/xlink" contentStyleType="text/css" data-diagram-type="EBNF" height="860px" preserveAspectRatio="none" style="width:453px;height:860px;background:#0B58A8;" version="1.1" viewBox="0 0 453 860" width="453px" zoomAndPan="magnify"><defs/><g><rect fill="#0B58A8" height="860" style="stroke:none;stroke-width:1;" width="453" x="0" y="0"/><text fill="#FFFFFF" font-family="Verdana" font-size="14" font-weight="bold" lengthAdjust="spacing" textLength="76.6377" x="5" y="19.0752">Character</text><line style="stroke:#FFFFFF;stroke-width:1.5;" x1="35" x2="35" y1="45.522" y2="45.522"/><rect fill="none" height="27.0146" style="stroke:#FFFFFF;stroke-width:0.5;" width="16.3574" x="35" y="32.0146"/><text fill="#FFFFFF" font-family="Verdana" font-size="14" lengthAdjust="spacing" textLength="6.3574" x="40" y="51.0898">\</text><line style="stroke:#FFFFFF;stroke-width:1.5;" x1="51.3574" x2="71.3574" y1="45.522" y2="45.522"/><rect fill="#0B58A8" height="27.0146" rx="5" ry="5" style="stroke:#FFFFFF;stroke-width:1.5;" width="83.8555" x="95.3574" y="32.0146"/><text fill="#FFFFFF" font-family="Verdana" font-size="14" lengthAdjust="spacing" textLength="73.8555" x="100.3574" y="51.0898">CharName</text><line style="stroke:#FFFFFF;stroke-width:1.5;" x1="71.3574" x2="95.3574" y1="45.522" y2="45.522"/><line style="stroke:#FFFFFF;stroke-width:1.5;" x1="179.2129" x2="234.0703" y1="45.522" y2="45.522"/><rect fill="#0B58A8" height="27.0146" rx="5" ry="5" style="stroke:#FFFFFF;stroke-width:1.5;" width="114.7129" x="95.3574" y="69.0293"/><text fill="#FFFFFF" font-family="Verdana" font-size="14" lengthAdjust="spacing" textLength="104.7129" x="100.3574" y="88.1045">UnicodeEscape</text><path d="M83.3574,70.5366 C83.3574,79.5366 86.3574,82.5366 95.3574,82.5366" fill="none" style="stroke:#FFFFFF;stroke-width:1.5;"/><line style="stroke:#FFFFFF;stroke-width:1.5;" x1="210.0703" x2="210.0703" y1="82.5366" y2="82.5366"/><path d="M222.0703,70.5366 C222.0703,79.5366 219.0703,82.5366 210.0703,82.5366" fill="none" style="stroke:#FFFFFF;stroke-width:1.5;"/><rect fill="#0B58A8" height="27.0146" rx="5" ry="5" style="stroke:#FFFFFF;stroke-width:1.5;" width="94.9912" x="95.3574" y="106.0439"/><text fill="#FFFFFF" font-family="Verdana" font-size="14" lengthAdjust="spacing" textLength="84.9912" x="100.3574" y="125.1191">OctalEscape</text><path d="M83.3574,107.5513 C83.3574,116.5513 86.3574,119.5513 95.3574,119.5513" fill="none" style="stroke:#FFFFFF;stroke-width:1.5;"/><line style="stroke:#FFFFFF;stroke-width:1.5;" x1="190.3486" x2="210.0703" y1="119.5513" y2="119.5513"/><path d="M222.0703,107.5513 C222.0703,116.5513 219.0703,119.5513 210.0703,119.5513" fill="none" style="stroke:#FFFFFF;stroke-width:1.5;"/><rect fill="#0B58A8" height="27.0146" rx="5" ry="5" style="stroke:#FFFFFF;stroke-width:1.5;" width="86.7334" x="95.3574" y="143.0586"/><text fill="#FFFFFF" font-family="Verdana" font-size="14" lengthAdjust="spacing" textLength="76.7334" x="100.3574" y="162.1338">CharLiteral</text><line style="stroke:#FFFFFF;stroke-width:1.5;" x1="182.0908" x2="210.0703" y1="156.5659" y2="156.5659"/><path d="M194.0806,156.5659 L194.0806,153.5659 L200.0806,156.5659 L194.0806,159.5659 L194.0806,156.5659" fill="#FFFFFF"/><path d="M83.3574,144.5659 C83.3574,153.5659 86.3574,156.5659 95.3574,156.5659" fill="none" style="stroke:#FFFFFF;stroke-width:1.5;"/><line style="stroke:#FFFFFF;stroke-width:1.5;" x1="83.3574" x2="83.3574" y1="57.522" y2="144.5659"/><path d="M71.3574,45.522 C80.3574,45.522 83.3574,48.522 83.3574,57.522" fill="none" style="stroke:#FFFFFF;stroke-width:1.5;"/><path d="M222.0703,144.5659 C222.0703,153.5659 219.0703,156.5659 210.0703,156.5659" fill="none" style="stroke:#FFFFFF;stroke-width:1.5;"/><line style="stroke:#FFFFFF;stroke-width:1.5;" x1="222.0703" x2="222.0703" y1="57.522" y2="144.5659"/><path d="M222.0703,57.522 C222.0703,48.522 225.0703,45.522 234.0703,45.522" fill="none" style="stroke:#FFFFFF;stroke-width:1.5;"/><ellipse cx="9" cy="45.522" fill="none" rx="4" ry="4" style="stroke:#FFFFFF;stroke-width:2;"/><ellipse cx="264.0703" cy="45.522" fill="#FFFFFF" rx="4" ry="4" style="stroke:#FFFFFF;stroke-width:1;"/><line style="stroke:#FFFFFF;stroke-width:1.5;" x1="13" x2="35" y1="45.522" y2="45.522"/><line style="stroke:#FFFFFF;stroke-width:1.5;" x1="234.0703" x2="260.0703" y1="45.522" y2="45.522"/><path d="M245.0703,45.522 L245.0703,42.522 L251.0703,45.522 L245.0703,48.522 L245.0703,45.522" fill="#FFFFFF"/><text fill="#FFFFFF" font-family="Verdana" font-size="14" font-weight="bold" lengthAdjust="spacing" textLength="86.8916" x="5" y="199.1484">CharLiteral</text><line style="stroke:#FFFFFF;stroke-width:1.5;" x1="35" x2="35" y1="225.5952" y2="225.5952"/><rect fill="none" height="27.0146" style="stroke:#FFFFFF;stroke-width:1;stroke-dasharray:5,5;" width="117.5498" x="35" y="212.0879"/><text fill="#FFFFFF" font-family="Verdana" font-size="14" lengthAdjust="spacing" textLength="97.7061" x="44.9219" y="231.1631">Any character</text><line style="stroke:#FFFFFF;stroke-width:1.5;" x1="152.5498" x2="172.5498" y1="225.5952" y2="225.5952"/><text fill="#FFFFFF" font-family="Verdana" font-size="14" lengthAdjust="spacing" textLength="30.1191" x="175.5498" y="229.5347">NOT</text><rect fill="#0B58A8" height="27.0146" rx="5" ry="5" style="stroke:#FFFFFF;stroke-width:1.5;" width="92.7354" x="210.6689" y="212.0879"/><text fill="#FFFFFF" font-family="Verdana" font-size="14" lengthAdjust="spacing" textLength="82.7354" x="215.6689" y="231.1631">WhiteSpace</text><ellipse cx="9" cy="225.5952" fill="none" rx="4" ry="4" style="stroke:#FFFFFF;stroke-width:2;"/><ellipse cx="333.4043" cy="225.5952" fill="#FFFFFF" rx="4" ry="4" style="stroke:#FFFFFF;stroke-width:1;"/><line style="stroke:#FFFFFF;stroke-width:1.5;" x1="13" x2="35" y1="225.5952" y2="225.5952"/><line style="stroke:#FFFFFF;stroke-width:1.5;" x1="303.4043" x2="329.4043" y1="225.5952" y2="225.5952"/><path d="M314.4043,225.5952 L314.4043,222.5952 L320.4043,225.5952 L314.4043,228.5952 L314.4043,225.5952" fill="#FFFFFF"/><text fill="#FFFFFF" font-family="Verdana" font-size="14" font-weight="bold" lengthAdjust="spacing" textLength="81.7305" x="5" y="268.1777">CharName</text><rect fill="none" height="27.0146" style="stroke:#FFFFFF;stroke-width:0.5;" width="63.5391" x="59" y="281.1172"/><text fill="#FFFFFF" font-family="Verdana" font-size="14" lengthAdjust="spacing" textLength="53.5391" x="64" y="300.1924">newline</text><line style="stroke:#FFFFFF;stroke-width:1.5;" x1="35" x2="59" y1="294.6245" y2="294.6245"/><line style="stroke:#FFFFFF;stroke-width:1.5;" x1="122.5391" x2="165.7686" y1="294.6245" y2="294.6245"/><rect fill="none" height="27.0146" style="stroke:#FFFFFF;stroke-width:0.5;" width="50.0586" x="59" y="318.1318"/><text fill="#FFFFFF" font-family="Verdana" font-size="14" lengthAdjust="spacing" textLength="40.0586" x="64" y="337.207">space</text><path d="M47,319.6392 C47,328.6392 50,331.6392 59,331.6392" fill="none" style="stroke:#FFFFFF;stroke-width:1.5;"/><line style="stroke:#FFFFFF;stroke-width:1.5;" x1="109.0586" x2="141.7686" y1="331.6392" y2="331.6392"/><path d="M123.4136,331.6392 L123.4136,328.6392 L129.4136,331.6392 L123.4136,334.6392 L123.4136,331.6392" fill="#FFFFFF"/><path d="M153.7686,319.6392 C153.7686,328.6392 150.7686,331.6392 141.7686,331.6392" fill="none" style="stroke:#FFFFFF;stroke-width:1.5;"/><rect fill="none" height="27.0146" style="stroke:#FFFFFF;stroke-width:0.5;" width="32.6475" x="59" y="355.1465"/><text fill="#FFFFFF" font-family="Verdana" font-size="14" lengthAdjust="spacing" textLength="22.6475" x="64" y="374.2217">tab</text><path d="M47,356.6538 C47,365.6538 50,368.6538 59,368.6538" fill="none" style="stroke:#FFFFFF;stroke-width:1.5;"/><line style="stroke:#FFFFFF;stroke-width:1.5;" x1="91.6475" x2="141.7686" y1="368.6538" y2="368.6538"/><path d="M114.708,368.6538 L114.708,365.6538 L120.708,368.6538 L114.708,371.6538 L114.708,368.6538" fill="#FFFFFF"/><path d="M153.7686,356.6538 C153.7686,365.6538 150.7686,368.6538 141.7686,368.6538" fill="none" style="stroke:#FFFFFF;stroke-width:1.5;"/><rect fill="none" height="27.0146" style="stroke:#FFFFFF;stroke-width:0.5;" width="53.5244" x="59" y="392.1611"/><text fill="#FFFFFF" font-family="Verdana" font-size="14" lengthAdjust="spacing" textLength="43.5244" x="64" y="411.2363">return</text><path d="M47,393.6685 C47,402.6685 50,405.6685 59,405.6685" fill="none" style="stroke:#FFFFFF;stroke-width:1.5;"/><line style="stroke:#FFFFFF;stroke-width:1.5;" x1="112.5244" x2="141.7686" y1="405.6685" y2="405.6685"/><path d="M125.1465,405.6685 L125.1465,402.6685 L131.1465,405.6685 L125.1465,408.6685 L125.1465,405.6685" fill="#FFFFFF"/><path d="M153.7686,393.6685 C153.7686,402.6685 150.7686,405.6685 141.7686,405.6685" fill="none" style="stroke:#FFFFFF;stroke-width:1.5;"/><rect fill="none" height="27.0146" style="stroke:#FFFFFF;stroke-width:0.5;" width="73.335" x="59" y="429.1758"/><text fill="#FFFFFF" font-family="Verdana" font-size="14" lengthAdjust="spacing" textLength="63.335" x="64" y="448.251">formfeed</text><path d="M47,430.6831 C47,439.6831 50,442.6831 59,442.6831" fill="none" style="stroke:#FFFFFF;stroke-width:1.5;"/><line style="stroke:#FFFFFF;stroke-width:1.5;" x1="132.335" x2="141.7686" y1="442.6831" y2="442.6831"/><path d="M153.7686,430.6831 C153.7686,439.6831 150.7686,442.6831 141.7686,442.6831" fill="none" style="stroke:#FFFFFF;stroke-width:1.5;"/><rect fill="none" height="27.0146" style="stroke:#FFFFFF;stroke-width:0.5;" width="82.7686" x="59" y="466.1904"/><text fill="#FFFFFF" font-family="Verdana" font-size="14" lengthAdjust="spacing" textLength="72.7686" x="64" y="485.2656">backspace</text><line style="stroke:#FFFFFF;stroke-width:1.5;" x1="141.7686" x2="141.7686" y1="479.6978" y2="479.6978"/><path d="M47,467.6978 C47,476.6978 50,479.6978 59,479.6978" fill="none" style="stroke:#FFFFFF;stroke-width:1.5;"/><line style="stroke:#FFFFFF;stroke-width:1.5;" x1="47" x2="47" y1="306.6245" y2="467.6978"/><path d="M35,294.6245 C44,294.6245 47,297.6245 47,306.6245" fill="none" style="stroke:#FFFFFF;stroke-width:1.5;"/><path d="M153.7686,467.6978 C153.7686,476.6978 150.7686,479.6978 141.7686,479.6978" fill="none" style="stroke:#FFFFFF;stroke-width:1.5;"/><line style="stroke:#FFFFFF;stroke-width:1.5;" x1="153.7686" x2="153.7686" y1="306.6245" y2="467.6978"/><path d="M153.7686,306.6245 C153.7686,297.6245 156.7686,294.6245 165.7686,294.6245" fill="none" style="stroke:#FFFFFF;stroke-width:1.5;"/><ellipse cx="9" cy="294.6245" fill="none" rx="4" ry="4" style="stroke:#FFFFFF;stroke-width:2;"/><ellipse cx="195.7686" cy="294.6245" fill="#FFFFFF" rx="4" ry="4" style="stroke:#FFFFFF;stroke-width:1;"/><line style="stroke:#FFFFFF;stroke-width:1.5;" x1="13" x2="35" y1="294.6245" y2="294.6245"/><line style="stroke:#FFFFFF;stroke-width:1.5;" x1="165.7686" x2="191.7686" y1="294.6245" y2="294.6245"/><path d="M176.7686,294.6245 L176.7686,291.6245 L182.7686,294.6245 L176.7686,297.6245 L176.7686,294.6245" fill="#FFFFFF"/><text fill="#FFFFFF" font-family="Verdana" font-size="14" font-weight="bold" lengthAdjust="spacing" textLength="117.6055" x="5" y="522.2803">UnicodeEscape</text><line style="stroke:#FFFFFF;stroke-width:1.5;" x1="35" x2="35" y1="548.7271" y2="548.7271"/><rect fill="none" height="27.0146" style="stroke:#FFFFFF;stroke-width:0.5;" width="18.8594" x="35" y="535.2197"/><text fill="#FFFFFF" font-family="Verdana" font-size="14" lengthAdjust="spacing" textLength="8.8594" x="40" y="554.2949">u</text><line style="stroke:#FFFFFF;stroke-width:1.5;" x1="53.8594" x2="73.8594" y1="548.7271" y2="548.7271"/><rect fill="#0B58A8" height="27.0146" rx="5" ry="5" style="stroke:#FFFFFF;stroke-width:1.5;" width="69.8555" x="73.8594" y="535.2197"/><text fill="#FFFFFF" font-family="Verdana" font-size="14" lengthAdjust="spacing" textLength="59.8555" x="78.8594" y="554.2949">HexDigit</text><line style="stroke:#FFFFFF;stroke-width:1.5;" x1="143.7148" x2="163.7148" y1="548.7271" y2="548.7271"/><rect fill="#0B58A8" height="27.0146" rx="5" ry="5" style="stroke:#FFFFFF;stroke-width:1.5;" width="69.8555" x="163.7148" y="535.2197"/><text fill="#FFFFFF" font-family="Verdana" font-size="14" lengthAdjust="spacing" textLength="59.8555" x="168.7148" y="554.2949">HexDigit</text><line style="stroke:#FFFFFF;stroke-width:1.5;" x1="233.5703" x2="253.5703" y1="548.7271" y2="548.7271"/><rect fill="#0B58A8" height="27.0146" rx="5" ry="5" style="stroke:#FFFFFF;stroke-width:1.5;" width="69.8555" x="253.5703" y="535.2197"/><text fill="#FFFFFF" font-family="Verdana" font-size="14" lengthAdjust="spacing" textLength="59.8555" x="258.5703" y="554.2949">HexDigit</text><line style="stroke:#FFFFFF;stroke-width:1.5;" x1="323.4258" x2="343.4258" y1="548.7271" y2="548.7271"/><rect fill="#0B58A8" height="27.0146" rx="5" ry="5" style="stroke:#FFFFFF;stroke-width:1.5;" width="69.8555" x="343.4258" y="535.2197"/><text fill="#FFFFFF" font-family="Verdana" font-size="14" lengthAdjust="spacing" textLength="59.8555" x="348.4258" y="554.2949">HexDigit</text><ellipse cx="9" cy="548.7271" fill="none" rx="4" ry="4" style="stroke:#FFFFFF;stroke-width:2;"/><ellipse cx="443.2813" cy="548.7271" fill="#FFFFFF" rx="4" ry="4" style="stroke:#FFFFFF;stroke-width:1;"/><line style="stroke:#FFFFFF;stroke-width:1.5;" x1="13" x2="35" y1="548.7271" y2="548.7271"/><line style="stroke:#FFFFFF;stroke-width:1.5;" x1="413.2813" x2="439.2813" y1="548.7271" y2="548.7271"/><path d="M424.2813,548.7271 L424.2813,545.7271 L430.2813,548.7271 L424.2813,551.7271 L424.2813,548.7271" fill="#FFFFFF"/><text fill="#FFFFFF" font-family="Verdana" font-size="14" font-weight="bold" lengthAdjust="spacing" textLength="67.7441" x="5" y="591.3096">HexDigit</text><rect fill="none" height="27.0146" style="stroke:#FFFFFF;stroke-width:1;stroke-dasharray:5,5;" width="111.6709" x="35" y="604.249"/><text fill="#FFFFFF" font-family="Verdana" font-size="14" lengthAdjust="spacing" textLength="91.8271" x="44.9219" y="623.3242">0-9, a-z, A-Z</text><ellipse cx="9" cy="617.7563" fill="none" rx="4" ry="4" style="stroke:#FFFFFF;stroke-width:2;"/><ellipse cx="176.6709" cy="617.7563" fill="#FFFFFF" rx="4" ry="4" style="stroke:#FFFFFF;stroke-width:1;"/><line style="stroke:#FFFFFF;stroke-width:1.5;" x1="13" x2="35" y1="617.7563" y2="617.7563"/><line style="stroke:#FFFFFF;stroke-width:1.5;" x1="146.6709" x2="172.6709" y1="617.7563" y2="617.7563"/><path d="M157.6709,617.7563 L157.6709,614.7563 L163.6709,617.7563 L157.6709,620.7563 L157.6709,617.7563" fill="#FFFFFF"/><text fill="#FFFFFF" font-family="Verdana" font-size="14" font-weight="bold" lengthAdjust="spacing" textLength="95.1973" x="5" y="660.3389">OctalEscape</text><line style="stroke:#FFFFFF;stroke-width:1.5;" x1="35" x2="35" y1="686.7856" y2="686.7856"/><rect fill="none" height="27.0146" style="stroke:#FFFFFF;stroke-width:0.5;" width="18.4971" x="35" y="673.2783"/><text fill="#FFFFFF" font-family="Verdana" font-size="14" lengthAdjust="spacing" textLength="8.4971" x="40" y="692.3535">o</text><line style="stroke:#FFFFFF;stroke-width:1.5;" x1="53.4971" x2="73.4971" y1="686.7856" y2="686.7856"/><rect fill="#0B58A8" height="27.0146" rx="5" ry="5" style="stroke:#FFFFFF;stroke-width:1.5;" width="99.667" x="73.4971" y="673.2783"/><text fill="#FFFFFF" font-family="Verdana" font-size="14" lengthAdjust="spacing" textLength="89.667" x="78.4971" y="692.3535">ZeroToThree</text><line style="stroke:#FFFFFF;stroke-width:1.5;" x1="173.1641" x2="193.1641" y1="686.7856" y2="686.7856"/><rect fill="#0B58A8" height="27.0146" rx="5" ry="5" style="stroke:#FFFFFF;stroke-width:1.5;" width="78.79" x="193.1641" y="673.2783"/><text fill="#FFFFFF" font-family="Verdana" font-size="14" lengthAdjust="spacing" textLength="68.79" x="198.1641" y="692.3535">OctalDigit</text><line style="stroke:#FFFFFF;stroke-width:1.5;" x1="271.9541" x2="291.9541" y1="686.7856" y2="686.7856"/><rect fill="#0B58A8" height="27.0146" rx="5" ry="5" style="stroke:#FFFFFF;stroke-width:1.5;" width="78.79" x="291.9541" y="673.2783"/><text fill="#FFFFFF" font-family="Verdana" font-size="14" lengthAdjust="spacing" textLength="68.79" x="296.9541" y="692.3535">OctalDigit</text><ellipse cx="9" cy="686.7856" fill="none" rx="4" ry="4" style="stroke:#FFFFFF;stroke-width:2;"/><ellipse cx="400.7441" cy="686.7856" fill="#FFFFFF" rx="4" ry="4" style="stroke:#FFFFFF;stroke-width:1;"/><line style="stroke:#FFFFFF;stroke-width:1.5;" x1="13" x2="35" y1="686.7856" y2="686.7856"/><line style="stroke:#FFFFFF;stroke-width:1.5;" x1="370.7441" x2="396.7441" y1="686.7856" y2="686.7856"/><path d="M381.7441,686.7856 L381.7441,683.7856 L387.7441,686.7856 L381.7441,689.7856 L381.7441,686.7856" fill="#FFFFFF"/><text fill="#FFFFFF" font-family="Verdana" font-size="14" font-weight="bold" lengthAdjust="spacing" textLength="78.0117" x="5" y="729.3682">OctalDigit</text><rect fill="none" height="27.0146" style="stroke:#FFFFFF;stroke-width:1;stroke-dasharray:5,5;" width="44.002" x="35" y="742.3076"/><text fill="#FFFFFF" font-family="Verdana" font-size="14" lengthAdjust="spacing" textLength="24.1582" x="44.9219" y="761.3828">0-7</text><ellipse cx="9" cy="755.8149" fill="none" rx="4" ry="4" style="stroke:#FFFFFF;stroke-width:2;"/><ellipse cx="109.002" cy="755.8149" fill="#FFFFFF" rx="4" ry="4" style="stroke:#FFFFFF;stroke-width:1;"/><line style="stroke:#FFFFFF;stroke-width:1.5;" x1="13" x2="35" y1="755.8149" y2="755.8149"/><line style="stroke:#FFFFFF;stroke-width:1.5;" x1="79.002" x2="105.002" y1="755.8149" y2="755.8149"/><path d="M90.002,755.8149 L90.002,752.8149 L96.002,755.8149 L90.002,758.8149 L90.002,755.8149" fill="#FFFFFF"/><text fill="#FFFFFF" font-family="Verdana" font-size="14" font-weight="bold" lengthAdjust="spacing" textLength="99.7773" x="5" y="798.3975">ZeroToThree</text><rect fill="none" height="27.0146" style="stroke:#FFFFFF;stroke-width:1;stroke-dasharray:5,5;" width="44.002" x="35" y="811.3369"/><text fill="#FFFFFF" font-family="Verdana" font-size="14" lengthAdjust="spacing" textLength="24.1582" x="44.9219" y="830.4121">0-3</text><ellipse cx="9" cy="824.8442" fill="none" rx="4" ry="4" style="stroke:#FFFFFF;stroke-width:2;"/><ellipse cx="109.002" cy="824.8442" fill="#FFFFFF" rx="4" ry="4" style="stroke:#FFFFFF;stroke-width:1;"/><line style="stroke:#FFFFFF;stroke-width:1.5;" x1="13" x2="35" y1="824.8442" y2="824.8442"/><line style="stroke:#FFFFFF;stroke-width:1.5;" x1="79.002" x2="105.002" y1="824.8442" y2="824.8442"/><path d="M90.002,824.8442 L90.002,821.8442 L96.002,824.8442 L90.002,827.8442 L90.002,824.8442" fill="#FFFFFF"/><!--SRC=[xLTHSnet47w_Nx6X3x5dJ8fnQ6qQDmPirt71PdBOcSdqHPmMK3YaYqw7JHB_zwu41tS6wjYc3va9CzZIxgTFqhUhbJYA3TC6kxBdlJ03726maUWphp5WcWK6DHp2otzUmWviWRLTC89yWoif0iNn90vOPFkNWM7Xl6U1JK63MGZRy8VdPGs7y1PgSWB1V8QtK8GF0tBx4GimnRkP3g4WyIOK4Wl4MuWjmBKCwxh_6asYfMlsb1xr4BdhT5amdA69BxzS8aqAjACpl3qMVM4URXB5l6tNNoeUx00hVjc1Ml4ZzScVLO0cK8KT-8XQTLHde169p05Ivamd7Pjb_ttAcIMOElQSumWbTo7pZXRXctxUn6OIufyUW5RAm5Tg0DH9ZBvMYUGD5IeDlvJgbVtQllETAcbcrbFtcLjT0AvHSoQPCvvD8gGmoc6AFwxjbIlEHLPSPh7Mpa04Gubn3BlErcAwBoJOONVqvIf8HYZJbP9yHYWvwzrdA3dhdVlRe-rHxZmC723ZtmKqmeGunra5VF45eLn-OAJzMdMZi-nCIvhVKtTr97mRFUYgaC-89QNjZB75RiKe6NqGt0nWhrIQ8JJsKACCyF-OFiQ8JgbH6wLzy-iiIRruAAITO0GrhTLDKuMXY5IKvrw0rkNn0d6CFPQ4PYbzbn0j9PMh3toERQX42zGPR5FqqDOUtv06s9zGD68L2fw1jEduYK14J9esurp8FkoMCduVFoSsE9RA9b1TQGhIkWtw0yRLZINfiJ36ZESgnZeQDbNIw0HpuWL6Z8MPk22jF-nrfkz7RTLoLjU49Kdlie6nqp4zNS3ow3pqrg5IjIevRqFe84I-k7tk4SxtiXGrWFUCYoI6WpnXoEYmFg3BPaHmKzMCqQAR65mZnVTm-BHnL8QgxTD8JXUbyT5ZCqNayMFj_K3dPUY6vo-9BEvTe6IRei7wc4FEat9Df9Ouj1WpyrmEqeeoZJ-F9Uc68dWonOLwQhvSTZ_HwgVvlIABxtALQg7uXZBUDwdyZpjSUOuqsMkhcVwpLgrcQcoCwMHZJEysndJnJ2QwIXeinYbXvv5LvkVlWX_YTq4xf0V9LQi9OzInVL3llYgNofLNhxTyPk0yaL3UXzszQkcWMgv0uyJlWFLlUrj_jPiGqvrAWdCHJoyp8jZspjcOmVj46Z72Abn6AC-F_quDS2B7GYjfd_BU-NLh0VZjTR5Ew_THqrBWkkND7c0qWgId5q0LhZgdnNsloMG_eG9L1PGUtUhIw0dv_7y1]--></g></svg>