<svg xmlns="http://www.w3.org/2000/svg" xmlns:xlink="http://www.w3.org/1999/xlink" contentStyleType="text/css" data-diagram-type="EBNF" height="271px" preserveAspectRatio="none" style="width:1059px;height:271px;background:#0B58A8;" version="1.1" viewBox="0 0 1059 271" width="1059px" zoomAndPan="magnify"><defs/><g><rect fill="#0B58A8" height="271" style="stroke:none;stroke-width:1;" width="1059" x="0" y="0"/><text fill="#FFFFFF" font-family="Verdana" font-size="14" font-weight="bold" lengthAdjust="spacing" textLength="39.2314" x="5" y="19.0752">Float</text><line style="stroke:#FFFFFF;stroke-width:1.5;" x1="35" x2="35" y1="45.522" y2="45.522"/><line style="stroke:#FFFFFF;stroke-width:1.5;" x1="35" x2="152.457" y1="45.522" y2="45.522"/><path d="M79.9828,45.522 L79.9828,42.522 L85.9828,45.522 L79.9828,48.522 L79.9828,45.522" fill="#FFFFFF"/><path d="M35,45.522 C44,45.522 47,48.2756 47,57.2756 C47,66.2756 50,69.0293 59,69.0293" fill="none" style="stroke:#FFFFFF;stroke-width:1.5;"/><path d="M128.457,69.0293 C137.457,69.0293 140.457,66.2756 140.457,57.2756 C140.457,48.2756 143.457,45.522 152.457,45.522" fill="none" style="stroke:#FFFFFF;stroke-width:1.5;"/><rect fill="none" height="27.0146" style="stroke:#FFFFFF;stroke-width:0.5;" width="16.3574" x="83" y="55.522"/><text fill="#FFFFFF" font-family="Verdana" font-size="14" lengthAdjust="spacing" textLength="6.3574" x="88" y="74.5972">-</text><line style="stroke:#FFFFFF;stroke-width:1.5;" x1="59" x2="83" y1="69.0293" y2="69.0293"/><line style="stroke:#FFFFFF;stroke-width:1.5;" x1="99.3574" x2="128.457" y1="69.0293" y2="69.0293"/><rect fill="none" height="27.0146" style="stroke:#FFFFFF;stroke-width:0.5;" width="21.457" x="83" y="92.5366"/><text fill="#FFFFFF" font-family="Verdana" font-size="14" lengthAdjust="spacing" textLength="11.457" x="88" y="111.6118">+</text><line style="stroke:#FFFFFF;stroke-width:1.5;" x1="104.457" x2="104.457" y1="106.0439" y2="106.0439"/><path d="M71,94.0439 C71,103.0439 74,106.0439 83,106.0439" fill="none" style="stroke:#FFFFFF;stroke-width:1.5;"/><line style="stroke:#FFFFFF;stroke-width:1.5;" x1="71" x2="71" y1="81.0293" y2="94.0439"/><path d="M59,69.0293 C68,69.0293 71,72.0293 71,81.0293" fill="none" style="stroke:#FFFFFF;stroke-width:1.5;"/><path d="M116.457,94.0439 C116.457,103.0439 113.457,106.0439 104.457,106.0439" fill="none" style="stroke:#FFFFFF;stroke-width:1.5;"/><line style="stroke:#FFFFFF;stroke-width:1.5;" x1="116.457" x2="116.457" y1="81.0293" y2="94.0439"/><path d="M116.457,81.0293 C116.457,72.0293 119.457,69.0293 128.457,69.0293" fill="none" style="stroke:#FFFFFF;stroke-width:1.5;"/><line style="stroke:#FFFFFF;stroke-width:1.5;" x1="152.457" x2="172.457" y1="45.522" y2="45.522"/><rect fill="none" height="27.0146" style="stroke:#FFFFFF;stroke-width:1;stroke-dasharray:5,5;" width="111.541" x="172.457" y="32.0146"/><text fill="#FFFFFF" font-family="Verdana" font-size="14" lengthAdjust="spacing" textLength="91.6973" x="182.3789" y="51.0898">Decimal digit</text><line style="stroke:#FFFFFF;stroke-width:1.5;" x1="283.998" x2="303.998" y1="45.522" y2="45.522"/><line style="stroke:#FFFFFF;stroke-width:1.5;" x1="303.998" x2="493.5391" y1="45.522" y2="45.522"/><path d="M377.8145,45.522 L377.8145,42.522 L383.8145,45.522 L377.8145,48.522 L377.8145,45.522" fill="#FFFFFF"/><path d="M303.998,45.522 C312.998,45.522 315.998,54.2756 315.998,63.2756 C315.998,72.2756 318.998,81.0293 327.998,81.0293" fill="none" style="stroke:#FFFFFF;stroke-width:1.5;"/><path d="M469.5391,81.0293 C478.5391,81.0293 481.5391,72.2756 481.5391,63.2756 C481.5391,54.2756 484.5391,45.522 493.5391,45.522" fill="none" style="stroke:#FFFFFF;stroke-width:1.5;"/><path d="M335.998,73.0293 C335.998,79.0293 337.998,81.0293 343.998,81.0293" fill="none" style="stroke:#FFFFFF;stroke-width:1.5;"/><line style="stroke:#FFFFFF;stroke-width:1.5;" x1="335.998" x2="335.998" y1="68.522" y2="73.0293"/><path d="M335.998,68.522 C335.998,62.522 337.998,60.522 343.998,60.522" fill="none" style="stroke:#FFFFFF;stroke-width:1.5;"/><line style="stroke:#FFFFFF;stroke-width:1.5;" x1="342.998" x2="454.5391" y1="60.522" y2="60.522"/><path d="M407.9227,60.522 L407.9227,57.522 L401.9227,60.522 L407.9227,63.522 L407.9227,60.522" fill="#FFFFFF"/><path d="M461.5391,73.0293 C461.5391,79.0293 459.5391,81.0293 453.5391,81.0293" fill="none" style="stroke:#FFFFFF;stroke-width:1.5;"/><line style="stroke:#FFFFFF;stroke-width:1.5;" x1="461.5391" x2="461.5391" y1="68.522" y2="73.0293"/><path d="M453.5391,60.522 C459.5391,60.522 461.5391,62.522 461.5391,68.522" fill="none" style="stroke:#FFFFFF;stroke-width:1.5;"/><line style="stroke:#FFFFFF;stroke-width:1.5;" x1="327.998" x2="342.998" y1="81.0293" y2="81.0293"/><line style="stroke:#FFFFFF;stroke-width:1.5;" x1="454.5391" x2="469.5391" y1="81.0293" y2="81.0293"/><rect fill="none" height="27.0146" style="stroke:#FFFFFF;stroke-width:1;stroke-dasharray:5,5;" width="111.541" x="342.998" y="67.522"/><text fill="#FFFFFF" font-family="Verdana" font-size="14" lengthAdjust="spacing" textLength="91.6973" x="352.9199" y="86.5972">Decimal digit</text><line style="stroke:#FFFFFF;stroke-width:1.5;" x1="493.5391" x2="513.5391" y1="45.522" y2="45.522"/><line style="stroke:#FFFFFF;stroke-width:1.5;" x1="513.5391" x2="786.1729" y1="45.522" y2="45.522"/><path d="M620.5926,45.522 L620.5926,42.522 L626.5926,45.522 L620.5926,48.522 L620.5926,45.522" fill="#FFFFFF"/><path d="M513.5391,45.522 C522.5391,45.522 525.5391,48.2756 525.5391,57.2756 C525.5391,66.2756 528.5391,69.0293 537.5391,69.0293" fill="none" style="stroke:#FFFFFF;stroke-width:1.5;"/><path d="M762.1729,69.0293 C771.1729,69.0293 774.1729,66.2756 774.1729,57.2756 C774.1729,48.2756 777.1729,45.522 786.1729,45.522" fill="none" style="stroke:#FFFFFF;stroke-width:1.5;"/><line style="stroke:#FFFFFF;stroke-width:1.5;" x1="537.5391" x2="537.5391" y1="69.0293" y2="69.0293"/><rect fill="none" height="27.0146" style="stroke:#FFFFFF;stroke-width:0.5;" width="15.0928" x="537.5391" y="55.522"/><text fill="#FFFFFF" font-family="Verdana" font-size="14" lengthAdjust="spacing" textLength="5.0928" x="542.5391" y="74.5972">.</text><line style="stroke:#FFFFFF;stroke-width:1.5;" x1="552.6318" x2="572.6318" y1="69.0293" y2="69.0293"/><line style="stroke:#FFFFFF;stroke-width:1.5;" x1="572.6318" x2="762.1729" y1="69.0293" y2="69.0293"/><path d="M646.4482,69.0293 L646.4482,66.0293 L652.4482,69.0293 L646.4482,72.0293 L646.4482,69.0293" fill="#FFFFFF"/><path d="M572.6318,69.0293 C581.6318,69.0293 584.6318,77.783 584.6318,86.783 C584.6318,95.783 587.6318,104.5366 596.6318,104.5366" fill="none" style="stroke:#FFFFFF;stroke-width:1.5;"/><path d="M738.1729,104.5366 C747.1729,104.5366 750.1729,95.783 750.1729,86.783 C750.1729,77.783 753.1729,69.0293 762.1729,69.0293" fill="none" style="stroke:#FFFFFF;stroke-width:1.5;"/><path d="M604.6318,96.5366 C604.6318,102.5366 606.6318,104.5366 612.6318,104.5366" fill="none" style="stroke:#FFFFFF;stroke-width:1.5;"/><line style="stroke:#FFFFFF;stroke-width:1.5;" x1="604.6318" x2="604.6318" y1="92.0293" y2="96.5366"/><path d="M604.6318,92.0293 C604.6318,86.0293 606.6318,84.0293 612.6318,84.0293" fill="none" style="stroke:#FFFFFF;stroke-width:1.5;"/><line style="stroke:#FFFFFF;stroke-width:1.5;" x1="611.6318" x2="723.1729" y1="84.0293" y2="84.0293"/><path d="M676.5564,84.0293 L676.5564,81.0293 L670.5564,84.0293 L676.5564,87.0293 L676.5564,84.0293" fill="#FFFFFF"/><path d="M730.1729,96.5366 C730.1729,102.5366 728.1729,104.5366 722.1729,104.5366" fill="none" style="stroke:#FFFFFF;stroke-width:1.5;"/><line style="stroke:#FFFFFF;stroke-width:1.5;" x1="730.1729" x2="730.1729" y1="92.0293" y2="96.5366"/><path d="M722.1729,84.0293 C728.1729,84.0293 730.1729,86.0293 730.1729,92.0293" fill="none" style="stroke:#FFFFFF;stroke-width:1.5;"/><line style="stroke:#FFFFFF;stroke-width:1.5;" x1="596.6318" x2="611.6318" y1="104.5366" y2="104.5366"/><line style="stroke:#FFFFFF;stroke-width:1.5;" x1="723.1729" x2="738.1729" y1="104.5366" y2="104.5366"/><rect fill="none" height="27.0146" style="stroke:#FFFFFF;stroke-width:1;stroke-dasharray:5,5;" width="111.541" x="611.6318" y="91.0293"/><text fill="#FFFFFF" font-family="Verdana" font-size="14" lengthAdjust="spacing" textLength="91.6973" x="621.5537" y="110.1045">Decimal digit</text><line style="stroke:#FFFFFF;stroke-width:1.5;" x1="786.1729" x2="806.1729" y1="45.522" y2="45.522"/><line style="stroke:#FFFFFF;stroke-width:1.5;" x1="806.1729" x2="930.1055" y1="45.522" y2="45.522"/><path d="M853.7459,45.522 L853.7459,42.522 L859.7459,45.522 L853.7459,48.522 L853.7459,45.522" fill="#FFFFFF"/><path d="M806.1729,45.522 C815.1729,45.522 818.1729,48.2756 818.1729,57.2756 C818.1729,66.2756 821.1729,69.0293 830.1729,69.0293" fill="none" style="stroke:#FFFFFF;stroke-width:1.5;"/><path d="M906.1055,69.0293 C915.1055,69.0293 918.1055,66.2756 918.1055,57.2756 C918.1055,48.2756 921.1055,45.522 930.1055,45.522" fill="none" style="stroke:#FFFFFF;stroke-width:1.5;"/><rect fill="#0B58A8" height="27.0146" rx="5" ry="5" style="stroke:#FFFFFF;stroke-width:1.5;" width="75.9326" x="830.1729" y="55.522"/><text fill="#FFFFFF" font-family="Verdana" font-size="14" lengthAdjust="spacing" textLength="65.9326" x="835.1729" y="74.5972">Exponent</text><line style="stroke:#FFFFFF;stroke-width:1.5;" x1="930.1055" x2="950.1055" y1="45.522" y2="45.522"/><line style="stroke:#FFFFFF;stroke-width:1.5;" x1="950.1055" x2="1019.9043" y1="45.522" y2="45.522"/><path d="M976.025,45.522 L976.025,42.522 L982.025,45.522 L976.025,48.522 L976.025,45.522" fill="#FFFFFF"/><path d="M950.1055,45.522 C959.1055,45.522 962.1055,48.2756 962.1055,57.2756 C962.1055,66.2756 965.1055,69.0293 974.1055,69.0293" fill="none" style="stroke:#FFFFFF;stroke-width:1.5;"/><path d="M995.9043,69.0293 C1004.9043,69.0293 1007.9043,66.2756 1007.9043,57.2756 C1007.9043,48.2756 1010.9043,45.522 1019.9043,45.522" fill="none" style="stroke:#FFFFFF;stroke-width:1.5;"/><rect fill="none" height="27.0146" style="stroke:#FFFFFF;stroke-width:0.5;" width="21.7988" x="974.1055" y="55.522"/><text fill="#FFFFFF" font-family="Verdana" font-size="14" lengthAdjust="spacing" textLength="11.7988" x="979.1055" y="74.5972">M</text><ellipse cx="9" cy="45.522" fill="none" rx="4" ry="4" style="stroke:#FFFFFF;stroke-width:2;"/><ellipse cx="1049.9043" cy="45.522" fill="#FFFFFF" rx="4" ry="4" style="stroke:#FFFFFF;stroke-width:1;"/><line style="stroke:#FFFFFF;stroke-width:1.5;" x1="13" x2="35" y1="45.522" y2="45.522"/><line style="stroke:#FFFFFF;stroke-width:1.5;" x1="1019.9043" x2="1045.9043" y1="45.522" y2="45.522"/><path d="M1030.9043,45.522 L1030.9043,42.522 L1036.9043,45.522 L1030.9043,48.522 L1030.9043,45.522" fill="#FFFFFF"/><text fill="#FFFFFF" font-family="Verdana" font-size="14" font-weight="bold" lengthAdjust="spacing" textLength="73.9512" x="5" y="148.6265">Exponent</text><line style="stroke:#FFFFFF;stroke-width:1.5;" x1="35" x2="35" y1="175.0732" y2="175.0732"/><rect fill="none" height="27.0146" style="stroke:#FFFFFF;stroke-width:0.5;" width="18.3398" x="59" y="161.5659"/><text fill="#FFFFFF" font-family="Verdana" font-size="14" lengthAdjust="spacing" textLength="8.3398" x="64" y="180.6411">e</text><line style="stroke:#FFFFFF;stroke-width:1.5;" x1="35" x2="59" y1="175.0732" y2="175.0732"/><line style="stroke:#FFFFFF;stroke-width:1.5;" x1="77.3398" x2="101.8525" y1="175.0732" y2="175.0732"/><rect fill="none" height="27.0146" style="stroke:#FFFFFF;stroke-width:0.5;" width="18.8525" x="59" y="198.5806"/><text fill="#FFFFFF" font-family="Verdana" font-size="14" lengthAdjust="spacing" textLength="8.8525" x="64" y="217.6558">E</text><line style="stroke:#FFFFFF;stroke-width:1.5;" x1="77.8525" x2="77.8525" y1="212.0879" y2="212.0879"/><path d="M47,200.0879 C47,209.0879 50,212.0879 59,212.0879" fill="none" style="stroke:#FFFFFF;stroke-width:1.5;"/><line style="stroke:#FFFFFF;stroke-width:1.5;" x1="47" x2="47" y1="187.0732" y2="200.0879"/><path d="M35,175.0732 C44,175.0732 47,178.0732 47,187.0732" fill="none" style="stroke:#FFFFFF;stroke-width:1.5;"/><path d="M89.8525,200.0879 C89.8525,209.0879 86.8525,212.0879 77.8525,212.0879" fill="none" style="stroke:#FFFFFF;stroke-width:1.5;"/><line style="stroke:#FFFFFF;stroke-width:1.5;" x1="89.8525" x2="89.8525" y1="187.0732" y2="200.0879"/><path d="M89.8525,187.0732 C89.8525,178.0732 92.8525,175.0732 101.8525,175.0732" fill="none" style="stroke:#FFFFFF;stroke-width:1.5;"/><line style="stroke:#FFFFFF;stroke-width:1.5;" x1="101.8525" x2="121.8525" y1="175.0732" y2="175.0732"/><line style="stroke:#FFFFFF;stroke-width:1.5;" x1="121.8525" x2="239.3096" y1="175.0732" y2="175.0732"/><path d="M166.8354,175.0732 L166.8354,172.0732 L172.8354,175.0732 L166.8354,178.0732 L166.8354,175.0732" fill="#FFFFFF"/><path d="M121.8525,175.0732 C130.8525,175.0732 133.8525,177.8269 133.8525,186.8269 C133.8525,195.8269 136.8525,198.5806 145.8525,198.5806" fill="none" style="stroke:#FFFFFF;stroke-width:1.5;"/><path d="M215.3096,198.5806 C224.3096,198.5806 227.3096,195.8269 227.3096,186.8269 C227.3096,177.8269 230.3096,175.0732 239.3096,175.0732" fill="none" style="stroke:#FFFFFF;stroke-width:1.5;"/><rect fill="none" height="27.0146" style="stroke:#FFFFFF;stroke-width:0.5;" width="16.3574" x="169.8525" y="185.0732"/><text fill="#FFFFFF" font-family="Verdana" font-size="14" lengthAdjust="spacing" textLength="6.3574" x="174.8525" y="204.1484">-</text><line style="stroke:#FFFFFF;stroke-width:1.5;" x1="145.8525" x2="169.8525" y1="198.5806" y2="198.5806"/><line style="stroke:#FFFFFF;stroke-width:1.5;" x1="186.21" x2="215.3096" y1="198.5806" y2="198.5806"/><rect fill="none" height="27.0146" style="stroke:#FFFFFF;stroke-width:0.5;" width="21.457" x="169.8525" y="222.0879"/><text fill="#FFFFFF" font-family="Verdana" font-size="14" lengthAdjust="spacing" textLength="11.457" x="174.8525" y="241.1631">+</text><line style="stroke:#FFFFFF;stroke-width:1.5;" x1="191.3096" x2="191.3096" y1="235.5952" y2="235.5952"/><path d="M157.8525,223.5952 C157.8525,232.5952 160.8525,235.5952 169.8525,235.5952" fill="none" style="stroke:#FFFFFF;stroke-width:1.5;"/><line style="stroke:#FFFFFF;stroke-width:1.5;" x1="157.8525" x2="157.8525" y1="210.5806" y2="223.5952"/><path d="M145.8525,198.5806 C154.8525,198.5806 157.8525,201.5806 157.8525,210.5806" fill="none" style="stroke:#FFFFFF;stroke-width:1.5;"/><path d="M203.3096,223.5952 C203.3096,232.5952 200.3096,235.5952 191.3096,235.5952" fill="none" style="stroke:#FFFFFF;stroke-width:1.5;"/><line style="stroke:#FFFFFF;stroke-width:1.5;" x1="203.3096" x2="203.3096" y1="210.5806" y2="223.5952"/><path d="M203.3096,210.5806 C203.3096,201.5806 206.3096,198.5806 215.3096,198.5806" fill="none" style="stroke:#FFFFFF;stroke-width:1.5;"/><line style="stroke:#FFFFFF;stroke-width:1.5;" x1="239.3096" x2="259.3096" y1="175.0732" y2="175.0732"/><rect fill="none" height="27.0146" style="stroke:#FFFFFF;stroke-width:1;stroke-dasharray:5,5;" width="111.541" x="259.3096" y="161.5659"/><text fill="#FFFFFF" font-family="Verdana" font-size="14" lengthAdjust="spacing" textLength="91.6973" x="269.2314" y="180.6411">Decimal digit</text><line style="stroke:#FFFFFF;stroke-width:1.5;" x1="370.8506" x2="390.8506" y1="175.0732" y2="175.0732"/><line style="stroke:#FFFFFF;stroke-width:1.5;" x1="390.8506" x2="580.3916" y1="175.0732" y2="175.0732"/><path d="M464.667,175.0732 L464.667,172.0732 L470.667,175.0732 L464.667,178.0732 L464.667,175.0732" fill="#FFFFFF"/><path d="M390.8506,175.0732 C399.8506,175.0732 402.8506,183.8269 402.8506,192.8269 C402.8506,201.8269 405.8506,210.5806 414.8506,210.5806" fill="none" style="stroke:#FFFFFF;stroke-width:1.5;"/><path d="M556.3916,210.5806 C565.3916,210.5806 568.3916,201.8269 568.3916,192.8269 C568.3916,183.8269 571.3916,175.0732 580.3916,175.0732" fill="none" style="stroke:#FFFFFF;stroke-width:1.5;"/><path d="M422.8506,202.5806 C422.8506,208.5806 424.8506,210.5806 430.8506,210.5806" fill="none" style="stroke:#FFFFFF;stroke-width:1.5;"/><line style="stroke:#FFFFFF;stroke-width:1.5;" x1="422.8506" x2="422.8506" y1="198.0732" y2="202.5806"/><path d="M422.8506,198.0732 C422.8506,192.0732 424.8506,190.0732 430.8506,190.0732" fill="none" style="stroke:#FFFFFF;stroke-width:1.5;"/><line style="stroke:#FFFFFF;stroke-width:1.5;" x1="429.8506" x2="541.3916" y1="190.0732" y2="190.0732"/><path d="M494.7752,190.0732 L494.7752,187.0732 L488.7752,190.0732 L494.7752,193.0732 L494.7752,190.0732" fill="#FFFFFF"/><path d="M548.3916,202.5806 C548.3916,208.5806 546.3916,210.5806 540.3916,210.5806" fill="none" style="stroke:#FFFFFF;stroke-width:1.5;"/><line style="stroke:#FFFFFF;stroke-width:1.5;" x1="548.3916" x2="548.3916" y1="198.0732" y2="202.5806"/><path d="M540.3916,190.0732 C546.3916,190.0732 548.3916,192.0732 548.3916,198.0732" fill="none" style="stroke:#FFFFFF;stroke-width:1.5;"/><line style="stroke:#FFFFFF;stroke-width:1.5;" x1="414.8506" x2="429.8506" y1="210.5806" y2="210.5806"/><line style="stroke:#FFFFFF;stroke-width:1.5;" x1="541.3916" x2="556.3916" y1="210.5806" y2="210.5806"/><rect fill="none" height="27.0146" style="stroke:#FFFFFF;stroke-width:1;stroke-dasharray:5,5;" width="111.541" x="429.8506" y="197.0732"/><text fill="#FFFFFF" font-family="Verdana" font-size="14" lengthAdjust="spacing" textLength="91.6973" x="439.7725" y="216.1484">Decimal digit</text><ellipse cx="9" cy="175.0732" fill="none" rx="4" ry="4" style="stroke:#FFFFFF;stroke-width:2;"/><ellipse cx="610.3916" cy="175.0732" fill="#FFFFFF" rx="4" ry="4" style="stroke:#FFFFFF;stroke-width:1;"/><line style="stroke:#FFFFFF;stroke-width:1.5;" x1="13" x2="35" y1="175.0732" y2="175.0732"/><line style="stroke:#FFFFFF;stroke-width:1.5;" x1="580.3916" x2="606.3916" y1="175.0732" y2="175.0732"/><path d="M591.3916,175.0732 L591.3916,172.0732 L597.3916,175.0732 L591.3916,178.0732 L591.3916,175.0732" fill="#FFFFFF"/><!--SRC=[tLPTTn8n47tVNp7YItjiwqAB1z5g-THMg1oXzS7ZGzWC45cIDPl5elBVdIoVMy2M5b_SSvR3Jcvk9dTcCZaB3TC6sxBZF34z722mWUWonwdwYXauXI-GEap1RqWzIy5NE82tK4PF39WFN7I5eUy3-BN6EYOxpJrARHp_6YCgDu6IACtqCrMtoxnodBdz5FOWXR4BbHJiJr0FTEcLSuQInxjrpXOxdpolGpFoyOq3e9Koy8l-01IPr-zg5KbUKhxIyDGjPdE5N3nMLT9ChTNucLil6GbvZPepoMBZ-r60kYPaVuOl5uupsNY8hBZAOgsjdl3w4iCGqh6jpdHNIB3JnlHovKK3gz34Kuy5HYWv_RhDuCRMSVpReUsXlWUmXupV2sY4yN6EimeqnK-4JEQEcVQrwWRlbrTQqVoMkkiZqRJHWxRo-PHOAZxpgSvkn20QV1RSzE3OTQS8ZHtKA3ty5yk7633DZDefxUldqoHrmhwGTe415BHMFshAzqMWWYJt0hGfZnU8CdPOv9kLz5r1r9LKOS0yv7DiIKLQe5x2raG7VOfwqv06s1rHD4Bb2xu4QL3v2Ky4J9e6urp8BgJTfV4cVeziS2oLJQ2YqXIaJHjizXXNFon9X_aXBerSXLX4moPA6XrXGZpFYA4mepX8cukzoFJjgArpP_sPi2BfU3amTZcc9mwipav2RsBKJAriOhGajESZB_NeovlLzxh4MeaQm2V6HHJ2ooIXpwXOxz1bDoB4InMCqQ8T6TmWnNquchHnL8PEsuUHL1T7uzPpbmwHxUVQ_a3rqe-d9vl4CkxSKx91qM1TJ23dIRaXKYiSMWoPUIm7QKMPnX_74hLzuJsOub8zD5y-jh-HzvFyNfF5uyH9jL1yHndVD3Fvjokk9CSisGlhcVvwLgrdAksCgR8pflETCLq-aebQIOc5E25iRNdA_FzNwePFlVogNeCXwj3UHTD76JUJFKgxUwq8gLQ7u9v0EfVFkFcJbr2gjC2Expjxxner2AaTUKZKuQGF4C6-Sy6633v5qeW1vk5ZWFAY_65cW8eS2gsalGKx5zVr1U35oM6H76oY9bVWkkvCxouqmrEsUURXgbKzp3ar9hiHrNOUK3hK4ANHepoKAty0]--></g></svg>