<svg xmlns="http://www.w3.org/2000/svg" xmlns:xlink="http://www.w3.org/1999/xlink" contentStyleType="text/css" data-diagram-type="EBNF" height="545px" preserveAspectRatio="none" style="width:376px;height:545px;background:#0B58A8;" version="1.1" viewBox="0 0 376 545" width="376px" zoomAndPan="magnify"><defs/><g><rect fill="#0B58A8" height="545" style="stroke:none;stroke-width:1;" width="376" x="0" y="0"/><text fill="#FFFFFF" font-family="Verdana" font-size="14" font-weight="bold" lengthAdjust="spacing" textLength="47.8311" x="5" y="19.0752">String</text><line style="stroke:#FFFFFF;stroke-width:1.5;" x1="35" x2="35" y1="45.522" y2="45.522"/><rect fill="none" height="27.0146" style="stroke:#FFFFFF;stroke-width:0.5;" width="16.4258" x="35" y="32.0146"/><text fill="#FFFFFF" font-family="Verdana" font-size="14" lengthAdjust="spacing" textLength="6.4258" x="40" y="51.0898">"</text><line style="stroke:#FFFFFF;stroke-width:1.5;" x1="51.4258" x2="71.4258" y1="45.522" y2="45.522"/><line style="stroke:#FFFFFF;stroke-width:1.5;" x1="71.4258" x2="270.4619" y1="45.522" y2="45.522"/><path d="M149.0402,45.522 L149.0402,42.522 L155.0402,45.522 L149.0402,48.522 L149.0402,45.522" fill="#FFFFFF"/><path d="M71.4258,45.522 C80.4258,45.522 83.4258,54.2756 83.4258,63.2756 C83.4258,72.2756 86.4258,81.0293 95.4258,81.0293" fill="none" style="stroke:#FFFFFF;stroke-width:1.5;"/><path d="M246.4619,81.0293 C255.4619,81.0293 258.4619,72.2756 258.4619,63.2756 C258.4619,54.2756 261.4619,45.522 270.4619,45.522" fill="none" style="stroke:#FFFFFF;stroke-width:1.5;"/><path d="M103.4258,73.0293 C103.4258,79.0293 105.4258,81.0293 111.4258,81.0293" fill="none" style="stroke:#FFFFFF;stroke-width:1.5;"/><line style="stroke:#FFFFFF;stroke-width:1.5;" x1="103.4258" x2="103.4258" y1="68.522" y2="73.0293"/><path d="M103.4258,68.522 C103.4258,62.522 105.4258,60.522 111.4258,60.522" fill="none" style="stroke:#FFFFFF;stroke-width:1.5;"/><line style="stroke:#FFFFFF;stroke-width:1.5;" x1="110.4258" x2="231.4619" y1="60.522" y2="60.522"/><path d="M181.0475,60.522 L181.0475,57.522 L175.0475,60.522 L181.0475,63.522 L181.0475,60.522" fill="#FFFFFF"/><path d="M238.4619,73.0293 C238.4619,79.0293 236.4619,81.0293 230.4619,81.0293" fill="none" style="stroke:#FFFFFF;stroke-width:1.5;"/><line style="stroke:#FFFFFF;stroke-width:1.5;" x1="238.4619" x2="238.4619" y1="68.522" y2="73.0293"/><path d="M230.4619,60.522 C236.4619,60.522 238.4619,62.522 238.4619,68.522" fill="none" style="stroke:#FFFFFF;stroke-width:1.5;"/><line style="stroke:#FFFFFF;stroke-width:1.5;" x1="95.4258" x2="110.4258" y1="81.0293" y2="81.0293"/><line style="stroke:#FFFFFF;stroke-width:1.5;" x1="231.4619" x2="246.4619" y1="81.0293" y2="81.0293"/><rect fill="#0B58A8" height="27.0146" rx="5" ry="5" style="stroke:#FFFFFF;stroke-width:1.5;" width="121.0361" x="110.4258" y="67.522"/><text fill="#FFFFFF" font-family="Verdana" font-size="14" lengthAdjust="spacing" textLength="111.0361" x="115.4258" y="86.5972">StringCharacter</text><line style="stroke:#FFFFFF;stroke-width:1.5;" x1="270.4619" x2="290.4619" y1="45.522" y2="45.522"/><rect fill="none" height="27.0146" style="stroke:#FFFFFF;stroke-width:0.5;" width="16.4258" x="290.4619" y="32.0146"/><text fill="#FFFFFF" font-family="Verdana" font-size="14" lengthAdjust="spacing" textLength="6.4258" x="295.4619" y="51.0898">"</text><ellipse cx="9" cy="45.522" fill="none" rx="4" ry="4" style="stroke:#FFFFFF;stroke-width:2;"/><ellipse cx="336.8877" cy="45.522" fill="#FFFFFF" rx="4" ry="4" style="stroke:#FFFFFF;stroke-width:1;"/><line style="stroke:#FFFFFF;stroke-width:1.5;" x1="13" x2="35" y1="45.522" y2="45.522"/><line style="stroke:#FFFFFF;stroke-width:1.5;" x1="306.8877" x2="332.8877" y1="45.522" y2="45.522"/><path d="M317.8877,45.522 L317.8877,42.522 L323.8877,45.522 L317.8877,48.522 L317.8877,45.522" fill="#FFFFFF"/><text fill="#FFFFFF" font-family="Verdana" font-size="14" font-weight="bold" lengthAdjust="spacing" textLength="124.4688" x="5" y="123.6118">StringCharacter</text><rect fill="#0B58A8" height="27.0146" rx="5" ry="5" style="stroke:#FFFFFF;stroke-width:1.5;" width="116.4014" x="59" y="136.5513"/><text fill="#FFFFFF" font-family="Verdana" font-size="14" lengthAdjust="spacing" textLength="106.4014" x="64" y="155.6265">InputCharacter</text><line style="stroke:#FFFFFF;stroke-width:1.5;" x1="35" x2="59" y1="150.0586" y2="150.0586"/><line style="stroke:#FFFFFF;stroke-width:1.5;" x1="175.4014" x2="210.2363" y1="150.0586" y2="150.0586"/><rect fill="#0B58A8" height="27.0146" rx="5" ry="5" style="stroke:#FFFFFF;stroke-width:1.5;" width="127.2363" x="59" y="173.5659"/><text fill="#FFFFFF" font-family="Verdana" font-size="14" lengthAdjust="spacing" textLength="117.2363" x="64" y="192.6411">EscapeSequence</text><line style="stroke:#FFFFFF;stroke-width:1.5;" x1="186.2363" x2="186.2363" y1="187.0732" y2="187.0732"/><path d="M47,175.0732 C47,184.0732 50,187.0732 59,187.0732" fill="none" style="stroke:#FFFFFF;stroke-width:1.5;"/><line style="stroke:#FFFFFF;stroke-width:1.5;" x1="47" x2="47" y1="162.0586" y2="175.0732"/><path d="M35,150.0586 C44,150.0586 47,153.0586 47,162.0586" fill="none" style="stroke:#FFFFFF;stroke-width:1.5;"/><path d="M198.2363,175.0732 C198.2363,184.0732 195.2363,187.0732 186.2363,187.0732" fill="none" style="stroke:#FFFFFF;stroke-width:1.5;"/><line style="stroke:#FFFFFF;stroke-width:1.5;" x1="198.2363" x2="198.2363" y1="162.0586" y2="175.0732"/><path d="M198.2363,162.0586 C198.2363,153.0586 201.2363,150.0586 210.2363,150.0586" fill="none" style="stroke:#FFFFFF;stroke-width:1.5;"/><ellipse cx="9" cy="150.0586" fill="none" rx="4" ry="4" style="stroke:#FFFFFF;stroke-width:2;"/><ellipse cx="240.2363" cy="150.0586" fill="#FFFFFF" rx="4" ry="4" style="stroke:#FFFFFF;stroke-width:1;"/><line style="stroke:#FFFFFF;stroke-width:1.5;" x1="13" x2="35" y1="150.0586" y2="150.0586"/><line style="stroke:#FFFFFF;stroke-width:1.5;" x1="210.2363" x2="236.2363" y1="150.0586" y2="150.0586"/><path d="M221.2363,150.0586 L221.2363,147.0586 L227.2363,150.0586 L221.2363,153.0586 L221.2363,150.0586" fill="#FFFFFF"/><text fill="#FFFFFF" font-family="Verdana" font-size="14" font-weight="bold" lengthAdjust="spacing" textLength="120.3945" x="5" y="229.6558">InputCharacter</text><line style="stroke:#FFFFFF;stroke-width:1.5;" x1="35" x2="35" y1="256.1025" y2="256.1025"/><rect fill="none" height="27.0146" style="stroke:#FFFFFF;stroke-width:1;stroke-dasharray:5,5;" width="178.5879" x="35" y="242.5952"/><text fill="#FFFFFF" font-family="Verdana" font-size="14" lengthAdjust="spacing" textLength="158.7441" x="44.9219" y="261.6704">All Unicode Characters</text><line style="stroke:#FFFFFF;stroke-width:1.5;" x1="213.5879" x2="233.5879" y1="256.1025" y2="256.1025"/><text fill="#FFFFFF" font-family="Verdana" font-size="14" lengthAdjust="spacing" textLength="30.1191" x="236.5879" y="260.042">NOT</text><rect fill="none" height="27.0146" style="stroke:#FFFFFF;stroke-width:0.5;" width="16.3574" x="295.707" y="242.5952"/><text fill="#FFFFFF" font-family="Verdana" font-size="14" lengthAdjust="spacing" textLength="6.3574" x="300.707" y="261.6704">\</text><line style="stroke:#FFFFFF;stroke-width:1.5;" x1="271.707" x2="295.707" y1="256.1025" y2="256.1025"/><line style="stroke:#FFFFFF;stroke-width:1.5;" x1="312.0645" x2="336.1328" y1="256.1025" y2="256.1025"/><rect fill="none" height="27.0146" style="stroke:#FFFFFF;stroke-width:0.5;" width="16.4258" x="295.707" y="279.6099"/><text fill="#FFFFFF" font-family="Verdana" font-size="14" lengthAdjust="spacing" textLength="6.4258" x="300.707" y="298.6851">"</text><line style="stroke:#FFFFFF;stroke-width:1.5;" x1="312.1328" x2="312.1328" y1="293.1172" y2="293.1172"/><path d="M283.707,281.1172 C283.707,290.1172 286.707,293.1172 295.707,293.1172" fill="none" style="stroke:#FFFFFF;stroke-width:1.5;"/><line style="stroke:#FFFFFF;stroke-width:1.5;" x1="283.707" x2="283.707" y1="268.1025" y2="281.1172"/><path d="M271.707,256.1025 C280.707,256.1025 283.707,259.1025 283.707,268.1025" fill="none" style="stroke:#FFFFFF;stroke-width:1.5;"/><path d="M324.1328,281.1172 C324.1328,290.1172 321.1328,293.1172 312.1328,293.1172" fill="none" style="stroke:#FFFFFF;stroke-width:1.5;"/><line style="stroke:#FFFFFF;stroke-width:1.5;" x1="324.1328" x2="324.1328" y1="268.1025" y2="281.1172"/><path d="M324.1328,268.1025 C324.1328,259.1025 327.1328,256.1025 336.1328,256.1025" fill="none" style="stroke:#FFFFFF;stroke-width:1.5;"/><ellipse cx="9" cy="256.1025" fill="none" rx="4" ry="4" style="stroke:#FFFFFF;stroke-width:2;"/><ellipse cx="366.1328" cy="256.1025" fill="#FFFFFF" rx="4" ry="4" style="stroke:#FFFFFF;stroke-width:1;"/><line style="stroke:#FFFFFF;stroke-width:1.5;" x1="13" x2="35" y1="256.1025" y2="256.1025"/><line style="stroke:#FFFFFF;stroke-width:1.5;" x1="336.1328" x2="362.1328" y1="256.1025" y2="256.1025"/><path d="M347.1328,256.1025 L347.1328,253.1025 L353.1328,256.1025 L347.1328,259.1025 L347.1328,256.1025" fill="#FFFFFF"/><text fill="#FFFFFF" font-family="Verdana" font-size="14" font-weight="bold" lengthAdjust="spacing" textLength="130.3545" x="5" y="335.6997">EscapeSequence</text><line style="stroke:#FFFFFF;stroke-width:1.5;" x1="35" x2="35" y1="362.1465" y2="362.1465"/><rect fill="none" height="27.0146" style="stroke:#FFFFFF;stroke-width:0.5;" width="16.3574" x="35" y="348.6392"/><text fill="#FFFFFF" font-family="Verdana" font-size="14" lengthAdjust="spacing" textLength="6.3574" x="40" y="367.7144">\</text><line style="stroke:#FFFFFF;stroke-width:1.5;" x1="51.3574" x2="71.3574" y1="362.1465" y2="362.1465"/><rect fill="none" height="27.0146" style="stroke:#FFFFFF;stroke-width:0.5;" width="15.5166" x="95.3574" y="348.6392"/><text fill="#FFFFFF" font-family="Verdana" font-size="14" lengthAdjust="spacing" textLength="5.5166" x="100.3574" y="367.7144">t</text><line style="stroke:#FFFFFF;stroke-width:1.5;" x1="71.3574" x2="95.3574" y1="362.1465" y2="362.1465"/><line style="stroke:#FFFFFF;stroke-width:1.5;" x1="110.874" x2="138.2168" y1="362.1465" y2="362.1465"/><rect fill="none" height="27.0146" style="stroke:#FFFFFF;stroke-width:0.5;" width="15.9746" x="95.3574" y="385.6538"/><text fill="#FFFFFF" font-family="Verdana" font-size="14" lengthAdjust="spacing" textLength="5.9746" x="100.3574" y="404.729">r</text><path d="M83.3574,387.1611 C83.3574,396.1611 86.3574,399.1611 95.3574,399.1611" fill="none" style="stroke:#FFFFFF;stroke-width:1.5;"/><line style="stroke:#FFFFFF;stroke-width:1.5;" x1="111.332" x2="114.2168" y1="399.1611" y2="399.1611"/><path d="M126.2168,387.1611 C126.2168,396.1611 123.2168,399.1611 114.2168,399.1611" fill="none" style="stroke:#FFFFFF;stroke-width:1.5;"/><rect fill="none" height="27.0146" style="stroke:#FFFFFF;stroke-width:0.5;" width="18.8594" x="95.3574" y="422.6685"/><text fill="#FFFFFF" font-family="Verdana" font-size="14" lengthAdjust="spacing" textLength="8.8594" x="100.3574" y="441.7437">n</text><path d="M83.3574,424.1758 C83.3574,433.1758 86.3574,436.1758 95.3574,436.1758" fill="none" style="stroke:#FFFFFF;stroke-width:1.5;"/><line style="stroke:#FFFFFF;stroke-width:1.5;" x1="114.2168" x2="114.2168" y1="436.1758" y2="436.1758"/><path d="M126.2168,424.1758 C126.2168,433.1758 123.2168,436.1758 114.2168,436.1758" fill="none" style="stroke:#FFFFFF;stroke-width:1.5;"/><rect fill="none" height="27.0146" style="stroke:#FFFFFF;stroke-width:0.5;" width="16.3574" x="95.3574" y="459.6831"/><text fill="#FFFFFF" font-family="Verdana" font-size="14" lengthAdjust="spacing" textLength="6.3574" x="100.3574" y="478.7583">\</text><path d="M83.3574,461.1904 C83.3574,470.1904 86.3574,473.1904 95.3574,473.1904" fill="none" style="stroke:#FFFFFF;stroke-width:1.5;"/><line style="stroke:#FFFFFF;stroke-width:1.5;" x1="111.7148" x2="114.2168" y1="473.1904" y2="473.1904"/><path d="M126.2168,461.1904 C126.2168,470.1904 123.2168,473.1904 114.2168,473.1904" fill="none" style="stroke:#FFFFFF;stroke-width:1.5;"/><rect fill="none" height="27.0146" style="stroke:#FFFFFF;stroke-width:0.5;" width="16.4258" x="95.3574" y="496.6978"/><text fill="#FFFFFF" font-family="Verdana" font-size="14" lengthAdjust="spacing" textLength="6.4258" x="100.3574" y="515.7729">"</text><line style="stroke:#FFFFFF;stroke-width:1.5;" x1="111.7832" x2="114.2168" y1="510.2051" y2="510.2051"/><path d="M83.3574,498.2051 C83.3574,507.2051 86.3574,510.2051 95.3574,510.2051" fill="none" style="stroke:#FFFFFF;stroke-width:1.5;"/><line style="stroke:#FFFFFF;stroke-width:1.5;" x1="83.3574" x2="83.3574" y1="374.1465" y2="498.2051"/><path d="M71.3574,362.1465 C80.3574,362.1465 83.3574,365.1465 83.3574,374.1465" fill="none" style="stroke:#FFFFFF;stroke-width:1.5;"/><path d="M126.2168,498.2051 C126.2168,507.2051 123.2168,510.2051 114.2168,510.2051" fill="none" style="stroke:#FFFFFF;stroke-width:1.5;"/><line style="stroke:#FFFFFF;stroke-width:1.5;" x1="126.2168" x2="126.2168" y1="374.1465" y2="498.2051"/><path d="M126.2168,374.1465 C126.2168,365.1465 129.2168,362.1465 138.2168,362.1465" fill="none" style="stroke:#FFFFFF;stroke-width:1.5;"/><ellipse cx="9" cy="362.1465" fill="none" rx="4" ry="4" style="stroke:#FFFFFF;stroke-width:2;"/><ellipse cx="168.2168" cy="362.1465" fill="#FFFFFF" rx="4" ry="4" style="stroke:#FFFFFF;stroke-width:1;"/><line style="stroke:#FFFFFF;stroke-width:1.5;" x1="13" x2="35" y1="362.1465" y2="362.1465"/><line style="stroke:#FFFFFF;stroke-width:1.5;" x1="138.2168" x2="164.2168" y1="362.1465" y2="362.1465"/><path d="M149.2168,362.1465 L149.2168,359.1465 L155.2168,362.1465 L149.2168,365.1465 L149.2168,362.1465" fill="#FFFFFF"/><!--SRC=[vLPRSn8n57xVNt7KXxOphIwqTIfQBL2ghL0PeVN5bx0vG6H9rcmMYvN_xacuBCl5sXQVt1bsXdE-yoNvpYLx4Xkc3RPastjYkjX7O7tHOPxNC5h83Xp3rjCjs8LR61lANQPPO533YApMztgAJLt7S2wZnCmC7Ymylw0I1op21dvFK0PeIR8XnF4EYc48Lr84YYFCF34vzc0Rjhvk4O_TmOuDNo0yTlvTYpCEfzrRkdScyWGbT-VtJb8jni-Rs0n3V4lRrqePk7NdAB6Wrz4gaRoiGgNXcLywF2eUET-PacPYFNFFp7h9IDfhr9n9vemVXX7ggf2zAVwqk9y_T2wouZABjJQx8kX9Z6F8ELkDwOwGOCD6zECgIFeefpibGOnGSl9laS5trf5xj-bufFdTm2uo_bT08qo8CvnLe25-8kJpTqJQdrKt-Z2_qfBc2-gkpaJ3PWzQAkGJOcaBwNQYt8te9_qlWfikxFl-1A6nZTeMqBzOFiQ8QjYeZTA-UJ4fKY_k2MaNw4DHQ_MZgi9GH2hASgUWTNMS8awnpPBGB9Nl4gAcf8eZ5Y2VOSigqO8wFyLMHHj3oZeD2sQmCwHin2eKV0vIf_OJWOYOD7N6kPq_EN_EF-rkIsKBgAGq9MdT0HjTnjKFIz9cOOnpdgiOIsZOM4cZ4yo85nWn46ReahI-sKjCBsPjrNPMpuGbIKVpYR7BCJtUm79q5dhZK5Er3ZFUij11Y3oTgGk4ixCiPGtWC-CYYU5LbZ1arAntwB8P4TnIHKCNIoink4QAl-5eqC5H6Pgs3oCvIqVZlMFdXiZzO-tzGFtIS-7PIs8UTnueMQTii0vcaBEYN9Ef9Guj1imybeEqeahZZsD9Mg487anngHvQBvzQtsZtu_fUKSMZpAHA5TzGnJVCLFxxDLUMOrhinTLCVvnLgvdA6sEgR8pfV6DCbuzaegkap68S4pRlEMN-nu_iUaYt-rMj2WDQnNwTvfxd_VpXyvo_tKoGkdS0_W7aZWfvlt3m2igL9bZ_ZhVzlbw5c2ueMfYBU7mp4C6ETy4633udqeW-5k1JXFBYzEFK01Kv45f9-rtiNLpNKi3BWxsICFHHeMahS5tp9byp545YaDO5k6gUxHrvLIOx2NLx0L1wT4LAeuS5EAty1W00]--></g></svg>