<svg xmlns="http://www.w3.org/2000/svg" xmlns:xlink="http://www.w3.org/1999/xlink" contentStyleType="text/css" data-diagram-type="EBNF" height="1097px" preserveAspectRatio="none" style="width:539px;height:1097px;background:#0B58A8;" version="1.1" viewBox="0 0 539 1097" width="539px" zoomAndPan="magnify"><defs/><g><rect fill="#0B58A8" height="1097" style="stroke:none;stroke-width:1;" width="539" x="0" y="0"/><text fill="#FFFFFF" font-family="Verdana" font-size="14" font-weight="bold" lengthAdjust="spacing" textLength="29.3262" x="5" y="19.0752">Edn</text><line style="stroke:#FFFFFF;stroke-width:1.5;" x1="35" x2="254.8018" y1="42.0146" y2="42.0146"/><path d="M120.9207,42.0146 L120.9207,39.0146 L126.9207,42.0146 L120.9207,45.0146 L120.9207,42.0146" fill="#FFFFFF"/><path d="M35,42.0146 C44,42.0146 47,50.7683 47,59.7683 C47,68.7683 50,77.522 59,77.522" fill="none" style="stroke:#FFFFFF;stroke-width:1.5;"/><path d="M230.8018,77.522 C239.8018,77.522 242.8018,68.7683 242.8018,59.7683 C242.8018,50.7683 245.8018,42.0146 254.8018,42.0146" fill="none" style="stroke:#FFFFFF;stroke-width:1.5;"/><path d="M67,69.522 C67,75.522 69,77.522 75,77.522" fill="none" style="stroke:#FFFFFF;stroke-width:1.5;"/><line style="stroke:#FFFFFF;stroke-width:1.5;" x1="67" x2="67" y1="65.0146" y2="69.522"/><path d="M67,65.0146 C67,59.0146 69,57.0146 75,57.0146" fill="none" style="stroke:#FFFFFF;stroke-width:1.5;"/><line style="stroke:#FFFFFF;stroke-width:1.5;" x1="74" x2="215.8018" y1="57.0146" y2="57.0146"/><path d="M157.0811,57.0146 L157.0811,54.0146 L151.0811,57.0146 L157.0811,60.0146 L157.0811,57.0146" fill="#FFFFFF"/><path d="M222.8018,69.522 C222.8018,75.522 220.8018,77.522 214.8018,77.522" fill="none" style="stroke:#FFFFFF;stroke-width:1.5;"/><line style="stroke:#FFFFFF;stroke-width:1.5;" x1="222.8018" x2="222.8018" y1="65.0146" y2="69.522"/><path d="M214.8018,57.0146 C220.8018,57.0146 222.8018,59.0146 222.8018,65.0146" fill="none" style="stroke:#FFFFFF;stroke-width:1.5;"/><line style="stroke:#FFFFFF;stroke-width:1.5;" x1="59" x2="74" y1="77.522" y2="77.522"/><line style="stroke:#FFFFFF;stroke-width:1.5;" x1="215.8018" x2="230.8018" y1="77.522" y2="77.522"/><rect fill="#0B58A8" height="27.0146" rx="5" ry="5" style="stroke:#FFFFFF;stroke-width:1.5;" width="92.7354" x="98" y="64.0146"/><text fill="#FFFFFF" font-family="Verdana" font-size="14" lengthAdjust="spacing" textLength="82.7354" x="103" y="83.0898">WhiteSpace</text><line style="stroke:#FFFFFF;stroke-width:1.5;" x1="74" x2="98" y1="77.522" y2="77.522"/><line style="stroke:#FFFFFF;stroke-width:1.5;" x1="190.7354" x2="215.8018" y1="77.522" y2="77.522"/><rect fill="#0B58A8" height="27.0146" rx="5" ry="5" style="stroke:#FFFFFF;stroke-width:1.5;" width="93.8018" x="98" y="101.0293"/><text fill="#FFFFFF" font-family="Verdana" font-size="14" lengthAdjust="spacing" textLength="83.8018" x="103" y="120.1045">EdnElement</text><line style="stroke:#FFFFFF;stroke-width:1.5;" x1="191.8018" x2="191.8018" y1="114.5366" y2="114.5366"/><path d="M86,102.5366 C86,111.5366 89,114.5366 98,114.5366" fill="none" style="stroke:#FFFFFF;stroke-width:1.5;"/><line style="stroke:#FFFFFF;stroke-width:1.5;" x1="86" x2="86" y1="89.522" y2="102.5366"/><path d="M74,77.522 C83,77.522 86,80.522 86,89.522" fill="none" style="stroke:#FFFFFF;stroke-width:1.5;"/><path d="M203.8018,102.5366 C203.8018,111.5366 200.8018,114.5366 191.8018,114.5366" fill="none" style="stroke:#FFFFFF;stroke-width:1.5;"/><line style="stroke:#FFFFFF;stroke-width:1.5;" x1="203.8018" x2="203.8018" y1="89.522" y2="102.5366"/><path d="M203.8018,89.522 C203.8018,80.522 206.8018,77.522 215.8018,77.522" fill="none" style="stroke:#FFFFFF;stroke-width:1.5;"/><ellipse cx="9" cy="42.0146" fill="none" rx="4" ry="4" style="stroke:#FFFFFF;stroke-width:2;"/><ellipse cx="284.8018" cy="42.0146" fill="#FFFFFF" rx="4" ry="4" style="stroke:#FFFFFF;stroke-width:1;"/><line style="stroke:#FFFFFF;stroke-width:1.5;" x1="13" x2="35" y1="42.0146" y2="42.0146"/><line style="stroke:#FFFFFF;stroke-width:1.5;" x1="254.8018" x2="280.8018" y1="42.0146" y2="42.0146"/><path d="M265.8018,42.0146 L265.8018,39.0146 L271.8018,42.0146 L265.8018,45.0146 L265.8018,42.0146" fill="#FFFFFF"/><text fill="#FFFFFF" font-family="Verdana" font-size="14" font-weight="bold" lengthAdjust="spacing" textLength="92.8525" x="5" y="157.1191">WhiteSpace</text><rect fill="none" height="27.0146" style="stroke:#FFFFFF;stroke-width:0.5;" width="14.9219" x="59" y="170.0586"/><text fill="#FFFFFF" font-family="Verdana" font-size="14" lengthAdjust="spacing" textLength="4.9219" x="64" y="189.1338">&#160;</text><line style="stroke:#FFFFFF;stroke-width:1.5;" x1="35" x2="59" y1="183.5659" y2="183.5659"/><line style="stroke:#FFFFFF;stroke-width:1.5;" x1="73.9219" x2="161.2227" y1="183.5659" y2="183.5659"/><rect fill="none" height="27.0146" style="stroke:#FFFFFF;stroke-width:0.5;" width="21.874" x="59" y="207.0732"/><text fill="#FFFFFF" font-family="Verdana" font-size="14" lengthAdjust="spacing" textLength="11.874" x="64" y="226.1484">\t</text><path d="M47,208.5806 C47,217.5806 50,220.5806 59,220.5806" fill="none" style="stroke:#FFFFFF;stroke-width:1.5;"/><line style="stroke:#FFFFFF;stroke-width:1.5;" x1="80.874" x2="137.2227" y1="220.5806" y2="220.5806"/><path d="M107.0483,220.5806 L107.0483,217.5806 L113.0483,220.5806 L107.0483,223.5806 L107.0483,220.5806" fill="#FFFFFF"/><path d="M149.2227,208.5806 C149.2227,217.5806 146.2227,220.5806 137.2227,220.5806" fill="none" style="stroke:#FFFFFF;stroke-width:1.5;"/><rect fill="none" height="27.0146" style="stroke:#FFFFFF;stroke-width:0.5;" width="25.2168" x="59" y="244.0879"/><text fill="#FFFFFF" font-family="Verdana" font-size="14" lengthAdjust="spacing" textLength="15.2168" x="64" y="263.1631">\n</text><path d="M47,245.5952 C47,254.5952 50,257.5952 59,257.5952" fill="none" style="stroke:#FFFFFF;stroke-width:1.5;"/><line style="stroke:#FFFFFF;stroke-width:1.5;" x1="84.2168" x2="137.2227" y1="257.5952" y2="257.5952"/><path d="M108.7197,257.5952 L108.7197,254.5952 L114.7197,257.5952 L108.7197,260.5952 L108.7197,257.5952" fill="#FFFFFF"/><path d="M149.2227,245.5952 C149.2227,254.5952 146.2227,257.5952 137.2227,257.5952" fill="none" style="stroke:#FFFFFF;stroke-width:1.5;"/><rect fill="none" height="27.0146" style="stroke:#FFFFFF;stroke-width:0.5;" width="22.332" x="59" y="281.1025"/><text fill="#FFFFFF" font-family="Verdana" font-size="14" lengthAdjust="spacing" textLength="12.332" x="64" y="300.1777">\r</text><path d="M47,282.6099 C47,291.6099 50,294.6099 59,294.6099" fill="none" style="stroke:#FFFFFF;stroke-width:1.5;"/><line style="stroke:#FFFFFF;stroke-width:1.5;" x1="81.332" x2="137.2227" y1="294.6099" y2="294.6099"/><path d="M107.2773,294.6099 L107.2773,291.6099 L113.2773,294.6099 L107.2773,297.6099 L107.2773,294.6099" fill="#FFFFFF"/><path d="M149.2227,282.6099 C149.2227,291.6099 146.2227,294.6099 137.2227,294.6099" fill="none" style="stroke:#FFFFFF;stroke-width:1.5;"/><rect fill="none" height="27.0146" style="stroke:#FFFFFF;stroke-width:0.5;" width="15.0928" x="59" y="318.1172"/><text fill="#FFFFFF" font-family="Verdana" font-size="14" lengthAdjust="spacing" textLength="5.0928" x="64" y="337.1924">,</text><path d="M47,319.6245 C47,328.6245 50,331.6245 59,331.6245" fill="none" style="stroke:#FFFFFF;stroke-width:1.5;"/><line style="stroke:#FFFFFF;stroke-width:1.5;" x1="74.0928" x2="137.2227" y1="331.6245" y2="331.6245"/><path d="M103.6577,331.6245 L103.6577,328.6245 L109.6577,331.6245 L103.6577,334.6245 L103.6577,331.6245" fill="#FFFFFF"/><path d="M149.2227,319.6245 C149.2227,328.6245 146.2227,331.6245 137.2227,331.6245" fill="none" style="stroke:#FFFFFF;stroke-width:1.5;"/><rect fill="#0B58A8" height="27.0146" rx="5" ry="5" style="stroke:#FFFFFF;stroke-width:1.5;" width="78.2227" x="59" y="355.1318"/><text fill="#FFFFFF" font-family="Verdana" font-size="14" lengthAdjust="spacing" textLength="68.2227" x="64" y="374.207">Comment</text><line style="stroke:#FFFFFF;stroke-width:1.5;" x1="137.2227" x2="137.2227" y1="368.6392" y2="368.6392"/><path d="M47,356.6392 C47,365.6392 50,368.6392 59,368.6392" fill="none" style="stroke:#FFFFFF;stroke-width:1.5;"/><line style="stroke:#FFFFFF;stroke-width:1.5;" x1="47" x2="47" y1="195.5659" y2="356.6392"/><path d="M35,183.5659 C44,183.5659 47,186.5659 47,195.5659" fill="none" style="stroke:#FFFFFF;stroke-width:1.5;"/><path d="M149.2227,356.6392 C149.2227,365.6392 146.2227,368.6392 137.2227,368.6392" fill="none" style="stroke:#FFFFFF;stroke-width:1.5;"/><line style="stroke:#FFFFFF;stroke-width:1.5;" x1="149.2227" x2="149.2227" y1="195.5659" y2="356.6392"/><path d="M149.2227,195.5659 C149.2227,186.5659 152.2227,183.5659 161.2227,183.5659" fill="none" style="stroke:#FFFFFF;stroke-width:1.5;"/><ellipse cx="9" cy="183.5659" fill="none" rx="4" ry="4" style="stroke:#FFFFFF;stroke-width:2;"/><ellipse cx="191.2227" cy="183.5659" fill="#FFFFFF" rx="4" ry="4" style="stroke:#FFFFFF;stroke-width:1;"/><line style="stroke:#FFFFFF;stroke-width:1.5;" x1="13" x2="35" y1="183.5659" y2="183.5659"/><line style="stroke:#FFFFFF;stroke-width:1.5;" x1="161.2227" x2="187.2227" y1="183.5659" y2="183.5659"/><path d="M172.2227,183.5659 L172.2227,180.5659 L178.2227,183.5659 L172.2227,186.5659 L172.2227,183.5659" fill="#FFFFFF"/><text fill="#FFFFFF" font-family="Verdana" font-size="14" font-weight="bold" lengthAdjust="spacing" textLength="75.0176" x="5" y="411.2217">Comment</text><line style="stroke:#FFFFFF;stroke-width:1.5;" x1="35" x2="35" y1="437.6685" y2="437.6685"/><rect fill="none" height="27.0146" style="stroke:#FFFFFF;stroke-width:0.5;" width="16.3574" x="35" y="424.1611"/><text fill="#FFFFFF" font-family="Verdana" font-size="14" lengthAdjust="spacing" textLength="6.3574" x="40" y="443.2363">;</text><line style="stroke:#FFFFFF;stroke-width:1.5;" x1="51.3574" x2="71.3574" y1="437.6685" y2="437.6685"/><line style="stroke:#FFFFFF;stroke-width:1.5;" x1="71.3574" x2="341.2549" y1="437.6685" y2="437.6685"/><path d="M177.3164,437.6685 L177.3164,434.6685 L183.3164,437.6685 L177.3164,440.6685 L177.3164,437.6685" fill="#FFFFFF"/><path d="M71.3574,437.6685 C80.3574,437.6685 83.3574,446.4221 83.3574,455.4221 C83.3574,464.4221 86.3574,473.1758 95.3574,473.1758" fill="none" style="stroke:#FFFFFF;stroke-width:1.5;"/><path d="M317.2549,473.1758 C326.2549,473.1758 329.2549,464.4221 329.2549,455.4221 C329.2549,446.4221 332.2549,437.6685 341.2549,437.6685" fill="none" style="stroke:#FFFFFF;stroke-width:1.5;"/><path d="M103.3574,465.1758 C103.3574,471.1758 105.3574,473.1758 111.3574,473.1758" fill="none" style="stroke:#FFFFFF;stroke-width:1.5;"/><line style="stroke:#FFFFFF;stroke-width:1.5;" x1="103.3574" x2="103.3574" y1="460.6685" y2="465.1758"/><path d="M103.3574,460.6685 C103.3574,454.6685 105.3574,452.6685 111.3574,452.6685" fill="none" style="stroke:#FFFFFF;stroke-width:1.5;"/><line style="stroke:#FFFFFF;stroke-width:1.5;" x1="110.3574" x2="302.2549" y1="452.6685" y2="452.6685"/><path d="M223.4959,452.6685 L223.4959,449.6685 L217.4959,452.6685 L223.4959,455.6685 L223.4959,452.6685" fill="#FFFFFF"/><path d="M309.2549,465.1758 C309.2549,471.1758 307.2549,473.1758 301.2549,473.1758" fill="none" style="stroke:#FFFFFF;stroke-width:1.5;"/><line style="stroke:#FFFFFF;stroke-width:1.5;" x1="309.2549" x2="309.2549" y1="460.6685" y2="465.1758"/><path d="M301.2549,452.6685 C307.2549,452.6685 309.2549,454.6685 309.2549,460.6685" fill="none" style="stroke:#FFFFFF;stroke-width:1.5;"/><line style="stroke:#FFFFFF;stroke-width:1.5;" x1="95.3574" x2="110.3574" y1="473.1758" y2="473.1758"/><line style="stroke:#FFFFFF;stroke-width:1.5;" x1="302.2549" x2="317.2549" y1="473.1758" y2="473.1758"/><rect fill="none" height="27.0146" style="stroke:#FFFFFF;stroke-width:1;stroke-dasharray:5,5;" width="191.8975" x="110.3574" y="459.6685"/><text fill="#FFFFFF" font-family="Verdana" font-size="14" lengthAdjust="spacing" textLength="172.0537" x="120.2793" y="478.7437">Any char except newline</text><line style="stroke:#FFFFFF;stroke-width:1.5;" x1="341.2549" x2="361.2549" y1="437.6685" y2="437.6685"/><rect fill="none" height="27.0146" style="stroke:#FFFFFF;stroke-width:0.5;" width="25.2168" x="385.2549" y="424.1611"/><text fill="#FFFFFF" font-family="Verdana" font-size="14" lengthAdjust="spacing" textLength="15.2168" x="390.2549" y="443.2363">\n</text><line style="stroke:#FFFFFF;stroke-width:1.5;" x1="361.2549" x2="385.2549" y1="437.6685" y2="437.6685"/><line style="stroke:#FFFFFF;stroke-width:1.5;" x1="410.4717" x2="499.4814" y1="437.6685" y2="437.6685"/><rect fill="none" height="27.0146" style="stroke:#FFFFFF;stroke-width:0.5;" width="22.332" x="385.2549" y="461.1758"/><text fill="#FFFFFF" font-family="Verdana" font-size="14" lengthAdjust="spacing" textLength="12.332" x="390.2549" y="480.251">\r</text><path d="M373.2549,462.6831 C373.2549,471.6831 376.2549,474.6831 385.2549,474.6831" fill="none" style="stroke:#FFFFFF;stroke-width:1.5;"/><line style="stroke:#FFFFFF;stroke-width:1.5;" x1="407.5869" x2="475.4814" y1="474.6831" y2="474.6831"/><path d="M439.5342,474.6831 L439.5342,471.6831 L445.5342,474.6831 L439.5342,477.6831 L439.5342,474.6831" fill="#FFFFFF"/><path d="M487.4814,462.6831 C487.4814,471.6831 484.4814,474.6831 475.4814,474.6831" fill="none" style="stroke:#FFFFFF;stroke-width:1.5;"/><rect fill="#0B58A8" height="27.0146" rx="5" ry="5" style="stroke:#FFFFFF;stroke-width:1.5;" width="90.2266" x="385.2549" y="498.1904"/><text fill="#FFFFFF" font-family="Verdana" font-size="14" lengthAdjust="spacing" textLength="80.2266" x="390.2549" y="517.2656">EndOfInput</text><line style="stroke:#FFFFFF;stroke-width:1.5;" x1="475.4814" x2="475.4814" y1="511.6978" y2="511.6978"/><path d="M373.2549,499.6978 C373.2549,508.6978 376.2549,511.6978 385.2549,511.6978" fill="none" style="stroke:#FFFFFF;stroke-width:1.5;"/><line style="stroke:#FFFFFF;stroke-width:1.5;" x1="373.2549" x2="373.2549" y1="449.6685" y2="499.6978"/><path d="M361.2549,437.6685 C370.2549,437.6685 373.2549,440.6685 373.2549,449.6685" fill="none" style="stroke:#FFFFFF;stroke-width:1.5;"/><path d="M487.4814,499.6978 C487.4814,508.6978 484.4814,511.6978 475.4814,511.6978" fill="none" style="stroke:#FFFFFF;stroke-width:1.5;"/><line style="stroke:#FFFFFF;stroke-width:1.5;" x1="487.4814" x2="487.4814" y1="449.6685" y2="499.6978"/><path d="M487.4814,449.6685 C487.4814,440.6685 490.4814,437.6685 499.4814,437.6685" fill="none" style="stroke:#FFFFFF;stroke-width:1.5;"/><ellipse cx="9" cy="437.6685" fill="none" rx="4" ry="4" style="stroke:#FFFFFF;stroke-width:2;"/><ellipse cx="529.4814" cy="437.6685" fill="#FFFFFF" rx="4" ry="4" style="stroke:#FFFFFF;stroke-width:1;"/><line style="stroke:#FFFFFF;stroke-width:1.5;" x1="13" x2="35" y1="437.6685" y2="437.6685"/><line style="stroke:#FFFFFF;stroke-width:1.5;" x1="499.4814" x2="525.4814" y1="437.6685" y2="437.6685"/><path d="M510.4814,437.6685 L510.4814,434.6685 L516.4814,437.6685 L510.4814,440.6685 L510.4814,437.6685" fill="#FFFFFF"/><text fill="#FFFFFF" font-family="Verdana" font-size="14" font-weight="bold" lengthAdjust="spacing" textLength="93.4336" x="5" y="554.2803">EdnElement</text><rect fill="#0B58A8" height="27.0146" rx="5" ry="5" style="stroke:#FFFFFF;stroke-width:1.5;" width="28.1563" x="59" y="567.2197"/><text fill="#FFFFFF" font-family="Verdana" font-size="14" lengthAdjust="spacing" textLength="18.1563" x="64" y="586.2949">Nil</text><line style="stroke:#FFFFFF;stroke-width:1.5;" x1="35" x2="59" y1="580.7271" y2="580.7271"/><line style="stroke:#FFFFFF;stroke-width:1.5;" x1="87.1563" x2="213.6475" y1="580.7271" y2="580.7271"/><rect fill="#0B58A8" height="27.0146" rx="5" ry="5" style="stroke:#FFFFFF;stroke-width:1.5;" width="66.041" x="59" y="604.2344"/><text fill="#FFFFFF" font-family="Verdana" font-size="14" lengthAdjust="spacing" textLength="56.041" x="64" y="623.3096">Boolean</text><path d="M47,605.7417 C47,614.7417 50,617.7417 59,617.7417" fill="none" style="stroke:#FFFFFF;stroke-width:1.5;"/><line style="stroke:#FFFFFF;stroke-width:1.5;" x1="125.041" x2="189.6475" y1="617.7417" y2="617.7417"/><path d="M155.3442,617.7417 L155.3442,614.7417 L161.3442,617.7417 L155.3442,620.7417 L155.3442,617.7417" fill="#FFFFFF"/><path d="M201.6475,605.7417 C201.6475,614.7417 198.6475,617.7417 189.6475,617.7417" fill="none" style="stroke:#FFFFFF;stroke-width:1.5;"/><rect fill="#0B58A8" height="27.0146" rx="5" ry="5" style="stroke:#FFFFFF;stroke-width:1.5;" width="78.5508" x="59" y="641.249"/><text fill="#FFFFFF" font-family="Verdana" font-size="14" lengthAdjust="spacing" textLength="68.5508" x="64" y="660.3242">Character</text><path d="M47,642.7563 C47,651.7563 50,654.7563 59,654.7563" fill="none" style="stroke:#FFFFFF;stroke-width:1.5;"/><line style="stroke:#FFFFFF;stroke-width:1.5;" x1="137.5508" x2="189.6475" y1="654.7563" y2="654.7563"/><path d="M161.5991,654.7563 L161.5991,651.7563 L167.5991,654.7563 L161.5991,657.7563 L161.5991,654.7563" fill="#FFFFFF"/><path d="M201.6475,642.7563 C201.6475,651.7563 198.6475,654.7563 189.6475,654.7563" fill="none" style="stroke:#FFFFFF;stroke-width:1.5;"/><rect fill="#0B58A8" height="27.0146" rx="5" ry="5" style="stroke:#FFFFFF;stroke-width:1.5;" width="52.4854" x="59" y="678.2637"/><text fill="#FFFFFF" font-family="Verdana" font-size="14" lengthAdjust="spacing" textLength="42.4854" x="64" y="697.3389">String</text><path d="M47,679.771 C47,688.771 50,691.771 59,691.771" fill="none" style="stroke:#FFFFFF;stroke-width:1.5;"/><line style="stroke:#FFFFFF;stroke-width:1.5;" x1="111.4854" x2="189.6475" y1="691.771" y2="691.771"/><path d="M148.5664,691.771 L148.5664,688.771 L154.5664,691.771 L148.5664,694.771 L148.5664,691.771" fill="#FFFFFF"/><path d="M201.6475,679.771 C201.6475,688.771 198.6475,691.771 189.6475,691.771" fill="none" style="stroke:#FFFFFF;stroke-width:1.5;"/><rect fill="#0B58A8" height="27.0146" rx="5" ry="5" style="stroke:#FFFFFF;stroke-width:1.5;" width="61.6455" x="59" y="715.2783"/><text fill="#FFFFFF" font-family="Verdana" font-size="14" lengthAdjust="spacing" textLength="51.6455" x="64" y="734.3535">Integer</text><path d="M47,716.7856 C47,725.7856 50,728.7856 59,728.7856" fill="none" style="stroke:#FFFFFF;stroke-width:1.5;"/><line style="stroke:#FFFFFF;stroke-width:1.5;" x1="120.6455" x2="189.6475" y1="728.7856" y2="728.7856"/><path d="M153.1465,728.7856 L153.1465,725.7856 L159.1465,728.7856 L153.1465,731.7856 L153.1465,728.7856" fill="#FFFFFF"/><path d="M201.6475,716.7856 C201.6475,725.7856 198.6475,728.7856 189.6475,728.7856" fill="none" style="stroke:#FFFFFF;stroke-width:1.5;"/><rect fill="#0B58A8" height="27.0146" rx="5" ry="5" style="stroke:#FFFFFF;stroke-width:1.5;" width="44.3096" x="59" y="752.293"/><text fill="#FFFFFF" font-family="Verdana" font-size="14" lengthAdjust="spacing" textLength="34.3096" x="64" y="771.3682">Float</text><path d="M47,753.8003 C47,762.8003 50,765.8003 59,765.8003" fill="none" style="stroke:#FFFFFF;stroke-width:1.5;"/><line style="stroke:#FFFFFF;stroke-width:1.5;" x1="103.3096" x2="189.6475" y1="765.8003" y2="765.8003"/><path d="M144.4785,765.8003 L144.4785,762.8003 L150.4785,765.8003 L144.4785,768.8003 L144.4785,765.8003" fill="#FFFFFF"/><path d="M201.6475,753.8003 C201.6475,762.8003 198.6475,765.8003 189.6475,765.8003" fill="none" style="stroke:#FFFFFF;stroke-width:1.5;"/><rect fill="#0B58A8" height="27.0146" rx="5" ry="5" style="stroke:#FFFFFF;stroke-width:1.5;" width="62.5342" x="59" y="789.3076"/><text fill="#FFFFFF" font-family="Verdana" font-size="14" lengthAdjust="spacing" textLength="52.5342" x="64" y="808.3828">Symbol</text><path d="M47,790.8149 C47,799.8149 50,802.8149 59,802.8149" fill="none" style="stroke:#FFFFFF;stroke-width:1.5;"/><line style="stroke:#FFFFFF;stroke-width:1.5;" x1="121.5342" x2="189.6475" y1="802.8149" y2="802.8149"/><path d="M153.5908,802.8149 L153.5908,799.8149 L159.5908,802.8149 L153.5908,805.8149 L153.5908,802.8149" fill="#FFFFFF"/><path d="M201.6475,790.8149 C201.6475,799.8149 198.6475,802.8149 189.6475,802.8149" fill="none" style="stroke:#FFFFFF;stroke-width:1.5;"/><rect fill="#0B58A8" height="27.0146" rx="5" ry="5" style="stroke:#FFFFFF;stroke-width:1.5;" width="70.9766" x="59" y="826.3223"/><text fill="#FFFFFF" font-family="Verdana" font-size="14" lengthAdjust="spacing" textLength="60.9766" x="64" y="845.3975">Keyword</text><path d="M47,827.8296 C47,836.8296 50,839.8296 59,839.8296" fill="none" style="stroke:#FFFFFF;stroke-width:1.5;"/><line style="stroke:#FFFFFF;stroke-width:1.5;" x1="129.9766" x2="189.6475" y1="839.8296" y2="839.8296"/><path d="M157.812,839.8296 L157.812,836.8296 L163.812,839.8296 L157.812,842.8296 L157.812,839.8296" fill="#FFFFFF"/><path d="M201.6475,827.8296 C201.6475,836.8296 198.6475,839.8296 189.6475,839.8296" fill="none" style="stroke:#FFFFFF;stroke-width:1.5;"/><rect fill="#0B58A8" height="27.0146" rx="5" ry="5" style="stroke:#FFFFFF;stroke-width:1.5;" width="34.4453" x="59" y="863.3369"/><text fill="#FFFFFF" font-family="Verdana" font-size="14" lengthAdjust="spacing" textLength="24.4453" x="64" y="882.4121">List</text><path d="M47,864.8442 C47,873.8442 50,876.8442 59,876.8442" fill="none" style="stroke:#FFFFFF;stroke-width:1.5;"/><line style="stroke:#FFFFFF;stroke-width:1.5;" x1="93.4453" x2="189.6475" y1="876.8442" y2="876.8442"/><path d="M139.5464,876.8442 L139.5464,873.8442 L145.5464,876.8442 L139.5464,879.8442 L139.5464,876.8442" fill="#FFFFFF"/><path d="M201.6475,864.8442 C201.6475,873.8442 198.6475,876.8442 189.6475,876.8442" fill="none" style="stroke:#FFFFFF;stroke-width:1.5;"/><rect fill="#0B58A8" height="27.0146" rx="5" ry="5" style="stroke:#FFFFFF;stroke-width:1.5;" width="55.1924" x="59" y="900.3516"/><text fill="#FFFFFF" font-family="Verdana" font-size="14" lengthAdjust="spacing" textLength="45.1924" x="64" y="919.4268">Vector</text><path d="M47,901.8589 C47,910.8589 50,913.8589 59,913.8589" fill="none" style="stroke:#FFFFFF;stroke-width:1.5;"/><line style="stroke:#FFFFFF;stroke-width:1.5;" x1="114.1924" x2="189.6475" y1="913.8589" y2="913.8589"/><path d="M149.9199,913.8589 L149.9199,910.8589 L155.9199,913.8589 L149.9199,916.8589 L149.9199,913.8589" fill="#FFFFFF"/><path d="M201.6475,901.8589 C201.6475,910.8589 198.6475,913.8589 189.6475,913.8589" fill="none" style="stroke:#FFFFFF;stroke-width:1.5;"/><rect fill="#0B58A8" height="27.0146" rx="5" ry="5" style="stroke:#FFFFFF;stroke-width:1.5;" width="38.9297" x="59" y="937.3662"/><text fill="#FFFFFF" font-family="Verdana" font-size="14" lengthAdjust="spacing" textLength="28.9297" x="64" y="956.4414">Map</text><path d="M47,938.8735 C47,947.8735 50,950.8735 59,950.8735" fill="none" style="stroke:#FFFFFF;stroke-width:1.5;"/><line style="stroke:#FFFFFF;stroke-width:1.5;" x1="97.9297" x2="189.6475" y1="950.8735" y2="950.8735"/><path d="M141.7886,950.8735 L141.7886,947.8735 L147.7886,950.8735 L141.7886,953.8735 L141.7886,950.8735" fill="#FFFFFF"/><path d="M201.6475,938.8735 C201.6475,947.8735 198.6475,950.8735 189.6475,950.8735" fill="none" style="stroke:#FFFFFF;stroke-width:1.5;"/><rect fill="#0B58A8" height="27.0146" rx="5" ry="5" style="stroke:#FFFFFF;stroke-width:1.5;" width="33.4268" x="59" y="974.3809"/><text fill="#FFFFFF" font-family="Verdana" font-size="14" lengthAdjust="spacing" textLength="23.4268" x="64" y="993.4561">Set</text><path d="M47,975.8882 C47,984.8882 50,987.8882 59,987.8882" fill="none" style="stroke:#FFFFFF;stroke-width:1.5;"/><line style="stroke:#FFFFFF;stroke-width:1.5;" x1="92.4268" x2="189.6475" y1="987.8882" y2="987.8882"/><path d="M139.0371,987.8882 L139.0371,984.8882 L145.0371,987.8882 L139.0371,990.8882 L139.0371,987.8882" fill="#FFFFFF"/><path d="M201.6475,975.8882 C201.6475,984.8882 198.6475,987.8882 189.6475,987.8882" fill="none" style="stroke:#FFFFFF;stroke-width:1.5;"/><rect fill="#0B58A8" height="27.0146" rx="5" ry="5" style="stroke:#FFFFFF;stroke-width:1.5;" width="118.9102" x="59" y="1011.3955"/><text fill="#FFFFFF" font-family="Verdana" font-size="14" lengthAdjust="spacing" textLength="108.9102" x="64" y="1030.4707">TaggedElement</text><path d="M47,1012.9028 C47,1021.9028 50,1024.9028 59,1024.9028" fill="none" style="stroke:#FFFFFF;stroke-width:1.5;"/><line style="stroke:#FFFFFF;stroke-width:1.5;" x1="177.9102" x2="189.6475" y1="1024.9028" y2="1024.9028"/><path d="M201.6475,1012.9028 C201.6475,1021.9028 198.6475,1024.9028 189.6475,1024.9028" fill="none" style="stroke:#FFFFFF;stroke-width:1.5;"/><rect fill="#0B58A8" height="27.0146" rx="5" ry="5" style="stroke:#FFFFFF;stroke-width:1.5;" width="130.6475" x="59" y="1048.4102"/><text fill="#FFFFFF" font-family="Verdana" font-size="14" lengthAdjust="spacing" textLength="120.6475" x="64" y="1067.4854">DiscardSequence</text><line style="stroke:#FFFFFF;stroke-width:1.5;" x1="189.6475" x2="189.6475" y1="1061.9175" y2="1061.9175"/><path d="M47,1049.9175 C47,1058.9175 50,1061.9175 59,1061.9175" fill="none" style="stroke:#FFFFFF;stroke-width:1.5;"/><line style="stroke:#FFFFFF;stroke-width:1.5;" x1="47" x2="47" y1="592.7271" y2="1049.9175"/><path d="M35,580.7271 C44,580.7271 47,583.7271 47,592.7271" fill="none" style="stroke:#FFFFFF;stroke-width:1.5;"/><path d="M201.6475,1049.9175 C201.6475,1058.9175 198.6475,1061.9175 189.6475,1061.9175" fill="none" style="stroke:#FFFFFF;stroke-width:1.5;"/><line style="stroke:#FFFFFF;stroke-width:1.5;" x1="201.6475" x2="201.6475" y1="592.7271" y2="1049.9175"/><path d="M201.6475,592.7271 C201.6475,583.7271 204.6475,580.7271 213.6475,580.7271" fill="none" style="stroke:#FFFFFF;stroke-width:1.5;"/><ellipse cx="9" cy="580.7271" fill="none" rx="4" ry="4" style="stroke:#FFFFFF;stroke-width:2;"/><ellipse cx="243.6475" cy="580.7271" fill="#FFFFFF" rx="4" ry="4" style="stroke:#FFFFFF;stroke-width:1;"/><line style="stroke:#FFFFFF;stroke-width:1.5;" x1="13" x2="35" y1="580.7271" y2="580.7271"/><line style="stroke:#FFFFFF;stroke-width:1.5;" x1="213.6475" x2="239.6475" y1="580.7271" y2="580.7271"/><path d="M224.6475,580.7271 L224.6475,577.7271 L230.6475,580.7271 L224.6475,583.7271 L224.6475,580.7271" fill="#FFFFFF"/><!--SRC=[xLTRT-8s47xthvYcByavkrjWavuisRJXsaqM4iv2iYzz4TPWL8paoZ89tV3VEn8tsq0t5_hIKtEmOUQRRwIPqKY-Y0tJ1ljouFrWXZX6O6CHCCzhS0ddy0s-3eN1RiHyX4SWOICaa3GmWpFFIodFuO0-Zt3mkva_vFoXtUEDlTVKs9cIuV8dMPqTm1loyojKv1Jy8TE03pv61YJUXq8YQMQ4ECnHDYI_6LpAA35mP1bJGpk7Qn5wiBuUeQfKY4ncXJLondo3EYlk6Yraa9LTIeD17jWC5JCvs-cuhtA-F-FqNccU5RP4d3EzGz-ed8SsYtBycBFgiI10lfXvLbKNiSyqx-AV2KhAq9btWPAxL7iNwxJFhu-ncORu2p5efGnySrHLvey2hHB9QofK6duiL4zEAwTErrJIBAHDTwsaruogw0urPv8vuQTfXBebv6Y9hrVUbqwSYgIuoMAblQ7mHnBZ68fErcOw41AisOo-NFc9I_Pyf3wBZ51oyI_FK73IcRiFQ7gedm0S8kDF0XfXGbpXR0IwuY-4KkaxblPhenjzIdlQY7akkjipqRNP0oezlY2MYY_7r6OFOfoClmfkXl2-K5WWD0vGsyBuDzp76D7QedhU9-t7dnP5wiKZ8Qs3CLIqLlSj5OOYKb6MUmtQLSThH1q7B0dDHlbk8DfAgjWsFBx2rbIY1VM6DROb1cXR5tKIHdrZIjc8LIXu2jAXvITy4J5fEenpQZXGBAJqorLhgMm1LQc3eDurmUwGSNLlIGOiZ36bkOsnYeRD8sbqWfdW-KPCX9cw9ErUx5McyrdRDfpjFM4ZfBDqOgmxfkS3sBJEGXySQXcjauos9hGV8bzrz3pXQYuRMGFumhX8OlYG9GmPBTRln6K_GN2kAePsdNvYS4SediBHfOcZCjHjNqRINBV6PzkcciZpRUt-GEjbvCopcqGQT-ahsQ5ii00po5LHxiZK1eSM4sPUoq6neahZhsD9-g7mNqnnhLvQBpVzFsZqy_hUKiMpJATQHtnF5Tyro_0_Rt5bEPR5NjdEz8-zQZjJRMzCZRqnNUwDwVgLJBILr5YCSyBUCxlC_-yJ_-dtYKv81vdRTWicg6Dx42- -AnLA9- -AXSDUWjIe9b0uXk9fkLGe7t-0MgC7Ld_a7VxMQK5CUp4HSfg3smI9uCYxOXC6Nn9fn1ZBS1EXlAf_NWeeNHEXbNIZlBfhhm4_7x-j2aCJqpGKk6jxYuCRMVZAdXpASDjhlZtrMam62JMsCg2a-Y5UFIr3lV4t]--></g></svg>