<svg xmlns="http://www.w3.org/2000/svg" xmlns:xlink="http://www.w3.org/1999/xlink" contentStyleType="text/css" data-diagram-type="EBNF" height="300px" preserveAspectRatio="none" style="width:571px;height:300px;background:#0B58A8;" version="1.1" viewBox="0 0 571 300" width="571px" zoomAndPan="magnify"><defs/><g><rect fill="#0B58A8" height="300" style="stroke:none;stroke-width:1;" width="571" x="0" y="0"/><text fill="#FFFFFF" font-family="Verdana" font-size="14" font-weight="bold" lengthAdjust="spacing" textLength="121.666" x="5" y="19.0752">TaggedElement</text><line style="stroke:#FFFFFF;stroke-width:1.5;" x1="35" x2="35" y1="57.522" y2="57.522"/><rect fill="none" height="27.0146" style="stroke:#FFFFFF;stroke-width:0.5;" width="21.457" x="35" y="44.0146"/><text fill="#FFFFFF" font-family="Verdana" font-size="14" lengthAdjust="spacing" textLength="11.457" x="40" y="63.0898">#</text><line style="stroke:#FFFFFF;stroke-width:1.5;" x1="56.457" x2="76.457" y1="57.522" y2="57.522"/><rect fill="#0B58A8" height="27.0146" rx="5" ry="5" style="stroke:#FFFFFF;stroke-width:1.5;" width="62.5342" x="76.457" y="44.0146"/><text fill="#FFFFFF" font-family="Verdana" font-size="14" lengthAdjust="spacing" textLength="52.5342" x="81.457" y="63.0898">Symbol</text><line style="stroke:#FFFFFF;stroke-width:1.5;" x1="138.9912" x2="158.9912" y1="57.522" y2="57.522"/><path d="M166.9912,49.522 C166.9912,55.522 168.9912,57.522 174.9912,57.522" fill="none" style="stroke:#FFFFFF;stroke-width:1.5;"/><line style="stroke:#FFFFFF;stroke-width:1.5;" x1="166.9912" x2="166.9912" y1="45.0146" y2="49.522"/><path d="M166.9912,45.0146 C166.9912,39.0146 168.9912,37.0146 174.9912,37.0146" fill="none" style="stroke:#FFFFFF;stroke-width:1.5;"/><line style="stroke:#FFFFFF;stroke-width:1.5;" x1="173.9912" x2="266.7266" y1="37.0146" y2="37.0146"/><path d="M227.6324,37.0146 L227.6324,34.0146 L221.6324,37.0146 L227.6324,40.0146 L227.6324,37.0146" fill="#FFFFFF"/><path d="M273.7266,49.522 C273.7266,55.522 271.7266,57.522 265.7266,57.522" fill="none" style="stroke:#FFFFFF;stroke-width:1.5;"/><line style="stroke:#FFFFFF;stroke-width:1.5;" x1="273.7266" x2="273.7266" y1="45.0146" y2="49.522"/><path d="M265.7266,37.0146 C271.7266,37.0146 273.7266,39.0146 273.7266,45.0146" fill="none" style="stroke:#FFFFFF;stroke-width:1.5;"/><line style="stroke:#FFFFFF;stroke-width:1.5;" x1="158.9912" x2="173.9912" y1="57.522" y2="57.522"/><line style="stroke:#FFFFFF;stroke-width:1.5;" x1="266.7266" x2="281.7266" y1="57.522" y2="57.522"/><rect fill="#0B58A8" height="27.0146" rx="5" ry="5" style="stroke:#FFFFFF;stroke-width:1.5;" width="92.7354" x="173.9912" y="44.0146"/><text fill="#FFFFFF" font-family="Verdana" font-size="14" lengthAdjust="spacing" textLength="82.7354" x="178.9912" y="63.0898">WhiteSpace</text><line style="stroke:#FFFFFF;stroke-width:1.5;" x1="281.7266" x2="301.7266" y1="57.522" y2="57.522"/><rect fill="#0B58A8" height="27.0146" rx="5" ry="5" style="stroke:#FFFFFF;stroke-width:1.5;" width="93.8018" x="301.7266" y="44.0146"/><text fill="#FFFFFF" font-family="Verdana" font-size="14" lengthAdjust="spacing" textLength="83.8018" x="306.7266" y="63.0898">EdnElement</text><ellipse cx="9" cy="57.522" fill="none" rx="4" ry="4" style="stroke:#FFFFFF;stroke-width:2;"/><ellipse cx="425.5283" cy="57.522" fill="#FFFFFF" rx="4" ry="4" style="stroke:#FFFFFF;stroke-width:1;"/><line style="stroke:#FFFFFF;stroke-width:1.5;" x1="13" x2="35" y1="57.522" y2="57.522"/><line style="stroke:#FFFFFF;stroke-width:1.5;" x1="395.5283" x2="421.5283" y1="57.522" y2="57.522"/><path d="M406.5283,57.522 L406.5283,54.522 L412.5283,57.522 L406.5283,60.522 L406.5283,57.522" fill="#FFFFFF"/><path d="M5,91.0293 L5,116.8286 L195.1016,116.8286 L195.1016,101.0293 L185.1016,91.0293 L5,91.0293" fill="#0B58A8" style="stroke:#FFFFFF;stroke-width:1;"/><path d="M185.1016,91.0293 L185.1016,101.0293 L195.1016,101.0293 L185.1016,91.0293" fill="#0B58A8" style="stroke:#FFFFFF;stroke-width:1;"/><text fill="#FFFFFF" font-family="Verdana" font-size="13" lengthAdjust="spacing" textLength="159.9609" x="15.5703" y="109.0991">built-in tagged elements</text><text fill="#FFFFFF" font-family="Verdana" font-size="14" font-weight="bold" lengthAdjust="spacing" textLength="58.0029" x="5" y="145.9038">Instant</text><line style="stroke:#FFFFFF;stroke-width:1.5;" x1="35" x2="35" y1="184.3506" y2="184.3506"/><rect fill="none" height="27.0146" style="stroke:#FFFFFF;stroke-width:0.5;" width="46.9688" x="35" y="170.8433"/><text fill="#FFFFFF" font-family="Verdana" font-size="14" lengthAdjust="spacing" textLength="36.9688" x="40" y="189.9185">#inst</text><line style="stroke:#FFFFFF;stroke-width:1.5;" x1="81.9688" x2="101.9688" y1="184.3506" y2="184.3506"/><path d="M109.9688,176.3506 C109.9688,182.3506 111.9688,184.3506 117.9688,184.3506" fill="none" style="stroke:#FFFFFF;stroke-width:1.5;"/><line style="stroke:#FFFFFF;stroke-width:1.5;" x1="109.9688" x2="109.9688" y1="171.8433" y2="176.3506"/><path d="M109.9688,171.8433 C109.9688,165.8433 111.9688,163.8433 117.9688,163.8433" fill="none" style="stroke:#FFFFFF;stroke-width:1.5;"/><line style="stroke:#FFFFFF;stroke-width:1.5;" x1="116.9688" x2="209.7041" y1="163.8433" y2="163.8433"/><path d="M170.61,163.8433 L170.61,160.8433 L164.61,163.8433 L170.61,166.8433 L170.61,163.8433" fill="#FFFFFF"/><path d="M216.7041,176.3506 C216.7041,182.3506 214.7041,184.3506 208.7041,184.3506" fill="none" style="stroke:#FFFFFF;stroke-width:1.5;"/><line style="stroke:#FFFFFF;stroke-width:1.5;" x1="216.7041" x2="216.7041" y1="171.8433" y2="176.3506"/><path d="M208.7041,163.8433 C214.7041,163.8433 216.7041,165.8433 216.7041,171.8433" fill="none" style="stroke:#FFFFFF;stroke-width:1.5;"/><line style="stroke:#FFFFFF;stroke-width:1.5;" x1="101.9688" x2="116.9688" y1="184.3506" y2="184.3506"/><line style="stroke:#FFFFFF;stroke-width:1.5;" x1="209.7041" x2="224.7041" y1="184.3506" y2="184.3506"/><rect fill="#0B58A8" height="27.0146" rx="5" ry="5" style="stroke:#FFFFFF;stroke-width:1.5;" width="92.7354" x="116.9688" y="170.8433"/><text fill="#FFFFFF" font-family="Verdana" font-size="14" lengthAdjust="spacing" textLength="82.7354" x="121.9688" y="189.9185">WhiteSpace</text><line style="stroke:#FFFFFF;stroke-width:1.5;" x1="224.7041" x2="244.7041" y1="184.3506" y2="184.3506"/><rect fill="none" height="27.0146" style="stroke:#FFFFFF;stroke-width:1;stroke-dasharray:5,5;" width="208.9258" x="244.7041" y="170.8433"/><text fill="#FFFFFF" font-family="Verdana" font-size="14" lengthAdjust="spacing" textLength="189.082" x="254.626" y="189.9185">RFC-3339 formatted string</text><ellipse cx="9" cy="184.3506" fill="none" rx="4" ry="4" style="stroke:#FFFFFF;stroke-width:2;"/><ellipse cx="483.6299" cy="184.3506" fill="#FFFFFF" rx="4" ry="4" style="stroke:#FFFFFF;stroke-width:1;"/><line style="stroke:#FFFFFF;stroke-width:1.5;" x1="13" x2="35" y1="184.3506" y2="184.3506"/><line style="stroke:#FFFFFF;stroke-width:1.5;" x1="453.6299" x2="479.6299" y1="184.3506" y2="184.3506"/><path d="M464.6299,184.3506 L464.6299,181.3506 L470.6299,184.3506 L464.6299,187.3506 L464.6299,184.3506" fill="#FFFFFF"/><text fill="#FFFFFF" font-family="Verdana" font-size="14" font-weight="bold" lengthAdjust="spacing" textLength="42" x="5" y="226.9331">UUID</text><line style="stroke:#FFFFFF;stroke-width:1.5;" x1="35" x2="35" y1="265.3799" y2="265.3799"/><rect fill="none" height="27.0146" style="stroke:#FFFFFF;stroke-width:0.5;" width="51.7402" x="35" y="251.8726"/><text fill="#FFFFFF" font-family="Verdana" font-size="14" lengthAdjust="spacing" textLength="41.7402" x="40" y="270.9478">#uuid</text><line style="stroke:#FFFFFF;stroke-width:1.5;" x1="86.7402" x2="106.7402" y1="265.3799" y2="265.3799"/><path d="M114.7402,257.3799 C114.7402,263.3799 116.7402,265.3799 122.7402,265.3799" fill="none" style="stroke:#FFFFFF;stroke-width:1.5;"/><line style="stroke:#FFFFFF;stroke-width:1.5;" x1="114.7402" x2="114.7402" y1="252.8726" y2="257.3799"/><path d="M114.7402,252.8726 C114.7402,246.8726 116.7402,244.8726 122.7402,244.8726" fill="none" style="stroke:#FFFFFF;stroke-width:1.5;"/><line style="stroke:#FFFFFF;stroke-width:1.5;" x1="121.7402" x2="214.4756" y1="244.8726" y2="244.8726"/><path d="M175.3814,244.8726 L175.3814,241.8726 L169.3814,244.8726 L175.3814,247.8726 L175.3814,244.8726" fill="#FFFFFF"/><path d="M221.4756,257.3799 C221.4756,263.3799 219.4756,265.3799 213.4756,265.3799" fill="none" style="stroke:#FFFFFF;stroke-width:1.5;"/><line style="stroke:#FFFFFF;stroke-width:1.5;" x1="221.4756" x2="221.4756" y1="252.8726" y2="257.3799"/><path d="M213.4756,244.8726 C219.4756,244.8726 221.4756,246.8726 221.4756,252.8726" fill="none" style="stroke:#FFFFFF;stroke-width:1.5;"/><line style="stroke:#FFFFFF;stroke-width:1.5;" x1="106.7402" x2="121.7402" y1="265.3799" y2="265.3799"/><line style="stroke:#FFFFFF;stroke-width:1.5;" x1="214.4756" x2="229.4756" y1="265.3799" y2="265.3799"/><rect fill="#0B58A8" height="27.0146" rx="5" ry="5" style="stroke:#FFFFFF;stroke-width:1.5;" width="92.7354" x="121.7402" y="251.8726"/><text fill="#FFFFFF" font-family="Verdana" font-size="14" lengthAdjust="spacing" textLength="82.7354" x="126.7402" y="270.9478">WhiteSpace</text><line style="stroke:#FFFFFF;stroke-width:1.5;" x1="229.4756" x2="249.4756" y1="265.3799" y2="265.3799"/><rect fill="none" height="27.0146" style="stroke:#FFFFFF;stroke-width:1;stroke-dasharray:5,5;" width="282.2617" x="249.4756" y="251.8726"/><text fill="#FFFFFF" font-family="Verdana" font-size="14" lengthAdjust="spacing" textLength="262.418" x="259.3975" y="270.9478">Canonical UUID string representation</text><ellipse cx="9" cy="265.3799" fill="none" rx="4" ry="4" style="stroke:#FFFFFF;stroke-width:2;"/><ellipse cx="561.7373" cy="265.3799" fill="#FFFFFF" rx="4" ry="4" style="stroke:#FFFFFF;stroke-width:1;"/><line style="stroke:#FFFFFF;stroke-width:1.5;" x1="13" x2="35" y1="265.3799" y2="265.3799"/><line style="stroke:#FFFFFF;stroke-width:1.5;" x1="531.7373" x2="557.7373" y1="265.3799" y2="265.3799"/><path d="M542.7373,265.3799 L542.7373,262.3799 L548.7373,265.3799 L542.7373,268.3799 L542.7373,265.3799" fill="#FFFFFF"/><!--SRC=[vLPTTzf647tNhvWwBtPEIJ647fkchK66nWuu70kSvqKxY2rYLzbTaT0S_djc9J38GECF-bJE4KUQkNDtTUTZTM4iqnQ7SkJzPCSuHM1J4J7FwxCeGjwAoIGj_0v7huxWPmZcqw6AwUORV1eBYq72GeH5YImjBbVetppl-3KCKn7Raf1WCoh0t6lWzOddNKbQU4aiwFve9-UVSDlsIzLgzHn6Ia-PjSHZh1Oo8XyjCnXSNMOSQIhuFWwVIIL5o6B8uCjuZOb6GnjYLYYPqLsWv9aKtiLQblptpjXvZ7zu05ef2z_e1g39macaLIgvhsAbuLMvMJjhd6M-jf9sQMrdltlh3IELxr1p9bbcV3zFK7U4dApmburgfPQvo8hRBCxQ7ujm8j4OECriNQOZqjg5BUZYAaopNEGx3LcIlMN-z92Xd5aNsV-8NW_r8u1ZPFnHG2jiZFSufq0W_a6eL7uGwIwdRl9-SwKjpH-ekpiJWSiUKEdo9R5KVBMdBligfkdqa-1s3DLoUOdGE4ADCiJ_Odc32TFCgeFIlljbMQIUcGZf5fX2GslrfQFYM2GgANAlGVlgU8sun15BOxjLlbk8hfBAkERZzrXVfLgWti1sn0XZodfWIGECvfGDesB1Do0zQZyHYeHcH8znxXhsjBpX3_1pwfBZg5m1DPMc9ErxmM3CkFhYI4OiDhZX6HXiecMvabQdM10lj68cx3nBqlvcRpBzC6kxjhDx9cn9kjXCZ5kEwNm3sz55wDSCjLAhLl3wGeSnSdzCJ-6gltSLrbRM06uP5wc1yo9XpAXPVw3BOKJ8bcfOcjh3rE8UAHx34T2Bex8qRPz7qbwFnYV7RWoHfyUwyu7wPPA55m-9JTnLg6IFii4YB23lYt9FfhOuj9Wn-r8EqYfqn_MBMD9XBC9dKzoevzRBn-7VjFkyldTKyQ8mgTQA7wZY0xkI_sdDLUHO5NjZDzE_pghTJFx1c5e7Oxew6DFD2vdeAF6PmPom_yGfyp__tkx5jBb1jmCprCQvJzzKofNQcxV70RDmdKgedC5fjLu-hrTguBU2FZZ_YNVyLwy3XiugMfuBanyIH73YNRCPWzjKMZ75EdnCK5vVVbWPe2LdGYlf1FAkxxfhmAzlIqrXwVj2qrRWhkijFsme8bJkPAt3eDykdNaT9gEK6hyEA3qwBQNLS_85tm40]--></g></svg>