<svg xmlns="http://www.w3.org/2000/svg" xmlns:xlink="http://www.w3.org/1999/xlink" contentStyleType="text/css" data-diagram-type="EBNF" height="459px" preserveAspectRatio="none" style="width:1038px;height:459px;background:#0B58A8;" version="1.1" viewBox="0 0 1038 459" width="1038px" zoomAndPan="magnify"><defs/><g><rect fill="#0B58A8" height="459" style="stroke:none;stroke-width:1;" width="1038" x="0" y="0"/><text fill="#FFFFFF" font-family="Verdana" font-size="14" font-weight="bold" lengthAdjust="spacing" textLength="39.2314" x="5" y="19.0752">Float</text><line style="stroke:#FFFFFF;stroke-width:1.5;" x1="35" x2="35" y1="45.522" y2="45.522"/><line style="stroke:#FFFFFF;stroke-width:1.5;" x1="35" x2="152.457" y1="45.522" y2="45.522"/><path d="M79.9828,45.522 L79.9828,42.522 L85.9828,45.522 L79.9828,48.522 L79.9828,45.522" fill="#FFFFFF"/><path d="M35,45.522 C44,45.522 47,48.2756 47,57.2756 C47,66.2756 50,69.0293 59,69.0293" fill="none" style="stroke:#FFFFFF;stroke-width:1.5;"/><path d="M128.457,69.0293 C137.457,69.0293 140.457,66.2756 140.457,57.2756 C140.457,48.2756 143.457,45.522 152.457,45.522" fill="none" style="stroke:#FFFFFF;stroke-width:1.5;"/><rect fill="none" height="27.0146" style="stroke:#FFFFFF;stroke-width:0.5;" width="16.3574" x="83" y="55.522"/><text fill="#FFFFFF" font-family="Verdana" font-size="14" lengthAdjust="spacing" textLength="6.3574" x="88" y="74.5972">-</text><line style="stroke:#FFFFFF;stroke-width:1.5;" x1="59" x2="83" y1="69.0293" y2="69.0293"/><line style="stroke:#FFFFFF;stroke-width:1.5;" x1="99.3574" x2="128.457" y1="69.0293" y2="69.0293"/><rect fill="none" height="27.0146" style="stroke:#FFFFFF;stroke-width:0.5;" width="21.457" x="83" y="92.5366"/><text fill="#FFFFFF" font-family="Verdana" font-size="14" lengthAdjust="spacing" textLength="11.457" x="88" y="111.6118">+</text><line style="stroke:#FFFFFF;stroke-width:1.5;" x1="104.457" x2="104.457" y1="106.0439" y2="106.0439"/><path d="M71,94.0439 C71,103.0439 74,106.0439 83,106.0439" fill="none" style="stroke:#FFFFFF;stroke-width:1.5;"/><line style="stroke:#FFFFFF;stroke-width:1.5;" x1="71" x2="71" y1="81.0293" y2="94.0439"/><path d="M59,69.0293 C68,69.0293 71,72.0293 71,81.0293" fill="none" style="stroke:#FFFFFF;stroke-width:1.5;"/><path d="M116.457,94.0439 C116.457,103.0439 113.457,106.0439 104.457,106.0439" fill="none" style="stroke:#FFFFFF;stroke-width:1.5;"/><line style="stroke:#FFFFFF;stroke-width:1.5;" x1="116.457" x2="116.457" y1="81.0293" y2="94.0439"/><path d="M116.457,81.0293 C116.457,72.0293 119.457,69.0293 128.457,69.0293" fill="none" style="stroke:#FFFFFF;stroke-width:1.5;"/><line style="stroke:#FFFFFF;stroke-width:1.5;" x1="152.457" x2="172.457" y1="45.522" y2="45.522"/><line style="stroke:#FFFFFF;stroke-width:1.5;" x1="196.457" x2="196.457" y1="45.522" y2="45.522"/><rect fill="none" height="27.0146" style="stroke:#FFFFFF;stroke-width:1;stroke-dasharray:5,5;" width="111.541" x="196.457" y="32.0146"/><text fill="#FFFFFF" font-family="Verdana" font-size="14" lengthAdjust="spacing" textLength="91.6973" x="206.3789" y="51.0898">Decimal digit</text><line style="stroke:#FFFFFF;stroke-width:1.5;" x1="307.998" x2="327.998" y1="45.522" y2="45.522"/><text fill="#FFFFFF" font-family="Verdana" font-size="14" lengthAdjust="spacing" textLength="30.1191" x="330.998" y="49.4614">NOT</text><line style="stroke:#FFFFFF;stroke-width:1.5;" x1="366.1172" x2="366.1172" y1="45.522" y2="45.522"/><rect fill="none" height="27.0146" style="stroke:#FFFFFF;stroke-width:0.5;" width="18.9004" x="366.1172" y="32.0146"/><text fill="#FFFFFF" font-family="Verdana" font-size="14" lengthAdjust="spacing" textLength="8.9004" x="371.1172" y="51.0898">0</text><line style="stroke:#FFFFFF;stroke-width:1.5;" x1="385.0176" x2="405.0176" y1="45.522" y2="45.522"/><line style="stroke:#FFFFFF;stroke-width:1.5;" x1="405.0176" x2="594.5586" y1="45.522" y2="45.522"/><path d="M478.834,45.522 L478.834,42.522 L484.834,45.522 L478.834,48.522 L478.834,45.522" fill="#FFFFFF"/><path d="M405.0176,45.522 C414.0176,45.522 417.0176,54.2756 417.0176,63.2756 C417.0176,72.2756 420.0176,81.0293 429.0176,81.0293" fill="none" style="stroke:#FFFFFF;stroke-width:1.5;"/><path d="M570.5586,81.0293 C579.5586,81.0293 582.5586,72.2756 582.5586,63.2756 C582.5586,54.2756 585.5586,45.522 594.5586,45.522" fill="none" style="stroke:#FFFFFF;stroke-width:1.5;"/><path d="M437.0176,73.0293 C437.0176,79.0293 439.0176,81.0293 445.0176,81.0293" fill="none" style="stroke:#FFFFFF;stroke-width:1.5;"/><line style="stroke:#FFFFFF;stroke-width:1.5;" x1="437.0176" x2="437.0176" y1="68.522" y2="73.0293"/><path d="M437.0176,68.522 C437.0176,62.522 439.0176,60.522 445.0176,60.522" fill="none" style="stroke:#FFFFFF;stroke-width:1.5;"/><line style="stroke:#FFFFFF;stroke-width:1.5;" x1="444.0176" x2="555.5586" y1="60.522" y2="60.522"/><path d="M508.9422,60.522 L508.9422,57.522 L502.9422,60.522 L508.9422,63.522 L508.9422,60.522" fill="#FFFFFF"/><path d="M562.5586,73.0293 C562.5586,79.0293 560.5586,81.0293 554.5586,81.0293" fill="none" style="stroke:#FFFFFF;stroke-width:1.5;"/><line style="stroke:#FFFFFF;stroke-width:1.5;" x1="562.5586" x2="562.5586" y1="68.522" y2="73.0293"/><path d="M554.5586,60.522 C560.5586,60.522 562.5586,62.522 562.5586,68.522" fill="none" style="stroke:#FFFFFF;stroke-width:1.5;"/><line style="stroke:#FFFFFF;stroke-width:1.5;" x1="429.0176" x2="444.0176" y1="81.0293" y2="81.0293"/><line style="stroke:#FFFFFF;stroke-width:1.5;" x1="555.5586" x2="570.5586" y1="81.0293" y2="81.0293"/><rect fill="none" height="27.0146" style="stroke:#FFFFFF;stroke-width:1;stroke-dasharray:5,5;" width="111.541" x="444.0176" y="67.522"/><text fill="#FFFFFF" font-family="Verdana" font-size="14" lengthAdjust="spacing" textLength="91.6973" x="453.9395" y="86.5972">Decimal digit</text><line style="stroke:#FFFFFF;stroke-width:1.5;" x1="172.457" x2="196.457" y1="45.522" y2="45.522"/><line style="stroke:#FFFFFF;stroke-width:1.5;" x1="594.5586" x2="618.5586" y1="45.522" y2="45.522"/><rect fill="none" height="27.0146" style="stroke:#FFFFFF;stroke-width:0.5;" width="18.9004" x="196.457" y="104.5366"/><text fill="#FFFFFF" font-family="Verdana" font-size="14" lengthAdjust="spacing" textLength="8.9004" x="201.457" y="123.6118">0</text><line style="stroke:#FFFFFF;stroke-width:1.5;" x1="215.3574" x2="594.5586" y1="118.0439" y2="118.0439"/><path d="M402.958,118.0439 L402.958,115.0439 L408.958,118.0439 L402.958,121.0439 L402.958,118.0439" fill="#FFFFFF"/><path d="M184.457,106.0439 C184.457,115.0439 187.457,118.0439 196.457,118.0439" fill="none" style="stroke:#FFFFFF;stroke-width:1.5;"/><line style="stroke:#FFFFFF;stroke-width:1.5;" x1="184.457" x2="184.457" y1="57.522" y2="106.0439"/><path d="M172.457,45.522 C181.457,45.522 184.457,48.522 184.457,57.522" fill="none" style="stroke:#FFFFFF;stroke-width:1.5;"/><path d="M606.5586,106.0439 C606.5586,115.0439 603.5586,118.0439 594.5586,118.0439" fill="none" style="stroke:#FFFFFF;stroke-width:1.5;"/><line style="stroke:#FFFFFF;stroke-width:1.5;" x1="606.5586" x2="606.5586" y1="57.522" y2="106.0439"/><path d="M606.5586,57.522 C606.5586,48.522 609.5586,45.522 618.5586,45.522" fill="none" style="stroke:#FFFFFF;stroke-width:1.5;"/><line style="stroke:#FFFFFF;stroke-width:1.5;" x1="618.5586" x2="638.5586" y1="45.522" y2="45.522"/><line style="stroke:#FFFFFF;stroke-width:1.5;" x1="662.5586" x2="662.5586" y1="45.522" y2="45.522"/><rect fill="#0B58A8" height="27.0146" rx="5" ry="5" style="stroke:#FFFFFF;stroke-width:1.5;" width="78.6875" x="662.5586" y="32.0146"/><text fill="#FFFFFF" font-family="Verdana" font-size="14" lengthAdjust="spacing" textLength="68.6875" x="667.5586" y="51.0898">Fractional</text><line style="stroke:#FFFFFF;stroke-width:1.5;" x1="741.2461" x2="761.2461" y1="45.522" y2="45.522"/><line style="stroke:#FFFFFF;stroke-width:1.5;" x1="761.2461" x2="885.1787" y1="45.522" y2="45.522"/><path d="M808.8191,45.522 L808.8191,42.522 L814.8191,45.522 L808.8191,48.522 L808.8191,45.522" fill="#FFFFFF"/><path d="M761.2461,45.522 C770.2461,45.522 773.2461,48.2756 773.2461,57.2756 C773.2461,66.2756 776.2461,69.0293 785.2461,69.0293" fill="none" style="stroke:#FFFFFF;stroke-width:1.5;"/><path d="M861.1787,69.0293 C870.1787,69.0293 873.1787,66.2756 873.1787,57.2756 C873.1787,48.2756 876.1787,45.522 885.1787,45.522" fill="none" style="stroke:#FFFFFF;stroke-width:1.5;"/><rect fill="#0B58A8" height="27.0146" rx="5" ry="5" style="stroke:#FFFFFF;stroke-width:1.5;" width="75.9326" x="785.2461" y="55.522"/><text fill="#FFFFFF" font-family="Verdana" font-size="14" lengthAdjust="spacing" textLength="65.9326" x="790.2461" y="74.5972">Exponent</text><line style="stroke:#FFFFFF;stroke-width:1.5;" x1="885.1787" x2="905.1787" y1="45.522" y2="45.522"/><line style="stroke:#FFFFFF;stroke-width:1.5;" x1="905.1787" x2="974.9775" y1="45.522" y2="45.522"/><path d="M931.0982,45.522 L931.0982,42.522 L937.0982,45.522 L931.0982,48.522 L931.0982,45.522" fill="#FFFFFF"/><path d="M905.1787,45.522 C914.1787,45.522 917.1787,48.2756 917.1787,57.2756 C917.1787,66.2756 920.1787,69.0293 929.1787,69.0293" fill="none" style="stroke:#FFFFFF;stroke-width:1.5;"/><path d="M950.9775,69.0293 C959.9775,69.0293 962.9775,66.2756 962.9775,57.2756 C962.9775,48.2756 965.9775,45.522 974.9775,45.522" fill="none" style="stroke:#FFFFFF;stroke-width:1.5;"/><rect fill="none" height="27.0146" style="stroke:#FFFFFF;stroke-width:0.5;" width="21.7988" x="929.1787" y="55.522"/><text fill="#FFFFFF" font-family="Verdana" font-size="14" lengthAdjust="spacing" textLength="11.7988" x="934.1787" y="74.5972">M</text><line style="stroke:#FFFFFF;stroke-width:1.5;" x1="638.5586" x2="662.5586" y1="45.522" y2="45.522"/><line style="stroke:#FFFFFF;stroke-width:1.5;" x1="974.9775" x2="998.9775" y1="45.522" y2="45.522"/><line style="stroke:#FFFFFF;stroke-width:1.5;" x1="662.5586" x2="662.5586" y1="106.0439" y2="106.0439"/><line style="stroke:#FFFFFF;stroke-width:1.5;" x1="662.5586" x2="789.2461" y1="106.0439" y2="106.0439"/><path d="M711.2336,106.0439 L711.2336,103.0439 L717.2336,106.0439 L711.2336,109.0439 L711.2336,106.0439" fill="#FFFFFF"/><path d="M662.5586,106.0439 C671.5586,106.0439 674.5586,108.7976 674.5586,117.7976 C674.5586,126.7976 677.5586,129.5513 686.5586,129.5513" fill="none" style="stroke:#FFFFFF;stroke-width:1.5;"/><path d="M765.2461,129.5513 C774.2461,129.5513 777.2461,126.7976 777.2461,117.7976 C777.2461,108.7976 780.2461,106.0439 789.2461,106.0439" fill="none" style="stroke:#FFFFFF;stroke-width:1.5;"/><rect fill="#0B58A8" height="27.0146" rx="5" ry="5" style="stroke:#FFFFFF;stroke-width:1.5;" width="78.6875" x="686.5586" y="116.0439"/><text fill="#FFFFFF" font-family="Verdana" font-size="14" lengthAdjust="spacing" textLength="68.6875" x="691.5586" y="135.1191">Fractional</text><line style="stroke:#FFFFFF;stroke-width:1.5;" x1="789.2461" x2="809.2461" y1="106.0439" y2="106.0439"/><rect fill="#0B58A8" height="27.0146" rx="5" ry="5" style="stroke:#FFFFFF;stroke-width:1.5;" width="75.9326" x="809.2461" y="92.5366"/><text fill="#FFFFFF" font-family="Verdana" font-size="14" lengthAdjust="spacing" textLength="65.9326" x="814.2461" y="111.6118">Exponent</text><line style="stroke:#FFFFFF;stroke-width:1.5;" x1="885.1787" x2="905.1787" y1="106.0439" y2="106.0439"/><line style="stroke:#FFFFFF;stroke-width:1.5;" x1="905.1787" x2="974.9775" y1="106.0439" y2="106.0439"/><path d="M931.0982,106.0439 L931.0982,103.0439 L937.0982,106.0439 L931.0982,109.0439 L931.0982,106.0439" fill="#FFFFFF"/><path d="M905.1787,106.0439 C914.1787,106.0439 917.1787,108.7976 917.1787,117.7976 C917.1787,126.7976 920.1787,129.5513 929.1787,129.5513" fill="none" style="stroke:#FFFFFF;stroke-width:1.5;"/><path d="M950.9775,129.5513 C959.9775,129.5513 962.9775,126.7976 962.9775,117.7976 C962.9775,108.7976 965.9775,106.0439 974.9775,106.0439" fill="none" style="stroke:#FFFFFF;stroke-width:1.5;"/><rect fill="none" height="27.0146" style="stroke:#FFFFFF;stroke-width:0.5;" width="21.7988" x="929.1787" y="116.0439"/><text fill="#FFFFFF" font-family="Verdana" font-size="14" lengthAdjust="spacing" textLength="11.7988" x="934.1787" y="135.1191">M</text><path d="M650.5586,94.0439 C650.5586,103.0439 653.5586,106.0439 662.5586,106.0439" fill="none" style="stroke:#FFFFFF;stroke-width:1.5;"/><line style="stroke:#FFFFFF;stroke-width:1.5;" x1="974.9775" x2="974.9775" y1="106.0439" y2="106.0439"/><path d="M986.9775,94.0439 C986.9775,103.0439 983.9775,106.0439 974.9775,106.0439" fill="none" style="stroke:#FFFFFF;stroke-width:1.5;"/><line style="stroke:#FFFFFF;stroke-width:1.5;" x1="662.5586" x2="662.5586" y1="166.5659" y2="166.5659"/><line style="stroke:#FFFFFF;stroke-width:1.5;" x1="662.5586" x2="789.2461" y1="166.5659" y2="166.5659"/><path d="M711.2336,166.5659 L711.2336,163.5659 L717.2336,166.5659 L711.2336,169.5659 L711.2336,166.5659" fill="#FFFFFF"/><path d="M662.5586,166.5659 C671.5586,166.5659 674.5586,169.3196 674.5586,178.3196 C674.5586,187.3196 677.5586,190.0732 686.5586,190.0732" fill="none" style="stroke:#FFFFFF;stroke-width:1.5;"/><path d="M765.2461,190.0732 C774.2461,190.0732 777.2461,187.3196 777.2461,178.3196 C777.2461,169.3196 780.2461,166.5659 789.2461,166.5659" fill="none" style="stroke:#FFFFFF;stroke-width:1.5;"/><rect fill="#0B58A8" height="27.0146" rx="5" ry="5" style="stroke:#FFFFFF;stroke-width:1.5;" width="78.6875" x="686.5586" y="176.5659"/><text fill="#FFFFFF" font-family="Verdana" font-size="14" lengthAdjust="spacing" textLength="68.6875" x="691.5586" y="195.6411">Fractional</text><line style="stroke:#FFFFFF;stroke-width:1.5;" x1="789.2461" x2="809.2461" y1="166.5659" y2="166.5659"/><line style="stroke:#FFFFFF;stroke-width:1.5;" x1="809.2461" x2="933.1787" y1="166.5659" y2="166.5659"/><path d="M856.8191,166.5659 L856.8191,163.5659 L862.8191,166.5659 L856.8191,169.5659 L856.8191,166.5659" fill="#FFFFFF"/><path d="M809.2461,166.5659 C818.2461,166.5659 821.2461,169.3196 821.2461,178.3196 C821.2461,187.3196 824.2461,190.0732 833.2461,190.0732" fill="none" style="stroke:#FFFFFF;stroke-width:1.5;"/><path d="M909.1787,190.0732 C918.1787,190.0732 921.1787,187.3196 921.1787,178.3196 C921.1787,169.3196 924.1787,166.5659 933.1787,166.5659" fill="none" style="stroke:#FFFFFF;stroke-width:1.5;"/><rect fill="#0B58A8" height="27.0146" rx="5" ry="5" style="stroke:#FFFFFF;stroke-width:1.5;" width="75.9326" x="833.2461" y="176.5659"/><text fill="#FFFFFF" font-family="Verdana" font-size="14" lengthAdjust="spacing" textLength="65.9326" x="838.2461" y="195.6411">Exponent</text><line style="stroke:#FFFFFF;stroke-width:1.5;" x1="933.1787" x2="953.1787" y1="166.5659" y2="166.5659"/><rect fill="none" height="27.0146" style="stroke:#FFFFFF;stroke-width:0.5;" width="21.7988" x="953.1787" y="153.0586"/><text fill="#FFFFFF" font-family="Verdana" font-size="14" lengthAdjust="spacing" textLength="11.7988" x="958.1787" y="172.1338">M</text><line style="stroke:#FFFFFF;stroke-width:1.5;" x1="974.9775" x2="974.9775" y1="166.5659" y2="166.5659"/><path d="M650.5586,154.5659 C650.5586,163.5659 653.5586,166.5659 662.5586,166.5659" fill="none" style="stroke:#FFFFFF;stroke-width:1.5;"/><line style="stroke:#FFFFFF;stroke-width:1.5;" x1="650.5586" x2="650.5586" y1="57.522" y2="154.5659"/><path d="M638.5586,45.522 C647.5586,45.522 650.5586,48.522 650.5586,57.522" fill="none" style="stroke:#FFFFFF;stroke-width:1.5;"/><path d="M986.9775,154.5659 C986.9775,163.5659 983.9775,166.5659 974.9775,166.5659" fill="none" style="stroke:#FFFFFF;stroke-width:1.5;"/><line style="stroke:#FFFFFF;stroke-width:1.5;" x1="986.9775" x2="986.9775" y1="57.522" y2="154.5659"/><path d="M986.9775,57.522 C986.9775,48.522 989.9775,45.522 998.9775,45.522" fill="none" style="stroke:#FFFFFF;stroke-width:1.5;"/><ellipse cx="9" cy="45.522" fill="none" rx="4" ry="4" style="stroke:#FFFFFF;stroke-width:2;"/><ellipse cx="1028.9775" cy="45.522" fill="#FFFFFF" rx="4" ry="4" style="stroke:#FFFFFF;stroke-width:1;"/><line style="stroke:#FFFFFF;stroke-width:1.5;" x1="13" x2="35" y1="45.522" y2="45.522"/><line style="stroke:#FFFFFF;stroke-width:1.5;" x1="998.9775" x2="1024.9775" y1="45.522" y2="45.522"/><path d="M1009.9775,45.522 L1009.9775,42.522 L1015.9775,45.522 L1009.9775,48.522 L1009.9775,45.522" fill="#FFFFFF"/><text fill="#FFFFFF" font-family="Verdana" font-size="14" font-weight="bold" lengthAdjust="spacing" textLength="78.5381" x="5" y="232.6558">Fractional</text><line style="stroke:#FFFFFF;stroke-width:1.5;" x1="35" x2="35" y1="259.1025" y2="259.1025"/><rect fill="none" height="27.0146" style="stroke:#FFFFFF;stroke-width:0.5;" width="15.0928" x="35" y="245.5952"/><text fill="#FFFFFF" font-family="Verdana" font-size="14" lengthAdjust="spacing" textLength="5.0928" x="40" y="264.6704">.</text><line style="stroke:#FFFFFF;stroke-width:1.5;" x1="50.0928" x2="70.0928" y1="259.1025" y2="259.1025"/><line style="stroke:#FFFFFF;stroke-width:1.5;" x1="70.0928" x2="259.6338" y1="259.1025" y2="259.1025"/><path d="M143.9092,259.1025 L143.9092,256.1025 L149.9092,259.1025 L143.9092,262.1025 L143.9092,259.1025" fill="#FFFFFF"/><path d="M70.0928,259.1025 C79.0928,259.1025 82.0928,267.8562 82.0928,276.8562 C82.0928,285.8562 85.0928,294.6099 94.0928,294.6099" fill="none" style="stroke:#FFFFFF;stroke-width:1.5;"/><path d="M235.6338,294.6099 C244.6338,294.6099 247.6338,285.8562 247.6338,276.8562 C247.6338,267.8562 250.6338,259.1025 259.6338,259.1025" fill="none" style="stroke:#FFFFFF;stroke-width:1.5;"/><path d="M102.0928,286.6099 C102.0928,292.6099 104.0928,294.6099 110.0928,294.6099" fill="none" style="stroke:#FFFFFF;stroke-width:1.5;"/><line style="stroke:#FFFFFF;stroke-width:1.5;" x1="102.0928" x2="102.0928" y1="282.1025" y2="286.6099"/><path d="M102.0928,282.1025 C102.0928,276.1025 104.0928,274.1025 110.0928,274.1025" fill="none" style="stroke:#FFFFFF;stroke-width:1.5;"/><line style="stroke:#FFFFFF;stroke-width:1.5;" x1="109.0928" x2="220.6338" y1="274.1025" y2="274.1025"/><path d="M174.0174,274.1025 L174.0174,271.1025 L168.0174,274.1025 L174.0174,277.1025 L174.0174,274.1025" fill="#FFFFFF"/><path d="M227.6338,286.6099 C227.6338,292.6099 225.6338,294.6099 219.6338,294.6099" fill="none" style="stroke:#FFFFFF;stroke-width:1.5;"/><line style="stroke:#FFFFFF;stroke-width:1.5;" x1="227.6338" x2="227.6338" y1="282.1025" y2="286.6099"/><path d="M219.6338,274.1025 C225.6338,274.1025 227.6338,276.1025 227.6338,282.1025" fill="none" style="stroke:#FFFFFF;stroke-width:1.5;"/><line style="stroke:#FFFFFF;stroke-width:1.5;" x1="94.0928" x2="109.0928" y1="294.6099" y2="294.6099"/><line style="stroke:#FFFFFF;stroke-width:1.5;" x1="220.6338" x2="235.6338" y1="294.6099" y2="294.6099"/><rect fill="none" height="27.0146" style="stroke:#FFFFFF;stroke-width:1;stroke-dasharray:5,5;" width="111.541" x="109.0928" y="281.1025"/><text fill="#FFFFFF" font-family="Verdana" font-size="14" lengthAdjust="spacing" textLength="91.6973" x="119.0146" y="300.1777">Decimal digit</text><ellipse cx="9" cy="259.1025" fill="none" rx="4" ry="4" style="stroke:#FFFFFF;stroke-width:2;"/><ellipse cx="289.6338" cy="259.1025" fill="#FFFFFF" rx="4" ry="4" style="stroke:#FFFFFF;stroke-width:1;"/><line style="stroke:#FFFFFF;stroke-width:1.5;" x1="13" x2="35" y1="259.1025" y2="259.1025"/><line style="stroke:#FFFFFF;stroke-width:1.5;" x1="259.6338" x2="285.6338" y1="259.1025" y2="259.1025"/><path d="M270.6338,259.1025 L270.6338,256.1025 L276.6338,259.1025 L270.6338,262.1025 L270.6338,259.1025" fill="#FFFFFF"/><text fill="#FFFFFF" font-family="Verdana" font-size="14" font-weight="bold" lengthAdjust="spacing" textLength="73.9512" x="5" y="337.1924">Exponent</text><line style="stroke:#FFFFFF;stroke-width:1.5;" x1="35" x2="35" y1="363.6392" y2="363.6392"/><rect fill="none" height="27.0146" style="stroke:#FFFFFF;stroke-width:0.5;" width="18.3398" x="59" y="350.1318"/><text fill="#FFFFFF" font-family="Verdana" font-size="14" lengthAdjust="spacing" textLength="8.3398" x="64" y="369.207">e</text><line style="stroke:#FFFFFF;stroke-width:1.5;" x1="35" x2="59" y1="363.6392" y2="363.6392"/><line style="stroke:#FFFFFF;stroke-width:1.5;" x1="77.3398" x2="101.8525" y1="363.6392" y2="363.6392"/><rect fill="none" height="27.0146" style="stroke:#FFFFFF;stroke-width:0.5;" width="18.8525" x="59" y="387.1465"/><text fill="#FFFFFF" font-family="Verdana" font-size="14" lengthAdjust="spacing" textLength="8.8525" x="64" y="406.2217">E</text><line style="stroke:#FFFFFF;stroke-width:1.5;" x1="77.8525" x2="77.8525" y1="400.6538" y2="400.6538"/><path d="M47,388.6538 C47,397.6538 50,400.6538 59,400.6538" fill="none" style="stroke:#FFFFFF;stroke-width:1.5;"/><line style="stroke:#FFFFFF;stroke-width:1.5;" x1="47" x2="47" y1="375.6392" y2="388.6538"/><path d="M35,363.6392 C44,363.6392 47,366.6392 47,375.6392" fill="none" style="stroke:#FFFFFF;stroke-width:1.5;"/><path d="M89.8525,388.6538 C89.8525,397.6538 86.8525,400.6538 77.8525,400.6538" fill="none" style="stroke:#FFFFFF;stroke-width:1.5;"/><line style="stroke:#FFFFFF;stroke-width:1.5;" x1="89.8525" x2="89.8525" y1="375.6392" y2="388.6538"/><path d="M89.8525,375.6392 C89.8525,366.6392 92.8525,363.6392 101.8525,363.6392" fill="none" style="stroke:#FFFFFF;stroke-width:1.5;"/><line style="stroke:#FFFFFF;stroke-width:1.5;" x1="101.8525" x2="121.8525" y1="363.6392" y2="363.6392"/><line style="stroke:#FFFFFF;stroke-width:1.5;" x1="121.8525" x2="239.3096" y1="363.6392" y2="363.6392"/><path d="M166.8354,363.6392 L166.8354,360.6392 L172.8354,363.6392 L166.8354,366.6392 L166.8354,363.6392" fill="#FFFFFF"/><path d="M121.8525,363.6392 C130.8525,363.6392 133.8525,366.3928 133.8525,375.3928 C133.8525,384.3928 136.8525,387.1465 145.8525,387.1465" fill="none" style="stroke:#FFFFFF;stroke-width:1.5;"/><path d="M215.3096,387.1465 C224.3096,387.1465 227.3096,384.3928 227.3096,375.3928 C227.3096,366.3928 230.3096,363.6392 239.3096,363.6392" fill="none" style="stroke:#FFFFFF;stroke-width:1.5;"/><rect fill="none" height="27.0146" style="stroke:#FFFFFF;stroke-width:0.5;" width="16.3574" x="169.8525" y="373.6392"/><text fill="#FFFFFF" font-family="Verdana" font-size="14" lengthAdjust="spacing" textLength="6.3574" x="174.8525" y="392.7144">-</text><line style="stroke:#FFFFFF;stroke-width:1.5;" x1="145.8525" x2="169.8525" y1="387.1465" y2="387.1465"/><line style="stroke:#FFFFFF;stroke-width:1.5;" x1="186.21" x2="215.3096" y1="387.1465" y2="387.1465"/><rect fill="none" height="27.0146" style="stroke:#FFFFFF;stroke-width:0.5;" width="21.457" x="169.8525" y="410.6538"/><text fill="#FFFFFF" font-family="Verdana" font-size="14" lengthAdjust="spacing" textLength="11.457" x="174.8525" y="429.729">+</text><line style="stroke:#FFFFFF;stroke-width:1.5;" x1="191.3096" x2="191.3096" y1="424.1611" y2="424.1611"/><path d="M157.8525,412.1611 C157.8525,421.1611 160.8525,424.1611 169.8525,424.1611" fill="none" style="stroke:#FFFFFF;stroke-width:1.5;"/><line style="stroke:#FFFFFF;stroke-width:1.5;" x1="157.8525" x2="157.8525" y1="399.1465" y2="412.1611"/><path d="M145.8525,387.1465 C154.8525,387.1465 157.8525,390.1465 157.8525,399.1465" fill="none" style="stroke:#FFFFFF;stroke-width:1.5;"/><path d="M203.3096,412.1611 C203.3096,421.1611 200.3096,424.1611 191.3096,424.1611" fill="none" style="stroke:#FFFFFF;stroke-width:1.5;"/><line style="stroke:#FFFFFF;stroke-width:1.5;" x1="203.3096" x2="203.3096" y1="399.1465" y2="412.1611"/><path d="M203.3096,399.1465 C203.3096,390.1465 206.3096,387.1465 215.3096,387.1465" fill="none" style="stroke:#FFFFFF;stroke-width:1.5;"/><line style="stroke:#FFFFFF;stroke-width:1.5;" x1="239.3096" x2="259.3096" y1="363.6392" y2="363.6392"/><rect fill="none" height="27.0146" style="stroke:#FFFFFF;stroke-width:1;stroke-dasharray:5,5;" width="111.541" x="259.3096" y="350.1318"/><text fill="#FFFFFF" font-family="Verdana" font-size="14" lengthAdjust="spacing" textLength="91.6973" x="269.2314" y="369.207">Decimal digit</text><line style="stroke:#FFFFFF;stroke-width:1.5;" x1="370.8506" x2="390.8506" y1="363.6392" y2="363.6392"/><line style="stroke:#FFFFFF;stroke-width:1.5;" x1="390.8506" x2="580.3916" y1="363.6392" y2="363.6392"/><path d="M464.667,363.6392 L464.667,360.6392 L470.667,363.6392 L464.667,366.6392 L464.667,363.6392" fill="#FFFFFF"/><path d="M390.8506,363.6392 C399.8506,363.6392 402.8506,372.3928 402.8506,381.3928 C402.8506,390.3928 405.8506,399.1465 414.8506,399.1465" fill="none" style="stroke:#FFFFFF;stroke-width:1.5;"/><path d="M556.3916,399.1465 C565.3916,399.1465 568.3916,390.3928 568.3916,381.3928 C568.3916,372.3928 571.3916,363.6392 580.3916,363.6392" fill="none" style="stroke:#FFFFFF;stroke-width:1.5;"/><path d="M422.8506,391.1465 C422.8506,397.1465 424.8506,399.1465 430.8506,399.1465" fill="none" style="stroke:#FFFFFF;stroke-width:1.5;"/><line style="stroke:#FFFFFF;stroke-width:1.5;" x1="422.8506" x2="422.8506" y1="386.6392" y2="391.1465"/><path d="M422.8506,386.6392 C422.8506,380.6392 424.8506,378.6392 430.8506,378.6392" fill="none" style="stroke:#FFFFFF;stroke-width:1.5;"/><line style="stroke:#FFFFFF;stroke-width:1.5;" x1="429.8506" x2="541.3916" y1="378.6392" y2="378.6392"/><path d="M494.7752,378.6392 L494.7752,375.6392 L488.7752,378.6392 L494.7752,381.6392 L494.7752,378.6392" fill="#FFFFFF"/><path d="M548.3916,391.1465 C548.3916,397.1465 546.3916,399.1465 540.3916,399.1465" fill="none" style="stroke:#FFFFFF;stroke-width:1.5;"/><line style="stroke:#FFFFFF;stroke-width:1.5;" x1="548.3916" x2="548.3916" y1="386.6392" y2="391.1465"/><path d="M540.3916,378.6392 C546.3916,378.6392 548.3916,380.6392 548.3916,386.6392" fill="none" style="stroke:#FFFFFF;stroke-width:1.5;"/><line style="stroke:#FFFFFF;stroke-width:1.5;" x1="414.8506" x2="429.8506" y1="399.1465" y2="399.1465"/><line style="stroke:#FFFFFF;stroke-width:1.5;" x1="541.3916" x2="556.3916" y1="399.1465" y2="399.1465"/><rect fill="none" height="27.0146" style="stroke:#FFFFFF;stroke-width:1;stroke-dasharray:5,5;" width="111.541" x="429.8506" y="385.6392"/><text fill="#FFFFFF" font-family="Verdana" font-size="14" lengthAdjust="spacing" textLength="91.6973" x="439.7725" y="404.7144">Decimal digit</text><ellipse cx="9" cy="363.6392" fill="none" rx="4" ry="4" style="stroke:#FFFFFF;stroke-width:2;"/><ellipse cx="610.3916" cy="363.6392" fill="#FFFFFF" rx="4" ry="4" style="stroke:#FFFFFF;stroke-width:1;"/><line style="stroke:#FFFFFF;stroke-width:1.5;" x1="13" x2="35" y1="363.6392" y2="363.6392"/><line style="stroke:#FFFFFF;stroke-width:1.5;" x1="580.3916" x2="606.3916" y1="363.6392" y2="363.6392"/><path d="M591.3916,363.6392 L591.3916,360.6392 L597.3916,363.6392 L591.3916,366.6392 L591.3916,363.6392" fill="#FFFFFF"/><!--SRC=[xLPTTzf647tNhvYI5tCQEnY778V6hG534mSSJcGx3pbz6AG1jeXTTRKYfWd_lRFYIqAG-8EyLHnnf9qxTqTtPcVtF3Ae3VLat_d536bCW6CnGASLA3Hm1f-XS5Y0Rr3ujG1_mNCuuDyVS46U66C0lXW8m- -7K2WLsFfrYsq6HUlFzcBYtzBe6Q4aGvupVVCkL9AaITXvjewTvni_fN3MjC9z5xN1Pt55-CrnKh0pA1pjZfMnAuOpZhP0oTStvz5lgf5dsCrxJj9FT7RErvhFhpUHcGRqkmEWbJBmbHy0wkYD1bh5qc-eG6buLgfNJckdYQsbf5cCjf9hDNg5dC9RqZvAJ0RVJaFIRI57I_n5xQHSIKmyIdaMEtez5Dv8KXJ1SJBMGJqG4gpRZ6zVUV7OAZIFrCFGQhjussGe9QEpvB_FdqVw7i0XeNyle14ce1NEAk2AVmdAvHzusjkg6xvDpvJJV4FTxPbmRVQWfm9_GIoLluofWtTY78y_2TyCuQHKMY0qzKcJzEXdJ1zHY1gDsYljcnUB8dMYaP1sWZ7Kj5PVsYe8HAZ2BFSQjAkEruWBwcCSc5pvvX0T9LKKeaV-2jjGiHQaKzYsw5F0MNSDQq23AMSZKe7mKv0kBp_XYH2bwQBl2pc0urBAxj8_iKsEfR85L5UQaxJh0zqX-kgB9UbZ457ASXDHdGpEbJGwfenut90cmaoJ9ErUx7NKcrdR5ixsdf2JT9PEZ9qEzJo0l7SMUfUWbcfLCjQ6q5v0VcE8jiikgdbROUMo1l0HVH57y3fB620lrX_eiXyHagbgncZHYmtjaE8-72v_E2d3tVPn9ArrQtomRwg9FDpNxW-yNaQ9UtQJIEFUUKfsEHiue0noLPGxCfNZq6A2vgaSh1LNclyqbhWN2E_H55VgiVNoeVStHp-lxorLFCjqghNYUwfuropbVzZYod8iYxssdUcxlMexKsDlJCszCRtR6zFL4vbuAsbWH7F2wmTscVyFyp_lCDyD-1Hnqsd3X7HaJy77H-LIkNBqyi1bpIzZ2ULJE3wfbbvNonLeDDrhiFQYS_1djmqHRuGUCNKqtu6OeEXSuWJXOooD65CLFeGaBo_UBmUWAIT2AsdFtyxbRMSDUFNoiCu1kgGv5BZjE8jJ4tjuocxRLRYvRXsUEcsKWvYxIXL8EhmLIwEdR7F_0m00]--></g></svg>