<svg xmlns="http://www.w3.org/2000/svg" xmlns:xlink="http://www.w3.org/1999/xlink" contentStyleType="text/css" data-diagram-type="EBNF" height="179px" preserveAspectRatio="none" style="width:545px;height:179px;background:#0B58A8;" version="1.1" viewBox="0 0 545 179" width="545px" zoomAndPan="magnify"><defs/><g><rect fill="#0B58A8" height="179" style="stroke:none;stroke-width:1;" width="545" x="0" y="0"/><text fill="#FFFFFF" font-family="Verdana" font-size="14" font-weight="bold" lengthAdjust="spacing" textLength="32.4092" x="5" y="19.0752">Map</text><line style="stroke:#FFFFFF;stroke-width:1.5;" x1="35" x2="35" y1="45.522" y2="45.522"/><rect fill="none" height="27.0146" style="stroke:#FFFFFF;stroke-width:0.5;" width="18.8867" x="35" y="32.0146"/><text fill="#FFFFFF" font-family="Verdana" font-size="14" lengthAdjust="spacing" textLength="8.8867" x="40" y="51.0898">{</text><line style="stroke:#FFFFFF;stroke-width:1.5;" x1="53.8867" x2="73.8867" y1="45.522" y2="45.522"/><line style="stroke:#FFFFFF;stroke-width:1.5;" x1="73.8867" x2="466.4238" y1="45.522" y2="45.522"/><path d="M228.9016,45.522 L228.9016,42.522 L234.9016,45.522 L228.9016,48.522 L228.9016,45.522" fill="#FFFFFF"/><path d="M73.8867,45.522 C82.8867,45.522 85.8867,67.7756 85.8867,76.7756 C85.8867,85.7756 88.8867,108.0293 97.8867,108.0293" fill="none" style="stroke:#FFFFFF;stroke-width:1.5;"/><path d="M442.4238,108.0293 C451.4238,108.0293 454.4238,85.7756 454.4238,76.7756 C454.4238,67.7756 457.4238,45.522 466.4238,45.522" fill="none" style="stroke:#FFFFFF;stroke-width:1.5;"/><path d="M105.8867,100.0293 C105.8867,106.0293 107.8867,108.0293 113.8867,108.0293" fill="none" style="stroke:#FFFFFF;stroke-width:1.5;"/><line style="stroke:#FFFFFF;stroke-width:1.5;" x1="105.8867" x2="105.8867" y1="68.522" y2="100.0293"/><path d="M105.8867,68.522 C105.8867,62.522 107.8867,60.522 113.8867,60.522" fill="none" style="stroke:#FFFFFF;stroke-width:1.5;"/><line style="stroke:#FFFFFF;stroke-width:1.5;" x1="112.8867" x2="427.4238" y1="60.522" y2="60.522"/><path d="M299.609,60.522 L299.609,57.522 L293.609,60.522 L299.609,63.522 L299.609,60.522" fill="#FFFFFF"/><path d="M434.4238,100.0293 C434.4238,106.0293 432.4238,108.0293 426.4238,108.0293" fill="none" style="stroke:#FFFFFF;stroke-width:1.5;"/><line style="stroke:#FFFFFF;stroke-width:1.5;" x1="434.4238" x2="434.4238" y1="68.522" y2="100.0293"/><path d="M426.4238,60.522 C432.4238,60.522 434.4238,62.522 434.4238,68.522" fill="none" style="stroke:#FFFFFF;stroke-width:1.5;"/><line style="stroke:#FFFFFF;stroke-width:1.5;" x1="97.8867" x2="112.8867" y1="108.0293" y2="108.0293"/><line style="stroke:#FFFFFF;stroke-width:1.5;" x1="427.4238" x2="442.4238" y1="108.0293" y2="108.0293"/><path d="M120.8867,100.0293 C120.8867,106.0293 122.8867,108.0293 128.8867,108.0293" fill="none" style="stroke:#FFFFFF;stroke-width:1.5;"/><line style="stroke:#FFFFFF;stroke-width:1.5;" x1="120.8867" x2="120.8867" y1="95.522" y2="100.0293"/><path d="M120.8867,95.522 C120.8867,89.522 122.8867,87.522 128.8867,87.522" fill="none" style="stroke:#FFFFFF;stroke-width:1.5;"/><line style="stroke:#FFFFFF;stroke-width:1.5;" x1="127.8867" x2="412.4238" y1="87.522" y2="87.522"/><path d="M296.609,87.522 L296.609,84.522 L290.609,87.522 L296.609,90.522 L296.609,87.522" fill="#FFFFFF"/><path d="M419.4238,100.0293 C419.4238,106.0293 417.4238,108.0293 411.4238,108.0293" fill="none" style="stroke:#FFFFFF;stroke-width:1.5;"/><line style="stroke:#FFFFFF;stroke-width:1.5;" x1="419.4238" x2="419.4238" y1="95.522" y2="100.0293"/><path d="M411.4238,87.522 C417.4238,87.522 419.4238,89.522 419.4238,95.522" fill="none" style="stroke:#FFFFFF;stroke-width:1.5;"/><line style="stroke:#FFFFFF;stroke-width:1.5;" x1="112.8867" x2="127.8867" y1="108.0293" y2="108.0293"/><line style="stroke:#FFFFFF;stroke-width:1.5;" x1="412.4238" x2="427.4238" y1="108.0293" y2="108.0293"/><line style="stroke:#FFFFFF;stroke-width:1.5;" x1="127.8867" x2="127.8867" y1="108.0293" y2="108.0293"/><line style="stroke:#FFFFFF;stroke-width:1.5;" x1="127.8867" x2="298.6221" y1="108.0293" y2="108.0293"/><path d="M194.1809,108.0293 L194.1809,105.0293 L200.1809,108.0293 L194.1809,111.0293 L194.1809,108.0293" fill="#FFFFFF"/><path d="M127.8867,108.0293 C136.8867,108.0293 139.8867,116.783 139.8867,125.783 C139.8867,134.783 142.8867,143.5366 151.8867,143.5366" fill="none" style="stroke:#FFFFFF;stroke-width:1.5;"/><path d="M274.6221,143.5366 C283.6221,143.5366 286.6221,134.783 286.6221,125.783 C286.6221,116.783 289.6221,108.0293 298.6221,108.0293" fill="none" style="stroke:#FFFFFF;stroke-width:1.5;"/><path d="M159.8867,135.5366 C159.8867,141.5366 161.8867,143.5366 167.8867,143.5366" fill="none" style="stroke:#FFFFFF;stroke-width:1.5;"/><line style="stroke:#FFFFFF;stroke-width:1.5;" x1="159.8867" x2="159.8867" y1="131.0293" y2="135.5366"/><path d="M159.8867,131.0293 C159.8867,125.0293 161.8867,123.0293 167.8867,123.0293" fill="none" style="stroke:#FFFFFF;stroke-width:1.5;"/><line style="stroke:#FFFFFF;stroke-width:1.5;" x1="166.8867" x2="259.6221" y1="123.0293" y2="123.0293"/><path d="M220.5279,123.0293 L220.5279,120.0293 L214.5279,123.0293 L220.5279,126.0293 L220.5279,123.0293" fill="#FFFFFF"/><path d="M266.6221,135.5366 C266.6221,141.5366 264.6221,143.5366 258.6221,143.5366" fill="none" style="stroke:#FFFFFF;stroke-width:1.5;"/><line style="stroke:#FFFFFF;stroke-width:1.5;" x1="266.6221" x2="266.6221" y1="131.0293" y2="135.5366"/><path d="M258.6221,123.0293 C264.6221,123.0293 266.6221,125.0293 266.6221,131.0293" fill="none" style="stroke:#FFFFFF;stroke-width:1.5;"/><line style="stroke:#FFFFFF;stroke-width:1.5;" x1="151.8867" x2="166.8867" y1="143.5366" y2="143.5366"/><line style="stroke:#FFFFFF;stroke-width:1.5;" x1="259.6221" x2="274.6221" y1="143.5366" y2="143.5366"/><rect fill="#0B58A8" height="27.0146" rx="5" ry="5" style="stroke:#FFFFFF;stroke-width:1.5;" width="92.7354" x="166.8867" y="130.0293"/><text fill="#FFFFFF" font-family="Verdana" font-size="14" lengthAdjust="spacing" textLength="82.7354" x="171.8867" y="149.1045">WhiteSpace</text><line style="stroke:#FFFFFF;stroke-width:1.5;" x1="298.6221" x2="318.6221" y1="108.0293" y2="108.0293"/><rect fill="#0B58A8" height="27.0146" rx="5" ry="5" style="stroke:#FFFFFF;stroke-width:1.5;" width="93.8018" x="318.6221" y="94.522"/><text fill="#FFFFFF" font-family="Verdana" font-size="14" lengthAdjust="spacing" textLength="83.8018" x="323.6221" y="113.5972">EdnElement</text><path d="M112.8867,82.522 C112.8867,78.772 114.1367,77.522 117.8867,77.522" fill="none" style="stroke:#FFFFFF;stroke-width:0.5;"/><path d="M270.1553,72.522 C270.1553,76.272 268.9053,77.522 265.1553,77.522" fill="none" style="stroke:#FFFFFF;stroke-width:0.5;"/><path d="M270.1553,72.522 C270.1553,76.272 271.4053,77.522 275.1553,77.522" fill="none" style="stroke:#FFFFFF;stroke-width:0.5;"/><path d="M422.4238,77.522 C426.1738,77.522 427.4238,78.772 427.4238,82.522" fill="none" style="stroke:#FFFFFF;stroke-width:0.5;"/><line style="stroke:#FFFFFF;stroke-width:0.5;" x1="117.8867" x2="265.1553" y1="77.522" y2="77.522"/><line style="stroke:#FFFFFF;stroke-width:0.5;" x1="275.1553" x2="422.4238" y1="77.522" y2="77.522"/><text fill="#FFFFFF" font-family="Verdana" font-size="12" lengthAdjust="spacing" textLength="17.4492" x="261.4307" y="70.0415">2&#215;</text><line style="stroke:#FFFFFF;stroke-width:1.5;" x1="466.4238" x2="486.4238" y1="45.522" y2="45.522"/><rect fill="none" height="27.0146" style="stroke:#FFFFFF;stroke-width:0.5;" width="18.8867" x="486.4238" y="32.0146"/><text fill="#FFFFFF" font-family="Verdana" font-size="14" lengthAdjust="spacing" textLength="8.8867" x="491.4238" y="51.0898">}</text><ellipse cx="9" cy="45.522" fill="none" rx="4" ry="4" style="stroke:#FFFFFF;stroke-width:2;"/><ellipse cx="535.3105" cy="45.522" fill="#FFFFFF" rx="4" ry="4" style="stroke:#FFFFFF;stroke-width:1;"/><line style="stroke:#FFFFFF;stroke-width:1.5;" x1="13" x2="35" y1="45.522" y2="45.522"/><line style="stroke:#FFFFFF;stroke-width:1.5;" x1="505.3105" x2="531.3105" y1="45.522" y2="45.522"/><path d="M516.3105,45.522 L516.3105,42.522 L522.3105,45.522 L516.3105,48.522 L516.3105,45.522" fill="#FFFFFF"/><!--SRC=[jLPjKzf04FwUNx6bNxHJBQ1qaBwCW52be8n1_Npa5hWIxjBB1QKE_xrxuJK2LPHc9eJiFllSthvTJaF3jC6sx3ZlJ0y726mWkinn6Yo0Rv1wJC57U8GiV80zUjxrX44tO1x2c1GLBYi-6Ka3-x4WDKx15-SK9OyfdTC5_UJw6fgHZzyT0AsKWKVw0r1YNh-hLIHvMVbAm_jqAPSlvcDTLKapbLRZQowzPEJjBMhE98k5vwC0TLt8_Wn_LZpAvc8LIN6LnKfRFU7r9OOXP69PW-cka63DndHpvKNn_YQUUYmmGidfsrE6T2mTnxyTsXxg5m1xoFYBW4OO7-Su6m5N_478Pf-njBUDRd2-lD9Ap9z4TtqcN9izQ2kVJucbuZEV6kn13AB1dU2c1qVfz1IXiOCQfOV_O_aG0wQPKJkb_VffMgHEs1VIBZ20ejRglgvyNmGgI78lG9lgU84ummwBVBDIlYk8Xf8gj7t6vzYoYhH0lOIjYmxwb7NNK0omEw9iXCeNV0dIfFOJdWYOD4t6kP1ToAINz2x-ZcnoB9Kje9BIbAHD6tHxZAjxIz9XVeXBcfiGIsZO9996HvW8dcV4K9XHdAJDpLvY-cdMrhcpVYQiX7Iyd1Yx7DCJ1rQjaz2763MBLYwXBGlj-SZBFNhpPlszhh1MiWPmpRY8GZX94lgCclMPkEmc2F5IHMEqQ4S6DuJY9HmkRHoLeMdxEfBgOZHkRRiqHBQtjUS3zKi_DayU4iku2q_99cM3TJ61d1VbXaojS6WnPEQj71GhgZJ-DfQexGllrHINwhNrSjN-HTvFwdjD5OyJaseHyHrLl6jcuT-kkP8Sis8lhcVwvwnQprJU6LDbPqmNEsEwV2CJ7ILb5kA4iBNbbDdHTslJfmFpfb678UhGVl1b3hFfRExmUCzb1cgHX6mUCaU5z4aXcuDonMs1rUyxUp-QTGXfvjDAN8IJOKi4-qwD3HbSHzA80HRWAa1PE_iv4q153eLMqhhar6uR2y3duuEIC7HEQt85RXlEz0E1B3nbJwW2tBIg1tcdpcGteWOg04g7JXrfz8Xqxby0]--></g></svg>