<svg xmlns="http://www.w3.org/2000/svg" xmlns:xlink="http://www.w3.org/1999/xlink" contentStyleType="text/css" data-diagram-type="EBNF" height="542px" preserveAspectRatio="none" style="width:453px;height:542px;background:#0B58A8;" version="1.1" viewBox="0 0 453 542" width="453px" zoomAndPan="magnify"><defs/><g><rect fill="#0B58A8" height="542" style="stroke:none;stroke-width:1;" width="453" x="0" y="0"/><text fill="#FFFFFF" font-family="Verdana" font-size="14" font-weight="bold" lengthAdjust="spacing" textLength="76.6377" x="5" y="19.0752">Character</text><line style="stroke:#FFFFFF;stroke-width:1.5;" x1="35" x2="35" y1="45.522" y2="45.522"/><rect fill="none" height="27.0146" style="stroke:#FFFFFF;stroke-width:0.5;" width="16.3574" x="35" y="32.0146"/><text fill="#FFFFFF" font-family="Verdana" font-size="14" lengthAdjust="spacing" textLength="6.3574" x="40" y="51.0898">\</text><line style="stroke:#FFFFFF;stroke-width:1.5;" x1="51.3574" x2="71.3574" y1="45.522" y2="45.522"/><rect fill="#0B58A8" height="27.0146" rx="5" ry="5" style="stroke:#FFFFFF;stroke-width:1.5;" width="86.7334" x="95.3574" y="32.0146"/><text fill="#FFFFFF" font-family="Verdana" font-size="14" lengthAdjust="spacing" textLength="76.7334" x="100.3574" y="51.0898">CharLiteral</text><line style="stroke:#FFFFFF;stroke-width:1.5;" x1="71.3574" x2="95.3574" y1="45.522" y2="45.522"/><line style="stroke:#FFFFFF;stroke-width:1.5;" x1="182.0908" x2="234.0703" y1="45.522" y2="45.522"/><rect fill="#0B58A8" height="27.0146" rx="5" ry="5" style="stroke:#FFFFFF;stroke-width:1.5;" width="83.8555" x="95.3574" y="69.0293"/><text fill="#FFFFFF" font-family="Verdana" font-size="14" lengthAdjust="spacing" textLength="73.8555" x="100.3574" y="88.1045">CharName</text><path d="M83.3574,70.5366 C83.3574,79.5366 86.3574,82.5366 95.3574,82.5366" fill="none" style="stroke:#FFFFFF;stroke-width:1.5;"/><line style="stroke:#FFFFFF;stroke-width:1.5;" x1="179.2129" x2="210.0703" y1="82.5366" y2="82.5366"/><path d="M192.6416,82.5366 L192.6416,79.5366 L198.6416,82.5366 L192.6416,85.5366 L192.6416,82.5366" fill="#FFFFFF"/><path d="M222.0703,70.5366 C222.0703,79.5366 219.0703,82.5366 210.0703,82.5366" fill="none" style="stroke:#FFFFFF;stroke-width:1.5;"/><rect fill="#0B58A8" height="27.0146" rx="5" ry="5" style="stroke:#FFFFFF;stroke-width:1.5;" width="114.7129" x="95.3574" y="106.0439"/><text fill="#FFFFFF" font-family="Verdana" font-size="14" lengthAdjust="spacing" textLength="104.7129" x="100.3574" y="125.1191">UnicodeEscape</text><line style="stroke:#FFFFFF;stroke-width:1.5;" x1="210.0703" x2="210.0703" y1="119.5513" y2="119.5513"/><path d="M83.3574,107.5513 C83.3574,116.5513 86.3574,119.5513 95.3574,119.5513" fill="none" style="stroke:#FFFFFF;stroke-width:1.5;"/><line style="stroke:#FFFFFF;stroke-width:1.5;" x1="83.3574" x2="83.3574" y1="57.522" y2="107.5513"/><path d="M71.3574,45.522 C80.3574,45.522 83.3574,48.522 83.3574,57.522" fill="none" style="stroke:#FFFFFF;stroke-width:1.5;"/><path d="M222.0703,107.5513 C222.0703,116.5513 219.0703,119.5513 210.0703,119.5513" fill="none" style="stroke:#FFFFFF;stroke-width:1.5;"/><line style="stroke:#FFFFFF;stroke-width:1.5;" x1="222.0703" x2="222.0703" y1="57.522" y2="107.5513"/><path d="M222.0703,57.522 C222.0703,48.522 225.0703,45.522 234.0703,45.522" fill="none" style="stroke:#FFFFFF;stroke-width:1.5;"/><ellipse cx="9" cy="45.522" fill="none" rx="4" ry="4" style="stroke:#FFFFFF;stroke-width:2;"/><ellipse cx="264.0703" cy="45.522" fill="#FFFFFF" rx="4" ry="4" style="stroke:#FFFFFF;stroke-width:1;"/><line style="stroke:#FFFFFF;stroke-width:1.5;" x1="13" x2="35" y1="45.522" y2="45.522"/><line style="stroke:#FFFFFF;stroke-width:1.5;" x1="234.0703" x2="260.0703" y1="45.522" y2="45.522"/><path d="M245.0703,45.522 L245.0703,42.522 L251.0703,45.522 L245.0703,48.522 L245.0703,45.522" fill="#FFFFFF"/><text fill="#FFFFFF" font-family="Verdana" font-size="14" font-weight="bold" lengthAdjust="spacing" textLength="86.8916" x="5" y="162.1338">CharLiteral</text><rect fill="none" height="27.0146" style="stroke:#FFFFFF;stroke-width:1;stroke-dasharray:5,5;" width="233.1182" x="35" y="175.0732"/><text fill="#FFFFFF" font-family="Verdana" font-size="14" lengthAdjust="spacing" textLength="213.2744" x="44.9219" y="194.1484">Any non-whitespace character</text><ellipse cx="9" cy="188.5806" fill="none" rx="4" ry="4" style="stroke:#FFFFFF;stroke-width:2;"/><ellipse cx="298.1182" cy="188.5806" fill="#FFFFFF" rx="4" ry="4" style="stroke:#FFFFFF;stroke-width:1;"/><line style="stroke:#FFFFFF;stroke-width:1.5;" x1="13" x2="35" y1="188.5806" y2="188.5806"/><line style="stroke:#FFFFFF;stroke-width:1.5;" x1="268.1182" x2="294.1182" y1="188.5806" y2="188.5806"/><path d="M279.1182,188.5806 L279.1182,185.5806 L285.1182,188.5806 L279.1182,191.5806 L279.1182,188.5806" fill="#FFFFFF"/><text fill="#FFFFFF" font-family="Verdana" font-size="14" font-weight="bold" lengthAdjust="spacing" textLength="81.7305" x="5" y="231.1631">CharName</text><rect fill="none" height="27.0146" style="stroke:#FFFFFF;stroke-width:0.5;" width="63.5391" x="59" y="244.1025"/><text fill="#FFFFFF" font-family="Verdana" font-size="14" lengthAdjust="spacing" textLength="53.5391" x="64" y="263.1777">newline</text><line style="stroke:#FFFFFF;stroke-width:1.5;" x1="35" x2="59" y1="257.6099" y2="257.6099"/><line style="stroke:#FFFFFF;stroke-width:1.5;" x1="122.5391" x2="146.5391" y1="257.6099" y2="257.6099"/><rect fill="none" height="27.0146" style="stroke:#FFFFFF;stroke-width:0.5;" width="50.0586" x="59" y="281.1172"/><text fill="#FFFFFF" font-family="Verdana" font-size="14" lengthAdjust="spacing" textLength="40.0586" x="64" y="300.1924">space</text><path d="M47,282.6245 C47,291.6245 50,294.6245 59,294.6245" fill="none" style="stroke:#FFFFFF;stroke-width:1.5;"/><line style="stroke:#FFFFFF;stroke-width:1.5;" x1="109.0586" x2="122.5391" y1="294.6245" y2="294.6245"/><path d="M134.5391,282.6245 C134.5391,291.6245 131.5391,294.6245 122.5391,294.6245" fill="none" style="stroke:#FFFFFF;stroke-width:1.5;"/><rect fill="none" height="27.0146" style="stroke:#FFFFFF;stroke-width:0.5;" width="32.6475" x="59" y="318.1318"/><text fill="#FFFFFF" font-family="Verdana" font-size="14" lengthAdjust="spacing" textLength="22.6475" x="64" y="337.207">tab</text><path d="M47,319.6392 C47,328.6392 50,331.6392 59,331.6392" fill="none" style="stroke:#FFFFFF;stroke-width:1.5;"/><line style="stroke:#FFFFFF;stroke-width:1.5;" x1="91.6475" x2="122.5391" y1="331.6392" y2="331.6392"/><path d="M105.0933,331.6392 L105.0933,328.6392 L111.0933,331.6392 L105.0933,334.6392 L105.0933,331.6392" fill="#FFFFFF"/><path d="M134.5391,319.6392 C134.5391,328.6392 131.5391,331.6392 122.5391,331.6392" fill="none" style="stroke:#FFFFFF;stroke-width:1.5;"/><rect fill="none" height="27.0146" style="stroke:#FFFFFF;stroke-width:0.5;" width="53.5244" x="59" y="355.1465"/><text fill="#FFFFFF" font-family="Verdana" font-size="14" lengthAdjust="spacing" textLength="43.5244" x="64" y="374.2217">return</text><line style="stroke:#FFFFFF;stroke-width:1.5;" x1="112.5244" x2="122.5391" y1="368.6538" y2="368.6538"/><path d="M47,356.6538 C47,365.6538 50,368.6538 59,368.6538" fill="none" style="stroke:#FFFFFF;stroke-width:1.5;"/><line style="stroke:#FFFFFF;stroke-width:1.5;" x1="47" x2="47" y1="269.6099" y2="356.6538"/><path d="M35,257.6099 C44,257.6099 47,260.6099 47,269.6099" fill="none" style="stroke:#FFFFFF;stroke-width:1.5;"/><path d="M134.5391,356.6538 C134.5391,365.6538 131.5391,368.6538 122.5391,368.6538" fill="none" style="stroke:#FFFFFF;stroke-width:1.5;"/><line style="stroke:#FFFFFF;stroke-width:1.5;" x1="134.5391" x2="134.5391" y1="269.6099" y2="356.6538"/><path d="M134.5391,269.6099 C134.5391,260.6099 137.5391,257.6099 146.5391,257.6099" fill="none" style="stroke:#FFFFFF;stroke-width:1.5;"/><ellipse cx="9" cy="257.6099" fill="none" rx="4" ry="4" style="stroke:#FFFFFF;stroke-width:2;"/><ellipse cx="176.5391" cy="257.6099" fill="#FFFFFF" rx="4" ry="4" style="stroke:#FFFFFF;stroke-width:1;"/><line style="stroke:#FFFFFF;stroke-width:1.5;" x1="13" x2="35" y1="257.6099" y2="257.6099"/><line style="stroke:#FFFFFF;stroke-width:1.5;" x1="146.5391" x2="172.5391" y1="257.6099" y2="257.6099"/><path d="M157.5391,257.6099 L157.5391,254.6099 L163.5391,257.6099 L157.5391,260.6099 L157.5391,257.6099" fill="#FFFFFF"/><text fill="#FFFFFF" font-family="Verdana" font-size="14" font-weight="bold" lengthAdjust="spacing" textLength="117.6055" x="5" y="411.2363">UnicodeEscape</text><line style="stroke:#FFFFFF;stroke-width:1.5;" x1="35" x2="35" y1="437.6831" y2="437.6831"/><rect fill="none" height="27.0146" style="stroke:#FFFFFF;stroke-width:0.5;" width="18.8594" x="35" y="424.1758"/><text fill="#FFFFFF" font-family="Verdana" font-size="14" lengthAdjust="spacing" textLength="8.8594" x="40" y="443.251">u</text><line style="stroke:#FFFFFF;stroke-width:1.5;" x1="53.8594" x2="73.8594" y1="437.6831" y2="437.6831"/><rect fill="#0B58A8" height="27.0146" rx="5" ry="5" style="stroke:#FFFFFF;stroke-width:1.5;" width="69.8555" x="73.8594" y="424.1758"/><text fill="#FFFFFF" font-family="Verdana" font-size="14" lengthAdjust="spacing" textLength="59.8555" x="78.8594" y="443.251">HexDigit</text><line style="stroke:#FFFFFF;stroke-width:1.5;" x1="143.7148" x2="163.7148" y1="437.6831" y2="437.6831"/><rect fill="#0B58A8" height="27.0146" rx="5" ry="5" style="stroke:#FFFFFF;stroke-width:1.5;" width="69.8555" x="163.7148" y="424.1758"/><text fill="#FFFFFF" font-family="Verdana" font-size="14" lengthAdjust="spacing" textLength="59.8555" x="168.7148" y="443.251">HexDigit</text><line style="stroke:#FFFFFF;stroke-width:1.5;" x1="233.5703" x2="253.5703" y1="437.6831" y2="437.6831"/><rect fill="#0B58A8" height="27.0146" rx="5" ry="5" style="stroke:#FFFFFF;stroke-width:1.5;" width="69.8555" x="253.5703" y="424.1758"/><text fill="#FFFFFF" font-family="Verdana" font-size="14" lengthAdjust="spacing" textLength="59.8555" x="258.5703" y="443.251">HexDigit</text><line style="stroke:#FFFFFF;stroke-width:1.5;" x1="323.4258" x2="343.4258" y1="437.6831" y2="437.6831"/><rect fill="#0B58A8" height="27.0146" rx="5" ry="5" style="stroke:#FFFFFF;stroke-width:1.5;" width="69.8555" x="343.4258" y="424.1758"/><text fill="#FFFFFF" font-family="Verdana" font-size="14" lengthAdjust="spacing" textLength="59.8555" x="348.4258" y="443.251">HexDigit</text><ellipse cx="9" cy="437.6831" fill="none" rx="4" ry="4" style="stroke:#FFFFFF;stroke-width:2;"/><ellipse cx="443.2813" cy="437.6831" fill="#FFFFFF" rx="4" ry="4" style="stroke:#FFFFFF;stroke-width:1;"/><line style="stroke:#FFFFFF;stroke-width:1.5;" x1="13" x2="35" y1="437.6831" y2="437.6831"/><line style="stroke:#FFFFFF;stroke-width:1.5;" x1="413.2813" x2="439.2813" y1="437.6831" y2="437.6831"/><path d="M424.2813,437.6831 L424.2813,434.6831 L430.2813,437.6831 L424.2813,440.6831 L424.2813,437.6831" fill="#FFFFFF"/><text fill="#FFFFFF" font-family="Verdana" font-size="14" font-weight="bold" lengthAdjust="spacing" textLength="67.7441" x="5" y="480.2656">HexDigit</text><rect fill="none" height="27.0146" style="stroke:#FFFFFF;stroke-width:1;stroke-dasharray:5,5;" width="111.6709" x="35" y="493.2051"/><text fill="#FFFFFF" font-family="Verdana" font-size="14" lengthAdjust="spacing" textLength="91.8271" x="44.9219" y="512.2803">0-9, a-z, A-Z</text><ellipse cx="9" cy="506.7124" fill="none" rx="4" ry="4" style="stroke:#FFFFFF;stroke-width:2;"/><ellipse cx="176.6709" cy="506.7124" fill="#FFFFFF" rx="4" ry="4" style="stroke:#FFFFFF;stroke-width:1;"/><line style="stroke:#FFFFFF;stroke-width:1.5;" x1="13" x2="35" y1="506.7124" y2="506.7124"/><line style="stroke:#FFFFFF;stroke-width:1.5;" x1="146.6709" x2="172.6709" y1="506.7124" y2="506.7124"/><path d="M157.6709,506.7124 L157.6709,503.7124 L163.6709,506.7124 L157.6709,509.7124 L157.6709,506.7124" fill="#FFFFFF"/><!--SRC=[xLPjKnf94Fw-lwAFVD4goI5AIhcy2AWn1WoLLQ_gAb-QtGRcM6OsixCekVZVhsTuNHTYLF8jL2qiFKy_q_DqJyyS9GQreOxiUd-OFWq9S2Xww7cDFceC36bu0uKl1TY1BR2sfc0RHl3T_Rj0zlWELr84AgIJ9C2OO1l-clZFi6_W7TJa6AIInPi-6vCO0u9WFiMxcOVZumabtKH2Ke6v2mxitWnstAycasfPi4xPcTapjQ6UqUsnw0dpy2jJpDzjcANYuGvWyTiEr8h_kBYEI8PE7-zeeTNaypenuuZUUW1QAGF_yGj07OD1JwjKXWqLAGqlIlNAGUt0ZPqgQQRMK_UPMzt2hqc7AD4PpyOniO1oCCCVr_RA5JV4LigpMEjbNmG3IKa2kyxMGjqJ4gpR7J-X2j8XoLcaB9aHIax_tMSeEUkT- -xoyZXD3mFxXE5F0Oqm4SrnLW5VV2Cebn_mj8zLDpvRdYcd-JrrLsV2jzc3Zeh2AR7aIfeojl1M3DFXto8qVTWhbQO8JLtI90Fw5TCd5FE6C6gZjA__d1Qfbmo4j1CCeQQrkccgA1AnYhFS2z2wEbuWZgcBQMHovPj3j9HKRXU7Ssn3fLgGNi8sHPVidlSDQq0zsoqI5Obm2TBcxIS24QCqRGn38NkmMreQz-bhQfDZgMm1rPNc9ArReD_7KDrOaYv62IsDN2LK9uCJ9OrEAIDUOCH8cB5BqlhDNaTzFskhmbdT4tAItYqdnaw7UX90tZiBlNMecLgLp6X3w22YSD7fxn7ErvBB6i1d34MQm66MC4BUh0_eiXaHt5GrOxJef8RMIF4p73uld9JXRliqajD5Qtoqxr8JURolFHzulmoSU_QGMCPz29HiSpQmHndal2ZNP2h7eSK8pNCvM2kkjF1vB6ad4i6JAIxKK-lbK-TVZdvItokg-2xJgHQARwZYVJEJ_t6RAyinA_RQQgOVzghLJ8sDCPriZEd3nfWkdid4Hqa34veGNZwoo_o-XESluUs8J_-hLXD6f1DxUzrzMIwLAo_tjtmqS9vAA1_0xbwrT5WjLw1nub-27T_sjjwtcv3m0SQB3aKoEJcOODixnn72vrGQCQGgV8f9dXz_d1dWH8w4LjBUcxtpwzO2y6g_MEU0VT8S2botlEbjXprO3Jvkgt1rULeyy9eeUobtWogGzFW8bKQFUSp_7m00]--></g></svg>