<svg xmlns="http://www.w3.org/2000/svg" xmlns:xlink="http://www.w3.org/1999/xlink" contentStyleType="text/css" data-diagram-type="EBNF" height="1486px" preserveAspectRatio="none" style="width:525px;height:1486px;background:#0B58A8;" version="1.1" viewBox="0 0 525 1486" width="525px" zoomAndPan="magnify"><defs/><g><rect fill="#0B58A8" height="1486" style="stroke:none;stroke-width:1;" width="525" x="0" y="0"/><text fill="#FFFFFF" font-family="Verdana" font-size="14" font-weight="bold" lengthAdjust="spacing" textLength="58.0576" x="5" y="19.0752">Symbol</text><line style="stroke:#FFFFFF;stroke-width:1.5;" x1="59" x2="59" y1="45.522" y2="45.522"/><rect fill="#0B58A8" height="27.0146" rx="5" ry="5" style="stroke:#FFFFFF;stroke-width:1.5;" width="90.8965" x="59" y="32.0146"/><text fill="#FFFFFF" font-family="Verdana" font-size="14" lengthAdjust="spacing" textLength="80.8965" x="64" y="51.0898">Namespace</text><line style="stroke:#FFFFFF;stroke-width:1.5;" x1="149.8965" x2="169.8965" y1="45.522" y2="45.522"/><rect fill="none" height="27.0146" style="stroke:#FFFFFF;stroke-width:0.5;" width="16.3574" x="169.8965" y="32.0146"/><text fill="#FFFFFF" font-family="Verdana" font-size="14" lengthAdjust="spacing" textLength="6.3574" x="174.8965" y="51.0898">/</text><line style="stroke:#FFFFFF;stroke-width:1.5;" x1="186.2539" x2="206.2539" y1="45.522" y2="45.522"/><rect fill="#0B58A8" height="27.0146" rx="5" ry="5" style="stroke:#FFFFFF;stroke-width:1.5;" width="112.6348" x="206.2539" y="32.0146"/><text fill="#FFFFFF" font-family="Verdana" font-size="14" lengthAdjust="spacing" textLength="102.6348" x="211.2539" y="51.0898">QualifiedName</text><line style="stroke:#FFFFFF;stroke-width:1.5;" x1="35" x2="59" y1="45.522" y2="45.522"/><line style="stroke:#FFFFFF;stroke-width:1.5;" x1="318.8887" x2="342.8887" y1="45.522" y2="45.522"/><rect fill="#0B58A8" height="27.0146" rx="5" ry="5" style="stroke:#FFFFFF;stroke-width:1.5;" width="50.8379" x="59" y="69.0293"/><text fill="#FFFFFF" font-family="Verdana" font-size="14" lengthAdjust="spacing" textLength="40.8379" x="64" y="88.1045">Name</text><path d="M47,70.5366 C47,79.5366 50,82.5366 59,82.5366" fill="none" style="stroke:#FFFFFF;stroke-width:1.5;"/><line style="stroke:#FFFFFF;stroke-width:1.5;" x1="109.8379" x2="318.8887" y1="82.5366" y2="82.5366"/><path d="M212.3633,82.5366 L212.3633,79.5366 L218.3633,82.5366 L212.3633,85.5366 L212.3633,82.5366" fill="#FFFFFF"/><path d="M330.8887,70.5366 C330.8887,79.5366 327.8887,82.5366 318.8887,82.5366" fill="none" style="stroke:#FFFFFF;stroke-width:1.5;"/><rect fill="none" height="27.0146" style="stroke:#FFFFFF;stroke-width:0.5;" width="16.3574" x="59" y="106.0439"/><text fill="#FFFFFF" font-family="Verdana" font-size="14" lengthAdjust="spacing" textLength="6.3574" x="64" y="125.1191">/</text><line style="stroke:#FFFFFF;stroke-width:1.5;" x1="75.3574" x2="318.8887" y1="119.5513" y2="119.5513"/><path d="M195.123,119.5513 L195.123,116.5513 L201.123,119.5513 L195.123,122.5513 L195.123,119.5513" fill="#FFFFFF"/><path d="M47,107.5513 C47,116.5513 50,119.5513 59,119.5513" fill="none" style="stroke:#FFFFFF;stroke-width:1.5;"/><line style="stroke:#FFFFFF;stroke-width:1.5;" x1="47" x2="47" y1="57.522" y2="107.5513"/><path d="M35,45.522 C44,45.522 47,48.522 47,57.522" fill="none" style="stroke:#FFFFFF;stroke-width:1.5;"/><path d="M330.8887,107.5513 C330.8887,116.5513 327.8887,119.5513 318.8887,119.5513" fill="none" style="stroke:#FFFFFF;stroke-width:1.5;"/><line style="stroke:#FFFFFF;stroke-width:1.5;" x1="330.8887" x2="330.8887" y1="57.522" y2="107.5513"/><path d="M330.8887,57.522 C330.8887,48.522 333.8887,45.522 342.8887,45.522" fill="none" style="stroke:#FFFFFF;stroke-width:1.5;"/><ellipse cx="9" cy="45.522" fill="none" rx="4" ry="4" style="stroke:#FFFFFF;stroke-width:2;"/><ellipse cx="372.8887" cy="45.522" fill="#FFFFFF" rx="4" ry="4" style="stroke:#FFFFFF;stroke-width:1;"/><line style="stroke:#FFFFFF;stroke-width:1.5;" x1="13" x2="35" y1="45.522" y2="45.522"/><line style="stroke:#FFFFFF;stroke-width:1.5;" x1="342.8887" x2="368.8887" y1="45.522" y2="45.522"/><path d="M353.8887,45.522 L353.8887,42.522 L359.8887,45.522 L353.8887,48.522 L353.8887,45.522" fill="#FFFFFF"/><text fill="#FFFFFF" font-family="Verdana" font-size="14" font-weight="bold" lengthAdjust="spacing" textLength="90.2959" x="5" y="162.1338">Namespace</text><line style="stroke:#FFFFFF;stroke-width:1.5;" x1="35" x2="35" y1="188.5806" y2="188.5806"/><rect fill="#0B58A8" height="27.0146" rx="5" ry="5" style="stroke:#FFFFFF;stroke-width:1.5;" width="97.5205" x="35" y="175.0732"/><text fill="#FFFFFF" font-family="Verdana" font-size="14" lengthAdjust="spacing" textLength="87.5205" x="40" y="194.1484">SymbolStart</text><line style="stroke:#FFFFFF;stroke-width:1.5;" x1="132.5205" x2="152.5205" y1="188.5806" y2="188.5806"/><line style="stroke:#FFFFFF;stroke-width:1.5;" x1="152.5205" x2="328.1572" y1="188.5806" y2="188.5806"/><path d="M220.7752,188.5806 L220.7752,185.5806 L226.7752,188.5806 L220.7752,191.5806 L220.7752,188.5806" fill="#FFFFFF"/><path d="M152.5205,188.5806 C161.5205,188.5806 164.5205,197.3342 164.5205,206.3342 C164.5205,215.3342 167.5205,224.0879 176.5205,224.0879" fill="none" style="stroke:#FFFFFF;stroke-width:1.5;"/><path d="M304.1572,224.0879 C313.1572,224.0879 316.1572,215.3342 316.1572,206.3342 C316.1572,197.3342 319.1572,188.5806 328.1572,188.5806" fill="none" style="stroke:#FFFFFF;stroke-width:1.5;"/><path d="M184.5205,216.0879 C184.5205,222.0879 186.5205,224.0879 192.5205,224.0879" fill="none" style="stroke:#FFFFFF;stroke-width:1.5;"/><line style="stroke:#FFFFFF;stroke-width:1.5;" x1="184.5205" x2="184.5205" y1="211.5806" y2="216.0879"/><path d="M184.5205,211.5806 C184.5205,205.5806 186.5205,203.5806 192.5205,203.5806" fill="none" style="stroke:#FFFFFF;stroke-width:1.5;"/><line style="stroke:#FFFFFF;stroke-width:1.5;" x1="191.5205" x2="289.1572" y1="203.5806" y2="203.5806"/><path d="M248.1025,203.5806 L248.1025,200.5806 L242.1025,203.5806 L248.1025,206.5806 L248.1025,203.5806" fill="#FFFFFF"/><path d="M296.1572,216.0879 C296.1572,222.0879 294.1572,224.0879 288.1572,224.0879" fill="none" style="stroke:#FFFFFF;stroke-width:1.5;"/><line style="stroke:#FFFFFF;stroke-width:1.5;" x1="296.1572" x2="296.1572" y1="211.5806" y2="216.0879"/><path d="M288.1572,203.5806 C294.1572,203.5806 296.1572,205.5806 296.1572,211.5806" fill="none" style="stroke:#FFFFFF;stroke-width:1.5;"/><line style="stroke:#FFFFFF;stroke-width:1.5;" x1="176.5205" x2="191.5205" y1="224.0879" y2="224.0879"/><line style="stroke:#FFFFFF;stroke-width:1.5;" x1="289.1572" x2="304.1572" y1="224.0879" y2="224.0879"/><rect fill="#0B58A8" height="27.0146" rx="5" ry="5" style="stroke:#FFFFFF;stroke-width:1.5;" width="97.6367" x="191.5205" y="210.5806"/><text fill="#FFFFFF" font-family="Verdana" font-size="14" lengthAdjust="spacing" textLength="87.6367" x="196.5205" y="229.6558">SymbolBody</text><ellipse cx="9" cy="188.5806" fill="none" rx="4" ry="4" style="stroke:#FFFFFF;stroke-width:2;"/><ellipse cx="358.1572" cy="188.5806" fill="#FFFFFF" rx="4" ry="4" style="stroke:#FFFFFF;stroke-width:1;"/><line style="stroke:#FFFFFF;stroke-width:1.5;" x1="13" x2="35" y1="188.5806" y2="188.5806"/><line style="stroke:#FFFFFF;stroke-width:1.5;" x1="328.1572" x2="354.1572" y1="188.5806" y2="188.5806"/><path d="M339.1572,188.5806 L339.1572,185.5806 L345.1572,188.5806 L339.1572,191.5806 L339.1572,188.5806" fill="#FFFFFF"/><text fill="#FFFFFF" font-family="Verdana" font-size="14" font-weight="bold" lengthAdjust="spacing" textLength="45.3154" x="5" y="266.6704">Name</text><line style="stroke:#FFFFFF;stroke-width:1.5;" x1="35" x2="35" y1="293.1172" y2="293.1172"/><rect fill="#0B58A8" height="27.0146" rx="5" ry="5" style="stroke:#FFFFFF;stroke-width:1.5;" width="97.5205" x="35" y="279.6099"/><text fill="#FFFFFF" font-family="Verdana" font-size="14" lengthAdjust="spacing" textLength="87.5205" x="40" y="298.6851">SymbolStart</text><line style="stroke:#FFFFFF;stroke-width:1.5;" x1="132.5205" x2="152.5205" y1="293.1172" y2="293.1172"/><line style="stroke:#FFFFFF;stroke-width:1.5;" x1="152.5205" x2="328.1572" y1="293.1172" y2="293.1172"/><path d="M220.7752,293.1172 L220.7752,290.1172 L226.7752,293.1172 L220.7752,296.1172 L220.7752,293.1172" fill="#FFFFFF"/><path d="M152.5205,293.1172 C161.5205,293.1172 164.5205,301.8708 164.5205,310.8708 C164.5205,319.8708 167.5205,328.6245 176.5205,328.6245" fill="none" style="stroke:#FFFFFF;stroke-width:1.5;"/><path d="M304.1572,328.6245 C313.1572,328.6245 316.1572,319.8708 316.1572,310.8708 C316.1572,301.8708 319.1572,293.1172 328.1572,293.1172" fill="none" style="stroke:#FFFFFF;stroke-width:1.5;"/><path d="M184.5205,320.6245 C184.5205,326.6245 186.5205,328.6245 192.5205,328.6245" fill="none" style="stroke:#FFFFFF;stroke-width:1.5;"/><line style="stroke:#FFFFFF;stroke-width:1.5;" x1="184.5205" x2="184.5205" y1="316.1172" y2="320.6245"/><path d="M184.5205,316.1172 C184.5205,310.1172 186.5205,308.1172 192.5205,308.1172" fill="none" style="stroke:#FFFFFF;stroke-width:1.5;"/><line style="stroke:#FFFFFF;stroke-width:1.5;" x1="191.5205" x2="289.1572" y1="308.1172" y2="308.1172"/><path d="M248.1025,308.1172 L248.1025,305.1172 L242.1025,308.1172 L248.1025,311.1172 L248.1025,308.1172" fill="#FFFFFF"/><path d="M296.1572,320.6245 C296.1572,326.6245 294.1572,328.6245 288.1572,328.6245" fill="none" style="stroke:#FFFFFF;stroke-width:1.5;"/><line style="stroke:#FFFFFF;stroke-width:1.5;" x1="296.1572" x2="296.1572" y1="316.1172" y2="320.6245"/><path d="M288.1572,308.1172 C294.1572,308.1172 296.1572,310.1172 296.1572,316.1172" fill="none" style="stroke:#FFFFFF;stroke-width:1.5;"/><line style="stroke:#FFFFFF;stroke-width:1.5;" x1="176.5205" x2="191.5205" y1="328.6245" y2="328.6245"/><line style="stroke:#FFFFFF;stroke-width:1.5;" x1="289.1572" x2="304.1572" y1="328.6245" y2="328.6245"/><rect fill="#0B58A8" height="27.0146" rx="5" ry="5" style="stroke:#FFFFFF;stroke-width:1.5;" width="97.6367" x="191.5205" y="315.1172"/><text fill="#FFFFFF" font-family="Verdana" font-size="14" lengthAdjust="spacing" textLength="87.6367" x="196.5205" y="334.1924">SymbolBody</text><ellipse cx="9" cy="293.1172" fill="none" rx="4" ry="4" style="stroke:#FFFFFF;stroke-width:2;"/><ellipse cx="358.1572" cy="293.1172" fill="#FFFFFF" rx="4" ry="4" style="stroke:#FFFFFF;stroke-width:1;"/><line style="stroke:#FFFFFF;stroke-width:1.5;" x1="13" x2="35" y1="293.1172" y2="293.1172"/><line style="stroke:#FFFFFF;stroke-width:1.5;" x1="328.1572" x2="354.1572" y1="293.1172" y2="293.1172"/><path d="M339.1572,293.1172 L339.1572,290.1172 L345.1572,293.1172 L339.1572,296.1172 L339.1572,293.1172" fill="#FFFFFF"/><text fill="#FFFFFF" font-family="Verdana" font-size="14" font-weight="bold" lengthAdjust="spacing" textLength="115.8965" x="5" y="371.207">QualifiedName</text><line style="stroke:#FFFFFF;stroke-width:1.5;" x1="35" x2="210.5205" y1="394.1465" y2="394.1465"/><path d="M103.2082,394.1465 L103.2082,391.1465 L109.2082,394.1465 L103.2082,397.1465 L103.2082,394.1465" fill="#FFFFFF"/><path d="M35,394.1465 C44,394.1465 47,402.9001 47,411.9001 C47,420.9001 50,429.6538 59,429.6538" fill="none" style="stroke:#FFFFFF;stroke-width:1.5;"/><path d="M186.5205,429.6538 C195.5205,429.6538 198.5205,420.9001 198.5205,411.9001 C198.5205,402.9001 201.5205,394.1465 210.5205,394.1465" fill="none" style="stroke:#FFFFFF;stroke-width:1.5;"/><path d="M67,421.6538 C67,427.6538 69,429.6538 75,429.6538" fill="none" style="stroke:#FFFFFF;stroke-width:1.5;"/><line style="stroke:#FFFFFF;stroke-width:1.5;" x1="67" x2="67" y1="417.1465" y2="421.6538"/><path d="M67,417.1465 C67,411.1465 69,409.1465 75,409.1465" fill="none" style="stroke:#FFFFFF;stroke-width:1.5;"/><line style="stroke:#FFFFFF;stroke-width:1.5;" x1="74" x2="171.5205" y1="409.1465" y2="409.1465"/><path d="M130.5123,409.1465 L130.5123,406.1465 L124.5123,409.1465 L130.5123,412.1465 L130.5123,409.1465" fill="#FFFFFF"/><path d="M178.5205,421.6538 C178.5205,427.6538 176.5205,429.6538 170.5205,429.6538" fill="none" style="stroke:#FFFFFF;stroke-width:1.5;"/><line style="stroke:#FFFFFF;stroke-width:1.5;" x1="178.5205" x2="178.5205" y1="417.1465" y2="421.6538"/><path d="M170.5205,409.1465 C176.5205,409.1465 178.5205,411.1465 178.5205,417.1465" fill="none" style="stroke:#FFFFFF;stroke-width:1.5;"/><line style="stroke:#FFFFFF;stroke-width:1.5;" x1="59" x2="74" y1="429.6538" y2="429.6538"/><line style="stroke:#FFFFFF;stroke-width:1.5;" x1="171.5205" x2="186.5205" y1="429.6538" y2="429.6538"/><rect fill="#0B58A8" height="27.0146" rx="5" ry="5" style="stroke:#FFFFFF;stroke-width:1.5;" width="97.5205" x="74" y="416.1465"/><text fill="#FFFFFF" font-family="Verdana" font-size="14" lengthAdjust="spacing" textLength="87.5205" x="79" y="435.2217">SymbolStart</text><ellipse cx="9" cy="394.1465" fill="none" rx="4" ry="4" style="stroke:#FFFFFF;stroke-width:2;"/><ellipse cx="240.5205" cy="394.1465" fill="#FFFFFF" rx="4" ry="4" style="stroke:#FFFFFF;stroke-width:1;"/><line style="stroke:#FFFFFF;stroke-width:1.5;" x1="13" x2="35" y1="394.1465" y2="394.1465"/><line style="stroke:#FFFFFF;stroke-width:1.5;" x1="210.5205" x2="236.5205" y1="394.1465" y2="394.1465"/><path d="M221.5205,394.1465 L221.5205,391.1465 L227.5205,394.1465 L221.5205,397.1465 L221.5205,394.1465" fill="#FFFFFF"/><text fill="#FFFFFF" font-family="Verdana" font-size="14" font-weight="bold" lengthAdjust="spacing" textLength="97.0703" x="5" y="472.2363">SymbolStart</text><line style="stroke:#FFFFFF;stroke-width:1.5;" x1="59" x2="59" y1="498.6831" y2="498.6831"/><rect fill="#0B58A8" height="27.0146" rx="5" ry="5" style="stroke:#FFFFFF;stroke-width:1.5;" width="143.4102" x="59" y="485.1758"/><text fill="#FFFFFF" font-family="Verdana" font-size="14" lengthAdjust="spacing" textLength="133.4102" x="64" y="504.251">SymbolConstituent</text><line style="stroke:#FFFFFF;stroke-width:1.5;" x1="202.4102" x2="222.4102" y1="498.6831" y2="498.6831"/><text fill="#FFFFFF" font-family="Verdana" font-size="14" lengthAdjust="spacing" textLength="30.1191" x="225.4102" y="502.6226">NOT</text><rect fill="none" height="27.0146" style="stroke:#FFFFFF;stroke-width:1;stroke-dasharray:5,5;" width="111.541" x="284.5293" y="485.1758"/><text fill="#FFFFFF" font-family="Verdana" font-size="14" lengthAdjust="spacing" textLength="91.6973" x="294.4512" y="504.251">Decimal digit</text><line style="stroke:#FFFFFF;stroke-width:1.5;" x1="260.5293" x2="284.5293" y1="498.6831" y2="498.6831"/><line style="stroke:#FFFFFF;stroke-width:1.5;" x1="396.0703" x2="420.0703" y1="498.6831" y2="498.6831"/><rect fill="none" height="27.0146" style="stroke:#FFFFFF;stroke-width:0.5;" width="16.3574" x="284.5293" y="522.1904"/><text fill="#FFFFFF" font-family="Verdana" font-size="14" lengthAdjust="spacing" textLength="6.3574" x="289.5293" y="541.2656">-</text><path d="M272.5293,523.6978 C272.5293,532.6978 275.5293,535.6978 284.5293,535.6978" fill="none" style="stroke:#FFFFFF;stroke-width:1.5;"/><line style="stroke:#FFFFFF;stroke-width:1.5;" x1="300.8867" x2="396.0703" y1="535.6978" y2="535.6978"/><path d="M346.4785,535.6978 L346.4785,532.6978 L352.4785,535.6978 L346.4785,538.6978 L346.4785,535.6978" fill="#FFFFFF"/><path d="M408.0703,523.6978 C408.0703,532.6978 405.0703,535.6978 396.0703,535.6978" fill="none" style="stroke:#FFFFFF;stroke-width:1.5;"/><rect fill="none" height="27.0146" style="stroke:#FFFFFF;stroke-width:0.5;" width="21.457" x="284.5293" y="559.2051"/><text fill="#FFFFFF" font-family="Verdana" font-size="14" lengthAdjust="spacing" textLength="11.457" x="289.5293" y="578.2803">+</text><path d="M272.5293,560.7124 C272.5293,569.7124 275.5293,572.7124 284.5293,572.7124" fill="none" style="stroke:#FFFFFF;stroke-width:1.5;"/><line style="stroke:#FFFFFF;stroke-width:1.5;" x1="305.9863" x2="396.0703" y1="572.7124" y2="572.7124"/><path d="M349.0283,572.7124 L349.0283,569.7124 L355.0283,572.7124 L349.0283,575.7124 L349.0283,572.7124" fill="#FFFFFF"/><path d="M408.0703,560.7124 C408.0703,569.7124 405.0703,572.7124 396.0703,572.7124" fill="none" style="stroke:#FFFFFF;stroke-width:1.5;"/><rect fill="none" height="27.0146" style="stroke:#FFFFFF;stroke-width:0.5;" width="15.0928" x="284.5293" y="596.2197"/><text fill="#FFFFFF" font-family="Verdana" font-size="14" lengthAdjust="spacing" textLength="5.0928" x="289.5293" y="615.2949">.</text><line style="stroke:#FFFFFF;stroke-width:1.5;" x1="299.6221" x2="396.0703" y1="609.7271" y2="609.7271"/><path d="M345.8462,609.7271 L345.8462,606.7271 L351.8462,609.7271 L345.8462,612.7271 L345.8462,609.7271" fill="#FFFFFF"/><path d="M272.5293,597.7271 C272.5293,606.7271 275.5293,609.7271 284.5293,609.7271" fill="none" style="stroke:#FFFFFF;stroke-width:1.5;"/><line style="stroke:#FFFFFF;stroke-width:1.5;" x1="272.5293" x2="272.5293" y1="510.6831" y2="597.7271"/><path d="M260.5293,498.6831 C269.5293,498.6831 272.5293,501.6831 272.5293,510.6831" fill="none" style="stroke:#FFFFFF;stroke-width:1.5;"/><path d="M408.0703,597.7271 C408.0703,606.7271 405.0703,609.7271 396.0703,609.7271" fill="none" style="stroke:#FFFFFF;stroke-width:1.5;"/><line style="stroke:#FFFFFF;stroke-width:1.5;" x1="408.0703" x2="408.0703" y1="510.6831" y2="597.7271"/><path d="M408.0703,510.6831 C408.0703,501.6831 411.0703,498.6831 420.0703,498.6831" fill="none" style="stroke:#FFFFFF;stroke-width:1.5;"/><line style="stroke:#FFFFFF;stroke-width:1.5;" x1="35" x2="59" y1="498.6831" y2="498.6831"/><line style="stroke:#FFFFFF;stroke-width:1.5;" x1="420.0703" x2="485.5273" y1="498.6831" y2="498.6831"/><line style="stroke:#FFFFFF;stroke-width:1.5;" x1="59" x2="59" y1="646.7417" y2="646.7417"/><rect fill="none" height="27.0146" style="stroke:#FFFFFF;stroke-width:0.5;" width="16.3574" x="83" y="633.2344"/><text fill="#FFFFFF" font-family="Verdana" font-size="14" lengthAdjust="spacing" textLength="6.3574" x="88" y="652.3096">-</text><line style="stroke:#FFFFFF;stroke-width:1.5;" x1="59" x2="83" y1="646.7417" y2="646.7417"/><line style="stroke:#FFFFFF;stroke-width:1.5;" x1="99.3574" x2="128.457" y1="646.7417" y2="646.7417"/><rect fill="none" height="27.0146" style="stroke:#FFFFFF;stroke-width:0.5;" width="21.457" x="83" y="670.249"/><text fill="#FFFFFF" font-family="Verdana" font-size="14" lengthAdjust="spacing" textLength="11.457" x="88" y="689.3242">+</text><path d="M71,671.7563 C71,680.7563 74,683.7563 83,683.7563" fill="none" style="stroke:#FFFFFF;stroke-width:1.5;"/><line style="stroke:#FFFFFF;stroke-width:1.5;" x1="104.457" x2="104.457" y1="683.7563" y2="683.7563"/><path d="M116.457,671.7563 C116.457,680.7563 113.457,683.7563 104.457,683.7563" fill="none" style="stroke:#FFFFFF;stroke-width:1.5;"/><rect fill="none" height="27.0146" style="stroke:#FFFFFF;stroke-width:0.5;" width="15.0928" x="83" y="707.2637"/><text fill="#FFFFFF" font-family="Verdana" font-size="14" lengthAdjust="spacing" textLength="5.0928" x="88" y="726.3389">.</text><line style="stroke:#FFFFFF;stroke-width:1.5;" x1="98.0928" x2="104.457" y1="720.771" y2="720.771"/><path d="M71,708.771 C71,717.771 74,720.771 83,720.771" fill="none" style="stroke:#FFFFFF;stroke-width:1.5;"/><line style="stroke:#FFFFFF;stroke-width:1.5;" x1="71" x2="71" y1="658.7417" y2="708.771"/><path d="M59,646.7417 C68,646.7417 71,649.7417 71,658.7417" fill="none" style="stroke:#FFFFFF;stroke-width:1.5;"/><path d="M116.457,708.771 C116.457,717.771 113.457,720.771 104.457,720.771" fill="none" style="stroke:#FFFFFF;stroke-width:1.5;"/><line style="stroke:#FFFFFF;stroke-width:1.5;" x1="116.457" x2="116.457" y1="658.7417" y2="708.771"/><path d="M116.457,658.7417 C116.457,649.7417 119.457,646.7417 128.457,646.7417" fill="none" style="stroke:#FFFFFF;stroke-width:1.5;"/><line style="stroke:#FFFFFF;stroke-width:1.5;" x1="128.457" x2="148.457" y1="646.7417" y2="646.7417"/><rect fill="#0B58A8" height="27.0146" rx="5" ry="5" style="stroke:#FFFFFF;stroke-width:1.5;" width="143.4102" x="148.457" y="633.2344"/><text fill="#FFFFFF" font-family="Verdana" font-size="14" lengthAdjust="spacing" textLength="133.4102" x="153.457" y="652.3096">SymbolConstituent</text><line style="stroke:#FFFFFF;stroke-width:1.5;" x1="291.8672" x2="311.8672" y1="646.7417" y2="646.7417"/><text fill="#FFFFFF" font-family="Verdana" font-size="14" lengthAdjust="spacing" textLength="30.1191" x="314.8672" y="650.6812">NOT</text><rect fill="none" height="27.0146" style="stroke:#FFFFFF;stroke-width:1;stroke-dasharray:5,5;" width="111.541" x="349.9863" y="633.2344"/><text fill="#FFFFFF" font-family="Verdana" font-size="14" lengthAdjust="spacing" textLength="91.6973" x="359.9082" y="652.3096">Decimal digit</text><line style="stroke:#FFFFFF;stroke-width:1.5;" x1="461.5273" x2="461.5273" y1="646.7417" y2="646.7417"/><path d="M47,634.7417 C47,643.7417 50,646.7417 59,646.7417" fill="none" style="stroke:#FFFFFF;stroke-width:1.5;"/><line style="stroke:#FFFFFF;stroke-width:1.5;" x1="47" x2="47" y1="510.6831" y2="634.7417"/><path d="M35,498.6831 C44,498.6831 47,501.6831 47,510.6831" fill="none" style="stroke:#FFFFFF;stroke-width:1.5;"/><path d="M473.5273,634.7417 C473.5273,643.7417 470.5273,646.7417 461.5273,646.7417" fill="none" style="stroke:#FFFFFF;stroke-width:1.5;"/><line style="stroke:#FFFFFF;stroke-width:1.5;" x1="473.5273" x2="473.5273" y1="510.6831" y2="634.7417"/><path d="M473.5273,510.6831 C473.5273,501.6831 476.5273,498.6831 485.5273,498.6831" fill="none" style="stroke:#FFFFFF;stroke-width:1.5;"/><ellipse cx="9" cy="498.6831" fill="none" rx="4" ry="4" style="stroke:#FFFFFF;stroke-width:2;"/><ellipse cx="515.5273" cy="498.6831" fill="#FFFFFF" rx="4" ry="4" style="stroke:#FFFFFF;stroke-width:1;"/><line style="stroke:#FFFFFF;stroke-width:1.5;" x1="13" x2="35" y1="498.6831" y2="498.6831"/><line style="stroke:#FFFFFF;stroke-width:1.5;" x1="485.5273" x2="511.5273" y1="498.6831" y2="498.6831"/><path d="M496.5273,498.6831 L496.5273,495.6831 L502.5273,498.6831 L496.5273,501.6831 L496.5273,498.6831" fill="#FFFFFF"/><text fill="#FFFFFF" font-family="Verdana" font-size="14" font-weight="bold" lengthAdjust="spacing" textLength="97.2344" x="5" y="763.3535">SymbolBody</text><rect fill="#0B58A8" height="27.0146" rx="5" ry="5" style="stroke:#FFFFFF;stroke-width:1.5;" width="143.4102" x="59" y="776.293"/><text fill="#FFFFFF" font-family="Verdana" font-size="14" lengthAdjust="spacing" textLength="133.4102" x="64" y="795.3682">SymbolConstituent</text><line style="stroke:#FFFFFF;stroke-width:1.5;" x1="35" x2="59" y1="789.8003" y2="789.8003"/><line style="stroke:#FFFFFF;stroke-width:1.5;" x1="202.4102" x2="226.4102" y1="789.8003" y2="789.8003"/><rect fill="none" height="27.0146" style="stroke:#FFFFFF;stroke-width:1;stroke-dasharray:5,5;" width="111.541" x="59" y="813.3076"/><text fill="#FFFFFF" font-family="Verdana" font-size="14" lengthAdjust="spacing" textLength="91.6973" x="68.9219" y="832.3828">Decimal digit</text><path d="M47,814.8149 C47,823.8149 50,826.8149 59,826.8149" fill="none" style="stroke:#FFFFFF;stroke-width:1.5;"/><line style="stroke:#FFFFFF;stroke-width:1.5;" x1="170.541" x2="202.4102" y1="826.8149" y2="826.8149"/><path d="M184.4756,826.8149 L184.4756,823.8149 L190.4756,826.8149 L184.4756,829.8149 L184.4756,826.8149" fill="#FFFFFF"/><path d="M214.4102,814.8149 C214.4102,823.8149 211.4102,826.8149 202.4102,826.8149" fill="none" style="stroke:#FFFFFF;stroke-width:1.5;"/><rect fill="none" height="27.0146" style="stroke:#FFFFFF;stroke-width:0.5;" width="21.457" x="59" y="850.3223"/><text fill="#FFFFFF" font-family="Verdana" font-size="14" lengthAdjust="spacing" textLength="11.457" x="64" y="869.3975">#</text><path d="M47,851.8296 C47,860.8296 50,863.8296 59,863.8296" fill="none" style="stroke:#FFFFFF;stroke-width:1.5;"/><line style="stroke:#FFFFFF;stroke-width:1.5;" x1="80.457" x2="202.4102" y1="863.8296" y2="863.8296"/><path d="M139.4336,863.8296 L139.4336,860.8296 L145.4336,863.8296 L139.4336,866.8296 L139.4336,863.8296" fill="#FFFFFF"/><path d="M214.4102,851.8296 C214.4102,860.8296 211.4102,863.8296 202.4102,863.8296" fill="none" style="stroke:#FFFFFF;stroke-width:1.5;"/><rect fill="none" height="27.0146" style="stroke:#FFFFFF;stroke-width:0.5;" width="16.3574" x="59" y="887.3369"/><text fill="#FFFFFF" font-family="Verdana" font-size="14" lengthAdjust="spacing" textLength="6.3574" x="64" y="906.4121">:</text><line style="stroke:#FFFFFF;stroke-width:1.5;" x1="75.3574" x2="202.4102" y1="900.8442" y2="900.8442"/><path d="M136.8838,900.8442 L136.8838,897.8442 L142.8838,900.8442 L136.8838,903.8442 L136.8838,900.8442" fill="#FFFFFF"/><path d="M47,888.8442 C47,897.8442 50,900.8442 59,900.8442" fill="none" style="stroke:#FFFFFF;stroke-width:1.5;"/><line style="stroke:#FFFFFF;stroke-width:1.5;" x1="47" x2="47" y1="801.8003" y2="888.8442"/><path d="M35,789.8003 C44,789.8003 47,792.8003 47,801.8003" fill="none" style="stroke:#FFFFFF;stroke-width:1.5;"/><path d="M214.4102,888.8442 C214.4102,897.8442 211.4102,900.8442 202.4102,900.8442" fill="none" style="stroke:#FFFFFF;stroke-width:1.5;"/><line style="stroke:#FFFFFF;stroke-width:1.5;" x1="214.4102" x2="214.4102" y1="801.8003" y2="888.8442"/><path d="M214.4102,801.8003 C214.4102,792.8003 217.4102,789.8003 226.4102,789.8003" fill="none" style="stroke:#FFFFFF;stroke-width:1.5;"/><ellipse cx="9" cy="789.8003" fill="none" rx="4" ry="4" style="stroke:#FFFFFF;stroke-width:2;"/><ellipse cx="256.4102" cy="789.8003" fill="#FFFFFF" rx="4" ry="4" style="stroke:#FFFFFF;stroke-width:1;"/><line style="stroke:#FFFFFF;stroke-width:1.5;" x1="13" x2="35" y1="789.8003" y2="789.8003"/><line style="stroke:#FFFFFF;stroke-width:1.5;" x1="226.4102" x2="252.4102" y1="789.8003" y2="789.8003"/><path d="M237.4102,789.8003 L237.4102,786.8003 L243.4102,789.8003 L237.4102,792.8003 L237.4102,789.8003" fill="#FFFFFF"/><text fill="#FFFFFF" font-family="Verdana" font-size="14" font-weight="bold" lengthAdjust="spacing" textLength="149.2422" x="5" y="943.4268">SymbolConstituent</text><rect fill="none" height="27.0146" style="stroke:#FFFFFF;stroke-width:1;stroke-dasharray:5,5;" width="116.0322" x="59" y="956.3662"/><text fill="#FFFFFF" font-family="Verdana" font-size="14" lengthAdjust="spacing" textLength="96.1885" x="68.9219" y="975.4414">Alphanumeric</text><line style="stroke:#FFFFFF;stroke-width:1.5;" x1="35" x2="59" y1="969.8735" y2="969.8735"/><line style="stroke:#FFFFFF;stroke-width:1.5;" x1="175.0322" x2="199.0322" y1="969.8735" y2="969.8735"/><rect fill="none" height="27.0146" style="stroke:#FFFFFF;stroke-width:0.5;" width="15.0928" x="59" y="993.3809"/><text fill="#FFFFFF" font-family="Verdana" font-size="14" lengthAdjust="spacing" textLength="5.0928" x="64" y="1012.4561">.</text><path d="M47,994.8882 C47,1003.8882 50,1006.8882 59,1006.8882" fill="none" style="stroke:#FFFFFF;stroke-width:1.5;"/><line style="stroke:#FFFFFF;stroke-width:1.5;" x1="74.0928" x2="175.0322" y1="1006.8882" y2="1006.8882"/><path d="M122.5625,1006.8882 L122.5625,1003.8882 L128.5625,1006.8882 L122.5625,1009.8882 L122.5625,1006.8882" fill="#FFFFFF"/><path d="M187.0322,994.8882 C187.0322,1003.8882 184.0322,1006.8882 175.0322,1006.8882" fill="none" style="stroke:#FFFFFF;stroke-width:1.5;"/><rect fill="none" height="27.0146" style="stroke:#FFFFFF;stroke-width:0.5;" width="18.9004" x="59" y="1030.3955"/><text fill="#FFFFFF" font-family="Verdana" font-size="14" lengthAdjust="spacing" textLength="8.9004" x="64" y="1049.4707">*</text><path d="M47,1031.9028 C47,1040.9028 50,1043.9028 59,1043.9028" fill="none" style="stroke:#FFFFFF;stroke-width:1.5;"/><line style="stroke:#FFFFFF;stroke-width:1.5;" x1="77.9004" x2="175.0322" y1="1043.9028" y2="1043.9028"/><path d="M124.4663,1043.9028 L124.4663,1040.9028 L130.4663,1043.9028 L124.4663,1046.9028 L124.4663,1043.9028" fill="#FFFFFF"/><path d="M187.0322,1031.9028 C187.0322,1040.9028 184.0322,1043.9028 175.0322,1043.9028" fill="none" style="stroke:#FFFFFF;stroke-width:1.5;"/><rect fill="none" height="27.0146" style="stroke:#FFFFFF;stroke-width:0.5;" width="21.457" x="59" y="1067.4102"/><text fill="#FFFFFF" font-family="Verdana" font-size="14" lengthAdjust="spacing" textLength="11.457" x="64" y="1086.4854">+</text><path d="M47,1068.9175 C47,1077.9175 50,1080.9175 59,1080.9175" fill="none" style="stroke:#FFFFFF;stroke-width:1.5;"/><line style="stroke:#FFFFFF;stroke-width:1.5;" x1="80.457" x2="175.0322" y1="1080.9175" y2="1080.9175"/><path d="M125.7446,1080.9175 L125.7446,1077.9175 L131.7446,1080.9175 L125.7446,1083.9175 L125.7446,1080.9175" fill="#FFFFFF"/><path d="M187.0322,1068.9175 C187.0322,1077.9175 184.0322,1080.9175 175.0322,1080.9175" fill="none" style="stroke:#FFFFFF;stroke-width:1.5;"/><rect fill="none" height="27.0146" style="stroke:#FFFFFF;stroke-width:0.5;" width="15.5098" x="59" y="1104.4248"/><text fill="#FFFFFF" font-family="Verdana" font-size="14" lengthAdjust="spacing" textLength="5.5098" x="64" y="1123.5">!</text><path d="M47,1105.9321 C47,1114.9321 50,1117.9321 59,1117.9321" fill="none" style="stroke:#FFFFFF;stroke-width:1.5;"/><line style="stroke:#FFFFFF;stroke-width:1.5;" x1="74.5098" x2="175.0322" y1="1117.9321" y2="1117.9321"/><path d="M122.771,1117.9321 L122.771,1114.9321 L128.771,1117.9321 L122.771,1120.9321 L122.771,1117.9321" fill="#FFFFFF"/><path d="M187.0322,1105.9321 C187.0322,1114.9321 184.0322,1117.9321 175.0322,1117.9321" fill="none" style="stroke:#FFFFFF;stroke-width:1.5;"/><rect fill="none" height="27.0146" style="stroke:#FFFFFF;stroke-width:0.5;" width="16.3574" x="59" y="1141.4395"/><text fill="#FFFFFF" font-family="Verdana" font-size="14" lengthAdjust="spacing" textLength="6.3574" x="64" y="1160.5146">-</text><path d="M47,1142.9468 C47,1151.9468 50,1154.9468 59,1154.9468" fill="none" style="stroke:#FFFFFF;stroke-width:1.5;"/><line style="stroke:#FFFFFF;stroke-width:1.5;" x1="75.3574" x2="175.0322" y1="1154.9468" y2="1154.9468"/><path d="M123.1948,1154.9468 L123.1948,1151.9468 L129.1948,1154.9468 L123.1948,1157.9468 L123.1948,1154.9468" fill="#FFFFFF"/><path d="M187.0322,1142.9468 C187.0322,1151.9468 184.0322,1154.9468 175.0322,1154.9468" fill="none" style="stroke:#FFFFFF;stroke-width:1.5;"/><rect fill="none" height="27.0146" style="stroke:#FFFFFF;stroke-width:0.5;" width="18.9004" x="59" y="1178.4541"/><text fill="#FFFFFF" font-family="Verdana" font-size="14" lengthAdjust="spacing" textLength="8.9004" x="64" y="1197.5293">_</text><path d="M47,1179.9614 C47,1188.9614 50,1191.9614 59,1191.9614" fill="none" style="stroke:#FFFFFF;stroke-width:1.5;"/><line style="stroke:#FFFFFF;stroke-width:1.5;" x1="77.9004" x2="175.0322" y1="1191.9614" y2="1191.9614"/><path d="M124.4663,1191.9614 L124.4663,1188.9614 L130.4663,1191.9614 L124.4663,1194.9614 L124.4663,1191.9614" fill="#FFFFFF"/><path d="M187.0322,1179.9614 C187.0322,1188.9614 184.0322,1191.9614 175.0322,1191.9614" fill="none" style="stroke:#FFFFFF;stroke-width:1.5;"/><rect fill="none" height="27.0146" style="stroke:#FFFFFF;stroke-width:0.5;" width="17.6357" x="59" y="1215.4688"/><text fill="#FFFFFF" font-family="Verdana" font-size="14" lengthAdjust="spacing" textLength="7.6357" x="64" y="1234.5439">?</text><path d="M47,1216.9761 C47,1225.9761 50,1228.9761 59,1228.9761" fill="none" style="stroke:#FFFFFF;stroke-width:1.5;"/><line style="stroke:#FFFFFF;stroke-width:1.5;" x1="76.6357" x2="175.0322" y1="1228.9761" y2="1228.9761"/><path d="M123.834,1228.9761 L123.834,1225.9761 L129.834,1228.9761 L123.834,1231.9761 L123.834,1228.9761" fill="#FFFFFF"/><path d="M187.0322,1216.9761 C187.0322,1225.9761 184.0322,1228.9761 175.0322,1228.9761" fill="none" style="stroke:#FFFFFF;stroke-width:1.5;"/><rect fill="none" height="27.0146" style="stroke:#FFFFFF;stroke-width:0.5;" width="18.9004" x="59" y="1252.4834"/><text fill="#FFFFFF" font-family="Verdana" font-size="14" lengthAdjust="spacing" textLength="8.9004" x="64" y="1271.5586">$</text><path d="M47,1253.9907 C47,1262.9907 50,1265.9907 59,1265.9907" fill="none" style="stroke:#FFFFFF;stroke-width:1.5;"/><line style="stroke:#FFFFFF;stroke-width:1.5;" x1="77.9004" x2="175.0322" y1="1265.9907" y2="1265.9907"/><path d="M124.4663,1265.9907 L124.4663,1262.9907 L130.4663,1265.9907 L124.4663,1268.9907 L124.4663,1265.9907" fill="#FFFFFF"/><path d="M187.0322,1253.9907 C187.0322,1262.9907 184.0322,1265.9907 175.0322,1265.9907" fill="none" style="stroke:#FFFFFF;stroke-width:1.5;"/><rect fill="none" height="27.0146" style="stroke:#FFFFFF;stroke-width:0.5;" width="25.0664" x="59" y="1289.498"/><text fill="#FFFFFF" font-family="Verdana" font-size="14" lengthAdjust="spacing" textLength="15.0664" x="64" y="1308.5732">%</text><path d="M47,1291.0054 C47,1300.0054 50,1303.0054 59,1303.0054" fill="none" style="stroke:#FFFFFF;stroke-width:1.5;"/><line style="stroke:#FFFFFF;stroke-width:1.5;" x1="84.0664" x2="175.0322" y1="1303.0054" y2="1303.0054"/><path d="M127.5493,1303.0054 L127.5493,1300.0054 L133.5493,1303.0054 L127.5493,1306.0054 L127.5493,1303.0054" fill="#FFFFFF"/><path d="M187.0322,1291.0054 C187.0322,1300.0054 184.0322,1303.0054 175.0322,1303.0054" fill="none" style="stroke:#FFFFFF;stroke-width:1.5;"/><rect fill="none" height="27.0146" style="stroke:#FFFFFF;stroke-width:0.5;" width="20.1719" x="59" y="1326.5127"/><text fill="#FFFFFF" font-family="Verdana" font-size="14" lengthAdjust="spacing" textLength="10.1719" x="64" y="1345.5879">&amp;</text><path d="M47,1328.02 C47,1337.02 50,1340.02 59,1340.02" fill="none" style="stroke:#FFFFFF;stroke-width:1.5;"/><line style="stroke:#FFFFFF;stroke-width:1.5;" x1="79.1719" x2="175.0322" y1="1340.02" y2="1340.02"/><path d="M125.1021,1340.02 L125.1021,1337.02 L131.1021,1340.02 L125.1021,1343.02 L125.1021,1340.02" fill="#FFFFFF"/><path d="M187.0322,1328.02 C187.0322,1337.02 184.0322,1340.02 175.0322,1340.02" fill="none" style="stroke:#FFFFFF;stroke-width:1.5;"/><rect fill="none" height="27.0146" style="stroke:#FFFFFF;stroke-width:0.5;" width="21.457" x="59" y="1363.5273"/><text fill="#FFFFFF" font-family="Verdana" font-size="14" lengthAdjust="spacing" textLength="11.457" x="64" y="1382.6025">=</text><path d="M47,1365.0347 C47,1374.0347 50,1377.0347 59,1377.0347" fill="none" style="stroke:#FFFFFF;stroke-width:1.5;"/><line style="stroke:#FFFFFF;stroke-width:1.5;" x1="80.457" x2="175.0322" y1="1377.0347" y2="1377.0347"/><path d="M125.7446,1377.0347 L125.7446,1374.0347 L131.7446,1377.0347 L125.7446,1380.0347 L125.7446,1377.0347" fill="#FFFFFF"/><path d="M187.0322,1365.0347 C187.0322,1374.0347 184.0322,1377.0347 175.0322,1377.0347" fill="none" style="stroke:#FFFFFF;stroke-width:1.5;"/><rect fill="none" height="27.0146" style="stroke:#FFFFFF;stroke-width:0.5;" width="21.457" x="59" y="1400.542"/><text fill="#FFFFFF" font-family="Verdana" font-size="14" lengthAdjust="spacing" textLength="11.457" x="64" y="1419.6172">&lt;</text><path d="M47,1402.0493 C47,1411.0493 50,1414.0493 59,1414.0493" fill="none" style="stroke:#FFFFFF;stroke-width:1.5;"/><line style="stroke:#FFFFFF;stroke-width:1.5;" x1="80.457" x2="175.0322" y1="1414.0493" y2="1414.0493"/><path d="M125.7446,1414.0493 L125.7446,1411.0493 L131.7446,1414.0493 L125.7446,1417.0493 L125.7446,1414.0493" fill="#FFFFFF"/><path d="M187.0322,1402.0493 C187.0322,1411.0493 184.0322,1414.0493 175.0322,1414.0493" fill="none" style="stroke:#FFFFFF;stroke-width:1.5;"/><rect fill="none" height="27.0146" style="stroke:#FFFFFF;stroke-width:0.5;" width="21.457" x="59" y="1437.5566"/><text fill="#FFFFFF" font-family="Verdana" font-size="14" lengthAdjust="spacing" textLength="11.457" x="64" y="1456.6318">&gt;</text><line style="stroke:#FFFFFF;stroke-width:1.5;" x1="80.457" x2="175.0322" y1="1451.064" y2="1451.064"/><path d="M125.7446,1451.064 L125.7446,1448.064 L131.7446,1451.064 L125.7446,1454.064 L125.7446,1451.064" fill="#FFFFFF"/><path d="M47,1439.064 C47,1448.064 50,1451.064 59,1451.064" fill="none" style="stroke:#FFFFFF;stroke-width:1.5;"/><line style="stroke:#FFFFFF;stroke-width:1.5;" x1="47" x2="47" y1="981.8735" y2="1439.064"/><path d="M35,969.8735 C44,969.8735 47,972.8735 47,981.8735" fill="none" style="stroke:#FFFFFF;stroke-width:1.5;"/><path d="M187.0322,1439.064 C187.0322,1448.064 184.0322,1451.064 175.0322,1451.064" fill="none" style="stroke:#FFFFFF;stroke-width:1.5;"/><line style="stroke:#FFFFFF;stroke-width:1.5;" x1="187.0322" x2="187.0322" y1="981.8735" y2="1439.064"/><path d="M187.0322,981.8735 C187.0322,972.8735 190.0322,969.8735 199.0322,969.8735" fill="none" style="stroke:#FFFFFF;stroke-width:1.5;"/><ellipse cx="9" cy="969.8735" fill="none" rx="4" ry="4" style="stroke:#FFFFFF;stroke-width:2;"/><ellipse cx="229.0322" cy="969.8735" fill="#FFFFFF" rx="4" ry="4" style="stroke:#FFFFFF;stroke-width:1;"/><line style="stroke:#FFFFFF;stroke-width:1.5;" x1="13" x2="35" y1="969.8735" y2="969.8735"/><line style="stroke:#FFFFFF;stroke-width:1.5;" x1="199.0322" x2="225.0322" y1="969.8735" y2="969.8735"/><path d="M210.0322,969.8735 L210.0322,966.8735 L216.0322,969.8735 L210.0322,972.8735 L210.0322,969.8735" fill="#FFFFFF"/><!--SRC=[xLTRSzf657xNhpWXRSTkWWF4xZZK9EPYDt71eG6xZvsrT80jqgwwMf5Gb__UiqA0XAJwHj-i6Mb6ttxdszrpsSjfe9dIU2D6rWizGG-1UNpCB6imzswa2msuP1u6FhCHNaFfJOc-luNCvIEEZccoOFdy0-a_G_tPiZRM3LXA3ao7f78R_xUaCuV5YdiFMgfxuj-cB29A4cZ0NaneIn5ehaCK6ig4Ve0EsjnZBZXyp3Nzqx3B9VDz5NqFIh0F-wivnHFRo-6ypkqXgxyUMZIRHjPggw-CmbPxwMLf6wcNDhqaXzCWiQRhJvW8FLJStj9Qsn-Kyl4V2_1N1VYB0hnSWFzHW7yemByhmBylm7yem1i5-4a1_jxuznI54zMCTRgfd-Lp4kYvY-_9M4cfuJPIQJ5xEbOo54vRkbB1oqhhwBXv7BMTIw5Zz3nwrcYKtzUe72PO17wS-wYwN4nN_4xpRUqeQY8Kioe67KwuFHKO152Di1vJOox0c2teTQHD2I5M8xMPhxaKyT-sGYL25z5tHDD3TG_Y19bpBoAbgejhdl70WF-DKAlTOMbUurt_OxAdZC-tl9iVYO697b3jEB6maCvgJ3tsZNkXzpjtz0JULYenG-485GeR_u_k0_IPObhkLFRaJPoaLZ3bmdJWGLCf-RKhNPVxqazhRqX5URnXT734GbTdqZV3w4aXeut1MNFRCbGSLOBRvIDqAUe3JJx0yPoY4KYNEmbAdygFszndGlUPut0nXcebqJx0lq8J72Db4gWb5GMfQ8A32NFaLoCoOcw0YPQh05kesTAJMeMOSfwj-OphUHIauc9lCRKTjRpXvAy96PSkae4ntJ6r743MEatz5h5MtZfAjRQvibrqsXFwirVrdPTOcQW1V64E3mDubnPq6HNh7NxPZHEYhffQAtuJQYnmnNqq1ZHnb9fMsyU9d6-MnWVR9XQHXzkQ_O7gPHgPfpU99E-JBKMVei76c6Akax8WKXaDnMTCFrM3V4MPvZnD9RnnwKppM8bB-TXy-Npp9ur-cTyvMRn8hLGRZ-yeu-c46m_yOSMLrbWbUpDVwJ_NgdobziwKpdQcz6bdIfTFLAAjfCq2N0eE7xZAF5_CdYzcpnUpkozcVPTEX5UzBinG1UP6KpseLMf71zNAtZ14Ml5dK3c4wd6zLgaVleFssH1C-xwrzqk_2m4TQgWq71uiJnCai6zTi1c3Bw7GtCCwVFPHN7H-NG5m9cPSIM7kKjR5TMz3-EcmtA8K6Q2YeS1rpufFm6HXItC4gyFLyBnyR7MP68UqGzG1XKN7Ag7Ll0wTity1]--></g></svg>