<svg xmlns="http://www.w3.org/2000/svg" xmlns:xlink="http://www.w3.org/1999/xlink" contentStyleType="text/css" data-diagram-type="EBNF" height="153px" preserveAspectRatio="none" style="width:747px;height:153px;background:#0B58A8;" version="1.1" viewBox="0 0 747 153" width="747px" zoomAndPan="magnify"><defs/><g><rect fill="#0B58A8" height="153" style="stroke:none;stroke-width:1;" width="747" x="0" y="0"/><text fill="#FFFFFF" font-family="Verdana" font-size="14" font-weight="bold" lengthAdjust="spacing" textLength="59.3359" x="5" y="19.0752">Integer</text><line style="stroke:#FFFFFF;stroke-width:1.5;" x1="35" x2="35" y1="45.522" y2="45.522"/><line style="stroke:#FFFFFF;stroke-width:1.5;" x1="35" x2="152.457" y1="45.522" y2="45.522"/><path d="M79.9828,45.522 L79.9828,42.522 L85.9828,45.522 L79.9828,48.522 L79.9828,45.522" fill="#FFFFFF"/><path d="M35,45.522 C44,45.522 47,48.2756 47,57.2756 C47,66.2756 50,69.0293 59,69.0293" fill="none" style="stroke:#FFFFFF;stroke-width:1.5;"/><path d="M128.457,69.0293 C137.457,69.0293 140.457,66.2756 140.457,57.2756 C140.457,48.2756 143.457,45.522 152.457,45.522" fill="none" style="stroke:#FFFFFF;stroke-width:1.5;"/><rect fill="none" height="27.0146" style="stroke:#FFFFFF;stroke-width:0.5;" width="16.3574" x="83" y="55.522"/><text fill="#FFFFFF" font-family="Verdana" font-size="14" lengthAdjust="spacing" textLength="6.3574" x="88" y="74.5972">-</text><line style="stroke:#FFFFFF;stroke-width:1.5;" x1="59" x2="83" y1="69.0293" y2="69.0293"/><line style="stroke:#FFFFFF;stroke-width:1.5;" x1="99.3574" x2="128.457" y1="69.0293" y2="69.0293"/><rect fill="none" height="27.0146" style="stroke:#FFFFFF;stroke-width:0.5;" width="21.457" x="83" y="92.5366"/><text fill="#FFFFFF" font-family="Verdana" font-size="14" lengthAdjust="spacing" textLength="11.457" x="88" y="111.6118">+</text><line style="stroke:#FFFFFF;stroke-width:1.5;" x1="104.457" x2="104.457" y1="106.0439" y2="106.0439"/><path d="M71,94.0439 C71,103.0439 74,106.0439 83,106.0439" fill="none" style="stroke:#FFFFFF;stroke-width:1.5;"/><line style="stroke:#FFFFFF;stroke-width:1.5;" x1="71" x2="71" y1="81.0293" y2="94.0439"/><path d="M59,69.0293 C68,69.0293 71,72.0293 71,81.0293" fill="none" style="stroke:#FFFFFF;stroke-width:1.5;"/><path d="M116.457,94.0439 C116.457,103.0439 113.457,106.0439 104.457,106.0439" fill="none" style="stroke:#FFFFFF;stroke-width:1.5;"/><line style="stroke:#FFFFFF;stroke-width:1.5;" x1="116.457" x2="116.457" y1="81.0293" y2="94.0439"/><path d="M116.457,81.0293 C116.457,72.0293 119.457,69.0293 128.457,69.0293" fill="none" style="stroke:#FFFFFF;stroke-width:1.5;"/><line style="stroke:#FFFFFF;stroke-width:1.5;" x1="152.457" x2="172.457" y1="45.522" y2="45.522"/><line style="stroke:#FFFFFF;stroke-width:1.5;" x1="196.457" x2="196.457" y1="45.522" y2="45.522"/><rect fill="none" height="27.0146" style="stroke:#FFFFFF;stroke-width:1;stroke-dasharray:5,5;" width="111.541" x="196.457" y="32.0146"/><text fill="#FFFFFF" font-family="Verdana" font-size="14" lengthAdjust="spacing" textLength="91.6973" x="206.3789" y="51.0898">Decimal digit</text><line style="stroke:#FFFFFF;stroke-width:1.5;" x1="307.998" x2="327.998" y1="45.522" y2="45.522"/><text fill="#FFFFFF" font-family="Verdana" font-size="14" lengthAdjust="spacing" textLength="30.1191" x="330.998" y="49.4614">NOT</text><line style="stroke:#FFFFFF;stroke-width:1.5;" x1="366.1172" x2="366.1172" y1="45.522" y2="45.522"/><rect fill="none" height="27.0146" style="stroke:#FFFFFF;stroke-width:0.5;" width="18.9004" x="366.1172" y="32.0146"/><text fill="#FFFFFF" font-family="Verdana" font-size="14" lengthAdjust="spacing" textLength="8.9004" x="371.1172" y="51.0898">0</text><line style="stroke:#FFFFFF;stroke-width:1.5;" x1="385.0176" x2="405.0176" y1="45.522" y2="45.522"/><line style="stroke:#FFFFFF;stroke-width:1.5;" x1="405.0176" x2="594.5586" y1="45.522" y2="45.522"/><path d="M478.834,45.522 L478.834,42.522 L484.834,45.522 L478.834,48.522 L478.834,45.522" fill="#FFFFFF"/><path d="M405.0176,45.522 C414.0176,45.522 417.0176,54.2756 417.0176,63.2756 C417.0176,72.2756 420.0176,81.0293 429.0176,81.0293" fill="none" style="stroke:#FFFFFF;stroke-width:1.5;"/><path d="M570.5586,81.0293 C579.5586,81.0293 582.5586,72.2756 582.5586,63.2756 C582.5586,54.2756 585.5586,45.522 594.5586,45.522" fill="none" style="stroke:#FFFFFF;stroke-width:1.5;"/><path d="M437.0176,73.0293 C437.0176,79.0293 439.0176,81.0293 445.0176,81.0293" fill="none" style="stroke:#FFFFFF;stroke-width:1.5;"/><line style="stroke:#FFFFFF;stroke-width:1.5;" x1="437.0176" x2="437.0176" y1="68.522" y2="73.0293"/><path d="M437.0176,68.522 C437.0176,62.522 439.0176,60.522 445.0176,60.522" fill="none" style="stroke:#FFFFFF;stroke-width:1.5;"/><line style="stroke:#FFFFFF;stroke-width:1.5;" x1="444.0176" x2="555.5586" y1="60.522" y2="60.522"/><path d="M508.9422,60.522 L508.9422,57.522 L502.9422,60.522 L508.9422,63.522 L508.9422,60.522" fill="#FFFFFF"/><path d="M562.5586,73.0293 C562.5586,79.0293 560.5586,81.0293 554.5586,81.0293" fill="none" style="stroke:#FFFFFF;stroke-width:1.5;"/><line style="stroke:#FFFFFF;stroke-width:1.5;" x1="562.5586" x2="562.5586" y1="68.522" y2="73.0293"/><path d="M554.5586,60.522 C560.5586,60.522 562.5586,62.522 562.5586,68.522" fill="none" style="stroke:#FFFFFF;stroke-width:1.5;"/><line style="stroke:#FFFFFF;stroke-width:1.5;" x1="429.0176" x2="444.0176" y1="81.0293" y2="81.0293"/><line style="stroke:#FFFFFF;stroke-width:1.5;" x1="555.5586" x2="570.5586" y1="81.0293" y2="81.0293"/><rect fill="none" height="27.0146" style="stroke:#FFFFFF;stroke-width:1;stroke-dasharray:5,5;" width="111.541" x="444.0176" y="67.522"/><text fill="#FFFFFF" font-family="Verdana" font-size="14" lengthAdjust="spacing" textLength="91.6973" x="453.9395" y="86.5972">Decimal digit</text><line style="stroke:#FFFFFF;stroke-width:1.5;" x1="172.457" x2="196.457" y1="45.522" y2="45.522"/><line style="stroke:#FFFFFF;stroke-width:1.5;" x1="594.5586" x2="618.5586" y1="45.522" y2="45.522"/><rect fill="none" height="27.0146" style="stroke:#FFFFFF;stroke-width:0.5;" width="18.9004" x="196.457" y="104.5366"/><text fill="#FFFFFF" font-family="Verdana" font-size="14" lengthAdjust="spacing" textLength="8.9004" x="201.457" y="123.6118">0</text><line style="stroke:#FFFFFF;stroke-width:1.5;" x1="215.3574" x2="594.5586" y1="118.0439" y2="118.0439"/><path d="M402.958,118.0439 L402.958,115.0439 L408.958,118.0439 L402.958,121.0439 L402.958,118.0439" fill="#FFFFFF"/><path d="M184.457,106.0439 C184.457,115.0439 187.457,118.0439 196.457,118.0439" fill="none" style="stroke:#FFFFFF;stroke-width:1.5;"/><line style="stroke:#FFFFFF;stroke-width:1.5;" x1="184.457" x2="184.457" y1="57.522" y2="106.0439"/><path d="M172.457,45.522 C181.457,45.522 184.457,48.522 184.457,57.522" fill="none" style="stroke:#FFFFFF;stroke-width:1.5;"/><path d="M606.5586,106.0439 C606.5586,115.0439 603.5586,118.0439 594.5586,118.0439" fill="none" style="stroke:#FFFFFF;stroke-width:1.5;"/><line style="stroke:#FFFFFF;stroke-width:1.5;" x1="606.5586" x2="606.5586" y1="57.522" y2="106.0439"/><path d="M606.5586,57.522 C606.5586,48.522 609.5586,45.522 618.5586,45.522" fill="none" style="stroke:#FFFFFF;stroke-width:1.5;"/><line style="stroke:#FFFFFF;stroke-width:1.5;" x1="618.5586" x2="638.5586" y1="45.522" y2="45.522"/><line style="stroke:#FFFFFF;stroke-width:1.5;" x1="638.5586" x2="707.0313" y1="45.522" y2="45.522"/><path d="M663.9477,45.522 L663.9477,42.522 L669.9477,45.522 L663.9477,48.522 L663.9477,45.522" fill="#FFFFFF"/><path d="M638.5586,45.522 C647.5586,45.522 650.5586,48.2756 650.5586,57.2756 C650.5586,66.2756 653.5586,69.0293 662.5586,69.0293" fill="none" style="stroke:#FFFFFF;stroke-width:1.5;"/><path d="M683.0313,69.0293 C692.0313,69.0293 695.0313,66.2756 695.0313,57.2756 C695.0313,48.2756 698.0313,45.522 707.0313,45.522" fill="none" style="stroke:#FFFFFF;stroke-width:1.5;"/><rect fill="none" height="27.0146" style="stroke:#FFFFFF;stroke-width:0.5;" width="20.4727" x="662.5586" y="55.522"/><text fill="#FFFFFF" font-family="Verdana" font-size="14" lengthAdjust="spacing" textLength="10.4727" x="667.5586" y="74.5972">N</text><ellipse cx="9" cy="45.522" fill="none" rx="4" ry="4" style="stroke:#FFFFFF;stroke-width:2;"/><ellipse cx="737.0313" cy="45.522" fill="#FFFFFF" rx="4" ry="4" style="stroke:#FFFFFF;stroke-width:1;"/><line style="stroke:#FFFFFF;stroke-width:1.5;" x1="13" x2="35" y1="45.522" y2="45.522"/><line style="stroke:#FFFFFF;stroke-width:1.5;" x1="707.0313" x2="733.0313" y1="45.522" y2="45.522"/><path d="M718.0313,45.522 L718.0313,42.522 L724.0313,45.522 L718.0313,48.522 L718.0313,45.522" fill="#FFFFFF"/><!--SRC=[lLPTLnen47tVNp6bBtfQBQ3qABMjW5gre1mNxKDF7y9cM5AMP9lDejJotpjPFbUW5gLT3XmsS-TcScSooM5ac3ROb2tdXMbZ5u5rXSySvqmQz573U_WAcQqC_8BCgmnyWzUmGP-FS8IUwB80kF25eVSjo6GpPBrVO1l0flKd-oOXYE_2Chrp3b7oP6hdS1h6y3c8J3_03mw0Lih0FVq1A3ElusiLIrvHWTBmCbikx9Ns4jk9acOqUf8yaz4BHgkwGSsPPCdWQJz4NHMoCyOVbNRoXSH4epZFOaSRRU5r94OHv9An6jE-a63T1lJboekxACUHUYmqGidHsqE6R38wI7vRj3oI-N5W6nd_Aw0H9i09pYhWYfy8-VmZdlPhrGrFPsUQq_o1keipuThiGLC5V4Gi5H_7L6DteXjtlmXksh2JpOuG6bkeKNhuBwQFC6IQ6RLMseCteo9reewGTe8kbBHMjrKL129KOPfx2bfMnrF44RPO79Yvyfr3r9HKKSWyv1DiHSLQe9x1LaKB0ygwQqW3zFkKZKW5Wiz0whJzX2T29asTSIwa3xdiZDt57x5DZgMo1LHMcfAqR85kct5rQqbQB8Xmnd8TOHaD6offT8mfyJmZUiBqaoGjt-nbfXzcRL4uYtl2dAI3sSJOwPWU1Z3ldORU9QYnMeMKjIAq5o2ljEdD6-_lHOKrbpM0AyP57C5-cZ1Wj5aVqMKz8YHJbOpHeXaRN2B5tt2uj71KXhhjqqXEfgrnPT-P9hAwhpqVQBzq4lVq8J6BE_EKh5Csc8yfvAGebsHgZaEB7ZFFvI2jgDBuyrZYPY2y9rDSgAVMosNpEqK_hEy5LJn8TQgfuckgUDUCvLzjSwKvniLUMipqnrwrcAcoDgRZjJ6ThOtfufbCT9HKM8H3miQANUO_ts_h0HsirxKgz517zcAOsyvdyuNjtGsN6JYF9UJt8BTJpEuNymMe7BiDiFPDP-DJlGeHdGqUqdJHi2aJmQPppdeChc9fH1UBS1cYF3_wF1w0OzaJMabx9NNERsfJmDlThJ85xQAcKE2cvemk4kJXANkI5U6wSRArvrIPz6FQQ4L0wT3f98tkaytz3G00]--></g></svg>