<svg xmlns="http://www.w3.org/2000/svg" xmlns:xlink="http://www.w3.org/1999/xlink" contentStyleType="text/css" data-diagram-type="EBNF" height="562px" preserveAspectRatio="none" style="width:253px;height:562px;background:#0B58A8;" version="1.1" viewBox="0 0 253 562" width="253px" zoomAndPan="magnify"><defs/><g><rect fill="#0B58A8" height="562" style="stroke:none;stroke-width:1;" width="253" x="0" y="0"/><text fill="#FFFFFF" font-family="Verdana" font-size="14" font-weight="bold" lengthAdjust="spacing" textLength="93.4336" x="5" y="19.0752">EdnElement</text><rect fill="#0B58A8" height="27.0146" rx="5" ry="5" style="stroke:#FFFFFF;stroke-width:1.5;" width="78.5508" x="59" y="32.0146"/><text fill="#FFFFFF" font-family="Verdana" font-size="14" lengthAdjust="spacing" textLength="68.5508" x="64" y="51.0898">Character</text><line style="stroke:#FFFFFF;stroke-width:1.5;" x1="35" x2="59" y1="45.522" y2="45.522"/><line style="stroke:#FFFFFF;stroke-width:1.5;" x1="137.5508" x2="213.6475" y1="45.522" y2="45.522"/><rect fill="#0B58A8" height="27.0146" rx="5" ry="5" style="stroke:#FFFFFF;stroke-width:1.5;" width="52.4854" x="59" y="69.0293"/><text fill="#FFFFFF" font-family="Verdana" font-size="14" lengthAdjust="spacing" textLength="42.4854" x="64" y="88.1045">String</text><path d="M47,70.5366 C47,79.5366 50,82.5366 59,82.5366" fill="none" style="stroke:#FFFFFF;stroke-width:1.5;"/><line style="stroke:#FFFFFF;stroke-width:1.5;" x1="111.4854" x2="189.6475" y1="82.5366" y2="82.5366"/><path d="M148.5664,82.5366 L148.5664,79.5366 L154.5664,82.5366 L148.5664,85.5366 L148.5664,82.5366" fill="#FFFFFF"/><path d="M201.6475,70.5366 C201.6475,79.5366 198.6475,82.5366 189.6475,82.5366" fill="none" style="stroke:#FFFFFF;stroke-width:1.5;"/><rect fill="#0B58A8" height="27.0146" rx="5" ry="5" style="stroke:#FFFFFF;stroke-width:1.5;" width="44.3096" x="59" y="106.0439"/><text fill="#FFFFFF" font-family="Verdana" font-size="14" lengthAdjust="spacing" textLength="34.3096" x="64" y="125.1191">Float</text><path d="M47,107.5513 C47,116.5513 50,119.5513 59,119.5513" fill="none" style="stroke:#FFFFFF;stroke-width:1.5;"/><line style="stroke:#FFFFFF;stroke-width:1.5;" x1="103.3096" x2="189.6475" y1="119.5513" y2="119.5513"/><path d="M144.4785,119.5513 L144.4785,116.5513 L150.4785,119.5513 L144.4785,122.5513 L144.4785,119.5513" fill="#FFFFFF"/><path d="M201.6475,107.5513 C201.6475,116.5513 198.6475,119.5513 189.6475,119.5513" fill="none" style="stroke:#FFFFFF;stroke-width:1.5;"/><rect fill="#0B58A8" height="27.0146" rx="5" ry="5" style="stroke:#FFFFFF;stroke-width:1.5;" width="61.6455" x="59" y="143.0586"/><text fill="#FFFFFF" font-family="Verdana" font-size="14" lengthAdjust="spacing" textLength="51.6455" x="64" y="162.1338">Integer</text><path d="M47,144.5659 C47,153.5659 50,156.5659 59,156.5659" fill="none" style="stroke:#FFFFFF;stroke-width:1.5;"/><line style="stroke:#FFFFFF;stroke-width:1.5;" x1="120.6455" x2="189.6475" y1="156.5659" y2="156.5659"/><path d="M153.1465,156.5659 L153.1465,153.5659 L159.1465,156.5659 L153.1465,159.5659 L153.1465,156.5659" fill="#FFFFFF"/><path d="M201.6475,144.5659 C201.6475,153.5659 198.6475,156.5659 189.6475,156.5659" fill="none" style="stroke:#FFFFFF;stroke-width:1.5;"/><rect fill="#0B58A8" height="27.0146" rx="5" ry="5" style="stroke:#FFFFFF;stroke-width:1.5;" width="62.5342" x="59" y="180.0732"/><text fill="#FFFFFF" font-family="Verdana" font-size="14" lengthAdjust="spacing" textLength="52.5342" x="64" y="199.1484">Symbol</text><path d="M47,181.5806 C47,190.5806 50,193.5806 59,193.5806" fill="none" style="stroke:#FFFFFF;stroke-width:1.5;"/><line style="stroke:#FFFFFF;stroke-width:1.5;" x1="121.5342" x2="189.6475" y1="193.5806" y2="193.5806"/><path d="M153.5908,193.5806 L153.5908,190.5806 L159.5908,193.5806 L153.5908,196.5806 L153.5908,193.5806" fill="#FFFFFF"/><path d="M201.6475,181.5806 C201.6475,190.5806 198.6475,193.5806 189.6475,193.5806" fill="none" style="stroke:#FFFFFF;stroke-width:1.5;"/><rect fill="#0B58A8" height="27.0146" rx="5" ry="5" style="stroke:#FFFFFF;stroke-width:1.5;" width="28.1563" x="59" y="217.0879"/><text fill="#FFFFFF" font-family="Verdana" font-size="14" lengthAdjust="spacing" textLength="18.1563" x="64" y="236.1631">Nil</text><path d="M47,218.5952 C47,227.5952 50,230.5952 59,230.5952" fill="none" style="stroke:#FFFFFF;stroke-width:1.5;"/><line style="stroke:#FFFFFF;stroke-width:1.5;" x1="87.1563" x2="189.6475" y1="230.5952" y2="230.5952"/><path d="M136.4019,230.5952 L136.4019,227.5952 L142.4019,230.5952 L136.4019,233.5952 L136.4019,230.5952" fill="#FFFFFF"/><path d="M201.6475,218.5952 C201.6475,227.5952 198.6475,230.5952 189.6475,230.5952" fill="none" style="stroke:#FFFFFF;stroke-width:1.5;"/><rect fill="#0B58A8" height="27.0146" rx="5" ry="5" style="stroke:#FFFFFF;stroke-width:1.5;" width="66.041" x="59" y="254.1025"/><text fill="#FFFFFF" font-family="Verdana" font-size="14" lengthAdjust="spacing" textLength="56.041" x="64" y="273.1777">Boolean</text><path d="M47,255.6099 C47,264.6099 50,267.6099 59,267.6099" fill="none" style="stroke:#FFFFFF;stroke-width:1.5;"/><line style="stroke:#FFFFFF;stroke-width:1.5;" x1="125.041" x2="189.6475" y1="267.6099" y2="267.6099"/><path d="M155.3442,267.6099 L155.3442,264.6099 L161.3442,267.6099 L155.3442,270.6099 L155.3442,267.6099" fill="#FFFFFF"/><path d="M201.6475,255.6099 C201.6475,264.6099 198.6475,267.6099 189.6475,267.6099" fill="none" style="stroke:#FFFFFF;stroke-width:1.5;"/><rect fill="#0B58A8" height="27.0146" rx="5" ry="5" style="stroke:#FFFFFF;stroke-width:1.5;" width="70.9766" x="59" y="291.1172"/><text fill="#FFFFFF" font-family="Verdana" font-size="14" lengthAdjust="spacing" textLength="60.9766" x="64" y="310.1924">Keyword</text><path d="M47,292.6245 C47,301.6245 50,304.6245 59,304.6245" fill="none" style="stroke:#FFFFFF;stroke-width:1.5;"/><line style="stroke:#FFFFFF;stroke-width:1.5;" x1="129.9766" x2="189.6475" y1="304.6245" y2="304.6245"/><path d="M157.812,304.6245 L157.812,301.6245 L163.812,304.6245 L157.812,307.6245 L157.812,304.6245" fill="#FFFFFF"/><path d="M201.6475,292.6245 C201.6475,301.6245 198.6475,304.6245 189.6475,304.6245" fill="none" style="stroke:#FFFFFF;stroke-width:1.5;"/><rect fill="#0B58A8" height="27.0146" rx="5" ry="5" style="stroke:#FFFFFF;stroke-width:1.5;" width="34.4453" x="59" y="328.1318"/><text fill="#FFFFFF" font-family="Verdana" font-size="14" lengthAdjust="spacing" textLength="24.4453" x="64" y="347.207">List</text><path d="M47,329.6392 C47,338.6392 50,341.6392 59,341.6392" fill="none" style="stroke:#FFFFFF;stroke-width:1.5;"/><line style="stroke:#FFFFFF;stroke-width:1.5;" x1="93.4453" x2="189.6475" y1="341.6392" y2="341.6392"/><path d="M139.5464,341.6392 L139.5464,338.6392 L145.5464,341.6392 L139.5464,344.6392 L139.5464,341.6392" fill="#FFFFFF"/><path d="M201.6475,329.6392 C201.6475,338.6392 198.6475,341.6392 189.6475,341.6392" fill="none" style="stroke:#FFFFFF;stroke-width:1.5;"/><rect fill="#0B58A8" height="27.0146" rx="5" ry="5" style="stroke:#FFFFFF;stroke-width:1.5;" width="55.1924" x="59" y="365.1465"/><text fill="#FFFFFF" font-family="Verdana" font-size="14" lengthAdjust="spacing" textLength="45.1924" x="64" y="384.2217">Vector</text><path d="M47,366.6538 C47,375.6538 50,378.6538 59,378.6538" fill="none" style="stroke:#FFFFFF;stroke-width:1.5;"/><line style="stroke:#FFFFFF;stroke-width:1.5;" x1="114.1924" x2="189.6475" y1="378.6538" y2="378.6538"/><path d="M149.9199,378.6538 L149.9199,375.6538 L155.9199,378.6538 L149.9199,381.6538 L149.9199,378.6538" fill="#FFFFFF"/><path d="M201.6475,366.6538 C201.6475,375.6538 198.6475,378.6538 189.6475,378.6538" fill="none" style="stroke:#FFFFFF;stroke-width:1.5;"/><rect fill="#0B58A8" height="27.0146" rx="5" ry="5" style="stroke:#FFFFFF;stroke-width:1.5;" width="38.9297" x="59" y="402.1611"/><text fill="#FFFFFF" font-family="Verdana" font-size="14" lengthAdjust="spacing" textLength="28.9297" x="64" y="421.2363">Map</text><path d="M47,403.6685 C47,412.6685 50,415.6685 59,415.6685" fill="none" style="stroke:#FFFFFF;stroke-width:1.5;"/><line style="stroke:#FFFFFF;stroke-width:1.5;" x1="97.9297" x2="189.6475" y1="415.6685" y2="415.6685"/><path d="M141.7886,415.6685 L141.7886,412.6685 L147.7886,415.6685 L141.7886,418.6685 L141.7886,415.6685" fill="#FFFFFF"/><path d="M201.6475,403.6685 C201.6475,412.6685 198.6475,415.6685 189.6475,415.6685" fill="none" style="stroke:#FFFFFF;stroke-width:1.5;"/><rect fill="#0B58A8" height="27.0146" rx="5" ry="5" style="stroke:#FFFFFF;stroke-width:1.5;" width="33.4268" x="59" y="439.1758"/><text fill="#FFFFFF" font-family="Verdana" font-size="14" lengthAdjust="spacing" textLength="23.4268" x="64" y="458.251">Set</text><path d="M47,440.6831 C47,449.6831 50,452.6831 59,452.6831" fill="none" style="stroke:#FFFFFF;stroke-width:1.5;"/><line style="stroke:#FFFFFF;stroke-width:1.5;" x1="92.4268" x2="189.6475" y1="452.6831" y2="452.6831"/><path d="M139.0371,452.6831 L139.0371,449.6831 L145.0371,452.6831 L139.0371,455.6831 L139.0371,452.6831" fill="#FFFFFF"/><path d="M201.6475,440.6831 C201.6475,449.6831 198.6475,452.6831 189.6475,452.6831" fill="none" style="stroke:#FFFFFF;stroke-width:1.5;"/><rect fill="#0B58A8" height="27.0146" rx="5" ry="5" style="stroke:#FFFFFF;stroke-width:1.5;" width="118.9102" x="59" y="476.1904"/><text fill="#FFFFFF" font-family="Verdana" font-size="14" lengthAdjust="spacing" textLength="108.9102" x="64" y="495.2656">TaggedElement</text><path d="M47,477.6978 C47,486.6978 50,489.6978 59,489.6978" fill="none" style="stroke:#FFFFFF;stroke-width:1.5;"/><line style="stroke:#FFFFFF;stroke-width:1.5;" x1="177.9102" x2="189.6475" y1="489.6978" y2="489.6978"/><path d="M201.6475,477.6978 C201.6475,486.6978 198.6475,489.6978 189.6475,489.6978" fill="none" style="stroke:#FFFFFF;stroke-width:1.5;"/><rect fill="#0B58A8" height="27.0146" rx="5" ry="5" style="stroke:#FFFFFF;stroke-width:1.5;" width="130.6475" x="59" y="513.2051"/><text fill="#FFFFFF" font-family="Verdana" font-size="14" lengthAdjust="spacing" textLength="120.6475" x="64" y="532.2803">DiscardSequence</text><line style="stroke:#FFFFFF;stroke-width:1.5;" x1="189.6475" x2="189.6475" y1="526.7124" y2="526.7124"/><path d="M47,514.7124 C47,523.7124 50,526.7124 59,526.7124" fill="none" style="stroke:#FFFFFF;stroke-width:1.5;"/><line style="stroke:#FFFFFF;stroke-width:1.5;" x1="47" x2="47" y1="57.522" y2="514.7124"/><path d="M35,45.522 C44,45.522 47,48.522 47,57.522" fill="none" style="stroke:#FFFFFF;stroke-width:1.5;"/><path d="M201.6475,514.7124 C201.6475,523.7124 198.6475,526.7124 189.6475,526.7124" fill="none" style="stroke:#FFFFFF;stroke-width:1.5;"/><line style="stroke:#FFFFFF;stroke-width:1.5;" x1="201.6475" x2="201.6475" y1="57.522" y2="514.7124"/><path d="M201.6475,57.522 C201.6475,48.522 204.6475,45.522 213.6475,45.522" fill="none" style="stroke:#FFFFFF;stroke-width:1.5;"/><ellipse cx="9" cy="45.522" fill="none" rx="4" ry="4" style="stroke:#FFFFFF;stroke-width:2;"/><ellipse cx="243.6475" cy="45.522" fill="#FFFFFF" rx="4" ry="4" style="stroke:#FFFFFF;stroke-width:1;"/><line style="stroke:#FFFFFF;stroke-width:1.5;" x1="13" x2="35" y1="45.522" y2="45.522"/><line style="stroke:#FFFFFF;stroke-width:1.5;" x1="213.6475" x2="239.6475" y1="45.522" y2="45.522"/><path d="M224.6475,45.522 L224.6475,42.522 L230.6475,45.522 L224.6475,48.522 L224.6475,45.522" fill="#FFFFFF"/><!--SRC=[xLRTSzem37_FN-7TNhQ7RfIMNSS-ha1XBGFADRHx5h487iRE78UERVplKy9d4jXAozwMk-Gkqay_ov8i-JoqO2psrS1vPeSuHWPZuODJvwekwLTPze7LXc30isWSjdv-CTSQeVoqh24rsBJeIbdqSxRJSL_BjAmZCeAgrX91fOMVSNgl3KyBMoBCh7g7djMPHTiGPBp0Z5KFV1_vOkTfrOK8FJ3SnMyHAW_PE-SS5KyYvvolepX_teTsAl4ZCHYjBVkPK5N16_b6HuhNjDI6FIzKIsULiqJNqCekf8taMKaxG4cvGyD1GIAyd0PeMaADblYBoacnbAX8YdcMMDeR2c-aC0pPSI9hW_65Oh7PZ5wklIX9zjnJ3m8hj5hyPHaAYNIMV0UqFJGF00uH-8E0LbY9ArmS0LVyG5Oi_iKoVkFe1fURA-LYdedkzaouSVOO5IXV42lDbpwruRiOH-ClWjiXEoaK5WY30pHnOVoBvKCCw0HIFH-IzlthHP4wuKYeU84ngnYZxrjQIX7e8Csz1ksgupNY0WSGIPihtnoYhPKE0_2Ghx0r7Hb1xMADROa1IiewzHkWLZAbR8HQ2hu1wTBn4vu8GDakS4vjYHqNDlJBKnjJnGLKfGw2PjS6tI5mVH-J3426kA6v3R6A5kQHj2R2LF0yAoR2JfCaxJxiLJ3Ph6rpPtjFo8LqjfcOU3amSmVorcdezmIrZ5OffQq9uqdagxwV9Lpj9PSrncw0YoXaRzE44kYm_YKkXmb2ibJ5qcpgHnPtXE8X72vj7BMbRliuaiQwDUvjkz54zhUDvmETbr5YdXuIcxWhJwikPGDyJ25NHRaZKpaE8oPWdyf1iQ9AuqzZYVfIU8-cwEZ7rijr_ojvFw_lBLKyItMgTSGFLF6kNOP_lyELvbWMUsKxqnzxrNQcsi6OwWTZkZeOK-U9J3HAQX3YdB2tPvVvVptVvthUbNGlk6sts0HD6DzhZryL2yNIgzCNBbZMZ1Ghdh7ZatBXRRbOOhMwssEn_gNpubEtnK8QRKJ8QG_9J262bquJ9i1k8cN56CliEa3LlFYy5B2wcWYZLU9bywwz1hmvFQeAInipv0gxQpkBUn1PU3eUn6LsssiSdJajK7v4VQBCK3aqN9KrKzAvlm40]--></g></svg>