<svg xmlns="http://www.w3.org/2000/svg" xmlns:xlink="http://www.w3.org/1999/xlink" contentStyleType="text/css" data-diagram-type="EBNF" height="545px" preserveAspectRatio="none" style="width:562px;height:545px;background:#0B58A8;" version="1.1" viewBox="0 0 562 545" width="562px" zoomAndPan="magnify"><defs/><g><rect fill="#0B58A8" height="545" style="stroke:none;stroke-width:1;" width="562" x="0" y="0"/><text fill="#FFFFFF" font-family="Verdana" font-size="14" font-weight="bold" lengthAdjust="spacing" textLength="121.666" x="5" y="19.0752">TaggedElement</text><line style="stroke:#FFFFFF;stroke-width:1.5;" x1="35" x2="35" y1="45.522" y2="45.522"/><rect fill="none" height="27.0146" style="stroke:#FFFFFF;stroke-width:0.5;" width="21.457" x="35" y="32.0146"/><text fill="#FFFFFF" font-family="Verdana" font-size="14" lengthAdjust="spacing" textLength="11.457" x="40" y="51.0898">#</text><line style="stroke:#FFFFFF;stroke-width:1.5;" x1="56.457" x2="76.457" y1="45.522" y2="45.522"/><rect fill="#0B58A8" height="27.0146" rx="5" ry="5" style="stroke:#FFFFFF;stroke-width:1.5;" width="35.7578" x="76.457" y="32.0146"/><text fill="#FFFFFF" font-family="Verdana" font-size="14" lengthAdjust="spacing" textLength="25.7578" x="81.457" y="51.0898">Tag</text><line style="stroke:#FFFFFF;stroke-width:1.5;" x1="112.2148" x2="132.2148" y1="45.522" y2="45.522"/><line style="stroke:#FFFFFF;stroke-width:1.5;" x1="132.2148" x2="245.6338" y1="45.522" y2="45.522"/><path d="M175.5824,45.522 L175.5824,42.522 L181.5824,45.522 L175.5824,48.522 L175.5824,45.522" fill="#FFFFFF"/><path d="M132.2148,45.522 C141.2148,45.522 144.2148,48.2756 144.2148,57.2756 C144.2148,66.2756 147.2148,69.0293 156.2148,69.0293" fill="none" style="stroke:#FFFFFF;stroke-width:1.5;"/><path d="M221.6338,69.0293 C230.6338,69.0293 233.6338,66.2756 233.6338,57.2756 C233.6338,48.2756 236.6338,45.522 245.6338,45.522" fill="none" style="stroke:#FFFFFF;stroke-width:1.5;"/><rect fill="#0B58A8" height="27.0146" rx="5" ry="5" style="stroke:#FFFFFF;stroke-width:1.5;" width="65.4189" x="156.2148" y="55.522"/><text fill="#FFFFFF" font-family="Verdana" font-size="14" lengthAdjust="spacing" textLength="55.4189" x="161.2148" y="74.5972">Spacing</text><line style="stroke:#FFFFFF;stroke-width:1.5;" x1="245.6338" x2="265.6338" y1="45.522" y2="45.522"/><rect fill="#0B58A8" height="27.0146" rx="5" ry="5" style="stroke:#FFFFFF;stroke-width:1.5;" width="93.8018" x="265.6338" y="32.0146"/><text fill="#FFFFFF" font-family="Verdana" font-size="14" lengthAdjust="spacing" textLength="83.8018" x="270.6338" y="51.0898">EdnElement</text><ellipse cx="9" cy="45.522" fill="none" rx="4" ry="4" style="stroke:#FFFFFF;stroke-width:2;"/><ellipse cx="389.4355" cy="45.522" fill="#FFFFFF" rx="4" ry="4" style="stroke:#FFFFFF;stroke-width:1;"/><line style="stroke:#FFFFFF;stroke-width:1.5;" x1="13" x2="35" y1="45.522" y2="45.522"/><line style="stroke:#FFFFFF;stroke-width:1.5;" x1="359.4355" x2="385.4355" y1="45.522" y2="45.522"/><path d="M370.4355,45.522 L370.4355,42.522 L376.4355,45.522 L370.4355,48.522 L370.4355,45.522" fill="#FFFFFF"/><text fill="#FFFFFF" font-family="Verdana" font-size="14" font-weight="bold" lengthAdjust="spacing" textLength="28.6836" x="5" y="111.6118">Tag</text><line style="stroke:#FFFFFF;stroke-width:1.5;" x1="59" x2="59" y1="138.0586" y2="138.0586"/><rect fill="#0B58A8" height="27.0146" rx="5" ry="5" style="stroke:#FFFFFF;stroke-width:1.5;" width="75.5635" x="59" y="124.5513"/><text fill="#FFFFFF" font-family="Verdana" font-size="14" lengthAdjust="spacing" textLength="65.5635" x="64" y="143.6265">TagPrefix</text><line style="stroke:#FFFFFF;stroke-width:1.5;" x1="134.5635" x2="154.5635" y1="138.0586" y2="138.0586"/><rect fill="none" height="27.0146" style="stroke:#FFFFFF;stroke-width:0.5;" width="16.3574" x="154.5635" y="124.5513"/><text fill="#FFFFFF" font-family="Verdana" font-size="14" lengthAdjust="spacing" textLength="6.3574" x="159.5635" y="143.6265">/</text><line style="stroke:#FFFFFF;stroke-width:1.5;" x1="170.9209" x2="190.9209" y1="138.0586" y2="138.0586"/><rect fill="#0B58A8" height="27.0146" rx="5" ry="5" style="stroke:#FFFFFF;stroke-width:1.5;" width="115.0889" x="190.9209" y="124.5513"/><text fill="#FFFFFF" font-family="Verdana" font-size="14" lengthAdjust="spacing" textLength="105.0889" x="195.9209" y="143.6265">IdentifierName</text><line style="stroke:#FFFFFF;stroke-width:1.5;" x1="35" x2="59" y1="138.0586" y2="138.0586"/><line style="stroke:#FFFFFF;stroke-width:1.5;" x1="306.0098" x2="330.0098" y1="138.0586" y2="138.0586"/><rect fill="#0B58A8" height="27.0146" rx="5" ry="5" style="stroke:#FFFFFF;stroke-width:1.5;" width="75.5635" x="59" y="161.5659"/><text fill="#FFFFFF" font-family="Verdana" font-size="14" lengthAdjust="spacing" textLength="65.5635" x="64" y="180.6411">TagPrefix</text><line style="stroke:#FFFFFF;stroke-width:1.5;" x1="134.5635" x2="306.0098" y1="175.0732" y2="175.0732"/><path d="M218.2866,175.0732 L218.2866,172.0732 L224.2866,175.0732 L218.2866,178.0732 L218.2866,175.0732" fill="#FFFFFF"/><path d="M47,163.0732 C47,172.0732 50,175.0732 59,175.0732" fill="none" style="stroke:#FFFFFF;stroke-width:1.5;"/><line style="stroke:#FFFFFF;stroke-width:1.5;" x1="47" x2="47" y1="150.0586" y2="163.0732"/><path d="M35,138.0586 C44,138.0586 47,141.0586 47,150.0586" fill="none" style="stroke:#FFFFFF;stroke-width:1.5;"/><path d="M318.0098,163.0732 C318.0098,172.0732 315.0098,175.0732 306.0098,175.0732" fill="none" style="stroke:#FFFFFF;stroke-width:1.5;"/><line style="stroke:#FFFFFF;stroke-width:1.5;" x1="318.0098" x2="318.0098" y1="150.0586" y2="163.0732"/><path d="M318.0098,150.0586 C318.0098,141.0586 321.0098,138.0586 330.0098,138.0586" fill="none" style="stroke:#FFFFFF;stroke-width:1.5;"/><ellipse cx="9" cy="138.0586" fill="none" rx="4" ry="4" style="stroke:#FFFFFF;stroke-width:2;"/><ellipse cx="360.0098" cy="138.0586" fill="#FFFFFF" rx="4" ry="4" style="stroke:#FFFFFF;stroke-width:1;"/><line style="stroke:#FFFFFF;stroke-width:1.5;" x1="13" x2="35" y1="138.0586" y2="138.0586"/><line style="stroke:#FFFFFF;stroke-width:1.5;" x1="330.0098" x2="356.0098" y1="138.0586" y2="138.0586"/><path d="M341.0098,138.0586 L341.0098,135.0586 L347.0098,138.0586 L341.0098,141.0586 L341.0098,138.0586" fill="#FFFFFF"/><text fill="#FFFFFF" font-family="Verdana" font-size="14" font-weight="bold" lengthAdjust="spacing" textLength="75.2637" x="5" y="217.6558">TagPrefix</text><line style="stroke:#FFFFFF;stroke-width:1.5;" x1="35" x2="35" y1="244.1025" y2="244.1025"/><rect fill="none" height="27.0146" style="stroke:#FFFFFF;stroke-width:1;stroke-dasharray:5,5;" width="59.2461" x="35" y="230.5952"/><text fill="#FFFFFF" font-family="Verdana" font-size="14" lengthAdjust="spacing" textLength="39.4023" x="44.9219" y="249.6704">Alpha</text><line style="stroke:#FFFFFF;stroke-width:1.5;" x1="94.2461" x2="114.2461" y1="244.1025" y2="244.1025"/><line style="stroke:#FFFFFF;stroke-width:1.5;" x1="114.2461" x2="301.5996" y1="244.1025" y2="244.1025"/><path d="M187.1875,244.1025 L187.1875,241.1025 L193.1875,244.1025 L187.1875,247.1025 L187.1875,244.1025" fill="#FFFFFF"/><path d="M114.2461,244.1025 C123.2461,244.1025 126.2461,252.8562 126.2461,261.8562 C126.2461,270.8562 129.2461,279.6099 138.2461,279.6099" fill="none" style="stroke:#FFFFFF;stroke-width:1.5;"/><path d="M277.5996,279.6099 C286.5996,279.6099 289.5996,270.8562 289.5996,261.8562 C289.5996,252.8562 292.5996,244.1025 301.5996,244.1025" fill="none" style="stroke:#FFFFFF;stroke-width:1.5;"/><path d="M146.2461,271.6099 C146.2461,277.6099 148.2461,279.6099 154.2461,279.6099" fill="none" style="stroke:#FFFFFF;stroke-width:1.5;"/><line style="stroke:#FFFFFF;stroke-width:1.5;" x1="146.2461" x2="146.2461" y1="267.1025" y2="271.6099"/><path d="M146.2461,267.1025 C146.2461,261.1025 148.2461,259.1025 154.2461,259.1025" fill="none" style="stroke:#FFFFFF;stroke-width:1.5;"/><line style="stroke:#FFFFFF;stroke-width:1.5;" x1="153.2461" x2="262.5996" y1="259.1025" y2="259.1025"/><path d="M216.8582,259.1025 L216.8582,256.1025 L210.8582,259.1025 L216.8582,262.1025 L216.8582,259.1025" fill="#FFFFFF"/><path d="M269.5996,271.6099 C269.5996,277.6099 267.5996,279.6099 261.5996,279.6099" fill="none" style="stroke:#FFFFFF;stroke-width:1.5;"/><line style="stroke:#FFFFFF;stroke-width:1.5;" x1="269.5996" x2="269.5996" y1="267.1025" y2="271.6099"/><path d="M261.5996,259.1025 C267.5996,259.1025 269.5996,261.1025 269.5996,267.1025" fill="none" style="stroke:#FFFFFF;stroke-width:1.5;"/><line style="stroke:#FFFFFF;stroke-width:1.5;" x1="138.2461" x2="153.2461" y1="279.6099" y2="279.6099"/><line style="stroke:#FFFFFF;stroke-width:1.5;" x1="262.5996" x2="277.5996" y1="279.6099" y2="279.6099"/><rect fill="#0B58A8" height="27.0146" rx="5" ry="5" style="stroke:#FFFFFF;stroke-width:1.5;" width="109.3535" x="153.2461" y="266.1025"/><text fill="#FFFFFF" font-family="Verdana" font-size="14" lengthAdjust="spacing" textLength="99.3535" x="158.2461" y="285.1777">IdentifierBody</text><ellipse cx="9" cy="244.1025" fill="none" rx="4" ry="4" style="stroke:#FFFFFF;stroke-width:2;"/><ellipse cx="331.5996" cy="244.1025" fill="#FFFFFF" rx="4" ry="4" style="stroke:#FFFFFF;stroke-width:1;"/><line style="stroke:#FFFFFF;stroke-width:1.5;" x1="13" x2="35" y1="244.1025" y2="244.1025"/><line style="stroke:#FFFFFF;stroke-width:1.5;" x1="301.5996" x2="327.5996" y1="244.1025" y2="244.1025"/><path d="M312.5996,244.1025 L312.5996,241.1025 L318.5996,244.1025 L312.5996,247.1025 L312.5996,244.1025" fill="#FFFFFF"/><path d="M5,313.1172 L5,338.9165 L195.1016,338.9165 L195.1016,323.1172 L185.1016,313.1172 L5,313.1172" fill="#0B58A8" style="stroke:#FFFFFF;stroke-width:1;"/><path d="M185.1016,313.1172 L185.1016,323.1172 L195.1016,323.1172 L185.1016,313.1172" fill="#0B58A8" style="stroke:#FFFFFF;stroke-width:1;"/><text fill="#FFFFFF" font-family="Verdana" font-size="13" lengthAdjust="spacing" textLength="159.9609" x="15.5703" y="331.187">built-in tagged elements</text><text fill="#FFFFFF" font-family="Verdana" font-size="14" font-weight="bold" lengthAdjust="spacing" textLength="58.0029" x="5" y="367.9917">Instant</text><line style="stroke:#FFFFFF;stroke-width:1.5;" x1="35" x2="35" y1="394.4385" y2="394.4385"/><rect fill="none" height="27.0146" style="stroke:#FFFFFF;stroke-width:0.5;" width="46.9688" x="35" y="380.9312"/><text fill="#FFFFFF" font-family="Verdana" font-size="14" lengthAdjust="spacing" textLength="36.9688" x="40" y="400.0063">#inst</text><line style="stroke:#FFFFFF;stroke-width:1.5;" x1="81.9688" x2="101.9688" y1="394.4385" y2="394.4385"/><line style="stroke:#FFFFFF;stroke-width:1.5;" x1="101.9688" x2="215.3877" y1="394.4385" y2="394.4385"/><path d="M145.3363,394.4385 L145.3363,391.4385 L151.3363,394.4385 L145.3363,397.4385 L145.3363,394.4385" fill="#FFFFFF"/><path d="M101.9688,394.4385 C110.9688,394.4385 113.9688,397.1921 113.9688,406.1921 C113.9688,415.1921 116.9688,417.9458 125.9688,417.9458" fill="none" style="stroke:#FFFFFF;stroke-width:1.5;"/><path d="M191.3877,417.9458 C200.3877,417.9458 203.3877,415.1921 203.3877,406.1921 C203.3877,397.1921 206.3877,394.4385 215.3877,394.4385" fill="none" style="stroke:#FFFFFF;stroke-width:1.5;"/><rect fill="#0B58A8" height="27.0146" rx="5" ry="5" style="stroke:#FFFFFF;stroke-width:1.5;" width="65.4189" x="125.9688" y="404.4385"/><text fill="#FFFFFF" font-family="Verdana" font-size="14" lengthAdjust="spacing" textLength="55.4189" x="130.9688" y="423.5137">Spacing</text><line style="stroke:#FFFFFF;stroke-width:1.5;" x1="215.3877" x2="235.3877" y1="394.4385" y2="394.4385"/><rect fill="none" height="27.0146" style="stroke:#FFFFFF;stroke-width:1;stroke-dasharray:5,5;" width="208.9258" x="235.3877" y="380.9312"/><text fill="#FFFFFF" font-family="Verdana" font-size="14" lengthAdjust="spacing" textLength="189.082" x="245.3096" y="400.0063">RFC-3339 formatted string</text><ellipse cx="9" cy="394.4385" fill="none" rx="4" ry="4" style="stroke:#FFFFFF;stroke-width:2;"/><ellipse cx="474.3135" cy="394.4385" fill="#FFFFFF" rx="4" ry="4" style="stroke:#FFFFFF;stroke-width:1;"/><line style="stroke:#FFFFFF;stroke-width:1.5;" x1="13" x2="35" y1="394.4385" y2="394.4385"/><line style="stroke:#FFFFFF;stroke-width:1.5;" x1="444.3135" x2="470.3135" y1="394.4385" y2="394.4385"/><path d="M455.3135,394.4385 L455.3135,391.4385 L461.3135,394.4385 L455.3135,397.4385 L455.3135,394.4385" fill="#FFFFFF"/><text fill="#FFFFFF" font-family="Verdana" font-size="14" font-weight="bold" lengthAdjust="spacing" textLength="42" x="5" y="460.5283">UUID</text><line style="stroke:#FFFFFF;stroke-width:1.5;" x1="35" x2="35" y1="486.9751" y2="486.9751"/><rect fill="none" height="27.0146" style="stroke:#FFFFFF;stroke-width:0.5;" width="51.7402" x="35" y="473.4678"/><text fill="#FFFFFF" font-family="Verdana" font-size="14" lengthAdjust="spacing" textLength="41.7402" x="40" y="492.543">#uuid</text><line style="stroke:#FFFFFF;stroke-width:1.5;" x1="86.7402" x2="106.7402" y1="486.9751" y2="486.9751"/><line style="stroke:#FFFFFF;stroke-width:1.5;" x1="106.7402" x2="220.1592" y1="486.9751" y2="486.9751"/><path d="M150.1078,486.9751 L150.1078,483.9751 L156.1078,486.9751 L150.1078,489.9751 L150.1078,486.9751" fill="#FFFFFF"/><path d="M106.7402,486.9751 C115.7402,486.9751 118.7402,489.7288 118.7402,498.7288 C118.7402,507.7288 121.7402,510.4824 130.7402,510.4824" fill="none" style="stroke:#FFFFFF;stroke-width:1.5;"/><path d="M196.1592,510.4824 C205.1592,510.4824 208.1592,507.7288 208.1592,498.7288 C208.1592,489.7288 211.1592,486.9751 220.1592,486.9751" fill="none" style="stroke:#FFFFFF;stroke-width:1.5;"/><rect fill="#0B58A8" height="27.0146" rx="5" ry="5" style="stroke:#FFFFFF;stroke-width:1.5;" width="65.4189" x="130.7402" y="496.9751"/><text fill="#FFFFFF" font-family="Verdana" font-size="14" lengthAdjust="spacing" textLength="55.4189" x="135.7402" y="516.0503">Spacing</text><line style="stroke:#FFFFFF;stroke-width:1.5;" x1="220.1592" x2="240.1592" y1="486.9751" y2="486.9751"/><rect fill="none" height="27.0146" style="stroke:#FFFFFF;stroke-width:1;stroke-dasharray:5,5;" width="282.2617" x="240.1592" y="473.4678"/><text fill="#FFFFFF" font-family="Verdana" font-size="14" lengthAdjust="spacing" textLength="262.418" x="250.0811" y="492.543">Canonical UUID string representation</text><ellipse cx="9" cy="486.9751" fill="none" rx="4" ry="4" style="stroke:#FFFFFF;stroke-width:2;"/><ellipse cx="552.4209" cy="486.9751" fill="#FFFFFF" rx="4" ry="4" style="stroke:#FFFFFF;stroke-width:1;"/><line style="stroke:#FFFFFF;stroke-width:1.5;" x1="13" x2="35" y1="486.9751" y2="486.9751"/><line style="stroke:#FFFFFF;stroke-width:1.5;" x1="522.4209" x2="548.4209" y1="486.9751" y2="486.9751"/><path d="M533.4209,486.9751 L533.4209,483.9751 L539.4209,486.9751 L533.4209,489.9751 L533.4209,486.9751" fill="#FFFFFF"/><!--SRC=[xLPTTzf647tNhvWwBtPEd608FJPDQeCC3Iuu70lSXvu-BDe1jeXTTRKYfYd_lRChCC90um_oLfs3RCtSkJkwCpkhYyGmRR0l1zuFPeGJ13OHG-PrsN28l1wHHHhu20Ul3k0Da9NklqCGir388Vn1JtKkbx2VF1j7QBftD0x47VaFtjd89YU060ZKrso27j3rJmwMHIuUFi8vLADunEZl6_YQYwqfFeEvHH- -Xdug8dCi91YNAs2MHGAlZpolAUd55faB-lzW8-zpk6dunwLIwGm6Ia-OCSIH66tzvtQ9NgzvwUBJLF1jyJwJIegGHU2WYrYDiSQ44c56AEceBb1o9x5tiP8xkpuaPXRXpoI8Lih0LwTCZONZeLQfvBwAb8PNXLhvj7hgV0qbpSBQSDUzrGeBjwWvaymPFyrYr2qXnqlyPRLKB3iNMN6JnLgx8n6E9IO9d3XRc-aXQMp3vlJZAanThRDCGnQxjyoU7Z8Kd7NkxWDwFTIF08wGyKS1ZJ0HtkEi0e7u6w5O_4Qa_Lbruq_vbJOqVw3kzae4jdhGLn5V44l5bpcrsPsOf9FV13SZA1KA2mJrE6gK8NwFvHECcMP6xPNsmxj5ath9M4Yxm0IgMgilBHL58bRnElSAjAkFLuXB7B0qCXljku5eAwaIsdt8xx6-IZNDX1os9GOOKTK3GnhWS4RLI5GaU0xIeUqdGX7JREWmpks6FIda_07-bThYM2hRG3MbgKYxNZ0OCQw-M981YnBCUNe9rj2mJ4cZKrmJBpHYAipC5MdtPgyn_R1gszBPFXCs99td2sENOpfBO3Dw7NhdK4krocjUN-WmGkwFw2bSxkzjZRLHDO0RnaMQmDawOSHeitv3b_s8u9Qg6fhQ_TJW3YaUmn7GYwCoD6sVHz9OZSOdn-Q6oDDZxVb0-sNimjSFYJok6IhPeMgm8QuXxvjoHwKsEBIOClDI3j8gj4VrYrZIVYJ2PrDSg-Vso-V-dvHzrjzRkdY-DgbMYk-fumEpbFzfcskTOzdirUrC_pchjZFvUsEgxusfkJUcwnSoqL7YimGpmkuJfyp_t_7VvJk-4r5IlNOBfgWJwpvvMomKos_V7mRCm5KgeNWA9wLAuQnIB8DV3xfW_KVUuI-T5YHq1eO8N2JPuKC4HzuLcpAuIKcX2LRWSupowlBNfG7gSYgqabOOx-gslGBy-Fwu9WnzjsXA1MxRtkA3YI92PK_i2lIwZUDJhyNaCAM1KW6K7ft2qkWP-O9_0G00]--></g></svg>