<svg xmlns="http://www.w3.org/2000/svg" xmlns:xlink="http://www.w3.org/1999/xlink" contentStyleType="text/css" data-diagram-type="EBNF" height="542px" preserveAspectRatio="none" style="width:453px;height:542px;background:#0B58A8;" version="1.1" viewBox="0 0 453 542" width="453px" zoomAndPan="magnify"><defs/><g><rect fill="#0B58A8" height="542" style="stroke:none;stroke-width:1;" width="453" x="0" y="0"/><text fill="#FFFFFF" font-family="Verdana" font-size="14" font-weight="bold" lengthAdjust="spacing" textLength="76.6377" x="5" y="19.0752">Character</text><line style="stroke:#FFFFFF;stroke-width:1.5;" x1="35" x2="35" y1="45.522" y2="45.522"/><rect fill="none" height="27.0146" style="stroke:#FFFFFF;stroke-width:0.5;" width="16.3574" x="35" y="32.0146"/><text fill="#FFFFFF" font-family="Verdana" font-size="14" lengthAdjust="spacing" textLength="6.3574" x="40" y="51.0898">\</text><line style="stroke:#FFFFFF;stroke-width:1.5;" x1="51.3574" x2="71.3574" y1="45.522" y2="45.522"/><rect fill="#0B58A8" height="27.0146" rx="5" ry="5" style="stroke:#FFFFFF;stroke-width:1.5;" width="86.7334" x="95.3574" y="32.0146"/><text fill="#FFFFFF" font-family="Verdana" font-size="14" lengthAdjust="spacing" textLength="76.7334" x="100.3574" y="51.0898">CharLiteral</text><line style="stroke:#FFFFFF;stroke-width:1.5;" x1="71.3574" x2="95.3574" y1="45.522" y2="45.522"/><line style="stroke:#FFFFFF;stroke-width:1.5;" x1="182.0908" x2="234.0703" y1="45.522" y2="45.522"/><rect fill="#0B58A8" height="27.0146" rx="5" ry="5" style="stroke:#FFFFFF;stroke-width:1.5;" width="83.8555" x="95.3574" y="69.0293"/><text fill="#FFFFFF" font-family="Verdana" font-size="14" lengthAdjust="spacing" textLength="73.8555" x="100.3574" y="88.1045">CharName</text><path d="M83.3574,70.5366 C83.3574,79.5366 86.3574,82.5366 95.3574,82.5366" fill="none" style="stroke:#FFFFFF;stroke-width:1.5;"/><line style="stroke:#FFFFFF;stroke-width:1.5;" x1="179.2129" x2="210.0703" y1="82.5366" y2="82.5366"/><path d="M192.6416,82.5366 L192.6416,79.5366 L198.6416,82.5366 L192.6416,85.5366 L192.6416,82.5366" fill="#FFFFFF"/><path d="M222.0703,70.5366 C222.0703,79.5366 219.0703,82.5366 210.0703,82.5366" fill="none" style="stroke:#FFFFFF;stroke-width:1.5;"/><rect fill="#0B58A8" height="27.0146" rx="5" ry="5" style="stroke:#FFFFFF;stroke-width:1.5;" width="114.7129" x="95.3574" y="106.0439"/><text fill="#FFFFFF" font-family="Verdana" font-size="14" lengthAdjust="spacing" textLength="104.7129" x="100.3574" y="125.1191">UnicodeEscape</text><line style="stroke:#FFFFFF;stroke-width:1.5;" x1="210.0703" x2="210.0703" y1="119.5513" y2="119.5513"/><path d="M83.3574,107.5513 C83.3574,116.5513 86.3574,119.5513 95.3574,119.5513" fill="none" style="stroke:#FFFFFF;stroke-width:1.5;"/><line style="stroke:#FFFFFF;stroke-width:1.5;" x1="83.3574" x2="83.3574" y1="57.522" y2="107.5513"/><path d="M71.3574,45.522 C80.3574,45.522 83.3574,48.522 83.3574,57.522" fill="none" style="stroke:#FFFFFF;stroke-width:1.5;"/><path d="M222.0703,107.5513 C222.0703,116.5513 219.0703,119.5513 210.0703,119.5513" fill="none" style="stroke:#FFFFFF;stroke-width:1.5;"/><line style="stroke:#FFFFFF;stroke-width:1.5;" x1="222.0703" x2="222.0703" y1="57.522" y2="107.5513"/><path d="M222.0703,57.522 C222.0703,48.522 225.0703,45.522 234.0703,45.522" fill="none" style="stroke:#FFFFFF;stroke-width:1.5;"/><ellipse cx="9" cy="45.522" fill="none" rx="4" ry="4" style="stroke:#FFFFFF;stroke-width:2;"/><ellipse cx="264.0703" cy="45.522" fill="#FFFFFF" rx="4" ry="4" style="stroke:#FFFFFF;stroke-width:1;"/><line style="stroke:#FFFFFF;stroke-width:1.5;" x1="13" x2="35" y1="45.522" y2="45.522"/><line style="stroke:#FFFFFF;stroke-width:1.5;" x1="234.0703" x2="260.0703" y1="45.522" y2="45.522"/><path d="M245.0703,45.522 L245.0703,42.522 L251.0703,45.522 L245.0703,48.522 L245.0703,45.522" fill="#FFFFFF"/><text fill="#FFFFFF" font-family="Verdana" font-size="14" font-weight="bold" lengthAdjust="spacing" textLength="86.8916" x="5" y="162.1338">CharLiteral</text><line style="stroke:#FFFFFF;stroke-width:1.5;" x1="35" x2="35" y1="188.5806" y2="188.5806"/><rect fill="none" height="27.0146" style="stroke:#FFFFFF;stroke-width:1;stroke-dasharray:5,5;" width="117.5498" x="35" y="175.0732"/><text fill="#FFFFFF" font-family="Verdana" font-size="14" lengthAdjust="spacing" textLength="97.7061" x="44.9219" y="194.1484">Any character</text><line style="stroke:#FFFFFF;stroke-width:1.5;" x1="152.5498" x2="172.5498" y1="188.5806" y2="188.5806"/><text fill="#FFFFFF" font-family="Verdana" font-size="14" lengthAdjust="spacing" textLength="30.1191" x="175.5498" y="192.52">NOT</text><rect fill="#0B58A8" height="27.0146" rx="5" ry="5" style="stroke:#FFFFFF;stroke-width:1.5;" width="92.7354" x="210.6689" y="175.0732"/><text fill="#FFFFFF" font-family="Verdana" font-size="14" lengthAdjust="spacing" textLength="82.7354" x="215.6689" y="194.1484">WhiteSpace</text><ellipse cx="9" cy="188.5806" fill="none" rx="4" ry="4" style="stroke:#FFFFFF;stroke-width:2;"/><ellipse cx="333.4043" cy="188.5806" fill="#FFFFFF" rx="4" ry="4" style="stroke:#FFFFFF;stroke-width:1;"/><line style="stroke:#FFFFFF;stroke-width:1.5;" x1="13" x2="35" y1="188.5806" y2="188.5806"/><line style="stroke:#FFFFFF;stroke-width:1.5;" x1="303.4043" x2="329.4043" y1="188.5806" y2="188.5806"/><path d="M314.4043,188.5806 L314.4043,185.5806 L320.4043,188.5806 L314.4043,191.5806 L314.4043,188.5806" fill="#FFFFFF"/><text fill="#FFFFFF" font-family="Verdana" font-size="14" font-weight="bold" lengthAdjust="spacing" textLength="81.7305" x="5" y="231.1631">CharName</text><rect fill="none" height="27.0146" style="stroke:#FFFFFF;stroke-width:0.5;" width="63.5391" x="59" y="244.1025"/><text fill="#FFFFFF" font-family="Verdana" font-size="14" lengthAdjust="spacing" textLength="53.5391" x="64" y="263.1777">newline</text><line style="stroke:#FFFFFF;stroke-width:1.5;" x1="35" x2="59" y1="257.6099" y2="257.6099"/><line style="stroke:#FFFFFF;stroke-width:1.5;" x1="122.5391" x2="146.5391" y1="257.6099" y2="257.6099"/><rect fill="none" height="27.0146" style="stroke:#FFFFFF;stroke-width:0.5;" width="50.0586" x="59" y="281.1172"/><text fill="#FFFFFF" font-family="Verdana" font-size="14" lengthAdjust="spacing" textLength="40.0586" x="64" y="300.1924">space</text><path d="M47,282.6245 C47,291.6245 50,294.6245 59,294.6245" fill="none" style="stroke:#FFFFFF;stroke-width:1.5;"/><line style="stroke:#FFFFFF;stroke-width:1.5;" x1="109.0586" x2="122.5391" y1="294.6245" y2="294.6245"/><path d="M134.5391,282.6245 C134.5391,291.6245 131.5391,294.6245 122.5391,294.6245" fill="none" style="stroke:#FFFFFF;stroke-width:1.5;"/><rect fill="none" height="27.0146" style="stroke:#FFFFFF;stroke-width:0.5;" width="32.6475" x="59" y="318.1318"/><text fill="#FFFFFF" font-family="Verdana" font-size="14" lengthAdjust="spacing" textLength="22.6475" x="64" y="337.207">tab</text><path d="M47,319.6392 C47,328.6392 50,331.6392 59,331.6392" fill="none" style="stroke:#FFFFFF;stroke-width:1.5;"/><line style="stroke:#FFFFFF;stroke-width:1.5;" x1="91.6475" x2="122.5391" y1="331.6392" y2="331.6392"/><path d="M105.0933,331.6392 L105.0933,328.6392 L111.0933,331.6392 L105.0933,334.6392 L105.0933,331.6392" fill="#FFFFFF"/><path d="M134.5391,319.6392 C134.5391,328.6392 131.5391,331.6392 122.5391,331.6392" fill="none" style="stroke:#FFFFFF;stroke-width:1.5;"/><rect fill="none" height="27.0146" style="stroke:#FFFFFF;stroke-width:0.5;" width="53.5244" x="59" y="355.1465"/><text fill="#FFFFFF" font-family="Verdana" font-size="14" lengthAdjust="spacing" textLength="43.5244" x="64" y="374.2217">return</text><line style="stroke:#FFFFFF;stroke-width:1.5;" x1="112.5244" x2="122.5391" y1="368.6538" y2="368.6538"/><path d="M47,356.6538 C47,365.6538 50,368.6538 59,368.6538" fill="none" style="stroke:#FFFFFF;stroke-width:1.5;"/><line style="stroke:#FFFFFF;stroke-width:1.5;" x1="47" x2="47" y1="269.6099" y2="356.6538"/><path d="M35,257.6099 C44,257.6099 47,260.6099 47,269.6099" fill="none" style="stroke:#FFFFFF;stroke-width:1.5;"/><path d="M134.5391,356.6538 C134.5391,365.6538 131.5391,368.6538 122.5391,368.6538" fill="none" style="stroke:#FFFFFF;stroke-width:1.5;"/><line style="stroke:#FFFFFF;stroke-width:1.5;" x1="134.5391" x2="134.5391" y1="269.6099" y2="356.6538"/><path d="M134.5391,269.6099 C134.5391,260.6099 137.5391,257.6099 146.5391,257.6099" fill="none" style="stroke:#FFFFFF;stroke-width:1.5;"/><ellipse cx="9" cy="257.6099" fill="none" rx="4" ry="4" style="stroke:#FFFFFF;stroke-width:2;"/><ellipse cx="176.5391" cy="257.6099" fill="#FFFFFF" rx="4" ry="4" style="stroke:#FFFFFF;stroke-width:1;"/><line style="stroke:#FFFFFF;stroke-width:1.5;" x1="13" x2="35" y1="257.6099" y2="257.6099"/><line style="stroke:#FFFFFF;stroke-width:1.5;" x1="146.5391" x2="172.5391" y1="257.6099" y2="257.6099"/><path d="M157.5391,257.6099 L157.5391,254.6099 L163.5391,257.6099 L157.5391,260.6099 L157.5391,257.6099" fill="#FFFFFF"/><text fill="#FFFFFF" font-family="Verdana" font-size="14" font-weight="bold" lengthAdjust="spacing" textLength="117.6055" x="5" y="411.2363">UnicodeEscape</text><line style="stroke:#FFFFFF;stroke-width:1.5;" x1="35" x2="35" y1="437.6831" y2="437.6831"/><rect fill="none" height="27.0146" style="stroke:#FFFFFF;stroke-width:0.5;" width="18.8594" x="35" y="424.1758"/><text fill="#FFFFFF" font-family="Verdana" font-size="14" lengthAdjust="spacing" textLength="8.8594" x="40" y="443.251">u</text><line style="stroke:#FFFFFF;stroke-width:1.5;" x1="53.8594" x2="73.8594" y1="437.6831" y2="437.6831"/><rect fill="#0B58A8" height="27.0146" rx="5" ry="5" style="stroke:#FFFFFF;stroke-width:1.5;" width="69.8555" x="73.8594" y="424.1758"/><text fill="#FFFFFF" font-family="Verdana" font-size="14" lengthAdjust="spacing" textLength="59.8555" x="78.8594" y="443.251">HexDigit</text><line style="stroke:#FFFFFF;stroke-width:1.5;" x1="143.7148" x2="163.7148" y1="437.6831" y2="437.6831"/><rect fill="#0B58A8" height="27.0146" rx="5" ry="5" style="stroke:#FFFFFF;stroke-width:1.5;" width="69.8555" x="163.7148" y="424.1758"/><text fill="#FFFFFF" font-family="Verdana" font-size="14" lengthAdjust="spacing" textLength="59.8555" x="168.7148" y="443.251">HexDigit</text><line style="stroke:#FFFFFF;stroke-width:1.5;" x1="233.5703" x2="253.5703" y1="437.6831" y2="437.6831"/><rect fill="#0B58A8" height="27.0146" rx="5" ry="5" style="stroke:#FFFFFF;stroke-width:1.5;" width="69.8555" x="253.5703" y="424.1758"/><text fill="#FFFFFF" font-family="Verdana" font-size="14" lengthAdjust="spacing" textLength="59.8555" x="258.5703" y="443.251">HexDigit</text><line style="stroke:#FFFFFF;stroke-width:1.5;" x1="323.4258" x2="343.4258" y1="437.6831" y2="437.6831"/><rect fill="#0B58A8" height="27.0146" rx="5" ry="5" style="stroke:#FFFFFF;stroke-width:1.5;" width="69.8555" x="343.4258" y="424.1758"/><text fill="#FFFFFF" font-family="Verdana" font-size="14" lengthAdjust="spacing" textLength="59.8555" x="348.4258" y="443.251">HexDigit</text><ellipse cx="9" cy="437.6831" fill="none" rx="4" ry="4" style="stroke:#FFFFFF;stroke-width:2;"/><ellipse cx="443.2813" cy="437.6831" fill="#FFFFFF" rx="4" ry="4" style="stroke:#FFFFFF;stroke-width:1;"/><line style="stroke:#FFFFFF;stroke-width:1.5;" x1="13" x2="35" y1="437.6831" y2="437.6831"/><line style="stroke:#FFFFFF;stroke-width:1.5;" x1="413.2813" x2="439.2813" y1="437.6831" y2="437.6831"/><path d="M424.2813,437.6831 L424.2813,434.6831 L430.2813,437.6831 L424.2813,440.6831 L424.2813,437.6831" fill="#FFFFFF"/><text fill="#FFFFFF" font-family="Verdana" font-size="14" font-weight="bold" lengthAdjust="spacing" textLength="67.7441" x="5" y="480.2656">HexDigit</text><rect fill="none" height="27.0146" style="stroke:#FFFFFF;stroke-width:1;stroke-dasharray:5,5;" width="107.6924" x="35" y="493.2051"/><text fill="#FFFFFF" font-family="Verdana" font-size="14" lengthAdjust="spacing" textLength="87.8486" x="44.9219" y="512.2803">0-9, a-f, A-F</text><ellipse cx="9" cy="506.7124" fill="none" rx="4" ry="4" style="stroke:#FFFFFF;stroke-width:2;"/><ellipse cx="172.6924" cy="506.7124" fill="#FFFFFF" rx="4" ry="4" style="stroke:#FFFFFF;stroke-width:1;"/><line style="stroke:#FFFFFF;stroke-width:1.5;" x1="13" x2="35" y1="506.7124" y2="506.7124"/><line style="stroke:#FFFFFF;stroke-width:1.5;" x1="142.6924" x2="168.6924" y1="506.7124" y2="506.7124"/><path d="M153.6924,506.7124 L153.6924,503.7124 L159.6924,506.7124 L153.6924,509.7124 L153.6924,506.7124" fill="#FFFFFF"/><!--SRC=[xLPTTzeu47tthvXbNv9pGfUGiYUXxJP0GjCif9mwIL_wCjW3Q36IAyiax3R_VKVYo-PZqoJqRNsEGHxTkPBkZ4OwJGngGrtPytun0neHu4ZqqMiCK6DWICCxA7mjm07iWRMr1DimWk_kwmhPuJlSI16eaCwJ06E2VNZZULdiEtWFDJc1OC7v7ehmPS3TVem1pV6EZOUJT1S9IGLcBYGMu5e6k-vVaqcrB5Yd_BZicTg9Nj3zcUWBytYJAHPjEybIyUG0iDWxW5gnoTzll5EIeHF7ErqADNtU9cOIqHyUW5RAm3_S0AXZCEnhbSgmeIAbuTTIlN9SEtPzJINDpDfqpyBg5dvBEaI9pdWnYOdbayCv_gnsLAwuBhRIEekrNWz4C9IK973eR6tKVI71kZtm6weW7P6SpvGbCqB9sTSgGybP7znlZvV7CNiSE20CVmXeX8beWRCA-E9lWdBv4K_xMdNZY-n8QvglgBiv4hwD7dHL5Cw89MVIZB6DzsAKZhw8q0pWg5IQ8JJrI9CCw6SCdr3CkyEedTA-_MsMf5uo5D8EC8AQrkgkfQ98n2hESoz1s_9uYJYZ7gQHMKlVDKHRIULsSRZ0DbIg1UaCjYLwPFUyRrW3wayu6ecAH9Y1T7ZxYK34A4q7mr38FXoMClq-VKjjS2oLJQ2wqXoaRGlq1nYgEqlImoYXJCzDGdKoE5NIw9HouWL6Z8MPk21jt-nrrAjHspITpJLXJTA7R63iSAYd4rZtpaFl7MgkLYNNsn0wY2XSrlaLmiLQrg86y1b3aIPmaYUCa3Vh8xhiHWGtLCqOBRgfeIrI_0Y7pmidPRZQFe-akIoDJ_RD596d-zhpWVVBqBdd3uaixcEWP8UZWNtA8HT9kILIQnnQZD6yb8EruamBNyQITYCHF9lYIZqtNpvr_-BPJ_DxGnO_v2hLKl4TPRnlvl8_RNFbEUR9NjlCz9-rQZDJOsTCvpjZ-hWpfgiNCl5Hqi24feJNJwmo_z_0LsxWdOYF_fjs2yQa4tjrFNnLBfKhhrxl-MZWCfLGFeR3eshff5gkGEFSlmRRl-_jVUYq8E7JYnSQYcHwR331ldU9OuJFgJHYH5Nu59EyFFjpRe1pEHPQINjfzYvlsql0xw-BTPwmJvgd0hTjRtRLOGzMWy_QAjnSDul7NWjbF-LIK0MI7f-VqkW9z_d_0W00]--></g></svg>