<svg xmlns="http://www.w3.org/2000/svg" xmlns:xlink="http://www.w3.org/1999/xlink" contentStyleType="text/css" data-diagram-type="EBNF" height="179px" preserveAspectRatio="none" style="width:736px;height:179px;background:#0B58A8;" version="1.1" viewBox="0 0 736 179" width="736px" zoomAndPan="magnify"><defs/><g><rect fill="#0B58A8" height="179" style="stroke:none;stroke-width:1;" width="736" x="0" y="0"/><text fill="#FFFFFF" font-family="Verdana" font-size="14" font-weight="bold" lengthAdjust="spacing" textLength="32.4092" x="5" y="19.0752">Map</text><line style="stroke:#FFFFFF;stroke-width:1.5;" x1="35" x2="35" y1="45.522" y2="45.522"/><rect fill="none" height="27.0146" style="stroke:#FFFFFF;stroke-width:0.5;" width="18.8867" x="35" y="32.0146"/><text fill="#FFFFFF" font-family="Verdana" font-size="14" lengthAdjust="spacing" textLength="8.8867" x="40" y="51.0898">{</text><line style="stroke:#FFFFFF;stroke-width:1.5;" x1="53.8867" x2="73.8867" y1="45.522" y2="45.522"/><line style="stroke:#FFFFFF;stroke-width:1.5;" x1="73.8867" x2="244.6221" y1="45.522" y2="45.522"/><path d="M140.1809,45.522 L140.1809,42.522 L146.1809,45.522 L140.1809,48.522 L140.1809,45.522" fill="#FFFFFF"/><path d="M73.8867,45.522 C82.8867,45.522 85.8867,54.2756 85.8867,63.2756 C85.8867,72.2756 88.8867,81.0293 97.8867,81.0293" fill="none" style="stroke:#FFFFFF;stroke-width:1.5;"/><path d="M220.6221,81.0293 C229.6221,81.0293 232.6221,72.2756 232.6221,63.2756 C232.6221,54.2756 235.6221,45.522 244.6221,45.522" fill="none" style="stroke:#FFFFFF;stroke-width:1.5;"/><path d="M105.8867,73.0293 C105.8867,79.0293 107.8867,81.0293 113.8867,81.0293" fill="none" style="stroke:#FFFFFF;stroke-width:1.5;"/><line style="stroke:#FFFFFF;stroke-width:1.5;" x1="105.8867" x2="105.8867" y1="68.522" y2="73.0293"/><path d="M105.8867,68.522 C105.8867,62.522 107.8867,60.522 113.8867,60.522" fill="none" style="stroke:#FFFFFF;stroke-width:1.5;"/><line style="stroke:#FFFFFF;stroke-width:1.5;" x1="112.8867" x2="205.6221" y1="60.522" y2="60.522"/><path d="M166.5279,60.522 L166.5279,57.522 L160.5279,60.522 L166.5279,63.522 L166.5279,60.522" fill="#FFFFFF"/><path d="M212.6221,73.0293 C212.6221,79.0293 210.6221,81.0293 204.6221,81.0293" fill="none" style="stroke:#FFFFFF;stroke-width:1.5;"/><line style="stroke:#FFFFFF;stroke-width:1.5;" x1="212.6221" x2="212.6221" y1="68.522" y2="73.0293"/><path d="M204.6221,60.522 C210.6221,60.522 212.6221,62.522 212.6221,68.522" fill="none" style="stroke:#FFFFFF;stroke-width:1.5;"/><line style="stroke:#FFFFFF;stroke-width:1.5;" x1="97.8867" x2="112.8867" y1="81.0293" y2="81.0293"/><line style="stroke:#FFFFFF;stroke-width:1.5;" x1="205.6221" x2="220.6221" y1="81.0293" y2="81.0293"/><rect fill="#0B58A8" height="27.0146" rx="5" ry="5" style="stroke:#FFFFFF;stroke-width:1.5;" width="92.7354" x="112.8867" y="67.522"/><text fill="#FFFFFF" font-family="Verdana" font-size="14" lengthAdjust="spacing" textLength="82.7354" x="117.8867" y="86.5972">WhiteSpace</text><line style="stroke:#FFFFFF;stroke-width:1.5;" x1="244.6221" x2="264.6221" y1="45.522" y2="45.522"/><line style="stroke:#FFFFFF;stroke-width:1.5;" x1="264.6221" x2="657.1592" y1="45.522" y2="45.522"/><path d="M419.6369,45.522 L419.6369,42.522 L425.6369,45.522 L419.6369,48.522 L419.6369,45.522" fill="#FFFFFF"/><path d="M264.6221,45.522 C273.6221,45.522 276.6221,67.7756 276.6221,76.7756 C276.6221,85.7756 279.6221,108.0293 288.6221,108.0293" fill="none" style="stroke:#FFFFFF;stroke-width:1.5;"/><path d="M633.1592,108.0293 C642.1592,108.0293 645.1592,85.7756 645.1592,76.7756 C645.1592,67.7756 648.1592,45.522 657.1592,45.522" fill="none" style="stroke:#FFFFFF;stroke-width:1.5;"/><path d="M296.6221,100.0293 C296.6221,106.0293 298.6221,108.0293 304.6221,108.0293" fill="none" style="stroke:#FFFFFF;stroke-width:1.5;"/><line style="stroke:#FFFFFF;stroke-width:1.5;" x1="296.6221" x2="296.6221" y1="68.522" y2="100.0293"/><path d="M296.6221,68.522 C296.6221,62.522 298.6221,60.522 304.6221,60.522" fill="none" style="stroke:#FFFFFF;stroke-width:1.5;"/><line style="stroke:#FFFFFF;stroke-width:1.5;" x1="303.6221" x2="618.1592" y1="60.522" y2="60.522"/><path d="M490.3443,60.522 L490.3443,57.522 L484.3443,60.522 L490.3443,63.522 L490.3443,60.522" fill="#FFFFFF"/><path d="M625.1592,100.0293 C625.1592,106.0293 623.1592,108.0293 617.1592,108.0293" fill="none" style="stroke:#FFFFFF;stroke-width:1.5;"/><line style="stroke:#FFFFFF;stroke-width:1.5;" x1="625.1592" x2="625.1592" y1="68.522" y2="100.0293"/><path d="M617.1592,60.522 C623.1592,60.522 625.1592,62.522 625.1592,68.522" fill="none" style="stroke:#FFFFFF;stroke-width:1.5;"/><line style="stroke:#FFFFFF;stroke-width:1.5;" x1="288.6221" x2="303.6221" y1="108.0293" y2="108.0293"/><line style="stroke:#FFFFFF;stroke-width:1.5;" x1="618.1592" x2="633.1592" y1="108.0293" y2="108.0293"/><path d="M311.6221,100.0293 C311.6221,106.0293 313.6221,108.0293 319.6221,108.0293" fill="none" style="stroke:#FFFFFF;stroke-width:1.5;"/><line style="stroke:#FFFFFF;stroke-width:1.5;" x1="311.6221" x2="311.6221" y1="95.522" y2="100.0293"/><path d="M311.6221,95.522 C311.6221,89.522 313.6221,87.522 319.6221,87.522" fill="none" style="stroke:#FFFFFF;stroke-width:1.5;"/><line style="stroke:#FFFFFF;stroke-width:1.5;" x1="318.6221" x2="603.1592" y1="87.522" y2="87.522"/><path d="M487.3443,87.522 L487.3443,84.522 L481.3443,87.522 L487.3443,90.522 L487.3443,87.522" fill="#FFFFFF"/><path d="M610.1592,100.0293 C610.1592,106.0293 608.1592,108.0293 602.1592,108.0293" fill="none" style="stroke:#FFFFFF;stroke-width:1.5;"/><line style="stroke:#FFFFFF;stroke-width:1.5;" x1="610.1592" x2="610.1592" y1="95.522" y2="100.0293"/><path d="M602.1592,87.522 C608.1592,87.522 610.1592,89.522 610.1592,95.522" fill="none" style="stroke:#FFFFFF;stroke-width:1.5;"/><line style="stroke:#FFFFFF;stroke-width:1.5;" x1="303.6221" x2="318.6221" y1="108.0293" y2="108.0293"/><line style="stroke:#FFFFFF;stroke-width:1.5;" x1="603.1592" x2="618.1592" y1="108.0293" y2="108.0293"/><line style="stroke:#FFFFFF;stroke-width:1.5;" x1="318.6221" x2="318.6221" y1="108.0293" y2="108.0293"/><rect fill="#0B58A8" height="27.0146" rx="5" ry="5" style="stroke:#FFFFFF;stroke-width:1.5;" width="93.8018" x="318.6221" y="94.522"/><text fill="#FFFFFF" font-family="Verdana" font-size="14" lengthAdjust="spacing" textLength="83.8018" x="323.6221" y="113.5972">EdnElement</text><line style="stroke:#FFFFFF;stroke-width:1.5;" x1="412.4238" x2="432.4238" y1="108.0293" y2="108.0293"/><line style="stroke:#FFFFFF;stroke-width:1.5;" x1="432.4238" x2="603.1592" y1="108.0293" y2="108.0293"/><path d="M498.718,108.0293 L498.718,105.0293 L504.718,108.0293 L498.718,111.0293 L498.718,108.0293" fill="#FFFFFF"/><path d="M432.4238,108.0293 C441.4238,108.0293 444.4238,116.783 444.4238,125.783 C444.4238,134.783 447.4238,143.5366 456.4238,143.5366" fill="none" style="stroke:#FFFFFF;stroke-width:1.5;"/><path d="M579.1592,143.5366 C588.1592,143.5366 591.1592,134.783 591.1592,125.783 C591.1592,116.783 594.1592,108.0293 603.1592,108.0293" fill="none" style="stroke:#FFFFFF;stroke-width:1.5;"/><path d="M464.4238,135.5366 C464.4238,141.5366 466.4238,143.5366 472.4238,143.5366" fill="none" style="stroke:#FFFFFF;stroke-width:1.5;"/><line style="stroke:#FFFFFF;stroke-width:1.5;" x1="464.4238" x2="464.4238" y1="131.0293" y2="135.5366"/><path d="M464.4238,131.0293 C464.4238,125.0293 466.4238,123.0293 472.4238,123.0293" fill="none" style="stroke:#FFFFFF;stroke-width:1.5;"/><line style="stroke:#FFFFFF;stroke-width:1.5;" x1="471.4238" x2="564.1592" y1="123.0293" y2="123.0293"/><path d="M525.065,123.0293 L525.065,120.0293 L519.065,123.0293 L525.065,126.0293 L525.065,123.0293" fill="#FFFFFF"/><path d="M571.1592,135.5366 C571.1592,141.5366 569.1592,143.5366 563.1592,143.5366" fill="none" style="stroke:#FFFFFF;stroke-width:1.5;"/><line style="stroke:#FFFFFF;stroke-width:1.5;" x1="571.1592" x2="571.1592" y1="131.0293" y2="135.5366"/><path d="M563.1592,123.0293 C569.1592,123.0293 571.1592,125.0293 571.1592,131.0293" fill="none" style="stroke:#FFFFFF;stroke-width:1.5;"/><line style="stroke:#FFFFFF;stroke-width:1.5;" x1="456.4238" x2="471.4238" y1="143.5366" y2="143.5366"/><line style="stroke:#FFFFFF;stroke-width:1.5;" x1="564.1592" x2="579.1592" y1="143.5366" y2="143.5366"/><rect fill="#0B58A8" height="27.0146" rx="5" ry="5" style="stroke:#FFFFFF;stroke-width:1.5;" width="92.7354" x="471.4238" y="130.0293"/><text fill="#FFFFFF" font-family="Verdana" font-size="14" lengthAdjust="spacing" textLength="82.7354" x="476.4238" y="149.1045">WhiteSpace</text><path d="M303.6221,82.522 C303.6221,78.772 304.8721,77.522 308.6221,77.522" fill="none" style="stroke:#FFFFFF;stroke-width:0.5;"/><path d="M460.8906,72.522 C460.8906,76.272 459.6406,77.522 455.8906,77.522" fill="none" style="stroke:#FFFFFF;stroke-width:0.5;"/><path d="M460.8906,72.522 C460.8906,76.272 462.1406,77.522 465.8906,77.522" fill="none" style="stroke:#FFFFFF;stroke-width:0.5;"/><path d="M613.1592,77.522 C616.9092,77.522 618.1592,78.772 618.1592,82.522" fill="none" style="stroke:#FFFFFF;stroke-width:0.5;"/><line style="stroke:#FFFFFF;stroke-width:0.5;" x1="308.6221" x2="455.8906" y1="77.522" y2="77.522"/><line style="stroke:#FFFFFF;stroke-width:0.5;" x1="465.8906" x2="613.1592" y1="77.522" y2="77.522"/><text fill="#FFFFFF" font-family="Verdana" font-size="12" lengthAdjust="spacing" textLength="17.4492" x="452.166" y="70.0415">2&#215;</text><line style="stroke:#FFFFFF;stroke-width:1.5;" x1="657.1592" x2="677.1592" y1="45.522" y2="45.522"/><rect fill="none" height="27.0146" style="stroke:#FFFFFF;stroke-width:0.5;" width="18.8867" x="677.1592" y="32.0146"/><text fill="#FFFFFF" font-family="Verdana" font-size="14" lengthAdjust="spacing" textLength="8.8867" x="682.1592" y="51.0898">}</text><ellipse cx="9" cy="45.522" fill="none" rx="4" ry="4" style="stroke:#FFFFFF;stroke-width:2;"/><ellipse cx="726.0459" cy="45.522" fill="#FFFFFF" rx="4" ry="4" style="stroke:#FFFFFF;stroke-width:1;"/><line style="stroke:#FFFFFF;stroke-width:1.5;" x1="13" x2="35" y1="45.522" y2="45.522"/><line style="stroke:#FFFFFF;stroke-width:1.5;" x1="696.0459" x2="722.0459" y1="45.522" y2="45.522"/><path d="M707.0459,45.522 L707.0459,42.522 L713.0459,45.522 L707.0459,48.522 L707.0459,45.522" fill="#FFFFFF"/><!--SRC=[jLPRKzf057xFhpYbBzgfDY1qaDgENAiMb36epqls05l2RhhPeDJXltStt183LHGp4uQS_SwtPyzrJmD5fC8kxraVr01726J4-iIoMiI7xv1vpC1dU8Ix0LFe-CH5c4Q277o2FQXJNlUq4bTfr7w4p4mpyCsoJf7JQ1FhTBNXx3a9rCJ37nQ054B1e_u3K27ki2z5o6bLU4B2HxjIA9QBqLf3S3MNDg9dARqaslvRb9Hm4WdF9ZxA9kF31RvMFieLeYKjnJIBaNO6p1ro30B8Hh8MaNt6mQXDzKk56qOddbdg4bynmUTVJndiI3gDVdlwU2XV01mWeIy2AgOyNEAC1nps5o6NUqRJlCQx_bbyfvJFdtXtVIGS4pte2e_EYRcW2vjQv86Dmj4Tese0HxOzHqZieKJkudji7w1F955YfxGdN-P9QWL3niq68oXBAUwRmlEOB_mazmgqAOzNY1hsIEYfLFgc42t1HM1gYownLH5AXZA6RR8UUZhgZj8-mFv4HoCG7gCnI5kN7tEPJxXg4qePxqFMZgqx-2SqmJ5K9e4gGkeWRJgWCo1Kt1kI7l42ZAtS15X1HMQUL3B4XFDSnSPCJQ8WRIxs2f5FexREdFKz8UNIQJmmPZiYPmQajPFGXmYry5OXiLfbqlMGLWVwortKzxh4IaKDu9fG5WPmd2JqY2xMP_oo6oT4MvMLagmRAjpWYfTmEFhWA9JkjgyZQQnQuzQwiIQolQwP3xfUXf5wSaZ4SUUku6qT3TB717APb1iYbUAGR4pKMpcqhtIcqRUnX5sFkQ-ck1IlpPUhxczj_Io_rsJnDD6fLXxVKSOxQk7-xOehoR58zl9wfl_sglLCrPqnrNV6TBupfiitCkbHKYK1pWWxMtQPTxl9jZqzGczQJHYZ3CmLC7kOitE5mwozrmbHbyWOx3naYwMSNSeVGxNU0RE-R-tzR3SXq5D0irCMpDgl9jYtBiYOm7N85HjX2Qvyv1UrNmi1rFcOIS6DaTR5RMi5-9e_g32b9xVKfi1jovfV6RI6AypCAi5Dft5Gj9g4zqDTKYL0Rkavn9MSbA1M_mS0]--></g></svg>