<svg xmlns="http://www.w3.org/2000/svg" xmlns:xlink="http://www.w3.org/1999/xlink" contentStyleType="text/css" data-diagram-type="EBNF" height="246px" preserveAspectRatio="none" style="width:416px;height:246px;background:#0B58A8;" version="1.1" viewBox="0 0 416 246" width="416px" zoomAndPan="magnify"><defs/><g><rect fill="#0B58A8" height="246" style="stroke:none;stroke-width:1;" width="416" x="0" y="0"/><text fill="#FFFFFF" font-family="Verdana" font-size="14" font-weight="bold" lengthAdjust="spacing" textLength="32.4092" x="5" y="19.0752">Map</text><line style="stroke:#FFFFFF;stroke-width:1.5;" x1="35" x2="35" y1="45.522" y2="45.522"/><rect fill="none" height="27.0146" style="stroke:#FFFFFF;stroke-width:0.5;" width="18.8867" x="35" y="32.0146"/><text fill="#FFFFFF" font-family="Verdana" font-size="14" lengthAdjust="spacing" textLength="8.8867" x="40" y="51.0898">{</text><line style="stroke:#FFFFFF;stroke-width:1.5;" x1="53.8867" x2="73.8867" y1="45.522" y2="45.522"/><line style="stroke:#FFFFFF;stroke-width:1.5;" x1="73.8867" x2="276.3047" y1="45.522" y2="45.522"/><path d="M152.8539,45.522 L152.8539,42.522 L158.8539,45.522 L152.8539,48.522 L152.8539,45.522" fill="#FFFFFF"/><path d="M73.8867,45.522 C82.8867,45.522 85.8867,54.2756 85.8867,63.2756 C85.8867,72.2756 88.8867,81.0293 97.8867,81.0293" fill="none" style="stroke:#FFFFFF;stroke-width:1.5;"/><path d="M252.3047,81.0293 C261.3047,81.0293 264.3047,72.2756 264.3047,63.2756 C264.3047,54.2756 267.3047,45.522 276.3047,45.522" fill="none" style="stroke:#FFFFFF;stroke-width:1.5;"/><path d="M105.8867,73.0293 C105.8867,79.0293 107.8867,81.0293 113.8867,81.0293" fill="none" style="stroke:#FFFFFF;stroke-width:1.5;"/><line style="stroke:#FFFFFF;stroke-width:1.5;" x1="105.8867" x2="105.8867" y1="68.522" y2="73.0293"/><path d="M105.8867,68.522 C105.8867,62.522 107.8867,60.522 113.8867,60.522" fill="none" style="stroke:#FFFFFF;stroke-width:1.5;"/><line style="stroke:#FFFFFF;stroke-width:1.5;" x1="112.8867" x2="237.3047" y1="60.522" y2="60.522"/><path d="M185.5375,60.522 L185.5375,57.522 L179.5375,60.522 L185.5375,63.522 L185.5375,60.522" fill="#FFFFFF"/><path d="M244.3047,73.0293 C244.3047,79.0293 242.3047,81.0293 236.3047,81.0293" fill="none" style="stroke:#FFFFFF;stroke-width:1.5;"/><line style="stroke:#FFFFFF;stroke-width:1.5;" x1="244.3047" x2="244.3047" y1="68.522" y2="73.0293"/><path d="M236.3047,60.522 C242.3047,60.522 244.3047,62.522 244.3047,68.522" fill="none" style="stroke:#FFFFFF;stroke-width:1.5;"/><line style="stroke:#FFFFFF;stroke-width:1.5;" x1="97.8867" x2="112.8867" y1="81.0293" y2="81.0293"/><line style="stroke:#FFFFFF;stroke-width:1.5;" x1="237.3047" x2="252.3047" y1="81.0293" y2="81.0293"/><rect fill="#0B58A8" height="27.0146" rx="5" ry="5" style="stroke:#FFFFFF;stroke-width:1.5;" width="65.4189" x="136.8867" y="67.522"/><text fill="#FFFFFF" font-family="Verdana" font-size="14" lengthAdjust="spacing" textLength="55.4189" x="141.8867" y="86.5972">Spacing</text><line style="stroke:#FFFFFF;stroke-width:1.5;" x1="112.8867" x2="136.8867" y1="81.0293" y2="81.0293"/><line style="stroke:#FFFFFF;stroke-width:1.5;" x1="202.3057" x2="237.3047" y1="81.0293" y2="81.0293"/><rect fill="#0B58A8" height="27.0146" rx="5" ry="5" style="stroke:#FFFFFF;stroke-width:1.5;" width="76.418" x="136.8867" y="104.5366"/><text fill="#FFFFFF" font-family="Verdana" font-size="14" lengthAdjust="spacing" textLength="66.418" x="141.8867" y="123.6118">MapEntry</text><line style="stroke:#FFFFFF;stroke-width:1.5;" x1="213.3047" x2="213.3047" y1="118.0439" y2="118.0439"/><path d="M124.8867,106.0439 C124.8867,115.0439 127.8867,118.0439 136.8867,118.0439" fill="none" style="stroke:#FFFFFF;stroke-width:1.5;"/><line style="stroke:#FFFFFF;stroke-width:1.5;" x1="124.8867" x2="124.8867" y1="93.0293" y2="106.0439"/><path d="M112.8867,81.0293 C121.8867,81.0293 124.8867,84.0293 124.8867,93.0293" fill="none" style="stroke:#FFFFFF;stroke-width:1.5;"/><path d="M225.3047,106.0439 C225.3047,115.0439 222.3047,118.0439 213.3047,118.0439" fill="none" style="stroke:#FFFFFF;stroke-width:1.5;"/><line style="stroke:#FFFFFF;stroke-width:1.5;" x1="225.3047" x2="225.3047" y1="93.0293" y2="106.0439"/><path d="M225.3047,93.0293 C225.3047,84.0293 228.3047,81.0293 237.3047,81.0293" fill="none" style="stroke:#FFFFFF;stroke-width:1.5;"/><line style="stroke:#FFFFFF;stroke-width:1.5;" x1="276.3047" x2="296.3047" y1="45.522" y2="45.522"/><rect fill="none" height="27.0146" style="stroke:#FFFFFF;stroke-width:0.5;" width="18.8867" x="296.3047" y="32.0146"/><text fill="#FFFFFF" font-family="Verdana" font-size="14" lengthAdjust="spacing" textLength="8.8867" x="301.3047" y="51.0898">}</text><ellipse cx="9" cy="45.522" fill="none" rx="4" ry="4" style="stroke:#FFFFFF;stroke-width:2;"/><ellipse cx="345.1914" cy="45.522" fill="#FFFFFF" rx="4" ry="4" style="stroke:#FFFFFF;stroke-width:1;"/><line style="stroke:#FFFFFF;stroke-width:1.5;" x1="13" x2="35" y1="45.522" y2="45.522"/><line style="stroke:#FFFFFF;stroke-width:1.5;" x1="315.1914" x2="341.1914" y1="45.522" y2="45.522"/><path d="M326.1914,45.522 L326.1914,42.522 L332.1914,45.522 L326.1914,48.522 L326.1914,45.522" fill="#FFFFFF"/><text fill="#FFFFFF" font-family="Verdana" font-size="14" font-weight="bold" lengthAdjust="spacing" textLength="74.3955" x="5" y="160.6265">MapEntry</text><line style="stroke:#FFFFFF;stroke-width:1.5;" x1="35" x2="35" y1="187.0732" y2="187.0732"/><rect fill="#0B58A8" height="27.0146" rx="5" ry="5" style="stroke:#FFFFFF;stroke-width:1.5;" width="93.8018" x="35" y="173.5659"/><text fill="#FFFFFF" font-family="Verdana" font-size="14" lengthAdjust="spacing" textLength="83.8018" x="40" y="192.6411">EdnElement</text><line style="stroke:#FFFFFF;stroke-width:1.5;" x1="128.8018" x2="148.8018" y1="187.0732" y2="187.0732"/><line style="stroke:#FFFFFF;stroke-width:1.5;" x1="148.8018" x2="262.2207" y1="187.0732" y2="187.0732"/><path d="M192.1693,187.0732 L192.1693,184.0732 L198.1693,187.0732 L192.1693,190.0732 L192.1693,187.0732" fill="#FFFFFF"/><path d="M148.8018,187.0732 C157.8018,187.0732 160.8018,189.8269 160.8018,198.8269 C160.8018,207.8269 163.8018,210.5806 172.8018,210.5806" fill="none" style="stroke:#FFFFFF;stroke-width:1.5;"/><path d="M238.2207,210.5806 C247.2207,210.5806 250.2207,207.8269 250.2207,198.8269 C250.2207,189.8269 253.2207,187.0732 262.2207,187.0732" fill="none" style="stroke:#FFFFFF;stroke-width:1.5;"/><rect fill="#0B58A8" height="27.0146" rx="5" ry="5" style="stroke:#FFFFFF;stroke-width:1.5;" width="65.4189" x="172.8018" y="197.0732"/><text fill="#FFFFFF" font-family="Verdana" font-size="14" lengthAdjust="spacing" textLength="55.4189" x="177.8018" y="216.1484">Spacing</text><line style="stroke:#FFFFFF;stroke-width:1.5;" x1="262.2207" x2="282.2207" y1="187.0732" y2="187.0732"/><rect fill="#0B58A8" height="27.0146" rx="5" ry="5" style="stroke:#FFFFFF;stroke-width:1.5;" width="93.8018" x="282.2207" y="173.5659"/><text fill="#FFFFFF" font-family="Verdana" font-size="14" lengthAdjust="spacing" textLength="83.8018" x="287.2207" y="192.6411">EdnElement</text><ellipse cx="9" cy="187.0732" fill="none" rx="4" ry="4" style="stroke:#FFFFFF;stroke-width:2;"/><ellipse cx="406.0225" cy="187.0732" fill="#FFFFFF" rx="4" ry="4" style="stroke:#FFFFFF;stroke-width:1;"/><line style="stroke:#FFFFFF;stroke-width:1.5;" x1="13" x2="35" y1="187.0732" y2="187.0732"/><line style="stroke:#FFFFFF;stroke-width:1.5;" x1="376.0225" x2="402.0225" y1="187.0732" y2="187.0732"/><path d="M387.0225,187.0732 L387.0225,184.0732 L393.0225,187.0732 L387.0225,190.0732 L387.0225,187.0732" fill="#FFFFFF"/><!--SRC=[lLPjKzf04FwUNx6bN-nCjOZIGTIEW52re8nH-w7J3qTkWIlXBhrSK6hvxzqBRub0VQDb1eRiFllSthxcA3HC6sp9jlF6TB6FmFgYmvm62-0GClSPU0_tu0RC4x83lu7aLMdq44Qao8moiEyuCzaXLBci-iGY3Qc_pUo-qrD2jUySeUJneSxHt87nvo0qGny_EG1QAGFtz0UWpBnUHwj8yehobOQtsNA-K2h4kfgIPYAjnP-Pz9pHVMvGSoPPB3mP1gZhGlQc-EFIJYuVgqYAYonMUjKLNazY6C9sB6imtH4IhDc8lbnvKNohiQSU2unGSlBqa24RIqVnRvkkX_e9m2uo_YIW4SR76Sv6m1M_47AvHopjrqOtE4cUj13p1z5TdWdNPWzQokSJOgdurAS6knFzgFzLSDE5dMnsWj3OHetImtznV8W1qyoejT8UV9WKgHFsXBG7zA6ajRgjAzyNWGhIt7FGgZgU8uwnpIBVB9Jl0gAXf0gflv3Fi1KLQO4wWQsBDlgKTTTG3B0pf6o4oXSy0MbI-mbF14oQ9kFSjkjsDg5tyMTaasEfR06LbQOahRgWssLStLgIDlD3J6YkGooZOUD86XrXAdYU4GDXXd6ILZTxcUc7MLlcplAPi13IKJ8nzZYcnmuiMgUXTp5g6gryIbiHslEHLxhqv4txUrbXBMGDu99n4OMmboRq6JNh8t5PJn3Yeqh6QD6A3Au8nLCuNBeuAaFJzcKajVbeVBPjOeWytzRk1-gNNcoUNX99tAcdP9EomJgOGiwASaMc5ZYq633pMWwA5LKQVnrBrFA5zsAAS_NIUhbe_I3ln_Mzf8f7gKarZ_YQAjurq_0_hxdI7DDYBord-kkiMivKMHjJTMrCfsjZEdyb4wsI2WjnJ7Zrp2dptzvicpwjrEj67GQeG_jAkBsLo-RoMxiRBZDm5ad85M1xfvZTA-RoKAcwLs3rxvoDpyqwXBGLF0Gkml4u9e9tpXaRCBYCf15zBC95WFBi-CjK05Kv45f9wuXpTjEO0pxkRfQ5eKskoHMuQJYJLmYoy9JTOKMulgfj5fmwavs8Mgm8A1tQI_Rkf7F_0000]--></g></svg>