<svg xmlns="http://www.w3.org/2000/svg" xmlns:xlink="http://www.w3.org/1999/xlink" contentStyleType="text/css" data-diagram-type="EBNF" height="375px" preserveAspectRatio="none" style="width:565px;height:375px;background:#0B58A8;" version="1.1" viewBox="0 0 565 375" width="565px" zoomAndPan="magnify"><defs/><g><rect fill="#0B58A8" height="375" style="stroke:none;stroke-width:1;" width="565" x="0" y="0"/><text fill="#FFFFFF" font-family="Verdana" font-size="14" font-weight="bold" lengthAdjust="spacing" textLength="32.4092" x="5" y="19.0752">Map</text><line style="stroke:#FFFFFF;stroke-width:1.5;" x1="35" x2="35" y1="45.522" y2="45.522"/><rect fill="none" height="27.0146" style="stroke:#FFFFFF;stroke-width:0.5;" width="18.8867" x="35" y="32.0146"/><text fill="#FFFFFF" font-family="Verdana" font-size="14" lengthAdjust="spacing" textLength="8.8867" x="40" y="51.0898">{</text><line style="stroke:#FFFFFF;stroke-width:1.5;" x1="53.8867" x2="73.8867" y1="45.522" y2="45.522"/><line style="stroke:#FFFFFF;stroke-width:1.5;" x1="73.8867" x2="276.3047" y1="45.522" y2="45.522"/><path d="M152.8539,45.522 L152.8539,42.522 L158.8539,45.522 L152.8539,48.522 L152.8539,45.522" fill="#FFFFFF"/><path d="M73.8867,45.522 C82.8867,45.522 85.8867,54.2756 85.8867,63.2756 C85.8867,72.2756 88.8867,81.0293 97.8867,81.0293" fill="none" style="stroke:#FFFFFF;stroke-width:1.5;"/><path d="M252.3047,81.0293 C261.3047,81.0293 264.3047,72.2756 264.3047,63.2756 C264.3047,54.2756 267.3047,45.522 276.3047,45.522" fill="none" style="stroke:#FFFFFF;stroke-width:1.5;"/><path d="M105.8867,73.0293 C105.8867,79.0293 107.8867,81.0293 113.8867,81.0293" fill="none" style="stroke:#FFFFFF;stroke-width:1.5;"/><line style="stroke:#FFFFFF;stroke-width:1.5;" x1="105.8867" x2="105.8867" y1="68.522" y2="73.0293"/><path d="M105.8867,68.522 C105.8867,62.522 107.8867,60.522 113.8867,60.522" fill="none" style="stroke:#FFFFFF;stroke-width:1.5;"/><line style="stroke:#FFFFFF;stroke-width:1.5;" x1="112.8867" x2="237.3047" y1="60.522" y2="60.522"/><path d="M185.5375,60.522 L185.5375,57.522 L179.5375,60.522 L185.5375,63.522 L185.5375,60.522" fill="#FFFFFF"/><path d="M244.3047,73.0293 C244.3047,79.0293 242.3047,81.0293 236.3047,81.0293" fill="none" style="stroke:#FFFFFF;stroke-width:1.5;"/><line style="stroke:#FFFFFF;stroke-width:1.5;" x1="244.3047" x2="244.3047" y1="68.522" y2="73.0293"/><path d="M236.3047,60.522 C242.3047,60.522 244.3047,62.522 244.3047,68.522" fill="none" style="stroke:#FFFFFF;stroke-width:1.5;"/><line style="stroke:#FFFFFF;stroke-width:1.5;" x1="97.8867" x2="112.8867" y1="81.0293" y2="81.0293"/><line style="stroke:#FFFFFF;stroke-width:1.5;" x1="237.3047" x2="252.3047" y1="81.0293" y2="81.0293"/><rect fill="#0B58A8" height="27.0146" rx="5" ry="5" style="stroke:#FFFFFF;stroke-width:1.5;" width="65.4189" x="136.8867" y="67.522"/><text fill="#FFFFFF" font-family="Verdana" font-size="14" lengthAdjust="spacing" textLength="55.4189" x="141.8867" y="86.5972">Spacing</text><line style="stroke:#FFFFFF;stroke-width:1.5;" x1="112.8867" x2="136.8867" y1="81.0293" y2="81.0293"/><line style="stroke:#FFFFFF;stroke-width:1.5;" x1="202.3057" x2="237.3047" y1="81.0293" y2="81.0293"/><rect fill="#0B58A8" height="27.0146" rx="5" ry="5" style="stroke:#FFFFFF;stroke-width:1.5;" width="76.418" x="136.8867" y="104.5366"/><text fill="#FFFFFF" font-family="Verdana" font-size="14" lengthAdjust="spacing" textLength="66.418" x="141.8867" y="123.6118">MapEntry</text><line style="stroke:#FFFFFF;stroke-width:1.5;" x1="213.3047" x2="213.3047" y1="118.0439" y2="118.0439"/><path d="M124.8867,106.0439 C124.8867,115.0439 127.8867,118.0439 136.8867,118.0439" fill="none" style="stroke:#FFFFFF;stroke-width:1.5;"/><line style="stroke:#FFFFFF;stroke-width:1.5;" x1="124.8867" x2="124.8867" y1="93.0293" y2="106.0439"/><path d="M112.8867,81.0293 C121.8867,81.0293 124.8867,84.0293 124.8867,93.0293" fill="none" style="stroke:#FFFFFF;stroke-width:1.5;"/><path d="M225.3047,106.0439 C225.3047,115.0439 222.3047,118.0439 213.3047,118.0439" fill="none" style="stroke:#FFFFFF;stroke-width:1.5;"/><line style="stroke:#FFFFFF;stroke-width:1.5;" x1="225.3047" x2="225.3047" y1="93.0293" y2="106.0439"/><path d="M225.3047,93.0293 C225.3047,84.0293 228.3047,81.0293 237.3047,81.0293" fill="none" style="stroke:#FFFFFF;stroke-width:1.5;"/><line style="stroke:#FFFFFF;stroke-width:1.5;" x1="276.3047" x2="296.3047" y1="45.522" y2="45.522"/><rect fill="none" height="27.0146" style="stroke:#FFFFFF;stroke-width:0.5;" width="18.8867" x="296.3047" y="32.0146"/><text fill="#FFFFFF" font-family="Verdana" font-size="14" lengthAdjust="spacing" textLength="8.8867" x="301.3047" y="51.0898">}</text><ellipse cx="9" cy="45.522" fill="none" rx="4" ry="4" style="stroke:#FFFFFF;stroke-width:2;"/><ellipse cx="345.1914" cy="45.522" fill="#FFFFFF" rx="4" ry="4" style="stroke:#FFFFFF;stroke-width:1;"/><line style="stroke:#FFFFFF;stroke-width:1.5;" x1="13" x2="35" y1="45.522" y2="45.522"/><line style="stroke:#FFFFFF;stroke-width:1.5;" x1="315.1914" x2="341.1914" y1="45.522" y2="45.522"/><path d="M326.1914,45.522 L326.1914,42.522 L332.1914,45.522 L326.1914,48.522 L326.1914,45.522" fill="#FFFFFF"/><text fill="#FFFFFF" font-family="Verdana" font-size="14" font-weight="bold" lengthAdjust="spacing" textLength="74.3955" x="5" y="160.6265">MapEntry</text><line style="stroke:#FFFFFF;stroke-width:1.5;" x1="35" x2="35" y1="187.0732" y2="187.0732"/><rect fill="#0B58A8" height="27.0146" rx="5" ry="5" style="stroke:#FFFFFF;stroke-width:1.5;" width="158.3193" x="35" y="173.5659"/><text fill="#FFFFFF" font-family="Verdana" font-size="14" lengthAdjust="spacing" textLength="148.3193" x="40" y="192.6411">ReadableEdnElement</text><line style="stroke:#FFFFFF;stroke-width:1.5;" x1="193.3193" x2="213.3193" y1="187.0732" y2="187.0732"/><line style="stroke:#FFFFFF;stroke-width:1.5;" x1="213.3193" x2="326.7383" y1="187.0732" y2="187.0732"/><path d="M256.6869,187.0732 L256.6869,184.0732 L262.6869,187.0732 L256.6869,190.0732 L256.6869,187.0732" fill="#FFFFFF"/><path d="M213.3193,187.0732 C222.3193,187.0732 225.3193,189.8269 225.3193,198.8269 C225.3193,207.8269 228.3193,210.5806 237.3193,210.5806" fill="none" style="stroke:#FFFFFF;stroke-width:1.5;"/><path d="M302.7383,210.5806 C311.7383,210.5806 314.7383,207.8269 314.7383,198.8269 C314.7383,189.8269 317.7383,187.0732 326.7383,187.0732" fill="none" style="stroke:#FFFFFF;stroke-width:1.5;"/><rect fill="#0B58A8" height="27.0146" rx="5" ry="5" style="stroke:#FFFFFF;stroke-width:1.5;" width="65.4189" x="237.3193" y="197.0732"/><text fill="#FFFFFF" font-family="Verdana" font-size="14" lengthAdjust="spacing" textLength="55.4189" x="242.3193" y="216.1484">Spacing</text><line style="stroke:#FFFFFF;stroke-width:1.5;" x1="326.7383" x2="346.7383" y1="187.0732" y2="187.0732"/><rect fill="#0B58A8" height="27.0146" rx="5" ry="5" style="stroke:#FFFFFF;stroke-width:1.5;" width="158.3193" x="346.7383" y="173.5659"/><text fill="#FFFFFF" font-family="Verdana" font-size="14" lengthAdjust="spacing" textLength="148.3193" x="351.7383" y="192.6411">ReadableEdnElement</text><ellipse cx="9" cy="187.0732" fill="none" rx="4" ry="4" style="stroke:#FFFFFF;stroke-width:2;"/><ellipse cx="535.0576" cy="187.0732" fill="#FFFFFF" rx="4" ry="4" style="stroke:#FFFFFF;stroke-width:1;"/><line style="stroke:#FFFFFF;stroke-width:1.5;" x1="13" x2="35" y1="187.0732" y2="187.0732"/><line style="stroke:#FFFFFF;stroke-width:1.5;" x1="505.0576" x2="531.0576" y1="187.0732" y2="187.0732"/><path d="M516.0576,187.0732 L516.0576,184.0732 L522.0576,187.0732 L516.0576,190.0732 L516.0576,187.0732" fill="#FFFFFF"/><text fill="#FFFFFF" font-family="Verdana" font-size="14" font-weight="bold" lengthAdjust="spacing" textLength="166.0449" x="5" y="253.1631">ReadableEdnElement</text><line style="stroke:#FFFFFF;stroke-width:1.5;" x1="59" x2="59" y1="279.6099" y2="279.6099"/><rect fill="#0B58A8" height="27.0146" rx="5" ry="5" style="stroke:#FFFFFF;stroke-width:1.5;" width="93.8018" x="59" y="266.1025"/><text fill="#FFFFFF" font-family="Verdana" font-size="14" lengthAdjust="spacing" textLength="83.8018" x="64" y="285.1777">EdnElement</text><line style="stroke:#FFFFFF;stroke-width:1.5;" x1="152.8018" x2="172.8018" y1="279.6099" y2="279.6099"/><text fill="#FFFFFF" font-family="Verdana" font-size="14" lengthAdjust="spacing" textLength="30.1191" x="175.8018" y="283.5493">NOT</text><rect fill="#0B58A8" height="27.0146" rx="5" ry="5" style="stroke:#FFFFFF;stroke-width:1.5;" width="130.6475" x="210.9209" y="266.1025"/><text fill="#FFFFFF" font-family="Verdana" font-size="14" lengthAdjust="spacing" textLength="120.6475" x="215.9209" y="285.1777">DiscardSequence</text><line style="stroke:#FFFFFF;stroke-width:1.5;" x1="35" x2="59" y1="279.6099" y2="279.6099"/><line style="stroke:#FFFFFF;stroke-width:1.5;" x1="341.5684" x2="525.3857" y1="279.6099" y2="279.6099"/><line style="stroke:#FFFFFF;stroke-width:1.5;" x1="59" x2="59" y1="316.6245" y2="316.6245"/><rect fill="#0B58A8" height="27.0146" rx="5" ry="5" style="stroke:#FFFFFF;stroke-width:1.5;" width="130.6475" x="59" y="303.1172"/><text fill="#FFFFFF" font-family="Verdana" font-size="14" lengthAdjust="spacing" textLength="120.6475" x="64" y="322.1924">DiscardSequence</text><line style="stroke:#FFFFFF;stroke-width:1.5;" x1="189.6475" x2="209.6475" y1="316.6245" y2="316.6245"/><line style="stroke:#FFFFFF;stroke-width:1.5;" x1="209.6475" x2="323.0664" y1="316.6245" y2="316.6245"/><path d="M253.015,316.6245 L253.015,313.6245 L259.015,316.6245 L253.015,319.6245 L253.015,316.6245" fill="#FFFFFF"/><path d="M209.6475,316.6245 C218.6475,316.6245 221.6475,319.3782 221.6475,328.3782 C221.6475,337.3782 224.6475,340.1318 233.6475,340.1318" fill="none" style="stroke:#FFFFFF;stroke-width:1.5;"/><path d="M299.0664,340.1318 C308.0664,340.1318 311.0664,337.3782 311.0664,328.3782 C311.0664,319.3782 314.0664,316.6245 323.0664,316.6245" fill="none" style="stroke:#FFFFFF;stroke-width:1.5;"/><rect fill="#0B58A8" height="27.0146" rx="5" ry="5" style="stroke:#FFFFFF;stroke-width:1.5;" width="65.4189" x="233.6475" y="326.6245"/><text fill="#FFFFFF" font-family="Verdana" font-size="14" lengthAdjust="spacing" textLength="55.4189" x="238.6475" y="345.6997">Spacing</text><line style="stroke:#FFFFFF;stroke-width:1.5;" x1="323.0664" x2="343.0664" y1="316.6245" y2="316.6245"/><rect fill="#0B58A8" height="27.0146" rx="5" ry="5" style="stroke:#FFFFFF;stroke-width:1.5;" width="158.3193" x="343.0664" y="303.1172"/><text fill="#FFFFFF" font-family="Verdana" font-size="14" lengthAdjust="spacing" textLength="148.3193" x="348.0664" y="322.1924">ReadableEdnElement</text><line style="stroke:#FFFFFF;stroke-width:1.5;" x1="501.3857" x2="501.3857" y1="316.6245" y2="316.6245"/><path d="M47,304.6245 C47,313.6245 50,316.6245 59,316.6245" fill="none" style="stroke:#FFFFFF;stroke-width:1.5;"/><line style="stroke:#FFFFFF;stroke-width:1.5;" x1="47" x2="47" y1="291.6099" y2="304.6245"/><path d="M35,279.6099 C44,279.6099 47,282.6099 47,291.6099" fill="none" style="stroke:#FFFFFF;stroke-width:1.5;"/><path d="M513.3857,304.6245 C513.3857,313.6245 510.3857,316.6245 501.3857,316.6245" fill="none" style="stroke:#FFFFFF;stroke-width:1.5;"/><line style="stroke:#FFFFFF;stroke-width:1.5;" x1="513.3857" x2="513.3857" y1="291.6099" y2="304.6245"/><path d="M513.3857,291.6099 C513.3857,282.6099 516.3857,279.6099 525.3857,279.6099" fill="none" style="stroke:#FFFFFF;stroke-width:1.5;"/><ellipse cx="9" cy="279.6099" fill="none" rx="4" ry="4" style="stroke:#FFFFFF;stroke-width:2;"/><ellipse cx="555.3857" cy="279.6099" fill="#FFFFFF" rx="4" ry="4" style="stroke:#FFFFFF;stroke-width:1;"/><line style="stroke:#FFFFFF;stroke-width:1.5;" x1="13" x2="35" y1="279.6099" y2="279.6099"/><line style="stroke:#FFFFFF;stroke-width:1.5;" x1="525.3857" x2="551.3857" y1="279.6099" y2="279.6099"/><path d="M536.3857,279.6099 L536.3857,276.6099 L542.3857,279.6099 L536.3857,282.6099 L536.3857,279.6099" fill="#FFFFFF"/><!--SRC=[vLPDSzis4BtpLspTYprJfx8STHmrxbYIvIQkv6XCsprqUbWHAmaL1J0Wg4HnzD-peBv8ashyePxA6Ma6YuUtYxUx0CvYYyPINmsy7-o89WGuaKFqkXZ1AUpTxy5FS0z-X85KG_WAR6yhQsOmvucz-HxywdbhsobS4mhiXzGMgXqocx8C-skz_cyUbK2OeyHw2lkG6Hx2kOm3DCAdZmcfWE30W-BtjG1xL01df4IgWdUsKMJnlOtjBAJVs9dHsi9zwhM9mNXeTA94IuVQm8-LPksaSPBENMXbbzQBz5jRhv05lYCZK65gV3UBo7Ia6g_mvutZQYsTOYiLMPprPYI3iQ8uXgFKraKpb0hSiZd_X0wIT5UBI0EChDHgENh8K4cjy_H_mDiZymZWY1Ly5D1A6z8QvnJmvHU2QlKxAztFgHkzotegQFv0tV9C-2vxqDUXM18hBLOnTV6pd2IJFwMm8pYkL9O8GmCohdR-2_SnHMZGwftIllrvMQHUF9RAEPX0mnZzgQF3K4OwodDlGDlgU8Cufm4ceIsKRm7HrKh7t6SarjYMJemaay5sv812phflMGCQpZWRiGwbo41wt7uoa14gsqCXNDiULJBpgyPsLAw0cjfmahPjq1-Xq9ySoG33c38pjp4roU92IMiIoeaNM3cLTfOcQNkpDz4yp5fPEELdGa7IUJOnpXsQHG35rNdevnIrKgkMcsr94uGaMYCU1Ql-BYkiGjO0hb7898OtUS8GkLc_eyjkH4XTDQmrifzOsYB5OpXytZXfowVjyqWkDaVZazTc3f6dhtNt0_VBE5sUloIokFU1LZtE1WufXrmNvPPC5JYCdA9zAGThnPKcNiQIz4CPF9lYIZ-tNZxq_-7e5_LTKiNpt4crKNn75U_RbVnFQwuynwhO6-LC_tfMbJErTiRKtXdJ-vqnNRsGYQ-I5iQq8BnvuYdp_trgzqA-us-x7PYIYTqRzUXLjLAjlNgzxwE5oqH1zGIEZkkLD_Lg3Lfj_mRS_86t_tkl0p5VK-nJo7XnFp31WNU9KuJhH5aveJfyY4XTdl-nCa1RJQNHoWNYNTvrDu1VNXysfUMdXU5GuAxhBTyql2BGxbAjm-tDnU69rq4rJBZdwq3AuulI9OFd_6y0]--></g></svg>