<svg xmlns="http://www.w3.org/2000/svg" xmlns:xlink="http://www.w3.org/1999/xlink" contentStyleType="text/css" data-diagram-type="EBNF" height="1358px" preserveAspectRatio="none" style="width:746px;height:1358px;background:#0B58A8;" version="1.1" viewBox="0 0 746 1358" width="746px" zoomAndPan="magnify"><defs/><g><rect fill="#0B58A8" height="1358" style="stroke:none;stroke-width:1;" width="746" x="0" y="0"/><text fill="#FFFFFF" font-family="Verdana" font-size="14" font-weight="bold" lengthAdjust="spacing" textLength="58.0576" x="5" y="19.0752">Symbol</text><line style="stroke:#FFFFFF;stroke-width:1.5;" x1="35" x2="35" y1="45.522" y2="45.522"/><rect fill="#0B58A8" height="27.0146" rx="5" ry="5" style="stroke:#FFFFFF;stroke-width:1.5;" width="74.251" x="35" y="32.0146"/><text fill="#FFFFFF" font-family="Verdana" font-size="14" lengthAdjust="spacing" textLength="64.251" x="40" y="51.0898">Identifier</text><line style="stroke:#FFFFFF;stroke-width:1.5;" x1="109.251" x2="129.251" y1="45.522" y2="45.522"/><text fill="#FFFFFF" font-family="Verdana" font-size="14" lengthAdjust="spacing" textLength="30.1191" x="132.251" y="49.4614">NOT</text><rect fill="#0B58A8" height="27.0146" rx="5" ry="5" style="stroke:#FFFFFF;stroke-width:1.5;" width="28.1563" x="191.3701" y="32.0146"/><text fill="#FFFFFF" font-family="Verdana" font-size="14" lengthAdjust="spacing" textLength="18.1563" x="196.3701" y="51.0898">Nil</text><line style="stroke:#FFFFFF;stroke-width:1.5;" x1="167.3701" x2="191.3701" y1="45.522" y2="45.522"/><line style="stroke:#FFFFFF;stroke-width:1.5;" x1="219.5264" x2="281.4111" y1="45.522" y2="45.522"/><rect fill="#0B58A8" height="27.0146" rx="5" ry="5" style="stroke:#FFFFFF;stroke-width:1.5;" width="66.041" x="191.3701" y="69.0293"/><text fill="#FFFFFF" font-family="Verdana" font-size="14" lengthAdjust="spacing" textLength="56.041" x="196.3701" y="88.1045">Boolean</text><line style="stroke:#FFFFFF;stroke-width:1.5;" x1="257.4111" x2="257.4111" y1="82.5366" y2="82.5366"/><path d="M179.3701,70.5366 C179.3701,79.5366 182.3701,82.5366 191.3701,82.5366" fill="none" style="stroke:#FFFFFF;stroke-width:1.5;"/><line style="stroke:#FFFFFF;stroke-width:1.5;" x1="179.3701" x2="179.3701" y1="57.522" y2="70.5366"/><path d="M167.3701,45.522 C176.3701,45.522 179.3701,48.522 179.3701,57.522" fill="none" style="stroke:#FFFFFF;stroke-width:1.5;"/><path d="M269.4111,70.5366 C269.4111,79.5366 266.4111,82.5366 257.4111,82.5366" fill="none" style="stroke:#FFFFFF;stroke-width:1.5;"/><line style="stroke:#FFFFFF;stroke-width:1.5;" x1="269.4111" x2="269.4111" y1="57.522" y2="70.5366"/><path d="M269.4111,57.522 C269.4111,48.522 272.4111,45.522 281.4111,45.522" fill="none" style="stroke:#FFFFFF;stroke-width:1.5;"/><ellipse cx="9" cy="45.522" fill="none" rx="4" ry="4" style="stroke:#FFFFFF;stroke-width:2;"/><ellipse cx="311.4111" cy="45.522" fill="#FFFFFF" rx="4" ry="4" style="stroke:#FFFFFF;stroke-width:1;"/><line style="stroke:#FFFFFF;stroke-width:1.5;" x1="13" x2="35" y1="45.522" y2="45.522"/><line style="stroke:#FFFFFF;stroke-width:1.5;" x1="281.4111" x2="307.4111" y1="45.522" y2="45.522"/><path d="M292.4111,45.522 L292.4111,42.522 L298.4111,45.522 L292.4111,48.522 L292.4111,45.522" fill="#FFFFFF"/><text fill="#FFFFFF" font-family="Verdana" font-size="14" font-weight="bold" lengthAdjust="spacing" textLength="74.8193" x="5" y="125.1191">Identifier</text><line style="stroke:#FFFFFF;stroke-width:1.5;" x1="59" x2="59" y1="151.5659" y2="151.5659"/><rect fill="#0B58A8" height="27.0146" rx="5" ry="5" style="stroke:#FFFFFF;stroke-width:1.5;" width="114.0566" x="59" y="138.0586"/><text fill="#FFFFFF" font-family="Verdana" font-size="14" lengthAdjust="spacing" textLength="104.0566" x="64" y="157.1338">IdentifierPrefix</text><line style="stroke:#FFFFFF;stroke-width:1.5;" x1="173.0566" x2="193.0566" y1="151.5659" y2="151.5659"/><rect fill="none" height="27.0146" style="stroke:#FFFFFF;stroke-width:0.5;" width="16.3574" x="193.0566" y="138.0586"/><text fill="#FFFFFF" font-family="Verdana" font-size="14" lengthAdjust="spacing" textLength="6.3574" x="198.0566" y="157.1338">/</text><line style="stroke:#FFFFFF;stroke-width:1.5;" x1="209.4141" x2="229.4141" y1="151.5659" y2="151.5659"/><rect fill="#0B58A8" height="27.0146" rx="5" ry="5" style="stroke:#FFFFFF;stroke-width:1.5;" width="115.0889" x="229.4141" y="138.0586"/><text fill="#FFFFFF" font-family="Verdana" font-size="14" lengthAdjust="spacing" textLength="105.0889" x="234.4141" y="157.1338">IdentifierName</text><line style="stroke:#FFFFFF;stroke-width:1.5;" x1="35" x2="59" y1="151.5659" y2="151.5659"/><line style="stroke:#FFFFFF;stroke-width:1.5;" x1="344.5029" x2="368.5029" y1="151.5659" y2="151.5659"/><rect fill="#0B58A8" height="27.0146" rx="5" ry="5" style="stroke:#FFFFFF;stroke-width:1.5;" width="114.0566" x="59" y="175.0732"/><text fill="#FFFFFF" font-family="Verdana" font-size="14" lengthAdjust="spacing" textLength="104.0566" x="64" y="194.1484">IdentifierPrefix</text><path d="M47,176.5806 C47,185.5806 50,188.5806 59,188.5806" fill="none" style="stroke:#FFFFFF;stroke-width:1.5;"/><line style="stroke:#FFFFFF;stroke-width:1.5;" x1="173.0566" x2="344.5029" y1="188.5806" y2="188.5806"/><path d="M256.7798,188.5806 L256.7798,185.5806 L262.7798,188.5806 L256.7798,191.5806 L256.7798,188.5806" fill="#FFFFFF"/><path d="M356.5029,176.5806 C356.5029,185.5806 353.5029,188.5806 344.5029,188.5806" fill="none" style="stroke:#FFFFFF;stroke-width:1.5;"/><rect fill="none" height="27.0146" style="stroke:#FFFFFF;stroke-width:0.5;" width="16.3574" x="59" y="212.0879"/><text fill="#FFFFFF" font-family="Verdana" font-size="14" lengthAdjust="spacing" textLength="6.3574" x="64" y="231.1631">/</text><line style="stroke:#FFFFFF;stroke-width:1.5;" x1="75.3574" x2="344.5029" y1="225.5952" y2="225.5952"/><path d="M207.9302,225.5952 L207.9302,222.5952 L213.9302,225.5952 L207.9302,228.5952 L207.9302,225.5952" fill="#FFFFFF"/><path d="M47,213.5952 C47,222.5952 50,225.5952 59,225.5952" fill="none" style="stroke:#FFFFFF;stroke-width:1.5;"/><line style="stroke:#FFFFFF;stroke-width:1.5;" x1="47" x2="47" y1="163.5659" y2="213.5952"/><path d="M35,151.5659 C44,151.5659 47,154.5659 47,163.5659" fill="none" style="stroke:#FFFFFF;stroke-width:1.5;"/><path d="M356.5029,213.5952 C356.5029,222.5952 353.5029,225.5952 344.5029,225.5952" fill="none" style="stroke:#FFFFFF;stroke-width:1.5;"/><line style="stroke:#FFFFFF;stroke-width:1.5;" x1="356.5029" x2="356.5029" y1="163.5659" y2="213.5952"/><path d="M356.5029,163.5659 C356.5029,154.5659 359.5029,151.5659 368.5029,151.5659" fill="none" style="stroke:#FFFFFF;stroke-width:1.5;"/><ellipse cx="9" cy="151.5659" fill="none" rx="4" ry="4" style="stroke:#FFFFFF;stroke-width:2;"/><ellipse cx="398.5029" cy="151.5659" fill="#FFFFFF" rx="4" ry="4" style="stroke:#FFFFFF;stroke-width:1;"/><line style="stroke:#FFFFFF;stroke-width:1.5;" x1="13" x2="35" y1="151.5659" y2="151.5659"/><line style="stroke:#FFFFFF;stroke-width:1.5;" x1="368.5029" x2="394.5029" y1="151.5659" y2="151.5659"/><path d="M379.5029,151.5659 L379.5029,148.5659 L385.5029,151.5659 L379.5029,154.5659 L379.5029,151.5659" fill="#FFFFFF"/><text fill="#FFFFFF" font-family="Verdana" font-size="14" font-weight="bold" lengthAdjust="spacing" textLength="121.3994" x="5" y="268.1777">IdentifierPrefix</text><line style="stroke:#FFFFFF;stroke-width:1.5;" x1="59" x2="59" y1="294.6245" y2="294.6245"/><rect fill="#0B58A8" height="27.0146" rx="5" ry="5" style="stroke:#FFFFFF;stroke-width:1.5;" width="109.2373" x="59" y="281.1172"/><text fill="#FFFFFF" font-family="Verdana" font-size="14" lengthAdjust="spacing" textLength="99.2373" x="64" y="300.1924">IdentifierStart</text><line style="stroke:#FFFFFF;stroke-width:1.5;" x1="168.2373" x2="188.2373" y1="294.6245" y2="294.6245"/><text fill="#FFFFFF" font-family="Verdana" font-size="14" lengthAdjust="spacing" textLength="30.1191" x="191.2373" y="298.564">NOT</text><rect fill="none" height="27.0146" style="stroke:#FFFFFF;stroke-width:0.5;" width="21.457" x="250.3564" y="281.1172"/><text fill="#FFFFFF" font-family="Verdana" font-size="14" lengthAdjust="spacing" textLength="11.457" x="255.3564" y="300.1924">+</text><line style="stroke:#FFFFFF;stroke-width:1.5;" x1="226.3564" x2="250.3564" y1="294.6245" y2="294.6245"/><line style="stroke:#FFFFFF;stroke-width:1.5;" x1="271.8135" x2="295.8135" y1="294.6245" y2="294.6245"/><rect fill="none" height="27.0146" style="stroke:#FFFFFF;stroke-width:0.5;" width="16.3574" x="250.3564" y="318.1318"/><text fill="#FFFFFF" font-family="Verdana" font-size="14" lengthAdjust="spacing" textLength="6.3574" x="255.3564" y="337.207">-</text><path d="M238.3564,319.6392 C238.3564,328.6392 241.3564,331.6392 250.3564,331.6392" fill="none" style="stroke:#FFFFFF;stroke-width:1.5;"/><line style="stroke:#FFFFFF;stroke-width:1.5;" x1="266.7139" x2="271.8135" y1="331.6392" y2="331.6392"/><path d="M283.8135,319.6392 C283.8135,328.6392 280.8135,331.6392 271.8135,331.6392" fill="none" style="stroke:#FFFFFF;stroke-width:1.5;"/><rect fill="none" height="27.0146" style="stroke:#FFFFFF;stroke-width:0.5;" width="15.0928" x="250.3564" y="355.1465"/><text fill="#FFFFFF" font-family="Verdana" font-size="14" lengthAdjust="spacing" textLength="5.0928" x="255.3564" y="374.2217">.</text><line style="stroke:#FFFFFF;stroke-width:1.5;" x1="265.4492" x2="271.8135" y1="368.6538" y2="368.6538"/><path d="M238.3564,356.6538 C238.3564,365.6538 241.3564,368.6538 250.3564,368.6538" fill="none" style="stroke:#FFFFFF;stroke-width:1.5;"/><line style="stroke:#FFFFFF;stroke-width:1.5;" x1="238.3564" x2="238.3564" y1="306.6245" y2="356.6538"/><path d="M226.3564,294.6245 C235.3564,294.6245 238.3564,297.6245 238.3564,306.6245" fill="none" style="stroke:#FFFFFF;stroke-width:1.5;"/><path d="M283.8135,356.6538 C283.8135,365.6538 280.8135,368.6538 271.8135,368.6538" fill="none" style="stroke:#FFFFFF;stroke-width:1.5;"/><line style="stroke:#FFFFFF;stroke-width:1.5;" x1="283.8135" x2="283.8135" y1="306.6245" y2="356.6538"/><path d="M283.8135,306.6245 C283.8135,297.6245 286.8135,294.6245 295.8135,294.6245" fill="none" style="stroke:#FFFFFF;stroke-width:1.5;"/><line style="stroke:#FFFFFF;stroke-width:1.5;" x1="295.8135" x2="315.8135" y1="294.6245" y2="294.6245"/><line style="stroke:#FFFFFF;stroke-width:1.5;" x1="315.8135" x2="503.167" y1="294.6245" y2="294.6245"/><path d="M388.7549,294.6245 L388.7549,291.6245 L394.7549,294.6245 L388.7549,297.6245 L388.7549,294.6245" fill="#FFFFFF"/><path d="M315.8135,294.6245 C324.8135,294.6245 327.8135,303.3782 327.8135,312.3782 C327.8135,321.3782 330.8135,330.1318 339.8135,330.1318" fill="none" style="stroke:#FFFFFF;stroke-width:1.5;"/><path d="M479.167,330.1318 C488.167,330.1318 491.167,321.3782 491.167,312.3782 C491.167,303.3782 494.167,294.6245 503.167,294.6245" fill="none" style="stroke:#FFFFFF;stroke-width:1.5;"/><path d="M347.8135,322.1318 C347.8135,328.1318 349.8135,330.1318 355.8135,330.1318" fill="none" style="stroke:#FFFFFF;stroke-width:1.5;"/><line style="stroke:#FFFFFF;stroke-width:1.5;" x1="347.8135" x2="347.8135" y1="317.6245" y2="322.1318"/><path d="M347.8135,317.6245 C347.8135,311.6245 349.8135,309.6245 355.8135,309.6245" fill="none" style="stroke:#FFFFFF;stroke-width:1.5;"/><line style="stroke:#FFFFFF;stroke-width:1.5;" x1="354.8135" x2="464.167" y1="309.6245" y2="309.6245"/><path d="M418.4256,309.6245 L418.4256,306.6245 L412.4256,309.6245 L418.4256,312.6245 L418.4256,309.6245" fill="#FFFFFF"/><path d="M471.167,322.1318 C471.167,328.1318 469.167,330.1318 463.167,330.1318" fill="none" style="stroke:#FFFFFF;stroke-width:1.5;"/><line style="stroke:#FFFFFF;stroke-width:1.5;" x1="471.167" x2="471.167" y1="317.6245" y2="322.1318"/><path d="M463.167,309.6245 C469.167,309.6245 471.167,311.6245 471.167,317.6245" fill="none" style="stroke:#FFFFFF;stroke-width:1.5;"/><line style="stroke:#FFFFFF;stroke-width:1.5;" x1="339.8135" x2="354.8135" y1="330.1318" y2="330.1318"/><line style="stroke:#FFFFFF;stroke-width:1.5;" x1="464.167" x2="479.167" y1="330.1318" y2="330.1318"/><rect fill="#0B58A8" height="27.0146" rx="5" ry="5" style="stroke:#FFFFFF;stroke-width:1.5;" width="109.3535" x="354.8135" y="316.6245"/><text fill="#FFFFFF" font-family="Verdana" font-size="14" lengthAdjust="spacing" textLength="99.3535" x="359.8135" y="335.6997">IdentifierBody</text><line style="stroke:#FFFFFF;stroke-width:1.5;" x1="35" x2="59" y1="294.6245" y2="294.6245"/><line style="stroke:#FFFFFF;stroke-width:1.5;" x1="503.167" x2="706.8242" y1="294.6245" y2="294.6245"/><line style="stroke:#FFFFFF;stroke-width:1.5;" x1="59" x2="59" y1="405.6685" y2="405.6685"/><rect fill="none" height="27.0146" style="stroke:#FFFFFF;stroke-width:0.5;" width="21.457" x="83" y="392.1611"/><text fill="#FFFFFF" font-family="Verdana" font-size="14" lengthAdjust="spacing" textLength="11.457" x="88" y="411.2363">+</text><line style="stroke:#FFFFFF;stroke-width:1.5;" x1="59" x2="83" y1="405.6685" y2="405.6685"/><line style="stroke:#FFFFFF;stroke-width:1.5;" x1="104.457" x2="128.457" y1="405.6685" y2="405.6685"/><rect fill="none" height="27.0146" style="stroke:#FFFFFF;stroke-width:0.5;" width="16.3574" x="83" y="429.1758"/><text fill="#FFFFFF" font-family="Verdana" font-size="14" lengthAdjust="spacing" textLength="6.3574" x="88" y="448.251">-</text><path d="M71,430.6831 C71,439.6831 74,442.6831 83,442.6831" fill="none" style="stroke:#FFFFFF;stroke-width:1.5;"/><line style="stroke:#FFFFFF;stroke-width:1.5;" x1="99.3574" x2="104.457" y1="442.6831" y2="442.6831"/><path d="M116.457,430.6831 C116.457,439.6831 113.457,442.6831 104.457,442.6831" fill="none" style="stroke:#FFFFFF;stroke-width:1.5;"/><rect fill="none" height="27.0146" style="stroke:#FFFFFF;stroke-width:0.5;" width="15.0928" x="83" y="466.1904"/><text fill="#FFFFFF" font-family="Verdana" font-size="14" lengthAdjust="spacing" textLength="5.0928" x="88" y="485.2656">.</text><line style="stroke:#FFFFFF;stroke-width:1.5;" x1="98.0928" x2="104.457" y1="479.6978" y2="479.6978"/><path d="M71,467.6978 C71,476.6978 74,479.6978 83,479.6978" fill="none" style="stroke:#FFFFFF;stroke-width:1.5;"/><line style="stroke:#FFFFFF;stroke-width:1.5;" x1="71" x2="71" y1="417.6685" y2="467.6978"/><path d="M59,405.6685 C68,405.6685 71,408.6685 71,417.6685" fill="none" style="stroke:#FFFFFF;stroke-width:1.5;"/><path d="M116.457,467.6978 C116.457,476.6978 113.457,479.6978 104.457,479.6978" fill="none" style="stroke:#FFFFFF;stroke-width:1.5;"/><line style="stroke:#FFFFFF;stroke-width:1.5;" x1="116.457" x2="116.457" y1="417.6685" y2="467.6978"/><path d="M116.457,417.6685 C116.457,408.6685 119.457,405.6685 128.457,405.6685" fill="none" style="stroke:#FFFFFF;stroke-width:1.5;"/><line style="stroke:#FFFFFF;stroke-width:1.5;" x1="128.457" x2="148.457" y1="405.6685" y2="405.6685"/><line style="stroke:#FFFFFF;stroke-width:1.5;" x1="148.457" x2="682.8242" y1="405.6685" y2="405.6685"/><path d="M360.2039,405.6685 L360.2039,402.6685 L366.2039,405.6685 L360.2039,408.6685 L360.2039,405.6685" fill="#FFFFFF"/><path d="M148.457,405.6685 C157.457,405.6685 160.457,408.4221 160.457,417.4221 C160.457,426.4221 163.457,429.1758 172.457,429.1758" fill="none" style="stroke:#FFFFFF;stroke-width:1.5;"/><path d="M658.8242,429.1758 C667.8242,429.1758 670.8242,426.4221 670.8242,417.4221 C670.8242,408.4221 673.8242,405.6685 682.8242,405.6685" fill="none" style="stroke:#FFFFFF;stroke-width:1.5;"/><line style="stroke:#FFFFFF;stroke-width:1.5;" x1="172.457" x2="172.457" y1="429.1758" y2="429.1758"/><rect fill="#0B58A8" height="27.0146" rx="5" ry="5" style="stroke:#FFFFFF;stroke-width:1.5;" width="109.3535" x="172.457" y="415.6685"/><text fill="#FFFFFF" font-family="Verdana" font-size="14" lengthAdjust="spacing" textLength="99.3535" x="177.457" y="434.7437">IdentifierBody</text><line style="stroke:#FFFFFF;stroke-width:1.5;" x1="281.8105" x2="301.8105" y1="429.1758" y2="429.1758"/><text fill="#FFFFFF" font-family="Verdana" font-size="14" lengthAdjust="spacing" textLength="30.1191" x="304.8105" y="433.1152">NOT</text><rect fill="none" height="27.0146" style="stroke:#FFFFFF;stroke-width:1;stroke-dasharray:5,5;" width="111.541" x="339.9297" y="415.6685"/><text fill="#FFFFFF" font-family="Verdana" font-size="14" lengthAdjust="spacing" textLength="91.6973" x="349.8516" y="434.7437">Decimal digit</text><line style="stroke:#FFFFFF;stroke-width:1.5;" x1="451.4707" x2="471.4707" y1="429.1758" y2="429.1758"/><line style="stroke:#FFFFFF;stroke-width:1.5;" x1="471.4707" x2="658.8242" y1="429.1758" y2="429.1758"/><path d="M544.4121,429.1758 L544.4121,426.1758 L550.4121,429.1758 L544.4121,432.1758 L544.4121,429.1758" fill="#FFFFFF"/><path d="M471.4707,429.1758 C480.4707,429.1758 483.4707,437.9294 483.4707,446.9294 C483.4707,455.9294 486.4707,464.6831 495.4707,464.6831" fill="none" style="stroke:#FFFFFF;stroke-width:1.5;"/><path d="M634.8242,464.6831 C643.8242,464.6831 646.8242,455.9294 646.8242,446.9294 C646.8242,437.9294 649.8242,429.1758 658.8242,429.1758" fill="none" style="stroke:#FFFFFF;stroke-width:1.5;"/><path d="M503.4707,456.6831 C503.4707,462.6831 505.4707,464.6831 511.4707,464.6831" fill="none" style="stroke:#FFFFFF;stroke-width:1.5;"/><line style="stroke:#FFFFFF;stroke-width:1.5;" x1="503.4707" x2="503.4707" y1="452.1758" y2="456.6831"/><path d="M503.4707,452.1758 C503.4707,446.1758 505.4707,444.1758 511.4707,444.1758" fill="none" style="stroke:#FFFFFF;stroke-width:1.5;"/><line style="stroke:#FFFFFF;stroke-width:1.5;" x1="510.4707" x2="619.8242" y1="444.1758" y2="444.1758"/><path d="M574.0828,444.1758 L574.0828,441.1758 L568.0828,444.1758 L574.0828,447.1758 L574.0828,444.1758" fill="#FFFFFF"/><path d="M626.8242,456.6831 C626.8242,462.6831 624.8242,464.6831 618.8242,464.6831" fill="none" style="stroke:#FFFFFF;stroke-width:1.5;"/><line style="stroke:#FFFFFF;stroke-width:1.5;" x1="626.8242" x2="626.8242" y1="452.1758" y2="456.6831"/><path d="M618.8242,444.1758 C624.8242,444.1758 626.8242,446.1758 626.8242,452.1758" fill="none" style="stroke:#FFFFFF;stroke-width:1.5;"/><line style="stroke:#FFFFFF;stroke-width:1.5;" x1="495.4707" x2="510.4707" y1="464.6831" y2="464.6831"/><line style="stroke:#FFFFFF;stroke-width:1.5;" x1="619.8242" x2="634.8242" y1="464.6831" y2="464.6831"/><rect fill="#0B58A8" height="27.0146" rx="5" ry="5" style="stroke:#FFFFFF;stroke-width:1.5;" width="109.3535" x="510.4707" y="451.1758"/><text fill="#FFFFFF" font-family="Verdana" font-size="14" lengthAdjust="spacing" textLength="99.3535" x="515.4707" y="470.251">IdentifierBody</text><line style="stroke:#FFFFFF;stroke-width:1.5;" x1="682.8242" x2="682.8242" y1="405.6685" y2="405.6685"/><path d="M47,393.6685 C47,402.6685 50,405.6685 59,405.6685" fill="none" style="stroke:#FFFFFF;stroke-width:1.5;"/><line style="stroke:#FFFFFF;stroke-width:1.5;" x1="47" x2="47" y1="306.6245" y2="393.6685"/><path d="M35,294.6245 C44,294.6245 47,297.6245 47,306.6245" fill="none" style="stroke:#FFFFFF;stroke-width:1.5;"/><path d="M694.8242,393.6685 C694.8242,402.6685 691.8242,405.6685 682.8242,405.6685" fill="none" style="stroke:#FFFFFF;stroke-width:1.5;"/><line style="stroke:#FFFFFF;stroke-width:1.5;" x1="694.8242" x2="694.8242" y1="306.6245" y2="393.6685"/><path d="M694.8242,306.6245 C694.8242,297.6245 697.8242,294.6245 706.8242,294.6245" fill="none" style="stroke:#FFFFFF;stroke-width:1.5;"/><ellipse cx="9" cy="294.6245" fill="none" rx="4" ry="4" style="stroke:#FFFFFF;stroke-width:2;"/><ellipse cx="736.8242" cy="294.6245" fill="#FFFFFF" rx="4" ry="4" style="stroke:#FFFFFF;stroke-width:1;"/><line style="stroke:#FFFFFF;stroke-width:1.5;" x1="13" x2="35" y1="294.6245" y2="294.6245"/><line style="stroke:#FFFFFF;stroke-width:1.5;" x1="706.8242" x2="732.8242" y1="294.6245" y2="294.6245"/><path d="M717.8242,294.6245 L717.8242,291.6245 L723.8242,294.6245 L717.8242,297.6245 L717.8242,294.6245" fill="#FFFFFF"/><text fill="#FFFFFF" font-family="Verdana" font-size="14" font-weight="bold" lengthAdjust="spacing" textLength="120.1348" x="5" y="522.2803">IdentifierName</text><path d="M43,552.7271 C43,558.7271 45,560.7271 51,560.7271" fill="none" style="stroke:#FFFFFF;stroke-width:1.5;"/><line style="stroke:#FFFFFF;stroke-width:1.5;" x1="43" x2="43" y1="548.2197" y2="552.7271"/><path d="M43,548.2197 C43,542.2197 45,540.2197 51,540.2197" fill="none" style="stroke:#FFFFFF;stroke-width:1.5;"/><line style="stroke:#FFFFFF;stroke-width:1.5;" x1="50" x2="159.2373" y1="540.2197" y2="540.2197"/><path d="M113.5424,540.2197 L113.5424,537.2197 L107.5424,540.2197 L113.5424,543.2197 L113.5424,540.2197" fill="#FFFFFF"/><path d="M166.2373,552.7271 C166.2373,558.7271 164.2373,560.7271 158.2373,560.7271" fill="none" style="stroke:#FFFFFF;stroke-width:1.5;"/><line style="stroke:#FFFFFF;stroke-width:1.5;" x1="166.2373" x2="166.2373" y1="548.2197" y2="552.7271"/><path d="M158.2373,540.2197 C164.2373,540.2197 166.2373,542.2197 166.2373,548.2197" fill="none" style="stroke:#FFFFFF;stroke-width:1.5;"/><line style="stroke:#FFFFFF;stroke-width:1.5;" x1="35" x2="50" y1="560.7271" y2="560.7271"/><line style="stroke:#FFFFFF;stroke-width:1.5;" x1="159.2373" x2="174.2373" y1="560.7271" y2="560.7271"/><rect fill="#0B58A8" height="27.0146" rx="5" ry="5" style="stroke:#FFFFFF;stroke-width:1.5;" width="109.2373" x="50" y="547.2197"/><text fill="#FFFFFF" font-family="Verdana" font-size="14" lengthAdjust="spacing" textLength="99.2373" x="55" y="566.2949">IdentifierStart</text><ellipse cx="9" cy="560.7271" fill="none" rx="4" ry="4" style="stroke:#FFFFFF;stroke-width:2;"/><ellipse cx="204.2373" cy="560.7271" fill="#FFFFFF" rx="4" ry="4" style="stroke:#FFFFFF;stroke-width:1;"/><line style="stroke:#FFFFFF;stroke-width:1.5;" x1="13" x2="35" y1="560.7271" y2="560.7271"/><line style="stroke:#FFFFFF;stroke-width:1.5;" x1="174.2373" x2="200.2373" y1="560.7271" y2="560.7271"/><path d="M185.2373,560.7271 L185.2373,557.7271 L191.2373,560.7271 L185.2373,563.7271 L185.2373,560.7271" fill="#FFFFFF"/><text fill="#FFFFFF" font-family="Verdana" font-size="14" font-weight="bold" lengthAdjust="spacing" textLength="113.832" x="5" y="603.3096">IdentifierStart</text><line style="stroke:#FFFFFF;stroke-width:1.5;" x1="35" x2="35" y1="629.7563" y2="629.7563"/><rect fill="#0B58A8" height="27.0146" rx="5" ry="5" style="stroke:#FFFFFF;stroke-width:1.5;" width="155.127" x="35" y="616.249"/><text fill="#FFFFFF" font-family="Verdana" font-size="14" lengthAdjust="spacing" textLength="145.127" x="40" y="635.3242">IdentifierConstituent</text><line style="stroke:#FFFFFF;stroke-width:1.5;" x1="190.127" x2="210.127" y1="629.7563" y2="629.7563"/><text fill="#FFFFFF" font-family="Verdana" font-size="14" lengthAdjust="spacing" textLength="30.1191" x="213.127" y="633.6958">NOT</text><rect fill="none" height="27.0146" style="stroke:#FFFFFF;stroke-width:1;stroke-dasharray:5,5;" width="111.541" x="248.2461" y="616.249"/><text fill="#FFFFFF" font-family="Verdana" font-size="14" lengthAdjust="spacing" textLength="91.6973" x="258.168" y="635.3242">Decimal digit</text><ellipse cx="9" cy="629.7563" fill="none" rx="4" ry="4" style="stroke:#FFFFFF;stroke-width:2;"/><ellipse cx="389.7871" cy="629.7563" fill="#FFFFFF" rx="4" ry="4" style="stroke:#FFFFFF;stroke-width:1;"/><line style="stroke:#FFFFFF;stroke-width:1.5;" x1="13" x2="35" y1="629.7563" y2="629.7563"/><line style="stroke:#FFFFFF;stroke-width:1.5;" x1="359.7871" x2="385.7871" y1="629.7563" y2="629.7563"/><path d="M370.7871,629.7563 L370.7871,626.7563 L376.7871,629.7563 L370.7871,632.7563 L370.7871,629.7563" fill="#FFFFFF"/><text fill="#FFFFFF" font-family="Verdana" font-size="14" font-weight="bold" lengthAdjust="spacing" textLength="113.9961" x="5" y="672.3389">IdentifierBody</text><rect fill="#0B58A8" height="27.0146" rx="5" ry="5" style="stroke:#FFFFFF;stroke-width:1.5;" width="155.127" x="59" y="685.2783"/><text fill="#FFFFFF" font-family="Verdana" font-size="14" lengthAdjust="spacing" textLength="145.127" x="64" y="704.3535">IdentifierConstituent</text><line style="stroke:#FFFFFF;stroke-width:1.5;" x1="35" x2="59" y1="698.7856" y2="698.7856"/><line style="stroke:#FFFFFF;stroke-width:1.5;" x1="214.127" x2="238.127" y1="698.7856" y2="698.7856"/><rect fill="none" height="27.0146" style="stroke:#FFFFFF;stroke-width:0.5;" width="21.457" x="59" y="722.293"/><text fill="#FFFFFF" font-family="Verdana" font-size="14" lengthAdjust="spacing" textLength="11.457" x="64" y="741.3682">#</text><path d="M47,723.8003 C47,732.8003 50,735.8003 59,735.8003" fill="none" style="stroke:#FFFFFF;stroke-width:1.5;"/><line style="stroke:#FFFFFF;stroke-width:1.5;" x1="80.457" x2="214.127" y1="735.8003" y2="735.8003"/><path d="M145.292,735.8003 L145.292,732.8003 L151.292,735.8003 L145.292,738.8003 L145.292,735.8003" fill="#FFFFFF"/><path d="M226.127,723.8003 C226.127,732.8003 223.127,735.8003 214.127,735.8003" fill="none" style="stroke:#FFFFFF;stroke-width:1.5;"/><rect fill="none" height="27.0146" style="stroke:#FFFFFF;stroke-width:0.5;" width="16.3574" x="59" y="759.3076"/><text fill="#FFFFFF" font-family="Verdana" font-size="14" lengthAdjust="spacing" textLength="6.3574" x="64" y="778.3828">:</text><line style="stroke:#FFFFFF;stroke-width:1.5;" x1="75.3574" x2="214.127" y1="772.8149" y2="772.8149"/><path d="M142.7422,772.8149 L142.7422,769.8149 L148.7422,772.8149 L142.7422,775.8149 L142.7422,772.8149" fill="#FFFFFF"/><path d="M47,760.8149 C47,769.8149 50,772.8149 59,772.8149" fill="none" style="stroke:#FFFFFF;stroke-width:1.5;"/><line style="stroke:#FFFFFF;stroke-width:1.5;" x1="47" x2="47" y1="710.7856" y2="760.8149"/><path d="M35,698.7856 C44,698.7856 47,701.7856 47,710.7856" fill="none" style="stroke:#FFFFFF;stroke-width:1.5;"/><path d="M226.127,760.8149 C226.127,769.8149 223.127,772.8149 214.127,772.8149" fill="none" style="stroke:#FFFFFF;stroke-width:1.5;"/><line style="stroke:#FFFFFF;stroke-width:1.5;" x1="226.127" x2="226.127" y1="710.7856" y2="760.8149"/><path d="M226.127,710.7856 C226.127,701.7856 229.127,698.7856 238.127,698.7856" fill="none" style="stroke:#FFFFFF;stroke-width:1.5;"/><ellipse cx="9" cy="698.7856" fill="none" rx="4" ry="4" style="stroke:#FFFFFF;stroke-width:2;"/><ellipse cx="268.127" cy="698.7856" fill="#FFFFFF" rx="4" ry="4" style="stroke:#FFFFFF;stroke-width:1;"/><line style="stroke:#FFFFFF;stroke-width:1.5;" x1="13" x2="35" y1="698.7856" y2="698.7856"/><line style="stroke:#FFFFFF;stroke-width:1.5;" x1="238.127" x2="264.127" y1="698.7856" y2="698.7856"/><path d="M249.127,698.7856 L249.127,695.7856 L255.127,698.7856 L249.127,701.7856 L249.127,698.7856" fill="#FFFFFF"/><text fill="#FFFFFF" font-family="Verdana" font-size="14" font-weight="bold" lengthAdjust="spacing" textLength="166.0039" x="5" y="815.3975">IdentifierConstituent</text><rect fill="none" height="27.0146" style="stroke:#FFFFFF;stroke-width:1;stroke-dasharray:5,5;" width="116.0322" x="59" y="828.3369"/><text fill="#FFFFFF" font-family="Verdana" font-size="14" lengthAdjust="spacing" textLength="96.1885" x="68.9219" y="847.4121">Alphanumeric</text><line style="stroke:#FFFFFF;stroke-width:1.5;" x1="35" x2="59" y1="841.8442" y2="841.8442"/><line style="stroke:#FFFFFF;stroke-width:1.5;" x1="175.0322" x2="199.0322" y1="841.8442" y2="841.8442"/><rect fill="none" height="27.0146" style="stroke:#FFFFFF;stroke-width:0.5;" width="15.0928" x="59" y="865.3516"/><text fill="#FFFFFF" font-family="Verdana" font-size="14" lengthAdjust="spacing" textLength="5.0928" x="64" y="884.4268">.</text><path d="M47,866.8589 C47,875.8589 50,878.8589 59,878.8589" fill="none" style="stroke:#FFFFFF;stroke-width:1.5;"/><line style="stroke:#FFFFFF;stroke-width:1.5;" x1="74.0928" x2="175.0322" y1="878.8589" y2="878.8589"/><path d="M122.5625,878.8589 L122.5625,875.8589 L128.5625,878.8589 L122.5625,881.8589 L122.5625,878.8589" fill="#FFFFFF"/><path d="M187.0322,866.8589 C187.0322,875.8589 184.0322,878.8589 175.0322,878.8589" fill="none" style="stroke:#FFFFFF;stroke-width:1.5;"/><rect fill="none" height="27.0146" style="stroke:#FFFFFF;stroke-width:0.5;" width="18.9004" x="59" y="902.3662"/><text fill="#FFFFFF" font-family="Verdana" font-size="14" lengthAdjust="spacing" textLength="8.9004" x="64" y="921.4414">*</text><path d="M47,903.8735 C47,912.8735 50,915.8735 59,915.8735" fill="none" style="stroke:#FFFFFF;stroke-width:1.5;"/><line style="stroke:#FFFFFF;stroke-width:1.5;" x1="77.9004" x2="175.0322" y1="915.8735" y2="915.8735"/><path d="M124.4663,915.8735 L124.4663,912.8735 L130.4663,915.8735 L124.4663,918.8735 L124.4663,915.8735" fill="#FFFFFF"/><path d="M187.0322,903.8735 C187.0322,912.8735 184.0322,915.8735 175.0322,915.8735" fill="none" style="stroke:#FFFFFF;stroke-width:1.5;"/><rect fill="none" height="27.0146" style="stroke:#FFFFFF;stroke-width:0.5;" width="21.457" x="59" y="939.3809"/><text fill="#FFFFFF" font-family="Verdana" font-size="14" lengthAdjust="spacing" textLength="11.457" x="64" y="958.4561">+</text><path d="M47,940.8882 C47,949.8882 50,952.8882 59,952.8882" fill="none" style="stroke:#FFFFFF;stroke-width:1.5;"/><line style="stroke:#FFFFFF;stroke-width:1.5;" x1="80.457" x2="175.0322" y1="952.8882" y2="952.8882"/><path d="M125.7446,952.8882 L125.7446,949.8882 L131.7446,952.8882 L125.7446,955.8882 L125.7446,952.8882" fill="#FFFFFF"/><path d="M187.0322,940.8882 C187.0322,949.8882 184.0322,952.8882 175.0322,952.8882" fill="none" style="stroke:#FFFFFF;stroke-width:1.5;"/><rect fill="none" height="27.0146" style="stroke:#FFFFFF;stroke-width:0.5;" width="15.5098" x="59" y="976.3955"/><text fill="#FFFFFF" font-family="Verdana" font-size="14" lengthAdjust="spacing" textLength="5.5098" x="64" y="995.4707">!</text><path d="M47,977.9028 C47,986.9028 50,989.9028 59,989.9028" fill="none" style="stroke:#FFFFFF;stroke-width:1.5;"/><line style="stroke:#FFFFFF;stroke-width:1.5;" x1="74.5098" x2="175.0322" y1="989.9028" y2="989.9028"/><path d="M122.771,989.9028 L122.771,986.9028 L128.771,989.9028 L122.771,992.9028 L122.771,989.9028" fill="#FFFFFF"/><path d="M187.0322,977.9028 C187.0322,986.9028 184.0322,989.9028 175.0322,989.9028" fill="none" style="stroke:#FFFFFF;stroke-width:1.5;"/><rect fill="none" height="27.0146" style="stroke:#FFFFFF;stroke-width:0.5;" width="16.3574" x="59" y="1013.4102"/><text fill="#FFFFFF" font-family="Verdana" font-size="14" lengthAdjust="spacing" textLength="6.3574" x="64" y="1032.4854">-</text><path d="M47,1014.9175 C47,1023.9175 50,1026.9175 59,1026.9175" fill="none" style="stroke:#FFFFFF;stroke-width:1.5;"/><line style="stroke:#FFFFFF;stroke-width:1.5;" x1="75.3574" x2="175.0322" y1="1026.9175" y2="1026.9175"/><path d="M123.1948,1026.9175 L123.1948,1023.9175 L129.1948,1026.9175 L123.1948,1029.9175 L123.1948,1026.9175" fill="#FFFFFF"/><path d="M187.0322,1014.9175 C187.0322,1023.9175 184.0322,1026.9175 175.0322,1026.9175" fill="none" style="stroke:#FFFFFF;stroke-width:1.5;"/><rect fill="none" height="27.0146" style="stroke:#FFFFFF;stroke-width:0.5;" width="18.9004" x="59" y="1050.4248"/><text fill="#FFFFFF" font-family="Verdana" font-size="14" lengthAdjust="spacing" textLength="8.9004" x="64" y="1069.5">_</text><path d="M47,1051.9321 C47,1060.9321 50,1063.9321 59,1063.9321" fill="none" style="stroke:#FFFFFF;stroke-width:1.5;"/><line style="stroke:#FFFFFF;stroke-width:1.5;" x1="77.9004" x2="175.0322" y1="1063.9321" y2="1063.9321"/><path d="M124.4663,1063.9321 L124.4663,1060.9321 L130.4663,1063.9321 L124.4663,1066.9321 L124.4663,1063.9321" fill="#FFFFFF"/><path d="M187.0322,1051.9321 C187.0322,1060.9321 184.0322,1063.9321 175.0322,1063.9321" fill="none" style="stroke:#FFFFFF;stroke-width:1.5;"/><rect fill="none" height="27.0146" style="stroke:#FFFFFF;stroke-width:0.5;" width="17.6357" x="59" y="1087.4395"/><text fill="#FFFFFF" font-family="Verdana" font-size="14" lengthAdjust="spacing" textLength="7.6357" x="64" y="1106.5146">?</text><path d="M47,1088.9468 C47,1097.9468 50,1100.9468 59,1100.9468" fill="none" style="stroke:#FFFFFF;stroke-width:1.5;"/><line style="stroke:#FFFFFF;stroke-width:1.5;" x1="76.6357" x2="175.0322" y1="1100.9468" y2="1100.9468"/><path d="M123.834,1100.9468 L123.834,1097.9468 L129.834,1100.9468 L123.834,1103.9468 L123.834,1100.9468" fill="#FFFFFF"/><path d="M187.0322,1088.9468 C187.0322,1097.9468 184.0322,1100.9468 175.0322,1100.9468" fill="none" style="stroke:#FFFFFF;stroke-width:1.5;"/><rect fill="none" height="27.0146" style="stroke:#FFFFFF;stroke-width:0.5;" width="18.9004" x="59" y="1124.4541"/><text fill="#FFFFFF" font-family="Verdana" font-size="14" lengthAdjust="spacing" textLength="8.9004" x="64" y="1143.5293">$</text><path d="M47,1125.9614 C47,1134.9614 50,1137.9614 59,1137.9614" fill="none" style="stroke:#FFFFFF;stroke-width:1.5;"/><line style="stroke:#FFFFFF;stroke-width:1.5;" x1="77.9004" x2="175.0322" y1="1137.9614" y2="1137.9614"/><path d="M124.4663,1137.9614 L124.4663,1134.9614 L130.4663,1137.9614 L124.4663,1140.9614 L124.4663,1137.9614" fill="#FFFFFF"/><path d="M187.0322,1125.9614 C187.0322,1134.9614 184.0322,1137.9614 175.0322,1137.9614" fill="none" style="stroke:#FFFFFF;stroke-width:1.5;"/><rect fill="none" height="27.0146" style="stroke:#FFFFFF;stroke-width:0.5;" width="25.0664" x="59" y="1161.4688"/><text fill="#FFFFFF" font-family="Verdana" font-size="14" lengthAdjust="spacing" textLength="15.0664" x="64" y="1180.5439">%</text><path d="M47,1162.9761 C47,1171.9761 50,1174.9761 59,1174.9761" fill="none" style="stroke:#FFFFFF;stroke-width:1.5;"/><line style="stroke:#FFFFFF;stroke-width:1.5;" x1="84.0664" x2="175.0322" y1="1174.9761" y2="1174.9761"/><path d="M127.5493,1174.9761 L127.5493,1171.9761 L133.5493,1174.9761 L127.5493,1177.9761 L127.5493,1174.9761" fill="#FFFFFF"/><path d="M187.0322,1162.9761 C187.0322,1171.9761 184.0322,1174.9761 175.0322,1174.9761" fill="none" style="stroke:#FFFFFF;stroke-width:1.5;"/><rect fill="none" height="27.0146" style="stroke:#FFFFFF;stroke-width:0.5;" width="20.1719" x="59" y="1198.4834"/><text fill="#FFFFFF" font-family="Verdana" font-size="14" lengthAdjust="spacing" textLength="10.1719" x="64" y="1217.5586">&amp;</text><path d="M47,1199.9907 C47,1208.9907 50,1211.9907 59,1211.9907" fill="none" style="stroke:#FFFFFF;stroke-width:1.5;"/><line style="stroke:#FFFFFF;stroke-width:1.5;" x1="79.1719" x2="175.0322" y1="1211.9907" y2="1211.9907"/><path d="M125.1021,1211.9907 L125.1021,1208.9907 L131.1021,1211.9907 L125.1021,1214.9907 L125.1021,1211.9907" fill="#FFFFFF"/><path d="M187.0322,1199.9907 C187.0322,1208.9907 184.0322,1211.9907 175.0322,1211.9907" fill="none" style="stroke:#FFFFFF;stroke-width:1.5;"/><rect fill="none" height="27.0146" style="stroke:#FFFFFF;stroke-width:0.5;" width="21.457" x="59" y="1235.498"/><text fill="#FFFFFF" font-family="Verdana" font-size="14" lengthAdjust="spacing" textLength="11.457" x="64" y="1254.5732">=</text><path d="M47,1237.0054 C47,1246.0054 50,1249.0054 59,1249.0054" fill="none" style="stroke:#FFFFFF;stroke-width:1.5;"/><line style="stroke:#FFFFFF;stroke-width:1.5;" x1="80.457" x2="175.0322" y1="1249.0054" y2="1249.0054"/><path d="M125.7446,1249.0054 L125.7446,1246.0054 L131.7446,1249.0054 L125.7446,1252.0054 L125.7446,1249.0054" fill="#FFFFFF"/><path d="M187.0322,1237.0054 C187.0322,1246.0054 184.0322,1249.0054 175.0322,1249.0054" fill="none" style="stroke:#FFFFFF;stroke-width:1.5;"/><rect fill="none" height="27.0146" style="stroke:#FFFFFF;stroke-width:0.5;" width="21.457" x="59" y="1272.5127"/><text fill="#FFFFFF" font-family="Verdana" font-size="14" lengthAdjust="spacing" textLength="11.457" x="64" y="1291.5879">&lt;</text><path d="M47,1274.02 C47,1283.02 50,1286.02 59,1286.02" fill="none" style="stroke:#FFFFFF;stroke-width:1.5;"/><line style="stroke:#FFFFFF;stroke-width:1.5;" x1="80.457" x2="175.0322" y1="1286.02" y2="1286.02"/><path d="M125.7446,1286.02 L125.7446,1283.02 L131.7446,1286.02 L125.7446,1289.02 L125.7446,1286.02" fill="#FFFFFF"/><path d="M187.0322,1274.02 C187.0322,1283.02 184.0322,1286.02 175.0322,1286.02" fill="none" style="stroke:#FFFFFF;stroke-width:1.5;"/><rect fill="none" height="27.0146" style="stroke:#FFFFFF;stroke-width:0.5;" width="21.457" x="59" y="1309.5273"/><text fill="#FFFFFF" font-family="Verdana" font-size="14" lengthAdjust="spacing" textLength="11.457" x="64" y="1328.6025">&gt;</text><line style="stroke:#FFFFFF;stroke-width:1.5;" x1="80.457" x2="175.0322" y1="1323.0347" y2="1323.0347"/><path d="M125.7446,1323.0347 L125.7446,1320.0347 L131.7446,1323.0347 L125.7446,1326.0347 L125.7446,1323.0347" fill="#FFFFFF"/><path d="M47,1311.0347 C47,1320.0347 50,1323.0347 59,1323.0347" fill="none" style="stroke:#FFFFFF;stroke-width:1.5;"/><line style="stroke:#FFFFFF;stroke-width:1.5;" x1="47" x2="47" y1="853.8442" y2="1311.0347"/><path d="M35,841.8442 C44,841.8442 47,844.8442 47,853.8442" fill="none" style="stroke:#FFFFFF;stroke-width:1.5;"/><path d="M187.0322,1311.0347 C187.0322,1320.0347 184.0322,1323.0347 175.0322,1323.0347" fill="none" style="stroke:#FFFFFF;stroke-width:1.5;"/><line style="stroke:#FFFFFF;stroke-width:1.5;" x1="187.0322" x2="187.0322" y1="853.8442" y2="1311.0347"/><path d="M187.0322,853.8442 C187.0322,844.8442 190.0322,841.8442 199.0322,841.8442" fill="none" style="stroke:#FFFFFF;stroke-width:1.5;"/><ellipse cx="9" cy="841.8442" fill="none" rx="4" ry="4" style="stroke:#FFFFFF;stroke-width:2;"/><ellipse cx="229.0322" cy="841.8442" fill="#FFFFFF" rx="4" ry="4" style="stroke:#FFFFFF;stroke-width:1;"/><line style="stroke:#FFFFFF;stroke-width:1.5;" x1="13" x2="35" y1="841.8442" y2="841.8442"/><line style="stroke:#FFFFFF;stroke-width:1.5;" x1="199.0322" x2="225.0322" y1="841.8442" y2="841.8442"/><path d="M210.0322,841.8442 L210.0322,838.8442 L216.0322,841.8442 L210.0322,844.8442 L210.0322,841.8442" fill="#FFFFFF"/><!--SRC=[xLTHKzj647xNhzWuRGUQc1WJTuWB0Tj00xM99mBwqEbq3jtQlbg-Kqyd1uVmtxCdsrX2iWZWFdG6pTWpsc_tsxtTlTNTVcYODdWfUyuBCy0H0Xk9FdFSoUXI-R0Bnnob4Js16igm1gV2Xw_GLCf79c4TVdMSX4PIlQkn9wxWDPJUbEX_0Poo4JgmUBvcZDAejK-vcJ7lKZWBeMlN4OTOUbMoLkNuVwD4GQwJ_-k4RbFn2TmalSnzvLc_XZzJdcBhCkp10NfYn7pWeYyClUUxWRzImTlLK-ZNcT1lokbLJgN9ZBQK38qm4Rt72ysB84KH1x24mScilVIob2Eitqb-CeXTSjdmWm6JqGYry60lczCvpqPfEVPp0VQg07jHW9KBiByBiBq2x8S2xCS2xAS2RBS0sod0tjkwxAFayTvrzXVxUFhiX6RYutiYq4ePk8wPcimRzhMA96yfNsbuMMdMjXlRCNQaf9b9Z-BdLXgtx0LgpYIBXHyc0UgsaCEv_a5ZgrgB8P9YbiLApmR26qeCGzYCPHsc-qA2DRDRaIkFcaZE8_LOO8IIixUx39LOEjt1FLeUZPxx5GV8-7SfKdlxUAjdC-2ABmZLwZsMzcUp6tn8Uiha_4vsyolXske1ZM0-8vQApsFgi2inYaP_26u6i5Mfp3HeAg96wU5_uJx4W6bcr4ffTzxCcjG9Xq9Q1oDeQAq-jvNlYq05QUw5qh8-NcWSO8z5licqRqQZewGA0-OXlzLjgKZJf4lejaKFVQgwQoW7s9zGDKBb2vvGwTBs4vu8c3HTnhcGVTYi970N_uriSIoLRQ2cqjnEq_m5kWF6rMTBqcD-Y0daFCGc6ZRDfD4HffBd6J4MPX8NQVbcRp9zjsfvuUJFX4nARvA5iUwOdWQGjKwhNiLQyspLKcXBQCz7tXhGcpVVttcDbQaQm2V6HHJ2kpIXpsYptfENrIGXTjKmHelBoE2IL7mFXqiBHsLesZwEv6Wn6XzicnWY3xUrtmVQByFOFFsHIEeTUqfsgHgiZodDswPSKgaCXnPZPfxAGRcYJkDFOuakVJe7FPRYL3ssNpvU_aFHJ_ixfujlKfDgaV4LTJoTLMU1FsnpfJdcpTx8PogSLVbChPKn7QwCwNXbJATFPA9FIOk5E2KyU-2KURuWFbyGdo-8_vyBOjUda-bvfmrZrA6zMMrkL2lLsiRRDPSPE8aaLBTXSwjUULUlrg1rw9w1nTUTjT-wRGZfSEKXjL4uFTKGmRfpmiOCFaLKzn7MuME0ykJWzxa03kLOQ2NjdSuvkUWi57vvMsvICxgeAHIuw3YpapXPUCeU1UjmVdPKtdRQJFOZ-bBL0QL3npjfz8Gmzni0]--></g></svg>