<svg xmlns="http://www.w3.org/2000/svg" xmlns:xlink="http://www.w3.org/1999/xlink" contentStyleType="text/css" data-diagram-type="EBNF" height="448px" preserveAspectRatio="none" style="width:1038px;height:448px;background:#0B58A8;" version="1.1" viewBox="0 0 1038 448" width="1038px" zoomAndPan="magnify"><defs/><g><rect fill="#0B58A8" height="448" style="stroke:none;stroke-width:1;" width="1038" x="0" y="0"/><text fill="#FFFFFF" font-family="Verdana" font-size="14" font-weight="bold" lengthAdjust="spacing" textLength="39.2314" x="5" y="19.0752">Float</text><line style="stroke:#FFFFFF;stroke-width:1.5;" x1="35" x2="35" y1="45.522" y2="45.522"/><line style="stroke:#FFFFFF;stroke-width:1.5;" x1="35" x2="152.457" y1="45.522" y2="45.522"/><path d="M79.9828,45.522 L79.9828,42.522 L85.9828,45.522 L79.9828,48.522 L79.9828,45.522" fill="#FFFFFF"/><path d="M35,45.522 C44,45.522 47,48.2756 47,57.2756 C47,66.2756 50,69.0293 59,69.0293" fill="none" style="stroke:#FFFFFF;stroke-width:1.5;"/><path d="M128.457,69.0293 C137.457,69.0293 140.457,66.2756 140.457,57.2756 C140.457,48.2756 143.457,45.522 152.457,45.522" fill="none" style="stroke:#FFFFFF;stroke-width:1.5;"/><rect fill="none" height="27.0146" style="stroke:#FFFFFF;stroke-width:0.5;" width="16.3574" x="83" y="55.522"/><text fill="#FFFFFF" font-family="Verdana" font-size="14" lengthAdjust="spacing" textLength="6.3574" x="88" y="74.5972">-</text><line style="stroke:#FFFFFF;stroke-width:1.5;" x1="59" x2="83" y1="69.0293" y2="69.0293"/><line style="stroke:#FFFFFF;stroke-width:1.5;" x1="99.3574" x2="128.457" y1="69.0293" y2="69.0293"/><rect fill="none" height="27.0146" style="stroke:#FFFFFF;stroke-width:0.5;" width="21.457" x="83" y="92.5366"/><text fill="#FFFFFF" font-family="Verdana" font-size="14" lengthAdjust="spacing" textLength="11.457" x="88" y="111.6118">+</text><line style="stroke:#FFFFFF;stroke-width:1.5;" x1="104.457" x2="104.457" y1="106.0439" y2="106.0439"/><path d="M71,94.0439 C71,103.0439 74,106.0439 83,106.0439" fill="none" style="stroke:#FFFFFF;stroke-width:1.5;"/><line style="stroke:#FFFFFF;stroke-width:1.5;" x1="71" x2="71" y1="81.0293" y2="94.0439"/><path d="M59,69.0293 C68,69.0293 71,72.0293 71,81.0293" fill="none" style="stroke:#FFFFFF;stroke-width:1.5;"/><path d="M116.457,94.0439 C116.457,103.0439 113.457,106.0439 104.457,106.0439" fill="none" style="stroke:#FFFFFF;stroke-width:1.5;"/><line style="stroke:#FFFFFF;stroke-width:1.5;" x1="116.457" x2="116.457" y1="81.0293" y2="94.0439"/><path d="M116.457,81.0293 C116.457,72.0293 119.457,69.0293 128.457,69.0293" fill="none" style="stroke:#FFFFFF;stroke-width:1.5;"/><line style="stroke:#FFFFFF;stroke-width:1.5;" x1="152.457" x2="172.457" y1="45.522" y2="45.522"/><line style="stroke:#FFFFFF;stroke-width:1.5;" x1="196.457" x2="196.457" y1="45.522" y2="45.522"/><rect fill="none" height="27.0146" style="stroke:#FFFFFF;stroke-width:1;stroke-dasharray:5,5;" width="111.541" x="196.457" y="32.0146"/><text fill="#FFFFFF" font-family="Verdana" font-size="14" lengthAdjust="spacing" textLength="91.6973" x="206.3789" y="51.0898">Decimal digit</text><line style="stroke:#FFFFFF;stroke-width:1.5;" x1="307.998" x2="327.998" y1="45.522" y2="45.522"/><text fill="#FFFFFF" font-family="Verdana" font-size="14" lengthAdjust="spacing" textLength="30.1191" x="330.998" y="49.4614">NOT</text><line style="stroke:#FFFFFF;stroke-width:1.5;" x1="366.1172" x2="366.1172" y1="45.522" y2="45.522"/><rect fill="none" height="27.0146" style="stroke:#FFFFFF;stroke-width:0.5;" width="18.9004" x="366.1172" y="32.0146"/><text fill="#FFFFFF" font-family="Verdana" font-size="14" lengthAdjust="spacing" textLength="8.9004" x="371.1172" y="51.0898">0</text><line style="stroke:#FFFFFF;stroke-width:1.5;" x1="385.0176" x2="405.0176" y1="45.522" y2="45.522"/><line style="stroke:#FFFFFF;stroke-width:1.5;" x1="405.0176" x2="594.5586" y1="45.522" y2="45.522"/><path d="M478.834,45.522 L478.834,42.522 L484.834,45.522 L478.834,48.522 L478.834,45.522" fill="#FFFFFF"/><path d="M405.0176,45.522 C414.0176,45.522 417.0176,54.2756 417.0176,63.2756 C417.0176,72.2756 420.0176,81.0293 429.0176,81.0293" fill="none" style="stroke:#FFFFFF;stroke-width:1.5;"/><path d="M570.5586,81.0293 C579.5586,81.0293 582.5586,72.2756 582.5586,63.2756 C582.5586,54.2756 585.5586,45.522 594.5586,45.522" fill="none" style="stroke:#FFFFFF;stroke-width:1.5;"/><path d="M437.0176,73.0293 C437.0176,79.0293 439.0176,81.0293 445.0176,81.0293" fill="none" style="stroke:#FFFFFF;stroke-width:1.5;"/><line style="stroke:#FFFFFF;stroke-width:1.5;" x1="437.0176" x2="437.0176" y1="68.522" y2="73.0293"/><path d="M437.0176,68.522 C437.0176,62.522 439.0176,60.522 445.0176,60.522" fill="none" style="stroke:#FFFFFF;stroke-width:1.5;"/><line style="stroke:#FFFFFF;stroke-width:1.5;" x1="444.0176" x2="555.5586" y1="60.522" y2="60.522"/><path d="M508.9422,60.522 L508.9422,57.522 L502.9422,60.522 L508.9422,63.522 L508.9422,60.522" fill="#FFFFFF"/><path d="M562.5586,73.0293 C562.5586,79.0293 560.5586,81.0293 554.5586,81.0293" fill="none" style="stroke:#FFFFFF;stroke-width:1.5;"/><line style="stroke:#FFFFFF;stroke-width:1.5;" x1="562.5586" x2="562.5586" y1="68.522" y2="73.0293"/><path d="M554.5586,60.522 C560.5586,60.522 562.5586,62.522 562.5586,68.522" fill="none" style="stroke:#FFFFFF;stroke-width:1.5;"/><line style="stroke:#FFFFFF;stroke-width:1.5;" x1="429.0176" x2="444.0176" y1="81.0293" y2="81.0293"/><line style="stroke:#FFFFFF;stroke-width:1.5;" x1="555.5586" x2="570.5586" y1="81.0293" y2="81.0293"/><rect fill="none" height="27.0146" style="stroke:#FFFFFF;stroke-width:1;stroke-dasharray:5,5;" width="111.541" x="444.0176" y="67.522"/><text fill="#FFFFFF" font-family="Verdana" font-size="14" lengthAdjust="spacing" textLength="91.6973" x="453.9395" y="86.5972">Decimal digit</text><line style="stroke:#FFFFFF;stroke-width:1.5;" x1="172.457" x2="196.457" y1="45.522" y2="45.522"/><line style="stroke:#FFFFFF;stroke-width:1.5;" x1="594.5586" x2="618.5586" y1="45.522" y2="45.522"/><rect fill="none" height="27.0146" style="stroke:#FFFFFF;stroke-width:0.5;" width="18.9004" x="196.457" y="104.5366"/><text fill="#FFFFFF" font-family="Verdana" font-size="14" lengthAdjust="spacing" textLength="8.9004" x="201.457" y="123.6118">0</text><line style="stroke:#FFFFFF;stroke-width:1.5;" x1="215.3574" x2="594.5586" y1="118.0439" y2="118.0439"/><path d="M402.958,118.0439 L402.958,115.0439 L408.958,118.0439 L402.958,121.0439 L402.958,118.0439" fill="#FFFFFF"/><path d="M184.457,106.0439 C184.457,115.0439 187.457,118.0439 196.457,118.0439" fill="none" style="stroke:#FFFFFF;stroke-width:1.5;"/><line style="stroke:#FFFFFF;stroke-width:1.5;" x1="184.457" x2="184.457" y1="57.522" y2="106.0439"/><path d="M172.457,45.522 C181.457,45.522 184.457,48.522 184.457,57.522" fill="none" style="stroke:#FFFFFF;stroke-width:1.5;"/><path d="M606.5586,106.0439 C606.5586,115.0439 603.5586,118.0439 594.5586,118.0439" fill="none" style="stroke:#FFFFFF;stroke-width:1.5;"/><line style="stroke:#FFFFFF;stroke-width:1.5;" x1="606.5586" x2="606.5586" y1="57.522" y2="106.0439"/><path d="M606.5586,57.522 C606.5586,48.522 609.5586,45.522 618.5586,45.522" fill="none" style="stroke:#FFFFFF;stroke-width:1.5;"/><line style="stroke:#FFFFFF;stroke-width:1.5;" x1="618.5586" x2="638.5586" y1="45.522" y2="45.522"/><line style="stroke:#FFFFFF;stroke-width:1.5;" x1="662.5586" x2="662.5586" y1="45.522" y2="45.522"/><rect fill="#0B58A8" height="27.0146" rx="5" ry="5" style="stroke:#FFFFFF;stroke-width:1.5;" width="78.6875" x="662.5586" y="32.0146"/><text fill="#FFFFFF" font-family="Verdana" font-size="14" lengthAdjust="spacing" textLength="68.6875" x="667.5586" y="51.0898">Fractional</text><line style="stroke:#FFFFFF;stroke-width:1.5;" x1="741.2461" x2="761.2461" y1="45.522" y2="45.522"/><line style="stroke:#FFFFFF;stroke-width:1.5;" x1="761.2461" x2="885.1787" y1="45.522" y2="45.522"/><path d="M808.8191,45.522 L808.8191,42.522 L814.8191,45.522 L808.8191,48.522 L808.8191,45.522" fill="#FFFFFF"/><path d="M761.2461,45.522 C770.2461,45.522 773.2461,48.2756 773.2461,57.2756 C773.2461,66.2756 776.2461,69.0293 785.2461,69.0293" fill="none" style="stroke:#FFFFFF;stroke-width:1.5;"/><path d="M861.1787,69.0293 C870.1787,69.0293 873.1787,66.2756 873.1787,57.2756 C873.1787,48.2756 876.1787,45.522 885.1787,45.522" fill="none" style="stroke:#FFFFFF;stroke-width:1.5;"/><rect fill="#0B58A8" height="27.0146" rx="5" ry="5" style="stroke:#FFFFFF;stroke-width:1.5;" width="75.9326" x="785.2461" y="55.522"/><text fill="#FFFFFF" font-family="Verdana" font-size="14" lengthAdjust="spacing" textLength="65.9326" x="790.2461" y="74.5972">Exponent</text><line style="stroke:#FFFFFF;stroke-width:1.5;" x1="885.1787" x2="905.1787" y1="45.522" y2="45.522"/><line style="stroke:#FFFFFF;stroke-width:1.5;" x1="905.1787" x2="974.9775" y1="45.522" y2="45.522"/><path d="M931.0982,45.522 L931.0982,42.522 L937.0982,45.522 L931.0982,48.522 L931.0982,45.522" fill="#FFFFFF"/><path d="M905.1787,45.522 C914.1787,45.522 917.1787,48.2756 917.1787,57.2756 C917.1787,66.2756 920.1787,69.0293 929.1787,69.0293" fill="none" style="stroke:#FFFFFF;stroke-width:1.5;"/><path d="M950.9775,69.0293 C959.9775,69.0293 962.9775,66.2756 962.9775,57.2756 C962.9775,48.2756 965.9775,45.522 974.9775,45.522" fill="none" style="stroke:#FFFFFF;stroke-width:1.5;"/><rect fill="none" height="27.0146" style="stroke:#FFFFFF;stroke-width:0.5;" width="21.7988" x="929.1787" y="55.522"/><text fill="#FFFFFF" font-family="Verdana" font-size="14" lengthAdjust="spacing" textLength="11.7988" x="934.1787" y="74.5972">M</text><line style="stroke:#FFFFFF;stroke-width:1.5;" x1="638.5586" x2="662.5586" y1="45.522" y2="45.522"/><line style="stroke:#FFFFFF;stroke-width:1.5;" x1="974.9775" x2="998.9775" y1="45.522" y2="45.522"/><line style="stroke:#FFFFFF;stroke-width:1.5;" x1="662.5586" x2="662.5586" y1="106.0439" y2="106.0439"/><line style="stroke:#FFFFFF;stroke-width:1.5;" x1="662.5586" x2="789.2461" y1="106.0439" y2="106.0439"/><path d="M711.2336,106.0439 L711.2336,103.0439 L717.2336,106.0439 L711.2336,109.0439 L711.2336,106.0439" fill="#FFFFFF"/><path d="M662.5586,106.0439 C671.5586,106.0439 674.5586,108.7976 674.5586,117.7976 C674.5586,126.7976 677.5586,129.5513 686.5586,129.5513" fill="none" style="stroke:#FFFFFF;stroke-width:1.5;"/><path d="M765.2461,129.5513 C774.2461,129.5513 777.2461,126.7976 777.2461,117.7976 C777.2461,108.7976 780.2461,106.0439 789.2461,106.0439" fill="none" style="stroke:#FFFFFF;stroke-width:1.5;"/><rect fill="#0B58A8" height="27.0146" rx="5" ry="5" style="stroke:#FFFFFF;stroke-width:1.5;" width="78.6875" x="686.5586" y="116.0439"/><text fill="#FFFFFF" font-family="Verdana" font-size="14" lengthAdjust="spacing" textLength="68.6875" x="691.5586" y="135.1191">Fractional</text><line style="stroke:#FFFFFF;stroke-width:1.5;" x1="789.2461" x2="809.2461" y1="106.0439" y2="106.0439"/><rect fill="#0B58A8" height="27.0146" rx="5" ry="5" style="stroke:#FFFFFF;stroke-width:1.5;" width="75.9326" x="809.2461" y="92.5366"/><text fill="#FFFFFF" font-family="Verdana" font-size="14" lengthAdjust="spacing" textLength="65.9326" x="814.2461" y="111.6118">Exponent</text><line style="stroke:#FFFFFF;stroke-width:1.5;" x1="885.1787" x2="905.1787" y1="106.0439" y2="106.0439"/><line style="stroke:#FFFFFF;stroke-width:1.5;" x1="905.1787" x2="974.9775" y1="106.0439" y2="106.0439"/><path d="M931.0982,106.0439 L931.0982,103.0439 L937.0982,106.0439 L931.0982,109.0439 L931.0982,106.0439" fill="#FFFFFF"/><path d="M905.1787,106.0439 C914.1787,106.0439 917.1787,108.7976 917.1787,117.7976 C917.1787,126.7976 920.1787,129.5513 929.1787,129.5513" fill="none" style="stroke:#FFFFFF;stroke-width:1.5;"/><path d="M950.9775,129.5513 C959.9775,129.5513 962.9775,126.7976 962.9775,117.7976 C962.9775,108.7976 965.9775,106.0439 974.9775,106.0439" fill="none" style="stroke:#FFFFFF;stroke-width:1.5;"/><rect fill="none" height="27.0146" style="stroke:#FFFFFF;stroke-width:0.5;" width="21.7988" x="929.1787" y="116.0439"/><text fill="#FFFFFF" font-family="Verdana" font-size="14" lengthAdjust="spacing" textLength="11.7988" x="934.1787" y="135.1191">M</text><path d="M650.5586,94.0439 C650.5586,103.0439 653.5586,106.0439 662.5586,106.0439" fill="none" style="stroke:#FFFFFF;stroke-width:1.5;"/><line style="stroke:#FFFFFF;stroke-width:1.5;" x1="974.9775" x2="974.9775" y1="106.0439" y2="106.0439"/><path d="M986.9775,94.0439 C986.9775,103.0439 983.9775,106.0439 974.9775,106.0439" fill="none" style="stroke:#FFFFFF;stroke-width:1.5;"/><line style="stroke:#FFFFFF;stroke-width:1.5;" x1="662.5586" x2="662.5586" y1="166.5659" y2="166.5659"/><line style="stroke:#FFFFFF;stroke-width:1.5;" x1="662.5586" x2="789.2461" y1="166.5659" y2="166.5659"/><path d="M711.2336,166.5659 L711.2336,163.5659 L717.2336,166.5659 L711.2336,169.5659 L711.2336,166.5659" fill="#FFFFFF"/><path d="M662.5586,166.5659 C671.5586,166.5659 674.5586,169.3196 674.5586,178.3196 C674.5586,187.3196 677.5586,190.0732 686.5586,190.0732" fill="none" style="stroke:#FFFFFF;stroke-width:1.5;"/><path d="M765.2461,190.0732 C774.2461,190.0732 777.2461,187.3196 777.2461,178.3196 C777.2461,169.3196 780.2461,166.5659 789.2461,166.5659" fill="none" style="stroke:#FFFFFF;stroke-width:1.5;"/><rect fill="#0B58A8" height="27.0146" rx="5" ry="5" style="stroke:#FFFFFF;stroke-width:1.5;" width="78.6875" x="686.5586" y="176.5659"/><text fill="#FFFFFF" font-family="Verdana" font-size="14" lengthAdjust="spacing" textLength="68.6875" x="691.5586" y="195.6411">Fractional</text><line style="stroke:#FFFFFF;stroke-width:1.5;" x1="789.2461" x2="809.2461" y1="166.5659" y2="166.5659"/><line style="stroke:#FFFFFF;stroke-width:1.5;" x1="809.2461" x2="933.1787" y1="166.5659" y2="166.5659"/><path d="M856.8191,166.5659 L856.8191,163.5659 L862.8191,166.5659 L856.8191,169.5659 L856.8191,166.5659" fill="#FFFFFF"/><path d="M809.2461,166.5659 C818.2461,166.5659 821.2461,169.3196 821.2461,178.3196 C821.2461,187.3196 824.2461,190.0732 833.2461,190.0732" fill="none" style="stroke:#FFFFFF;stroke-width:1.5;"/><path d="M909.1787,190.0732 C918.1787,190.0732 921.1787,187.3196 921.1787,178.3196 C921.1787,169.3196 924.1787,166.5659 933.1787,166.5659" fill="none" style="stroke:#FFFFFF;stroke-width:1.5;"/><rect fill="#0B58A8" height="27.0146" rx="5" ry="5" style="stroke:#FFFFFF;stroke-width:1.5;" width="75.9326" x="833.2461" y="176.5659"/><text fill="#FFFFFF" font-family="Verdana" font-size="14" lengthAdjust="spacing" textLength="65.9326" x="838.2461" y="195.6411">Exponent</text><line style="stroke:#FFFFFF;stroke-width:1.5;" x1="933.1787" x2="953.1787" y1="166.5659" y2="166.5659"/><rect fill="none" height="27.0146" style="stroke:#FFFFFF;stroke-width:0.5;" width="21.7988" x="953.1787" y="153.0586"/><text fill="#FFFFFF" font-family="Verdana" font-size="14" lengthAdjust="spacing" textLength="11.7988" x="958.1787" y="172.1338">M</text><line style="stroke:#FFFFFF;stroke-width:1.5;" x1="974.9775" x2="974.9775" y1="166.5659" y2="166.5659"/><path d="M650.5586,154.5659 C650.5586,163.5659 653.5586,166.5659 662.5586,166.5659" fill="none" style="stroke:#FFFFFF;stroke-width:1.5;"/><line style="stroke:#FFFFFF;stroke-width:1.5;" x1="650.5586" x2="650.5586" y1="57.522" y2="154.5659"/><path d="M638.5586,45.522 C647.5586,45.522 650.5586,48.522 650.5586,57.522" fill="none" style="stroke:#FFFFFF;stroke-width:1.5;"/><path d="M986.9775,154.5659 C986.9775,163.5659 983.9775,166.5659 974.9775,166.5659" fill="none" style="stroke:#FFFFFF;stroke-width:1.5;"/><line style="stroke:#FFFFFF;stroke-width:1.5;" x1="986.9775" x2="986.9775" y1="57.522" y2="154.5659"/><path d="M986.9775,57.522 C986.9775,48.522 989.9775,45.522 998.9775,45.522" fill="none" style="stroke:#FFFFFF;stroke-width:1.5;"/><ellipse cx="9" cy="45.522" fill="none" rx="4" ry="4" style="stroke:#FFFFFF;stroke-width:2;"/><ellipse cx="1028.9775" cy="45.522" fill="#FFFFFF" rx="4" ry="4" style="stroke:#FFFFFF;stroke-width:1;"/><line style="stroke:#FFFFFF;stroke-width:1.5;" x1="13" x2="35" y1="45.522" y2="45.522"/><line style="stroke:#FFFFFF;stroke-width:1.5;" x1="998.9775" x2="1024.9775" y1="45.522" y2="45.522"/><path d="M1009.9775,45.522 L1009.9775,42.522 L1015.9775,45.522 L1009.9775,48.522 L1009.9775,45.522" fill="#FFFFFF"/><text fill="#FFFFFF" font-family="Verdana" font-size="14" font-weight="bold" lengthAdjust="spacing" textLength="78.5381" x="5" y="232.6558">Fractional</text><line style="stroke:#FFFFFF;stroke-width:1.5;" x1="35" x2="35" y1="271.1025" y2="271.1025"/><rect fill="none" height="27.0146" style="stroke:#FFFFFF;stroke-width:0.5;" width="15.0928" x="35" y="257.5952"/><text fill="#FFFFFF" font-family="Verdana" font-size="14" lengthAdjust="spacing" textLength="5.0928" x="40" y="276.6704">.</text><line style="stroke:#FFFFFF;stroke-width:1.5;" x1="50.0928" x2="70.0928" y1="271.1025" y2="271.1025"/><path d="M78.0928,263.1025 C78.0928,269.1025 80.0928,271.1025 86.0928,271.1025" fill="none" style="stroke:#FFFFFF;stroke-width:1.5;"/><line style="stroke:#FFFFFF;stroke-width:1.5;" x1="78.0928" x2="78.0928" y1="258.5952" y2="263.1025"/><path d="M78.0928,258.5952 C78.0928,252.5952 80.0928,250.5952 86.0928,250.5952" fill="none" style="stroke:#FFFFFF;stroke-width:1.5;"/><line style="stroke:#FFFFFF;stroke-width:1.5;" x1="85.0928" x2="196.6338" y1="250.5952" y2="250.5952"/><path d="M150.0174,250.5952 L150.0174,247.5952 L144.0174,250.5952 L150.0174,253.5952 L150.0174,250.5952" fill="#FFFFFF"/><path d="M203.6338,263.1025 C203.6338,269.1025 201.6338,271.1025 195.6338,271.1025" fill="none" style="stroke:#FFFFFF;stroke-width:1.5;"/><line style="stroke:#FFFFFF;stroke-width:1.5;" x1="203.6338" x2="203.6338" y1="258.5952" y2="263.1025"/><path d="M195.6338,250.5952 C201.6338,250.5952 203.6338,252.5952 203.6338,258.5952" fill="none" style="stroke:#FFFFFF;stroke-width:1.5;"/><line style="stroke:#FFFFFF;stroke-width:1.5;" x1="70.0928" x2="85.0928" y1="271.1025" y2="271.1025"/><line style="stroke:#FFFFFF;stroke-width:1.5;" x1="196.6338" x2="211.6338" y1="271.1025" y2="271.1025"/><rect fill="none" height="27.0146" style="stroke:#FFFFFF;stroke-width:1;stroke-dasharray:5,5;" width="111.541" x="85.0928" y="257.5952"/><text fill="#FFFFFF" font-family="Verdana" font-size="14" lengthAdjust="spacing" textLength="91.6973" x="95.0146" y="276.6704">Decimal digit</text><ellipse cx="9" cy="271.1025" fill="none" rx="4" ry="4" style="stroke:#FFFFFF;stroke-width:2;"/><ellipse cx="241.6338" cy="271.1025" fill="#FFFFFF" rx="4" ry="4" style="stroke:#FFFFFF;stroke-width:1;"/><line style="stroke:#FFFFFF;stroke-width:1.5;" x1="13" x2="35" y1="271.1025" y2="271.1025"/><line style="stroke:#FFFFFF;stroke-width:1.5;" x1="211.6338" x2="237.6338" y1="271.1025" y2="271.1025"/><path d="M222.6338,271.1025 L222.6338,268.1025 L228.6338,271.1025 L222.6338,274.1025 L222.6338,271.1025" fill="#FFFFFF"/><text fill="#FFFFFF" font-family="Verdana" font-size="14" font-weight="bold" lengthAdjust="spacing" textLength="73.9512" x="5" y="313.6851">Exponent</text><line style="stroke:#FFFFFF;stroke-width:1.5;" x1="35" x2="35" y1="352.1318" y2="352.1318"/><rect fill="none" height="27.0146" style="stroke:#FFFFFF;stroke-width:0.5;" width="18.3398" x="59" y="338.6245"/><text fill="#FFFFFF" font-family="Verdana" font-size="14" lengthAdjust="spacing" textLength="8.3398" x="64" y="357.6997">e</text><line style="stroke:#FFFFFF;stroke-width:1.5;" x1="35" x2="59" y1="352.1318" y2="352.1318"/><line style="stroke:#FFFFFF;stroke-width:1.5;" x1="77.3398" x2="101.8525" y1="352.1318" y2="352.1318"/><rect fill="none" height="27.0146" style="stroke:#FFFFFF;stroke-width:0.5;" width="18.8525" x="59" y="375.6392"/><text fill="#FFFFFF" font-family="Verdana" font-size="14" lengthAdjust="spacing" textLength="8.8525" x="64" y="394.7144">E</text><line style="stroke:#FFFFFF;stroke-width:1.5;" x1="77.8525" x2="77.8525" y1="389.1465" y2="389.1465"/><path d="M47,377.1465 C47,386.1465 50,389.1465 59,389.1465" fill="none" style="stroke:#FFFFFF;stroke-width:1.5;"/><line style="stroke:#FFFFFF;stroke-width:1.5;" x1="47" x2="47" y1="364.1318" y2="377.1465"/><path d="M35,352.1318 C44,352.1318 47,355.1318 47,364.1318" fill="none" style="stroke:#FFFFFF;stroke-width:1.5;"/><path d="M89.8525,377.1465 C89.8525,386.1465 86.8525,389.1465 77.8525,389.1465" fill="none" style="stroke:#FFFFFF;stroke-width:1.5;"/><line style="stroke:#FFFFFF;stroke-width:1.5;" x1="89.8525" x2="89.8525" y1="364.1318" y2="377.1465"/><path d="M89.8525,364.1318 C89.8525,355.1318 92.8525,352.1318 101.8525,352.1318" fill="none" style="stroke:#FFFFFF;stroke-width:1.5;"/><line style="stroke:#FFFFFF;stroke-width:1.5;" x1="101.8525" x2="121.8525" y1="352.1318" y2="352.1318"/><line style="stroke:#FFFFFF;stroke-width:1.5;" x1="121.8525" x2="239.3096" y1="352.1318" y2="352.1318"/><path d="M166.8354,352.1318 L166.8354,349.1318 L172.8354,352.1318 L166.8354,355.1318 L166.8354,352.1318" fill="#FFFFFF"/><path d="M121.8525,352.1318 C130.8525,352.1318 133.8525,354.8855 133.8525,363.8855 C133.8525,372.8855 136.8525,375.6392 145.8525,375.6392" fill="none" style="stroke:#FFFFFF;stroke-width:1.5;"/><path d="M215.3096,375.6392 C224.3096,375.6392 227.3096,372.8855 227.3096,363.8855 C227.3096,354.8855 230.3096,352.1318 239.3096,352.1318" fill="none" style="stroke:#FFFFFF;stroke-width:1.5;"/><rect fill="none" height="27.0146" style="stroke:#FFFFFF;stroke-width:0.5;" width="16.3574" x="169.8525" y="362.1318"/><text fill="#FFFFFF" font-family="Verdana" font-size="14" lengthAdjust="spacing" textLength="6.3574" x="174.8525" y="381.207">-</text><line style="stroke:#FFFFFF;stroke-width:1.5;" x1="145.8525" x2="169.8525" y1="375.6392" y2="375.6392"/><line style="stroke:#FFFFFF;stroke-width:1.5;" x1="186.21" x2="215.3096" y1="375.6392" y2="375.6392"/><rect fill="none" height="27.0146" style="stroke:#FFFFFF;stroke-width:0.5;" width="21.457" x="169.8525" y="399.1465"/><text fill="#FFFFFF" font-family="Verdana" font-size="14" lengthAdjust="spacing" textLength="11.457" x="174.8525" y="418.2217">+</text><line style="stroke:#FFFFFF;stroke-width:1.5;" x1="191.3096" x2="191.3096" y1="412.6538" y2="412.6538"/><path d="M157.8525,400.6538 C157.8525,409.6538 160.8525,412.6538 169.8525,412.6538" fill="none" style="stroke:#FFFFFF;stroke-width:1.5;"/><line style="stroke:#FFFFFF;stroke-width:1.5;" x1="157.8525" x2="157.8525" y1="387.6392" y2="400.6538"/><path d="M145.8525,375.6392 C154.8525,375.6392 157.8525,378.6392 157.8525,387.6392" fill="none" style="stroke:#FFFFFF;stroke-width:1.5;"/><path d="M203.3096,400.6538 C203.3096,409.6538 200.3096,412.6538 191.3096,412.6538" fill="none" style="stroke:#FFFFFF;stroke-width:1.5;"/><line style="stroke:#FFFFFF;stroke-width:1.5;" x1="203.3096" x2="203.3096" y1="387.6392" y2="400.6538"/><path d="M203.3096,387.6392 C203.3096,378.6392 206.3096,375.6392 215.3096,375.6392" fill="none" style="stroke:#FFFFFF;stroke-width:1.5;"/><line style="stroke:#FFFFFF;stroke-width:1.5;" x1="239.3096" x2="259.3096" y1="352.1318" y2="352.1318"/><path d="M267.3096,344.1318 C267.3096,350.1318 269.3096,352.1318 275.3096,352.1318" fill="none" style="stroke:#FFFFFF;stroke-width:1.5;"/><line style="stroke:#FFFFFF;stroke-width:1.5;" x1="267.3096" x2="267.3096" y1="339.6245" y2="344.1318"/><path d="M267.3096,339.6245 C267.3096,333.6245 269.3096,331.6245 275.3096,331.6245" fill="none" style="stroke:#FFFFFF;stroke-width:1.5;"/><line style="stroke:#FFFFFF;stroke-width:1.5;" x1="274.3096" x2="385.8506" y1="331.6245" y2="331.6245"/><path d="M339.2342,331.6245 L339.2342,328.6245 L333.2342,331.6245 L339.2342,334.6245 L339.2342,331.6245" fill="#FFFFFF"/><path d="M392.8506,344.1318 C392.8506,350.1318 390.8506,352.1318 384.8506,352.1318" fill="none" style="stroke:#FFFFFF;stroke-width:1.5;"/><line style="stroke:#FFFFFF;stroke-width:1.5;" x1="392.8506" x2="392.8506" y1="339.6245" y2="344.1318"/><path d="M384.8506,331.6245 C390.8506,331.6245 392.8506,333.6245 392.8506,339.6245" fill="none" style="stroke:#FFFFFF;stroke-width:1.5;"/><line style="stroke:#FFFFFF;stroke-width:1.5;" x1="259.3096" x2="274.3096" y1="352.1318" y2="352.1318"/><line style="stroke:#FFFFFF;stroke-width:1.5;" x1="385.8506" x2="400.8506" y1="352.1318" y2="352.1318"/><rect fill="none" height="27.0146" style="stroke:#FFFFFF;stroke-width:1;stroke-dasharray:5,5;" width="111.541" x="274.3096" y="338.6245"/><text fill="#FFFFFF" font-family="Verdana" font-size="14" lengthAdjust="spacing" textLength="91.6973" x="284.2314" y="357.6997">Decimal digit</text><ellipse cx="9" cy="352.1318" fill="none" rx="4" ry="4" style="stroke:#FFFFFF;stroke-width:2;"/><ellipse cx="430.8506" cy="352.1318" fill="#FFFFFF" rx="4" ry="4" style="stroke:#FFFFFF;stroke-width:1;"/><line style="stroke:#FFFFFF;stroke-width:1.5;" x1="13" x2="35" y1="352.1318" y2="352.1318"/><line style="stroke:#FFFFFF;stroke-width:1.5;" x1="400.8506" x2="426.8506" y1="352.1318" y2="352.1318"/><path d="M411.8506,352.1318 L411.8506,349.1318 L417.8506,352.1318 L411.8506,355.1318 L411.8506,352.1318" fill="#FFFFFF"/><!--SRC=[xLRRSjf847tNLtJO5rCR78n3oc7Zn81X4oyuL6Hx7xRoq4WDJ10pocX4p2RyUth4JUAI-4BU8agKD7twJEjqJy-SHGQreQxiEK_CW4O4E19zT9g1GWEdy1_a2Zdu1ha_S_0Hdi81_zx0ENbYX07ueYyClnSWLyonzUiMsnJorf_j-SI_gT4pGac6F6Nwncse94cJiFDiRJlFDtvAuQnfYViXQetFulBmb-EaOAUGEzmPQy62bnId76wEaizlpC9VbsCdoHb9Fr7LELifFBjUHMOIq6i7G2jbu2i_0DJG6_QrYgLVLu7Iy4UnLZwfdYIsff9cFjfChkNe9NB2RaZxA34PV3i9IRU472xmvzNZKZanyIXjijZHgu7mXfAY28wIiJRglf1WtQPy-ygBHrQEMQGUXbR9-TiwGp4PdIR_FVuyqdS03WZzEm6DC04jSLO1L_nFK2hznDFULjtmRNgc3StNrDsU2TTc3xegyEV4KlcBcDfuAqRnw5_Xcm4S5ujpXAOUQP8U_Ohf8mfHer5xfNtrR5waJZGKqaumWghMwajB1O48LPZbNe5srV4ASKuzZ0EpKRuRYBQIAWhH8t-9hQjO2z8fR4lqAE2ikuOreFw4in6fGFWfI8UNd_14YD9qqFU5xCDHCMLtwNDiasEfR07LbEOaxVf0Tu2- -c99UXX4bB9SHrGZWpCbZOuf8nwtdx4maoH9knTx3VLwrhQ5ixqdR4WwJIV6JeTw5i2cTnPwcw0MQfKprhhGNa1-VO2sfywhULjXRMGDu0Fw8exWPPOmG5wiFz5bFo8aKrMDqQ8R6zeXnLquNFvmKeQxxSD8cglMU6_VL1Evlw_T7tYz31Ftx2QHnhtpbEnmDh1F6UIoA7TaQeD3Yp6QntAmLbnf_kDOucuWl0TJNAg7rilxxYUEVbRVMwfuckbKAyNtLF6kMSX_lyMLvLWKUtKxqmzxrNQc-jwO6djZUhStfij7Cl5MKiU8PeHNz-molu_k-pgwTm8-CrotMp0c7Tapxz5XgLWg7pu_S5dXYrX2wGIEZYl5bvLI6UeDzmgiFUyS_DrfGSJRdaVC7Sts6oR8EnSuHlWGIoD6L87t8ScBytyM0z2GOw6LjATjv-AclGAyU5weSOGkQGu5RjhE_8p47fwoctG5hg-QXHEdXR8VSm-f04c7Drvfz8HjxdS0]--></g></svg>