<svg xmlns="http://www.w3.org/2000/svg" xmlns:xlink="http://www.w3.org/1999/xlink" contentStyleType="text/css" data-diagram-type="EBNF" height="749px" preserveAspectRatio="none" style="width:515px;height:749px;background:#0B58A8;" version="1.1" viewBox="0 0 515 749" width="515px" zoomAndPan="magnify"><defs/><g><rect fill="#0B58A8" height="749" style="stroke:none;stroke-width:1;" width="515" x="0" y="0"/><text fill="#FFFFFF" font-family="Verdana" font-size="14" font-weight="bold" lengthAdjust="spacing" textLength="29.3262" x="5" y="19.0752">Edn</text><path d="M43,49.522 C43,55.522 45,57.522 51,57.522" fill="none" style="stroke:#FFFFFF;stroke-width:1.5;"/><line style="stroke:#FFFFFF;stroke-width:1.5;" x1="43" x2="43" y1="45.0146" y2="49.522"/><path d="M43,45.0146 C43,39.0146 45,37.0146 51,37.0146" fill="none" style="stroke:#FFFFFF;stroke-width:1.5;"/><line style="stroke:#FFFFFF;stroke-width:1.5;" x1="50" x2="203.3408" y1="37.0146" y2="37.0146"/><path d="M140.0045,37.0146 L140.0045,34.0146 L134.0045,37.0146 L140.0045,40.0146 L140.0045,37.0146" fill="#FFFFFF"/><path d="M210.3408,49.522 C210.3408,55.522 208.3408,57.522 202.3408,57.522" fill="none" style="stroke:#FFFFFF;stroke-width:1.5;"/><line style="stroke:#FFFFFF;stroke-width:1.5;" x1="210.3408" x2="210.3408" y1="45.0146" y2="49.522"/><path d="M202.3408,37.0146 C208.3408,37.0146 210.3408,39.0146 210.3408,45.0146" fill="none" style="stroke:#FFFFFF;stroke-width:1.5;"/><line style="stroke:#FFFFFF;stroke-width:1.5;" x1="35" x2="50" y1="57.522" y2="57.522"/><line style="stroke:#FFFFFF;stroke-width:1.5;" x1="203.3408" x2="218.3408" y1="57.522" y2="57.522"/><rect fill="#0B58A8" height="27.0146" rx="5" ry="5" style="stroke:#FFFFFF;stroke-width:1.5;" width="65.4189" x="74" y="44.0146"/><text fill="#FFFFFF" font-family="Verdana" font-size="14" lengthAdjust="spacing" textLength="55.4189" x="79" y="63.0898">Spacing</text><line style="stroke:#FFFFFF;stroke-width:1.5;" x1="50" x2="74" y1="57.522" y2="57.522"/><line style="stroke:#FFFFFF;stroke-width:1.5;" x1="139.4189" x2="203.3408" y1="57.522" y2="57.522"/><rect fill="#0B58A8" height="27.0146" rx="5" ry="5" style="stroke:#FFFFFF;stroke-width:1.5;" width="93.8018" x="74" y="81.0293"/><text fill="#FFFFFF" font-family="Verdana" font-size="14" lengthAdjust="spacing" textLength="83.8018" x="79" y="100.1045">EdnElement</text><path d="M62,82.5366 C62,91.5366 65,94.5366 74,94.5366" fill="none" style="stroke:#FFFFFF;stroke-width:1.5;"/><line style="stroke:#FFFFFF;stroke-width:1.5;" x1="167.8018" x2="179.3408" y1="94.5366" y2="94.5366"/><path d="M191.3408,82.5366 C191.3408,91.5366 188.3408,94.5366 179.3408,94.5366" fill="none" style="stroke:#FFFFFF;stroke-width:1.5;"/><rect fill="none" height="27.0146" style="stroke:#FFFFFF;stroke-width:1;stroke-dasharray:5,5;" width="105.3408" x="74" y="118.0439"/><text fill="#FFFFFF" font-family="Verdana" font-size="14" lengthAdjust="spacing" textLength="85.4971" x="83.9219" y="137.1191">End of input</text><line style="stroke:#FFFFFF;stroke-width:1.5;" x1="179.3408" x2="179.3408" y1="131.5513" y2="131.5513"/><path d="M62,119.5513 C62,128.5513 65,131.5513 74,131.5513" fill="none" style="stroke:#FFFFFF;stroke-width:1.5;"/><line style="stroke:#FFFFFF;stroke-width:1.5;" x1="62" x2="62" y1="69.522" y2="119.5513"/><path d="M50,57.522 C59,57.522 62,60.522 62,69.522" fill="none" style="stroke:#FFFFFF;stroke-width:1.5;"/><path d="M191.3408,119.5513 C191.3408,128.5513 188.3408,131.5513 179.3408,131.5513" fill="none" style="stroke:#FFFFFF;stroke-width:1.5;"/><line style="stroke:#FFFFFF;stroke-width:1.5;" x1="191.3408" x2="191.3408" y1="69.522" y2="119.5513"/><path d="M191.3408,69.522 C191.3408,60.522 194.3408,57.522 203.3408,57.522" fill="none" style="stroke:#FFFFFF;stroke-width:1.5;"/><ellipse cx="9" cy="57.522" fill="none" rx="4" ry="4" style="stroke:#FFFFFF;stroke-width:2;"/><ellipse cx="248.3408" cy="57.522" fill="#FFFFFF" rx="4" ry="4" style="stroke:#FFFFFF;stroke-width:1;"/><line style="stroke:#FFFFFF;stroke-width:1.5;" x1="13" x2="35" y1="57.522" y2="57.522"/><line style="stroke:#FFFFFF;stroke-width:1.5;" x1="218.3408" x2="244.3408" y1="57.522" y2="57.522"/><path d="M229.3408,57.522 L229.3408,54.522 L235.3408,57.522 L229.3408,60.522 L229.3408,57.522" fill="#FFFFFF"/><text fill="#FFFFFF" font-family="Verdana" font-size="14" font-weight="bold" lengthAdjust="spacing" textLength="61.8721" x="5" y="174.1338">Spacing</text><path d="M43,204.5806 C43,210.5806 45,212.5806 51,212.5806" fill="none" style="stroke:#FFFFFF;stroke-width:1.5;"/><line style="stroke:#FFFFFF;stroke-width:1.5;" x1="43" x2="43" y1="200.0732" y2="204.5806"/><path d="M43,200.0732 C43,194.0732 45,192.0732 51,192.0732" fill="none" style="stroke:#FFFFFF;stroke-width:1.5;"/><line style="stroke:#FFFFFF;stroke-width:1.5;" x1="50" x2="190.7354" y1="192.0732" y2="192.0732"/><path d="M132.4412,192.0732 L132.4412,189.0732 L126.4412,192.0732 L132.4412,195.0732 L132.4412,192.0732" fill="#FFFFFF"/><path d="M197.7354,204.5806 C197.7354,210.5806 195.7354,212.5806 189.7354,212.5806" fill="none" style="stroke:#FFFFFF;stroke-width:1.5;"/><line style="stroke:#FFFFFF;stroke-width:1.5;" x1="197.7354" x2="197.7354" y1="200.0732" y2="204.5806"/><path d="M189.7354,192.0732 C195.7354,192.0732 197.7354,194.0732 197.7354,200.0732" fill="none" style="stroke:#FFFFFF;stroke-width:1.5;"/><line style="stroke:#FFFFFF;stroke-width:1.5;" x1="35" x2="50" y1="212.5806" y2="212.5806"/><line style="stroke:#FFFFFF;stroke-width:1.5;" x1="190.7354" x2="205.7354" y1="212.5806" y2="212.5806"/><rect fill="#0B58A8" height="27.0146" rx="5" ry="5" style="stroke:#FFFFFF;stroke-width:1.5;" width="92.7354" x="74" y="199.0732"/><text fill="#FFFFFF" font-family="Verdana" font-size="14" lengthAdjust="spacing" textLength="82.7354" x="79" y="218.1484">WhiteSpace</text><line style="stroke:#FFFFFF;stroke-width:1.5;" x1="50" x2="74" y1="212.5806" y2="212.5806"/><line style="stroke:#FFFFFF;stroke-width:1.5;" x1="166.7354" x2="190.7354" y1="212.5806" y2="212.5806"/><rect fill="#0B58A8" height="27.0146" rx="5" ry="5" style="stroke:#FFFFFF;stroke-width:1.5;" width="78.2227" x="74" y="236.0879"/><text fill="#FFFFFF" font-family="Verdana" font-size="14" lengthAdjust="spacing" textLength="68.2227" x="79" y="255.1631">Comment</text><path d="M62,237.5952 C62,246.5952 65,249.5952 74,249.5952" fill="none" style="stroke:#FFFFFF;stroke-width:1.5;"/><line style="stroke:#FFFFFF;stroke-width:1.5;" x1="152.2227" x2="166.7354" y1="249.5952" y2="249.5952"/><path d="M178.7354,237.5952 C178.7354,246.5952 175.7354,249.5952 166.7354,249.5952" fill="none" style="stroke:#FFFFFF;stroke-width:1.5;"/><rect fill="none" height="27.0146" style="stroke:#FFFFFF;stroke-width:0.5;" width="15.0928" x="74" y="273.1025"/><text fill="#FFFFFF" font-family="Verdana" font-size="14" lengthAdjust="spacing" textLength="5.0928" x="79" y="292.1777">,</text><line style="stroke:#FFFFFF;stroke-width:1.5;" x1="89.0928" x2="166.7354" y1="286.6099" y2="286.6099"/><path d="M125.9141,286.6099 L125.9141,283.6099 L131.9141,286.6099 L125.9141,289.6099 L125.9141,286.6099" fill="#FFFFFF"/><path d="M62,274.6099 C62,283.6099 65,286.6099 74,286.6099" fill="none" style="stroke:#FFFFFF;stroke-width:1.5;"/><line style="stroke:#FFFFFF;stroke-width:1.5;" x1="62" x2="62" y1="224.5806" y2="274.6099"/><path d="M50,212.5806 C59,212.5806 62,215.5806 62,224.5806" fill="none" style="stroke:#FFFFFF;stroke-width:1.5;"/><path d="M178.7354,274.6099 C178.7354,283.6099 175.7354,286.6099 166.7354,286.6099" fill="none" style="stroke:#FFFFFF;stroke-width:1.5;"/><line style="stroke:#FFFFFF;stroke-width:1.5;" x1="178.7354" x2="178.7354" y1="224.5806" y2="274.6099"/><path d="M178.7354,224.5806 C178.7354,215.5806 181.7354,212.5806 190.7354,212.5806" fill="none" style="stroke:#FFFFFF;stroke-width:1.5;"/><ellipse cx="9" cy="212.5806" fill="none" rx="4" ry="4" style="stroke:#FFFFFF;stroke-width:2;"/><ellipse cx="235.7354" cy="212.5806" fill="#FFFFFF" rx="4" ry="4" style="stroke:#FFFFFF;stroke-width:1;"/><line style="stroke:#FFFFFF;stroke-width:1.5;" x1="13" x2="35" y1="212.5806" y2="212.5806"/><line style="stroke:#FFFFFF;stroke-width:1.5;" x1="205.7354" x2="231.7354" y1="212.5806" y2="212.5806"/><path d="M216.7354,212.5806 L216.7354,209.5806 L222.7354,212.5806 L216.7354,215.5806 L216.7354,212.5806" fill="#FFFFFF"/><text fill="#FFFFFF" font-family="Verdana" font-size="14" font-weight="bold" lengthAdjust="spacing" textLength="92.8525" x="5" y="329.1924">WhiteSpace</text><rect fill="none" height="27.0146" style="stroke:#FFFFFF;stroke-width:0.5;" width="14.9219" x="59" y="342.1318"/><text fill="#FFFFFF" font-family="Verdana" font-size="14" lengthAdjust="spacing" textLength="4.9219" x="64" y="361.207">&#160;</text><line style="stroke:#FFFFFF;stroke-width:1.5;" x1="35" x2="59" y1="355.6392" y2="355.6392"/><line style="stroke:#FFFFFF;stroke-width:1.5;" x1="73.9219" x2="108.2168" y1="355.6392" y2="355.6392"/><rect fill="none" height="27.0146" style="stroke:#FFFFFF;stroke-width:0.5;" width="21.874" x="59" y="379.1465"/><text fill="#FFFFFF" font-family="Verdana" font-size="14" lengthAdjust="spacing" textLength="11.874" x="64" y="398.2217">\t</text><path d="M47,380.6538 C47,389.6538 50,392.6538 59,392.6538" fill="none" style="stroke:#FFFFFF;stroke-width:1.5;"/><line style="stroke:#FFFFFF;stroke-width:1.5;" x1="80.874" x2="84.2168" y1="392.6538" y2="392.6538"/><path d="M96.2168,380.6538 C96.2168,389.6538 93.2168,392.6538 84.2168,392.6538" fill="none" style="stroke:#FFFFFF;stroke-width:1.5;"/><rect fill="none" height="27.0146" style="stroke:#FFFFFF;stroke-width:0.5;" width="25.2168" x="59" y="416.1611"/><text fill="#FFFFFF" font-family="Verdana" font-size="14" lengthAdjust="spacing" textLength="15.2168" x="64" y="435.2363">\n</text><path d="M47,417.6685 C47,426.6685 50,429.6685 59,429.6685" fill="none" style="stroke:#FFFFFF;stroke-width:1.5;"/><line style="stroke:#FFFFFF;stroke-width:1.5;" x1="84.2168" x2="84.2168" y1="429.6685" y2="429.6685"/><path d="M96.2168,417.6685 C96.2168,426.6685 93.2168,429.6685 84.2168,429.6685" fill="none" style="stroke:#FFFFFF;stroke-width:1.5;"/><rect fill="none" height="27.0146" style="stroke:#FFFFFF;stroke-width:0.5;" width="22.332" x="59" y="453.1758"/><text fill="#FFFFFF" font-family="Verdana" font-size="14" lengthAdjust="spacing" textLength="12.332" x="64" y="472.251">\r</text><line style="stroke:#FFFFFF;stroke-width:1.5;" x1="81.332" x2="84.2168" y1="466.6831" y2="466.6831"/><path d="M47,454.6831 C47,463.6831 50,466.6831 59,466.6831" fill="none" style="stroke:#FFFFFF;stroke-width:1.5;"/><line style="stroke:#FFFFFF;stroke-width:1.5;" x1="47" x2="47" y1="367.6392" y2="454.6831"/><path d="M35,355.6392 C44,355.6392 47,358.6392 47,367.6392" fill="none" style="stroke:#FFFFFF;stroke-width:1.5;"/><path d="M96.2168,454.6831 C96.2168,463.6831 93.2168,466.6831 84.2168,466.6831" fill="none" style="stroke:#FFFFFF;stroke-width:1.5;"/><line style="stroke:#FFFFFF;stroke-width:1.5;" x1="96.2168" x2="96.2168" y1="367.6392" y2="454.6831"/><path d="M96.2168,367.6392 C96.2168,358.6392 99.2168,355.6392 108.2168,355.6392" fill="none" style="stroke:#FFFFFF;stroke-width:1.5;"/><ellipse cx="9" cy="355.6392" fill="none" rx="4" ry="4" style="stroke:#FFFFFF;stroke-width:2;"/><ellipse cx="138.2168" cy="355.6392" fill="#FFFFFF" rx="4" ry="4" style="stroke:#FFFFFF;stroke-width:1;"/><line style="stroke:#FFFFFF;stroke-width:1.5;" x1="13" x2="35" y1="355.6392" y2="355.6392"/><line style="stroke:#FFFFFF;stroke-width:1.5;" x1="108.2168" x2="134.2168" y1="355.6392" y2="355.6392"/><path d="M119.2168,355.6392 L119.2168,352.6392 L125.2168,355.6392 L119.2168,358.6392 L119.2168,355.6392" fill="#FFFFFF"/><text fill="#FFFFFF" font-family="Verdana" font-size="14" font-weight="bold" lengthAdjust="spacing" textLength="75.0176" x="5" y="509.2656">Comment</text><line style="stroke:#FFFFFF;stroke-width:1.5;" x1="35" x2="35" y1="535.7124" y2="535.7124"/><rect fill="none" height="27.0146" style="stroke:#FFFFFF;stroke-width:0.5;" width="16.3574" x="35" y="522.2051"/><text fill="#FFFFFF" font-family="Verdana" font-size="14" lengthAdjust="spacing" textLength="6.3574" x="40" y="541.2803">;</text><line style="stroke:#FFFFFF;stroke-width:1.5;" x1="51.3574" x2="71.3574" y1="535.7124" y2="535.7124"/><line style="stroke:#FFFFFF;stroke-width:1.5;" x1="71.3574" x2="390.2949" y1="535.7124" y2="535.7124"/><path d="M196.9324,535.7124 L196.9324,532.7124 L202.9324,535.7124 L196.9324,538.7124 L196.9324,535.7124" fill="#FFFFFF"/><path d="M71.3574,535.7124 C80.3574,535.7124 83.3574,544.4661 83.3574,553.4661 C83.3574,562.4661 86.3574,571.2197 95.3574,571.2197" fill="none" style="stroke:#FFFFFF;stroke-width:1.5;"/><path d="M366.2949,571.2197 C375.2949,571.2197 378.2949,562.4661 378.2949,553.4661 C378.2949,544.4661 381.2949,535.7124 390.2949,535.7124" fill="none" style="stroke:#FFFFFF;stroke-width:1.5;"/><path d="M103.3574,563.2197 C103.3574,569.2197 105.3574,571.2197 111.3574,571.2197" fill="none" style="stroke:#FFFFFF;stroke-width:1.5;"/><line style="stroke:#FFFFFF;stroke-width:1.5;" x1="103.3574" x2="103.3574" y1="558.7124" y2="563.2197"/><path d="M103.3574,558.7124 C103.3574,552.7124 105.3574,550.7124 111.3574,550.7124" fill="none" style="stroke:#FFFFFF;stroke-width:1.5;"/><line style="stroke:#FFFFFF;stroke-width:1.5;" x1="110.3574" x2="351.2949" y1="550.7124" y2="550.7124"/><path d="M252.9199,550.7124 L252.9199,547.7124 L246.9199,550.7124 L252.9199,553.7124 L252.9199,550.7124" fill="#FFFFFF"/><path d="M358.2949,563.2197 C358.2949,569.2197 356.2949,571.2197 350.2949,571.2197" fill="none" style="stroke:#FFFFFF;stroke-width:1.5;"/><line style="stroke:#FFFFFF;stroke-width:1.5;" x1="358.2949" x2="358.2949" y1="558.7124" y2="563.2197"/><path d="M350.2949,550.7124 C356.2949,550.7124 358.2949,552.7124 358.2949,558.7124" fill="none" style="stroke:#FFFFFF;stroke-width:1.5;"/><line style="stroke:#FFFFFF;stroke-width:1.5;" x1="95.3574" x2="110.3574" y1="571.2197" y2="571.2197"/><line style="stroke:#FFFFFF;stroke-width:1.5;" x1="351.2949" x2="366.2949" y1="571.2197" y2="571.2197"/><line style="stroke:#FFFFFF;stroke-width:1.5;" x1="110.3574" x2="110.3574" y1="571.2197" y2="571.2197"/><rect fill="none" height="27.0146" style="stroke:#FFFFFF;stroke-width:1;stroke-dasharray:5,5;" width="117.5498" x="110.3574" y="557.7124"/><text fill="#FFFFFF" font-family="Verdana" font-size="14" lengthAdjust="spacing" textLength="97.7061" x="120.2793" y="576.7876">Any character</text><line style="stroke:#FFFFFF;stroke-width:1.5;" x1="227.9072" x2="247.9072" y1="571.2197" y2="571.2197"/><text fill="#FFFFFF" font-family="Verdana" font-size="14" lengthAdjust="spacing" textLength="30.1191" x="250.9072" y="575.1592">NOT</text><rect fill="#0B58A8" height="27.0146" rx="5" ry="5" style="stroke:#FFFFFF;stroke-width:1.5;" width="65.2686" x="286.0264" y="557.7124"/><text fill="#FFFFFF" font-family="Verdana" font-size="14" lengthAdjust="spacing" textLength="55.2686" x="291.0264" y="576.7876">LineEnd</text><line style="stroke:#FFFFFF;stroke-width:1.5;" x1="390.2949" x2="410.2949" y1="535.7124" y2="535.7124"/><rect fill="#0B58A8" height="27.0146" rx="5" ry="5" style="stroke:#FFFFFF;stroke-width:1.5;" width="65.2686" x="410.2949" y="522.2051"/><text fill="#FFFFFF" font-family="Verdana" font-size="14" lengthAdjust="spacing" textLength="55.2686" x="415.2949" y="541.2803">LineEnd</text><ellipse cx="9" cy="535.7124" fill="none" rx="4" ry="4" style="stroke:#FFFFFF;stroke-width:2;"/><ellipse cx="505.5635" cy="535.7124" fill="#FFFFFF" rx="4" ry="4" style="stroke:#FFFFFF;stroke-width:1;"/><line style="stroke:#FFFFFF;stroke-width:1.5;" x1="13" x2="35" y1="535.7124" y2="535.7124"/><line style="stroke:#FFFFFF;stroke-width:1.5;" x1="475.5635" x2="501.5635" y1="535.7124" y2="535.7124"/><path d="M486.5635,535.7124 L486.5635,532.7124 L492.5635,535.7124 L486.5635,538.7124 L486.5635,535.7124" fill="#FFFFFF"/><text fill="#FFFFFF" font-family="Verdana" font-size="14" font-weight="bold" lengthAdjust="spacing" textLength="62.3027" x="5" y="613.8022">LineEnd</text><rect fill="none" height="27.0146" style="stroke:#FFFFFF;stroke-width:0.5;" width="25.2168" x="59" y="626.7417"/><text fill="#FFFFFF" font-family="Verdana" font-size="14" lengthAdjust="spacing" textLength="15.2168" x="64" y="645.8169">\n</text><line style="stroke:#FFFFFF;stroke-width:1.5;" x1="35" x2="59" y1="640.249" y2="640.249"/><line style="stroke:#FFFFFF;stroke-width:1.5;" x1="84.2168" x2="188.3408" y1="640.249" y2="640.249"/><rect fill="none" height="27.0146" style="stroke:#FFFFFF;stroke-width:0.5;" width="22.332" x="59" y="663.7563"/><text fill="#FFFFFF" font-family="Verdana" font-size="14" lengthAdjust="spacing" textLength="12.332" x="64" y="682.8315">\r</text><path d="M47,665.2637 C47,674.2637 50,677.2637 59,677.2637" fill="none" style="stroke:#FFFFFF;stroke-width:1.5;"/><line style="stroke:#FFFFFF;stroke-width:1.5;" x1="81.332" x2="164.3408" y1="677.2637" y2="677.2637"/><path d="M120.8364,677.2637 L120.8364,674.2637 L126.8364,677.2637 L120.8364,680.2637 L120.8364,677.2637" fill="#FFFFFF"/><path d="M176.3408,665.2637 C176.3408,674.2637 173.3408,677.2637 164.3408,677.2637" fill="none" style="stroke:#FFFFFF;stroke-width:1.5;"/><rect fill="none" height="27.0146" style="stroke:#FFFFFF;stroke-width:1;stroke-dasharray:5,5;" width="105.3408" x="59" y="700.771"/><text fill="#FFFFFF" font-family="Verdana" font-size="14" lengthAdjust="spacing" textLength="85.4971" x="68.9219" y="719.8462">End of input</text><line style="stroke:#FFFFFF;stroke-width:1.5;" x1="164.3408" x2="164.3408" y1="714.2783" y2="714.2783"/><path d="M47,702.2783 C47,711.2783 50,714.2783 59,714.2783" fill="none" style="stroke:#FFFFFF;stroke-width:1.5;"/><line style="stroke:#FFFFFF;stroke-width:1.5;" x1="47" x2="47" y1="652.249" y2="702.2783"/><path d="M35,640.249 C44,640.249 47,643.249 47,652.249" fill="none" style="stroke:#FFFFFF;stroke-width:1.5;"/><path d="M176.3408,702.2783 C176.3408,711.2783 173.3408,714.2783 164.3408,714.2783" fill="none" style="stroke:#FFFFFF;stroke-width:1.5;"/><line style="stroke:#FFFFFF;stroke-width:1.5;" x1="176.3408" x2="176.3408" y1="652.249" y2="702.2783"/><path d="M176.3408,652.249 C176.3408,643.249 179.3408,640.249 188.3408,640.249" fill="none" style="stroke:#FFFFFF;stroke-width:1.5;"/><ellipse cx="9" cy="640.249" fill="none" rx="4" ry="4" style="stroke:#FFFFFF;stroke-width:2;"/><ellipse cx="218.3408" cy="640.249" fill="#FFFFFF" rx="4" ry="4" style="stroke:#FFFFFF;stroke-width:1;"/><line style="stroke:#FFFFFF;stroke-width:1.5;" x1="13" x2="35" y1="640.249" y2="640.249"/><line style="stroke:#FFFFFF;stroke-width:1.5;" x1="188.3408" x2="214.3408" y1="640.249" y2="640.249"/><path d="M199.3408,640.249 L199.3408,637.249 L205.3408,640.249 L199.3408,643.249 L199.3408,640.249" fill="#FFFFFF"/><!--SRC=[xLPTLnen47tVNp6bBtgEjeZIOr5R0R7MWkLqrRxq9Mm6I5cIRJPBfPR_tiak2xi2zOk-5GuVcTovcToPJFOuD4mRxCYkyyBqSOZ0XgB7d0QNS0Itu0RC4x87lu4i3Py0qj3WFJGa1zK58OF8q72o3GUEawAjvzU-C6WDIFYw6auz2rk5AJW3E882lMdocqb-PFAZ2nQOEXFge01RnBr1ArRb6Bm-qympg6cy3KqXqOQr2HD2fICYIFyUvPYNxEB0EKR9OpMSuxaooUimD6CVtpa0MYa3j_G7eCQyGK-hIFAwyfM6byLQUR-w7y-TAcccrjFuDRDUC1Bw6ZLdaiN6it60ci8SfFYJwcwf74_Pu1TPhFMoBxo1n324dTZMOhed95Yt2Nsuyg9OjoHIZmL6A3aTtMKenjP9_DsbxP6azmFxoFY3W4OO7sSugu0hVY6KIlTusezLDpZBhhIW-HrrbsV2jTc3ZlBvb5WgdiRKOZTY60s_2cxwi5iiJX4QkwXHUlWlbWyneE8rQgsqXw-dHUg40ofgMc08LQtLpwRoVH6e8Cyz1wsgupdY1Biiyir2-IuWMaggq1vhFiFMLQG5wWosARheKzPTGnfWRqpP29KlU0RIfkCdF14mQTgCSzjNTegPUHT_H3OvbieMK4rfIjAg3RfznjLFIz9bVeYPcQiGQsXOegJH4UR4yumO2JEEaxJwiDUOlfkrPU4ixmaBaawoYR7BCPq4iEYTXzx4g5IjScwsBhJd8w_FMkOTmjbU5h86y8Ln4ONmDa_eCpgiz-Yo7X7YfQh6QD693AwGuY4SBcqSbQ5k-pIIqtbhVBHlfeaytjVU3tHU1h5x_fB8uZvwIhOf6wo7EUIiA5TaQe53Yn4pp-KWhQZI-FDOeeull2TJNAYdrildpdUAFgdl9LKyoNMgkU9hgdZNfF8_xd3bET9Yhovd-cklMivKNnjJOsrC7zV6TF5C9hfAwYp4XF3oaLtc_oDtswUx_ghLX17gq3whxhmg5KlbLtiRBZDm7aaexSFERgNujb8gGxtXNeATttGsFhIR4D9rHHlZ8apk2IBOTCxPYC6NI1enn0fy3b2UdtnA3HJBI6WbxLQTy-lM7F1cRxic33rYQ0e5hblEzDc6F3nbBzSAN5sURkyxJIPx4Ptz2g0arOXNZsdE_GC0]--></g></svg>